<?xml version="1.0" encoding="utf-8"?>
<!-- Generator: Adobe Illustrator 18.0.0, SVG Export Plug-In . SVG Version: 6.00 Build 0)  -->
<!DOCTYPE svg PUBLIC "-//W3C//DTD SVG 1.1//EN" "http://www.w3.org/Graphics/SVG/1.1/DTD/svg11.dtd">
<svg version="1.1" id="圖層_1" xmlns="http://www.w3.org/2000/svg" xmlns:xlink="http://www.w3.org/1999/xlink" x="0px" y="0px"
	 viewBox="0 0 72 72" enable-background="new 0 0 72 72" xml:space="preserve">
<path fill-rule="evenodd" clip-rule="evenodd" d="M4.3,60.8c2.4,1.7,5.8,1.1,7.4-1.3L36,24.8l24.3,34.7c1.7,2.4,5,3,7.4,1.3
	c2.4-1.7,3-5,1.3-7.4L40.4,12.5c-0.8-1.1-2-1.9-3.3-2.1c0,0-0.1,0-0.1,0c-0.2,0-0.5-0.1-0.7-0.1c-0.1,0-0.3,0-0.4,0
	c-0.1,0-0.3,0-0.4,0c-0.2,0-0.5,0-0.7,0.1c0,0-0.1,0-0.1,0c-1.3,0.3-2.4,1-3.3,2.1L3,53.4C1.3,55.8,1.9,59.1,4.3,60.8z"/>
</svg>
