<?xml version="1.0" encoding="utf-8"?>
<!-- Generator: Adobe Illustrator 18.0.0, SVG Export Plug-In . SVG Version: 6.00 Build 0)  -->
<!DOCTYPE svg PUBLIC "-//W3C//DTD SVG 1.1//EN" "http://www.w3.org/Graphics/SVG/1.1/DTD/svg11.dtd">
<svg version="1.1" id="圖層_1" xmlns="http://www.w3.org/2000/svg" xmlns:xlink="http://www.w3.org/1999/xlink" x="0px" y="0px"
	 viewBox="0 0 72 72" enable-background="new 0 0 72 72" xml:space="preserve">
<path fill-rule="evenodd" clip-rule="evenodd" d="M60.8,67.7c1.7-2.4,1.1-5.8-1.3-7.4L24.8,36l34.7-24.3c2.4-1.7,3-5,1.3-7.4
	c-1.7-2.4-5-3-7.4-1.3L12.5,31.6c-1.1,0.8-1.9,2-2.1,3.3c0,0,0,0.1,0,0.1c0,0.2-0.1,0.5-0.1,0.7c0,0.1,0,0.3,0,0.4
	c0,0.1,0,0.3,0,0.4c0,0.2,0,0.5,0.1,0.7c0,0,0,0.1,0,0.1c0.3,1.3,1,2.4,2.1,3.3L53.4,69C55.8,70.7,59.1,70.1,60.8,67.7z"/>
</svg>
