<?xml version="1.0" encoding="utf-8"?>
<!-- Generator: Adobe Illustrator 18.0.0, SVG Export Plug-In . SVG Version: 6.00 Build 0)  -->
<!DOCTYPE svg PUBLIC "-//W3C//DTD SVG 1.1//EN" "http://www.w3.org/Graphics/SVG/1.1/DTD/svg11.dtd">
<svg version="1.1" id="圖層_1" xmlns="http://www.w3.org/2000/svg" xmlns:xlink="http://www.w3.org/1999/xlink" x="0px" y="0px"
	 viewBox="0 0 72 72" enable-background="new 0 0 72 72" xml:space="preserve">
<g>
	<path d="M69.4,60.4c0.8,1.5,0.8,3.3-0.1,4.8c-0.9,1.5-2.5,2.4-4.2,2.4H6.9c-1.7,0-3.3-0.9-4.2-2.4c-0.9-1.5-0.9-3.3-0.1-4.8L31.7,7
		c0.8-1.6,2.5-2.5,4.3-2.5s3.4,1,4.3,2.5L69.4,60.4z M41.5,25c0-0.2-0.1-0.5-0.4-0.7c-0.2-0.2-0.6-0.4-0.9-0.4h-8.3
		c-0.3,0-0.7,0.2-0.9,0.4c-0.3,0.2-0.4,0.6-0.4,0.8l0.6,17.3c0,0.5,0.6,0.9,1.3,0.9h7c0.7,0,1.3-0.4,1.3-0.9L41.5,25z M40.9,49.4
		c0-0.7-0.5-1.3-1.2-1.3h-7.3c-0.7,0-1.2,0.6-1.2,1.3v7.2c0,0.7,0.5,1.3,1.2,1.3h7.3c0.7,0,1.2-0.6,1.2-1.3V49.4z"/>
</g>
</svg>
