<?xml version="1.0" encoding="utf-8"?>
<!-- Generator: Adobe Illustrator 18.0.0, SVG Export Plug-In . SVG Version: 6.00 Build 0)  -->
<!DOCTYPE svg PUBLIC "-//W3C//DTD SVG 1.1//EN" "http://www.w3.org/Graphics/SVG/1.1/DTD/svg11.dtd">
<svg version="1.1" id="圖層_1" xmlns="http://www.w3.org/2000/svg" xmlns:xlink="http://www.w3.org/1999/xlink" x="0px" y="0px"
	 viewBox="0 0 72 72" enable-background="new 0 0 72 72" xml:space="preserve">
<path d="M29.4,26.4v43.5c2,0.1,4.2,0.1,6.6,0.1c2.4,0,4.6-0.1,6.6-0.1V26.4c-2-0.1-4.2-0.1-6.6-0.1C33.6,26.3,31.4,26.3,29.4,26.4z
	 M57.1,28c0,0-3.9-1-11.6-1.5v43.2c7.7-0.5,11.6-1.5,11.6-1.5c3,0,5.4-2.4,5.4-5.5V33.5C62.5,30.5,60.1,28,57.1,28z M9.5,33.5v29.3
	c0,3,2.4,5.5,5.4,5.5c0,0,3.9,1,11.6,1.5V26.6C18.8,27.1,14.9,28,14.9,28C11.9,28,9.5,30.5,9.5,33.5z M25.5,24.4l8.5-0.7
	c0,0-3.3-20.1-7.1-21.6c-3.8-1.4-13.9,9.2-12.6,13.4C15.7,19.7,25.5,24.4,25.5,24.4z M26.6,10.3c1.9,0.7,3.5,10.6,3.5,10.6L26,21.3
	c0,0-4.8-2.3-5.5-4.4C19.8,14.9,24.8,9.6,26.6,10.3z M57.7,15.5c1.4-4.2-8.8-14.8-12.6-13.4C41.3,3.6,38,23.7,38,23.7l8.5,0.7
	C46.5,24.4,56.3,19.7,57.7,15.5z M41.9,20.9c0,0,1.6-9.9,3.5-10.6c1.9-0.7,6.8,4.5,6.2,6.6c-0.7,2-5.5,4.4-5.5,4.4L41.9,20.9z"/>
</svg>
