<?xml version="1.0" encoding="utf-8"?>
<!-- Generator: Adobe Illustrator 18.0.0, SVG Export Plug-In . SVG Version: 6.00 Build 0)  -->
<!DOCTYPE svg PUBLIC "-//W3C//DTD SVG 1.1//EN" "http://www.w3.org/Graphics/SVG/1.1/DTD/svg11.dtd">
<svg version="1.1" id="圖層_1" xmlns="http://www.w3.org/2000/svg" xmlns:xlink="http://www.w3.org/1999/xlink" x="0px" y="0px"
	 viewBox="0 0 72 72" enable-background="new 0 0 72 72" xml:space="preserve">
<g>
	<path d="M38.2,2H33c-10.8,0-19.2,8.8-19.2,20v28c0,11.2,8.4,20,19.2,20h5.2c11,0,20-9,20-20V22C58.2,11,49.2,2,38.2,2L38.2,2z
		 M35.8,12.5h0.4c0.6,0,1.1,0.5,1.1,1.1v8.1c0,0.6-0.5,1.1-1.1,1.1h-0.4c-0.6,0-1.1-0.5-1.1-1.1v-8.1C34.7,13,35.2,12.5,35.8,12.5
		L35.8,12.5z M55.6,50c0,9.6-7.8,17.4-17.4,17.4H33c-9.3,0-16.6-7.6-16.6-17.4V22c0-9.7,7.3-17.4,16.6-17.4h1.7V10
		c-1.5,0.5-2.6,1.9-2.6,3.6v8.1c0,1.7,1.1,3.1,2.6,3.6v6.7c0,0.7,0.6,1.3,1.3,1.3c0.7,0,1.3-0.6,1.3-1.3v-6.7
		c1.5-0.5,2.7-1.9,2.7-3.6v-8.1c0-1.7-1.1-3.1-2.7-3.6V4.6h0.9c9.6,0,17.4,7.8,17.4,17.4V50z M55.6,50"/>
</g>
</svg>
