<?xml version="1.0" encoding="utf-8"?>
<!-- Generator: Adobe Illustrator 18.0.0, SVG Export Plug-In . SVG Version: 6.00 Build 0)  -->
<!DOCTYPE svg PUBLIC "-//W3C//DTD SVG 1.1//EN" "http://www.w3.org/Graphics/SVG/1.1/DTD/svg11.dtd">
<svg version="1.1" id="圖層_1" xmlns="http://www.w3.org/2000/svg" xmlns:xlink="http://www.w3.org/1999/xlink" x="0px" y="0px"
	 viewBox="0 0 660 72" enable-background="new 0 0 660 72" xml:space="preserve">
<g>
	<path d="M4.2,39l1.8,6.2l3.6-4.3v23.9v3.4H13h5.8h3.4v-3.4v-8.6l3,1.9l0.9,0.5l0.1,0.5l1.2,6.3l0.5,2.8h2.8h9c3.5,0,6-0.8,7.7-2.4
		c1.7-1.5,2.7-4,2.7-7.3v-16c1.7,4.5,3.4,9.5,5.1,15l1.1,3.7l3.5-1.5l5.8-2.5l2.8-1.2L67.4,53c-2.2-6.9-4.5-13.2-7-19.1l0.9-1.9
		c2.6-5.8,4.5-11.6,5.5-17.3l0.7-4h-4.1H41.6c0.2-0.5,0.4-0.9,0.5-1.4l1.4-3.7l-3.9-0.8l-6-1.3l-2.9-0.6l-1,2.8
		c-1.2,3.5-2.8,6.9-4.6,10.2c0.7-1.8,1.4-3.8,2.1-5.9l1-3l-2.9-1.2l-5.2-2.2L16.6,2l-1.1,3.5c-1.9,5.8-3.8,10.2-5.7,13.2
		c-2.2,3.8-4.5,7.1-6.9,10.1l-1.1,1.4l0.5,1.7L4.2,39z M22.1,34.4l0.4,0.5L25,38c-0.8,2.1-1.8,4.2-2.9,6.2V34.4z M32.6,28.5
		c1.1-1.7,2.2-3.5,3.2-5.5H37v0.3v6.1L32.6,28.5z M37,43v12.6c-1.9,0-3.9-0.2-6-0.4C33.3,51.5,35.3,47.4,37,43z M50.1,23.3V23h1.4
		c-0.4,1-0.9,1.9-1.4,2.7V23.3z"/>
	<path d="M96.2,48.7l1.8,2.7l2.8-1.7c2.8-1.6,4.7-3.3,6-5c1.7-2.2,2.6-5,2.6-8.2v-6.3v-3.4H106h-7.8h-3.4v3.4V38v3l-2.7,1.3l2.1,3.2
		L96.2,48.7z"/>
	<path d="M198,68.5h2.9l0.4-2.9l1-6.3l0.7-4.3l-4.3,0.4c-3.8,0.3-7.1,0.5-10.1,0.5c-1,0-2,0-2.9-0.1v-7.9h9.8h3.4v-3.4v-5.8v-3.4
		h-3.4h-9.8v-4.7c1-1.2,1.9-2.3,2.7-3.5c1.1,1,2.3,2.2,3.7,3.6l2.9,2.9l2.3-3.4l3.8-5.5l1.8-2.7l-2.6-2c-2.2-1.6-4.3-3.1-6.4-4.5
		c0.6-1.9,1.2-4.1,1.9-6.9l0.9-3.5L193,4.5l-6-1l-3.2-0.6l-0.7,3.2c-0.8,4.1-1.8,7.1-3,9.4c-0.4,0.8-0.9,1.6-1.4,2.5
		c-1.5-1.3-2.9-2.4-4.2-3.4c0.6-1.6,1.1-3.6,1.8-5.9l1-3.7l-3.8-0.5l-5.8-0.8l-3.1-0.4l-0.7,3c-0.2,0.7-0.3,1.4-0.5,2.1l-3.1-1.8
		l-5.1-2.9l-2.7-1.6l-1.8,2.5c-2,2.7-3.6,4.6-5.1,6c-2.2,2-4.5,3.5-6.9,4.6l-3.5,1.5L137,20l3,5.2l1.7,2.9l2.9-1.7
		c1.5-0.8,2.8-1.7,4.1-2.5c-1.5,2.5-2.9,4.5-4.4,5.9l-0.1,0.1l-0.1,0.1c-2.2,2.3-4.5,4.4-7,6.4l-1.8,1.4l0.6,2.2l1.7,6.5l1.3,5
		l3.6-2.8v16.2v3.4h3.4h5.8h3.4v-1.4l0.6,0.5l3,2.7l2.1-3.4c1.4-2.1,2.6-4.2,3.7-6.3c0.1,0.1,0.3,0.3,0.4,0.4c3.1,3,6.1,5,9.3,5.8
		C177.9,67.8,185.7,68.5,198,68.5z M168.9,30.7l-4.2-0.5c1.3-1.3,2.5-2.7,3.6-4c0.9,1,2,2.2,3.2,3.5l1.4,1.6V51
		c-1-1.1-1.9-2.6-2.8-4.5c0.8-3.3,1.4-7.4,1.8-12.1l0.3-3.3L168.9,30.7z M155.1,36.5c1.2-1.6,2.3-3.3,3.4-5.2l0.9,1.1l0,0.6
		c-0.4,5.3-1.2,9.5-2.3,12.7c-0.5,1.5-1.2,3-1.9,4.6V36.5z M161.3,11.5l2-2.8c-0.7,2.4-1.5,4.4-2.5,5.9c-1.2,2-2.9,4.1-5.2,6.1
		l-1.1-0.5L154,20c0.1-0.1,0.3-0.3,0.4-0.4C156.5,17.6,158.8,15,161.3,11.5z"/>
	<path d="M214.1,62.7h3.4v-1l2.1,1.8l4.2,3.8l2.8,2.5l2.2-3.1c0.2-0.3,0.4-0.6,0.6-0.9l0.2,1.3l2.7,0.2l0.6,0c1.6,0.1,3,0.2,4.4,0.2
		c3.7,0,6-1.3,7.3-2.6v0.2v3.4h3.4h5.8h3.4v-3.4v-4c4.2-0.3,7.1-1.7,8.8-4c1.5-1.9,2.3-4.9,2.5-9.4c0-2.3-0.5-4.8-1.5-8.2
		c-0.7-2.5-1.8-5.4-3.3-8.6c1.5-6.4,2.8-12,4-17.4l0.1-0.4v-0.4V8.8V5.4h-3.4h-16.2h-3.4v0.3h-19.3H222v1.7h-13.4h-3.4v3.4v48.5v3.4
		h3.4H214.1z M236,53c0,0.2,0,0.3,0,0.4c0,0.7-0.1,1.2-0.1,1.6c-0.2,0-0.4,0-0.5,0C235.6,54.4,235.8,53.7,236,53z M219.2,58.9
		l-1.7,2.1v-1.6v-3.6h4.1C220.9,56.7,220.1,57.8,219.2,58.9z"/>
	<path d="M279,30.9l-0.1,0.1c-1.7,2.2-4.1,4.7-7.3,7.4l-1.7,1.4l0.6,2.1l2,6.7L274,54l4-3.7c0.4-0.4,0.9-0.8,1.3-1.2v16.4v3.4h3.4
		h5.5h3.4v-2.5h2.1h39h3.4V63v-5.2v-3.4h-3v-3.1v-5.2v-3.4h-3.4h-9.6v-0.2h10h3.4V39V9.8V6.4h-3.4h-32.4h-3.4v3.4v3.9h-3.5
		c-0.8-3.2-1.6-5.8-2.4-8.2l-0.9-2.6l-2.8,0.3l-5.9,0.7l-4.3,0.5l1.5,4.1c0.6,1.7,1.2,3.4,1.8,5.2h-3.4h-3.4v3.4v5.2v3.4h3.4h8.1
		c-1.5,2.7-2.6,4.2-3.5,5.1L279,30.9z M307.3,42.4v0.2h-6.3l-0.2-0.2H307.3z M291.6,54.4v-2.8l1.8,2.8H291.6z"/>
	<path d="M341.1,37.5l-3.2,0.5l0.4,3.2l0.8,6.5l0.5,4.2l4-1.4c0.7-0.2,1.4-0.5,2-0.7v6.1c-0.6-0.1-1.3-0.2-2.2-0.4l-5.1-1l1.1,5.1
		l1.3,6l0.6,2.7h2.8h4.2c3.3,0,5.7-0.8,7.3-2.3c0.6-0.6,1.1-1.2,1.5-2l4.3,3.9l2.3,2.1l2.3-2.1c5.5-4.9,9.1-9.7,11.1-14.5
		c0.1-0.2,0.2-0.4,0.2-0.6v5.5c0,2.7,0.9,5,2.5,6.8l0.1,0.1l0.1,0.1c1.8,1.7,4.1,2.5,6.7,2.5h4.2c3.9,0,6.7-0.9,8.5-2.7
		c1.7-1.5,3-4.5,3.9-13.4l0.3-2.8l-2.7-0.8l-0.6-0.2l2.6-4l1.7-2.6l-2.4-1.9c-2.3-1.8-4.6-3.5-7.1-5.1l1.3-2.7
		c2.2-4.6,4-9.6,5.5-15.4l0.9-3.3l-3.3-0.8l-5.8-1.5l-3.3-0.8l-0.4,1.4V7V3.6h-3.4h-6H380h-3.4h-5.9h-3.4V7v4.5l-0.6-1.2l-2.5,0.6
		l-5,1.2l-1,0.3V6.8V3.4h-3.4h-5.8h-3.4v3.4v8.1h-3.6h-3.4v3.4v5.2v3.4h3.4h3.6v9.4C344,36.8,342.5,37.2,341.1,37.5z M390,46.1
		c0.3,0.2,0.5,0.4,0.8,0.7l-0.1,2.6c-0.2,3.3-0.4,5-0.6,5.8c0,0,0,0-0.1,0h0L390,46.1z M358.1,29.3
		C358.1,29.3,358.1,29.3,358.1,29.3l0-2.4h2.5h0.2c0,0.1,0.1,0.2,0.1,0.3L358.1,29.3z M358.1,50.7l1.7,2.8l2.9-1.8
		c0.3-0.2,0.6-0.4,0.8-0.5c-1.4,2-3.2,3.9-5.5,5.8V50.7z"/>
	<path d="M418.8,59.9v5.6v3.4h3.4h5.2h3.4v-3.4v-5.6h2.5l1.6,2.3l3.2,4.5l1.8,2.6l2.7-1.6c2.4-1.4,4.6-2.9,6.7-4.5
		c0.3,0.4,0.6,0.9,0.9,1.3c2.3,3.3,5.3,5,8.7,5c7.7,0,10.5-10.1,11.5-13.5L471,54l-1.4-1.4l-4.5-4.5l-1.9-1.9c1.4-2.6,2.9-5.6,4.5-9
		l1.3-2.7l-2.5-1.6l-1.7-1.1l2.7-0.4l3.3-0.5l-0.5-3.3l-0.8-5.5l-0.5-3.4l-1,0.2l-0.3-0.7c-1.6-3.3-3.5-6.5-5.8-9.8l-1.4-2L458.2,7
		l-3.3,1c0-0.3,0-0.7,0-1V3.6h-3.4h-5.7h-3.4v1.5H440h-13.1h-3.4H410h-3.4v3.4v13.8v3.4h0.3v21.8v0.6h-2v3.4v5v3.4h3.4H418.8z
		 M442.1,48.2v-0.6v-12l1.2-0.2c0.4,5.6,1,10.3,1.9,14c0.1,0.4,0.1,0.7,0.2,1c-0.2,0.2-0.5,0.4-0.7,0.7v-2.9H442.1z"/>
	<path d="M478.8,30.7v34.8v3.4h3.4h6.5h3.4V66h40.5h3.4v-3.4v-5.8v-3.4h-3.4h-40.5V30.7h2.4v18.8v3.4h3.4h24.8h3.4v-3.4V30.7h7.1
		h3.4v-3.4v-5.8v-3.4h-3.4H526V7.3V3.9h-3.4h-6.3H513v3.4v10.9h-5.4V7.3V3.9h-3.4h-6.3h-3.4v3.4v10.9h-2.4V10V6.6h-3.4h-6.5h-3.4V10
		v8.1h-3.1h-3.4v3.4v5.8v3.4h3.4H478.8z M513,30.7v9.7h-5.4v-9.7H513z"/>
	<path d="M542.4,52.3l1.5,2.3l2.6-0.9c2.8-1,5.5-2.2,8-3.4c-0.4,0.7-0.8,1.3-1.3,1.8c-1.1,1.1-3.9,2.9-10.6,4.9l-4.8,1.5l3.1,3.9
		l4,5.1l1.5,1.9l2.3-0.9c8-3,13.1-6.3,15.6-10.1c2.8-3.9,4.4-9.5,4.5-16.3l0-2.4h6c0.1,0.1,0.1,0.1,0.2,0.2V42v23.3v3.4h3.4h6h3.4
		v-3.4V49.9c2.8,1.4,6.2,2.9,10.1,4.3l3,1.1l1.3-2.9l2.5-5.5l1.6-3.5l-3.7-1.1c-2.7-0.8-5.1-1.7-7.2-2.6h3.2v-3.4V8.6V5.2h-3.4h-46
		h-3.4v3.4v27.7v3.4h1.5c-1.9,0.8-4,1.6-6.4,2.4l-4.1,1.4l2.3,3.7L542.4,52.3z"/>
	<path d="M639,22.9c1.8,0,6,0.2,6,1.9c0,0.8-0.8,2.5-3.1,4.7l-2.6,2.7c-1.9,1.9-2.5,2.5-2.8,2.9c-2.6,3-3.8,5.8-3.8,8.3v4.5h-0.8
		v3.4v7.8v3.4h3.4h7.8h3.4v-3.4v-7.8v-3.4h-0.7v-2.8c0-0.9,0.3-1.7,0.8-2.5c0.4-0.6,1.5-1.7,3.1-3.2c5.7-4.8,8.6-9.8,8.6-14.8
		c0-5-2.1-9.1-6.2-11.8c-3.4-2.1-7.4-3.1-12.1-3.1c-3.5,0-6.8,0.4-10,1.3l-2.5,0.7v2.6v6.5v4.4l4.2-1.1
		C634.9,23.2,637.3,22.9,639,22.9z"/>
</g>
</svg>
