<?xml version="1.0" encoding="utf-8"?>
<!-- Generator: Adobe Illustrator 18.0.0, SVG Export Plug-In . SVG Version: 6.00 Build 0)  -->
<!DOCTYPE svg PUBLIC "-//W3C//DTD SVG 1.1//EN" "http://www.w3.org/Graphics/SVG/1.1/DTD/svg11.dtd">
<svg version="1.1" id="圖層_1" xmlns="http://www.w3.org/2000/svg" xmlns:xlink="http://www.w3.org/1999/xlink" x="0px" y="0px"
	 viewBox="0 0 72 72" enable-background="new 0 0 72 72" xml:space="preserve">
<g>
	<path d="M69.2,58.3c0.4,0,0.8,0.4,0.8,0.8c0,0.5-0.4,0.8-0.8,0.8c-0.5,0-0.8-0.4-0.8-0.8C68.4,58.7,68.7,58.3,69.2,58.3z
		 M69.2,59.9c0.4,0,0.7-0.3,0.7-0.7c0-0.4-0.3-0.7-0.7-0.7c-0.4,0-0.7,0.3-0.7,0.7C68.5,59.5,68.8,59.9,69.2,59.9z M68.9,59.6H69
		v-0.4h0.2l0.3,0.4h0.2l-0.3-0.4c0.2,0,0.3-0.1,0.3-0.3c0-0.2-0.1-0.3-0.3-0.3h-0.4V59.6z M69,58.8h0.2c0.1,0,0.2,0,0.2,0.1
		c0,0.1-0.1,0.2-0.2,0.2H69V58.8z"/>
	<path d="M7,54h3.8v0c-0.4,0.2-0.6,0.7-0.6,1.5v5.3h0c-0.2-0.4-0.4-0.6-0.7-0.6c-0.2,0-0.4,0.1-0.6,0.2C8.2,60.8,7.5,61,6.8,61
		C3.6,61,2,58.5,2,53.7c0-2.7,0.6-4.9,1.7-6.3c0.8-1,2-1.6,3.3-1.6c0.5,0,0.9,0.1,1.6,0.3c0.4,0.1,0.5,0.2,0.7,0.2
		c0.3,0,0.5-0.2,0.6-0.4h0v4.9h0C9.3,48.4,8.5,47,7.3,47c-1.8,0-2.8,2.6-2.8,6.4c0,3.8,0.7,6.4,2.3,6.4c0.4,0,0.7-0.1,0.9-0.4
		c0.3-0.3,0.4-0.7,0.4-1.3v-1.9C8.1,54.5,7.8,54.2,7,54L7,54z"/>
	<path d="M14.8,60.8L14.8,60.8l-3.8,0v0c0.6-0.1,0.9-0.7,0.9-1.6V47.8c0-1.2-0.3-1.6-0.9-1.8v0h2.9v13.2
		C13.9,60.4,14.1,60.7,14.8,60.8z"/>
	<path d="M42.8,59.2V46h-2.9v0c0.6,0.2,0.9,0.5,0.9,1.6v3.9c-0.3-0.4-0.8-0.7-1.4-0.7c-1.7,0-3,1.9-3,5.3c0,3.2,1.1,4.8,2.8,4.8
		c0.6,0,1.2-0.4,1.6-0.9v0.7h2.8v0C43.1,60.7,42.8,60.4,42.8,59.2z M40.8,59.1c-0.1,0.3-0.6,0.6-1,0.6c-0.7,0-1.2-0.7-1.2-4.1
		c0-2.2,0.4-3.5,1.4-3.5c0.3,0,0.6,0.2,0.8,0.6V59.1z"/>
	<path d="M51.5,48.5c0-0.7,0.6-1.3,1.3-1.3c0.7,0,1.3,0.6,1.3,1.3c0,0.7-0.6,1.3-1.3,1.3C52.1,49.8,51.5,49.2,51.5,48.5z M51.9,52.9
		c0-1.1-0.3-1.5-0.9-1.6v0h2.9v8c0,1.1,0.3,1.5,0.9,1.6v0h-6.6v-0.7c-0.4,0.5-1,0.9-1.6,0.9c-1.7,0-2.8-1.6-2.8-4.8
		c0-3.5,1.3-5.3,3-5.3c0.6,0,1,0.3,1.4,0.7v-3.9c0-1.1-0.3-1.5-0.9-1.6v0h2.9v13.1c0,0.6,0.1,0.9,0.2,1.2c0.2,0.3,0.4,0.4,0.7,0.4
		c0.3,0,0.5-0.1,0.7-0.4c0.2-0.2,0.2-0.6,0.2-1.2V52.9z M48.1,52.7c-0.2-0.3-0.5-0.6-0.8-0.6c-0.9,0-1.4,1.3-1.4,3.5
		c0,3.3,0.5,4.1,1.2,4.1c0.4,0,0.9-0.3,1-0.6V52.7z"/>
	<path d="M18.1,61c1.6,0,2.5-1.3,2.6-2.8l-0.1,0c-0.4,1-1.2,1.6-1.9,1.6c-1.2,0-1.8-1.2-1.8-3.6v-0.3H21v-0.1c0-2.9-1.1-4.7-3-4.7
		c-1.8,0-3.3,1.8-3.3,4.8C14.7,59.5,16.2,61,18.1,61z M18,51.9c0.6,0,0.9,1,0.9,3.1h-2.1C16.9,52.7,17.4,51.9,18,51.9z"/>
	<path d="M36.4,60.8L36.4,60.8l-3.6,0v0c0.6-0.2,0.7-0.5,0.7-1.6V53c0-0.4-0.1-0.7-0.3-0.9c-0.2-0.2-0.4-0.3-0.7-0.3
		c-0.3,0-0.6,0.1-0.7,0.3c-0.2,0.2-0.3,0.5-0.3,0.9v6.2c0,1.1,0.2,1.4,0.7,1.6v0l-7.1,0v0c0.6-0.2,0.7-0.5,0.7-1.6v-5.7
		c0-0.7-0.2-1-0.6-1c-0.4,0-0.9,0.4-1.3,0.9v5.8c0,1.1,0.2,1.4,0.7,1.6v0h-3.6v0c0.6-0.1,0.9-0.5,0.9-1.6v-6.3
		c0-1.1-0.3-1.5-0.9-1.6v0h2.8v1.2c0.6-0.8,1.3-1.3,2.1-1.3c1,0,1.9,0.7,1.9,2.6v5.9c0,0.5,0.1,0.8,0.2,1c0.1,0.2,0.4,0.3,0.7,0.3
		c0.3,0,0.5-0.1,0.7-0.3c0.1-0.2,0.2-0.5,0.2-1l0-6.7c0-0.8-0.4-1.4-1.2-1.5v0h1.2v-2c0-1.1,0.3-1.8,0.8-2.4
		c0.6-0.6,1.4-0.9,2.4-0.9c1.2,0,2.7,0.7,2.7,2.1c0,0.8-0.5,1.6-1.3,1.6c-0.6,0-1-0.5-1-1c0-0.5,0.4-0.8,0.4-1.2
		c0-0.4-0.3-0.7-0.8-0.7c-0.4,0-0.6,0.1-0.8,0.3c-0.2,0.2-0.3,0.5-0.3,1v3.3h4v8C35.5,60.3,35.8,60.7,36.4,60.8z"/>
	<path d="M68,60.8L68,60.8l-3.6,0v0c0.6-0.2,0.7-0.5,0.7-1.6v-5.7c0-0.7-0.2-1-0.6-1c-0.4,0-0.9,0.4-1.3,0.9v5.8
		c0,1.1,0.2,1.4,0.7,1.6v0h-3.6v0c0.6-0.1,0.9-0.5,0.9-1.6V47.7c0-1.1-0.3-1.5-0.9-1.6v0h2.9v6.2c0.6-0.7,1.2-1.2,2-1.2
		c1,0,1.9,0.7,1.9,2.6v5.6C67.1,60.3,67.4,60.7,68,60.8z"/>
	<path d="M58,61c-1.8,0-3.2-1.6-3.2-4.9c0-3.1,1.5-5.1,3.5-5.1c1.3,0,2.2,0.9,2.2,2.2c0,0.8-0.5,1.3-1.1,1.3c-0.6,0-1-0.4-1-1
		c0-0.6,0.5-0.9,0.5-1.3c0-0.3-0.2-0.5-0.5-0.5c-0.4,0-0.7,0.3-1,1c-0.3,0.7-0.4,1.6-0.4,3.1c0,2.6,0.6,3.9,1.7,3.9
		c0.8,0,1.6-0.7,1.9-1.6l0.1,0C60.4,59.7,59.5,61,58,61z"/>
</g>
</svg>
