<?xml version="1.0" encoding="utf-8"?>
<!-- Generator: Adobe Illustrator 18.0.0, SVG Export Plug-In . SVG Version: 6.00 Build 0)  -->
<!DOCTYPE svg PUBLIC "-//W3C//DTD SVG 1.1//EN" "http://www.w3.org/Graphics/SVG/1.1/DTD/svg11.dtd">
<svg version="1.1" id="圖層_1" xmlns="http://www.w3.org/2000/svg" xmlns:xlink="http://www.w3.org/1999/xlink" x="0px" y="0px"
	 viewBox="0 0 320 72" enable-background="new 0 0 320 72" xml:space="preserve">
<g>
	<path d="M38.9,20.6c0.3-1.1,0.5-2.3,0.8-3.4l0.6-3.1l-3.1-0.4l-4.6-0.5l-2.9-0.3l-0.4,2.9c-0.2,1.7-0.5,3.3-0.9,4.9h-5.4h-3v0.2h-1
		v-5.2v-3h-3h-4.3h-3v3v5.2H5.7h-3v3v3.9v3h3h3.1v5.2c-1.2,0.4-2.4,0.6-3.7,0.8L2.3,37l0.3,2.9l0.5,4.8l0.4,3.5l3.3-1
		c0.7-0.2,1.3-0.4,1.9-0.6v3.3c-0.6-0.1-1.3-0.1-2-0.3l-4.3-0.8l0.9,4.3l0.9,4.4l0.5,2.4h2.4h4c2.6,0,4.5-0.6,5.7-1.8
		c1.3-1.2,2-3.1,2-5.6v-9.9c0.3-0.2,0.7-0.3,1-0.5v15.2v3h3h4.3h3v-3v-0.1h7.6v0.1v3h3h4.3h3v-3V23.6v-3h-3H38.9z M37.7,43.5v3.7
		h-7.6v-3.7H37.7z M30.1,33.6v-3.2h7.6v3.2H30.1z"/>
	<path d="M53.4,14.9h-3v3V22v3h3H66v32v3h3h4.6h3v-3v-17c2.5,1.8,5.4,3.9,8.4,6.2l2.5,1.9l1.7-2.7l2.8-4.3l1.6-2.4l-2.3-1.6
		c-4.9-3.5-9.9-6.7-14.7-9.5v-2.7h17.6h3v-3v-4.1v-3h-3H53.4z"/>
	<path d="M140.1,35l0.5-1.1c1.9-4.1,3.2-8.3,3.9-12.4l0.6-3.5h-3.5h-14.7c0-0.1,0.1-0.2,0.1-0.3l1.2-3.2l-3.4-0.7l-4.3-0.9l-2.5-0.5
		l-0.9,2.5c-0.1,0.2-0.2,0.4-0.2,0.6l-2.2-0.9l-3.7-1.6l-3-1.3l-1,3.1c-1.3,4.1-2.7,7.2-4,9.3c-1.6,2.7-3.2,5-4.9,7.1l-1,1.2
		l0.4,1.5l1.4,5l1.5,5.4l2.3-2.7v15.5v3h3h4.1h3v-3v-5.1l1.3,0.8l0.4,0.3l0,0.1l0.9,4.4l0.5,2.4h2.4h6.4c2.6,0,4.5-0.6,5.8-1.8
		c0.9-0.8,2.1-2.5,2.1-5.6v-8.4c0.9,2.4,1.7,5,2.6,7.8l1,3.2l3-1.3l4.1-1.8l2.4-1.1l-0.8-2.5C143.5,43.6,141.8,39.1,140.1,35z
		 M112.9,36.9l0.9,1.1c-0.3,0.7-0.6,1.4-0.9,2.1V36.9z M120.6,30.8c0.6-0.9,1.2-1.9,1.7-3v3.3L120.6,30.8z M122.3,44.2v5.7
		c-0.9,0-1.8-0.1-2.8-0.2C120.5,48,121.5,46.1,122.3,44.2z"/>
	<path d="M228.5,15.8l0.9-2l-3.7-0.6l-4.1-0.7l-2.4-0.4l-0.8,2.3c-0.2,0.5-0.4,1-0.6,1.4h-1.4h-6.1l0.7-1.5l-3.6-0.7l-4.3-0.9
		l-2.3-0.5l-1,2.2c-1.1,2.6-3.2,5-6.2,7.4l-2.1,1.7c0-0.3,0-0.5,0-0.7v-3h-3h-10.4c0.2-0.9,0.3-1.9,0.5-3l0.5-2.9l-3-0.5l-4.4-0.7
		l-3-0.5l-0.4,3c-0.2,1.7-0.5,3.3-0.8,4.7H166h-2.2c0.3-1,0.6-2,0.8-3l0.7-3.2l-3.2-0.4l-4-0.5l-2.8-0.4l-0.5,2.7
		c-0.3,1.7-0.8,3.3-1.3,4.7h-3.6h-3v3v32.3v3h3h3.9h3v-3v-0.5h2.4v2.1h3h3.9h3v-3V42.1l1.5-2.3c1.4,2.8,2.5,5.3,3.4,7.7l0.7,1.8
		l-3.8-0.8l0.6,4.2l0.7,4.4l0.4,2.3l2.4,0.2l0.5,0c1.1,0.1,2.1,0.2,3.1,0.2c4.1,0,6.9-0.6,8.7-1.9c1.7-1.1,2.9-3.2,3.5-6.4
		c0.5-3.2,0.8-12.1,0.8-26.5l2.3,1.5l1.3,0.8V31v3h1.3l0,0.1L195,45l-0.4,3.3h3.4h1.3c-1.3,0.5-2.7,1-4.3,1.5l-3.5,1.2l1.9,3.2
		l2.3,3.7l1.3,2.1l2.3-0.9c5.6-2.2,9.5-4.3,12.3-6.4v4.7v3h3h4.4h3v-3v0l1.8,0.2c0.9,0.1,2.8,0.2,5.9,0.2c3.5,0,5.9-1,7.2-3
		c0.9-1.5,1.6-4.2,1.9-13l0.1-3.1h-1.5v-0.6V27.3v-1.8h0.4h3v-3v-3.7v-3h-3H228.5z M176.5,29.7h4.8c0,3.1-0.1,5.8-0.1,8
		c-1.1-1.9-2.3-4.1-3.7-6.5L176.5,29.7z M178.3,48.9l2.4-1.6c-0.1,1-0.2,1.5-0.3,1.8l-0.1,0.2c-0.1,0.1-0.6,0.3-1.9,0.3
		c-0.5,0-0.9,0-1.4,0L178.3,48.9z M159.2,41.9v3.1h-2.4v-3.1H159.2z M156.8,32.5v-2.9h2.4v2.9H156.8z"/>
	<polygon points="244.5,29.8 241.5,29.8 241.5,32.8 241.5,37 241.5,40 244.5,40 284,40 287,40 287,37 287,32.8 287,29.8 284,29.8 	
		"/>
	<path d="M309.2,29.5h-3v3v5.5v1.8l-2.2,1.1l1.8,2.8l1.5,2.2l1.5,2.4l2.4-1.4c2-1.2,3.5-2.4,4.4-3.7c1.3-1.7,1.9-3.7,1.9-6.1v-4.5
		v-3h-3H309.2z"/>
</g>
</svg>
