<?xml version="1.0" encoding="utf-8"?>
<!-- Generator: Adobe Illustrator 18.0.0, SVG Export Plug-In . SVG Version: 6.00 Build 0)  -->
<!DOCTYPE svg PUBLIC "-//W3C//DTD SVG 1.1//EN" "http://www.w3.org/Graphics/SVG/1.1/DTD/svg11.dtd">
<svg version="1.1" id="圖層_1" xmlns="http://www.w3.org/2000/svg" xmlns:xlink="http://www.w3.org/1999/xlink" x="0px" y="0px"
	 viewBox="0 0 660 72" enable-background="new 0 0 660 72" xml:space="preserve">
<g>
	<path d="M23.8,8.5c-1.7,5.1-3.5,9.5-5.2,13v42.9h-5.8V30.8c-1.7,2.3-3.6,4.7-5.5,7l-2-7c2.7-3.3,5.1-6.8,7.2-10.4
		c2-3.2,4.1-7.9,6.1-14L23.8,8.5z M38.8,7.8c-0.8,2.2-1.7,4.2-2.5,6h27c-1,5.6-2.8,11.1-5.2,16.5l-6-1.8c1.7-2.5,3.1-5.6,4.2-9.2
		H33.6c-2.7,5.4-5.6,9.8-8.6,13.2l-4.2-5.2c5.2-6.2,9.3-13.1,12-20.8L38.8,7.8z M36.5,32.5c-2.3,8.7-5.6,16.2-9.7,22.5l-5.5-3.5
		c4.3-6.3,7.4-13.1,9.2-20.3L36.5,32.5z M46.5,23v35.2c0,2.3-0.6,3.9-1.6,4.8c-1,1-2.8,1.5-5.4,1.5h-9l-1.2-6.3
		c3.4,0.4,6.2,0.5,8.4,0.5c1.7,0,2.5-0.5,2.5-1.5V23H46.5z M64,53.7l-5.8,2.5c-2.7-8.9-5.6-16.8-8.8-23.7l5.8-1.8
		C58.6,37.9,61.5,45.6,64,53.7z"/>
	<path d="M104,42.4c-1,1.3-2.7,2.7-5.1,4.1l-2-3.1c3-1.5,4.7-3.4,5.2-5.7H98V30h7.8v6.3C105.8,38.8,105.2,40.8,104,42.4z"/>
	<path d="M157.5,25.2c-1.9,4-4,7.3-6,9.8v29.4h-5.8V41c-1.5,1.4-3.2,2.8-5,4.2l-1.7-6.5c2.8-2.2,5.2-4.4,7.4-6.7
		c2.2-2,4.3-5.1,6.3-9L157.5,25.2z M158.3,9.2c-2.3,3.3-4.4,5.8-6.4,7.5c-2.4,2.2-5.4,4.3-9.1,6.5l-3-5.2c2.7-1.1,5.3-2.8,7.8-5.1
		c1.9-1.7,3.8-3.9,5.7-6.6L158.3,9.2z M192.3,7.5c-0.9,3.7-1.7,6.7-2.6,9.1c2.7,1.8,5.6,3.8,8.4,5.9l-3.8,5.5
		c-2.8-2.8-5.1-4.9-6.8-6.4c-1.4,2.6-3.3,5.2-5.8,7.9h0.4v9h13.2v5.8H182v14.5c1.9,0.2,4,0.3,6.3,0.3c3.3,0,6.8-0.2,10.4-0.5l-1,6.3
		c-12,0-19.6-0.6-22.7-1.8c-2.6-0.7-5.2-2.4-7.9-5.1c-1.3-1.1-2.4-2.6-3.4-4.4c-1.7,3.7-3.6,7.4-5.9,11l-4.5-4
		c3.1-5.1,5.3-9.8,6.8-13.9c1.2-3.5,2-8,2.5-13.6l5.8,0.7c-0.5,5.4-1.2,9.7-2,12.7c1.4,3.6,3.2,6.3,5.4,8c1.2,1.2,2.7,2.1,4.3,2.8
		V29.5h4.3l-3.6-4.5c2.8-2.8,4.8-5.6,6.1-8.3c1.3-2.6,2.4-6,3.3-10.3L192.3,7.5z M172.8,7.5c-0.8,3.2-1.7,5.9-2.6,7.9
		c2.4,1.8,4.9,3.8,7.3,5.8l-3.7,5.8c-2.6-2.9-4.6-5.1-6.1-6.5c-1.7,2.7-3.9,5.4-6.8,8.3l-4-5c2.9-2.6,5.2-5.1,6.7-7.6
		c1.5-2.3,2.7-5.4,3.6-9.4L172.8,7.5z"/>
	<path d="M223.7,52h-9.7v7h-5.5V10.5h15.2V52z M218.2,46.5V16h-4.2v30.4H218.2z M244.9,8.8c0,25.7-0.2,40.9-0.6,45.7
		c-0.3,3.8-0.9,6.2-1.7,7.4c-1,1.4-2.8,2.2-5.4,2.2c-1.4,0-2.9-0.1-4.7-0.3l-1-6c1.9,0.4,3.8,0.5,5.8,0.5c1.2,0,1.9-1.6,2-4.8
		c0.1-1.7,0.2-5.1,0.3-10.2h-5.1c-0.3,2.7-0.8,5.1-1.3,7.1c-1.3,4.6-3.6,9.3-7.1,14.1l-4.2-3.8c3.1-3.7,5.2-7.7,6.5-12
		c0.5-1.5,0.9-3.3,1.1-5.4h-3.9v-5.5h4.3c0.1-1.6,0.1-3.3,0.1-5v-4.3h-4.5V23h4.5v-8.5h-4.7V8.8H244.9z M234.9,32.8
		c0,1.8-0.1,3.5-0.1,5h4.7c0-2.8,0.1-5.8,0.1-9.3h-4.7V32.8z M234.9,23h4.7v-8.5h-4.7V23z M264.2,8.5v4.2c-1.3,5.8-2.7,12-4.2,18.5
		c1.7,3.4,2.9,6.5,3.6,9.1c0.9,2.8,1.4,5.2,1.4,7.1c-0.1,3.6-0.7,6.1-1.9,7.5c-1.3,1.8-4,2.7-8.2,2.7l-1.2-4V65h-5.8V8.5H264.2z
		 M256.2,52.2c1.2,0,2-0.3,2.6-1c0.6-0.6,1-1.8,1-3.7c0-2.2-0.3-4.3-1-6.3c-0.8-2.6-2.1-5.6-4-9.1c1.9-7.3,3.3-13.4,4.2-18.5h-5.2
		V52C254.6,52.1,255.4,52.2,256.2,52.2z"/>
	<path d="M288,16.8h6.3v5c-2.1,4.7-4.2,8.5-6.1,11.5c0.4,0.4,0.8,0.8,1.2,1.1c1.4-1.5,2.7-3.6,4-6.4l3.8,3.8c-1.4,2.5-2.9,4.5-4.4,6
		c1.5,1.7,3,3.5,4.4,5.2l-3.5,5.2c-1.9-2.8-3.7-5.3-5.5-7.4v24.3h-5.5V40.5c-2,2.3-4.4,4.6-7,7l-2-6.7c3.5-2.9,6-5.6,7.8-7.9
		c2-2.1,4.2-5.7,6.5-10.8h-13.6v-5.2h7.9c-0.9-3.5-1.9-6.7-3.1-9.8l5.9-0.7C286.1,9.4,287,12.9,288,16.8z M330,9.5v29.2h-13.4v7h13
		V51h-13v6.5h16v5.2h-39v-5.2h17V51h-13v-5.2h13v-7h-13V9.5H330z M310.6,21.5v-7h-7.2v7H310.6z M310.6,26.2h-7.2v7.5h7.2V26.2z
		 M316.6,21.5h7.7v-7h-7.7V21.5z M324.3,26.2h-7.7v7.5h7.7V26.2z"/>
	<path d="M348.7,18V6.5h5.8V18h5.9v5.2h-5.9v12.2c1.8-1.1,3.6-2.3,5.4-3.6V38c-1.8,1.3-3.6,2.4-5.4,3.5v17c0,2.2-0.5,3.7-1.5,4.6
		c-0.9,0.9-2.6,1.4-5,1.4h-4.2l-1.3-6c1.6,0.3,2.9,0.5,4,0.5c1.5,0,2.2-0.5,2.2-1.5v-13c-2.2,1-4.3,1.8-6.5,2.6l-0.8-6.5
		c2.3-0.4,4.7-1.1,7.3-2.2V23.2h-7V18H348.7z M370.5,25.6V6.7h5.9v28.5c0,6.7-1,12.2-2.8,16.5c-1.8,4.4-5.2,8.7-10.2,13.2l-5-4.5
		c4.5-3.3,7.7-6.9,9.5-10.9c1.1-2.2,1.9-5.1,2.2-8.8c-2.9,3-6.1,5.6-9.5,7.7l-3.3-5.2c4.4-2.4,8.8-6,13-10.7v-4.2l-5.1,1.9
		c-1.5-5.1-3.5-10.1-5.7-15l5-1.2C367.1,18.3,369,22.1,370.5,25.6z M386.5,6.7V33c4.9,2.5,9.3,5.4,13.4,8.8l-3.5,5.2
		c-3.3-3.1-6.7-5.6-10-7.8V56c0,1.5,0.7,2.2,2.2,2.2h1.2c1.2,0,2.1-0.3,2.7-0.8c0.6-0.6,1.1-3.3,1.3-8.2l5.8,1.8
		c-0.6,6.4-1.5,10.1-2.8,11.3c-1.2,1.1-3.3,1.7-6.2,1.7h-4.2c-1.9,0-3.3-0.6-4.4-1.6c-1.1-1.1-1.6-2.6-1.6-4.4V6.7H386.5z M398.4,15
		c-1.4,5.4-3.1,10.3-5.2,14.8l-5.8-2c2-3.7,3.7-8.5,5.2-14.3L398.4,15z"/>
	<path d="M438.6,24.5v22.7h-11.3v4h13.8v5h-13.8v9h-5.2v-9h-13.9v-5h13.9v-4h-12V24.5H438.6z M423.4,8.3V22h-13.5V8.3H423.4z
		 M418.6,12.5h-4v5.2h4V12.5z M422.1,33.7V29h-6.5v4.7H422.1z M422.1,37.8h-6.5v5h6.5V37.8z M439.9,8.3V22h-13.5V8.3H439.9z
		 M427.3,33.7h5.8V29h-5.8V33.7z M433.1,37.8h-5.8v5h5.8V37.8z M435.1,12.7h-4v4.7h4V12.7z M466.8,27.8l-14.8,2.4
		c0.3,6,0.8,11,1.5,15c2-3.2,4-7.4,6.2-12.6l4.7,3c-3.5,7.4-6.6,13-9.4,16.8c1.2,4.9,2.4,7.2,3.7,7.2c1.2,0,2.4-3.1,3.7-9.3l4.5,4.5
		c-2,7.3-4.7,11-8.2,11c-2.3,0-4.3-1.2-6-3.6c-0.9-1.2-1.7-2.7-2.3-4.7c-2.8,2.6-6,4.9-9.7,7.1l-3.2-4.5c4.6-2.7,8.3-5.6,11.3-8.8
		c-0.2-0.9-0.4-1.8-0.5-2.7c-1-4.2-1.7-9.9-2-17.3l-5.8,0.9l-0.7-5.5l6.1-1c-0.3-5.6-0.4-11.8-0.4-18.8h5.7c0,6.7,0.2,12.6,0.4,17.8
		l14.3-2.3L466.8,27.8z M464.5,19.3l-5,2.2c-1.7-3.7-3.5-7-5.5-10l5-1.5C461.2,12.9,463,16,464.5,19.3z"/>
	<path d="M482,21.3V9.7h6.5v11.5h9.2V7h6.3v14.3h12.2V7h6.3v14.3H533V27h-10.5v22.2h-24.8V27h-9.2v29.5h43.9v5.8h-43.9v2.9H482V27
		h-6.5v-5.8H482z M504,43.5h12.2V27H504V43.5z"/>
	<path d="M595.1,8.3V36H584c2,2,4,3.5,5.8,4.4c2.8,1.7,6.7,3.3,11.8,4.9l-2.5,5.5c-6.7-2.4-11.5-4.8-14.7-7V65h-6V41.7h3.4
		c-1.8-1.5-3.5-3.5-5.3-5.8h-9.7c-1.8,2.3-3.6,4.2-5.6,5.8h4.3c-0.1,6.3-1.5,11.1-4,14.5c-2,3.1-6.7,6-14,8.8l-4-5.1
		c5.9-1.8,9.9-3.7,12-5.8c2.4-2.4,3.8-6.1,4.2-11.3c-4.2,2.9-9,5.4-14.4,7.4l-3.3-5.2c5.4-1.8,9.7-3.6,12.8-5.7c1.5-1,3-2.1,4.3-3.3
		h-9.9V8.3H595.1z M568.9,19.8v-6.3h-14v6.3H568.9z M568.9,24.8h-14v5.9h14V24.8z M589.4,19.8v-6.3h-14.8v6.3H589.4z M589.4,24.8
		h-14.8v5.9h14.8V24.8z"/>
	<path d="M647.3,36.6c-1.8,1.6-3.1,2.9-3.7,3.8c-0.9,1.3-1.3,2.8-1.3,4.3v3h-6.3v-4.7c0-1.7,1-3.7,3-6.1c0.3-0.4,2-2.1,5.2-5.3
		c2.8-2.7,4.2-5.1,4.2-7.2c0-3.5-3.1-5.3-9.4-5.3c-2,0-4.7,0.4-8.1,1.3V14c2.9-0.8,5.9-1.2,9.1-1.2c4.1,0,7.5,0.9,10.2,2.6
		c3.1,2,4.7,5.1,4.7,9C654.7,28.3,652.2,32.4,647.3,36.6z M635.1,58.8V51h7.8v7.8H635.1z"/>
</g>
</svg>
