<?xml version="1.0" encoding="utf-8"?>
<!-- Generator: Adobe Illustrator 18.0.0, SVG Export Plug-In . SVG Version: 6.00 Build 0)  -->
<!DOCTYPE svg PUBLIC "-//W3C//DTD SVG 1.1//EN" "http://www.w3.org/Graphics/SVG/1.1/DTD/svg11.dtd">
<svg version="1.1" id="圖層_1" xmlns="http://www.w3.org/2000/svg" xmlns:xlink="http://www.w3.org/1999/xlink" x="0px" y="0px"
	 viewBox="0 0 610 72" enable-background="new 0 0 610 72" xml:space="preserve">
<g>
	<path d="M16.4,20h5.2v3.7H7.4V20h4.9c-0.3-1.5-0.5-3-0.8-4.4l4.3-0.5C16,16.5,16.2,18.1,16.4,20z M20.4,26.7v3.6H8.3v-3.6H20.4z
		 M20.5,33.4V37H8.3v-3.5H20.5z M20.7,53.5h-8.1v3H8.5v-16h12.2V53.5z M16.6,49.7v-5.5h-4.1v5.5H16.6z M34.7,22.6v7.1h-3v2.1h6.9
		v-2.1h-2.3v-7.1h11v7.1h-4.9v2.1h6v3h-6V37h5.1v2.8h-5.1v2.3h6.4v3H38.6c1,1.6,2,2.9,2.9,3.8c0.5-0.3,1-0.7,1.4-1.2
		c0.6-0.6,1.2-1.4,1.8-2.3l2.8,1.8c-0.8,1.2-1.5,2.2-2.2,2.8c-0.4,0.4-0.7,0.7-1.1,1c1.4,0.9,3.1,1.7,5.1,2.5l-2,3.2
		c-3.4-1.5-5.9-3-7.6-4.4c-1.7-1.6-3.4-3.9-4.9-6.9C33.9,46.2,33,47,32,47.6V52c2-0.4,3.9-0.7,5.7-1.2v3.4c-3.6,1-7.8,1.8-12.4,2.6
		l-1-3.5c1.4-0.2,2.7-0.4,4-0.6v-3c-1.5,0.6-3.4,1.2-5.5,1.8l-1.4-3.4c2.9-0.6,5.1-1.4,6.9-2.2c0.5-0.2,1-0.5,1.5-0.8h-8v-3H28v-2.3
		h-4.6V37H28v-2.1h-5.4v-3H28v-2.1h-4.3v-7.1H34.7z M37.4,17.8h11.1V21H22.1v-3.2h11.1c-0.4-0.8-0.7-1.6-1-2.3l4.3-0.5
		C36.8,15.9,37.1,16.8,37.4,17.8z M31.3,24.9h-4.3v2.5h4.3V24.9z M38.6,34.8h-6.9V37h6.9V34.8z M38.6,39.8h-6.9v2.3h6.9V39.8z
		 M43.9,24.9h-4.3v2.5h4.3V24.9z"/>
	<path d="M59.6,25.6v-8.2h4.6v8.2h6.5V15.5h4.4v10.1h8.7V15.5h4.4v10.1h7.4v4.1h-7.4v15.8H70.8V29.7h-6.5v20.9h31.2v4.1H64.3v2.1
		h-4.6V29.7H55v-4.1H59.6z M75.3,41.4h8.7V29.7h-8.7V41.4z"/>
	<path d="M139.9,16.4v19.7h-7.9c1.5,1.5,2.8,2.5,4.1,3.1c2,1.2,4.8,2.4,8.4,3.4l-1.8,3.9c-4.7-1.7-8.2-3.4-10.4-5v15.1H128V40.2h2.4
		c-1.3-1.1-2.5-2.5-3.8-4.1h-6.9c-1.3,1.6-2.6,3-4,4.1h3c-0.1,4.4-1,7.9-2.8,10.3c-1.5,2.2-4.8,4.3-9.9,6.2l-2.9-3.6
		c4.2-1.3,7-2.6,8.5-4.1c1.7-1.7,2.7-4.4,3-8c-2.9,2.1-6.4,3.8-10.2,5.2l-2.3-3.7c3.9-1.3,6.9-2.6,9.1-4c1.1-0.7,2.1-1.5,3.1-2.4h-7
		V16.4H139.9z M121.3,24.6v-4.4h-9.9v4.4H121.3z M121.3,28.1h-9.9v4.2h9.9V28.1z M135.8,24.6v-4.4h-10.5v4.4H135.8z M135.8,28.1
		h-10.5v4.2h10.5V28.1z"/>
	<path d="M157.3,21.4c-0.5-1.6-1.2-3.1-1.9-4.6l4.1-0.5c0.6,1.5,1.2,3.3,1.7,5.1h3.2c0.5-2,1-4.1,1.3-6.2l3.9,0.5
		c-0.4,2-0.8,3.9-1.3,5.7h17.8c-0.4,3.2-0.8,5.8-1.2,8h4.2c-0.4,3.1-0.7,5.8-1.2,8h3.5c-0.1,10.2-1,16-2.7,17.4
		c-0.9,1.3-4,1.9-9.2,1.9l-0.9-4.4c1.4,0.2,2.5,0.4,3.4,0.4c1.7,0,3-0.4,3.9-1.2c0.8-0.7,1.3-4.3,1.5-10.5h-27.4
		c-2,2.9-4.1,5.4-6.5,7.4l-3.5-2.5c6.1-5.6,10.5-12.5,13.2-20.6h-10.9v-3.9H157.3z M163.3,44.6c-1.2,4.4-2.9,8.2-5,11.3l-3.5-2.3
		c2.2-3,3.7-6.3,4.6-9.8L163.3,44.6z M162.3,37.3h21.5c0.3-1.2,0.5-2.6,0.7-4.3h-20.1C163.7,34.6,163.1,36,162.3,37.3z M170.2,55.2
		l-4.3,0.5c-0.1-4.8-0.4-8.5-0.9-11.2l3.5-0.4C169.4,47,169.9,50.6,170.2,55.2z M165.9,29.4h14.9c0.3-1.1,0.5-2.5,0.7-4.1h-14.3
		C166.8,26.7,166.4,28.1,165.9,29.4z M177.8,52.2l-3.9,0.9c-0.6-3-1.5-6-2.5-8.9l3.5-1C176,45.8,177,48.9,177.8,52.2z M184.3,49.4
		l-3.5,1.3c-0.7-2.5-1.5-5-2.5-7.4l3-0.7C182.6,45,183.6,47.3,184.3,49.4z"/>
	<path d="M210.9,16.6c-1.2,3.6-2.5,6.7-3.7,9.3v30.5h-4.1V32.4c-1.2,1.6-2.5,3.3-3.9,4.9l-1.4-5c1.9-2.4,3.6-4.9,5.1-7.4
		c1.5-2.3,2.9-5.6,4.3-9.9L210.9,16.6z M221.5,16.1c-0.6,1.5-1.2,2.9-1.8,4.3h19.2c-0.7,4-2,7.9-3.7,11.7l-4.3-1.3
		c1.2-1.8,2.2-3.9,3-6.5h-16.1c-2,3.8-4,6.9-6.1,9.4l-3-3.7c3.7-4.4,6.6-9.3,8.5-14.8L221.5,16.1z M220,33.6
		c-1.6,6.2-3.9,11.5-6.9,15.9l-3.9-2.5c3.1-4.4,5.3-9.3,6.5-14.4L220,33.6z M227,26.9v25c0,1.6-0.4,2.8-1.1,3.4c-0.7,0.7-2,1-3.8,1
		h-6.4l-0.9-4.4c2.4,0.3,4.4,0.4,6,0.4c1.2,0,1.8-0.4,1.8-1.1V26.9H227z M239.5,48.7l-4.1,1.8c-1.9-6.3-3.9-11.9-6.2-16.8l4.1-1.3
		C235.6,37.5,237.7,42.9,239.5,48.7z"/>
	<path d="M259.1,15.7c-0.5,2.4-1.3,4.6-2.3,6.6h6.5v9.5c1.3-2.2,2.4-4.4,3.1-6.5c0.9-2.5,1.6-5.9,2.2-10.2l4.4,0.7
		c-0.4,2.4-0.8,4.6-1.2,6.4h14c0,16-0.3,25.4-0.7,28.3c-0.5,2.3-1.2,3.8-2.3,4.5c-1.3,0.9-3.6,1.4-7,1.4c-1,0-2.1-0.1-3.4-0.2
		l-0.7-4.4c1.3,0.3,2.7,0.4,4.1,0.4c2.9,0,4.4-1,4.8-2.9c0.5-2.4,0.9-10,1-23h-10.8c-0.1,0.3-0.2,0.6-0.3,0.8c-1,3.3-2.7,6.8-5,10.4
		l-2.1-2.6v18.6h-3.9v-2.1h-8.3v3.4h-3.9V22.3h5.6c1-2.2,1.7-4.6,2.2-7.1L259.1,15.7z M259.4,34.8V26h-8.3v8.8H259.4z M259.4,47.4
		v-9h-8.3v9H259.4z M278.2,43l-4.3,2.8c-1.3-3.3-3-7.1-5.3-11.3l3.5-2.3C274.7,36.4,276.8,40,278.2,43z"/>
	<path d="M306.7,16.8c-0.5,1.8-1.2,3.4-1.9,4.9h7.2V15h4.4v6.7h14.7v3.9h-14.7v7.8H334v3.9h-12.8v13.3c0,1.1,0.5,1.6,1.6,1.6h4.4
		c1,0,1.8-0.3,2.3-0.9c0.5-0.5,0.9-3.2,1.1-8l4.2,1.2c-0.5,5.8-1.2,9.1-2.2,10.1c-0.9,1-2.5,1.6-4.9,1.6h-6.5
		c-1.4,0-2.5-0.4-3.3-1.1c-0.8-0.8-1.2-1.9-1.2-3.1V37.3h-6.5c-0.5,5.3-1.6,9.2-3.4,11.7c-2.2,3.1-5.8,5.7-10.9,7.9l-3-3.9
		c4.7-1.8,8-3.8,9.8-6c1.6-1.9,2.7-5.2,3.1-9.8h-11.9v-3.9h18.1v-7.8H303c-1.3,2.4-2.7,4.5-4.2,6.4l-4.1-2.7
		c3.6-4.2,6.2-8.7,7.6-13.5L306.7,16.8z"/>
	<path d="M351.5,15.3c2.3,2.4,4.3,4.8,6,7.3c3.8-2.3,6.7-4.8,8.7-7.6l3.7,0.7c-0.5,0.8-1,1.5-1.6,2.1h11.9v2.7
		c-2.3,2.8-4.5,5-6.9,6.8c2.6,1,5.8,1.9,9.7,2.6l-1.4,3.9c-5.9-1.6-9.8-3-11.9-4.2c-2.9,1.6-6.7,3-11.3,4.2l-2-3.5
		c3.9-0.8,7.2-1.8,9.9-3c-1.2-1.1-2.3-2.3-3.3-3.7c-1.1,1-2.2,1.8-3.3,2.5l-2-2.5l-2.6,2.5h0.9v3.7h-4.2v3.7h5.5v3.7h-5.5v12.8
		c1.7-0.5,3.5-1,5.3-1.6v3.9c-4.7,1.5-9.9,2.8-15.6,3.7l-0.5-4.1c2.3-0.2,4.7-0.5,7.1-1V37.2h-6.8v-3.7h6.8v-3.7h-4.6v-1.9
		c-0.5,0.5-1,1.1-1.4,1.5l-1.4-4.4c2.7-2.6,5.3-5.8,7.6-9.6h1.8H351.5z M346.2,48.7l-3.7,0.4c-0.1-3.9-0.5-6.9-0.9-9.1l3.2-0.3
		C345.5,41.9,345.9,44.9,346.2,48.7z M355,26c-1.9-3-3.5-5.4-4.7-6.9c-1.5,2.5-3.3,4.8-5.2,6.9H355z M357.6,39.7
		c-0.2,3.1-0.6,5.7-1.1,7.8l-3.4-1c0.7-2.2,1.1-4.5,1.4-7.1L357.6,39.7z M367.8,35.2V32h4.1v3.2h9v3.4h-9v2.7h8v3.4h-8v3.2h9.6v3.5
		h-9.6v5.4h-4.1v-5.4h-9v-3.5h9v-3.2h-7.4v-3.4h7.4v-2.7h-8.3v-3.4H367.8z M369.8,25.4c1.7-1.1,3.4-2.5,5.4-4.4h-9.5
		C366.7,22.9,368.1,24.4,369.8,25.4z"/>
	<path d="M395.4,30.6V15.5h3.9v15.1h6v3.7h-6v1.1c2.1,2.3,4.3,4.8,6.5,7.6l-2.3,3.5c-1.7-2.7-3.1-4.9-4.3-6.5v16.4h-3.9v-16
		c-0.1,0.2-0.1,0.3-0.2,0.5c-1.5,3.4-3.2,6.3-5.3,8.8l-1.6-4.4c2.7-3.2,5-6.9,6.8-11h-6.7v-3.7H395.4z M395.1,27.8l-3.7,0.9
		c-0.6-3-1.3-6-2.1-8.8l3.4-1C393.5,21.4,394.4,24.4,395.1,27.8z M406.1,19.4c-0.7,3.4-1.7,6.4-2.8,9.2l-3.5-1.2
		c1.1-2.3,2-5.3,2.8-8.8L406.1,19.4z M415.5,18.2V15h4.1v3.2h9v3.5h-9v2.1h8.4V27h-8.4v2.3h10.1v3.5h-23.6v-3.5h9.4V27h-8v-3.2h8
		v-2.1h-8.8v-3.5H415.5z M428.1,52.8c0,1.3-0.4,2.3-1.1,3c-0.6,0.6-1.5,0.9-2.6,0.9h-4.6l-0.7-3.6l3.9,0.2c0.8-0.1,1.3-0.6,1.3-1.6
		v-2.1h-12.4v7.1h-3.9V34.8h20.2V52.8z M424.2,40.7v-2.5h-12.4v2.5H424.2z M424.2,46.4v-2.5h-12.4v2.5H424.2z"/>
	<path d="M447.2,21.9h4.8v3.9c-1.8,3.7-3.4,6.6-5.1,8.8c2.1,1.5,4.1,3.2,6,5l-2.3,3.5c-1.3-1.5-2.6-2.9-3.9-4v17.5h-4.3V39.8
		c-1.5,1.5-3.2,3.1-5.1,4.8l-1.2-4.4c2.7-2.2,4.8-4.2,6.3-6c1.6-1.6,3.3-4.3,5.1-8.2h-10.5v-4.1h6.2c-0.6-2.2-1.4-4.3-2.1-6.2
		l4.3-0.5C445.9,17.1,446.5,19.4,447.2,21.9z M462.9,21.5V15h4.3v6.5h9.6v25.4h-9.6v9.8h-4.3v-9.8h-9.6V21.5H462.9z M462.9,32v-6.4
		h-5.5V32H462.9z M462.9,35.9h-5.5v6.9h5.5V35.9z M467.2,32h5.5v-6.4h-5.5V32z M472.7,35.9h-5.5v6.9h5.5V35.9z"/>
	<path d="M505.1,16.8v3.7h-10.6c-0.9,3-2.2,6-4,9.3c3.7-0.1,6.8-0.4,9.3-0.7c-0.9-1.5-1.9-3.1-2.9-4.7l3-1.8c2,2.6,3.6,4.9,4.9,7
		c2.6-4.4,4.6-9.3,6-14.5l4.3,0.9c-0.6,2-1.3,3.9-2,5.7h11.3v3.5h-3c-0.5,8.7-1.8,15-3.9,19.1c-0.2,0.4-0.4,0.6-0.5,0.9
		c1.8,2.3,4.4,4.7,7.7,7.1l-2.3,4.1c-3.3-2.4-5.9-4.9-8-7.5c-2.4,2.8-5.4,5.3-9.2,7.5l-2.8-3.5c4.2-2.3,7.4-4.8,9.6-7.5
		c-1.7-3-3.1-7.1-4.2-12.1c-0.5,1-1.1,1.8-1.6,2.6l-1.9-2.4l-1.5,1.1c-0.4-0.7-0.8-1.5-1.2-2.3c-1.5,0.3-3.3,0.5-5.2,0.7v5.9h8.5
		v3.7h-8.5v5.8c3.3-0.7,6.3-1.5,9.2-2.4v4.1c-6.1,1.9-13,3.6-20.7,5.1l-1.3-4.2c3.1-0.5,6-1.1,8.9-1.7v-6.6h-8.2v-3.7h8.2v-5.5
		c-2.5,0.2-5.2,0.4-8.2,0.5l-1-4.1h2.5c1.8-2.9,3.3-6,4.4-9.4h-6.8v-3.7H505.1z M514.6,41.5c1.5-3.5,2.5-8.9,2.9-16.2h-5.7
		c-0.5,1-0.9,2-1.2,2.8C511.7,34.1,513.1,38.5,514.6,41.5z"/>
	<path d="M536.6,19v-4h3.7v4h3v3.6h-3v2.5h-0.1l1,0.2c-0.5,1-0.9,2-1.2,2.9h13.5V32c1.2-2.1,2.1-4.3,2.9-6.4
		c0.9-2.6,1.7-6.2,2.3-10.7l4.1,0.5c-0.4,2.5-0.8,4.7-1.3,6.6h11.2v3.7h-2.4c-0.3,7.5-1.5,13.7-3.8,18.3c-0.2,0.5-0.5,0.9-0.6,1.3
		c1.8,3,4.1,5.5,7,7.6l-2.5,3.7c-2.9-2.4-5.2-4.9-6.9-7.6c-2,2.6-4.6,5-7.8,7.4l-2.3-3.7c3.3-2.2,5.9-4.7,7.9-7.5
		c-1.6-3.3-3-6.9-4.2-11.1c-0.6,1.2-1.4,2.4-2.2,3.7l-1.4-1.8c-0.1,8.4-0.3,13.6-0.5,15.4c-0.4,1.9-0.9,3.1-1.7,3.7
		c-1,0.7-2.7,1.1-5.2,1.1c-1,0-2.1-0.1-3.4-0.2l-0.7-4.3c1.3,0.3,2.7,0.4,4.1,0.4c1.7,0,2.7-0.7,2.9-2.2c0.3-1.8,0.5-7.8,0.6-17.9
		h-11.6c-0.6,1.2-1.3,2.3-2,3.2h10.2v14h-11.5V37.2c-0.4,0.5-0.7,1-1.1,1.3l-2.6-3.2c2.7-3.1,4.9-6.6,6.4-10.3h-0.7v-2.5h-5.3V19
		H536.6z M543,38.9h-5.1v6.9h5.1V38.9z M547.8,19v-4h3.7v4h5.1v3.6h-5.1V26h-3.7v-3.4h-2.9V19H547.8z M563.5,41.2
		c1.6-3.8,2.5-8.9,2.8-15.3h-5.9c-0.1,0.5-0.3,0.9-0.4,1.3c-0.1,0.5-0.3,0.9-0.4,1.3C560.7,33.5,562,37.7,563.5,41.2z"/>
	<path d="M597.1,52.3v-5.5h5.5v5.5H597.1z M601.5,44.5h-3.3l-1-24.3h5.4L601.5,44.5z"/>
</g>
</svg>
