<?xml version="1.0" encoding="utf-8"?>
<!-- Generator: Adobe Illustrator 18.0.0, SVG Export Plug-In . SVG Version: 6.00 Build 0)  -->
<!DOCTYPE svg PUBLIC "-//W3C//DTD SVG 1.1//EN" "http://www.w3.org/Graphics/SVG/1.1/DTD/svg11.dtd">
<svg version="1.1" id="圖層_1" xmlns="http://www.w3.org/2000/svg" xmlns:xlink="http://www.w3.org/1999/xlink" x="0px" y="0px"
	 viewBox="0 0 610 72" enable-background="new 0 0 610 72" xml:space="preserve">
<g>
	<path d="M48.9,50.3c0.3-0.4,0.7-0.9,1-1.5l0.5-0.8h1.2v-3v-3v-3h-1.3v-1.4h0.9v-3v-3v-3h-1.1v-4.9h1.3v-3v-3.2v-3h-3h-9
		c-0.1-0.3-0.3-0.7-0.4-1l-0.9-2l-2.2,0.3l-4.3,0.5L27.7,13l0.9,1.8h-6.5h-3V17H19c-0.1-0.9-0.2-1.7-0.4-2.5l-0.4-2.8l-2.8,0.3
		l-4.3,0.5l-3.2,0.4L8.5,16c0.1,0.3,0.1,0.6,0.2,0.9H7.4h-3v3v3.7v3h0.9v0v3.6v3v0.2V37v3h0.2v0.6v16v3h3h4.1h3v-3v-0.1h5.2h1.4
		l0.4,1.2l0.7,2.5l2.6-0.5c4.9-0.9,9-1.7,12.6-2.7l1.9-0.5c1.6,1,3.5,2,5.8,3l2.3,1l1.3-2.2l2-3.2l1.8-3l-3.2-1.3
		C49.9,50.7,49.4,50.5,48.9,50.3z"/>
	<path d="M192.1,29.7l0.4-3.3h-3.3h-0.7c0.2-1.4,0.4-3,0.6-4.7l0.4-3.3h-3.3h-14.1c0.1-0.7,0.3-1.4,0.4-2.1l0.6-3.1l-3.1-0.4
		l-3.9-0.5l-2.9-0.4l-0.4,2.9c-0.1,0.4-0.1,0.9-0.2,1.3c-0.1-0.3-0.2-0.5-0.3-0.8l-0.8-2.2l-2.3,0.3l-4.1,0.5l-4,0.5l1.7,3.6
		c0.1,0.1,0.1,0.3,0.2,0.4h-0.5h-3v3v3.9v3h3h6.6c-2.5,5.9-6.2,11.1-10.9,15.4l-1.5,1.4l0.5-1.2l1.4-3.1l-3.2-1
		c-0.9-0.3-1.7-0.5-2.5-0.8V36V16.4v-3h-3h-32.6h-3v3V36v2.5c-0.9,0.4-2,0.7-3.1,1.1l-3.6,1.2l2,3.2l2.3,3.7l1.3,2l2.3-0.8
		c1-0.4,2-0.8,2.9-1.2c-1.1,0.7-2.9,1.5-6.1,2.5l-3.9,1.2v-0.8v-3h-3h-4.1v-2.2V32.6h4.5h3v-3v-4.1v-3h-3h-4.5v-7.2v-3h-3h-4.4h-3v3
		v7.2h-2.8v-7.2v-3h-3h-4.4h-3v3v7.2h-0.6v-5.2v-3h-3h-4.6h-3v3v5.2H55h-3v3v4.1v3h3h1.7v24.1v3h3h4.6h3v-2.1h28.2h3v-3v-2.9
		l2.5,3.1l2.9,3.6l1.3,1.7l2-0.8c5.8-2.2,9.5-4.6,11.4-7.3c2.1-2.9,3.2-6.9,3.3-11.9l0-1.2h3.3v1.1v16.5v3h3h4.3h3v-3v-10
		c1.9,0.9,4,1.8,6.5,2.7l2.6,0.9l1.1-2.5l0.6-1.3l2.5,1.7l3.5,2.5l0.8,0.6c-0.1,0.2-0.3,0.4-0.4,0.6l-1.8,2.5l2.6,1.7l3.5,2.3
		l2.4,1.6l1.6-2.4c0.8-1.2,1.5-2.4,2.2-3.7c0,0.6,0,1.3,0.1,1.9l0.1,3.3l3.3-0.4l4.3-0.5l2.7-0.3l-0.1-1.5l1.3-0.3l1.8-0.4l0.3,1.7
		l0.5,2.4h2.4c6.3,0,9.7-0.9,11.4-2.9c1.7-1.7,3.3-5.5,3.4-19.4l0-3h-3C191.7,33,191.8,31.5,192.1,29.7z M81,32.6v5.8h-2.8v-5.8H81z
		 M67.8,32.6v12.8v2.2h-0.6v-15H67.8z"/>
	<path d="M237.4,34.4l0.5-1.1c1.9-4.1,3.2-8.3,3.9-12.4l0.6-3.5h-3.5h-14.7c0-0.1,0.1-0.2,0.1-0.3l1.2-3.2l-3.4-0.7l-4.3-0.9
		l-2.5-0.5l-0.9,2.5c-0.1,0.2-0.2,0.4-0.2,0.6l-2.2-0.9l-3.7-1.6l-3-1.3l-1,3.1c-1.3,4-2.6,7.2-4,9.3c-1.6,2.7-3.2,5.1-4.9,7.1
		l-1,1.2l0.4,1.5l1.4,5l1.5,5.4l2.3-2.7v15.5v3h3h4.1h3v-3v-5.1l1.3,0.8l0.4,0.3l0,0.1l0.9,4.4l0.5,2.4h2.4h6.4
		c2.6,0,4.5-0.6,5.8-1.8c0.9-0.8,2.1-2.5,2.1-5.6v-8.4c0.9,2.4,1.7,5,2.6,7.8l1,3.2l3-1.3l4.1-1.8l2.4-1.1l-0.8-2.5
		C240.7,42.9,239.1,38.5,237.4,34.4z M210.1,36.3l0.9,1.1c-0.3,0.7-0.6,1.4-0.9,2.1V36.3z M217.9,30.1c0.6-0.9,1.2-1.9,1.7-3v3.3
		L217.9,30.1z M219.6,43.5v5.7c-0.9,0-1.8-0.1-2.8-0.2C217.8,47.3,218.8,45.5,219.6,43.5z"/>
	<path d="M288.8,19.1h-3h-10.4c0.2-0.9,0.3-1.9,0.5-3l0.5-2.9l-3-0.5l-4.4-0.7l-3-0.5l-0.4,3c-0.2,1.7-0.5,3.3-0.8,4.7h-1.6h-2.2
		c0.3-1,0.6-2,0.8-3l0.7-3.2l-3.2-0.4l-4-0.5l-2.8-0.4l-0.5,2.7c-0.3,1.7-0.8,3.3-1.3,4.7h-3.6h-3v3v32.3v3h3h3.9h3v-3v-0.5h2.4v2.1
		h3h3.9h3v-3V41.5l1.5-2.3c1.4,2.8,2.5,5.3,3.4,7.7l0.7,1.8l-3.8-0.8l0.6,4.2l0.7,4.4l0.4,2.3l2.4,0.2l0.5,0
		c1.1,0.1,2.1,0.2,3.1,0.2c4.1,0,6.9-0.6,8.7-1.9c1.7-1.1,2.9-3.2,3.5-6.4c0.5-3.3,0.8-13,0.8-28.9V19.1z M273.8,29.1h4.8
		c0,3.1-0.1,5.8-0.1,8c-1.1-1.9-2.3-4.1-3.7-6.5L273.8,29.1z M275.6,48.3l2.4-1.6c-0.1,1-0.2,1.5-0.3,1.8l-0.1,0.2
		c-0.1,0.1-0.6,0.3-1.9,0.3c-0.5,0-0.9,0-1.4,0L275.6,48.3z M256.5,41.3v3.1h-2.4v-3.1H256.5z M254.1,31.9v-2.9h2.4v2.9H254.1z"/>
	<path d="M338,42.4l-2.3-0.7l-4.2-1.2l-0.9-0.3h3.4h3v-3v-3.9v-3h-3h-14.6v-1.9h11.8h3v-3v-3.9v-3h-3h-11.8V15v-3h-3H312h-3v2.2
		l-1.8-0.4l-4.4-0.9l-2.6-0.5l-0.8,2.6c-1.3,4.4-3.7,8.6-7,12.4l-2.2,2.5l0.8,0.5h0v3v3.9v3h3h8.5c-0.6,2.7-1.3,4.2-2,4.9
		c-1.1,1.3-3.4,3.2-8.6,5.2l-3.7,1.4l2.4,3.2l3,3.9l1.4,1.8l2.1-0.9c5.7-2.5,9.7-5.5,12.2-8.9c1.8-2.5,3-5.9,3.7-10.5h1V52
		c0,2.1,0.7,3.9,2,5.2l0.1,0.1l0.1,0.1c1.4,1.2,3.2,1.9,5.2,1.9h6.5c3.2,0,5.6-0.9,7.1-2.5c1.2-1.2,2.3-3.6,3-11.9L338,42.4z
		 M309.1,28.6v1.9h-5.6c0.4-0.6,0.8-1.3,1.2-1.9H309.1z M324.2,49.2l0-9h3.6l-0.1,2.9c-0.2,3.6-0.4,5.3-0.5,6H324.2z"/>
	<path d="M430.8,24.7h0.7v-3v-3.5v-3h-3h-6.1V15v-3h-3h-4.1h-3v3v0.2h-5.9h-3v0.6l-0.4-0.1l-0.9-0.2v-2.9h-3h-3.9h-3v3v0.2l-0.8,0.2
		l-3.4,1l-2.8,0.9l0.8,2.8c0.7,2.4,1.3,4.7,1.8,7H387l-3.4-0.6c-1.5-0.3-3-0.6-4.3-1c1.1-1.1,2.2-2.3,3.3-3.7l0.7-0.8v-1v-2.7v-3h-3
		h-6.1l0.9-1.2l-4.5-0.8l-3.7-0.7l-1.8-0.3l-1.1,1.5c-1.4,1.9-3.2,3.7-5.6,5.3c-1.4-1.8-2.9-3.5-4.6-5.3l-0.9-0.9h-1.3h-1.4h-1.8
		h-1.6l-0.9,1.4c-2.2,3.5-4.6,6.5-7.2,9l-1.3,1.3l0.6,1.7l1.4,4.4l0.1,0.2h-0.9v3v3.7v0.2l-0.4,0l0.4,2v0.7h0.1l0.1,0.5
		c0.4,2.1,0.7,4.9,0.8,8.4l-1.8,0.1l0.4,3.1l0.5,4.1l0.4,3l3-0.5c5.6-0.9,11-2.2,16.1-3.8l2-0.7v-0.1h4.7v2.4v3h3h4.1h3v-3v-2.4h6.6
		h3v-3v-3.5v-3h-1.6v-0.2v-3.1h1v-3v-2.2l0.6-1.5l1.1-3.1v2.6v3h3h1.9c-1.3,2.2-2.7,4.3-4.3,6.2l-1.1,1.3l0.6,1.6l1.6,4.4l1.7,4.8
		l3.3-3.9c0.1-0.1,0.2-0.2,0.3-0.4v5.2v3h3h3.9h3v-3v-6.5l1.3,2l1.3-2v6.6v3h3h3.9h3v-3v-4.2h1.2l0.2,1.2l0.7,3.6l0.5,2.4h2.4h4.6
		c1.8,0,3.4-0.6,4.6-1.7c1.4-1.4,2.1-3.1,2.1-5.2V35.8h1.6v-3v-3.5v-3h-1.8V24.7z"/>
	<path d="M520.8,44.9c1.8-3.9,3-9.4,3.6-16.7h0.2h3v-3v-3.5v-3h-3h-7.2c0.2-0.6,0.4-1.2,0.6-1.8l1-3.1l-3.2-0.7l-4.3-0.9l-2.7-0.6
		l-0.7,2.7c0,0.1,0,0.2-0.1,0.2v-0.7h-3h-21.4h-3v3v3.7v3h3h2.5c-0.5,1.2-1.1,2.4-1.8,3.5h-0.9h-3.7v-5.4v-3h-3h-6.6V15v-3h-3h-4.3
		h-3v3v3.6h-6.6h-3v0.4h-0.9c-0.5-1.9-1-3.4-1.4-4.8l-0.8-2.3l-2.4,0.3l-4.3,0.5l-3.8,0.5l1.4,3.5c0.3,0.7,0.6,1.4,0.8,2.2h-2.2h-3
		v3V26v3h3h5.6c-1,1.6-1.8,2.6-2.3,3.1l-0.1,0.1l-0.1,0.1c-1.3,1.6-3.3,3.5-5.8,5.5l-1.5,1.2l0.5,1.9l1.2,4.4l1.2,4.5l3.5-3
		c0.1-0.1,0.2-0.1,0.3-0.2v10.1v3h3h4.3h3v-3v-10l0.8,1v2.3h3h6.6v6.8v3h3h4.3h3v-3v-6.8h6.6h3v-3V27.1l0.9,3.5l1,4.1L482,36h-0.4v3
		v3.7v3h3h5.2v1.3c-2.2,0.4-4.4,0.8-6.5,1.2l-3.3,0.6l1,3.2l1.3,4.2l0.8,2.6l2.6-0.5c5.4-1.1,10.3-2.2,14.7-3.4l0,0l2.8,3.5l1.6,2
		L507,59c3-1.8,5.5-3.7,7.5-5.7c1.8,1.9,3.9,3.7,6.4,5.5l2.7,2l1.6-2.9l2.3-4.1l1.3-2.3l-2.1-1.6C524.3,48.2,522.3,46.5,520.8,44.9z
		 M514.4,28.2c-0.1,0.8-0.2,1.6-0.3,2.4c-0.2-0.7-0.3-1.4-0.4-2.2c0-0.1,0.1-0.1,0.1-0.2H514.4z"/>
	<path d="M569.2,45.2c2.1-4.4,3.4-9.9,3.9-16.4h2.5v-3v-3.7v-3h-3H565c0.2-1,0.4-2,0.5-3.2l0.5-3l-3-0.4l-4.1-0.5l-2.9-0.4l-0.4,2.9
		c-0.1,0.5-0.1,1-0.2,1.5h-1V15v-3h-3h-3.7h-3v3v1.1h-1.5V15v-3h-3h-3.7h-3v3v1.1h-2.4h-3v3v3.6v3h3h2.4V26c-1.3,2.6-2.9,5.1-5,7.5
		l-1.6,1.9l1.6,1.9l2.6,3.2l0.4,0.5v8.4v3h3h4.3l0,0l0.7,4.3l0.4,2.3l2.3,0.2l0.6,0c1,0.1,2,0.1,3,0.1c3,0,5.3-0.5,6.8-1.6L553,58
		l1.7,2.7l2.6-1.9c2.2-1.7,4.2-3.4,5.8-5.1c1.5,1.8,3.2,3.5,5.2,5.2l2.5,2.1l1.8-2.7l2.5-3.7l1.6-2.4l-2.3-1.7
		C572.4,49,570.6,47.2,569.2,45.2z M556.3,41.5c0.5,1.2,0.9,2.3,1.4,3.4c-0.5,0.6-1,1.2-1.6,1.7C556.2,45.3,556.3,43.6,556.3,41.5z
		 M563.2,28.7c0,0.5-0.1,1-0.1,1.5c-0.1-0.5-0.2-1-0.3-1.5H563.2z"/>
	<polygon points="605.5,20.3 605.6,17.2 602.5,17.2 597.2,17.2 594.1,17.2 594.2,20.3 595.2,43.8 594.1,43.8 594.1,46.7 594.1,52.2 
		594.1,55.2 597.1,55.2 602.6,55.2 605.6,55.2 605.6,52.2 605.6,46.7 605.6,43.8 604.5,43.8 	"/>
</g>
</svg>
