<?xml version="1.0" encoding="utf-8"?>
<!-- Generator: Adobe Illustrator 18.0.0, SVG Export Plug-In . SVG Version: 6.00 Build 0)  -->
<!DOCTYPE svg PUBLIC "-//W3C//DTD SVG 1.1//EN" "http://www.w3.org/Graphics/SVG/1.1/DTD/svg11.dtd">
<svg version="1.1" id="圖層_1" xmlns="http://www.w3.org/2000/svg" xmlns:xlink="http://www.w3.org/1999/xlink" x="0px" y="0px"
	 viewBox="0 0 72 72" enable-background="new 0 0 72 72" xml:space="preserve">
<path d="M57.2,10.5l-6.4,0c-7.2,0-11.8,4.9-11.8,12.6v5.8h-6.4c-0.6,0-1,0.5-1,1v8.4c0,0.6,0.5,1,1,1H39v21.2c0,0.6,0.5,1,1,1h8.4
	c0.6,0,1-0.5,1-1V39.3h7.5c0.6,0,1-0.5,1-1l0-8.4c0-0.3-0.1-0.5-0.3-0.7c-0.2-0.2-0.4-0.3-0.7-0.3h-7.5v-4.9c0-2.4,0.5-3.6,3.5-3.6
	l4.3,0c0.6,0,1-0.5,1-1v-7.8C58.2,11,57.8,10.5,57.2,10.5z"/>
</svg>
