<?xml version="1.0" encoding="utf-8"?>
<!-- Generator: Adobe Illustrator 18.0.0, SVG Export Plug-In . SVG Version: 6.00 Build 0)  -->
<!DOCTYPE svg PUBLIC "-//W3C//DTD SVG 1.1//EN" "http://www.w3.org/Graphics/SVG/1.1/DTD/svg11.dtd">
<svg version="1.1" id="圖層_1" xmlns="http://www.w3.org/2000/svg" xmlns:xlink="http://www.w3.org/1999/xlink" x="0px" y="0px"
	 viewBox="0 0 265 72" enable-background="new 0 0 265 72" xml:space="preserve">
<g>
	<path d="M13.3,16V2h2.9v14h8.9v2.9h-8.9v50.8h-2.9V29c-0.9,4-1.9,7.6-3.1,10.8C8.6,44.4,6.5,49,3.9,53.4l-2.3-2.3
		c2.7-4.3,5.1-9.6,7.3-15.8c1.9-5.4,3.1-10.8,3.9-16.4H2.3V16H13.3z M25.9,37.9l-2.6,2c-1.5-4-3.5-7.8-6-11.5l2.3-1.7
		C22.1,30.1,24.1,33.8,25.9,37.9z M38.9,3.4c-0.9,2.9-2.1,5.7-3.3,8.3h20v2.9c-2.7,6.9-6.4,12.6-11,17.1c4.8,4.1,11,7.7,18.6,10.8
		l-1.3,3.2c-7.2-2.5-13.6-6.3-19.2-11.3c-0.2-0.1-0.3-0.3-0.5-0.4c-5.5,4.7-12.4,8.7-20.5,12.1l-1.3-3.2c7.9-3.1,14.4-6.8,19.5-11.1
		c-3.3-3.6-6.1-7.9-8.4-12.9c-2.4,3.7-5.1,6.8-8,9.4l-1.9-2.3c3.6-3.5,6.6-7.2,9-11c2.4-4,4.3-8.1,5.7-12.3L38.9,3.4z M54.6,69.7
		h-2.9v-4.6H32.9v4.6H30V44.2h24.6V69.7z M51.7,62.3V47.1H32.9v15.2H51.7z M42.3,29.5L42.3,29.5c4.6-4.5,7.9-9.4,10-14.9H34
		c-0.3,0.5-0.5,0.9-0.7,1.2C35.5,21,38.6,25.7,42.3,29.5z"/>
	<path d="M86.7,7.4V2h2.6v5.4h8.4v2.9h-8.4v3.5h-2.6v-3.5H68.4V7.4H86.7z M96.1,31.6H75.7v38.2h-2.6V15.5h23V31.6z M93.5,22.1v-4
		H75.7v4H93.5z M93.5,29v-4.3H75.7V29H93.5z M97.6,35v-4.6h2.6V35H119v2.6h-18.8v3.7h15.2v13.2h-15.2v13.2h-2.6V55.4
		c-1.3,1.2-2.9,2.5-4.7,3.7c-3.3,2.2-7.4,4.2-12.2,6l-2.1-2.6c4.3-1.3,8-2.9,11.1-4.6c2.2-1.2,3.9-2.4,5.2-3.5H82.7V41.3h14.9v-3.7
		H79.1V35H97.6z M97.6,51.9v-8H85.3v8H97.6z M95,49l-1.5,2.3c-1.8-1.9-3.6-3.5-5.5-4.9l1.5-2C91.5,45.8,93.3,47.3,95,49z
		 M100.2,51.9h12.6v-8h-12.6V51.9z M108.8,7.4V2h2.6v5.4h18.3v2.9h-18.3v3.5h-2.6v-3.5h-8.1V7.4H108.8z M115.7,61.7l-1.6,2.6
		c-3.5-2.4-7.7-4.5-12.8-6.3l1-2.6C107.6,57.1,112.1,59.3,115.7,61.7z M125.3,15.5v48.8c0,3.1-1.6,4.6-4.7,4.6c-2,0-4.4-0.2-7.1-0.6
		v-3.5c2.5,0.6,4.8,0.9,7.1,0.9c1.2,0,1.8-0.9,1.8-2.6V31.6H102V15.5h7.1H125.3z M109.9,45.9c-1.3,2-3,3.8-5,5.4l-2.1-1.7
		c2.1-1.6,3.7-3.3,4.9-5.1L109.9,45.9z M122.4,22.1v-4h-17.7v4H122.4z M122.4,24.6h-17.7V29h17.7V24.6z"/>
	<path d="M160.8,18.6v23.8c0,6-1.9,11.5-5.8,16.5c-3.5,4.6-8,8.2-13.5,11.1l-2.3-2c6.5-3.7,11.3-7.6,14.4-12.1
		c0.8-1.2,1.5-2.4,2.1-3.5c-6,1.6-12.6,2.9-19.6,3.9l-0.5-3.2c8.4-1.1,15.6-2.4,21.4-4c0.7-2.2,1-4.4,1-6.7V41h-18.2v-2.9h18.2v-9.5
		h-19.6v-2.9h19.6v-7.2H160.8z M151.9,10V2.2h2.9V10h9.6v2.9h-9.6v6.3h-2.9v-6.3h-16V10H151.9z M177.2,10V2.2h2.9V10h16v2.9h-16v6.3
		h-2.9v-6.3h-9.6V10H177.2z M173.3,18.6v7.2h20.6v2.9h-20.6v9.5h18V41h-18v10.6H196v2.9h-22.7v15h-2.9V18.6H173.3z"/>
	<path d="M220.6,19.8c-2.8,6.4-6.3,12.4-10.6,17.8h11.1c-1.2,6.1-3.1,11.7-5.7,16.8c2.8,2.8,5.8,4.9,9.1,6.2
		c3.9,1.6,11.8,2.4,23.6,2.4c5.7,0,10.8-0.2,15.2-0.6l-0.5,3.5c-4.2,0.4-9.1,0.6-14.7,0.6c-11.8,0-19.9-0.9-24.3-2.6
		c-3.6-1.4-6.9-3.7-9.8-6.8c-0.1,0.2-0.3,0.4-0.3,0.6c-2.8,4.9-6.2,8.9-10.2,12l-1.5-2.6c3.3-2.6,6.5-6.3,9.6-11.3
		c2.7-4.9,4.6-9.9,5.8-15.1h-9.8c-0.9,1-1.7,2-2.5,2.9l-2.3-1.7c5.6-6.3,10.1-12.6,13.4-19h-13.4v-2.9H220.6z M215.1,14.4l-2.6,2
		c-1.6-4-3.7-7.8-6.3-11.5l2.3-1.8C211.1,6.5,213.3,10.2,215.1,14.4z M258.6,57.6h-2.9v-5.1h-27.4v5.7h-2.9V14.4h14.9V2.2h2.9v12.1
		h15.4V57.6z M240.4,31.6v-14h-12v14H240.4z M240.4,49.3V34.7h-12v14.6H240.4z M243.3,31.6h12.5v-14h-12.5V31.6z M255.8,49.3V34.7
		h-12.5v14.6H255.8z"/>
</g>
</svg>
