<?xml version="1.0" encoding="utf-8"?>
<!-- Generator: Adobe Illustrator 18.0.0, SVG Export Plug-In . SVG Version: 6.00 Build 0)  -->
<!DOCTYPE svg PUBLIC "-//W3C//DTD SVG 1.1//EN" "http://www.w3.org/Graphics/SVG/1.1/DTD/svg11.dtd">
<svg version="1.1" id="圖層_1" xmlns="http://www.w3.org/2000/svg" xmlns:xlink="http://www.w3.org/1999/xlink" x="0px" y="0px"
	 viewBox="0 0 320 72" enable-background="new 0 0 320 72" xml:space="preserve">
<g>
	<path d="M11.6,23.3v-8.1h4.3v8.1H21v3.9h-5.1v8.5c1.6-0.7,3.3-1.6,4.9-2.7v4.6c-1.6,1-3.3,1.8-4.9,2.6V52c0,1.6-0.4,2.8-1.1,3.4
		c-0.7,0.7-1.9,1-3.7,1H7L6.1,52c1.5,0.3,2.7,0.4,3.7,0.4c1.2,0,1.8-0.4,1.8-1.1v-9.3c-1.9,0.7-3.8,1.3-5.7,1.8l-0.5-4.8
		c2-0.3,4-0.8,6.2-1.6V27.2h-6v-3.9H11.6z M36.6,16.2c-0.5,2.4-1.1,4.8-1.9,6.9h10v33.7h-4.3v-3H27v3h-4.3V23.1h7.6
		c0.7-2.3,1.2-4.8,1.6-7.4L36.6,16.2z M40.5,36.1V27H27v9.1H40.5z M40.5,49.7v-9.6H27v9.6H40.5z"/>
	<path d="M94,17.5v4.1H73.5v7.4c5.2,3,10.5,6.4,15.9,10.2l-2.8,4.3c-5.4-4.1-9.8-7.3-13.1-9.4v22.6h-4.6V21.5H53.2v-4.1H94z"/>
	<path d="M113.5,16.8c-1.2,3.6-2.5,6.7-3.7,9.3v30.5h-4.1V32.6c-1.2,1.6-2.5,3.3-3.9,4.9l-1.4-5c1.9-2.4,3.6-4.9,5.1-7.4
		c1.5-2.3,2.9-5.6,4.3-9.9L113.5,16.8z M124.1,16.2c-0.6,1.5-1.2,2.9-1.8,4.3h19.2c-0.7,4-2,7.9-3.7,11.7l-4.3-1.3
		c1.2-1.8,2.2-3.9,3-6.5h-16.1c-2,3.8-4,6.9-6.1,9.4l-3-3.7c3.7-4.4,6.6-9.3,8.5-14.8L124.1,16.2z M122.5,33.8
		c-1.6,6.2-3.9,11.5-6.9,15.9l-3.9-2.5c3.1-4.4,5.3-9.3,6.5-14.4L122.5,33.8z M129.6,27v25c0,1.6-0.4,2.8-1.1,3.4
		c-0.7,0.7-2,1-3.8,1h-6.4l-0.9-4.4c2.4,0.3,4.4,0.4,6,0.4c1.2,0,1.8-0.4,1.8-1.1V27H129.6z M142,48.9l-4.1,1.8
		c-1.9-6.3-3.9-11.9-6.2-16.8l4.1-1.3C138.2,37.7,140.2,43.1,142,48.9z"/>
	<path d="M161.6,15.9c-0.5,2.4-1.3,4.6-2.3,6.6h6.5v9.5c1.3-2.2,2.4-4.4,3.1-6.5c0.9-2.5,1.6-5.9,2.2-10.2l4.4,0.7
		c-0.4,2.4-0.8,4.6-1.2,6.4h14c0,16-0.3,25.4-0.7,28.3c-0.5,2.3-1.2,3.8-2.3,4.5c-1.3,0.9-3.6,1.4-7,1.4c-1,0-2.1-0.1-3.4-0.2
		l-0.7-4.4c1.3,0.3,2.7,0.4,4.1,0.4c2.9,0,4.4-1,4.8-2.9c0.5-2.4,0.9-10,1-23h-10.8c-0.1,0.3-0.2,0.6-0.3,0.8c-1,3.3-2.7,6.8-5,10.4
		l-2.1-2.6v18.6H162v-2.1h-8.3v3.4h-3.9V22.5h5.6c1-2.2,1.7-4.6,2.2-7.1L161.6,15.9z M162,35v-8.8h-8.3V35H162z M162,47.6v-9h-8.3v9
		H162z M180.8,43.2l-4.3,2.8c-1.3-3.3-3-7.1-5.3-11.3l3.5-2.3C177.3,36.6,179.3,40.2,180.8,43.2z"/>
	<path d="M206.6,16.1c-0.4,0.8-0.8,1.6-1.2,2.3h10.8v3.7h-6c0.5,1.1,1,2.2,1.4,3.4l-4.4,0.4c-0.3-1.4-0.7-2.6-1-3.7H203
		c-1.2,1.5-2.4,2.9-3.8,4.1l-3.9-2.5c3.4-2.6,5.7-5.4,7.1-8.5L206.6,16.1z M234.1,26.9v10.8h-15.4v3.5h16.8
		c-0.2,6.5-0.7,10.3-1.4,11.5c-0.7,1.1-2.3,1.6-4.8,1.6c-2.7,0-4.6-0.1-5.7-0.2l-1.1-4.3c2.2,0.4,4.5,0.5,6.8,0.5
		c0.8,0,1.4-0.3,1.5-0.9c0.2-0.4,0.3-2,0.4-4.6h-12.6v12h-4.4V45.1c-1.4,1.8-2.9,3.4-4.5,4.6c-2.7,2.1-6.7,4.1-11.8,6.2l-2.3-3.7
		c5.3-1.7,9-3.3,11.2-4.8C208,46.8,209,46,210,45h-12.3l1.5-11h15.1v-3.4h-16.3v-3.7H234.1z M214.2,37.7h-11.4l-0.5,3.5h12V37.7z
		 M225,15.7c-0.4,1-0.8,1.9-1.2,2.7h13.6v3.7h-7.5c0.5,1.1,0.9,2.2,1.4,3.4l-4.4,0.4c-0.3-1.4-0.7-2.6-1-3.7h-4.1
		c-1,1.5-2.1,2.9-3.3,4.1l-3.7-2.3c3-2.7,5.2-5.7,6.4-8.9L225,15.7z M218.6,34H230v-3.4h-11.3V34z"/>
	<path d="M283.9,32.3v4.3h-39.5v-4.3H283.9z"/>
	<path d="M313.3,40.8c-0.7,1-1.9,1.9-3.6,2.9l-1.5-2.2c2.1-1,3.4-2.4,3.7-4h-2.9V32h5.5v4.5C314.6,38.2,314.2,39.7,313.3,40.8z"/>
</g>
</svg>
