<?xml version="1.0" encoding="utf-8"?>
<!-- Generator: Adobe Illustrator 18.0.0, SVG Export Plug-In . SVG Version: 6.00 Build 0)  -->
<!DOCTYPE svg PUBLIC "-//W3C//DTD SVG 1.1//EN" "http://www.w3.org/Graphics/SVG/1.1/DTD/svg11.dtd">
<svg version="1.1" id="圖層_1" xmlns="http://www.w3.org/2000/svg" xmlns:xlink="http://www.w3.org/1999/xlink" x="0px" y="0px"
	 viewBox="0 0 730 72" enable-background="new 0 0 730 72" xml:space="preserve">
<path d="M261.2,31.1v6.6h-59.8v-6.6H261.2z"/>
<path d="M394.3,31.1v6.6h-59.8v-6.6H394.3z"/>
<g>
	<path d="M10.1,20.6V6l5.9,0.5c1.1,0.1,1.7,0.4,1.7,1c0,0.4-0.5,1-1.3,1.7v11.5h11.2V3.7l5.9,0.5c1.1,0.1,1.7,0.4,1.7,1
		c0,0.4-0.5,1-1.3,1.7v13.8h11.4V3.7l5.9,0.5c1.1,0.1,1.7,0.4,1.7,1c0,0.4-0.5,1-1.3,1.7v13.8h10.2v6.3H51.4v22.3H27.6V26.9H16.4
		v32.3H60v6.3H16.4v3.4h-6.3v-42h-8v-6.3H10.1z M33.8,42.8h11.4v-16H33.8V42.8z"/>
	<path d="M121.4,5.7v27.7h-10.3c2.7,2,4.9,3.4,6.7,4.2c2.9,1.7,6.7,3.2,11.2,4.6l-5.7,6c-4.3-2.2-7.8-4.5-10.6-6.7
		c-2.7-2-5.5-4.8-8.1-8.2H93c-3,3.5-5.7,6.1-8,7.9c-3,2.3-7.1,4.6-12.1,7l-5.5-5.4c5.2-1.8,9.6-3.7,13.4-5.9c1.5-0.8,3.3-2,5.2-3.6
		H75.4V5.7H121.4z M91.9,42.6c0.7,0.1,1.1,0.4,1.1,0.8c0,0.3-0.3,0.7-1,1.2c-0.3,4.2-0.9,7.5-1.6,10.2c-0.7,2.4-1.7,4.4-2.9,6
		c-1.9,2.8-5.1,5.5-9.6,8.1l-4.7-4c4.1-2.2,7.1-4.3,8.8-6.5c1.3-1.5,2.3-3.3,2.9-5.4c0.8-2.3,1.3-6,1.5-10.9L91.9,42.6z M94.4,17.2
		v-5.7H81.1v5.7H94.4z M94.4,22.6H81.1v5.1h13.2V22.6z M100.1,17.2h15.6v-5.7h-15.6V17.2z M115.6,22.6h-15.6v5.1h15.6V22.6z
		 M110.8,42.5c0.9,0.1,1.5,0.4,1.5,1c0,0.3-0.3,0.8-1,1.5v24h-5.7V42L110.8,42.5z"/>
	<path d="M151,3.5c0.8,0.1,1.3,0.4,1.3,0.8c0,0.6-0.6,1-1.8,1.4c-0.4,0.9-0.7,1.6-1.1,2.3H164v5.4h-7.2c0.9,2.3,1.7,4.5,2.3,6.6
		l-5.3,1.1c-0.8-2.8-1.7-5.3-2.8-7.7h-4.5c-1.9,3.2-4.1,6.4-6.5,9.4l-5.2-2.9c4.8-5.6,8.3-11.6,10.6-18L151,3.5z M189.5,23.7v16.8
		h-20.6v5.7h24.4c0,7.6-0.5,12.4-1.3,14.3c-0.5,1.9-1.7,3.2-3.6,4c-1.9,0.7-5.2,1.2-9.8,1.2l-2.7-6.3c4.9,0,7.8-0.1,8.7-0.6
		c0.8-0.2,1.5-0.9,2.1-1.9c0.5-0.7,0.9-2.5,1.1-5.3h-18.8v17.2h-6V54.4c-2.7,2.9-5.2,5.1-7.4,6.7c-3.4,2.5-8,5.1-13.8,7.8l-5.5-5.4
		c5.9-2,11-4.2,15.2-6.6c2.1-1.2,4.5-2.9,7.2-5.2h-18.8c1.3-5,2.3-10.5,3.1-16.5h20v-6h-18.7v-5.4H189.5z M162.9,40.6h-15.1
		c-0.3,2-0.7,4-1.1,5.7h16.2V40.6z M177.3,3.5c0.8,0.1,1.3,0.4,1.3,0.8c0,0.6-0.7,1-1.9,1.4c-0.3,0.9-0.7,1.6-1,2.3h18.4v5.4h-10.5
		c1.1,2.3,1.9,4.5,2.5,6.6l-5.2,1.1c-0.9-2.8-1.9-5.3-3-7.7h-4.7c-1.6,2.9-3.3,5.8-5.1,8.6l-5.2-2.9c4-5.3,6.9-11.1,8.8-17.1
		L177.3,3.5z M168.9,35.2h14.8v-6h-14.8V35.2z"/>
	<path d="M319.7,24.3v27.4h-18.8V56h24.9v5.7h-24.9v7.5h-5.7v-7.5h-25.7V56h25.7v-4.3h-19V24.3H319.7z M294.2,5.1v16.2h-20.6V5.1
		H294.2z M288.8,10.6h-9.6V16h9.6V10.6z M295.2,35.5v-5.2H282v5.2H295.2z M295.2,40.9H282v4.8h13.2V40.9z M322.3,5.1v16.2h-21.4V5.1
		H322.3z M300.9,35.5h13v-5.2h-13V35.5z M314,40.9h-13v4.8h13V40.9z M316.8,10.6h-10.4V16h10.4V10.6z"/>
	<path d="M427.8,7.4V2.5l5.3,0.5c0.9,0.1,1.5,0.4,1.5,1c0,0.3-0.3,0.8-1,1.5v2h24.7v5.4h-24.7v11.4c5.6,4.7,10.2,7.8,14,9.5
		c3.3,1.8,8,3.4,14.2,4.8l-4.4,5.7c-5.5-2-10.4-4.3-14.8-6.9c-3.1-1.9-6.2-4.1-9.1-6.6v4.9h-5.7v-5.6c-6.9,6.3-14.6,11.1-23.1,14.5
		l-4.4-6.3c9.5-1.7,18.7-6.4,27.5-14.3V12.8h-24.5V7.4H427.8z M430,39.5c0.4,0.3,0.7,0.7,0.7,1.1s-0.5,0.8-1.6,1.2
		c-0.4,0.4-0.8,0.8-1.2,1.1h17.7c0.6-0.5,1-0.8,1.2-0.8c0.4,0,1.9,1.2,4.5,3.5c0.5,0.4,0.7,0.9,0.7,1.3c0,0.6-0.3,0.9-0.8,0.9
		c-1.5,0.1-3.3,1.2-5.7,3.2c-2.7,2.2-5.5,4.2-8.5,6.1c5.7,2.5,11.3,5.3,16.8,8.4l-4.9,3.7c-5.5-3.4-11.2-6.4-17.2-9.1
		c-1.2,0.7-2.3,1.2-3.4,1.8c-6.2,3.1-13.8,5.7-22.8,7.7l-3.7-6c9-0.5,17-2.4,24.1-5.9c-2.1-0.8-4.1-1.6-6.1-2.4l3.9-3.4
		c2.5,1,5.1,1.9,7.7,2.9c3.8-2.3,6.9-4.5,9.4-6.9H422c-0.7,0.5-1.3,1-1.9,1.3c-3,2-7.4,4-13.1,6.1l-3.7-4c4.4-1.5,7.8-2.9,10.3-4.4
		c2.1-1.1,4.1-2.3,5.7-3.7c2.3-1.8,4.4-3.8,6.4-6L430,39.5z M420.1,15.9c0.4,0.4,0.7,0.8,0.7,1.2c0,0.4-0.5,0.8-1.5,1.1
		c-0.5,1-1.1,1.8-1.5,2.3c1.7,1.5,3.8,2.7,6.1,3.7l-3.9,4.6c-1.8-1.3-3.4-2.9-4.7-4.6c-0.5,0.7-1,1.2-1.4,1.7
		c-1.9,2-4.5,4.2-7.8,6.4l-3.9-4.3c2.6-1.5,4.7-3,6.2-4.5c1.3-1.2,2.4-2.5,3.5-3.9c1.3-1.9,2.7-4,3.9-6.2L420.1,15.9z M451.8,15.9
		c0.4,0.4,0.7,0.8,0.7,1.2c0,0.4-0.5,0.8-1.6,1.1c-0.4,0.7-0.7,1.2-0.9,1.6c2.8,2.6,6.1,4.6,9.8,6.1l-3.9,4.5c-3.2-2-5.9-4.4-8.2-7
		c-0.3,0.4-0.5,0.7-0.6,0.8c-1.3,1.7-3.1,3.4-5.5,5.1l-3.9-4.3c1.9-1.2,3.3-2.5,4.4-3.7c0.9-1,1.7-2,2.5-3.1c0.9-1.5,1.9-3.1,2.8-5
		L451.8,15.9z"/>
	<path d="M482.9,9.1V2.8l5.5,0.5c1,0.1,1.5,0.4,1.5,1c0,0.4-0.3,1-1,1.7v3.1H506v-6l5.5,0.5c1.1,0.1,1.6,0.4,1.6,1
		c0,0.4-0.4,1-1.1,1.7v2.9h14.8v5.7H512V20h-6v-5.2h-17.1V20h-6v-5.2h-14.8V9.1H482.9z M523.9,22.6v5.7h-13.5v10.6h16.4v5.7h-16.4
		v16.8c0,2.5-0.9,4.4-2.5,5.6c-1.4,1.2-4.9,1.9-10.4,1.9l-2.4-6.6h6c2.1,0,3.3-0.7,3.4-2V44.6h-1.6c-0.7,0.6-1.5,1.5-2.1,2.5
		c-3.8,4.8-7.7,8.9-11.8,12.2c-4.5,3.3-9.8,6.4-16,9.4l-4.7-5.1c6.1-2.3,11.9-5.4,17.2-9.5c3.1-2.2,6.2-5.3,9.4-9.4H479
		c-0.6,2.1-1.2,4.2-1.9,6.3l-6.5-2.6c2.5-6.3,4.3-12.4,5.5-18.5l6,1.4c-0.5,2.6-1,5.3-1.6,7.8h23.9V28.3h-33.8v-5.7H523.9z"/>
	<path d="M545.5,24.5h24.4V30h-10.8c-0.5,2-1,4-1.5,5.8h11.8c-0.5,7.9-1.9,14.1-4.2,18.3c1.6,1.2,3.1,2.3,4.7,3.7l-4.1,4.6
		c-1.5-1.3-2.9-2.5-4.1-3.5c-3.5,3.7-8.3,6.7-14.4,8.9l-4.5-5.1c5.9-1.5,10.5-3.9,14-7c-1.6-0.8-3.3-1.5-5.1-2.3
		c-0.3,0.7-0.6,1.5-0.9,2.1l-5.2-1.4c1.7-4.2,3.3-8.5,4.6-12.6H545c-0.3,3.5-0.8,6.8-1.3,9.8c-0.8,4.8-2.5,10.8-4.9,17.9l-6-3.1
		c2.4-6.1,4-11.6,4.9-16.3c1.2-6.8,1.9-13.5,1.9-20V12.2h32.4c-0.1-3.1-0.1-6.4-0.1-9.7l5.9,1.4c0.7,0.1,1.1,0.4,1.1,1
		c0,0.6-0.3,1.2-1,2c0,1.9,0,3.7,0.1,5.4h8.9c-2.1-2.2-4.1-4-6.1-5.4l3.6-3.7c2.5,1.7,4.9,3.7,7.3,6l-3.1,3.1h5.7V18H578
		c0.3,9.6,1.1,17.9,2.4,24.7c0.2,1.1,0.4,2.1,0.7,3.1c0.5-1.4,0.9-2.9,1.3-4.3c1.2-4.6,1.9-10.9,2.2-19l5.8,0.7
		c0.8,0.1,1.3,0.3,1.3,0.7c0,0.7-0.5,1.2-1.3,1.8c-0.8,7.9-1.7,13.8-2.7,17.8c-1.1,4.1-2.4,7.7-4,10.8c0.7,1.7,1.3,3.1,2,4.3
		c1,1.8,1.9,2.6,2.6,2.6c0.5,0,1.1-3.1,2.1-9.4l4.9,4.6c-2.6,9.1-4.9,13.7-6.7,13.7c-1.7,0-3.9-2-6.5-5.8c-0.8-1.2-1.5-2.5-2.2-4
		c-2.5,3.3-5.9,6.3-10,8.9l-3.9-5.5c5.3-2.9,9.1-6.2,11.3-9.9c-1.2-3.5-2.2-7.4-3-11.7C573,36,572.3,27.9,572,18h-26.5V24.5z
		 M552.1,35.7c0.5-1.9,1.1-3.9,1.5-5.8h-8.1c0,2-0.1,4-0.1,5.8H552.1z M563.7,41.5h-7.8c-0.7,2.4-1.5,4.7-2.3,6.9
		c2.5,0.9,4.8,1.8,6.9,2.9C562.2,48.6,563.2,45.3,563.7,41.5z"/>
	<path d="M627.9,24.8V3.1l5.9,0.5c1.1,0.1,1.7,0.4,1.7,1c0,0.4-0.5,1-1.3,1.7v18.6h26.5v6.3h-26.5v26.6h22.6V64h-52.5v-6.3h23.6
		V31.1h-27.5v-6.3H627.9z"/>
	<path d="M676.4,45.6c0.7,0.3,1.1,0.7,1.1,1c0,0.4-0.4,0.9-1.1,1.2c-1.5,7.5-3.2,13.6-4.9,18.6l-5.2-3.4c2.1-5.6,3.9-12.2,5.5-19.8
		L676.4,45.6z M719.6,4.6v20.3h-40V32c0,1.9,0.7,2.9,2.1,2.9h33.3c1.8,0,3.2-0.4,4.1-1.4c0.8-0.7,1.6-3.4,2.4-8.1l6,2
		c-0.9,5.6-2.2,9.1-3.9,10.8c-1.9,1.8-4.2,2.7-7.1,2.7h-36.1c-4.5,0-6.8-1.8-6.8-5.4V18.8h40v-8.3h-40.3v-6H719.6z M686.4,43.2
		c0.8,0.1,1.3,0.5,1.3,1.1s-0.4,1.2-1.1,1.9c-0.7,0.5-0.9,1.3-0.9,2.3v8.3c0,1.9,0.3,3.3,0.8,4.2c0.5,0.9,1.7,1.2,3.6,1.2h17.4
		c1.7,0,3-0.4,3.9-1.2c0.9-0.7,1.7-2.9,2.3-6.7l5.5,2.6c-1,5-2.1,8.1-3.5,9.5c-1.2,1.2-2.7,1.9-4.4,1.9h-23.6c-2.7,0-4.7-0.9-6-2.6
		c-1.2-1.7-1.8-4-1.8-7.1V42.3L686.4,43.2z M708.2,52.9l-5.2,3.7c-3.5-4.3-7.3-8.1-11.4-11.2l4.2-3.7
		C699.9,44.7,704,48.3,708.2,52.9z M727.9,59.5l-5.5,4c-2.3-6.3-4.9-11.7-7.8-16.3l4.2-3.7C721.9,47.7,724.9,53,727.9,59.5z"/>
</g>
</svg>
