<?xml version="1.0" encoding="utf-8"?>
<!-- Generator: Adobe Illustrator 18.0.0, SVG Export Plug-In . SVG Version: 6.00 Build 0)  -->
<!DOCTYPE svg PUBLIC "-//W3C//DTD SVG 1.1//EN" "http://www.w3.org/Graphics/SVG/1.1/DTD/svg11.dtd" [
	<!ENTITY ns_flows "http://ns.adobe.com/Flows/1.0/">
	<!ENTITY ns_extend "http://ns.adobe.com/Extensibility/1.0/">
	<!ENTITY ns_ai "http://ns.adobe.com/AdobeIllustrator/10.0/">
	<!ENTITY ns_graphs "http://ns.adobe.com/Graphs/1.0/">
]>
<svg version="1.1" id="圖層_1" xmlns:x="&ns_extend;" xmlns:i="&ns_ai;" xmlns:graph="&ns_graphs;"
	 xmlns="http://www.w3.org/2000/svg" xmlns:xlink="http://www.w3.org/1999/xlink" xmlns:a="http://ns.adobe.com/AdobeSVGViewerExtensions/3.0/"
	 x="0px" y="0px" viewBox="0 0 294 72" style="enable-background:new 0 0 294 72;" xml:space="preserve">
<g>
	<path d="M44.7,12.2v-4c0-2-0.1-3-0.3-5.3c6.8,0.7,7.7,1,7.7,1.8c0,0.6-0.7,1-2.8,1.5v6h8.2c1.7-2,2.2-2.6,3.9-4.4
		c2.7,2.1,3.5,2.7,6.1,4.9c0.4,0.3,0.5,0.5,0.5,0.7c0,0.2-0.3,0.4-0.7,0.4H49.9c1.8,2.9,2.6,3.9,4.9,5.9c2.3,2,5.3,4,7.8,5.1
		c1.5,0.7,2.9,1.2,5.7,2l-0.1,0.7c-2.1,0.4-3.6,1.7-4.9,4.3c-6-4.2-8.7-7.2-14.2-16.2v7.6c0,5.4,0,5.4,0.1,9c0,0.5-0.1,0.7-0.5,0.8
		c-0.5,0.1-1.8,0.3-2.9,0.3c-0.9,0-1.1-0.1-1.1-0.7c0.1-3.4,0.1-3.4,0.1-4.5c0-0.4,0-1.2,0-2.6c0-1.2,0-1.6,0-1.8l0.1-6.2
		c-3.2,4.2-4.8,5.9-7.9,8.7c-3,2.7-4.8,4-8.7,6.2l-0.5-0.7c4.1-3.7,7.3-7.1,10.9-11.5c1.5-1.9,2.2-3,4-6.2H22.5v2.9
		c2.7,0.9,4,1.4,5.7,2.1c3.2,1.5,3.8,2.1,3.8,4s-0.6,3.2-1.4,3.2C30,26.1,30,26,28.4,24c-1.3-1.7-3.4-3.7-5.9-5.8
		c0,7.7,0,7.7,0.1,14c0,0.6-0.1,0.8-0.7,1c-0.4,0.1-1.9,0.3-2.9,0.3c-0.7,0-1-0.2-1-0.9c0.1-4.3,0.1-5.5,0.1-8.5l0.1-5.2
		c-3.2,4.3-4.6,6-7.5,8.7c-2.9,2.8-4.6,4-8.4,6.3l-0.5-0.7c4.7-4.3,7.9-7.9,11.1-12.4c1.4-2,2.1-3.2,3.8-6.8h-9
		c-1.6,0-2.7,0.1-4,0.4l-0.5-2.5c1.5,0.3,2.9,0.4,4.5,0.4h10.3V8.7c0-1.8-0.1-3-0.3-5.6c6.4,0.7,7.6,1,7.6,1.7
		c0,0.5-0.5,0.8-2.9,1.8v5.7h5.4c1.5-1.8,2-2.3,3.5-3.9c2.2,1.8,2.7,2.1,4.6,3.9H44.7z M3,67.4c5.3-4,7.6-6.1,11.1-10
		c3.2-3.6,4-4.6,5.4-7.1c7.3,2.9,7.3,2.9,7.3,3.6c0,0.6-0.8,1-2.3,1h-1.3c-7.9,7-11.6,9.5-19.4,13.4L3,67.4z M37.3,54.7
		c0,0.3,0,3,0.1,8.2c0,2.6-0.2,3.2-1.2,4.1c-1.3,1.2-2.8,1.8-5.9,2.6c-0.7-3.2-2.2-4-9.8-5.2v-1.2c5.5,0.4,7.1,0.4,11.4,0.4
		c0.7,0,0.8-0.1,0.8-1.2V47.5H8.4c-1.4,0-2.9,0.1-4.7,0.5l-0.4-2.8c1.8,0.4,3.1,0.6,5.7,0.6h47.6c2-2.2,2.6-2.9,4.4-4.8
		c2.9,2.2,3.7,2.9,6.4,5.4c0.3,0.3,0.4,0.5,0.4,0.7c0,0.2-0.3,0.4-0.7,0.4H37.3V54.7z M12.6,35.9c1.9,0.4,3.1,0.6,4.6,0.6h30.9
		c1.7-2,2.2-2.6,3.9-4.5c2.5,2.1,3.2,2.8,5.7,5.1c0.2,0.4,0.4,0.5,0.4,0.7c0,0.2-0.3,0.4-0.8,0.4H17.3c-1.3,0-2.6,0.1-4.1,0.4
		L12.6,35.9z M42.8,50.6c7.3,2.8,12,5,15.3,7.2c1.8,1.2,2.5,2,2.8,3c0.4,1.1,0.6,2.3,0.6,3.4c0,1.8-0.5,2.9-1.2,2.9
		c-0.7,0-0.7,0-4.8-4.3c-4.7-5-8.6-8.2-13.2-11.2L42.8,50.6z"/>
	<path d="M109,64.1V13.2c0-5.7,0-6.5-0.2-8.5c1.7,0.2,3,0.4,3.8,0.4c3.7,0.4,4.9,0.9,4.9,1.5c0,0.6-0.8,1-3.2,1.6v25.3h12.5
		c2.1-2.4,2.6-3.2,4.6-5.4c3.1,2.6,4,3.4,7,6.2c0.1,0.1,0.2,0.4,0.2,0.5c0,0.2-0.3,0.4-0.7,0.4h-23.7v28.9H131
		c2.2-2.6,2.9-3.4,5.2-5.9c3.2,2.7,4.1,3.6,7.3,6.5c0.1,0.2,0.2,0.4,0.2,0.7c0,0.3-0.4,0.4-0.9,0.4H85.1c-4,0-5.3,0.1-7.2,0.3
		l-0.4-2.7c2.6,0.6,4.2,0.7,7.6,0.7h4.5V27.3c-0.1-6.5-0.1-6.5-0.1-8.4c7.9,1,8.4,1.2,8.4,1.9c0,0.6-1,1-3.1,1.5v41.7H109z"/>
	<path d="M151.6,20.1c9.1,3.2,11.4,4.8,11.4,7.7c0,2.4-0.8,4.3-1.9,4.3c-0.6,0-1-0.4-1.5-1.4c-2.4-4.1-4.8-7-8.3-9.8L151.6,20.1z
		 M153.1,46.8c2.3,1,3.4,1.2,3.9,1.2c0.7,0,1.1-0.7,2.9-4.9c0.9-2.3,7-17.5,10.9-27.4l1,0.4l-9.3,31c-0.3,1-0.8,3.7-0.8,4.3
		c0,0.8,0.1,1.5,0.7,3c1.2,3.7,1.5,5.1,1.5,7c0,3.5-2.3,6.5-4.8,6.5c-1,0-1.8-0.8-1.8-2c0-0.5,0.1-1.2,0.2-2.2c0.4-2,0.8-7,0.8-8.7
		c0-2.1-0.3-3.5-1-4.4c-0.4-0.5-1-1-2.3-1.7l-1.2-0.7c-0.4-0.1-0.7-0.4-1-0.5L153.1,46.8z M157,4.3c2.6,1,6.2,2.6,8.2,3.7
		c2.4,1.2,3.1,2.2,3.1,4.1c0,2.4-0.7,4.3-1.8,4.3c-0.6,0-1-0.4-1.6-1.5c-1.8-2.7-4.6-6.1-8.4-9.8L157,4.3z M200.2,21h9.2
		c1.3-1.5,1.8-1.9,3.2-3.3c1.9,1.5,2.5,2,4,3.3c0.5,0.5,0.7,0.8,0.7,1c0,0.5-0.4,0.9-2.3,2.2v17.6c0,11.5,0.1,16.2,0.4,25.5
		c-0.1,0.6-0.2,0.8-0.7,1c-0.4,0.1-2.1,0.4-3.3,0.4c-1,0-1.3-0.2-1.4-0.9v-4h-32v4c0,0.5-0.1,0.7-0.7,0.9c-0.4,0.1-2.1,0.2-3.1,0.2
		c-1,0-1.3-0.2-1.3-0.9c0.4-9.8,0.4-20.1,0.4-43.7c0-2.7,0-4-0.1-7c2.5,1.5,3.2,2,5.7,3.6h6.8c0.1-2.1,0.1-3.7,0.1-5.9
		c0-1.9,0-1.9,0-5.1h-8.7c-2,0-3.7,0.1-5.7,0.5l-0.6-2.9c2.3,0.5,4.1,0.7,6.2,0.7h30.9c2.1-2.6,2.6-3.4,4.6-5.7
		c3,2.6,3.9,3.5,6.8,6.3c0.2,0.2,0.3,0.4,0.3,0.7c0,0.2-0.4,0.4-0.9,0.4h-18.4V21z M209.8,22.7h-9.6v13.6c0,1.2,0,1.2,1.8,1.2
		c1,0,1.5-0.3,1.7-1c0.4-1.2,1.1-5,1.7-8.7h1V35c0,1.8,0,1.8,0.7,2.1c1.2,0.4,1.5,0.9,1.5,1.8c0,1.7-1.5,2.2-6.8,2.2
		c-5.3,0-5.9-0.3-6-2.9V22.7h-6.2c-0.3,4.8-0.6,7.2-1.2,10.2c-0.8,3.2-2.5,6.5-4.8,9.3c-1,1.2-2.1,2.2-4.2,4l-0.7-0.8
		c2.2-2.6,3.1-4,4.2-6.8c1.8-4.6,2.2-7.2,2.5-15.9h-7.6v27.4h32V22.7z M209.8,51.8h-32v10.4h32V51.8z M190,10v4.2
		c0,2.2-0.1,3.7-0.1,6.8h6V10H190z"/>
	<path d="M255.2,9l2.6-2.6c1.7,1.3,2.1,1.7,3.7,3c0.4,0.3,0.5,0.5,0.5,0.7c0,0.4-0.6,0.9-2.3,1.7c-0.5,6-1.5,10.2-2.9,12.4
		c-1.2,2.1-2.6,2.8-6.5,3.5c-0.2-3.2-0.7-3.5-6.2-4.3l0.1-1.2c4.8,0.3,5.7,0.4,6.2,0.4c2.1,0,2.6-0.2,3.1-1.3
		c1-2.1,1.5-5.3,1.8-10.6h-10.4c-0.9,4.3-2.1,7.3-4.2,10.4c-1.8,2.8-4.3,5.3-6.8,7c-1.4,1-2.7,1.7-5.5,2.9l-0.5-0.9
		c5.4-3.8,8.1-7,10.3-11.9c1-2.3,1.6-4.3,2.1-7.6h-6.3c-2.6,0-3.3,0.1-5.5,0.6l-0.5-2.9c2.1,0.5,3.2,0.7,6,0.7h6.5
		c0.2-2,0.3-3.5,0.3-5.1c0-0.4-0.1-1-0.1-1.9c7.1,0.7,7.8,0.8,7.8,1.5c0,0.6-0.7,0.9-2.8,1.5c-0.2,2-0.3,2.7-0.4,4H255.2z
		 M239.4,55.7c-0.2,3.2-1,5.8-2.3,8.2c-1.4,2.3-4.1,4.5-5.9,4.5c-1,0-1.5-1.2-1.5-3.6c0-1.8,0.2-2,2.8-2.6c2.9-0.8,4.7-2.8,5.9-6.5
		H239.4z M283.6,51c1.4-1.4,1.8-1.8,3.2-2.9c2.2,1.7,2.2,1.7,4.2,3.2c0.6,0.7,0.6,0.7,0.6,0.8c0,0.4-0.5,0.7-2.7,1.8
		c-1.1,6.9-2.1,10.1-4,12.6c-1.5,2.1-2.9,2.7-7.3,3.5c-0.5-1.8-1-2.4-2.2-3.2c-1.2-0.8-2.6-1.1-7.6-1.6v-1.2
		c3.5,0.4,9.7,0.7,11.3,0.7c1.3,0,1.8-0.2,2.4-1.4c1.6-2.9,2.1-4.8,2.7-10.6h-41.1v0.4c0,0.4-0.1,0.6-0.2,0.7
		c-0.3,0.2-2.1,0.4-3.5,0.4c-0.6,0-0.9-0.2-1-0.8c0.1-4.3,0.2-5.9,0.2-10.4c0-7.3-0.1-13.9-0.2-16.6c2.3,1.2,2.9,1.6,5.1,3h34.1
		c1.4-1.8,1.8-2.3,3.3-4c2.6,2,3.4,2.6,5.7,4.3c0.5,0.4,0.7,0.7,0.7,0.9c0,0.3-0.4,0.5-0.8,0.5H264v5.2h12.4
		c1.4-1.6,1.8-2.1,3.2-3.7c2.3,1.8,3,2.3,5.2,4.3c0.3,0.3,0.4,0.4,0.4,0.7c0,0.3-0.4,0.4-1,0.4H264v5.3h12.3
		c1.5-1.7,1.9-2.2,3.3-3.7c2.3,1.9,3,2.5,5.1,4.3c0.3,0.2,0.4,0.4,0.4,0.6c0,0.3-0.4,0.5-1,0.5H264V51H283.6z M259.8,36.4v-5.2
		h-16.7v5.2H259.8z M259.8,43.3v-5.3h-16.7v5.3H259.8z M259.8,45h-16.7V51h16.7V45z M246.3,55.2c4.6,3.8,5.7,5.2,5.7,7
		c0,1.8-1.8,4.3-3.2,4.3c-0.7,0-1-0.6-1.1-2.1c-0.2-3.7-0.7-5.5-2.1-8.8L246.3,55.2z M257.7,55c4.7,2.9,6.8,5,6.8,7
		c0,1.5-1.5,3.8-2.6,3.8c-0.4,0-0.7-0.3-0.9-1c-0.7-2.9-1.9-5.7-4-9.2L257.7,55z M269.7,25.4c0,0.6-0.1,0.8-0.4,1
		c-0.3,0.1-2.3,0.4-3.2,0.4c-0.6,0-0.9-0.3-1-1c0.2-3.2,0.2-5.2,0.2-14.4c0-1-0.1-3-0.3-6.2c2.3,1.2,3,1.6,5.1,3h14.8
		c1-1.4,1.4-1.8,2.5-3c1.8,1.5,2.4,1.9,4.1,3.2c0.4,0.4,0.6,0.6,0.6,0.8c0,0.4-0.4,0.7-2.2,1.7v4.9c0,4.2,0,5.4,0.1,8.8
		c-0.1,0.7-0.2,1-0.7,1.2c-0.7,0.2-1.9,0.4-3.1,0.4c-0.6,0-0.9-0.2-1.1-0.8v-2h-15.5V25.4z M269.2,54.5c5.5,2,7,3,7,4.6
		c0,1.5-1.2,3.7-2.1,3.7c-0.4,0-0.7-0.3-1-1.1c-1.2-2.6-2.2-4.1-4.5-6.6L269.2,54.5z M269.7,21.8h15.5V9.9h-15.5V21.8z"/>
</g>
</svg>
