<?xml version="1.0" encoding="utf-8"?>
<!-- Generator: Adobe Illustrator 18.0.0, SVG Export Plug-In . SVG Version: 6.00 Build 0)  -->
<!DOCTYPE svg PUBLIC "-//W3C//DTD SVG 1.1//EN" "http://www.w3.org/Graphics/SVG/1.1/DTD/svg11.dtd">
<svg version="1.1" id="圖層_1" xmlns="http://www.w3.org/2000/svg" xmlns:xlink="http://www.w3.org/1999/xlink" x="0px" y="0px"
	 viewBox="-594 0 1260 72" enable-background="new -594 0 1260 72" xml:space="preserve">
<g>
	<path d="M-591.5,19.8c9.1,3.2,11.4,4.8,11.4,7.7c0,2.4-0.8,4.3-1.9,4.3c-0.6,0-1-0.4-1.5-1.4c-2.4-4.1-4.8-7-8.3-9.7L-591.5,19.8z
		 M-589.9,46.2c2.3,1,3.4,1.2,3.9,1.2c0.7,0,1.1-0.7,2.9-4.9c0.9-2.3,7-17.3,10.9-27.2l1,0.4l-9.2,30.8c-0.3,1-0.8,3.7-0.8,4.3
		c0,0.8,0.1,1.5,0.7,3c1.2,3.7,1.5,5.1,1.5,7c0,3.4-2.3,6.4-4.8,6.4c-1,0-1.8-0.8-1.8-2c0-0.5,0.1-1.2,0.2-2.2c0.4-2,0.8-7,0.8-8.7
		c0-2.1-0.3-3.4-1-4.4c-0.4-0.5-1-1-2.3-1.7l-1.2-0.7c-0.4-0.1-0.7-0.4-1-0.5L-589.9,46.2z M-586.1,4.1c2.6,1,6.2,2.6,8.1,3.7
		c2.5,1.2,3.2,2.1,3.2,4c0,2.4-0.7,4.3-1.8,4.3c-0.6,0-1-0.4-1.6-1.5c-1.8-2.7-4.5-6.1-8.4-9.8L-586.1,4.1z M-543.1,20.7h9.2
		c1.3-1.5,1.8-1.9,3.2-3.3c1.9,1.5,2.5,2,4,3.3c0.5,0.5,0.7,0.8,0.7,1c0,0.5-0.4,0.9-2.3,2.2v17.5c0,11.5,0.1,16.1,0.4,25.3
		c-0.1,0.6-0.2,0.8-0.7,1c-0.4,0.1-2.1,0.4-3.3,0.4c-1,0-1.3-0.2-1.4-0.9v-4h-32v4c0,0.5-0.1,0.7-0.7,0.9c-0.4,0.1-2.1,0.2-3.1,0.2
		c-1,0-1.3-0.2-1.3-0.9c0.4-9.7,0.4-20,0.4-43.4c0-2.7,0-4-0.1-7c2.5,1.5,3.2,2,5.6,3.6h6.7c0.1-2.1,0.1-3.7,0.1-5.9
		c0-1.9,0-1.9,0-5.1h-8.7c-2,0-3.7,0.1-5.6,0.5l-0.6-2.9c2.4,0.6,4.1,0.8,6.3,0.8h30.7c2.1-2.6,2.6-3.4,4.6-5.7
		c3,2.6,3.9,3.4,6.8,6.3c0.3,0.2,0.3,0.4,0.3,0.7c0,0.2-0.4,0.4-0.9,0.4h-18.3V20.7z M-533.6,22.3h-9.6v13.6c0,1.2,0,1.2,1.8,1.2
		c1,0,1.5-0.3,1.7-1c0.4-1.2,1.1-5,1.7-8.7h1v7.2c0,1.8,0,1.8,0.7,2.1c1.2,0.4,1.5,0.9,1.5,1.8c0,1.7-1.5,2.2-6.7,2.2
		c-5.3,0-5.9-0.3-6-2.9V22.3h-6.2c-0.3,4.8-0.6,7.2-1.2,10.2c-0.8,3.2-2.5,6.5-4.8,9.3c-1,1.2-2.1,2.2-4.2,4l-0.7-0.8
		c2.2-2.6,3.1-4,4.2-6.8c1.8-4.5,2.2-7.2,2.5-15.9h-7.6v27.2h31.8L-533.6,22.3L-533.6,22.3z M-533.6,51.2h-31.8v10.4h31.8V51.2z
		 M-553.3,9.7v4.2c0,2.2-0.1,3.7-0.1,6.8h6v-11C-547.4,9.7-553.3,9.7-553.3,9.7z"/>
	<path d="M-465.4,36.4c-3.5,3.7-5.6,5.6-10,9l-0.9-1c5.1-5.6,7.2-8.2,10.8-13.8c3.4-5.4,4.8-8.2,5.9-12.2c7.4,2.9,7.8,3.2,7.8,3.8
		c0,0.7-1,1-3.3,1c-2.6,4-4.2,6.1-7.1,9.6c2.6,0.7,3.9,1.3,3.9,1.8c0,0.5-0.7,1-2.3,1.3v19.5l0.1,12.3c-0.1,0.5-0.1,0.8-0.3,1
		c-0.4,0.4-1.7,0.6-3.4,0.6c-1.1,0-1.3-0.1-1.4-0.9c0.1-6.4,0.3-13.3,0.3-18.7L-465.4,36.4L-465.4,36.4z M-475.3,22.9
		c5.1-4.4,8.2-7.9,11.4-12.9c2.1-3.3,3.1-5.1,4-7.8c7.3,2.9,8.1,3.4,8.1,4c0,0.7-0.8,1-3.8,1c-5.1,6.7-11.4,12.4-18.7,16.8
		L-475.3,22.9z M-425.2,40.9c1.3-1.5,1.8-1.9,3.2-3.4c2.2,1.8,2.9,2.3,4.9,4.1c0.5,0.4,0.7,0.7,0.7,1c0,0.2-0.2,0.5-0.4,0.6
		c-0.3,0.2-1.4,0.5-3.3,1.1c-3.6,5.1-6.2,8.1-10,11.4c6.2,3.9,12.6,5.9,22.8,6.8v1c-2.6,0.8-4,2.1-5,4.9
		c-8.2-1.9-14.7-5.2-20.6-10.6c-7.2,5.3-15.1,8.9-24.6,11.4l-0.6-1.2c9.7-3.8,16.1-7.5,22.4-13c-3.5-3.9-5.7-7-7.2-10.3
		c-4.6,6-8.6,9.6-14.7,13.3l-0.7-0.9c6.7-5.9,12.9-14.4,16.1-22l-10.3,1.2c-0.4,2-0.8,2.8-1.4,2.8c-0.9,0-1.1-1.1-1.8-8
		c2.6,0.2,4,0.3,6.1,0.3c0.7,0,2.3,0,4.7-0.1c1-0.1,2.7-0.1,4.8-0.1c3-2.9,5.1-5.3,8.4-9.5c4.9-6.3,7.3-9.9,8.9-13.5
		c6,3.6,7,4.3,7,4.9c0,0.5-0.6,0.7-2.3,0.7c-0.2,0-0.7,0-1.2,0c-6.7,7.5-12,12.5-18.2,17.3c0.7,0,0.7,0,1.8-0.1
		c5.2-0.1,8.9-0.3,17-0.9c-2.3-3.2-3.3-4.4-5.9-6.9l0.7-0.7c4.3,2.3,7.5,4.6,10.5,7.3c2.9,2.6,3.7,3.9,3.7,5.6
		c0,2.5-1.2,5.2-2.3,5.2c-0.6,0-0.7-0.3-1.8-2.3c-1.4-2.9-1.9-3.7-4-6.8c-7.7,1.3-12.8,2.1-18.7,2.8c-1.1,2.4-2.1,4.3-3.5,6.4h15
		v0.2H-425.2z M-450.5,12.3c3.8,2,5.3,2.9,7.8,4.3c3-6,4.7-10.3,5.4-13.9c6.5,2.5,7.5,2.9,7.5,3.6c0,0.6-0.7,0.9-3.2,1
		c-3.2,4.7-4.4,6.1-8.4,10.3c3.6,2.4,4.4,3.4,4.4,4.9c0,2.3-1.1,4.4-2.3,4.4c-0.4,0-0.6-0.2-1-0.9c-2.4-4.3-6.7-9.3-11.1-12.7
		L-450.5,12.3z M-441.4,42.5c-0.2,0.4-0.3,0.4-0.5,0.8c2,3.7,4.5,6.5,8.3,9.7c3.7-3.5,5.9-6.2,8.4-10.5H-441.4z"/>
	<path d="M-316.3,9.9c-3.1,5.6-5,8.4-9.3,13.5c4.8,0.9,5.9,1.2,5.9,1.7c-0.1,0.4-0.6,0.8-2.6,1.5c0.1,29.1,0.1,29.1,0.5,40.6
		c0,0.1,0,0.2,0,0.3c0,0.5-0.1,0.7-0.7,0.9c-0.5,0.2-2.1,0.4-3.3,0.4c-1.5,0-1.8-0.2-1.8-1.3c0.1-8.1,0.3-25.5,0.3-33.9
		c0-3.2-0.1-5.6-0.1-8c-9.7,10.9-17.6,17-29.9,23.4l-0.9-1c5.6-3.7,8.5-6.1,13.6-10.7c10.4-9.7,16.9-17.7,21.9-27.5H-349
		c-2.6,0-4.7,0.1-7,0.5l-0.8-2.8c2.6,0.5,4.6,0.7,7.6,0.7h45.3c2-2.5,2.6-3.3,4.6-5.7c3.4,2.6,4.4,3.4,7.6,6.2
		c0.3,0.2,0.4,0.4,0.4,0.7c0,0.4-0.2,0.5-1,0.5L-316.3,9.9L-316.3,9.9z M-317.5,25.1c10.1,4.8,16.9,8.9,21.1,12.9
		c1.8,1.6,2.4,3.6,2.4,7c0,2.2-0.6,3.5-1.5,3.5c-0.4,0-0.7-0.2-1.2-1c-1.5-2.1-5.9-7.5-8.6-10.2c-4.7-4.8-8.1-7.8-13-11.4
		L-317.5,25.1z"/>
	<path d="M-233.2,24.8v43.6c-0.1,1-0.7,1.2-3.9,1.2c-0.9,0-1.2-0.2-1.2-0.9c0.4-9.6,0.4-19.9,0.4-47.4c0-8.1-0.1-12.8-0.2-18.8
		c2.6,1.2,3.4,1.6,5.8,3.2h14.4c1.2-1.5,1.5-2,2.6-3.5c1.9,1.3,2.5,1.7,4.3,3.1c0.5,0.4,0.7,0.7,0.7,1c0,0.5-0.5,0.9-2.3,1.9
		c0,1.6,0,2.4,0,3.7c0,2.6,0,4.7,0.2,15.5c0,0.6-0.1,0.7-0.7,0.9c-0.4,0.1-2,0.3-2.9,0.3c-0.9,0-1.2-0.3-1.2-0.9v-0.1V25
		L-233.2,24.8L-233.2,24.8z M-217.4,7.4h-15.9v6.9h15.9V7.4z M-217.4,16h-15.9v7.3h15.9V16z M-198.6,46h4c1.5-1.9,2-2.4,3.4-4.2
		c2.3,2.1,3.2,2.9,5.6,5.1c0.1,0.1,0.1,0.3,0.1,0.4c0,0.1-0.2,0.3-0.4,0.3h-12.7v3.7c0,5.6,0,7.5,0.2,14.4c0,0.1,0,0.1,0,0.2
		c0,0.8-1.1,1.2-3.6,1.2c-0.8,0-1.2-0.3-1.2-0.9c0,0,0-0.1,0-0.2c0.1-2.1,0.1-7,0.1-14.4v-4h-10.3c-0.7,6-1.8,9.1-4.5,12.5
		c-2.9,3.7-6.1,5.9-11.4,8.2l-0.7-0.9c5.1-3.2,8.2-6.4,10.3-10.8c1.2-2.4,1.5-4,2-9h-5.1c-2.4,0-4.2,0.1-5.9,0.4l-0.7-2.7
		c1.9,0.4,3.6,0.6,6.6,0.6h5.2c0.1-2.6,0.2-4.8,0.2-7c0-1.7,0-2.1-0.1-3.7h-4.2c-2.6,0-3.5,0.1-5.4,0.4l-0.6-2.7
		c2,0.5,3.4,0.7,6.1,0.7h24.7c1.5-1.8,2-2.4,3.4-4.3c2.6,2.1,3.4,2.9,5.8,5.1c0.1,0.2,0.2,0.4,0.2,0.5c0,0.1-0.3,0.4-0.5,0.4h-10.6
		C-198.6,35.4-198.6,46-198.6,46z M-212.9,35.4c0,1.9,0,2.6,0,3.4c0,2.6-0.1,4.3-0.3,7.3h10.2V35.4H-212.9z M-198.6,24.8v2.4
		c-0.1,0.6-0.2,0.8-0.7,1c-0.5,0.1-1.9,0.2-3,0.2c-1,0-1.2-0.2-1.2-1c0.2-5.3,0.2-6.7,0.2-12.4c0-7.5-0.1-9.3-0.3-12.6
		c2.4,1.3,3.2,1.7,5.3,3.2h14.7c1.3-1.5,1.7-2.1,3-3.6c1.8,1.3,2.3,1.7,4.3,2.9c0.7,0.5,1,0.8,1,1.1c0,0.4-0.4,0.8-2.1,2v34
		l0.1,21.9c-0.1,1.9-0.7,2.8-2.6,3.9c-1.4,0.8-2.9,1.2-6.1,1.8c-0.4-3.4-1.5-4-8.6-5.2v-1.1c7.3,0.2,7.4,0.2,8.7,0.2
		c0.5,0,1.4,0,2.4,0c0.8-0.1,0.8-0.1,0.8-1.6v-37H-198.6z M-182.8,7.4h-16v6.9h16V7.4z M-182.8,16h-16v7.3h16V16z"/>
	<path d="M-89,45.1c0,1.5,0,1.5,0,5.9c0,0.3,0,0.3,0,2.4h20.8c2.1-2.5,2.7-3.2,4.8-5.6c3.1,2.6,4,3.4,6.8,6.3
		c0.2,0.2,0.3,0.4,0.3,0.7c0,0.1-0.3,0.4-0.6,0.4h-32c0.1,10,0.1,10,0.2,13.5c0,0.6-0.1,0.8-0.5,1c-0.4,0.1-2.7,0.3-4.1,0.3
		c-0.7,0-1-0.1-1-0.7c0.1-2.5,0.2-7.2,0.3-14h-21.9c-3.2,0-5.5,0.2-7.2,0.6l-0.4-2.9c2.3,0.5,4.3,0.7,7.5,0.7h21.9
		c0-3.2,0-3.2,0.1-8.3h-14.8v2.4c0,1-0.7,1.2-4.1,1.2c-0.9,0-1.2-0.2-1.2-0.9c0.3-5.7,0.4-8.6,0.4-15.1c0-7.1-0.1-10.3-0.4-14.8
		c2.4,1.4,3.2,1.8,5.5,3.2h14.7v-7.8h-21.9c-2.3,0-4,0.1-5.4,0.6l-0.3-2.9c1.8,0.4,3.2,0.6,5.7,0.6h21.9C-94,6-94,6-94.3,2.5
		c1.7,0.1,3,0.2,3.8,0.3c3.7,0.2,4.6,0.5,4.6,1.2s-0.7,1-3,1.7C-89,8.9-89,9.4-89,12h19.7c1.8-2.3,2.3-2.9,4.3-5.1
		c3.1,2.5,4,3.2,6.9,5.9c0.3,0.3,0.4,0.4,0.4,0.6c0,0.2-0.2,0.4-0.7,0.4h-30.5v7.8h15.1c1.2-1.4,1.6-1.8,3-3.2
		c1.9,1.3,2.5,1.8,4.5,3.2c0.5,0.4,0.7,0.7,0.7,1c0,0.6-0.6,1-2.9,2.1c0,2.1,0,3.5,0,4.4c0,7.2,0.1,12.5,0.4,17.7
		c0,0.5-0.1,0.7-0.3,0.9c-0.4,0.3-1.9,0.5-4,0.5c-0.7,0-1-0.1-1-0.7v-2.3L-89,45.1L-89,45.1z M-93.9,29c0-0.7,0-2.3,0-5.8h-14.8v8.9
		h14.8V29z M-93.9,33.8h-14.8v9.7h14.8V33.8z M-73.4,23.2h-15.7v8.9h15.7V23.2z M-73.4,33.8h-15.7v9.7h15.7V33.8z"/>
	<path d="M129.9,66.5c8.9-1.1,15-2.8,22-6.3c4.1-2.1,6.7-4,10-7.3c-6.3-2.6-8.2-3.2-14.9-4.8c-1,1.5-1.5,2.3-2.9,4.5
		c-0.4,0.4-0.7,0.6-1,0.6h-0.1c-0.7-0.1-1.4-0.2-1.8-0.3c-2-0.1-2.2-0.3-2.3-1c4.3-6.4,6-9.3,10.4-17.7h-14.7
		c-1.1,0-3.4,0.2-5.7,0.6l-0.7-3.2c3.1,0.7,4.6,1,6.4,1h15.4c3-6,4.7-10.3,6.3-15.7c7.2,2.1,7.2,2.1,7.5,2.2
		c0.4,0.2,0.5,0.4,0.5,0.7c0,0.7-0.4,0.9-3.8,1.5c-2.1,5-2.9,6.8-5.1,11.3h28.8c1.8-2.4,2.4-3.1,4.2-5.4c3.1,2.6,4.1,3.5,7.3,6.4
		c0.1,0.1,0.2,0.3,0.2,0.4c0,0.2-0.3,0.4-0.7,0.4h-17c-2,6.4-2.9,8.7-5.2,12.5c-1.2,2.1-2.3,3.5-3.9,5.4c7.2,2.4,13.3,5.1,17,7.3
		c2.3,1.4,2.9,2.6,2.9,5.5c0,1.5-0.5,2.9-1.1,2.9c-0.4,0-0.4,0-2.3-1.5c-2.1-1.8-9.3-6.4-12.5-8.2c-2.1-1.2-3.4-1.8-6.6-3.2
		c-3.4,3.5-6.9,5.8-12.3,8.1c-7.9,3.4-13.9,4.5-24.2,4.8L129.9,66.5z M159.3,12.5V8.2c0-2.9,0-3.4-0.1-5.5c6.4,0.8,8.3,1.2,8.3,2
		c0,0.5-0.9,1-3,1.6v6.2h21.3c1.3-1.8,1.7-2.3,3.2-4c3.2,2.3,4.2,3,7,5.7c0.4,0.4,0.5,0.6,0.5,0.8c0,0.5-0.7,0.7-4.8,1.2
		c-4.1,3.5-5.1,4.3-9.2,7.5l-0.7-0.5c3.3-6.3,3.3-6.3,4.4-9.1h-48.3c-0.5,3.6-1.2,6.2-2.3,8.4c-1.1,2.1-3.4,4.5-4.4,4.5
		c-1.2,0-2.6-2.7-2.6-5c0-1,0.3-1.4,1.4-2.1c1.5-1,3.1-2.5,4.2-4.2c1.2-1.8,1.2-1.9,3.2-9h0.9c0,3-0.1,3.9-0.2,5.7L159.3,12.5
		L159.3,12.5z M154.5,34.4c-2.2,4.4-4.8,9.3-6.7,12.6c1.6,0.4,1.6,0.4,5.6,1.2c3.4,0.7,6.1,1.3,10.6,2.6c4.2-5.2,6.6-9.7,8.5-16.4
		H154.5z"/>
	<path d="M281,46.1h9.4c1.8-2.1,2.4-2.8,4.3-5c2.9,2.3,3.8,3.1,6.5,5.6c0.2,0.2,0.4,0.5,0.4,0.7s-0.4,0.4-0.9,0.4h-19.5v16.6h17.9
		c2.1-2.4,2.7-3.2,4.7-5.6c3.4,2.7,4.4,3.5,7.7,6.3c0.1,0.2,0.3,0.4,0.3,0.4c0,0.3-0.3,0.5-0.6,0.5h-56.5c-2,0-3.4,0.1-6.2,0.6
		l-0.7-3.1c2.4,0.5,5,0.8,7.4,0.8H276V47.8h-12.9c-1.4,0-2.5,0.1-5.1,0.4l-0.7-2.9c1.8,0.4,4.4,0.8,5.7,0.8h12.9V32.9h-12.9
		c-1.8,0-2.5,0.1-4.3,0.4l-0.8-2.7c-4.5,3.4-7.7,5.2-13.6,8.1l-0.5-1c9-5.9,15-11.4,22.1-20.2c5.2-6.5,8.2-11.2,9.9-15.5
		c7.5,2.1,8.6,2.4,8.6,3c0,0.5-1.2,1-3.5,1.5c5.6,7.8,9,11.2,15.6,15.5c6.4,4.2,11.8,6.6,17.6,8l-0.1,1c-3.1,0.4-4.2,1.5-5.5,5.2
		c-6.5-3.8-10.3-6.6-15.6-11.7c-6.4-6.1-9.7-10.5-13.1-17.3c-6.7,10.2-12.8,16.8-21.8,23.4c2.3,0.5,3.4,0.7,5,0.7h25.6
		c1.7-1.8,2.2-2.4,3.7-4.3c2.9,2.1,3.8,2.7,6.7,5c0.3,0.3,0.4,0.4,0.4,0.6c0,0.3-0.4,0.4-1,0.4h-17.5L281,46.1L281,46.1z"/>
	<path d="M416.3,14.9c2-2.2,2.6-2.9,4.5-4.9c3.1,2.3,4,3,7,5.5c0.2,0.3,0.4,0.5,0.4,0.7c0,0.3-0.3,0.4-0.7,0.4h-38
		c-1.8,3.7-3.2,6.1-5.6,9.6c0.6,0.4,0.8,0.5,1.5,1h26c1.2-1.5,1.6-1.8,2.9-3.2c2.1,1.3,2.8,1.8,4.8,3.2c0.7,0.4,0.9,0.7,0.9,1
		c0,0.4-0.2,0.6-2.7,2v19.2c0,4.8,0,9.1,0.1,14.1c-0.1,1.8-0.4,2.6-1.7,3.5c-1.4,1.1-3.2,1.7-7,2.3c-0.3-2.1-0.8-3-2.2-3.6
		c-1.2-0.6-1.2-0.6-8.6-1.5l0.1-1.2l12.5,0.4c1.3,0,1.7-0.2,1.7-1.1V49.8h-26.7v18.1c-0.1,0.6-0.2,0.8-0.6,1
		c-0.5,0.2-2.4,0.4-3.7,0.4c-0.6,0-0.8-0.1-0.8-0.8c0.1-6.4,0.1-6.4,0.1-20V30.8c-5.5,6.8-10.4,11.3-17,15.5l-0.5-0.7
		c9.5-9,16.7-18.7,21.2-29.1h-13.8c-2.7,0-4.1,0.1-6.5,0.4l-0.4-2.8c2.6,0.5,3.9,0.7,6.9,0.7H385c2.1-4.9,3.1-8.4,3.7-12.1
		c7.5,1.5,7.5,1.5,8.1,1.8c0.2,0.1,0.5,0.5,0.5,0.7c0,0.7-0.6,1-3.9,1.7c-1.2,3.6-1.8,5.1-3,7.9L416.3,14.9L416.3,14.9z M411.9,37.4
		v-8.8h-26.7v8.8H411.9z M385.3,48.1h26.7v-9h-26.7V48.1z"/>
	<path d="M477,39.3c4.1-5.8,7-11.3,10.6-20.2c2.6-6.5,3.9-10.8,4.7-16c6.2,1.8,6.5,2,7.4,2.3c0.7,0.4,1,0.7,1,1c0,0.7-1.1,1.2-3,1.4
		c-3.4,7.8-5.7,12.5-9,17.9c4.6,0.8,5.6,1.1,5.6,1.8c0,0.5-0.5,0.8-2.3,1.5v15.7c0.1,16.2,0.1,17,0.1,22.9c-0.2,0.8-0.5,1-2.6,1.1
		c-0.3,0-0.7,0-1.2,0.1c-0.1,0-0.3,0-0.4,0c-0.8,0-1.2-0.3-1.2-1c0,0,0-0.1,0-0.2c0.2-9.4,0.4-17.1,0.4-22.8V28.4
		c-0.4,0.5-0.5,0.8-0.9,1.3C482,36,481.2,37,478,40.3L477,39.3z M522.1,37.6h12.5c1.8-2.3,2.4-3,4.3-5.3c2.9,2.5,3.8,3.3,6.6,6
		c0.1,0.2,0.2,0.4,0.2,0.5c0,0.3-0.3,0.4-0.9,0.4h-22c2.6,4.2,4,5.9,7,8.6c5.1,4.8,10.3,7.5,17.3,9.3v1c-2.9,0.7-4,1.8-5.3,4.8
		c-5.5-3.4-8.5-6.1-12.5-10.9c-3.4-4-5-6.7-7.1-11.4v9.3c0,3.2,0.1,7.5,0.3,17.3c0,0.1,0,0.2,0,0.3c0,0.7-0.8,1.1-2.5,1.1
		c-0.5,0.1-0.8,0.1-0.9,0.1s-0.3,0-0.3,0c-1,0-1.4-0.3-1.4-0.9c0-0.1,0-0.1,0-0.1c0.1-6,0.1-6,0.1-8.6c0.1-4.8,0.1-7.8,0.1-8.6v-8.4
		c-4.3,6.2-6.7,9.1-11.3,13.3c-4.3,3.9-7.2,5.9-12.8,8.9l-0.7-0.8c7.1-5.7,11.7-10.3,16.2-16.3c1.9-2.5,3.1-4.3,5.1-7.9h-11.6
		c-3.6,0-4.3,0.1-7,0.5l-0.7-3.2c3,0.7,4.9,1,7.6,1h15.2V27.3h-9.4v2.2c0,0.1,0,0.2,0,0.2c0,1-1.1,1.3-3.9,1.3
		c-0.8,0-1.1-0.1-1.1-0.6c0-0.1,0-0.1,0-0.2c0.1-3.1,0.2-14.4,0.2-18.4c0-2.3-0.1-3.9-0.3-6.9c2.7,1.2,3.4,1.7,5.8,3.2h22.4
		c1.3-1.4,1.8-1.8,3-3.2c1.8,1.2,2.3,1.6,4,2.8c0.6,0.4,0.9,0.7,0.9,1c0,0.4-0.7,1.1-2.4,2.1c0.1,9.6,0.1,10.8,0.3,17.9
		c0,0.1,0,0.1,0,0.2c0,0.4-0.1,0.6-0.4,0.8c-0.3,0.1-2.6,0.5-3.7,0.5c-0.6,0-1-0.2-1-0.9v-2.2h-10L522.1,37.6L522.1,37.6z
		 M508.2,25.6h23.7V9.8h-23.7C508.2,9.8,508.2,25.6,508.2,25.6z"/>
	<path d="M603.6,66c0,0.4,0,0.8,0,1.5c-0.1,0.5-0.4,0.7-0.9,0.7c-0.9,0.1-2.3,0.3-3,0.3c-0.6,0-0.8-0.1-1-0.7
		c0.2-10.6,0.3-21,0.3-56.3c0-2.4-0.1-4.9-0.3-8c2.5,1.4,3.2,1.8,5.5,3.4h7.7c1.1-1.2,1.5-1.6,2.6-2.8c1.8,1.5,2.3,1.9,3.9,3.3
		c0.4,0.4,0.7,0.7,0.7,1c0,0.7-0.2,0.8-2.6,1.5c-1.9,5.1-5.1,11.7-8.2,17c3.2,3.2,4.5,4.9,5.7,7.3c1.5,2.8,2.6,6.7,2.6,9.3
		c0,3-1.1,6-2.7,7.8c-1.4,1.5-2.7,2.1-5.5,2.5c-0.5-2.9-1.4-3.7-4.8-4.5v9.1V66z M603.5,48.1c3.9,0.3,4.7,0.4,5.3,0.4
		c1.4,0,2.1-0.3,2.6-1.1c0.7-1,1.1-3.2,1.1-5.4c0-2.9-0.9-6.7-2.1-9.1c-0.7-1.4-1.5-2.5-4.1-5.8c2.3-5.7,4.2-11.9,5.6-18.5h-8.4
		C603.5,8.7,603.5,48.1,603.5,48.1z M640,54.9h12.5c2.1-2.1,2.7-2.7,4.8-4.6c2.7,2.2,3.5,2.9,6.2,5.4c0.1,0.1,0.3,0.4,0.3,0.5
		c0,0.2-0.3,0.4-1,0.4H640v1.5c0,0.8,0,1.6,0.1,9.5c-0.2,1-0.5,1.1-3.9,1.1c-0.7,0-1-0.2-1.1-0.9c0-1.5,0-2.8,0-3.6
		c0.1-2.6,0.1-4.3,0.1-4.8v-2.9h-15.1c-3.4,0-4,0-6.8,0.3l-0.3-2.6c2.2,0.4,4.7,0.7,7.1,0.7h15V47h-10v2.2c-0.1,0.5-0.2,0.7-0.5,0.9
		c-0.3,0.1-2.3,0.3-3.2,0.3c-0.6,0-0.9-0.3-0.9-0.7c0-0.1,0-0.2,0-0.3c0.2-7.3,0.3-8.9,0.3-11.1c0-5.8-0.1-8.3-0.3-10.7
		c2.3,0.9,3,1.2,5.3,2.5h23.8c1.2-1.2,1.5-1.6,2.7-2.8c2,1.2,2.6,1.5,4.4,2.8c0.6,0.4,0.8,0.6,0.8,0.9c0,0.5-0.4,0.8-2.5,2.1V40
		c0,2,0,3.5,0.1,8c0,0.1,0,0.2,0,0.2c0,1-0.8,1.2-3.7,1.2c-0.7,0-0.9-0.1-0.9-0.7V47h-10.8v7.9H640z M650.4,10.4
		c1.5-1.9,2-2.5,3.5-4.4c2.7,2.1,3.5,2.7,6,4.9c0.1,0.2,0.3,0.5,0.3,0.7c0,0.3-0.4,0.5-0.9,0.5H646c1.6,0.7,2.1,0.8,2.8,1.1
		c1.2,0.5,2.1,0.9,2.3,1c0.9,0.3,1.2,0.6,1.2,1c0,0.7-0.4,0.8-2.6,0.9c-0.7,0.7-1.3,1.4-1.8,1.8c-2.7,2.9-3.7,3.9-4.9,4.8h9.7
		c1.7-2,2.3-2.6,4-4.5c2.7,2.1,3.6,2.8,6.2,5c0.2,0.2,0.4,0.4,0.4,0.5c0,0.2-0.5,0.7-0.9,0.7H621c-3.8,0-3.8,0-6,0.4l-0.4-2.7
		c2,0.5,3.6,0.7,6.4,0.7h8.1c-0.4-0.5-0.6-0.8-0.8-1.8c-0.7-3.6-1.7-6.1-3.2-8.4l0.7-0.5c-2.1,0-3.1,0.1-6.3,0.4l-0.4-2.6
		c2.8,0.4,4.6,0.6,6.4,0.6h9.6V8c0-2.3-0.1-3.2-0.2-5.6c7.4,0.9,8,1,8,1.8c0,0.6-0.9,1-3,1.4v4.8H650.4z M650.8,31.9h-25.4v5.6h25.4
		V31.9z M625.4,39.2v6.2h25.4v-6.2H625.4z M626.3,12.1c4.9,3.8,5.9,4.9,5.9,6.7c0,1.8-0.5,2.9-1.7,4h11.2c1.9-3.7,3.4-7.5,4.2-10.6
		L626.3,12.1L626.3,12.1z"/>
</g>
</svg>
