<?xml version="1.0" encoding="utf-8"?>
<!-- Generator: Adobe Illustrator 18.0.0, SVG Export Plug-In . SVG Version: 6.00 Build 0)  -->
<!DOCTYPE svg PUBLIC "-//W3C//DTD SVG 1.1//EN" "http://www.w3.org/Graphics/SVG/1.1/DTD/svg11.dtd">
<svg version="1.1" id="圖層_1" xmlns="http://www.w3.org/2000/svg" xmlns:xlink="http://www.w3.org/1999/xlink" x="0px" y="0px"
	 viewBox="-38 0 148 72" enable-background="new -38 0 148 72" xml:space="preserve">
<g>
	<path d="M-0.3,16.2C2.7,9.4,3.8,6.5,4.5,3c11.1,2.8,11.7,3.1,11.7,4.1c0,0.8-0.9,1.2-2.6,1.2c-0.1,0-0.5,0-0.8,0
		c-4.7,4-6,5-10.1,7.9h12.6c2.4-2.7,3.1-3.6,5.5-6.2c3.7,2.7,4.8,3.4,8.3,6.3c0.4,0.4,0.5,0.6,0.5,0.9s-0.4,0.5-0.9,0.5H1
		c-3.6,4.4-5.2,6.1-8.7,9.4H9.4c1.7-2,2.3-2.6,4.2-4.5c2.8,1.9,3.7,2.5,6.2,4.5c0.7,0.6,0.9,0.9,0.9,1.3c0,0.7-0.6,1.2-2.4,2V42
		c0,12.5,0.1,16.7,0.4,24.8c-0.1,1.8-1.3,2.3-5.9,2.3c-2.1,0-2.4-0.2-2.5-1.6v-3h-28.5v2.7c-0.1,0.7-0.2,1-0.5,1.3
		c-0.6,0.4-2.5,0.8-4.7,0.8c-2.6,0-3.1-0.4-3.1-1.9c0.3-9.8,0.4-15.7,0.4-26.8c0-8-0.1-12-0.4-18c4.1,1.9,5.3,2.4,9,4.5h6.4
		c1.4-6.8,1.5-7.5,1.7-9.4h-19.2c-3.1,0-4.8,0.1-6.9,0.5l-0.5-2.7c2.4,0.5,4.9,0.7,7.5,0.7h13.2c-0.9-0.6-0.9-0.6-2.2-4.2
		c-1.2-3.3-2.5-5.3-5.2-8l0.4-0.7c5.2,1.4,7.4,2.2,9.3,3.2c2.4,1.4,3.5,2.9,3.5,4.6c0,2.1-1.1,3.9-3.1,5.1H-0.3z M10.2,38v-9.5
		h-28.4V38H10.2z M-18.2,39.5V50h28.4V39.5H-18.2z M-18.2,51.5v11.3h28.4V51.5H-18.2z"/>
	<path d="M41.5,69c5.5-2.3,9.3-4.3,13.6-7.3c3.2-2.2,4.7-3.6,7-6.2c2.2,0.9,4,1.4,5,1.9c4.4,1.5,5.5,2.1,5.5,2.7
		c0,0.7-0.9,1.1-2.7,1.1c-0.3,0-0.8,0-1.4,0c-5.3,2.8-8,4-12.4,5.5c-4.8,1.7-8.1,2.4-14.4,3.3L41.5,69z M80.3,9.7
		c-6,6.5-6,6.6-9.3,9.6h16.7c1.8-1.9,2.4-2.5,4.2-4.3c2.7,1.8,3.5,2.3,6,4.2c0.6,0.4,0.9,0.8,0.9,1.2c0,0.7-0.6,1.3-2.5,2.4
		c0,18,0.1,23,0.4,31.4c0,1.8-1,2.2-5.7,2.2c-2.2,0-2.6-0.2-2.7-1.4v-1.4h-27v1c-0.1,0.6-0.1,0.9-0.4,1.2c-0.5,0.4-2.6,0.6-5.3,0.6
		c-2,0-2.4-0.3-2.4-1.7c0.3-8,0.4-12,0.4-19.6c0-12.4-0.1-15.9-0.4-20.1c4.1,1.7,5.3,2.2,9,4.3h5.9c0.9-4.3,1.1-5.6,1.2-9.6H48.7
		c-2,0-3.4,0.1-5.3,0.4l-0.5-2.6c1.8,0.4,3.7,0.6,5.8,0.6h44.8C96,5.4,96.7,4.6,99.2,2c3.8,2.7,4.9,3.6,8.4,6.5
		c0.3,0.4,0.4,0.5,0.4,0.7c0,0.3-0.3,0.4-0.8,0.4L80.3,9.7L80.3,9.7z M88.2,20.8h-27v8.6h27V20.8z M61.2,31v9.3h27V31H61.2z
		 M61.2,41.7V52h27V41.7H61.2z M79.3,56.7c10.3,1.2,11.4,1.3,13.9,1.8c5.7,1,7.8,1.9,8.8,3.7c0.5,0.9,0.8,2.2,0.8,3.4
		c0,2.5-1.1,4.3-2.5,4.3c-0.8,0-1.4-0.3-2.7-1.3c-6-4.7-11-7.7-18.6-11.1L79.3,56.7z"/>
</g>
</svg>
