<?xml version="1.0" encoding="utf-8"?>
<!-- Generator: Adobe Illustrator 18.0.0, SVG Export Plug-In . SVG Version: 6.00 Build 0)  -->
<!DOCTYPE svg PUBLIC "-//W3C//DTD SVG 1.1//EN" "http://www.w3.org/Graphics/SVG/1.1/DTD/svg11.dtd" [
	<!ENTITY ns_flows "http://ns.adobe.com/Flows/1.0/">
	<!ENTITY ns_extend "http://ns.adobe.com/Extensibility/1.0/">
	<!ENTITY ns_ai "http://ns.adobe.com/AdobeIllustrator/10.0/">
	<!ENTITY ns_graphs "http://ns.adobe.com/Graphs/1.0/">
]>
<svg version="1.1" id="圖層_1" xmlns:x="&ns_extend;" xmlns:i="&ns_ai;" xmlns:graph="&ns_graphs;"
	 xmlns="http://www.w3.org/2000/svg" xmlns:xlink="http://www.w3.org/1999/xlink" xmlns:a="http://ns.adobe.com/AdobeSVGViewerExtensions/3.0/"
	 x="0px" y="0px" viewBox="103.5 222 312 72" style="enable-background:new 103.5 222 312 72;" xml:space="preserve">
<g>
	<path d="M106.5,241.8c4.2,1.1,7,2,9.4,3.2c2.7,1.4,3.9,2.8,3.9,4.9c0,3-2.5,6-5,6c-1.3,0-1.8-0.6-2.8-3.3
		c-1.5-4.2-3.1-6.7-6.1-10.2L106.5,241.8z M106.8,268.5c2.5,0.6,3.9,0.9,4.7,0.9c1.3,0,1.7-0.4,4-4.7c3.1-5.5,6.3-11.9,12.5-25.5
		l0.9,0.3l-9.4,29.5c-0.8,2.5-0.9,3.1-0.9,3.8s0,0.7,0.9,3.4c0.9,2.5,1.4,4.8,1.4,6.7c0,4.2-3.3,7.8-7,7.8c-1.7,0-2.7-0.9-2.7-2.2
		c0-0.3,0.1-1.6,0.4-2.8c0.8-4.9,1-6.7,1-8.5c0-4.9-0.8-5.9-5.8-7.9L106.8,268.5z M111.1,226.1c10.7,2.3,14,4.3,14,8.1
		c0,2.7-2.5,5.7-4.7,5.7c-1.1,0-1.5-0.5-2.8-3.4c-1.5-3.5-3.3-6-6.7-9.7L111.1,226.1z M143.6,235.7c-6.3,0.7-9.4,0.9-16.4,1.1
		l-0.1-0.9c7.9-1.6,13.8-3.3,20.1-5.6c6.6-2.5,9.7-4,12.8-6.3c7.3,4.9,9,6.3,9,7c0,0.4-0.4,0.8-1.1,0.8c-0.9,0-2-0.2-3.2-0.6
		c-6,1.8-8.4,2.5-13.2,3.3V249h9.1c1.9-2.3,3.7-4.4,5.5-6.5c3.6,2.8,4.7,3.8,8.2,6.7c0.3,0.4,0.4,0.5,0.4,0.7c0,0.3-0.3,0.4-0.9,0.4
		h-22.2v14.5h7.3c1.9-2.1,2.5-2.8,4.4-4.7c2.8,1.8,3.6,2.4,6.1,4.4c0.7,0.6,0.9,0.9,0.9,1.3c0,0.7-0.5,1.2-2.8,2.5
		c0,1.7,0,3.1,0,4.1c0,4.7,0,6,0.4,16.5c0,0.7-0.1,1.2-0.7,1.4c-0.7,0.5-2.5,0.7-5.2,0.7c-2.3,0-2.6-0.1-2.6-1.5v-3.6h-22.7v3.3
		c0,0.7-0.1,1-0.4,1.3c-0.5,0.4-2.6,0.7-5.5,0.7c-2,0-2.6-0.4-2.6-1.5c0-0.1,0-0.1,0-0.3c0.4-7.9,0.4-9.7,0.4-13.8
		c0-7.6-0.1-11.7-0.4-15.3c4.1,1.9,5.3,2.5,9,4.5h6.4v-14.5h-12.9c-1.6,0-2.4,0.1-3.8,0.4l-0.5-2.3c1.4,0.3,2.7,0.4,4.4,0.4h12.9
		V235.7z M136.6,284.6h22.8v-18.1h-22.8V284.6z"/>
	<path d="M215.5,239.8c1.8-2.1,2.4-2.8,4.3-4.8c3.1,2.2,3.9,2.9,6.7,5.1c0.3,0.3,0.4,0.5,0.4,0.7c0,0.3-0.4,0.5-1,0.5h-16.4v5.3h5.5
		c1.5-1.6,1.9-2,3.3-3.6c2.4,1.5,3.1,1.9,5.2,3.5c0.8,0.5,1.1,0.9,1.1,1.2c0,0.7-0.5,1.1-2.2,2.1c-0.1,4.4-0.1,6.6-0.1,8.4
		c0,2.8,0.1,4.7,0.2,8.8c0,0.1,0,0.2,0,0.2c0,0.2,0,0.3,0,0.3c0,1.2-1.4,1.7-5.3,1.7c-1.3,0-1.7-0.3-1.7-1.2v-1.1h-6v6.7h5
		c1.3-1.4,2.6-2.7,3.8-3.9c2.6,1.9,3.4,2.5,6,4.5c0.1,0.1,0.2,0.4,0.2,0.5c0,0.2-0.3,0.4-0.7,0.4h-14.3v5.2
		c5.5-0.4,7.3-0.5,12.2-1.1l0.1,0.8c-5.4,2-7.9,2.9-15.1,4.9c-7.8,2.1-10.5,2.8-15.1,3.9c-0.4,2.1-0.7,2.8-1.3,2.8
		c-0.4,0-0.7-0.4-1-1.1c-0.6-1.2-1.7-5.2-2.6-8.7c4.2-0.1,4.2-0.1,16-0.8v-5.8h-10.8c-1.3,0-2.2,0.1-3.9,0.4l-0.4-2.3
		c1.3,0.2,3.3,0.4,4.6,0.4h10.5V267h-5.7v1.4c-0.1,0.8-0.3,1.1-1.2,1.4c-0.6,0.1-2.4,0.3-3.9,0.3c-1.9,0-2.3-0.3-2.3-1.5
		c0.4-8.8,0.4-8.8,0.4-13.1c0-5.8-0.1-9.1-0.4-12.3c3.3,1.5,4.4,2,7.6,3.6h5.5v-5.3h-11c-0.9,0-1.8,0.1-4.7,0.3l-0.6-2.3
		c2.3,0.3,4.4,0.5,5.2,0.5h10.8v-5.4c-6.5,0.7-9.9,0.9-15.3,0.9l-0.1-0.8c7.9-1.6,11.7-2.5,17.2-4.4c6.1-2,9-3.4,11.9-5.3
		c3.1,1.8,3.1,1.8,7.6,5.1c0.7,0.4,0.9,0.7,0.9,1c0,0.4-0.5,0.7-1.1,0.7c-0.5,0-1.3-0.1-3.2-0.4c-4.4,1.2-8.4,2-10.8,2.4v6.2h6.1
		C215.5,240,215.5,239.8,215.5,239.8z M202.4,248.2h-5.7v7.5h5.7V248.2z M202.4,257.2h-5.7v8.2h5.7V257.2z M215.4,248.2h-6v7.5h6
		V248.2z M215.4,257.2h-6v8.2h6V257.2z M243.5,244.1c1.6-1.8,2-2.3,3.7-4.1c2.6,1.7,3.4,2.3,5.7,4.1c0.7,0.6,0.9,0.9,0.9,1.3
		c0,0.5-0.5,1-2.4,2.1c-0.1,14.3-1.2,28-2.7,33.9c-0.9,4.1-2.2,6-4.7,7.2c-1.8,0.9-5,1.7-7,1.7c-0.5,0-0.7-0.1-0.7-0.7
		c-0.1-2-0.3-2.8-0.8-3.8c-0.8-1.5-2.7-2.6-6.7-3.6v-0.9c5.5,0.4,8.7,0.5,9.6,0.5c2.2,0,2.5-0.7,3.4-5c1.2-6.3,2-18.7,2.1-31.2H238
		c-0.9,16.1-3.1,24.9-8.1,32.1c-4.1,5.8-9.1,9.6-18.8,14l-0.5-0.6c8.8-6.6,12.2-10.2,15-16.9c3.1-6.9,4.4-14.7,5-28.6h-2.5
		c-1.8,0-2.5,0.1-4.2,0.4l-0.5-2.4c1.7,0.3,3.6,0.5,4.9,0.5h2.4c0.1-3.6,0.1-5.5,0.1-8.4c0-4.4-0.1-6.7-0.3-9.9c9.1,0.7,11,0.9,11,2
		c0,0.7-0.8,1.3-3,2.2c-0.1,7.8-0.2,9.7-0.4,14L243.5,244.1L243.5,244.1z"/>
	<path d="M292,242.9c0.1-0.4,0.1-0.4,0.1-0.9c0.1-2.3,0.1-4.6,0.1-6.7c0-3.7-0.1-5.9-0.4-10.2c9,0.9,9.9,1,9.9,1.9
		c0,0.5-0.2,0.7-2.6,1.5l-0.4,14.5h3c1.2-1.6,1.7-2.2,3.1-3.9c2.3,1.7,2.9,2.3,4.9,4c0.7,0.4,0.9,0.8,0.9,1.2c0,0.5,0,0.5-2,1.6
		c-0.1,4.6-0.1,4.6-0.3,9.4c0.1,0,0.1,0,0.6,0h11.4c2.1-7,3.5-13.4,3.6-16.4c7.3,2.6,8.2,3,8.2,3.7c0,0.7-0.4,0.9-2.2,1.1
		c-2.8,5.2-4.6,7.9-7.5,11.7h3.1c1.4-1.9,1.8-2.5,3.3-4.3c2.5,2,3.3,2.7,5.6,4.7c0.1,0.2,0.3,0.5,0.3,0.6c0,0.3-0.3,0.5-0.7,0.5
		h-10.8v11.6h2c1.5-2,1.9-2.6,3.4-4.4c2.5,2.1,3.3,2.8,5.7,4.9c0.1,0.2,0.3,0.5,0.3,0.6c0,0.3-0.3,0.5-0.7,0.5H323v4.9
		c0,2.6,0,2.8,0.1,8.4c0.1,3.1,0.1,3.1,0.1,5.9c0,1.6-0.7,1.8-6.3,1.8c-1.2,0-1.5-0.2-1.5-1.4c0.1-2.9,0.1-2.9,0.2-7.3
		c0.1-4.5,0.1-5.2,0.1-7.3v-4.9h-2.5c-2.3,0-2.9,0.1-4.6,0.4l-0.5-2.5c2.1,0.5,2.9,0.6,5.1,0.6h2.8v-11.7h-7.9
		c-0.1,0.7-0.1,0.7-0.1,1.4c-0.2,9.7-0.9,19.3-1.9,23.9c-0.9,4.8-3,7-7.3,7.8c-0.7,0.1-1.5,0.2-1.9,0.2c-0.7,0-0.8-0.1-1.1-1.6
		c-0.4-2.3-0.9-3.5-1.9-4.1c-0.9-0.7-0.9-0.7-4.2-2v-0.8c4.1,0.5,5.5,0.7,7.6,0.7c1.6,0,2-0.7,2.7-5.1c0.7-4.3,0.9-10.8,1.5-32.7
		h-3.3c-0.1,5.8-0.2,6.6-0.6,10.5c-1.4,12.6-3.6,19.6-8.7,26.6c-3.2,4.6-5.2,6.6-9.3,9.4l-0.5-0.6c5.3-7,7.9-12.6,9.9-21.4
		c1.4-5.9,2-11.4,2.4-19.3c0.1-2.1,0.1-3.9,0.2-5.2h-1.3c-1.5,0-1.9,0.1-3.1,0.3l-0.3-1.3c-0.3,0-0.4,0.1-0.8,0.1
		c-2.6,4.9-4.6,7.9-7.5,11.9h2.8c1.3-1.9,1.7-2.5,3.2-4.2c2.4,2,3.1,2.6,5.4,4.7c0.1,0.2,0.3,0.4,0.3,0.5c0,0.3-0.3,0.5-0.7,0.5
		h-9.7c0,1.2,0,1.2,0,2.6c0,2.5-0.1,4.3-0.1,5.8c3.8-0.5,5.2-0.8,9-1.5l0.2,0.6c-3.9,2.3-4.5,2.6-9.6,4.7c-0.7,4-1.5,6.7-2.8,9.6
		c-2.5,5.5-5.3,8.8-11.1,13.2l-0.6-0.6c4.8-6.6,6.6-11.4,7.6-19.6c-0.4,0.1-0.4,0.1-0.8,0.3c-0.7,0.3-1.4,0.5-2.6,0.9
		c-0.4,2.1-0.7,2.5-1.2,2.5c-0.7,0-1-0.8-3.1-8.8c0.7,0.1,1.2,0.1,1.5,0.1c1.5,0,2.2-0.1,6.7-0.5c0.1-2.5,0.1-3.1,0.1-4.1v-5.1h-3.9
		c-2.2,0-2.8,0.1-4.4,0.4l-0.5-2.4c2,0.4,2.8,0.5,5,0.5h7.3c2-6.2,3.7-13.1,3.9-16.4c7,2.6,7.8,3,7.8,3.6c0,0.1,0,0.1-0.1,0.3
		c0.8,0.1,1.3,0.1,2.2,0.1h1.5v-0.3H292z M273.6,229c0-1.7-0.1-2.6-0.3-4.3c9,0.9,9.7,1,9.7,2c0,0.7-0.5,0.9-2.7,1.5v7.9h1.3
		c1.2-1.7,1.7-2.3,3.1-4c2.3,1.9,2.9,2.5,5.1,4.4c0.1,0.2,0.3,0.5,0.3,0.6c0,0.3-0.3,0.5-0.7,0.5H270c-2.1,0-2.8,0.1-4.3,0.3
		l-0.5-2.3c2,0.4,2.8,0.5,4.8,0.5h3.5L273.6,229L273.6,229z M268.3,238.9c5.2,3.6,7.6,6.7,7.6,9.9c0,2.3-2.3,5.1-4.1,5.1
		c-0.7,0-1.3-0.4-1.6-0.9c-0.3-0.5-0.3-0.5-0.5-4.7c-0.1-3.7-0.7-6.1-2.2-9.1L268.3,238.9z M316,229c0-1.7-0.1-2.6-0.3-4.3
		c9.3,0.8,10,1,10,2c0,0.7-0.4,0.9-2.8,1.6v7.9h1.7c1.5-1.8,1.9-2.4,3.5-4.2c2.5,2,3.3,2.6,5.8,4.6c0.1,0.2,0.3,0.5,0.3,0.6
		c0,0.3-0.3,0.5-0.7,0.5h-21.7c-2.3,0-2.9,0.1-4.6,0.4l-0.5-2.5c2,0.5,2.9,0.6,5.1,0.6h4v-7.2C315.8,229,316,229,316,229z
		 M310.9,239.4c5,3.4,7.3,6.5,7.3,9.4c0,2.1-2.3,4.9-4.2,4.9c-0.7,0-1.2-0.4-1.6-0.9c-0.3-0.4-0.3-0.4-0.5-4.4
		c-0.1-4-0.6-5.8-1.8-8.7L310.9,239.4z"/>
	<path d="M345.3,241.8c9.4,2.4,13.1,4.7,13.1,8.2c0,2.8-2.5,5.9-4.8,5.9c-1.2,0-1.5-0.4-2.7-3.6c-1.6-4.3-2.8-6.3-5.9-9.7
		L345.3,241.8z M345.5,267.9c4.6,0.9,4.6,0.9,5.4,0.9c1,0,1.7-0.6,2.5-2.3c1-1.9,4.4-8.5,7-14.1c2.8-5.8,4.4-9.3,6.7-15.3l0.9,0.3
		l-9.7,30.9c-0.7,2.3-1,3.6-1,4.6c0,0.7,0.2,1.5,0.7,2.8c1.2,3.4,1.6,4.7,1.6,6.5c0,4.5-3.3,8.2-7.5,8.2c-1.5,0-2.3-0.8-2.3-2
		c0-0.7,0.1-1.5,0.3-2.4c0.6-3.3,1.1-7.6,1.1-9.9c0-2-0.5-3.6-1.5-4.7c-0.8-0.9-1.8-1.4-4.4-2.3L345.5,267.9z M350.2,226.1
		c10.2,2.4,13.7,4.4,13.7,8.2c0,2.8-2.4,5.8-4.5,5.8c-1.2,0-1.7-0.5-2.3-2.1c-2.1-5.2-3.5-7.3-7.2-11.3L350.2,226.1z M398.6,256.9
		c2-2.3,3.9-4.4,5.8-6.5c3.6,2.8,4.7,3.6,8.2,6.7c0.3,0.4,0.4,0.6,0.4,0.7c0,0.3-0.4,0.5-0.8,0.5h-24c-1.2,2.5-4.4,8.5-6.3,11.6
		c-1.7,2.8-3.3,5.1-6.1,9c9.3-0.4,16-0.9,22.7-1.7c-2.5-5.2-4.4-8.1-7.8-12.2l0.7-0.7c7.3,4.2,10.5,6.6,14,10
		c3.1,3.3,4.4,5.3,4.4,7.5c0,3.6-2.7,7.6-5.1,7.6c-1.1,0-1.7-0.9-2.6-3.6c-0.7-2.2-1.3-3.8-2.4-6.3c-7.6,2.3-7.8,2.3-31.2,7.8
		c-0.3,2.3-0.7,3.2-1.5,3.2c-0.9,0-1.2-1.3-3.8-11.9c3,0.1,4.2,0.1,6,0.1c0.7,0,1.5,0,3.3,0c2.3-6,5.1-15.6,6-20.6h-10
		c-1.7,0-3,0.1-4.6,0.4l-0.5-2.6c2,0.5,3.3,0.7,5.1,0.7h12.6v-15H373c-1.7,0-2.5,0.1-4,0.4l-0.4-2.5c1.9,0.4,2.8,0.6,4.5,0.6h8.1
		v-6.3c0-3.4-0.1-5.2-0.6-8.8c9.3,0.9,9.7,0.9,10.5,1.2c0.7,0.2,0.9,0.5,0.9,0.9c0,0.7-0.4,0.9-3.1,2v11h7.9
		c2.3-2.8,3.1-3.6,5.4-6.2c3.6,2.8,4.7,3.6,8.1,6.6c0.3,0.4,0.4,0.5,0.4,0.7s-0.3,0.4-0.7,0.4h-21v15h9.6L398.6,256.9L398.6,256.9z"
		/>
</g>
</svg>
