<?xml version="1.0" encoding="utf-8"?>
<!-- Generator: Adobe Illustrator 18.0.0, SVG Export Plug-In . SVG Version: 6.00 Build 0)  -->
<!DOCTYPE svg PUBLIC "-//W3C//DTD SVG 1.1//EN" "http://www.w3.org/Graphics/SVG/1.1/DTD/svg11.dtd" [
	<!ENTITY ns_flows "http://ns.adobe.com/Flows/1.0/">
	<!ENTITY ns_extend "http://ns.adobe.com/Extensibility/1.0/">
	<!ENTITY ns_ai "http://ns.adobe.com/AdobeIllustrator/10.0/">
	<!ENTITY ns_graphs "http://ns.adobe.com/Graphs/1.0/">
]>
<svg version="1.1" id="圖層_1" xmlns:x="&ns_extend;" xmlns:i="&ns_ai;" xmlns:graph="&ns_graphs;"
	 xmlns="http://www.w3.org/2000/svg" xmlns:xlink="http://www.w3.org/1999/xlink" xmlns:a="http://ns.adobe.com/AdobeSVGViewerExtensions/3.0/"
	 x="0px" y="0px" viewBox="102 222 312 72" style="enable-background:new 102 222 312 72;" xml:space="preserve">
<g>
	<path d="M122.4,272.8c0,3.9,0.1,12.2,0.2,17.1c-0.1,0.5-0.2,0.8-0.4,1c-0.5,0.4-2.5,0.6-4.3,0.6c-2.1,0-2.5-0.2-2.7-1.4
		c0.2-6.5,0.4-14.6,0.4-16.9v-4.5c-0.5,0.1-0.6,0.1-1.2,0.1c-2.4,8.1-4.7,12.9-9.3,19.2l-0.6-0.3c2.2-7.1,3.5-13.8,4-22.8
		c4,0.9,5.3,1.2,7.2,1.7v-6.7c-3.5,1-4.3,1.2-6.8,1.8c-0.4,1.4-0.9,2.4-1.4,2.4c-0.8,0-1.2-1.3-2.3-8.6c1.5,0.1,2.2,0.1,3.3,0.1
		c0.9,0,1.4,0,3.3-0.1c2.4-3.5,4-6.1,6.4-10.3c3.8-6.7,5.1-9.4,5.8-11.9c1.9,0.7,3.4,1.2,4.2,1.7c1.5,0.6,2.5,1.1,2.7,1.1
		c1.7,0.6,2.4,1.1,2.4,1.7s-0.6,0.9-3,1.1c-4.5,5.1-11.8,12.8-16,16.5c5.3-0.3,7.1-0.4,10.5-0.9c-0.7-2.3-1.1-3.4-2.2-5.8l0.5-0.4
		c6.1,4,8.6,6.7,8.6,9.2c0,2.7-2.2,5.5-4.2,5.5c-0.8,0-1.2-0.7-1.2-2.4c-0.1-1.2-0.2-2.1-0.7-4c-1.4,0.6-1.4,0.6-3.1,1.2
		L122.4,272.8L122.4,272.8z M105.7,234.9c3.1,1.2,4,1.6,5.5,2.4c1.7-4,3.3-9,3.7-12.2c8.9,2.6,10.3,3.2,10.3,4
		c0,0.6-0.9,1.1-2.1,1.1c-0.4,0-0.6,0-1.1-0.1c-2.2,2.3-7,7-8.6,8.3c3,2,3.8,3.1,3.8,5c0,2.7-2.3,5.3-4.6,5.3
		c-0.8,0-1.2-0.7-1.7-2.5c-0.8-3.5-2.9-7.4-5.8-10.9L105.7,234.9z M123.3,263.8c5.3,4,8.2,7.6,8.2,10.4s-2.5,6.3-4.5,6.3
		c-1,0-1.6-0.8-1.6-2.2l0.1-0.9c0-1.1-0.1-3.5-0.4-5.3c-0.3-3.2-0.8-4.8-2.3-7.7L123.3,263.8z M158.3,268.9c2.2-2.4,2.7-2.9,4.8-4.8
		c-0.8-0.6-1.1-1.2-1.6-2.7c-1.7-5.8-3.5-8.8-8.7-14l0.4-0.5c0.9,0.4,1.2,0.4,2,0.8c0.2-0.6,0.3-0.8,1-2.2c1.7-3.3,4-9.5,4.4-12.2
		c7.5,2.5,9.9,3.5,9.9,4.3c0,0.2-0.2,0.6-0.4,0.7c-0.4,0.3-0.9,0.3-2.9,0.4c-3.3,3.9-5,5.6-9.9,9.9c2.5,1.3,5.3,3,7.5,4.5
		c2.5,1.9,3.6,3.5,3.6,5.3c0,2.5-1.4,4.8-3.7,5.6c2.6,2,3.4,2.7,6.3,5.2c0.2,0.2,0.4,0.4,0.4,0.6c0,0.3-0.4,0.5-0.9,0.5h-17.7v17
		h7.2c2.5-2.9,3.2-3.7,5.5-6.3c3.5,2.9,4.5,3.8,7.8,6.9c0.2,0.2,0.3,0.4,0.3,0.6s-0.3,0.4-0.6,0.4h-41c-1.3,0-2.2,0.1-3.7,0.4
		l-0.5-2.5c1.7,0.4,2.5,0.6,4.3,0.6h13.2v-17H136c-1.4,0-2.2,0.1-3.7,0.3l-0.4-2.3c1.6,0.4,2.5,0.5,4.2,0.5h22.3V268.9z
		 M129.8,247.3c1.1,0.6,1.3,0.7,2.1,1.2c2.4-7.6,3.6-12.2,4-15.5c9.4,2.7,9.4,2.7,9.4,3.6s-0.7,1.2-2.9,1.3c-2.7,4.3-4.8,7-8.8,11.7
		c5.8,4,9,7.3,9,9.7c0,2.9-2.5,6.5-4.5,6.5c-0.9,0-1.5-0.9-1.9-2.9c-0.8-4.8-2.9-9.2-7.1-15.1L129.8,247.3z M158.8,229.5
		c3.1-3.2,3.1-3.2,5.3-5.5c3.5,2.5,4.5,3.3,7.7,6c0.2,0.4,0.4,0.5,0.4,0.6c0,0.2-0.3,0.4-0.6,0.4h-38c-1.4,0-2.2,0.1-3.7,0.4
		l-0.5-2.4c1.7,0.4,2.5,0.6,4.2,0.6L158.8,229.5L158.8,229.5z M143.6,248.1c1.6-4,1.7-4.3,3.2-9.3c1.2-4,1.2-4,1.4-5.6
		c8.2,2.2,9.3,2.7,9.3,3.7c0,0.8-0.6,1.1-2.8,1.4c-3.3,4.2-5.5,6.9-9.2,10.7c3.1,1.8,5.8,3.9,7.7,5.8c1,1.1,1.6,2.4,1.6,3.7
		c0,1.7-0.9,3.8-2.2,5.1c-0.7,0.8-1.4,1.2-2.2,1.2c-1.2,0-1.7-0.8-2.1-2.9c-0.4-2.5-1.9-6.3-3.7-9.9c-0.9-1.6-1.6-2.6-3.3-4.7
		l0.4-0.4L143.6,248.1z"/>
	<path d="M244.4,271c1.4-2.1,1.9-2.7,3.5-4.8c2.2,2.3,2.8,2.9,4.8,5.3c0.2,0.3,0.4,0.5,0.4,0.6c0,0.3-0.3,0.4-0.9,0.4h-62.6
		c-1.8,0-3.4,0.1-5.1,0.4l-0.4-2.4c2.2,0.4,3.5,0.6,5.4,0.6h2.2V242c0-1.7-0.1-2.4-0.2-8.4c3.8,1.7,5,2.3,8.7,4.4h6.3v-6.6
		c0-1.8-0.1-3-0.4-5.6c8.1,0.7,8.6,0.8,9.5,1.1c0.6,0.2,0.9,0.6,0.9,0.9c0,0.7-0.6,1-2.7,1.7v8.6h7.3v-5.8c0-2.4-0.1-3.6-0.4-6.3
		c8.1,0.8,8.7,0.8,9.6,1.1c0.6,0.2,0.9,0.5,0.9,0.9c0,0.7-0.7,1.1-2.7,1.7v8.5h7c1.4-1.4,2.7-2.9,4.2-4.4c2.7,1.9,3.5,2.6,5.8,4.5
		c0.7,0.6,1,1,1,1.4c0,0.6-0.7,1.2-2.7,2.2V271L244.4,271L244.4,271z M184.3,291.1c9.4-5.8,15.2-10.9,19.2-17.2
		c9.7,3.4,10.3,3.7,10.3,4.5s-0.8,1.1-3.2,1.1h-0.3c-8.9,6.6-14,9.1-25.6,12.5L184.3,291.1z M206.5,239.4h-7.2v13.8h7.2V239.4z
		 M206.5,254.8h-7.2V271h7.2V254.8z M221.2,239.4h-7.3v13.8h7.3V239.4z M221.2,254.8h-7.3V271h7.3V254.8z M221.8,274.7
		c10.2,1.9,16.8,3.8,20.1,5.8c2.4,1.4,3.4,3,3.4,5.5c0,3.1-1.5,5.9-3.2,5.9c-0.8,0-1.5-0.5-2.7-2c-4.8-5.8-10.3-10.2-17.9-14.4
		L221.8,274.7z M236.2,239.4h-7.6v13.8h7.6V239.4z M236.2,254.8h-7.6V271h7.6V254.8z"/>
	<path d="M263.5,242.1c9.7,2.7,12.2,4.4,12.2,8.1c0,3-2.2,5.8-4.5,5.8c-0.9,0-1.4-0.5-2.1-2.5c-1.9-5.3-3-7.1-6.1-10.7L263.5,242.1z
		 M264,268.1c3.2,0.9,3.9,1,4.6,1c0.9,0,1.4-0.6,3.2-4.4c2.3-4.8,7.3-16.3,10.9-25.2l0.8,0.3l-7.9,28.5c-0.4,1.7-0.8,3.5-0.8,4.2
		c0,0.8,0.2,1.6,0.7,3c1.4,3.7,1.7,5.2,1.7,7.2c0,4-3.2,7.3-7,7.3c-1.4,0-2.4-0.9-2.4-2.2c0-0.7,0.1-1.7,0.3-2.7
		c0.5-2.9,0.9-6.9,0.9-9.1c0-4.2-0.6-5-5.3-7.3L264,268.1z M267.8,226.1c9.4,2.2,13.1,4.6,13.1,8.1c0,2.9-2.3,5.8-4.5,5.8
		c-0.7,0-1.2-0.3-1.5-0.9c-0.2-0.4-0.4-0.9-1.4-3.2c-1.7-4.2-2.5-5.5-6-9.3L267.8,226.1z M313.6,242.5h5.3c1.7-1.9,2.2-2.4,3.9-4.2
		c2.7,1.9,3.5,2.4,5.9,4.5c0.6,0.5,0.8,0.9,0.8,1.2c0,0.6-0.4,1-2.4,2.3c0,25.4,0,29.6,0.4,42.7c0,1.7-0.9,2-5,2
		c-2.4,0-2.8-0.2-2.8-1.6v-3.8h-27.9v3.4c0,1.7-0.9,2.1-5,2.1c-2.5,0-2.9-0.2-2.9-1.7c0.4-12.4,0.5-18.2,0.5-42.4
		c0-3.6-0.1-5.4-0.2-8.9c3.7,1.9,4.8,2.5,8.1,4.6h4.7c0-1.7,0-7.7,0-9.1c0-0.4,0-0.9,0-1.9h-9.8c-1.9,0-3.2,0.1-4.6,0.4l-0.5-2.7
		c1.8,0.4,3.3,0.6,5.1,0.6h30.1c2.3-2.7,3-3.5,5.3-5.9c3.5,2.6,4.5,3.4,7.9,6.3c0.1,0.2,0.3,0.4,0.3,0.6c0,0.3-0.4,0.5-0.9,0.5
		h-16.4L313.6,242.5L313.6,242.5z M319.7,265c-1.7,0.1-3.5,0.2-6.3,0.2c-5.3,0-6.1-0.5-6.1-3.7c0-3.6,0-3.6,0-7.9V244h-4
		c-0.1,4.9-0.4,7.4-1,10.3c-1.2,6.1-4,10.4-9.9,15.2l-0.5-0.5c4-7.2,5-12.1,5-25h-5.2v28.6h27.9L319.7,265L319.7,265z M319.7,274.1
		h-27.9v9.8h27.9V274.1z M303.4,231.5c0,1.2,0,2.4,0,3.6c0,3.1,0,4.6-0.1,7.4h4v-11H303.4z M313.6,244v14.2c0,1.2,0.1,1.4,1.4,1.4
		c0.7,0,3.2-0.1,4.7-0.1V244L313.6,244L313.6,244z"/>
	<path d="M364.9,271.5c0,4.5,0,4.5,0.1,10c0,0.3,0,0.6,0,0.8c0,0.7-0.1,1.5-0.1,2.7c-0.2,3-1.2,4.3-4.2,5.3
		c-1.4,0.4-3.4,0.8-4.6,0.8c-0.6,0-0.9-0.2-0.9-1c-0.1-1.2-0.3-2.3-0.6-3.1c-0.8-1.7-1.8-2.2-6.3-3.5l0.1-0.9c4.8,0.4,5,0.4,8.1,0.5
		c0.9-0.1,1.2-0.3,1.2-1.2v-11.4c-0.6,0.3-0.7,0.4-1.2,0.4c-0.1,0-0.2,0.1-0.3,0.1c-0.3,0-0.8,0.1-1.4,0.2
		c-3.9,7.3-7.2,11.8-12.1,16.2l-0.6-0.4c1.5-2.8,2.4-5.3,3.6-9c1.4-4.8,2.1-8.3,2.3-11.3c8.9,2.5,8.9,2.5,9.7,3.1v-6h-7.9
		c-1.3,0-2.4,0.1-5.3,0.3l-0.4-2.3c1.6,0.3,4,0.5,5.7,0.5h19.1c1.9-2.2,2.5-2.9,4.3-4.9c2.9,2.2,3.7,3,6.6,5.3
		c0.3,0.2,0.4,0.5,0.4,0.6c0,0.2-0.2,0.4-0.4,0.4H365L364.9,271.5C365.1,271.5,364.9,271.5,364.9,271.5z M369.2,235.5
		c1.7-2.2,2.2-2.9,4.1-5c2.9,2.2,3.7,3,6.3,5.3c0.2,0.2,0.4,0.5,0.4,0.6c0,0.3-0.4,0.6-0.7,0.6h-14.5v8.4h3.2c1.7-2,2.2-2.6,3.9-4.6
		c2.6,2.1,3.4,2.7,5.8,5c0.1,0.2,0.3,0.4,0.3,0.5c0,0.3-0.4,0.7-0.6,0.7h-25.5c-1.2,0-2.4,0.1-5,0.3l-0.5-2.3
		c1.9,0.3,4.4,0.5,5.8,0.5h5.3V237h-7.3c-1.6,0-2.9,0.1-5.4,0.3l-0.6-2.3c1.7,0.4,4.4,0.6,5.9,0.6h7.3v-0.9c0-3.2-0.1-5.8-0.5-8.4
		c2.2,0.2,3.8,0.4,4.9,0.5c4.2,0.4,5.8,0.9,5.8,1.7c0,0.6-0.6,0.9-2.7,1.7v5.3C364.9,235.5,369.2,235.5,369.2,235.5z M347.9,253.2
		c1.8,0.2,4,0.4,5.5,0.4h11.2c1.7-2,2.3-2.7,4.1-4.8c2.7,2.2,3.6,2.9,6.3,5.1c0.1,0.2,0.3,0.5,0.3,0.6c0,0.3-0.4,0.6-0.6,0.6h-21.2
		c-1.1,0-1.7,0.1-5,0.4L347.9,253.2z M366.3,268.1c7.3,2.5,10.4,4.8,10.4,7.6c0,2.6-2.2,5.8-4.1,5.8c-0.5,0-1-0.4-1.4-0.9
		c-0.3-0.5-0.3-0.5-1.2-3.7c-1.1-4-1.9-5.6-4.2-8.1L366.3,268.1z M366.3,290.9c8.4-5.4,13.1-11,16.1-18.8c1.9-5.2,3.1-12.5,3.1-20
		c0-1.4-0.1-2.7-0.1-5.1c8.7,0.9,8.7,0.9,9.4,1.1c0.6,0.1,1,0.4,1,0.8c0,0.6-0.4,0.9-2.6,1.7c0,0.7,0,1.2,0,1.6
		c0,7.1,2.4,14.5,6.3,19.7c3.4,4.5,6.7,7,12.1,9.2l-0.2,0.8c-1.9,0.9-3.2,2.2-4.5,4.6c-0.4,0.9-0.9,1.9-1.2,3
		c-0.1,0.4-0.3,0.7-0.6,0.7c-0.7,0-3.6-3.2-5.5-6c-4.1-6.2-6.3-14.2-7.3-26.2c-1.4,10.9-3,15.7-7.2,21.1c-4.2,5.5-10,9.3-18.5,12.3
		L366.3,290.9z M399.9,240.9c1.9-2.2,1.9-2.2,4-4.5c3,2.3,4,3,6.8,5.5c0.5,0.5,0.8,0.9,0.8,1.2c0,0.6-0.9,1-3,1.2
		c-1.4,1.6-1.4,1.6-5,5.8c-1.9,2.2-3.2,3.7-6.1,6.4l-0.6-0.4c1.9-4.6,2.7-7.4,4-13.7H387c-3.2,6.1-5.8,9.7-10.7,14.9l-0.7-0.4
		c2.5-5,4.3-10.2,6.1-17.3c1.4-5.3,1.9-8.9,2.1-13.5c2.2,0.4,4,0.9,5.1,1.1c4.8,0.9,6.4,1.5,6.4,2.3c0,0.6-1,1.1-3.2,1.5
		c-2.9,6.8-3.3,7.6-4.3,9.8L399.9,240.9L399.9,240.9z"/>
</g>
</svg>
