<?xml version="1.0" encoding="utf-8"?>
<!-- Generator: Adobe Illustrator 18.0.0, SVG Export Plug-In . SVG Version: 6.00 Build 0)  -->
<!DOCTYPE svg PUBLIC "-//W3C//DTD SVG 1.1//EN" "http://www.w3.org/Graphics/SVG/1.1/DTD/svg11.dtd" [
	<!ENTITY ns_flows "http://ns.adobe.com/Flows/1.0/">
	<!ENTITY ns_extend "http://ns.adobe.com/Extensibility/1.0/">
	<!ENTITY ns_ai "http://ns.adobe.com/AdobeIllustrator/10.0/">
	<!ENTITY ns_graphs "http://ns.adobe.com/Graphs/1.0/">
]>
<svg version="1.1" id="圖層_1" xmlns:x="&ns_extend;" xmlns:i="&ns_ai;" xmlns:graph="&ns_graphs;"
	 xmlns="http://www.w3.org/2000/svg" xmlns:xlink="http://www.w3.org/1999/xlink" xmlns:a="http://ns.adobe.com/AdobeSVGViewerExtensions/3.0/"
	 x="0px" y="0px" viewBox="102 222 312 72" style="enable-background:new 102 222 312 72;" xml:space="preserve">
<g>
	<path d="M111.1,244.8c0.7,0.1,1.2,0.1,1.4,0.1h9.7c1.6-1.9,2-2.5,3.5-4.1c2.5,1.9,3.3,2.5,5.7,4.6c0.2,0.2,0.4,0.4,0.4,0.7
		s-0.4,0.4-0.8,0.4h-8.4v9.1h1.6c1.6-2.1,2-2.7,3.6-4.6c2.6,2,3.3,2.8,5.6,5c0.2,0.2,0.4,0.5,0.4,0.7c0,0.3-0.4,0.4-0.8,0.4h-10.6
		v21c5.4-0.9,6.8-1.2,10.7-2.2l0.1,0.7c-7,4.1-11,5.9-23.9,10.9c-0.1,2.3-0.6,3.3-1.4,3.3c-1,0-1.7-1.5-4-10.5
		c3.6-0.1,5.2-0.3,11.3-1.2v-22h-7c-1.7,0-2.5,0.1-3.7,0.4l-0.6-2.4c1.8,0.4,2.6,0.5,4.4,0.5h7v-9.1h-3.1c-1.2,0-1.8,0.1-2.9,0.3
		l-0.3-1.1c-2.3,2-3.2,2.8-6.1,4.7l-0.5-0.6c4.1-5.4,7.1-10.4,9.8-16.3c1.6-3.6,2.2-5.5,2.9-8.6c9.6,2,10.4,2.2,10.4,3.1
		c0,0.7-0.7,1.1-3,1.4l-0.2,0.4c3.7,1.1,4.7,1.5,6.7,2.6c2.8,1.5,3.8,2.6,3.8,4.5c0,2.4-1.8,4.8-3.6,4.8c-0.7,0-1.2-0.7-2-2.7
		c-1.7-4.1-2.8-5.7-5.6-8c-3.5,5.8-5.7,8.5-11.6,13.8C110.3,244.8,111.1,244.8,111.1,244.8z M106.3,260.6c3.2,2.5,4,3.1,5.4,4.8
		c1.7,2,2.5,3.5,2.5,5.4c0,3-2.5,6.2-4.8,6.2c-0.8,0-1.2-0.6-1.5-1.7c-0.1-0.7-0.1-0.7-0.1-3.3c-0.1-3.8-0.7-7.3-2-11L106.3,260.6z
		 M124.1,275.7c1.7-6.2,2.7-11.2,2.7-15.6c7.5,2.5,8.4,2.9,8.4,3.7c0,0.7-0.5,0.9-2.2,1.2c-2.7,4.4-5.5,8.3-8.3,11.1L124.1,275.7z
		 M143.1,275.7c0,2.7,0,6.8,0.1,14c-0.1,0.8-0.3,1.1-1,1.3c-0.7,0.3-2.6,0.5-4.1,0.5c-1.9,0-2.5-0.3-2.6-1.4
		c0.1-6.7,0.2-19.4,0.2-22.6c0-0.4-0.1-9.3-0.2-20.4c-2.7,2.5-3.1,2.9-5.2,4.6l-0.7-0.4c4.8-7.6,8-15.3,8.8-21.6
		c3,0.8,3,0.8,7.8,2.3c1.2,0.4,1.4,0.5,1.7,1.1v-1.5c0-3-0.1-4.3-0.4-6.9c2.1,0.2,3.7,0.4,4.8,0.4c4.3,0.4,6,0.8,6,1.7
		c0,0.6-0.6,0.9-2.8,1.9v18.5h4.5c1.5-1.5,2-1.9,3.5-3.2c2.2,1.7,2.5,1.9,4.5,3.5c-0.5-0.7-0.6-0.9-1-1.9c-2.2-5.4-5.3-9.9-9.4-13.6
		l0.4-0.8c5.8,2.1,9.6,3.8,11.9,5.5c2.4,1.7,3.3,3,3.3,5.1c0,3-2,6.2-3.8,6.2c-0.1,0-0.6-0.1-0.9-0.2l0.6,0.5
		c0.6,0.5,0.7,0.8,0.7,1.2c0,0.6-0.3,0.9-1.9,1.9v14.1c0,3.1,0.1,12.8,0.1,17.4c0,2.7-0.2,3.7-0.9,4.9c-0.7,1.1-1.5,1.7-3.3,2.3
		c-1.6,0.6-3.3,0.9-4.6,0.9c-0.7,0-0.9-0.2-0.9-1.5c-0.1-1.4-0.6-2.6-1.2-3.3c-0.7-0.7-2.3-1.6-4.2-2.2c-0.5-0.1-0.5-0.1-4.4-1.3
		l0.1-0.9c7,0.4,7,0.4,10.7,0.6c1.1-0.1,1.4-0.3,1.4-1v-10.8h-17.5C143.2,270.5,143.2,275.7,143.1,275.7z M148,233.4
		c-0.4,0.8-0.9,0.9-3.2,1.1c-2.1,4.4-3.3,6.2-6.7,9.9c1.5,0.7,2.6,1.2,5.3,2.6h4.6V233.4z M160.4,258v-9.4h-17.3v9.4H160.4z
		 M143.1,259.5v9.4h17.3v-9.4H143.1z"/>
	<path d="M232.6,243.9c2.1-2.4,2.7-3,4.8-5.3c3.3,2.3,4.2,3,7.3,5.6c0.2,0.3,0.4,0.5,0.4,0.7c0,0.3-0.4,0.6-0.9,0.6h-20.5v7.4h8.7
		c2-2.4,2.7-3,4.9-5.2c3,2.4,4,3.2,7,5.7c0.2,0.2,0.4,0.5,0.4,0.6c0,0.3-0.3,0.5-0.7,0.5h-20.2v8.3h12.7c2.2-2.6,2.8-3.4,5.2-5.8
		c3.6,2.5,4.6,3.4,7.9,6.3c0.2,0.2,0.3,0.4,0.3,0.5c0,0.3-0.3,0.5-0.7,0.5h-47v1.2c0,0.5-0.1,0.8-0.4,0.9c-0.5,0.3-2.1,0.4-4.1,0.4
		c-3,0-3.4-0.2-3.5-1.6c0.1-3.2,0.2-4.5,0.4-11.8c0-2.3,0-2.3,0.1-8.1c0-0.9,0-1.6,0-2.2c-3.3,3-5.2,4.4-10,7.5l-0.6-0.7
		c4.6-5.1,7.5-9.1,10.9-14.9c2.6-4.5,3.6-6.8,4.8-10.7c9.2,2,11.2,2.6,11.2,3.6c0,0.8-1.2,1.3-3.8,1.5c-2.1,2.9-2.7,3.7-4.4,5.7
		h13.4c2.1-4.7,2.7-6.4,3.6-10.5c2,0.4,3.5,0.7,4.4,0.9c5.6,1.1,7,1.6,7,2.5c0,0.8-1.3,1.3-3.8,1.4c-2.2,1.8-2.2,1.8-6.3,4.7
		c-0.4,0.2-0.4,0.2-1.4,0.9h15.7c2.1-2.6,2.8-3.3,4.9-5.8c3.6,2.5,4.6,3.4,7.9,6.2c0.2,0.2,0.4,0.4,0.4,0.7s-0.4,0.5-0.7,0.5h-23.9
		v7.3L232.6,243.9L232.6,243.9z M233.1,270.8c1.8-2,2.3-2.5,4.1-4.4c2.6,1.8,3.3,2.4,5.8,4.3c0.7,0.4,0.9,0.7,0.9,1.1
		c0,0.5-0.4,0.8-2.5,2c-0.1,2.4-0.1,4.3-0.1,5.4c0,2.1,0,3.5,0.2,10.3c0,0.1,0,0.2,0,0.3c0,0.5-0.1,0.9-0.6,1.1
		c-0.7,0.3-3.4,0.6-6.2,0.6c-1,0-1.3-0.2-1.4-0.9v-3.8h-32.5v3.6c-0.1,0.5-0.1,0.7-0.4,0.9c-0.6,0.4-2.4,0.7-4.4,0.7
		c-0.6-0.1-1.2-0.1-1.4-0.1c-0.1,0-0.1,0-0.2,0c-1.3,0-1.7-0.3-1.7-1.3c0-2,0-2,0.2-8.7c0.1-1.1,0.1-3.6,0.1-6.7c0-3.9,0-5-0.1-8.3
		c3.8,1.5,5,2,8.7,3.9C201.7,270.8,233.1,270.8,233.1,270.8z M201.1,285.2h32.3v-12.9h-32.3V285.2z M215.8,243.9v-7.2h-14v7.2H215.8
		z M215.8,252.9v-7.5h-14v7.5H215.8z M201.7,262.7h14v-8.4h-14V262.7z"/>
	<path d="M263,254.5c1.5,0.4,3.6,0.7,4.9,0.7h3.8c1.7-2,2.2-2.6,3.9-4.6c2.9,2,3.8,2.6,6.3,4.8c0.4,0.4,0.6,0.7,0.6,0.9
		c0,0.6-0.7,1.2-2.4,2.1v17.3c1.2,2.8,2.6,4.2,5.6,5.3c3.6,1.5,6.8,1.9,12.9,1.9c9.4,0,18.1-0.4,33.5-1.6v0.7c-3,1.5-4.1,3-4.7,6.8
		c-0.1,0.7-0.4,0.9-1.1,1c-1.5,0.1-9.1,0.3-15,0.3c-9.9,0-11.9-0.1-15.2-0.4c-5.4-0.6-8.6-1.8-11.9-4.7c-2.8-2.5-4.2-4.7-5.6-9
		c-4,5.4-4,5.4-9.6,12.2c0.1,0.4,0.1,1,0.1,1.9c0,0.7-0.4,1.4-0.9,1.4c-0.7,0-1.3-1.1-5.8-10.2c6.5-2.6,7-2.9,9.9-4.8v-19.8H268
		c-1.2,0.1-2.2,0.1-2.8,0.1c-0.8,0.1-0.8,0.1-1.5,0.3L263,254.5z M265.9,226.1c10,4.2,14.7,8.1,14.7,11.8c0,3.3-2.8,6.6-5.5,6.6
		c-1.2,0-1.4-0.3-2.2-2.9c-2.2-7-4.4-11.2-7.6-14.9L265.9,226.1z M309.7,267.2c0,1.5,0,1.5,0.1,9.9c-0.1,1-0.4,1.4-1.2,1.5
		c-0.6,0.1-3.2,0.4-4.4,0.4c-1.4,0-1.9-0.4-2-1.5c0.1-2.4,0.3-9,0.3-10.4v-4h-8.8v8c0,1.4,0,2,0.1,6.2c0,0.9-0.2,1.2-0.7,1.5
		c-0.7,0.4-2.6,0.6-4.6,0.6c-1.8,0-2.3-0.2-2.4-1.2c0.1-3.3,0.3-13.6,0.3-23.1c0-5.4-0.1-12.1-0.4-17c3.6,1.7,4.7,2.2,8.2,4.1h11
		c-2.5-3.3-2.8-3.7-4.4-5.1c-1.8-1.7-3.5-2.8-6.4-4.4l0.4-0.7c7.5,1.2,12.3,2.5,14.7,4.4c3.4-4.1,3.8-4.6,5.2-6.7h-23.6
		c-1.7,0-4.4,0.2-6.2,0.5l-0.7-2.8c2.1,0.4,4.7,0.7,7,0.7h23.7c1.7-1.7,2.3-2.2,4.3-4.1c3.3,2.5,4.4,3.3,7.8,5.9
		c0.5,0.5,0.7,0.8,0.7,1.2c0,0.2-0.1,0.5-0.4,0.6c-0.4,0.2-1.2,0.4-2,0.5c-0.6,0-1.3,0.1-2.3,0.3c-5.4,2.8-8.9,4.6-11.9,5.9
		c0.2,0.7,0.3,1.1,0.3,1.5c0,0.9-0.3,1.5-0.9,2.2h7.9c1.9-1.9,1.9-1.9,4.1-4.1c2.5,1.8,3.3,2.3,5.8,4.2c0.3,0.4,0.4,0.7,0.4,0.9
		c0,0.7,0,0.7-2.4,2.2v22.4c0,0.4,0,1.4,0.1,2.9c0,0.5,0,1.5,0,2.5c-0.1,2.2-0.7,3.2-2,4.2c-1.4,1-3.1,1.5-6,1.7
		c-0.9,0.1-0.9,0.1-1,0.1c-0.7,0-0.7-0.1-0.8-1.2c-0.2-2.5-0.7-3.6-2-4.4c-0.8-0.6-0.9-0.7-3.6-1.6l0.1-0.7c4.5,0.3,4.5,0.3,6.6,0.4
		c0.9,0,1.1-0.2,1.1-1v-7.3h-9.3v3.9C309.4,267.2,309.7,267.2,309.7,267.2z M293.8,243.4v8.3h8.8v-8.3H293.8z M302.6,253.2h-8.8v8.4
		h8.8V253.2z M309.7,251.7h9.3v-8.3h-9.3V251.7z M319,261.6v-8.3h-9.3v8.3H319z"/>
	<path d="M364.3,277.9c4.9-1,6-1.2,10-2.2l0.1,0.9c-7.7,4.3-13.8,7.1-26.3,11.9c-0.1,2.2-0.5,3.1-1.2,3.1c-0.9,0-1.5-1.5-3.7-10.4
		c1.7-0.1,2.3-0.1,3.6-0.2v-18.2c0-2.1-0.1-3.6-0.4-6.5c2,0.2,3.6,0.4,4.5,0.5c3.9,0.4,5.1,0.8,5.1,1.6c0,0.5-0.6,0.9-2.3,1.5v20
		l3.6-0.7v-30.5h-3.5v2.1c0,1.2-0.9,1.5-4.6,1.5c-2.5,0-2.8-0.1-2.8-1.4c0.1-4.7,0.2-11.4,0.2-18.7c0-2-0.1-3.6-0.3-6.7
		c3.6,1.7,4.6,2.2,8,4.1h8.6c1.5-1.8,2-2.3,3.6-4.1c2.5,1.7,3.2,2.2,5.6,4c0.7,0.6,0.9,0.9,0.9,1.2c0,0.7-0.5,1.2-2.4,2.2
		c0,2.2,0,4.1,0,5.2c0,2.8,0,4.1,0.1,11.2c0,1.6-0.8,2-4.7,2c-0.5,0-0.9,0-1.7-0.1v9.7h1.7c1.5-2.1,2-2.7,3.5-4.6
		c2.3,2.2,3,2.8,5.2,5.1c0.1,0.2,0.3,0.4,0.3,0.7s-0.4,0.4-0.8,0.4h-9.8v15.3L364.3,277.9L364.3,277.9z M353.7,247.1h9.7v-16h-9.7
		C353.7,231.1,353.7,247.1,353.7,247.1z M396.7,233.5c2-1.9,2.5-2.4,4.4-4.2c2.8,2.2,3.7,2.8,6.3,5c0.7,0.6,0.9,0.9,0.9,1.2
		c0,0.7-0.7,1.1-3.2,1.8c-3.9,6.8-5.9,9.7-9.7,13.9c5.2,3,9,4.1,17.9,5.2v0.7c-2.1,1.5-3.4,3.7-3.9,6.5c-0.1,0.9-0.4,1.2-0.8,1.2
		c-0.4,0-1.4-0.4-4.1-1.5c-4.7-2-8.8-4.7-12.6-8.5c-3.6,3.3-7.6,6.3-11.9,8.8c2,1,2.4,1.2,4.8,2.5h12.5c1.5-1.5,1.5-1.5,3.6-3.6
		c2.4,1.6,3.2,2.1,5.6,3.8c0.8,0.5,1.1,0.9,1.1,1.2c0,0.6-0.4,1-2.1,2c0.1,10.7,0.1,10.9,0.1,12.8c0.1,4.4,0.1,4.4,0.2,6.5
		c0,0.1,0,0.2,0,0.3c0,1.4-1.1,1.7-5.1,1.7c-2.5,0-2.8-0.1-2.8-1.4V287h-13.8v2.8c0,1.6-0.9,1.9-5.1,1.9c-2.4,0-2.8-0.1-2.8-1.4
		c0.2-7.3,0.3-10.4,0.3-15.2v-9.4c-2.5,1.2-4.1,1.9-8.3,3.4l-0.4-0.8c8.8-5.8,14.5-10.9,20.2-17.9c-2.2-3.1-3.3-5.2-5-9.6
		c-3.3,4.6-5.8,7.2-11.5,11.7l-0.7-0.5c4.1-6.2,6-10,8.1-16.7c1.6-4.9,2.3-7.4,2.8-10.9c9.9,2.2,11.3,2.6,11.3,3.5
		c0,0.7-1,1.1-3.3,1.5c-1.1,2.1-1.4,2.8-2.1,4.2C387.5,233.5,396.7,233.5,396.7,233.5z M386.6,235c-0.9,1.7-1.4,2.5-2.7,4.4
		c2.2,4.1,3.4,5.5,6.2,8.1c3-4.3,4.4-6.8,6.8-12.5H386.6z M384,285.4h13.8v-17.7H384V285.4z"/>
</g>
</svg>
