<?xml version="1.0" encoding="utf-8"?>
<!-- Generator: Adobe Illustrator 18.0.0, SVG Export Plug-In . SVG Version: 6.00 Build 0)  -->
<!DOCTYPE svg PUBLIC "-//W3C//DTD SVG 1.1//EN" "http://www.w3.org/Graphics/SVG/1.1/DTD/svg11.dtd">
<svg version="1.1" id="圖層_1" xmlns="http://www.w3.org/2000/svg" xmlns:xlink="http://www.w3.org/1999/xlink" x="0px" y="0px"
	 viewBox="-222 0 516 72" enable-background="new -222 0 516 72" xml:space="preserve">
<g>
	<path d="M-219.7,60.5c3.4-0.1,4.4-0.2,5.5-0.9c1.7-0.9,2.2-2.8,2.2-7.5V18.3c-0.1-3.7-0.1-3.7-0.2-4.4c-0.3-1.6-1.2-2-5-2h-2v-2
		c7-0.6,12.3-1.3,17.1-2.2c-0.4,5.2-0.7,11.4-0.7,18.5v25.9c0,4.5,0.4,6.3,1.8,7.3c1,0.8,1.9,0.9,5.6,1v2.1h-24.3V60.5z"/>
	<path d="M-158,43.3c-9.7,0-16.4-6.9-16.4-17c0-11.2,7.5-18.7,18.9-18.7c6.4,0,11.5,2.5,14.6,7.2c3.2,4.8,4.6,10.6,4.6,19
		c0,19.5-7.2,29.9-20.7,29.9c-8.9,0-15.6-4-15.6-9.3c0-2.9,2-4.5,5.3-4.5c1.8,0,3.4,0.5,4,1.4c0.4,0.7,0.4,0.8,0.7,4
		c0.3,4.3,2.3,6.7,5.9,6.7c4.4,0,7.5-3.4,9.1-9.7c1-3.9,1.5-9.2,1.5-13.9C-150,41.9-153.3,43.3-158,43.3z M-147.5,35.7
		c1-1.8,1.5-4,1.5-7.4c0-4.9-0.9-9.7-2.3-13.3c-1.5-3.4-4.3-5.6-7.4-5.6c-5.6,0-8.9,6.2-8.9,16.6c0,5.1,1,8.8,2.9,11.4
		c1.6,2.2,3.8,3.4,6.2,3.4C-152.5,40.9-149.3,38.9-147.5,35.7z"/>
	<path d="M-100.1,28c9.8,0,16.4,6.8,16.4,16.9c0,11.2-7.5,18.7-18.8,18.7c-12.5,0-19.2-9.2-19.2-26.2c0-9.9,2.1-18,5.8-22.9
		c3.5-4.7,8.4-7,14.9-7c8.9,0,15.5,4,15.5,9.2c0,2.6-2,4.3-5.3,4.3c-1.8,0-3.4-0.5-4-1.4c-0.4-0.6-0.4-0.8-0.7-3.8
		c-0.2-4.2-2.3-6.4-5.8-6.4c-4.5,0-7.6,3.4-9.2,9.7c-1,4-1.5,9.2-1.5,13.9C-108.1,29.3-104.9,28-100.1,28z M-110.6,35.5
		c-1,1.8-1.5,4-1.5,7.3c0,5,0.8,9.7,2.3,13.3c1.5,3.4,4.3,5.6,7.4,5.6c5.6,0,8.9-6.2,8.9-16.6c0-9.1-3.4-14.7-9.1-14.7
		C-105.7,30.4-108.8,32.3-110.6,35.5z"/>
	<path d="M-49.2,34.4c11.1,0.9,16.9,5.7,16.9,14.1c0,9.4-7.3,15.1-19.1,15.1c-10.4,0-18-4.8-18-11.4c0-2.8,2.1-4.4,5.5-4.4
		c1.8,0,3.2,0.5,3.7,1.4c0.4,0.6,0.4,0.7,0.6,4.1c0.1,2.1,1,4.5,2,5.9c1.2,1.5,3.5,2.5,6,2.5c6.1,0,9.5-4.9,9.5-13.4
		c0-5.1-1.4-8.7-4-10.6c-1.9-1.4-5.6-2.3-9.5-2.3h-2.2v-2.3h2.1c8.3-0.1,12.6-4.4,12.6-12.7c0-7.1-2.7-10.9-7.9-10.9
		c-2.7,0-4.7,1-5.8,3.1c-0.9,1.6-1.4,3.7-1.5,5.9c-0.1,2.4-0.2,2.9-0.9,3.7c-0.7,0.7-2.1,1.1-3.8,1.1c-3.4,0-5.1-1.2-5.1-3.6
		c0-6.8,7.5-12.1,17.3-12.1c5.2,0,10,1.5,13,4c2.5,2.1,4,5.5,4,9c0,7.2-5.6,11.9-15.4,13.2C-49.2,33.8-49.2,34.4-49.2,34.4z"/>
	<path d="M27.1,59.5c0,1.8,0.4,1.9,5,1.9c5.1,0,7-0.2,7.8-1c1-0.9,2.5-4.7,5.5-14.2l0.6,0.1l-0.2,11.9c0,0.7,0.1,1.3,0.1,1.7
		c0.1,0.4,0.1,0.4,1.8,0.9c1.2,0.4,2,1.5,2,2.8c0,1.4-0.8,2.7-2.1,3.4c-2.1,1.1-5.6,1.4-15.5,1.4c-8.1,0-10.3-0.3-11.7-1.8
		c-0.6-0.7-1-1.5-1.1-2.8c-0.1-0.8-0.1-1.5-0.1-5.7V38.3h-8.6c-0.4,19.3-7.5,27.3-27.8,31.4l-0.3-0.7c8.3-4.1,12.8-7.5,15.7-12.1
		c2.9-4.5,3.9-8.9,4.3-18.6H-8.9c-1.8,0-3.9,0.2-5.7,0.6l-0.7-2.7c2.3,0.4,4.1,0.6,6.5,0.6h44c2.3-2.6,3.1-3.4,5.5-5.9
		c3.6,2.6,4.8,3.5,8.6,6.6c0.2,0.2,0.4,0.4,0.4,0.5s-0.2,0.4-0.4,0.4H27.4v21.1L27.1,59.5L27.1,59.5z M11.2,13.1V8.9
		c0-2.2-0.1-3.5-0.4-6.4c2.5,0.3,4.4,0.5,5.6,0.7C22.1,3.8,23,4,23,4.9c0,0.7-0.1,0.8-3.2,2.1v6.2H37l4.2-4.7c3.9,2.7,5,3.6,8.5,6.4
		c0.7,0.4,0.9,0.8,0.9,1.2c0,1-1.3,1.3-5.1,1.5c-4,2.5-6.2,3.8-9.1,5.3c1.2,0.9,1.7,1.3,3.2,2.6c0.2,0.2,0.4,0.4,0.4,0.6
		s-0.2,0.4-0.5,0.4H0.9c-0.8,0-3.5,0.3-4.5,0.5l-0.7-2.6c2.4,0.4,4,0.6,5.2,0.6h25.7c2-2.4,2.6-3.1,4.8-5.6c1.8,1.3,2.5,1.8,3.9,2.8
		c1.4-3.5,1.5-4,2.3-7.3H-5.9c0,0.4,0,0.8,0,1c0,6.5-3.1,11.6-7,11.6c-1.3,0-2.3-0.6-3-1.9c-0.6-1-1-2.3-1-3.5
		c0-0.8,0.2-1.6,0.6-2.1c0.4-0.5,0.5-0.6,2.4-1.8c3.7-2.1,5.2-4.6,6-10h0.7c0.8,2.4,1,3.2,1.2,5.3h17.2
		C11.2,13.5,11.2,13.1,11.2,13.1z"/>
	<path d="M85.3,29c2.1,0.4,3.7,0.7,5.6,1.2c4.7,1.2,6.3,2.3,6.3,4.1c0,2.6-1.3,4.8-2.9,4.8c-0.5,0-1-0.4-1.6-1.2
		c-2.6-3.7-4.3-5.6-7.4-7.8c0,4,0,4,0.2,10.3c0,0.7-0.1,1-0.4,1.2c-0.5,0.4-2.2,0.6-4.1,0.6c-2,0-2.3-0.2-2.3-1.3
		c0.1-1.8,0.1-5.1,0.1-6.4v-1.9c-5,5-8.9,7.4-16.4,10.2L62,42.2c7.5-5.3,10.9-8.8,15.4-15.6h-4.3v1C73,28.7,72.2,29,68.7,29
		c-1.7,0-2.1-0.2-2.1-1.2c0.1-4.3,0.2-6.1,0.2-9.8c0-2.3,0-3.4-0.2-5.9c3.1,1.4,4,1.8,7,3.5h5.1v-5.1H68.6c-1.5,0-3.6,0.2-4.8,0.4
		l-0.4-2.6c1.7,0.4,3.4,0.6,5.3,0.6h10.1V8.4c0-2.6-0.1-4-0.3-6.4c8.6,0.6,9.6,0.9,9.6,1.7c0,0.7-0.7,1-2.9,1.7v3.5H91
		c1.6-2.1,2.1-2.6,3.7-4.5c2.9,2.1,3.8,2.8,6.5,5.1c0.3,0.2,0.4,0.4,0.4,0.5c0,0.3-0.3,0.4-0.8,0.4H85.2v5.1h4.9
		c1.3-1.5,1.7-2,3.1-3.5c2.3,1.5,2.9,2,5.1,3.6c0.5,0.4,0.7,0.7,0.7,1c0,0.5-0.4,0.8-2.1,1.6c0,1,0,1.8,0,2.2c0,0.7,0,1,0.1,6.7
		c0,0.7-0.1,0.9-0.4,1.2c-0.5,0.4-2.1,0.6-4.2,0.6c-1.4,0-1.7-0.2-1.7-1.3v-1.1h-5.4C85.3,26.5,85.3,29,85.3,29z M93.7,65.7V46.1
		H73.4c-2.3,0-3,0.1-5.3,0.4l-0.4-2.6c2.3,0.5,3.5,0.7,6.1,0.7h39.3c2.1-2.3,2.1-2.3,4.6-5.1c3.4,2.3,4.5,3.1,7.8,5.6
		c0.3,0.3,0.4,0.5,0.4,0.7s-0.3,0.4-0.7,0.4h-23.7v8.2h9.2c2.1-2.3,2.7-3.1,4.8-5.2c3.2,2.4,4.2,3.1,7.3,5.7
		c0.3,0.3,0.4,0.4,0.4,0.7s-0.3,0.4-0.9,0.4h-20.7v9.8h15.6c2.3-2.6,3.1-3.4,5.4-5.9c3.6,2.7,4.7,3.6,8.4,6.4
		c0.2,0.3,0.4,0.5,0.4,0.7c0,0.3-0.3,0.4-0.8,0.4H70.1c-2.8,0-4.2,0.1-6.2,0.5l-0.5-2.8c2.3,0.6,3.9,0.7,6.7,0.7h6.7v-9.1
		c0-3.2-0.1-4.3-0.4-6.7c2.3,0.2,4,0.4,5.2,0.5c4.4,0.3,5.6,0.7,5.6,1.5c0,0.6-0.5,0.9-2.7,1.7v12.1h9.2
		C93.7,65.8,93.7,65.7,93.7,65.7z M78.8,17.1h-5.6v7.8h5.6V17.1z M90.7,24.9v-7.8h-5.4v7.8C85.3,24.9,90.7,24.9,90.7,24.9z
		 M124.1,14.4c-1.6,5.9-3.9,10.6-7.5,15c4.2,2.2,7.6,3.1,14.7,4.1v0.7c-2.1,1.1-2.9,2-4.1,4.3c-0.3,0.6-0.7,1.5-0.8,1.9
		c-0.2,0.5-0.4,0.7-0.8,0.7s-1.4-0.4-3.1-1.3c-3.6-1.9-6.5-4-9.4-6.8c-4.8,4.2-9.5,6.5-18.4,9.3l-0.4-0.7
		c7.6-4.4,11.4-7.5,15.3-12.5c-2.1-2.9-3.4-5.6-4.8-9.7c-2.3,2.9-3.5,4.1-6.7,6.6l-0.5-0.4c2.9-5.2,4.5-9.2,6.1-14.6
		c1.2-3.8,1.6-6.2,1.9-8.9c8.7,1.6,10,2,10,2.9c0,0.7-0.7,1-3,1.3c-1.5,3.4-2.2,4.6-3.4,6.7h10.3c2.1-2.3,2.8-3,4.8-5.2
		c2.9,2.5,3.9,3.2,6.8,5.8c0.1,0.2,0.2,0.4,0.2,0.6c0,0.2-0.2,0.4-0.7,0.4h-6.5C124.1,14.6,124.1,14.4,124.1,14.4z M108.2,14.4
		c-1,1.5-1.8,2.7-2.7,4c1.9,3.4,3.4,5.2,6.2,7.7c2.6-4.5,4-7.7,4.7-11.7C116.4,14.4,108.2,14.4,108.2,14.4z"/>
	<path d="M143.3,66.9c3.1-3.3,5.1-6.2,7.2-10.3c1.1-2.2,1.7-3.8,2.3-6.4c2,0.7,3.5,1.2,4.5,1.5c3.2,1,4.3,1.6,4.3,2.3
		c0,0.5-0.8,0.9-2,0.9c-0.1,0-0.4,0-0.7,0c-4.4,5.8-8.4,9-15.3,12.5L143.3,66.9z M161.6,23.4h-5.2v2.1c-0.2,1.1-0.9,1.4-3.9,1.4
		c-0.4,0-1,0-1.8,0.1c-0.1,0-0.2,0-0.2,0c-1.2,0-1.8-0.4-1.8-1.5c0.2-3.7,0.2-4.8,0.2-10.8c0-7.3,0-8.6-0.4-12.4
		c3.9,1.8,5.1,2.3,9.1,4.1h15.2c1.6-1.8,2.1-2.4,3.8-4.3c2.9,2,3.7,2.6,6.3,4.5c0.4,0.4,0.6,0.7,0.6,1c0,0.5-0.7,1.1-2.6,2.3v5.6
		c0,4,0,5.1,0.2,8.4c0,0.7-0.1,0.9-0.4,1.3c3.9,3,4.1,3.2,7,5.4c0.3,0.2,0.4,0.4,0.4,0.6c0,0.3-0.2,0.5-0.4,0.5H150
		c-1.2,0-1.5,0-5.6,0.4l-0.5-2.5c3,0.4,4.8,0.6,6.5,0.6h11.2C161.6,30.2,161.6,23.4,161.6,23.4z M168.8,55.2c0.1,7.2,0.1,7.2,0.1,9
		c-0.2,2.9-1.2,4-4.5,4.9c-1.5,0.5-3.7,0.9-4.6,0.9c-0.7,0-0.8-0.2-0.8-1.1c-0.1-1.1-0.3-2.3-0.7-3.1c-0.7-1.5-1.8-2.2-5.4-2.9
		l0.1-0.8c2.8,0.2,3.9,0.3,8.1,0.4c0.6-0.1,0.7-0.2,0.7-0.9V47.2h-4.6v1.2c-0.1,0.6-0.2,0.8-0.7,1c-0.6,0.3-3.1,0.5-5.6,0.5
		c-0.9,0-1.2-0.2-1.2-1c0.1-1.8,0.1-2.9,0.1-3.7c0-7.3-0.1-9.6-0.3-12.6c3.7,1.5,4.8,2,8.5,3.7h14.4c1.5-1.7,1.9-2.2,3.4-3.8
		c2.8,1.7,3.7,2.1,6.2,3.8c0.4,0.4,0.5,0.6,0.5,0.9c0,0.7-0.4,1-2.1,2.1c0,0.8,0,3.8,0.1,8.9c0,1.9-0.3,2-6.4,2
		c-0.6,0-0.9-0.2-1-0.8v-2.1h-4.2v7.9H168.8z M173.7,8h-17.2v6.2h17.2V8z M156.4,15.7v6.2h17.2v-6.2H156.4z M157.1,45.7H173v-7.9
		h-15.8L157.1,45.7L157.1,45.7z M176.3,30.2c2.1-2.3,2.6-2.9,4.6-5c-1.5,0.6-2.8,0.7-5.5,0.7c-1.2,0-1.6-0.2-1.7-1v-1.5H169v6.7
		L176.3,30.2C176.3,30.1,176.3,30.2,176.3,30.2z M171,51.5c8.7,3.7,10.8,5.3,10.8,8.2c0,2.6-2.1,4.8-4.5,4.8c-1.2,0-1.6-0.5-1.9-1.9
		c-1-4.7-2.2-7.3-4.8-10.6L171,51.5z M175.4,69c8.5-5.1,13.8-9.5,19.2-15.6c4.1-4.7,7.1-9.1,8.7-12.9c4.5,2.1,8.1,4.1,9.2,5.1
		c0.4,0.4,0.7,0.7,0.7,1v0.1c-0.1,0.6-0.8,0.9-2,0.9c-0.4,0-1,0-1.5-0.1c-7,7.8-10.4,10.8-15.8,14.3s-10,5.5-18,8.1L175.4,69z
		 M181.9,44c5.7-4.1,9.3-7.3,13.4-12.3c3.3-4,5.4-7.3,6.8-10.3c9.2,4.5,10,5,10,5.8c0,0.6-0.7,1-1.8,1c-0.4,0-1.2-0.1-1.8-0.1
		c-7.5,6.8-8.9,8.1-12.9,10.6c-4,2.6-7.3,4.2-13.3,6.3L181.9,44z M183.3,23.7c4.9-4,8.6-7.9,12.5-13c2.3-3,3.2-4.5,4.2-7
		c4.2,1.9,5.9,2.9,9.3,4.8c0.7,0.4,1,0.8,1,1.2c0,0.6-0.7,0.9-1.8,0.9c-0.1,0-0.2,0-0.4,0l-1.5-0.1c-7.9,7-13.4,10.3-22.9,14
		L183.3,23.7z"/>
	<path d="M260.3,23.3V10.7c0-2.9-0.1-4.3-0.4-7.4c2.4,0.1,4.2,0.4,5.5,0.4c4.9,0.3,6.4,0.7,6.4,1.6c0,0.7-0.7,1.1-3.1,1.9v16h8.8
		c2.3-3,3.1-4,5.4-6.9c3.7,3.1,4.9,4,8.4,7.2c0.2,0.3,0.4,0.6,0.4,0.8s-0.4,0.4-0.8,0.4h-47.4c-0.1,8.4-0.1,8.4-0.9,13.6h20.7
		c1.8-2.2,2.4-2.9,4.3-5c2.9,2,3.7,2.6,6.4,4.8c0.7,0.6,1,1,1,1.3c0,0.7-0.5,1.1-2.7,2.3V51c0,6.9,0.1,11.1,0.2,16
		c0,0.8-0.1,1.2-0.4,1.5c-0.6,0.6-2.6,0.9-5.8,0.9c-2.5,0-2.9-0.2-2.9-2c0.2-6.2,0.2-8.3,0.3-27.4h-21.3c-0.9,5.9-1.9,9.4-3.7,13.3
		c-2.8,6.2-6.1,10.3-13.2,16.3l-0.6-0.7c4.4-7,6.4-12.1,8-19.9c1.5-7.4,2.1-15.8,2.1-30.2c0-8.8-0.1-11.4-0.5-15.2
		c2.6,0.3,4.6,0.4,5.9,0.6c5,0.4,6.4,0.8,6.4,1.7c0,0.7-0.8,1.2-3.1,1.9c0,5.6,0,5.6-0.2,15.5L260.3,23.3L260.3,23.3L260.3,23.3
		L260.3,23.3z"/>
</g>
</svg>
