<?xml version="1.0" encoding="utf-8"?>
<!-- Generator: Adobe Illustrator 18.0.0, SVG Export Plug-In . SVG Version: 6.00 Build 0)  -->
<!DOCTYPE svg PUBLIC "-//W3C//DTD SVG 1.1//EN" "http://www.w3.org/Graphics/SVG/1.1/DTD/svg11.dtd" [
	<!ENTITY ns_flows "http://ns.adobe.com/Flows/1.0/">
	<!ENTITY ns_extend "http://ns.adobe.com/Extensibility/1.0/">
	<!ENTITY ns_ai "http://ns.adobe.com/AdobeIllustrator/10.0/">
	<!ENTITY ns_graphs "http://ns.adobe.com/Graphs/1.0/">
]>
<svg version="1.1" id="圖層_1" xmlns:x="&ns_extend;" xmlns:i="&ns_ai;" xmlns:graph="&ns_graphs;"
	 xmlns="http://www.w3.org/2000/svg" xmlns:xlink="http://www.w3.org/1999/xlink" xmlns:a="http://ns.adobe.com/AdobeSVGViewerExtensions/3.0/"
	 x="0px" y="0px" viewBox="-120 0 312 72" style="enable-background:new -120 0 312 72;" xml:space="preserve">
<g>
	<path d="M-108,38c-2.8,2.3-4.5,3.5-8.6,6.2l-0.7-0.7c4.6-5.1,7.3-9.1,10.4-14.7c2.3-4.3,3.6-7.3,4.9-11.2c2,0.7,3.6,1.2,4.6,1.6
		c3.9,1.3,5.1,1.9,5.1,2.6s-0.8,1-2.8,1.2c-3.3,4.9-4.9,6.9-7,9.4c3.8,0.7,4.3,0.8,4.3,1.5c0,0.6-0.6,0.9-2.4,1.5v15.4
		c0,2.9,0,3.2,0.1,9.3c0,2.5,0,2.5,0,7.2c-0.1,0.7-0.2,1.1-0.5,1.4c-0.7,0.6-2.5,0.9-5.1,0.9c-1.9,0-2.4-0.4-2.5-1.8
		c0.4-11.7,0.4-12.4,0.4-16.2V37.9L-108,38L-108,38z M-116.7,22.7c3.4-3.5,6.1-7,8.8-11.2c2.1-3.4,3-5.2,4.1-9.1
		C-93.1,6-92.9,6.2-92.9,7s-0.4,0.9-3.4,1.3c-7.9,8.2-11.6,11.1-19.5,15.1L-116.7,22.7z M-91.3,35.8c-1.5,0-2.5,0.1-4.4,0.4
		l-0.5-2.5c2,0.4,3.2,0.6,5.1,0.6h29.4c2.1-2.3,2.8-3,4.9-5.1c3,2.3,4,3,7,5.5c0.3,0.3,0.4,0.5,0.4,0.7c0,0.3-0.4,0.5-0.9,0.5h-10.5
		v7.5h1.9c2-2.1,2.5-2.8,4.3-4.6c2.8,2.1,3.6,2.8,6.2,5.1c0.3,0.2,0.4,0.4,0.4,0.6s-0.4,0.4-0.8,0.4h-12v7.8c0,0.7,0,2.5,0.1,5.2
		c0,0.9,0.1,2.4,0.1,4.2c-0.1,2.7-0.7,3.8-2.5,4.9c-1.6,1-5.6,2-8,2c-0.7,0-0.9-0.2-0.9-1.3c-0.5-4-2-5.3-8.3-6.7
		c-0.9,0.5-1.4,0.7-2,0.7c-0.9,0-1.4-0.6-1.9-2.2c-0.3-1-1.5-4.4-2.3-6.4c-0.9-2.3-1.9-3.8-3.9-6.3l0.4-0.5
		c9.7,3.5,12.8,5.7,12.8,8.9c0,1.7-0.7,3.5-1.9,4.8c3.2,0.3,5.2,0.4,9.6,0.4c1,0,1.2-0.2,1.2-1.2V44.8h-24.1c-1.9,0-3,0.1-5,0.4
		l-0.6-2.5c2.2,0.4,3.7,0.6,5.8,0.6h23.5v-7.5H-91.3z M-90.6,29.5c0.3-5.9,0.4-8.5,0.4-15.7c0-4.6-0.1-6.7-0.4-10.9
		c3.9,1.7,5.2,2.2,9.1,4.2h15.7c1.7-1.9,2.2-2.4,4.1-4.2c2.6,1.8,3.4,2.3,5.9,4.2c0.7,0.5,1,0.9,1,1.2c0,0.6-0.6,1.1-2.5,2
		c0,11.2,0,11.7,0.1,18.5c0,0.7-0.1,1.1-0.5,1.4c-0.6,0.5-2.4,0.8-4.8,0.8c-2.1,0-2.6-0.3-2.6-1.5v-1.8h-17.7v1.6
		c-0.1,0.9-0.3,1.3-1,1.6c-0.6,0.2-2.9,0.4-4.6,0.4C-90.1,31.2-90.6,30.8-90.6,29.5L-90.6,29.5z M-65.3,8.7h-17.4v7.8h17.4V8.7
		L-65.3,8.7z M-82.7,18v8.3h17.4V18H-82.7z"/>
	<path d="M-12.6,42.7c0,0.4-0.1,0.7-0.2,0.9c-0.6,0.7-2.2,0.9-4.9,0.9c-1.8,0-2.5-0.4-2.5-1.4c0-0.1,0-0.2,0-0.4
		c0.1-1.7,0.2-6.7,0.3-15h-4c-0.5,5.6-1.1,7.8-2.8,10.7c-1.5,2.7-3.6,4.6-9.1,8.3l-0.5-0.5c2.3-3.5,3.7-6.9,4.5-10.7
		c0.4-2.2,0.5-3.8,0.6-7.8h-1.7c-0.4,0-2,0.1-3.4,0.4l-0.4-2.5c1.5,0.4,2.9,0.6,3.7,0.6h13.3l0.1-7.4h-5.7v2c0,0.4-0.1,0.7-0.3,0.8
		c-0.5,0.4-1.9,0.6-3.2,0.6c-0.7,0-1.3,0-1.7,0c-1.5-0.1-2-0.3-2-1.4c0.2-5.9,0.2-6.7,0.2-9.4c0-2.8-0.1-4.5-0.3-6.7
		c8.6,0.8,9.9,1.1,9.9,1.9c0,0.7-0.6,0.9-2.6,1.7v9h5.7v-1.2c0-7.7-0.1-10.7-0.5-13.6C-11.5,3-9.7,3.4-9.7,4.2
		c0,0.6-0.7,1.1-2.5,1.7c-0.1,5.7-0.1,10.7-0.1,13.5c0,1.4,0,2.2,0,3.1c0,0.2,0,0.5,0,2.3L-12.6,42.7z M16.7,50
		c2.2-2.4,3-3.1,5.1-5.4c3.3,2.5,4.3,3.3,7.7,5.9c0.2,0.2,0.4,0.4,0.4,0.5c0,0.3-0.3,0.4-0.9,0.4H-1.1c1.6,2,3.8,3.7,6.6,5
		c6.5,3.1,12.7,4.2,24.7,4.3v0.5c-3.2,1.7-5.1,4-5.7,7c-0.2,0.8-0.4,1-1,1s-2.8-0.4-4.7-0.9C9,65.7,1.7,60.2-2.7,51.6
		c-2,4.2-3.6,6.5-6.7,9c-6.2,5.2-14.1,7.8-26.7,8.7l-0.1-0.7c12.7-3.3,21.5-9.4,25-17.1h-17.3c-1.7,0-3,0.1-6.1,0.4l-0.5-2.7
		c3,0.6,4.6,0.7,6.6,0.7h17.9c0.8-2.5,1.2-4.6,1.2-7.3c0-0.1,0-0.2,0-0.4c2,0.2,3.5,0.4,4.4,0.6c2.5,0.4,4.1,0.7,4.3,0.7
		c1.4,0.1,2.2,0.6,2.2,1.1c0,0.7-0.6,0.9-2.8,1.7c-0.6,2.5-0.6,2.5-1,3.8H9c-1.9-3.8-2.9-4.9-5.7-6.7l0.4-0.7
		c7.2,0.7,10.1,2.1,10.1,4.6c0,1-0.3,1.7-1.2,2.7L16.7,50L16.7,50z M-12,24.8c4.7-0.9,10.8-3,14.5-4.9c5.7-2.9,9.3-5.4,13.7-9.9H3.7
		c-0.6,0.4-0.8,0.4-1.4,0.8c1.2,0.2,2.8,0.8,4.3,1.4c1.4,0.6,1.9,1.2,1.9,2.4c0,1.5-1.3,2.9-2.8,2.9c-0.6,0-0.9-0.3-1.2-1
		c-0.7-2.4-1.7-4.1-3.1-5.2C-0.5,12.5-1.8,13-3.8,14c0.4,0.2,0.4,0.3,1.2,0.6c2.9,1.2,4.1,2.3,4.1,3.8s-1.3,2.9-2.8,2.9
		c-0.9,0-1.5-0.8-2-2.8c-0.3-1.3-0.9-2.6-1.7-3.8c-1.9,0.8-3,1.2-5.9,2l-0.4-0.8C-5.6,12.2,0.6,6,2.3,2.2C5.6,2.9,6.8,3.3,9.6,4
		C11.7,4.5,12,4.7,12,5.2c0,0.7-0.7,0.9-3.7,1.4c-1.2,1-1.4,1.3-2.5,2h10.6l4.9-3.5c2.5,2,3.3,2.5,5.9,4.7c0.4,0.4,0.7,0.7,0.7,1
		c0,0.8-0.8,1.1-3.3,1.2C16,18.3,13,20,7,22.1C1.3,24-4.6,25.2-11.8,25.6L-12,24.8z M-11.8,27c0.9,0.2,2.2,0.4,3.8,0.4h20.6v-2.9
		c0-1-0.1-1.7-0.3-3.8c1.3,0.1,2.3,0.1,3,0.2c1.4,0.1,2.2,0.3,2.6,0.3c2.7,0.1,4.2,0.6,4.2,1.3s-0.7,1.1-2.3,1.6v3.3h1.3
		c1.9-2,2.5-2.6,4.3-4.5c2.4,2,3.1,2.7,5.4,5c0.2,0.2,0.4,0.4,0.4,0.6c0,0.3-0.3,0.4-0.8,0.4H19.7v3c0,1.6,0,2.8,0,3.1
		c0,0.9,0,1.4,0,1.7c0,0.2,0,0.7,0,0.9c0,0.5,0,0.9,0,1.1c0,1.8-0.7,3.3-1.8,4c-1.5,0.9-4.4,1.7-6.2,1.7c-0.8,0-0.9-0.2-1-1.5
		c-0.2-2.5-2.3-4-7-4.9c-0.7,2.2-2.2,3.6-3.8,3.6c-0.9,0-1.4-0.5-2-2.3c-1.4-3.7-2.7-5.7-5.7-8.6l0.3-0.5c0.7,0.1,1.1,0.3,1.4,0.4
		c4,0.9,5.4,1.4,7.3,2.5c1.8,1,2.6,2.1,2.6,3.6c0,0.1,0,0.3,0,0.5c2.9,0.3,4.1,0.4,7.2,0.6c0.1,0,0.4,0,0.4,0c0.8,0,1-0.3,1-1.2
		v-7.5H-7.9c-1.7,0-3,0.1-3.8,0.4L-11.8,27z"/>
	<path d="M86.9,12.5c1.8-1.7,2.4-2.2,4.3-4c3.1,2.4,4.1,3.1,7,5.7c0.4,0.4,0.5,0.6,0.5,0.9s-0.1,0.6-0.4,0.8c-0.4,0.3-0.4,0.3-3.4,1
		C86.8,27.5,79.8,34.2,70,40.6h24.3c1.8-1.8,2.4-2.4,4.4-4.4c3,2,3.9,2.7,6.7,4.9c0.4,0.4,0.5,0.6,0.5,0.9c0,0.9-0.9,1.5-3.2,2.4
		c0.1,9.2,0.1,12.8,0.2,16.2c0.1,4.4,0.1,4.4,0.1,6c-0.1,1-0.4,1.4-1.2,1.7c-0.8,0.2-3.3,0.4-5.4,0.4c-1.4,0-1.9-0.3-2-1.3v-3.3
		H68.6v3.1c-0.1,0.8-0.4,1.2-1.4,1.4c-0.8,0.2-2.8,0.4-4.4,0.4c-1.9,0-2.4-0.3-2.5-1.4c0.4-5.9,0.6-12.8,0.6-21.8
		c-6,3-11.5,5-18.9,6.9l-0.3-0.7c9.8-4.9,16.2-8.8,22.7-14c5.7-4.6,11.2-10,15.9-15.4c2.5-3,3.7-4.6,6.2-8.7H70
		c-3.2,3.4-3.6,3.8-7,6.8c0.8,0.4,0.8,0.4,4.8,2.2c3.1,1.4,4.6,3,4.6,5.1c0,2.8-2.5,5.7-4.9,5.7c-1,0-1.3-0.4-1.7-2.7
		c-0.7-4.5-1.7-7-3.7-9.5c-5.8,4.9-9.5,7.2-18.2,11.1L43.5,32c5.9-4.6,10.7-9.4,15.4-15.3c4.8-6.2,7.4-10.5,8.5-14.5
		c2.4,0.7,4.3,1.2,5.4,1.4c5.6,1.5,6.4,1.7,6.4,2.5S78.7,7,75.5,7.5c-2.2,2.6-2.9,3.5-4.2,4.9H87L86.9,12.5L86.9,12.5z M68.9,62.6
		h25.8V42.1H68.9V62.6z"/>
	<path d="M158.8,56.5c0,0.9,0,1.4,0,2.1c0,0.4,0,3.5,0.1,9.3c-0.1,0.9-0.3,1.3-0.9,1.5c-0.9,0.3-2.7,0.5-4.3,0.5
		c-2.4,0-2.9-0.3-2.9-1.4c0.1-4.4,0.1-4.4,0.2-11.9h-21.1c-2.6,0-5,0.2-7,0.6l-0.4-2.9c2.9,0.6,4.7,0.8,7.5,0.8h21.2V47h-12.8v3
		c0,0.7-0.3,1-0.9,1.2c-0.9,0.3-2.8,0.4-4.6,0.4c-2,0-2.5-0.4-2.5-1.6c0-3.4,0-3.4,0.2-14.7c0.1-0.9,0.1-2,0.1-2.8
		c0-3.4-0.1-8-0.3-10.4c-0.5,0-0.9,0-1.1,0c-2,0-2.5-0.3-2.5-1.6c0.1-3.5,0.1-3.9,0.1-11.4c0-3.7-0.1-4.5-0.2-6.9
		c3.6,1.6,4.6,2.2,8.3,4.3h9c1.7-2,2.3-2.5,3.9-4.3c2.5,2,3.3,2.5,5.7,4.6c0.4,0.4,0.5,0.6,0.5,0.8c0,0.6-0.6,1-2.3,1.8
		c0,1.9,0,3.3,0,4.3c0,0.4,0,1.9,0.1,6.5c-0.1,0.9-0.4,1.2-2,1.5c-0.4,0.1-2.8,0.2-3.4,0.2c-1.5,0-2-0.3-2.1-1.3v-1.7h-10v1.4
		c-0.1,1-0.4,1.2-2.9,1.4c3.2,1.2,4.3,1.7,8.2,3.8h31.6l4.3-4c2.7,1.7,3.5,2.2,6.1,4.2c0.4,0.4,0.7,0.7,0.7,1c0,0.6-0.5,1-2.5,2.2
		c-0.1,3.2-0.1,5.6-0.1,7.2c0,2.9,0,3.8,0.2,12.2c0,0.4-0.1,0.6-0.1,1l0.4-0.6c3.7,2.6,4.9,3.5,8.6,6.5c0.2,0.2,0.4,0.5,0.4,0.6
		c0,0.3-0.4,0.4-0.9,0.4h-29.6L158.8,56.5L158.8,56.5z M134.4,17.5h10V7.9h-10V17.5L134.4,17.5z M138.5,27.2v8H151v-8L138.5,27.2
		L138.5,27.2z M151.1,36.6h-12.6v8.7H151L151.1,36.6L151.1,36.6z M165.5,20.5c-0.1,0.8-0.3,1.1-0.9,1.2c-0.9,0.2-2.4,0.4-3.6,0.4
		c-2.4,0-3-0.3-3-1.4c0,0,0-0.2,0-0.3c0.1-3.2,0.1-4.3,0.1-9c0-5.9,0-6.2-0.2-8.6c3.3,1.4,4.4,2,7.9,3.7h9.8
		c1.7-1.8,2.1-2.4,3.7-4.1c2.6,1.8,3.3,2.4,5.9,4.2c0.5,0.4,0.7,0.7,0.7,1c0,0.7-0.4,1-2.2,2c0,1.7,0,3,0,3.8c0,2.7,0,4,0.1,7
		c-0.1,0.8-0.3,1.2-0.9,1.4c-1.2,0.3-2.4,0.4-4.9,0.4c-1.3,0-1.7-0.3-1.7-1.1c0,0-0.1-0.1-0.1-0.2V19h-10.7
		C165.5,19,165.5,20.5,165.5,20.5z M158.8,35.1h13.4v-8h-13.4V35.1z M172.2,45.3v-8.7h-13.4v8.7H172.2z M174.7,55
		c1.3-1.4,3-3.1,4.9-5.1c-1.3,0.4-3.6,0.7-5.4,0.7c-1.6,0-2.1-0.4-2.1-1.3c0-0.1,0-0.1,0-0.2V47h-13.4v8.1L174.7,55L174.7,55z
		 M165.5,17.5h10.7V7.9h-10.7V17.5z"/>
</g>
</svg>
