<?xml version="1.0" encoding="utf-8"?>
<!-- Generator: Adobe Illustrator 18.0.0, SVG Export Plug-In . SVG Version: 6.00 Build 0)  -->
<!DOCTYPE svg PUBLIC "-//W3C//DTD SVG 1.1//EN" "http://www.w3.org/Graphics/SVG/1.1/DTD/svg11.dtd" [
	<!ENTITY ns_flows "http://ns.adobe.com/Flows/1.0/">
	<!ENTITY ns_extend "http://ns.adobe.com/Extensibility/1.0/">
	<!ENTITY ns_ai "http://ns.adobe.com/AdobeIllustrator/10.0/">
	<!ENTITY ns_graphs "http://ns.adobe.com/Graphs/1.0/">
]>
<svg version="1.1" id="圖層_1" xmlns:x="&ns_extend;" xmlns:i="&ns_ai;" xmlns:graph="&ns_graphs;"
	 xmlns="http://www.w3.org/2000/svg" xmlns:xlink="http://www.w3.org/1999/xlink" xmlns:a="http://ns.adobe.com/AdobeSVGViewerExtensions/3.0/"
	 x="0px" y="0px" viewBox="0 0 72 72" style="enable-background:new 0 0 72 72;" xml:space="preserve">
<path d="M32.8,45.3c-11.8,0-19.9-8.4-19.9-20.6C12.9,11.1,22,2,35.8,2c7.7,0,14,3,17.7,8.7c3.9,5.8,5.6,12.9,5.6,23
	C59.1,57.4,50.4,70,34,70c-10.8,0-18.9-4.8-18.9-11.3c0-3.5,2.4-5.5,6.4-5.5c2.2,0,4.1,0.6,4.9,1.7c0.5,0.8,0.5,1,0.8,4.8
	c0.4,5.2,2.8,8.1,7.1,8.1c5.3,0,9.2-4.1,11-11.7c1.2-4.7,1.9-11.2,1.9-16.9C42.5,43.6,38.6,45.3,32.8,45.3z M45.6,36.1
	c1.2-2.2,1.8-4.9,1.8-9c0-6-1.1-11.8-2.8-16.2c-1.8-4.2-5.2-6.8-9-6.8c-6.8,0-10.8,7.6-10.8,20.2c0,6.1,1.2,10.7,3.5,13.9
	c2,2.7,4.6,4.1,7.6,4.1C39.6,42.4,43.4,40,45.6,36.1z"/>
</svg>
