<?xml version="1.0" encoding="utf-8"?>
<!-- Generator: Adobe Illustrator 18.0.0, SVG Export Plug-In . SVG Version: 6.00 Build 0)  -->
<!DOCTYPE svg PUBLIC "-//W3C//DTD SVG 1.1//EN" "http://www.w3.org/Graphics/SVG/1.1/DTD/svg11.dtd" [
	<!ENTITY ns_flows "http://ns.adobe.com/Flows/1.0/">
	<!ENTITY ns_extend "http://ns.adobe.com/Extensibility/1.0/">
	<!ENTITY ns_ai "http://ns.adobe.com/AdobeIllustrator/10.0/">
	<!ENTITY ns_graphs "http://ns.adobe.com/Graphs/1.0/">
]>
<svg version="1.1" id="圖層_1" xmlns:x="&ns_extend;" xmlns:i="&ns_ai;" xmlns:graph="&ns_graphs;"
	 xmlns="http://www.w3.org/2000/svg" xmlns:xlink="http://www.w3.org/1999/xlink" xmlns:a="http://ns.adobe.com/AdobeSVGViewerExtensions/3.0/"
	 x="0px" y="0px" viewBox="0 0 72 72" style="enable-background:new 0 0 72 72;" xml:space="preserve">
<path d="M12.7,70c0.9-7.3,2.7-12.5,6.1-17.7c3.5-5.3,7.6-9.5,18-18.2c4.2-3.5,6.2-5.7,7.5-8.4c1.3-2.6,1.9-5.4,1.9-8.4
	c0-7.9-4.3-13.1-10.7-13.1c-4.3,0-7.1,2.1-8.4,6.1c-0.7,2.3-0.8,3.2-1,8.3c-0.2,3.5-1.8,5-5.8,5c-4.4,0-6.4-1.5-6.4-4.8
	c0-4.9,2.7-9.5,7.5-12.8c4.1-2.7,9-4.1,15.1-4.1c13.7,0,21.9,6.3,21.9,16.8c0,4.5-1.4,8.3-4.1,11.4c-1.9,2.3-5.4,4.8-10,7.4
	c-12,6.7-14.7,8.5-18.9,12.3c-3.6,3.3-5.3,5.6-7.2,10.3h26.3c7.4,0,10.1-2.4,11.7-10.5l3.1,0.6L56.1,70H12.7z"/>
</svg>
