<?xml version="1.0" encoding="utf-8"?>
<!-- Generator: Adobe Illustrator 18.0.0, SVG Export Plug-In . SVG Version: 6.00 Build 0)  -->
<!DOCTYPE svg PUBLIC "-//W3C//DTD SVG 1.1//EN" "http://www.w3.org/Graphics/SVG/1.1/DTD/svg11.dtd" [
	<!ENTITY ns_flows "http://ns.adobe.com/Flows/1.0/">
	<!ENTITY ns_extend "http://ns.adobe.com/Extensibility/1.0/">
	<!ENTITY ns_ai "http://ns.adobe.com/AdobeIllustrator/10.0/">
	<!ENTITY ns_graphs "http://ns.adobe.com/Graphs/1.0/">
]>
<svg version="1.1" id="圖層_1" xmlns:x="&ns_extend;" xmlns:i="&ns_ai;" xmlns:graph="&ns_graphs;"
	 xmlns="http://www.w3.org/2000/svg" xmlns:xlink="http://www.w3.org/1999/xlink" xmlns:a="http://ns.adobe.com/AdobeSVGViewerExtensions/3.0/"
	 x="0px" y="0px" viewBox="0 0 72 72" style="enable-background:new 0 0 72 72;" xml:space="preserve">
<path d="M59,51.3C59,62.7,49.7,70,35.2,70C21.5,70,13,63.8,13,53.6c0-5.2,2.3-9.8,6.6-13.1c2.1-1.7,4.2-2.7,8-4.2
	c-9.3-4.9-12.7-9.2-12.7-16.4C14.9,9,23.2,2,36.3,2c12.1,0,20.2,6.3,20.2,15.6c0,7-4.5,12.1-13.2,14.7C54.4,37.1,59,42.8,59,51.3z
	 M25.2,41.7c-2.2,2.6-3.5,6.5-3.5,10.8c0,9.2,5.7,15.2,14.1,15.2c7.7,0,13.1-5.2,13.1-12.8c0-4.4-1.9-7.6-6.3-10.8
	c-1.8-1.3-4.6-2.8-8.2-4.5c-1.2-0.5-3.9-1.8-4-1.8C27.8,39.2,26.5,40.1,25.2,41.7z M45.3,27.3c1.9-2.6,2.8-5.6,2.8-9.7
	c0-2.8-0.8-6-2-8.1c-2-3.3-5.6-5.2-10.1-5.2c-7,0-11.4,4.4-11.4,11.2c0,4.4,2,7.6,6.5,10.7c1.3,0.8,3,1.8,5.8,3
	c1,0.4,3.9,1.8,3.9,1.8C43.1,29.7,44,29,45.3,27.3z"/>
</svg>
