<?xml version="1.0" encoding="utf-8"?>
<!-- Generator: Adobe Illustrator 18.0.0, SVG Export Plug-In . SVG Version: 6.00 Build 0)  -->
<!DOCTYPE svg PUBLIC "-//W3C//DTD SVG 1.1//EN" "http://www.w3.org/Graphics/SVG/1.1/DTD/svg11.dtd" [
	<!ENTITY ns_flows "http://ns.adobe.com/Flows/1.0/">
	<!ENTITY ns_extend "http://ns.adobe.com/Extensibility/1.0/">
	<!ENTITY ns_ai "http://ns.adobe.com/AdobeIllustrator/10.0/">
	<!ENTITY ns_graphs "http://ns.adobe.com/Graphs/1.0/">
]>
<svg version="1.1" id="圖層_1" xmlns:x="&ns_extend;" xmlns:i="&ns_ai;" xmlns:graph="&ns_graphs;"
	 xmlns="http://www.w3.org/2000/svg" xmlns:xlink="http://www.w3.org/1999/xlink" xmlns:a="http://ns.adobe.com/AdobeSVGViewerExtensions/3.0/"
	 x="0px" y="0px" viewBox="0 0 72 72" style="enable-background:new 0 0 72 72;" xml:space="preserve">
<path d="M39.2,26.8c11.9,0,19.9,8.3,19.9,20.5c0,13.6-9.2,22.7-22.8,22.7c-15.1,0-23.3-11.1-23.3-31.7c0-12,2.5-21.8,7-27.8
	C24.2,4.8,30.1,2,38,2c10.8,0,18.8,4.8,18.8,11.2c0,3.2-2.4,5.2-6.4,5.2c-2.2,0-4.1-0.6-4.9-1.7C45,16,45,15.7,44.8,12
	c-0.3-5.1-2.8-7.8-7-7.8c-5.4,0-9.2,4.1-11.1,11.7c-1.2,4.8-1.9,11.2-1.9,16.9C29.5,28.4,33.3,26.8,39.2,26.8z M26.4,36
	c-1.2,2.1-1.8,4.8-1.8,8.9c0,6,1,11.8,2.8,16.2c1.8,4.2,5.2,6.8,9,6.8c6.8,0,10.8-7.6,10.8-20.2c0-11-4.2-17.9-11-17.9
	C32.3,29.7,28.6,32,26.4,36z"/>
</svg>
