<?xml version="1.0" encoding="utf-8"?>
<!-- Generator: Adobe Illustrator 18.0.0, SVG Export Plug-In . SVG Version: 6.00 Build 0)  -->
<!DOCTYPE svg PUBLIC "-//W3C//DTD SVG 1.1//EN" "http://www.w3.org/Graphics/SVG/1.1/DTD/svg11.dtd" [
	<!ENTITY ns_flows "http://ns.adobe.com/Flows/1.0/">
	<!ENTITY ns_extend "http://ns.adobe.com/Extensibility/1.0/">
	<!ENTITY ns_ai "http://ns.adobe.com/AdobeIllustrator/10.0/">
	<!ENTITY ns_graphs "http://ns.adobe.com/Graphs/1.0/">
]>
<svg version="1.1" id="圖層_1" xmlns:x="&ns_extend;" xmlns:i="&ns_ai;" xmlns:graph="&ns_graphs;"
	 xmlns="http://www.w3.org/2000/svg" xmlns:xlink="http://www.w3.org/1999/xlink" xmlns:a="http://ns.adobe.com/AdobeSVGViewerExtensions/3.0/"
	 x="0px" y="0px" viewBox="0 0 72 72" style="enable-background:new 0 0 72 72;" xml:space="preserve">
<path d="M18.8,10.7C22.5,5.2,28.8,2,36,2c7.1,0,13.4,3.2,17.2,8.7c4.3,6.3,6.5,15,6.5,25.3c0,10.2-2.2,19-6.5,25.2
	C49.5,66.8,43.2,70,36,70c-7.2,0-13.5-3.2-17.3-8.8c-4.2-6.3-6.5-15.1-6.5-25.2C12.3,25.8,14.5,17.1,18.8,10.7z M27,60
	c2,5.2,5,7.7,9.1,7.7c4.5,0,7.7-3,9.6-9.3c1.6-4.9,2.3-12,2.3-22.5c0-11.6-0.9-19-2.8-24c-2-5.3-4.9-7.7-9.1-7.7
	c-8.3,0-11.9,9.7-11.9,31.8C24.1,47.3,25,55,27,60z"/>
</svg>
