<?xml version="1.0" encoding="utf-8"?>
<!-- Generator: Adobe Illustrator 18.0.0, SVG Export Plug-In . SVG Version: 6.00 Build 0)  -->
<!DOCTYPE svg PUBLIC "-//W3C//DTD SVG 1.1//EN" "http://www.w3.org/Graphics/SVG/1.1/DTD/svg11.dtd" [
	<!ENTITY ns_flows "http://ns.adobe.com/Flows/1.0/">
	<!ENTITY ns_extend "http://ns.adobe.com/Extensibility/1.0/">
	<!ENTITY ns_ai "http://ns.adobe.com/AdobeIllustrator/10.0/">
	<!ENTITY ns_graphs "http://ns.adobe.com/Graphs/1.0/">
]>
<svg version="1.1" id="圖層_1" xmlns:x="&ns_extend;" xmlns:i="&ns_ai;" xmlns:graph="&ns_graphs;"
	 xmlns="http://www.w3.org/2000/svg" xmlns:xlink="http://www.w3.org/1999/xlink" xmlns:a="http://ns.adobe.com/AdobeSVGViewerExtensions/3.0/"
	 x="0px" y="0px" viewBox="0 0 72 72" style="enable-background:new 0 0 72 72;" xml:space="preserve">
<path d="M38,34.5c13.5,1.1,20.4,6.9,20.4,17.2c0,11.4-8.8,18.3-23.2,18.3c-12.6,0-21.8-5.8-21.8-13.8c0-3.4,2.5-5.3,6.7-5.3
	c2.1,0,3.8,0.6,4.5,1.7c0.5,0.7,0.5,0.9,0.7,5c0.1,2.5,1.2,5.5,2.4,7.1c1.4,1.9,4.3,3,7.3,3c7.4,0,11.6-6,11.6-16.3
	c0-6.1-1.7-10.6-4.9-12.9c-2.3-1.7-6.8-2.8-11.6-2.8h-2.7v-2.8H30c10-0.1,15.3-5.3,15.3-15.4c0-8.6-3.3-13.2-9.6-13.2
	c-3.3,0-5.7,1.2-7,3.7c-1.1,2-1.7,4.5-1.8,7.2c-0.1,2.9-0.3,3.6-1.1,4.4C25,20.6,23.4,21,21.2,21c-4.1,0-6.2-1.5-6.2-4.4
	C15,8.4,24.2,2,36,2c6.3,0,12.1,1.8,15.8,4.9c3,2.6,4.9,6.7,4.9,10.9c0,8.7-6.8,14.5-18.7,16V34.5z"/>
</svg>
