<?xml version="1.0" encoding="utf-8"?>
<!-- Generator: Adobe Illustrator 18.0.0, SVG Export Plug-In . SVG Version: 6.00 Build 0)  -->
<!DOCTYPE svg PUBLIC "-//W3C//DTD SVG 1.1//EN" "http://www.w3.org/Graphics/SVG/1.1/DTD/svg11.dtd" [
	<!ENTITY ns_flows "http://ns.adobe.com/Flows/1.0/">
	<!ENTITY ns_extend "http://ns.adobe.com/Extensibility/1.0/">
	<!ENTITY ns_ai "http://ns.adobe.com/AdobeIllustrator/10.0/">
	<!ENTITY ns_graphs "http://ns.adobe.com/Graphs/1.0/">
]>
<svg version="1.1" id="圖層_1" xmlns:x="&ns_extend;" xmlns:i="&ns_ai;" xmlns:graph="&ns_graphs;"
	 xmlns="http://www.w3.org/2000/svg" xmlns:xlink="http://www.w3.org/1999/xlink" xmlns:a="http://ns.adobe.com/AdobeSVGViewerExtensions/3.0/"
	 x="0px" y="0px" viewBox="0 0 72 72" style="enable-background:new 0 0 72 72;" xml:space="preserve">
<path d="M25.8,11.7c-3.8,0-5.4,0.8-7.1,3.6c-1.1,1.7-1.8,4-2.7,8L13,23l2.8-21H59v6.4c-6.5,9.5-11.2,18.3-14.4,27.2
	c-1.9,5.1-3.3,10.7-4.3,16c-0.7,4.4-0.7,4.4-1.1,12.1c-0.1,2.5-0.6,4-1.8,4.9c-1.2,0.9-3.2,1.4-5.8,1.4c-4,0-6-1.4-6-4.3
	c0-6,4.8-18.2,12.5-31.3c3.6-6.4,7.4-12.3,14.6-22.7H25.8z"/>
</svg>
