<?xml version="1.0" encoding="utf-8"?>
<!-- Generator: Adobe Illustrator 18.0.0, SVG Export Plug-In . SVG Version: 6.00 Build 0)  -->
<!DOCTYPE svg PUBLIC "-//W3C//DTD SVG 1.1//EN" "http://www.w3.org/Graphics/SVG/1.1/DTD/svg11.dtd" [
	<!ENTITY ns_flows "http://ns.adobe.com/Flows/1.0/">
	<!ENTITY ns_extend "http://ns.adobe.com/Extensibility/1.0/">
	<!ENTITY ns_ai "http://ns.adobe.com/AdobeIllustrator/10.0/">
	<!ENTITY ns_graphs "http://ns.adobe.com/Graphs/1.0/">
]>
<svg version="1.1" id="圖層_1" xmlns:x="&ns_extend;" xmlns:i="&ns_ai;" xmlns:graph="&ns_graphs;"
	 xmlns="http://www.w3.org/2000/svg" xmlns:xlink="http://www.w3.org/1999/xlink" xmlns:a="http://ns.adobe.com/AdobeSVGViewerExtensions/3.0/"
	 x="0px" y="0px" viewBox="0 0 72 72" style="enable-background:new 0 0 72 72;" xml:space="preserve">
<path d="M19.8,34.8c5.6-5.3,10.6-7.4,17.5-7.4c13.3,0,21.5,7.8,21.5,20.4c0,13.5-9.5,22.2-24.6,22.2c-11.9,0-21.2-5.7-21.2-13.2
	c0-3.4,2.3-5.3,6.4-5.3c2.1,0,3.7,0.5,4.5,1.5c0.6,0.7,0.8,1.5,0.9,4.1c0.1,3.4,0.9,5.7,2.5,7.4c1.7,1.9,4.4,3,7.1,3
	c3.7,0,6.8-1.6,8.9-4.6c2.2-3.4,3.5-8.4,3.5-14C47,37.6,42.3,31,34.1,31c-6,0-11.6,3.7-15.3,9.9l-3-0.7l3-38.1H56l-1.6,10.2H21.7
	L19.8,34.8z"/>
</svg>
