<?xml version="1.0" encoding="utf-8"?>
<!-- Generator: Adobe Illustrator 18.0.0, SVG Export Plug-In . SVG Version: 6.00 Build 0)  -->
<!DOCTYPE svg PUBLIC "-//W3C//DTD SVG 1.1//EN" "http://www.w3.org/Graphics/SVG/1.1/DTD/svg11.dtd">
<svg version="1.1" id="圖層_1" xmlns="http://www.w3.org/2000/svg" xmlns:xlink="http://www.w3.org/1999/xlink" x="0px" y="0px"
	 viewBox="0 0 72 72" enable-background="new 0 0 72 72" xml:space="preserve">
<g>
	<path d="M49.9,67.3c-0.7,0-1.2-0.5-1.2-1.4c0-0.8,0.5-1.4,1.2-1.4c0.7,0,1,0.5,1,0.5l0.1,0.1v-0.6l0,0c-0.3-0.2-0.7-0.3-1.1-0.3
		c-1,0-1.6,0.7-1.6,1.8c0,1,0.7,1.8,1.6,1.8c0.4,0,0.8-0.1,1.1-0.3l0,0v-0.6l-0.1,0.1C50.9,66.9,50.6,67.3,49.9,67.3z"/>
	<polygon points="56.6,64.9 56.6,65.3 57.5,64.8 57.5,67.7 57.9,67.7 57.9,64.3 57.6,64.3 	"/>
	<path d="M61.1,65.9c0.3-0.2,0.5-0.5,0.5-0.8c0-0.5-0.5-0.9-1.1-0.9c-0.6,0-1.1,0.4-1.1,0.9c0,0.3,0.2,0.6,0.5,0.8
		c-0.4,0.2-0.6,0.5-0.6,0.9c0,0.6,0.5,1,1.2,1c0.7,0,1.2-0.4,1.2-1C61.7,66.4,61.5,66.1,61.1,65.9z M60.5,67.4
		c-0.5,0-0.8-0.2-0.8-0.6c0-0.3,0.3-0.6,0.8-0.6c0.5,0.1,0.8,0.3,0.8,0.6C61.3,67.1,60.9,67.4,60.5,67.4z M60.5,64.6
		c0.4,0,0.7,0.2,0.7,0.6c0,0.3-0.3,0.5-0.7,0.6c-0.4-0.1-0.7-0.3-0.7-0.6C59.8,64.8,60.1,64.6,60.5,64.6z"/>
	<path d="M64.5,65.9c0.3-0.2,0.5-0.5,0.5-0.8c0-0.5-0.5-0.9-1.1-0.9c-0.6,0-1.1,0.4-1.1,0.9c0,0.3,0.2,0.6,0.5,0.8
		c-0.4,0.2-0.6,0.5-0.6,0.9c0,0.6,0.5,1,1.2,1c0.7,0,1.2-0.4,1.2-1C65.1,66.4,64.9,66.1,64.5,65.9z M63.9,67.4
		c-0.5,0-0.8-0.2-0.8-0.6c0-0.3,0.3-0.6,0.8-0.6c0.5,0.1,0.8,0.3,0.8,0.6C64.7,67.1,64.4,67.4,63.9,67.4z M63.9,64.6
		c0.4,0,0.7,0.2,0.7,0.6c0,0.3-0.3,0.5-0.7,0.6c-0.4-0.1-0.7-0.3-0.7-0.6C63.2,64.8,63.5,64.6,63.9,64.6z"/>
	<path d="M3.6,64.6v3.1H4v-1.4h1.6v-0.4H4v-1.2h1.7v-0.4c0,0-2.2,0-2.3,0C3.6,64.3,3.6,64.4,3.6,64.6z"/>
	<path d="M7.5,64.3c0,0,0.1,0,0.1,0.2c0,0.1,0,0.2,0,0.2l-1.3,3.1h0.5l0.4-1h1.5l0.4,1h0.5l-1.4-3.4H7.5z M8.5,66.3H7.3l0.6-1.4
		L8.5,66.3z"/>
	<path d="M12.1,65.9l-1.2-1.6l0,0h-0.5c0,0,0.1,0.1,0.1,0.4v3H11V65l1.2,1.6l1.2-1.6v2.7h0.4v-3.4h-0.4L12.1,65.9z"/>
	<path d="M15.5,64.6v3.1h0.4v-3.4h-0.6C15.3,64.3,15.5,64.3,15.5,64.6z"/>
	<path d="M18,64.3h-0.6c0.1,0.1,0.1,0.2,0.1,0.4v3.1h2.1v-0.4H18V64.3z"/>
	<path d="M21.2,65.8l-1-1.5c0,0-0.4,0-0.6,0c0.1,0,0.2,0.2,0.3,0.3l1.1,1.6v1.5h0.4v-1.5l1.3-1.9h-0.5L21.2,65.8z"/>
	<path d="M42.1,64.6v3.1h0.4v-3.4H42C42,64.3,42.1,64.3,42.1,64.6z"/>
	<path d="M27.4,65.3c0-0.6-0.5-1-1.1-1h-1.4c0,0,0.1,0.1,0.1,0.4v3h0.4v-1.4h0.7l0.9,1.4h0.5l-1-1.4C27.1,66.2,27.4,65.8,27.4,65.3z
		 M25.4,64.7h0.8c0.4,0,0.7,0.3,0.7,0.6c0,0.4-0.3,0.6-0.7,0.6h-0.8V64.7z"/>
	<path d="M31.1,66.4c0,0.6-0.4,1-1,1c-0.6,0-1-0.4-1-1v-2.1h-0.6c0,0,0.1,0,0.1,0.4v1.7c0,0.8,0.6,1.4,1.4,1.4
		c0.8,0,1.4-0.6,1.4-1.4v-2.1h-0.4V66.4z"/>
	<path d="M35.3,67l-2-2.7h-0.5c0,0,0.1,0.1,0.1,0.4v3.1h0.4V65l2,2.7h0.4v-3.4h-0.4V67z"/>
	<path d="M46.6,67l-2-2.7h-0.5c0,0,0.1,0.1,0.1,0.4v3.1h0.4V65l2,2.7H47v-3.4h-0.4V67z"/>
	<path d="M52.6,66.1h1.6v-0.4l-1.6,0v-1.1h1.7v-0.4h-2.3c0,0,0.1,0.1,0.1,0.4v3h2.2v-0.4h-1.8V66.1z"/>
	<path d="M65.9,64.3c0,0,0,0.5,0,0.5c0,0,0.1-0.1,0.4-0.1h1.3l-1.3,3h0.4l1.4-3.1v-0.3H65.9z"/>
	<path d="M39.6,65.8c-0.5-0.1-0.8-0.2-0.8-0.6c0-0.3,0.3-0.5,0.8-0.5c0.8,0,0.9,0.3,1,0.4c0-0.2,0-0.6,0-0.6l-0.1,0
		c-0.3-0.1-0.6-0.2-1-0.2c-0.7,0-1.2,0.4-1.2,0.9c0,0.7,0.6,0.9,1.1,1c0.5,0.1,0.8,0.2,0.8,0.7c0,0.3-0.3,0.6-0.8,0.6
		c-0.8,0-1.1-0.4-1.1-0.4v0.5l0.1,0c0.2,0.1,0.7,0.2,1.1,0.2c0.7,0,1.2-0.4,1.2-0.9C40.7,66.1,40.1,65.9,39.6,65.8z"/>
</g>
</svg>
