<?xml version="1.0" encoding="utf-8"?>
<!-- Generator: Adobe Illustrator 18.0.0, SVG Export Plug-In . SVG Version: 6.00 Build 0)  -->
<!DOCTYPE svg PUBLIC "-//W3C//DTD SVG 1.1//EN" "http://www.w3.org/Graphics/SVG/1.1/DTD/svg11.dtd">
<svg version="1.1" id="圖層_1" xmlns="http://www.w3.org/2000/svg" xmlns:xlink="http://www.w3.org/1999/xlink" x="0px" y="0px"
	 viewBox="0 0 72 72" enable-background="new 0 0 72 72" xml:space="preserve">
<path d="M36,2.4c-18.8,0-34,15.2-34,34c0,18.8,15.2,34,34,34c18.8,0,34-15.2,34-34C70,17.6,54.8,2.4,36,2.4z M11.4,36.4
	c0-5.7,1.9-10.9,5.1-15L51,55.8c-4.2,3.2-9.4,5.1-15,5.1C22.4,60.9,11.4,49.9,11.4,36.4z M55.1,51.8L20.6,17.2
	c4.2-3.4,9.6-5.4,15.4-5.4c13.6,0,24.6,11,24.6,24.6C60.6,42.2,58.5,47.5,55.1,51.8z"/>
</svg>
