<?xml version="1.0" encoding="utf-8"?>
<!-- Generator: Adobe Illustrator 18.0.0, SVG Export Plug-In . SVG Version: 6.00 Build 0)  -->
<!DOCTYPE svg PUBLIC "-//W3C//DTD SVG 1.1//EN" "http://www.w3.org/Graphics/SVG/1.1/DTD/svg11.dtd">
<svg version="1.1" id="圖層_1" xmlns="http://www.w3.org/2000/svg" xmlns:xlink="http://www.w3.org/1999/xlink" x="0px" y="0px"
	 viewBox="0 0 776 72" enable-background="new 0 0 776 72" xml:space="preserve">
<g>
	<path d="M15.7,26.3c1.8-3.7,2.5-5.2,4.4-10c2.8-6.9,3.7-9.7,4.2-13.7C36.4,5.8,36.9,6,36.9,7c0,0.8-0.9,1.2-3.6,1.4
		c-3,4.6-9.4,12.8-13.9,17.9c10-0.1,21.4-0.7,31.1-1.5c-3.3-4.3-5.3-6.3-9.7-10.2l0.4-0.6c7.4,3,12.1,5.3,15.7,7.5
		c4.5,2.8,6,4.8,6,7.8c0,3.5-1.9,6.7-4,6.7c-1.1,0-1.5-0.4-3-3.2c-0.7-1.1-2.2-3.5-3.5-5.4c-12,2.5-27.9,4.9-44.9,6.9
		c-0.6,1.9-1,2.6-1.6,2.6c-0.9,0-1.1-0.6-3-10.8c3,0.3,4,0.4,6.9,0.4h3.2H15.7z M47.2,40.5c1.9-2.1,2.5-2.7,4.3-4.6
		c2.7,1.8,3.5,2.4,6.1,4.3c0.7,0.6,1,0.9,1,1.4c0,0.7-0.4,1-2.5,2.2v4.5c0,6.6,0.1,11.8,0.4,18.8c0,0.7-0.1,0.9-0.2,1.2
		c-0.5,0.6-2.3,0.9-5.6,0.9c-2.4,0-2.7-0.2-2.8-1.4v-3.5H18.8v3.3c-0.1,1.6-1,1.9-5.3,1.9c-2.7,0-3.2-0.1-3.2-1.4
		c0.2-6.9,0.3-10.8,0.3-20.4c0-5.1-0.1-6.9-0.4-11.4c4.2,1.7,5.4,2.2,9.4,4.3H47.2z M18.8,62.8h29.1V42.1H18.8V62.8z"/>
	<path d="M92.3,23.7C92.2,8.6,92.2,8.6,91.8,4.1c7.1,0.6,10.5,1.1,11.3,1.5c0.2,0.1,0.4,0.5,0.4,0.7c0,0.8-0.7,1.2-3.1,1.9
		c-0.1,12-0.1,14.1-0.1,17.8c0,16,0.1,36.5,0.1,40.3c0,0.2,0,0.4,0,0.5c0,1.7-0.9,2.2-4.2,2.3c-0.8,0-1.4,0.1-1.7,0.1
		c-0.2,0-0.4,0-0.4,0c-1.4,0-2.1-0.4-2.1-1.4c0-0.1,0-0.3,0-0.4C92,62.6,92,62.6,92.3,48c-1.1,0.9-1.1,0.9-2.7,2.3
		c-3.2,2.8-6.5,5.3-10.4,8.1c0.1,0.7,0.1,1.3,0.1,1.7c0,1.2-0.5,2.1-1.2,2.1c-1,0-1.7-1.4-5.5-11.3c6.5-1.3,13.1-3.3,19.6-5.8V29.8
		c0-0.5,0-2.1,0-4.5H79.5c-0.9,0-3.5,0.2-5,0.4L74.2,23c1.7,0.4,4,0.7,5.3,0.7H92.3z M117.1,31.5c1.9-1.9,3.3-3.4,5.6-6.1
		c3.7-4.5,5.2-6.8,6.7-10.3c2,1.3,3.5,2.2,4.5,2.8c5.1,3,5.8,3.6,5.8,4.5c0,0.6-0.7,1-1.7,1c-0.4,0-1.2-0.1-2.4-0.2
		c-7.2,4.8-11.6,7.3-18.6,10.2v25.1c0,1.8,0.5,2,7.4,2c3.4,0,4.4-0.4,5.3-1.8c0.9-1.6,1.4-3,5.3-15.7h0.7l-0.2,13.3
		c0,0.4,0,0.6,0,0.8c0,1.5,0.2,1.8,1.6,2.3c1.7,0.6,2.5,1.7,2.5,3.3c0,1.2-0.7,2.6-1.7,3.3c-1.9,1.4-4.7,1.8-13.1,1.8
		c-8.9,0-10.9-0.1-12.6-0.8c-2.1-0.8-2.9-2.3-3.1-5.8c0-2,0-10.5,0.1-25.3V15.3c0-4.7-0.1-8-0.4-11.2c10.3,0.8,11.9,1.1,11.9,2.3
		c0,0.8-0.9,1.2-3.5,1.8V31.5z"/>
	<path d="M146.7,38.2h17v6.1h-17V38.2z"/>
	<path d="M171.9,38.2h17v6.1h-17V38.2z"/>
	<path d="M230.1,33.6c1.4-13.6,1.4-14.3,1.9-24.5h-4.1c-1.7,0-3,0.1-4.5,0.4L223,7c1.9,0.5,3.3,0.6,5,0.6h20.9
		c1.7-1.9,2.3-2.5,4-4.3c2.8,1.9,3.7,2.5,6.3,4.5c0.7,0.5,0.9,0.9,0.9,1.2c0,0.7-0.8,1.3-3.1,2.3c-0.9,18.9-0.9,18.9-1.2,22.3h0.6
		c1.4-2.2,2-3,3.5-5.1c2.2,2.3,2.8,3.1,4.7,5.5c0.2,0.3,0.3,0.5,0.3,0.6c0,0.3-0.3,0.4-0.7,0.4h-8.4c-1.2,19.3-1.2,19.6-2.1,30h0.9
		c1.8-2.4,2.3-3.1,4.1-5.3c2.5,2.5,3.3,3.2,5.6,5.8c0.2,0.2,0.3,0.4,0.3,0.7c0,0.2-0.3,0.4-0.8,0.4h-40.9c-1.7,0-2.8,0.1-4.4,0.4
		l-0.4-2.5c1.6,0.4,3,0.6,4.8,0.6h3.3c2.1-13.9,2.1-13.9,3.8-30h-5.4c0,0.1,0,0.3,0,0.4c0,0.1,0,0.4,0.1,0.5c0,0.1,0,0.1,0,0.1
		c0,0.6-0.4,1.9-0.8,2.5c-0.9,1.6-2.2,2.6-3.4,2.6c-0.9,0-1.3-0.7-1.7-3.1c-0.2-1.2-0.4-2.2-0.8-3.7c-1.9,0.7-2.6,0.9-4.2,1.4v15
		c0.1,12.9,0.1,12.9,0.2,16.5c0,1.8-0.8,2.2-4.5,2.2c-2.5,0-2.9-0.2-2.9-1.6c0.4-9.8,0.5-12.7,0.5-16.5V47l-1.1,0.2
		c-3.2,9.6-5,13.1-10.1,19.4l-0.7-0.4c2.8-8.2,4.2-15.5,4.5-23.2c3.9,0.9,5.3,1.4,7.4,2v-7.2l-7.4,1.9c-0.4,1.9-0.7,2.5-1.2,2.5
		c-0.7,0-0.7-0.1-3-9.2c1.9,0.2,2.7,0.3,4,0.3c0.8,0,0.8,0,3.2-0.1c2.8-3.7,4-5.4,6.4-9.4c3.7-6.1,5.5-9.6,6.6-12.6
		c8.8,3.3,9.7,3.8,9.7,4.5c0,0.8-0.9,1.1-3.2,1.1c0,0,0,0-0.1,0c-0.9,0.9-1.6,1.7-2,2.2c-5.9,6.8-7.8,8.6-14.4,14.1
		c1.9,0,5.8-0.2,11.5-0.4c-0.9-2.6-1.5-3.8-3.3-6.4l0.8-0.6c6.4,3.9,8.1,5.3,9.4,7.9H230.1z M196.9,12.9c2.7,1,3.5,1.4,5.3,2.2
		c2-4.2,3.3-8.6,4-12.7c10,3.1,10.8,3.4,10.8,4.2s-1.1,1.2-3.6,1.2c-5.8,5.8-6.4,6.3-9.2,8.4c3.2,1.9,4.3,3.2,4.3,5
		c0,2.5-2.2,5.4-4.2,5.4c-0.9,0-1.2-0.5-1.9-2.5c-0.3-0.9-1.5-4-2-5.1c-0.9-1.8-1.8-3.1-4-5.7L196.9,12.9z M214.9,41.6
		c6.2,4.8,9.2,8.6,9.2,12c0,2.7-2.6,5.9-4.8,5.9c-1,0-1.6-0.8-1.7-2.6c-0.4-7.7-0.9-10.3-3.4-14.7L214.9,41.6z M237.6,35.1
		c-1,9.5-1.7,15.7-2,18.6c-0.2,1.4-0.7,5.1-1.6,11.4h12c0.6-7.3,0.9-11.7,1-13.1c0.2-3,0.3-3.9,1.1-16.8H237.6z M248.2,33.6
		c0.7-10.7,0.7-10.7,1.2-24.5h-9.5c-1.1,14.5-1.2,16-2.1,24.5H248.2z"/>
	<path d="M280.5,37.5c-3.8,1.1-3.8,1.1-7.4,2c-0.3,1.7-0.6,2.3-1.2,2.3c-0.8,0-0.8-0.2-2.8-8.9c2.5,0.1,3.3,0.1,5.3,0.1
		c0.3,0,0.9,0,1.7-0.1c3-3.8,4.4-5.8,6.4-8.9c3.2-5.1,5.5-9.4,6.7-12.7c2.1,0.8,3.8,1.4,4.8,1.9c3.5,1.3,4.5,1.9,4.5,2.5
		c0,0.8-0.8,1.1-3.3,1.2c-5.8,7-9.5,10.5-16.2,15.9c5.1-0.2,9.5-0.5,11.8-0.8c-0.8-2.5-1.3-3.4-3-6.1l0.6-0.6c3.4,2.2,5,3.3,7.4,5.6
		c2.5-4.9,3.4-7.2,4.8-11.6c1.9-6.1,3-11.5,3.3-16.6c2.5,0.4,4.4,0.9,5.6,1.1c4.7,0.9,6.1,1.4,6.1,2.2c0,0.8-1,1.2-3.1,1.4
		c-1.9,4.6-2.8,6.5-4.5,9.7h16.5c1.7-2,2.3-2.5,4.1-4.5c2.9,2,3.7,2.6,6.3,4.6c0.7,0.6,0.9,0.9,0.9,1.3c0,0.6-0.6,1.2-2.5,2
		c-0.9,22.8-1.2,26.4-2.5,33.9c-1.2,7.1-2.3,9.8-4.6,11.8c-1.7,1.4-3.8,2.3-6.9,2.7c-0.9,0.1-1.6,0.2-2,0.2c-0.8,0-1-0.3-1.1-1.3
		c-0.1-1.9-0.9-3.4-2.5-4.5c-1.5-0.9-2.7-1.4-9.6-3.4l0.1-0.9c9.4,0.8,11.7,0.9,14.7,0.9c2.2,0,2.8-0.9,3.8-5.6
		c1.5-7,2.7-21.7,2.7-33.6c0-0.5,0-1.2-0.1-2.2h-18.2c-3.8,6.4-5.9,9.1-10.3,13.1c1.5,1.7,2,2.5,2,4c0,2.6-2.3,5.2-4.5,5.2
		c-0.9,0-1.4-0.8-1.8-2.9c-0.2-1.4-0.4-2.4-0.8-3.9c-3.2,1.1-3.2,1.1-4.3,1.4v15.2c0,3.4,0.1,10.7,0.1,16.7c0,0.7-0.1,0.9-0.2,1.2
		c-0.4,0.7-1.9,0.9-4.6,0.9c-2,0-2.5-0.3-2.5-1.4c0.3-10.8,0.4-16.7,0.4-17.4V47c-0.6,0.1-0.7,0.1-1.4,0.3
		c-3.3,9.4-5.8,14.1-10.1,19.6l-0.7-0.4c2.4-6.8,4.1-16.2,4.1-22c0-0.1,0-0.9,0-1.6c4,1,5.6,1.4,8.1,2.2V37.5z M269.9,13.1
		c2.9,1,3.9,1.4,6.1,2.5c2.3-5.3,3.4-8.9,4-12.9c9.3,2.5,11.1,3.1,11.1,4c0,0.7-0.9,1-3.4,1.2c-5.5,5.1-8.6,7.9-9.8,8.7
		c3.3,1.9,4,3,4,5.1c0,2.7-2,5.3-4,5.3c-1.1,0-1.4-0.5-2.4-3.4c-1.4-4.2-2.5-6.1-6-10L269.9,13.1z M288.7,41.9
		c3.2,2.3,4.5,3.4,6.1,5.2c2.2,2.3,3.5,5.1,3.5,7.4c0,3-2.5,6.6-4.7,6.6c-0.6,0-1.1-0.4-1.4-1c-0.2-0.6-0.2-0.6-0.4-3.9
		c-0.5-5.8-1.4-9.7-3.5-13.8L288.7,41.9z M304.2,27.3c9.2,5.5,13,9.5,13,13.4c0,3.5-2.7,7-5.4,7c-1.2,0-1.7-0.9-2-3
		c-0.4-2.4-1.3-6.2-2.1-8.6c-0.9-2.7-1.9-4.6-4-8.2L304.2,27.3z"/>
	<path d="M349.2,15.6c-1.4,0-3.8,0.1-5.7,0.4l-0.5-2.6c2.2,0.5,3.8,0.7,6.2,0.7H371v-3c0-3.4-0.1-5-0.5-8.2
		c10,0.9,11.1,1.2,11.1,2.1c0,0.6-0.6,0.9-2.9,1.8v7.4h15.6c2.5-2.7,3.3-3.5,5.7-6c3.7,2.7,4.7,3.5,7.9,6.6c0.1,0.2,0.3,0.4,0.3,0.6
		c0,0.2-0.3,0.4-0.8,0.4h-28.7v22c3.8,5.5,7.4,8.6,14.7,12.4c6.1,3.3,10,4.5,16.3,5.5v0.7c-3.4,1.6-4.3,2.7-5.8,7.3
		c-0.1,0.4-0.4,0.7-0.8,0.7c-0.8,0-4.6-2-7.5-4c-4.9-3.5-9.2-7.8-12.6-12.6c-1.7-2.5-2.7-4.2-4.3-7.9v10.9c0.1,4.1,0.2,7.4,0.3,9.7
		c0.1,3.4,0.1,3.5,0.2,6.6c0,0.9-0.3,1.4-1.1,1.7c-0.7,0.3-3,0.6-4.7,0.6c-2.1,0-2.7-0.4-2.7-1.5C371,55.1,371,54,371,52.2v-5.6
		c-5.1,5.4-9,8.7-14.9,12.2c-4.3,2.5-7.7,4.3-14.1,6.9l-0.5-0.7c6.2-4.1,10.5-7.6,15.7-12.9c6-6,9.4-10.3,13.8-17.4v-19H349.2z
		 M343.4,44.1c3.5-5.2,5.6-8.7,7.9-14.2c1.9-4.5,3-7.4,3.8-11.3c9.9,2.4,10.3,2.5,10.3,3.5c0,0.8-0.8,1.1-3.2,1.4
		c-1.4,2.7-2.1,3.8-3.5,6c4,1.2,5.3,1.7,6.5,2.2c2.2,1.1,3,2.2,3,4c0,2.7-1.9,5.1-4,5.1c-1,0-1.3-0.4-2.1-3.1c-0.9-3-2.2-5-4.2-7.1
		c-4.5,6.3-7.6,9.4-14.1,14.1L343.4,44.1z M380.3,39c2.4-3.7,3.8-6.3,5.6-10.9c1.4-3.7,2-5.4,2.7-9.6c9.7,2.7,10.2,2.9,10.2,3.8
		c0,0.8-0.9,1.2-3.5,1.4c-1.4,2.7-2.2,3.8-3.6,5.7c2.6,0.8,5,1.6,7.6,2.7c4.1,1.7,5.9,3.5,5.9,6.1c0,2.9-2,5.8-3.8,5.8
		c-0.9,0-1.3-0.4-2.7-3c-2.1-4.3-5.2-8.3-7.9-10.4c-3.2,4-5.7,6.2-10,9.2L380.3,39z"/>
	<path d="M426.5,67.4c-0.1,0.9-0.4,1.2-1.2,1.5c-0.6,0.1-3.1,0.4-4.7,0.4c-2,0-2.5-0.4-2.5-1.8c0.5-14.1,0.6-19,0.6-30.5
		c0-18.7-0.1-25.2-0.5-33.5c4,1.9,5.3,2.7,9.4,5h41.4c1.9-2.1,2.5-2.7,4.5-4.8c2.9,1.9,3.7,2.5,6.2,4.5c0.7,0.6,0.9,1,0.9,1.4
		c0,0.7-0.6,1.2-2.8,2.5v29.5c0,9.1,0.1,12.4,0.4,25.1c-0.1,1-0.3,1.4-1.1,1.7c-0.7,0.3-3,0.6-4.9,0.6c-1.9,0-2.3-0.4-2.4-1.9v-3.1
		h-43.2V67.4z M426.5,62.6h43.2V9.9h-43.2V62.6z M441.4,50.8c0,0.8-0.1,1.1-0.6,1.4c-0.6,0.4-2.2,0.6-4.2,0.6c-2.5,0-3-0.3-3-1.8
		c0.2-7.3,0.3-11.8,0.3-19.1c0-5.4-0.1-7.9-0.2-13.4c3.8,1.9,4.9,2.5,8.6,4.8h11.4c1.7-1.9,2.2-2.5,4-4.3c2.5,1.9,3.3,2.5,5.6,4.4
		c0.5,0.5,0.7,0.8,0.7,1.2c0,0.5-0.4,0.9-2.2,1.8v11.6c0,0.9,0,3.7,0.1,12.1c-0.1,1.6-1.2,2-4.7,2c-2.5,0-3-0.2-3-1.4v-3.8h-12.9
		V50.8z M441.4,45.2h12.9V24.7h-12.9V45.2z"/>
	<path d="M535.7,22.2c1.7-1.9,2.2-2.4,4-4.2c2.8,1.9,3.6,2.5,6.2,4.4c0.5,0.4,0.7,0.7,0.7,1c0,0.7-0.6,1.2-2.5,2.1
		c0,5.2,0,7.7,0,12.1c0,3,0.1,9.7,0.3,20.2c-0.1,1.4-1.1,1.7-5.6,1.7c-2.2,0-2.5-0.2-2.5-1.4v-2.6h-20.5v3.1c0,1.4-0.8,1.6-5.1,1.6
		c-2.5,0-2.8-0.2-2.8-1.4c0.1-7,0.2-11.7,0.2-24.1c0-7-0.1-11.3-0.3-16.6c3.8,1.7,4.8,2.2,8.4,4.2h0.9c1.2-4.9,1.2-5.3,2-8.8h-24
		c-2.2,0-3.5,0.1-5.4,0.5l-0.4-2.7c2.2,0.5,3.6,0.7,5.7,0.7h24.4c0.7-3.6,0.9-5.2,1.1-8.8c2.2,0.3,4,0.5,5.1,0.6
		c5.3,0.7,6.3,1,6.3,1.9c0,0.7-0.8,1.1-3.4,1.8c-0.4,2.2-0.6,2.7-0.9,4.5h13.2c2.4-2.8,3.1-3.6,5.4-6.2c3.7,2.7,4.8,3.6,8.3,6.6
		c0.3,0.3,0.4,0.4,0.4,0.7c0,0.3-0.3,0.4-0.8,0.4h-26.9c-0.3,1.3-0.5,2.2-0.6,2.9c-0.7,3.2-0.7,3.4-1.4,5.9H535.7z M500.7,68
		c-0.1,1.5-0.8,1.8-5.3,1.8c-2.6,0-3-0.2-3-1.7c0.2-10.4,0.3-17.5,0.3-25.1c0-12.1-0.1-16.7-0.4-21.2c9,0.9,9.6,0.9,10.5,1.3
		c0.5,0.2,0.8,0.5,0.8,0.9c0,0.6-0.5,0.9-2.8,1.8v37.8h40.6l6-6.1c3.5,2.8,4.5,3.7,7.7,6.6c0.2,0.2,0.4,0.4,0.4,0.6
		c0,0.3-0.3,0.4-0.6,0.4h-53.9V68z M536.4,32v-8.2h-20.5V32H536.4z M515.9,33.5v9.1h20.5v-9.1H515.9z M515.9,44.1V54h20.5v-9.9
		H515.9z"/>
	<path d="M560.9,24.7c6.4-3,9.2-4.6,13.1-7.7c2.6-2,4-3.3,5.8-5.4c1.7,1.2,3,2.1,3.8,2.7c1.7,1.2,2.8,2.1,3.6,3
		c-0.1-3-0.1-3.5-0.3-6.5c2.2,0.1,3.9,0.3,5,0.4c4.1,0.2,5.9,0.6,5.9,1.5c0,0.8-0.8,1.2-2.8,1.8v18.9l5.3-0.1
		c1.8-1.9,2.3-2.5,4.1-4.2c2.6,1.7,3.4,2.2,5.6,4c0.6,0.5,0.9,0.8,0.9,1.1c0,0.7-0.5,1.1-2.8,2.3c0.1,3.7,0.2,5.3,0.7,7.5
		c2.6-2.2,4.6-4.8,6.5-8.1c5.6,3.1,7.4,4.3,7.4,4.9c0,0.4-0.6,0.8-1.4,0.8c-0.4,0-1-0.1-2.1-0.2c-2.5,1-2.5,1-9.5,3.5
		c8.7,0.9,11.7,2.2,11.7,5.3c0,2-1.2,4-2.3,4c-0.9,0-0.9-0.1-2.8-2.6c-1.9-2.5-4.2-4.3-7-5.7c0.7,2.5,1.2,3.8,2.2,5.6
		c1.9,3.4,4.4,5.6,8.8,7.7c1.9-3.8,2.7-5.6,5.6-12.4l0.7,0.3L625,59.3c-0.1,0.3-0.1,0.6-0.1,0.7c0,0.7,0.1,0.9,1.3,1.8
		c1,0.7,1.4,1.7,1.4,3.1c0,2.2-1.6,3.5-4.3,3.5c-4,0-10.5-3.6-14.5-8c-5.1-5.6-7.4-12.9-8-25.5h-5.8c0,19.3,0,19.3,0.3,31.8
		c-0.2,1.7-1.4,2-6.2,2c-1.6,0-2.3-0.5-2.3-1.5c0-0.1,0-0.3,0-0.4c0.5-14.7,0.5-14.7,0.5-31.8l-7.4,0.1c-0.5,9.2-1.3,13.3-3.5,18
		c-2,4.5-5.2,8.5-9.5,12c-1.8,1.4-3.1,2.3-6.2,4.1l-0.5-0.6c6.1-7,8.6-11.4,10.3-18.7c0.9-4.2,1.5-9.2,1.7-14.8l-6,0.1
		c-2.7,0-3.3,0.1-4.7,0.3l-0.4-2.5c2,0.4,3.5,0.6,5.1,0.6l6.1-0.1c0.1-4.8,0.1-5.7,0.1-10.5c-4,1.2-6.2,1.7-11.1,2.5L560.9,24.7z
		 M601.7,7.3c1.7-1.9,2.3-2.5,4.1-4.4c2.5,1.6,3.3,2.1,5.5,3.7c0.6,0.5,0.9,0.9,0.9,1.2c0,0.6-0.3,0.8-2.7,2.2
		c0.2,2.7,0.3,3.8,0.6,5.3c3-2.9,5.4-6,7.2-9.6c6.6,3.9,7.6,4.5,7.6,5.3c0,0.4-0.4,0.7-1.2,0.7c-0.2,0-0.2,0-2.1-0.1
		c-1.2,0.5-1.2,0.5-5,2.3c-1.2,0.6-2.8,1.2-6.3,2.4c8.7,0.5,11.3,1.6,11.3,4.5c0,1.8-1.2,3.5-2.4,3.5c-0.6,0-0.8-0.1-2.6-2.4
		c-1.7-2.2-3.8-3.7-6.1-4.7c0.6,2,1.2,3.3,2.2,4.8c1.9,3,4,4.7,7.9,6.3c1.7-3,2.3-4.1,4.8-9.6l0.7,0.3l-1.4,9.3
		c-0.1,0.4-0.1,0.6-0.1,0.7c0,0.4,0.1,0.7,0.9,1.2c1,0.9,1.4,1.7,1.4,3c0,2.2-1.5,3.6-3.8,3.6c-3.6,0-9.9-3.5-13.6-7.4
		c-3.2-3.5-5.3-7.9-6.5-13.2c-0.4-2-0.6-3.7-0.9-7.3h-31.3c-2.1,0-3.5,0.1-5.3,0.4l-0.5-2.7c2.1,0.5,3.5,0.6,5.8,0.6H601.7z
		 M587.4,33.4c0-2.3,0-4.4,0-6.2c0-0.4,0-4.3-0.1-9c-0.2,0.1-0.4,0.2-0.8,0.2c-0.4,0-0.8-0.1-1.8-0.4c-1.8,0.9-2.5,1.2-4.5,2.1V25
		c0,2.5-0.1,5.3-0.2,8.5L587.4,33.4z"/>
	<path d="M691.3,40.4c1.5-1.7,2.9-3.3,4.3-4.7c2.5,2.2,3.3,2.9,5.8,5.1c0.2,0.3,0.4,0.5,0.4,0.7c0,0.3-0.3,0.4-0.9,0.4h-20.2
		c0.9,3,1.7,5,3.3,7.7c2.1-2.7,2.7-3.8,3.9-6.6c9.2,3.8,9.2,3.8,9.2,4.5c0,0.7-0.8,0.9-3.3,0.9h-0.4c-2.6,3.2-3.7,4.4-5.6,6.3
		c2.2,2.4,3.5,3.4,6.6,5.1c2.2-3.2,2.2-3.2,6.4-10.8l0.7,0.3l-2.1,9.4c-0.3,1.9-0.3,1.9-0.3,2.4c0,0.5,0.1,0.6,1.2,2.1
		c0.6,0.6,0.9,1.4,0.9,2.3c0,2.2-1.6,3.8-3.7,3.8c-4.1,0-9.7-3.7-15.1-9.8c-2.9,2.1-5.8,3.8-9,5.3c-3.8,1.7-6.7,2.7-13.4,4.3
		l-0.3-0.9c8.8-4,13.6-7.3,19.4-13.1c-2.5-3.9-4.1-8-5.3-13.1h-9.2c-0.1,2.4-0.2,3.4-0.4,4.6c6.4,2.5,9.1,4.8,9.1,7.7
		c0,2.5-2,5-3.8,5c-0.9,0-1.4-0.7-1.9-3.2c-1.1-4.6-1.8-6.4-3.5-8.4c-0.7,4.4-1.7,7.8-3.5,11c-2.2,4.1-4.6,6.7-10.3,10.8l-0.6-0.7
		c3.8-5.4,5.6-9.5,6.7-15.5c0.6-3.8,0.7-4.4,0.8-11.3h-1.5c-1.4,0-2.5,0.1-3.8,0.5l-0.6-2.5c1.9,0.4,2.7,0.5,4.4,0.5h17.8
		c-0.7-3.8-1.4-8.2-1.7-12.8c-0.2-2.4-0.2-2.4-0.4-10.1h-0.9c-3.8,5-7.9,9.8-11.3,12.8c2.4-0.1,2.4-0.1,7.6-0.5
		c-0.2-1.7-0.3-2.3-1.1-5.1l0.5-0.4c3.4,2.4,5.3,5.3,5.3,7.9c0,2.2-1.7,4.4-3.3,4.4c-0.8,0-0.9-0.4-1.2-2.9c0-0.8,0-0.8-0.1-2
		c-2.7,1.2-4.4,2-9.5,3.8c-0.3,1.6-0.6,2.2-1.1,2.2c-0.6,0-0.6-0.1-1.7-4.5c-0.3,2.5-1.7,4.5-3.3,4.5c-0.6,0-0.9-0.6-1.1-2.5
		c-0.4-4.3-0.9-6-2.4-8.4c0,17,0.1,35.7,0.1,40.9c0,0.1,0,0.2,0,0.2c0,1.4-1,1.8-4.7,1.8c-2.5,0-2.8-0.1-2.8-1.4
		c0-0.9,0.2-8.2,0.6-21.9l0.1-7.5c-2.7,6.8-4.5,9.7-9.2,14.8l-0.6-0.5c4.3-9,7.2-19.9,8.9-32.4h-3.8c-1.3,0-2.2,0.1-3.6,0.4
		l-0.4-2.5c1.5,0.4,2.5,0.6,4,0.6h4.4v-7.5c0-3.2-0.1-4.9-0.4-8.4c9.9,0.8,10.3,0.9,10.3,1.8c0,0.6-0.3,0.7-2.9,1.7V19h0.7
		c1.4-1.7,1.7-2.2,3-3.8c2,1.9,2.6,2.5,4.3,4.5c0.2,0.2,0.3,0.4,0.3,0.5c0,0.2-0.3,0.4-0.7,0.4h-7.7v4.8c0.6,0.4,0.6,0.4,1.4,0.9
		c2.3,1.4,3.2,2.2,4.5,4.1c1.1,0,1.9,0,2.4,0c4.2-6,7.4-12.3,9.5-18c4.4,2.3,4.4,2.3,5.5,2.9c-0.1-7.8-0.1-7.8-0.4-12.1
		c8,0.6,8.7,0.7,9.6,1c0.5,0.2,0.8,0.4,0.8,0.8c0,0.6-0.8,1.1-3,1.6c-0.1,7.7-0.1,8.2-0.1,10.6c0,10.1,0.6,17.5,1.9,23.3H691.3z
		 M653.7,11.5c1.8,0.8,2.4,1,3.5,1.6c1.4-3.2,2.3-6.8,2.6-9.7c8.2,2.9,9.1,3.2,9.1,4c0,0.6-0.6,0.8-3.2,1c-3.4,3.1-4.5,4.2-6.6,5.8
		c1.1,0.6,1.4,0.9,1.7,1.2c0.9,0.7,1.4,1.7,1.4,2.8c0,2.5-1.6,5-3.2,5c-0.8,0-0.9-0.2-1.7-3c-0.9-3.2-1.7-4.7-4.1-8.1L653.7,11.5z
		 M692.5,23c3.4,1.9,4.6,2.7,5.6,3.8c1.3,1.2,1.9,2.5,1.9,3.7c0,2.2-2.1,4.8-4,4.8c-0.9,0-1.3-0.6-1.7-3c-0.1-0.9-0.2-1.4-0.4-2.4
		c-0.8,0.3-4.7,1.4-11.5,3.4c-0.4,1.7-0.4,1.9-0.7,2c-0.5,0.4-0.5,0.4-0.5,0.4c-0.1-0.1-0.1-0.1-0.4-0.2c-0.4-0.2-0.4-0.2-0.9-2.3
		c-0.4-1.7-0.6-2.5-1.1-4.8c0.7,0.1,1,0.1,1.6,0.1c0.1,0,0.3,0,0.6,0c0.2,0,0.5,0,0.9,0c4.8-6.4,8.8-12.9,10.2-16.6
		c1.7,0.8,3,1.4,3.9,1.8c3.4,1.6,4.1,2,4.1,2.7c0,0.7-0.7,0.8-2.9,0.8H697c-7.4,7.5-8.7,8.7-11.9,11.2c1.7-0.1,4.5-0.3,8.4-0.6
		c-0.6-2.1-0.9-2.7-1.7-4.3L692.5,23z M679.4,11.2c1.7,0.8,2.3,1.1,3.5,1.7c1.9-3.6,2.9-6.1,3.8-9.5c1.9,0.8,3.3,1.3,4.2,1.7
		c4,1.6,4.7,1.9,4.7,2.5s-0.6,0.9-3.5,0.9c-3.6,3-4.3,3.5-7.3,5.6c1.9,1.2,2.5,2.2,2.5,3.8c0,2-1.7,4.2-3.2,4.2
		c-0.9,0-1.3-0.7-1.7-3c-0.6-3.1-1.4-5.1-3.3-7.3L679.4,11.2z M684.8,32.8c5.5,1.4,7.2,2.4,7.2,4c0,1.7-1.4,3.4-2.8,3.4
		c-1,0-1.4-0.5-2.2-2.6c-0.7-1.7-1.4-2.9-2.6-4.3L684.8,32.8z"/>
	<path d="M706.9,68c5.1-4.5,8.1-7.7,11.3-12.1c2.3-3.2,3.2-4.7,4.2-7.2c8.6,2.8,10,3.4,10,4.3c0,0.7-0.7,0.9-3.4,1.1
		c-6.9,7.1-11.7,10.3-21.7,14.4L706.9,68z M750.9,16.1h7.4c1.7-1.7,2.2-2.3,4-4c2.6,1.7,3.3,2.2,5.7,3.9c0.6,0.5,0.9,0.8,0.9,1.2
		c0,0.6-0.6,1.1-2.1,1.9c0,8.1,0,8.1,0.1,12.1c0,1.7-0.8,2-5.3,2c-2.2,0-2.5-0.1-2.5-1.2v-1.2h-38.3v1.5c0,1.4-0.9,1.7-5.1,1.7
		c-2.3,0-2.7-0.2-2.7-1.4c0.3-8.2,0.3-9.5,0.3-12.3c0-3-0.1-4.5-0.4-7.9c3.8,1.4,5,1.9,8.7,3.8h7.1V8.6h-16c-1.5,0-3.3,0.1-4.8,0.4
		l-0.5-2.5c1.9,0.4,3.5,0.6,5.3,0.6h46.8c3.1-2.8,3.1-2.8,5.6-5.1c3.5,2.3,4.5,3,7.7,5.5c0.2,0.3,0.4,0.5,0.4,0.6
		c0,0.2-0.3,0.4-0.8,0.4h-21.4V16.1z M744.3,55.8c0,2.2,0,3.7,0.1,6.9c0,2.5-0.4,3.6-1.4,4.7c-1.3,1.2-3.5,2.1-6.9,2.5
		c-0.4,0.1-1.2,0.1-1.4,0.1c-0.6,0-0.9-0.2-0.9-1.2c-0.1-1.4-0.7-2.6-1.7-3.4c-0.6-0.5-1.8-1.1-3.6-1.7l-1.9-0.6
		c-0.7-0.2-1.3-0.4-1.9-0.6l0.1-0.8c7.6,0.3,7.6,0.3,10.6,0.4c0.1,0,0.1,0,0.2,0c0.7,0,0.9-0.2,0.9-1V46.7h-23.2
		c-1.7,0-2.9,0.1-4.6,0.5l-0.5-2.6c1.9,0.4,3.1,0.6,5.1,0.6H759c2.2-2.5,3-3.2,5.2-5.3c3.5,2.4,4.6,3.2,7.9,5.8
		c0.3,0.3,0.4,0.4,0.4,0.6c0,0.2-0.3,0.4-0.6,0.4h-27.6V55.8z M716.8,36.7c1.7,0.4,3.1,0.5,5.2,0.5h29.9c2.2-2.1,2.8-2.7,4.9-4.5
		c3.2,2.1,4.1,2.8,7.2,5.1c0.3,0.3,0.4,0.4,0.4,0.7c0,0.2-0.3,0.4-0.6,0.4H722c-1.7,0-3.2,0.1-4.7,0.4L716.8,36.7z M720.8,17.7v11.6
		h7.8V17.7H720.8z M735.9,8.6v7.6h7.7V8.6H735.9z M735.9,29.3h7.7V17.7h-7.7V29.3z M748.7,50c7.6,2,11.5,3.3,15.1,5.4
		c2.9,1.6,4.1,3.5,4.1,6.2c0,3.1-1.8,5.9-3.9,5.9c-0.8,0-1.4-0.5-2.2-1.9c-2.3-3.8-3.3-5.1-5.3-7.4c-2.7-3.1-4.8-5-8.1-7.7L748.7,50
		z M750.9,29.3h8.2V17.7h-8.2V29.3z"/>
</g>
</svg>
