<?xml version="1.0" encoding="utf-8"?>
<!-- Generator: Adobe Illustrator 18.0.0, SVG Export Plug-In . SVG Version: 6.00 Build 0)  -->
<!DOCTYPE svg PUBLIC "-//W3C//DTD SVG 1.1//EN" "http://www.w3.org/Graphics/SVG/1.1/DTD/svg11.dtd" [
	<!ENTITY ns_flows "http://ns.adobe.com/Flows/1.0/">
	<!ENTITY ns_extend "http://ns.adobe.com/Extensibility/1.0/">
	<!ENTITY ns_ai "http://ns.adobe.com/AdobeIllustrator/10.0/">
	<!ENTITY ns_graphs "http://ns.adobe.com/Graphs/1.0/">
]>
<svg version="1.1" id="圖層_1" xmlns:x="&ns_extend;" xmlns:i="&ns_ai;" xmlns:graph="&ns_graphs;"
	 xmlns="http://www.w3.org/2000/svg" xmlns:xlink="http://www.w3.org/1999/xlink" xmlns:a="http://ns.adobe.com/AdobeSVGViewerExtensions/3.0/"
	 x="0px" y="0px" viewBox="0 0 1058 72" style="enable-background:new 0 0 1058 72;" xml:space="preserve">
<g>
	<path d="M10.2,25.6v42.2c0,0.9-0.1,1.3-0.6,1.6C8.9,69.8,7.3,70,4.9,70c-2.2,0-2.8-0.4-2.8-1.5c0,0,0-0.1,0-0.2
		c0.4-11.5,0.5-20.7,0.5-44.7c0-10.2-0.1-14.9-0.4-20.5C6.1,4.7,7.3,5.2,11,7.2h10.1c1.6-1.9,2.2-2.4,3.8-4.2
		c2.5,1.7,3.2,2.3,5.7,4.2c0.6,0.5,0.8,0.8,0.8,1.1c0,0.6-0.4,0.9-2.3,1.9v5.4c0,3.9,0.1,6.6,0.2,11.5c0,0.7-0.1,1.1-0.6,1.3
		c-0.6,0.4-2.4,0.6-4.6,0.6c-2,0-2.4-0.2-2.4-1.4v-1.8H10.2z M21.8,8.7H10.2v6.6h11.5V8.7z M21.8,16.8H10.2v7.3h11.5V16.8z
		 M43.2,45.8h1.5c1.6-1.9,2.1-2.5,3.8-4.4c2.5,2.2,3.2,2.8,5.6,5.1c0.2,0.2,0.3,0.4,0.3,0.4c0,0.2-0.2,0.4-0.6,0.4H43.2v4.6
		c0,3.5,0,6.7,0.1,13.1c0,0.1,0,0.2,0,0.2c0,0.9-0.3,1.3-1.1,1.6c-0.6,0.1-2.8,0.4-4,0.4c-1.9,0-2.4-0.4-2.4-1.7l0.1-13.6v-4.7h-7
		c-1,10.8-5,16.1-15.9,20.9l-0.5-0.7c6.5-5.8,8.6-10.3,9.3-20.2h-4.6c-1.5,0-3,0.1-4.2,0.4l-0.4-2.4c1.7,0.4,2.7,0.5,4.7,0.5H22
		c0.1-2.9,0.1-4.1,0.1-6.2c0-1.3,0-1.8-0.1-4.7h-3.4c-1.4,0-2.7,0.1-3.9,0.4l-0.4-2.4c1.5,0.4,2.9,0.5,4.4,0.5H42
		c1.7-2,2.3-2.6,4-4.5c2.9,2.2,3.7,2.8,6.2,5.1c0.2,0.3,0.3,0.4,0.3,0.6c0,0.2-0.2,0.4-0.6,0.4h-8.7V45.8z M29.2,34.9c0,1,0,2,0,2.9
		c0,2.7-0.1,5.2-0.2,8h7V34.9H29.2z M43.5,25.6V27c-0.1,1.4-1.1,1.8-4.7,1.8c-2.5,0-2.9-0.2-2.9-1.6C36,20.1,36,19.4,36,13.7
		c0-6.6,0-7.2-0.3-10.5c3.7,1.6,4.8,2.2,8.2,3.9h10.5c1.7-1.9,2.3-2.4,3.9-4.3c2.6,1.7,3.4,2.3,6,4.1c0.7,0.6,1,0.9,1,1.3
		c0,0.6-0.1,0.6-2.3,2.2v31.2c0,8,0.1,12,0.2,21.1c-0.1,3.9-1.4,5.5-5.6,6.5c-1.3,0.4-3.2,0.6-4.1,0.6c-0.8,0-1-0.2-1-1.3
		c-0.1-1.7-0.7-3.4-1.5-4.2c-0.9-1-1.9-1.4-5.6-2.8v-0.8c4.9,0.3,6.2,0.4,7.7,0.4c0.3,0,0.7,0,1.3,0c0.9-0.1,1-0.2,1-1.8V25.6H43.5z
		 M55.5,8.7H43.5v6.6h12.1V8.7z M55.5,16.8H43.5v7.3h12.1V16.8z"/>
	<path d="M91.1,13.6c6.2,2.6,8.2,4.2,8.2,6.2s-2.5,4.6-4.6,4.6c-0.4,0-0.6-0.1-0.9-0.4c-0.3,0.3-0.5,0.4-1.4,0.8v7.4h2
		c1.6-2.2,2-2.8,3.7-4.8c2.6,2.3,3.3,3,5.6,5.4c0.2,0.2,0.4,0.4,0.4,0.5c0,0.2-0.2,0.4-0.7,0.4H92.6v4.6c6.5,2.3,10,5.1,10,8
		c0,2.8-1.9,5.7-3.7,5.7c-0.9,0-1.4-0.6-1.9-2.3c-1.7-6.1-2.5-7.7-4.4-9.9v8c0,7.8,0,7.8,0.1,19.7c-0.1,1.6-0.9,1.9-5,1.9
		c-2.4,0-2.7-0.1-2.7-1.4c0.4-11.1,0.4-11.1,0.4-14.6l0.1-6.5c-3.6,5.9-6.1,8.6-12.8,13.9l-0.6-0.6c4.3-5.7,7.2-11.2,10.3-19
		c1-2.5,1.4-3.9,2.4-7.5h-5.6c-1.8,0-2.9,0.1-4.6,0.5l-0.4-2.7c1.7,0.4,3.3,0.6,5,0.6h6.3v-4.4c0-2.2-0.1-3.4-0.4-6
		c6,0.6,7.5,0.8,8.3,1.1c-0.1-0.2-0.1-0.3-0.1-0.5c-0.6-3.7-1.5-6-3.3-8.8h-3.2c-4.2,4.9-7.9,8.2-13.6,12L72.6,25
		c3.6-4.8,5.7-8.2,7.9-13.3c1.9-4.1,2.4-5.7,2.9-8.6c2.2,0.4,4.1,0.9,5.2,1.1c5.2,1.1,5.9,1.3,5.9,2c0,0.7-0.7,1-3.4,1.4
		c-1.4,2.2-1.9,3-3,4.6h8.5c1.9-2.2,2.4-2.9,4.3-5c2.7,2,2.7,2,6.8,5.5c2-4.4,2.7-6.2,3.2-9.3c9.8,1.8,10.9,2.2,10.9,3
		c0,0.7-1.1,1.1-3.4,1.4c-1.3,2.2-1.8,2.9-3,4.4h12.1c2.3-2.6,2.3-2.6,4.7-5.4c3.4,2.4,4.4,3.2,7.5,5.8c0.3,0.3,0.4,0.5,0.4,0.6
		c0,0.3-0.4,0.4-0.8,0.4h-21.8c6.2,2.5,8.4,4.2,8.4,6.6c0,1.9-2.5,4.4-4.5,4.4c-1,0-1.5-0.6-1.7-2.3c-0.4-3.2-1.3-5.5-3.1-8.7H114
		c-3.7,4.2-7,7-12.2,10.5l-0.7-0.4c2.9-3.9,3.7-5.3,6-10.1H91.1z M126.3,26.2c1.8-1.8,2.4-2.4,4.1-4.1c2.5,1.9,3.2,2.4,5.7,4.2
		c0.6,0.5,0.9,0.8,0.9,1.1c0,0.6-0.5,1-2.4,2v22.7c0,3.5,0.1,8,0.3,14.9c-0.1,0.8-0.2,1.2-0.6,1.5c-0.6,0.4-2.4,0.6-4.7,0.6
		c-2.1,0-2.6-0.3-2.6-1.4v-3h-14.8v2.8c-0.1,1.7-0.9,1.9-5.2,1.9c-2.2,0-2.5-0.2-2.5-1.5c0.1-4.2,0.4-20.2,0.4-30.2
		c0-4.3-0.1-10.6-0.4-15.4c3.7,1.6,4.7,2,8.1,3.8H126.3z M126.9,37.7v-9.9h-14.8v9.9H126.9z M112.1,39.2v10.6h14.8V39.2H112.1z
		 M112.1,51.4v11.9h14.8V51.4H112.1z"/>
	<path d="M175.8,12.3V8.5c0-2.2-0.1-3-0.2-5.2c9.4,0.6,11.5,1,11.5,2.2c0,0.7-0.9,1.2-3,1.7v5h16.9c1.7-1.9,2.2-2.5,4.2-4.4
		c3.4,2.4,4.4,3.2,7.7,5.9c0.6,0.5,0.9,0.9,0.9,1.2c0,0.9-1.4,1.4-4.8,1.5c-3.7,1.9-5,2.5-9.1,4.2l-0.7-0.4c1.1-2.4,1.6-3.5,2.6-6.5
		h-43.5c0,0.3,0,0.5,0,0.6c0,6.5-3.1,11.7-7,11.7c-1.2,0-2.1-0.6-2.8-1.9c-0.5-1-0.8-2.2-0.8-3.2c0-0.9,0.3-1.9,0.7-2.5
		c0.4-0.6,0.4-0.6,2.5-1.7c3.6-1.8,5-4.2,5.6-9.2h0.6c0.6,2.2,0.8,2.9,0.9,4.6H175.8z M172.3,35c3.4-2.4,5.9-4.4,9-7.3
		c4.5-4.2,6.8-6.9,9-10.8c2.9,1.4,6.6,3.3,7.6,4c0.4,0.3,0.5,0.4,0.5,0.6c0,0.6-0.6,0.9-2.7,0.9h-0.1c-6.7,7-11.1,10.4-18.6,14.9
		l0.4,0.1c10,0,12.1-0.2,13.1-1c1.1-0.9,1.8-2.2,4.9-10l0.7,0.1l-0.2,6.9v1.1c0,0.7,0.2,0.9,1,1.3c2,0.7,2.7,1.5,2.7,3.1
		c0,1.4-1.3,2.7-3.3,3.2c-1.6,0.5-5.9,0.6-15.1,0.6c-9.3,0-10.8-0.1-13-0.8c-6.8,3-11.4,4.5-19.7,6.3l-0.4-0.7
		c7.7-3.1,13.1-5.7,17.5-8.3c-0.2-0.6-0.3-0.9-0.4-1.8c0-0.6,0-1.1,0-1.5c0-0.5,0-0.5,0.1-3.9v-7c0-0.7,0-1-0.2-4.7
		c7.9,0.5,9.3,0.8,9.3,1.7c0,0.5-0.6,0.9-2.2,1.7V35z M161.4,22.5c0.1,1,0.1,1.9,0.1,2.4c0,4.3-1.1,8.8-2.9,11.5
		c-1.4,2-3.3,3.3-4.9,3.3c-1.8,0-3.4-2.4-3.4-4.9c0-1.8,0.5-2.5,2.7-3.7c4.4-2.2,6.2-4.2,7.6-8.5H161.4z M176.2,50.9
		c0-3.2-0.1-3.9-0.4-6.2c4.1,0.2,8.5,0.7,9.8,1c0.7,0.1,1.1,0.5,1.1,0.9c0,0.6-0.6,1-2.7,1.7v15.4h12.5V53.4c0-1.9,0-3.1-0.1-5.5
		c9.3,0.6,10.6,0.9,10.6,1.9c0,0.8-0.7,1.3-2.7,1.9l-0.1,6.6c0,3.2,0.1,4.9,0.3,9.3c0,0.1,0,0.2,0,0.3c0,0.7-0.2,1.2-0.6,1.4
		c-0.7,0.3-2.5,0.5-4.7,0.5c-2.3,0-2.7-0.2-2.7-1.4v-3.1h-32.8v2.6c-0.1,1.1-0.4,1.4-1.4,1.7c-0.6,0.1-2.6,0.2-4.1,0.2
		c-2.1,0-2.5-0.4-2.5-1.9c0.2-4.3,0.3-8.9,0.3-14.8c0-1.9-0.1-2.8-0.3-4.8c8.5,0.6,9,0.6,10,1c0.6,0.3,0.9,0.5,0.9,0.9
		c0,0.6-0.9,1.2-2.9,1.7v11.9h12.6V50.9z M171.8,15.3c4.3,0.5,7.2,1.1,9,2c1.8,0.8,2.4,1.7,2.4,3.4c0,2.4-1.9,5-3.8,5
		c-0.9,0-1.1-0.3-2.3-2.7c-1.4-2.8-2.9-4.7-5.7-7.1L171.8,15.3z M198.1,23.6c4.4,1.7,7.4,3.2,9.8,4.9c2.7,1.9,3.5,3.1,3.5,5
		c0,3-2.4,6-4.9,6c-0.5,0-1-0.3-1.3-0.8c-0.2-0.4-0.2-0.4-0.8-2.1c-1.8-5.4-3.7-9-6.7-12.6L198.1,23.6z"/>
	<path d="M236.8,11c-1.9,8.5-3.2,12.3-6.2,18.9l0.4,0.4h5.5c1.5-1.7,2-2.3,3.6-3.9c2.2,1.6,2.8,2.2,4.8,3.9c0.5,0.4,0.6,0.6,0.6,1
		s-0.2,0.7-0.6,0.9c-1,0.6-1,0.6-1.4,0.9c-0.1,2.8-0.1,4.7-0.1,5.9c0,3,0.1,12.2,0.2,18.5c0.5-0.9,0.7-1.2,1.7-2.1
		c3-2.7,3.6-3.8,4.3-8.7l0.9-0.3c0.9,2.9,1.1,4.4,1.1,7c0,6-2.2,10.4-5.1,10.4c-1.4,0-2.7-1.1-3-2.8c-0.3,0.5-0.5,0.7-0.9,0.8
		c-1.1,0.4-3.3,0.6-4.4,0.6c-1,0-1.4-0.4-1.4-1.1v-3.2h-5.1v6.7c0,0.4-0.1,0.7-0.2,0.9c-0.4,0.4-1.9,0.7-3.7,0.7
		c-0.5,0-0.9,0.1-1.2,0.1c-0.1,0-0.2,0-0.3,0c-1.2,0-1.6-0.3-1.6-1.2c0.3-8.1,0.4-11.7,0.4-19.3v-6.4c-1.9,2.8-2.9,4.1-5.7,6.8
		l-0.6-0.6c3.5-7,5.5-12.6,7.6-21.4c1.2-5.1,2.1-9.8,2.4-13.3h-3.8c-1.7,0-2.4,0.1-3.7,0.4L220.6,9c1.6,0.4,2.7,0.6,4.3,0.6h11.8
		c2-2.3,2.6-3,4.5-5.1c2.6,2.3,3.4,3,5.7,5.2c0.3,0.4,0.4,0.6,0.4,0.9c0,0.2-0.3,0.4-0.5,0.4H236.8z M231.6,56.6h5.1V31.8h-5.1V56.6
		z M273.2,19.2c1.9-2.2,2.4-2.7,4.2-4.7c2.7,2.2,3.6,2.8,6,5c0.4,0.3,0.4,0.5,0.4,0.7c0,0.3-0.2,0.4-0.6,0.4h-13.5v9.2h3.7
		c1.7-2.2,2.3-2.8,4-4.7c2.9,2.2,3.7,2.9,6.2,5.3c0.2,0.2,0.3,0.4,0.3,0.5c0,0.3-0.2,0.4-0.7,0.4h-13.6v9.4h7.9
		c1.6-1.7,2-2.2,3.5-3.9c2.4,1.6,3,2.1,5.2,3.9c0.7,0.5,0.9,0.9,0.9,1.2c0,0.7-0.4,1.1-2.2,2.1c-0.2,1.5-0.2,1.5-0.6,5.6
		c-0.8,8-1.6,11.8-3.3,14.7c-1.8,3.2-5.5,5.2-9.3,5.2c-0.9,0-1.1-0.1-1.2-0.9c0-0.1-0.1-0.2-0.1-0.5c0-0.1-0.1-0.4-0.2-0.9
		c-0.4-2.1-1.4-3.2-3.8-4.1c-1.7-0.7-3.2-1.1-5.2-1.4v-1l10.5,0.9c0.6,0,1.1,0.1,1.4,0.1c1.1,0,1.9-0.6,2.3-2.1
		c1.1-3.3,1.9-9.5,2.2-17.2h-22.5v1.6c-0.1,0.6-0.2,0.9-0.8,1c-0.7,0.2-2.8,0.4-4.2,0.4c-1.8,0-2.3-0.3-2.4-1.2
		c0-1.6,0.1-2.9,0.1-3.7c0.1-3.8,0.1-6.2,0.1-7.1c0-3.9-0.4-27-0.4-28.6c3.6,1.5,4.7,2.1,8.1,3.9h18c2-2.4,2.7-3,4.7-5.1
		c2.9,2.4,3.8,3.1,6.6,5.4c0.2,0.3,0.4,0.5,0.4,0.6c0,0.3-0.3,0.5-0.7,0.5h-15.1v9.3H273.2z M254.9,46.2c4.4,4.4,5.9,7,5.9,10
		c0,2.9-2.2,5.5-4.7,5.5c-1,0-1.6-0.6-1.6-1.5c0-0.1,0.1-0.8,0.2-1.4c0.4-2.4,0.6-4.2,0.6-6.1c0-2.2-0.2-3.5-1-6L254.9,46.2z
		 M262.6,10h-7.3v9.3h7.3V10z M255.3,20.7v9.2h7.3v-9.2H255.3z M255.3,31.4v9.4h7.3v-9.4H255.3z M260.7,45.3c6,3.5,8.2,5.7,8.2,8.4
		c0,2.4-1.9,4.8-3.9,4.8c-1,0-1.5-0.6-1.5-1.9c0,0,0-0.4,0-0.6c0-0.2,0-0.4,0-0.6c0-3-0.9-5.7-3.2-9.7L260.7,45.3z M267.5,44.2
		c3.4,1.1,5,1.9,6.2,2.7c1.4,1.1,2.1,2.3,2.1,3.7c0,2.1-1.6,4.4-2.9,4.4c-0.7,0-1.1-0.5-1.3-1.8c-0.6-3.1-2-5.8-4.4-8.5L267.5,44.2z
		"/>
	<path d="M311.2,45.7c0,4.4,0,4.4,0,8.1h3.3c1.6-1.9,2.1-2.6,3.9-4.5l3.6,3.1l2,1.7c0.2,0.3,0.4,0.5,0.4,0.6c0,0.4-0.4,0.6-0.8,0.6
		h-12.3c0,2.2,0,2.2,0.1,12.8c0,0.1,0.1,0.2,0.1,0.3c0,0.9-1.1,1.3-4.2,1.3c-1.9,0-2.3-0.2-2.2-1.2c0.1-6.5,0.1-6.7,0.1-13.2H297
		c-1.4,0-2.3,0.1-3.7,0.4l-0.5-2.5c1.4,0.4,2.8,0.6,4.1,0.6h8.3v-8.1h-3.8V48c0,0.4-0.1,0.6-0.3,0.7c-0.4,0.4-2,0.6-3.7,0.6
		c-1.7,0-2.2-0.3-2.2-1.1c0.1-2.9,0.2-18.5,0.2-23.6c0-2.4-0.1-3.6-0.3-6c2.9,1.4,3.9,1.9,6.7,3.7h3.4l-0.1-7.1h-7.5
		c-0.8,0-1.5,0.1-3.5,0.3l-0.4-2.3c1.8,0.4,2.6,0.5,3.9,0.5h7.6c-0.1-2.2-0.1-3.9-0.1-5c0-2.8,0-3.4-0.3-5.4c8.9,1,9.5,1.1,9.5,2
		c0,0.6-0.6,1-3,1.7v6.7h2.4c1.9-2.4,1.9-2.4,3.7-4.6c2.4,2,3.1,2.7,5.3,5c0.2,0.3,0.4,0.5,0.4,0.6c0,0.2-0.4,0.4-0.7,0.4h-11v4.9
		c0,0.9,0,1.6,0,2.2h3.4c2-2.1,2-2.1,3.4-3.5c2,1.5,2.6,1.9,4.4,3.6c0.5,0.4,0.6,0.6,0.6,0.9c0,0.6-0.5,1-2.3,1.9v8.4
		c0,2.2,0.1,8.8,0.1,13.1c0,0.1,0.1,0.2,0.1,0.2c0,0.4-0.1,0.6-0.3,0.8c-0.5,0.4-1.9,0.7-3.7,0.7c-1.4,0-1.9-0.3-1.9-1.1v-1.7H311.2
		z M305.2,23.9h-3.9v8.8h3.9V23.9z M305.2,34.1h-3.8v10h3.8V34.1z M315,23.9h-3.8v8.8h3.8V23.9z M315,34.1h-3.8c0,0.1,0,3.5,0,10
		h3.8V34.1z M353.8,50.8c1.3-1.4,1.7-1.9,3.2-3.3c1.9,1.4,2.6,1.9,4.7,3.8c0.3,0.3,0.4,0.4,0.4,0.6s-0.3,0.4-0.6,0.4h-8.8v4.6
		c0,0.7,0,0.7,0.1,6.8c-0.1,3.3-1,4.4-4.3,5.4c-1.4,0.4-3,0.7-4,0.7c-0.6,0-0.8-0.2-0.9-1.1c-0.1-1.7-0.7-3.2-1.6-3.8
		c-0.9-0.7-1.7-1-4-1.6c-1.1,1.6-2.2,2.3-3.4,2.3c-0.9,0-1.4-0.7-2-2.5c-1.1-3.5-2.8-6.4-5.3-9l0.3-0.4c3.8,0.9,6.6,1.7,8.4,2.7
		c1.9,1,2.7,2.2,2.7,4.1c0,0.6-0.1,1.1-0.3,1.7c3.7,0.3,3.9,0.3,6.2,0.3c0.9,0,1.3-0.3,1.3-1.1v-9.1h-19.8c-1.1,0-1.9,0.1-3.3,0.2
		l-0.5-2.2c1.4,0.4,2.4,0.5,3.6,0.5h20v-1c0-1.2-0.1-2.3-0.4-4.6c4.6,0.5,6,0.6,8,1c-1-1.7-1.1-1.9-2.3-3.4
		c-6.1,1.7-16.9,3.7-24.8,4.7c-0.4,1.7-0.7,2.4-1.4,2.4c-0.9,0-1.3-1.1-2.5-8.4c3.1,0.1,4.5,0.2,5.7,0.2c0.4,0,5.3-0.1,9-0.2v-5.9
		h-6.2v1.9c-0.1,0.6-0.3,0.8-0.9,0.9c-0.5,0.1-2.6,0.3-3.9,0.3c-1.6,0-2-0.3-2-1.3c0-0.9,0-1.4,0-1.9c0-0.3,0-0.3,0.1-3.2
		c0-0.7,0.1-7.5,0.1-12.2c0-1.9-0.1-3.3-0.3-5.6c3.3,1.4,4.2,1.9,7.2,3.8h5.9v-6h-10c-1.3,0-2.3,0.1-3.9,0.3l-0.4-2.4
		c1.6,0.4,3.2,0.6,4.4,0.6h10V9.6c0-2.2-0.1-3.6-0.3-6.2c1.9,0.2,3.4,0.4,4.4,0.5c3.9,0.4,5.4,0.8,5.4,1.5c0,0.6-0.2,0.7-2.8,1.8
		v3.5h6.1c1.9-2.1,2.5-2.8,4.4-4.9c3.1,2.2,4,3,7,5.5c0.2,0.2,0.4,0.4,0.4,0.6c0,0.2-0.3,0.4-0.6,0.4H344v6h6c2.1-2,2.1-2,3.9-3.8
		c2.2,1.6,2.9,2.1,5.1,3.8c0.5,0.4,0.8,0.6,0.8,1c0,0.5-0.5,0.9-2.2,1.9c0,3.9,0,3.9,0,4.5c0,1.7,0.1,7.5,0.1,10.3
		c-0.1,0.6-0.1,0.9-0.6,1.1c-0.6,0.3-2.9,0.6-4.2,0.6c-1.3,0-2.1-0.3-2.1-0.8c0-0.1,0-0.1,0-0.1v-1.1H344v5.7
		c3.2-0.1,3.2-0.1,5.9-0.2c-1.1-1.2-1.7-1.7-3.4-3l0.3-0.6c9.6,2.2,11.8,3.3,11.8,6.1c0,2-1.6,3.9-3.2,3.9c-0.2,0-0.5-0.1-0.9-0.1
		c-0.3,0.5-0.6,0.6-1.9,1.1v2.4H353.8z M337.3,19.8h-6.2V26h6.2V19.8z M337.3,27.5h-6.2v6.6h6.2V27.5z M350.9,19.8H344V26h6.9V19.8z
		 M350.9,27.5H344v6.6h6.9V27.5z"/>
	<path d="M395.7,41.3c0-2.4-0.1-4.2-0.5-7.6c8.8,0.9,9.5,0.9,10.5,1.3c0.6,0.2,1,0.6,1,0.9c0,0.5-0.5,0.9-2.7,1.9v8.7h10.3
		c2.4-2.7,3.1-3.6,5.5-6.2c3.6,2.7,4.7,3.5,8.5,6.5c0.4,0.4,0.5,0.6,0.5,0.8c0,0.3-0.3,0.4-0.9,0.4h-23.9v16.6h14.8
		c2.7-2.8,3.4-3.7,6-6.3c3.7,2.8,4.8,3.7,8.4,6.6c0.4,0.3,0.5,0.5,0.5,0.7c0,0.3-0.4,0.5-0.8,0.5h-58.6c-1.9,0-3.2,0.1-5.9,0.4
		l-0.4-2.6c2.2,0.4,4.1,0.6,6.5,0.6h21.2V48h-15.8c-2.2,0-3,0.1-5.1,0.4l-0.5-2.4c1.9,0.4,3.7,0.6,5.6,0.6h15.8V41.3z M403.1,9.3
		c-5.5,8.3-8.5,12.1-13.9,17.9c13.1-0.4,22.2-0.9,27.1-1.6c-2.9-3.8-4.8-6-9-9.8l0.4-0.7c6.2,2.4,11,4.7,15.9,7.8
		c3.2,2.1,4.6,3.9,4.6,6.3c0,1.5-0.5,3.4-1.3,4.9c-0.9,1.5-1.9,2.3-2.9,2.3c-0.4,0-0.9-0.2-1.2-0.4c-0.5-0.5-0.5-0.5-1.9-3.5
		c-0.6-1.1-1.5-2.6-2.9-4.6c-9.7,2.3-23.3,4.7-40.7,7c-0.6,2.1-0.9,2.7-1.5,2.7c-0.9,0-1.3-1.1-3.4-10.5c2.8,0.1,4,0.2,6.7,0.2
		c2.1,0,3.7,0,6.5-0.1c1.8-3.8,5.2-13.4,6.3-17.9h-16c-2.6,0-4.6,0.1-6.4,0.5l-0.5-2.7c2.4,0.4,4.4,0.6,6.9,0.6h41.4l5.5-5.8
		c3.7,2.4,4.9,3.2,8.7,6c0.3,0.4,0.4,0.6,0.4,0.8c0,0.3-0.4,0.5-0.9,0.5H403.1z"/>
	<path d="M448.2,60.3c3.3-0.1,4.3-0.2,5.4-0.9c1.7-0.9,2.2-2.7,2.2-7.3v-33c-0.1-3.7-0.1-3.7-0.2-4.3c-0.3-1.6-1.2-1.9-4.9-1.9h-1.9
		v-2c6.8-0.6,12.1-1.3,16.8-2.2c-0.4,5.1-0.6,11.1-0.6,18.1v25.3c0,4.4,0.4,6.2,1.7,7.2c1,0.8,1.9,0.9,5.5,1v2h-23.9V60.3z"/>
	<path d="M503.1,43.5c-9.5,0-16.1-6.7-16.1-16.6c0-11,7.4-18.3,18.5-18.3c6.2,0,11.3,2.4,14.3,7c3.2,4.7,4.5,10.4,4.5,18.6
		c0,19.1-7,29.3-20.2,29.3c-8.7,0-15.3-3.9-15.3-9.1c0-2.8,1.9-4.4,5.2-4.4c1.8,0,3.3,0.5,3.9,1.4c0.4,0.6,0.4,0.8,0.6,3.9
		c0.3,4.2,2.3,6.5,5.7,6.5c4.3,0,7.4-3.3,8.9-9.5c0.9-3.8,1.5-9,1.5-13.6C510.9,42.2,507.8,43.5,503.1,43.5z M513.4,36.1
		c1-1.8,1.4-3.9,1.4-7.2c0-4.8-0.9-9.5-2.3-13.1c-1.4-3.4-4.2-5.5-7.2-5.5c-5.5,0-8.8,6.1-8.8,16.3c0,4.9,0.9,8.6,2.8,11.2
		c1.6,2.2,3.7,3.3,6.1,3.3C508.6,41.2,511.6,39.2,513.4,36.1z"/>
	<path d="M554.5,28.6c9.6,0,16.1,6.7,16.1,16.6c0,11-7.4,18.3-18.4,18.3c-12.2,0-18.8-9-18.8-25.6c0-9.7,2-17.6,5.7-22.5
		c3.4-4.6,8.2-6.8,14.6-6.8c8.7,0,15.2,3.9,15.2,9c0,2.6-1.9,4.2-5.2,4.2c-1.8,0-3.3-0.5-3.9-1.4c-0.4-0.6-0.4-0.8-0.6-3.7
		c-0.2-4.1-2.3-6.3-5.7-6.3c-4.4,0-7.5,3.3-9,9.5c-0.9,3.9-1.5,9-1.5,13.6C546.6,29.9,549.7,28.6,554.5,28.6z M544.1,36
		c-1,1.7-1.4,3.9-1.4,7.2c0,4.9,0.8,9.5,2.3,13.1c1.4,3.4,4.2,5.5,7.2,5.5c5.5,0,8.8-6.1,8.8-16.3c0-8.9-3.4-14.4-8.9-14.4
		C548.9,31,545.9,32.8,544.1,36z"/>
	<path d="M598.8,34.9c10.9,0.9,16.5,5.6,16.5,13.8c0,9.2-7.1,14.8-18.7,14.8c-10.2,0-17.6-4.7-17.6-11.1c0-2.7,2-4.3,5.4-4.3
		c1.7,0,3.1,0.5,3.7,1.4c0.4,0.6,0.4,0.7,0.6,4c0.1,2,0.9,4.4,1.9,5.7c1.1,1.5,3.4,2.4,5.9,2.4c6,0,9.3-4.8,9.3-13.1
		c0-4.9-1.4-8.5-3.9-10.4c-1.9-1.4-5.4-2.3-9.3-2.3h-2.2v-2.2h2c8.1-0.1,12.3-4.3,12.3-12.4c0-7-2.7-10.7-7.7-10.7
		c-2.7,0-4.6,1-5.7,3c-0.9,1.6-1.4,3.7-1.4,5.8c-0.1,2.4-0.2,2.9-0.9,3.6c-0.7,0.7-2,1.1-3.7,1.1c-3.3,0-5-1.2-5-3.5
		c0-6.7,7.4-11.8,16.9-11.8c5.1,0,9.8,1.4,12.8,3.9c2.4,2.1,3.9,5.4,3.9,8.8c0,7-5.4,11.7-15.1,12.9V34.9z"/>
	<path d="M661.8,54.7c4.4-0.9,9.3-1.9,11.6-2.6c-1.4-3.3-2.4-4.9-5.5-9.5l0.5-0.6c5.2,3.2,8,5.2,10.4,7.5c2.8,2.7,4.3,5.2,4.3,7.3
		c0,3.2-2.8,7-5.1,7c-0.5,0-1-0.3-1.2-0.7c-0.4-0.6-0.4-0.6-1.3-4.5c-0.2-1-0.6-2.3-1.4-4.4c-4.5,2.8-13.3,7.2-19.7,9.9
		c-0.4,2.3-0.6,2.9-1.3,2.9c-0.9,0-0.9,0-3.9-10.5c2.5-0.1,3.4-0.3,4.7-0.4V16.5c0-3.4-0.2-8.5-0.4-11.5c3.9,1.9,5,2.5,8.8,4.6h11
		c1.6-1.7,2.1-2.3,3.8-4.2c2.7,1.9,3.5,2.4,6,4.3c0.6,0.5,0.9,0.8,0.9,1.2c0,0.6-0.6,1.1-2.6,2.1v13.5l0.1,7.3l0.1,4.7
		c0,1-0.3,1.4-1.1,1.7c-0.6,0.3-3.1,0.6-4.6,0.6c-1.6,0-2.1-0.4-2.1-1.6v-2h-12.1V54.7z M673.9,11.1h-12.1v11.3h12.1V11.1z
		 M673.9,23.9h-12.1v11.8h12.1V23.9z M695,55.7c0,0.8,0,2.8,0.1,5.9c0.1,1.1,0.1,3.2,0.1,5.5c-0.1,1.1-0.2,1.7-0.8,1.9
		c-0.7,0.5-2.8,0.8-5.1,0.8c-1.9,0-2.4-0.4-2.4-2c0.3-10.7,0.4-17.4,0.4-32.7c0-19.2-0.1-23.9-0.5-29.7c3.9,1.7,5.2,2.3,8.8,4.3h8.3
		c1.7-1.8,2.2-2.4,3.9-4.3c2.7,1.9,3.4,2.4,5.7,4.3c0.7,0.6,1.1,1.1,1.1,1.5c0,0.6-0.7,1.3-2.4,2.2v21.4c0,1.4,0.1,7.2,0.2,17.6
		c-0.1,3.7-1.1,5.5-3.8,6.7c-1.6,0.7-4.1,1.3-5.8,1.3c-1.1,0-1.2-0.1-1.4-1.5c-0.4-4.1-2-5.6-6.5-6.5V55.7z M695,51.2
		c4.8,0.4,5.7,0.4,8.6,0.4c0.6-0.1,0.9-0.3,0.9-0.9V11.1H695V51.2z"/>
	<path d="M742.4,42.6c-5.9,7-11.4,11.5-20.2,16.8l-0.5-0.6c7.9-7.2,13.2-13.8,17.9-22.2c3.4-6,5.7-11.3,7.8-17.9h-16.9
		c-2.2,0-3.5,0.1-4.9,0.5l-0.5-2.6c1.9,0.4,3.4,0.6,5.5,0.6H748c1.7-5.8,2.4-9.6,2.6-14c10.2,1.4,11.6,1.8,11.6,2.7
		c0,0.6-0.9,1.1-3.3,1.6c-1.1,4.7-1.6,6.3-2.7,9.7h10.4c1.8-1.6,2.3-2.2,4.2-3.7c2.4,1.7,3.2,2.2,5.5,4c0.5,0.4,0.7,0.7,0.7,1.1
		c0,0.6-0.6,1-2.9,1.9c-0.2,1.1-0.4,2.1-0.5,2.7c-0.6,3.6-0.6,3.8-1.2,6.2h1.2c1.5-1.4,2-1.9,3.5-3.2c2,1.6,2.7,2.1,4.6,3.8
		c0.5,0.4,0.6,0.6,0.6,0.9c0,0.6-0.7,1.1-2.9,1.8c-0.4,2.4-0.4,2.4-1.6,8.5h2.3c1.6-1.6,2-2.1,3.6-3.5c2.5,1.9,3.2,2.4,5.5,4.2
		c0.6,0.4,0.8,0.8,0.8,1.1c0,0.6-0.6,1-2.7,1.9C786.3,55,785.3,60,783.7,64c-1.4,3.2-3.3,4.4-8.7,5.4c-0.8,0.1-1.7,0.3-2.1,0.3
		c-0.7,0-0.9-0.3-1-1.2c-0.3-3.4-1.8-4.7-8.5-7l0.1-0.8c6,0.6,8.8,0.8,10.7,0.8c1.9,0,2.5-0.6,3.2-2.9c0.9-3,1.9-9,2.4-16H742.4z
		 M731.6,3.9c8.7,1.9,12.3,4.1,12.3,7.5c0,2.7-2.4,5.6-4.7,5.6c-0.4,0-0.8-0.2-1.1-0.5c-0.6-0.5-0.6-0.5-1.4-3.2
		c-0.9-2.8-2.4-5.4-5.4-8.9L731.6,3.9z M740.7,48.6c0.9,3.2,1.2,4.9,1.2,7.3c0,6.2-2.6,10.9-6,10.9c-2.1,0-3.7-2.3-3.7-5.2
		c0-0.8,0.1-1.5,0.4-2c0.2-0.3,0.6-0.6,2.1-1.6c1.1-0.7,2.5-2.3,3.4-3.7c1-1.6,1.4-2.9,1.9-5.7H740.7z M770.4,41.1
		c1.4-6.7,1.4-6.7,1.9-10.3h-21.9c-2.2,4.1-4,6.9-6.7,10.3H770.4z M746.8,47.6c5.5,4.3,8,7.7,8,10.6c0,3-2.7,6.3-5,6.3
		c-1.3,0-1.7-1.1-1.7-4.4c0-4.5-0.4-7.9-1.7-12.3L746.8,47.6z M755.6,18.6c-1.5,4.2-2.7,7-4.5,10.8H765c1.1-5.8,1.1-5.8,1.8-10.8
		H755.6z M755.9,46.3c7,3.9,9.5,6.2,9.5,8.7c0,2.7-2.2,5.6-4.1,5.6c-0.3,0-0.6-0.1-0.9-0.4c-0.6-0.6-0.6-0.6-1.2-3.7
		c-0.6-2.8-2-6.3-3.8-9.8L755.9,46.3z M764.8,44.8c2.7,0.7,4.1,1.1,6.1,2.1c2.9,1.4,4.2,2.8,4.2,4.7c0,2.5-1.7,5.1-3.3,5.1
		c-0.8,0-1.3-0.6-1.8-2.1c-1.3-3.6-2.4-5.5-5.5-9.4L764.8,44.8z"/>
	<path d="M833.1,43.2c0,0.6,0,0.8,0,1v1.2c0,6.7,0.1,15.8,0.3,22c0,1.8-0.9,2.2-5.6,2.2c-3.2,0-3.5-0.2-3.5-1.8
		c0.3-9.4,0.3-11.9,0.4-24.6h-15.5V47c0,1.7-0.9,2-5.1,2c-3.1,0-3.4-0.2-3.4-1.8c0.4-12,0.4-12.8,0.4-18.8c0-6.1-0.1-8.7-0.4-13.3
		c4.4,1.9,5.7,2.6,9.9,5h14.2c-0.1-12.2-0.1-12.2-0.6-16.3c2.3,0.1,4.2,0.3,5.3,0.4c5.4,0.4,6.7,0.8,6.7,1.7c0,0.6-0.8,1.1-3.2,1.9
		V20h15.7c1.9-2.2,2.5-2.8,4.4-4.9c2.8,1.9,3.6,2.5,6.1,4.3c0.8,0.6,1.1,1.1,1.1,1.6c0,0.6-0.6,1.1-2.5,2.2
		c0,11.3,0.1,14.3,0.4,23.5c0,1.9-0.9,2.3-5.7,2.3c-2.5,0-2.9-0.2-2.9-1.6v-4.2H833.1z M824.7,34.6v-7c0-0.7,0-1.1,0-6.1h-15.6v20.2
		h15.5L824.7,34.6z M849.7,21.5H833c0,1,0,7.7,0,20.2h16.6V21.5z"/>
	<path d="M892.6,43.3c0,0.4-0.1,0.7-0.2,0.9c-0.6,0.6-2.2,0.9-4.8,0.9c-1.8,0-2.5-0.4-2.5-1.4c0-0.1,0-0.2,0-0.4
		c0.1-1.7,0.2-6.7,0.3-14.8h-4.1c-0.5,5.5-1.1,7.7-2.7,10.6c-1.5,2.7-3.6,4.5-9,8.2l-0.5-0.5c2.3-3.4,3.7-6.8,4.4-10.6
		c0.4-2.2,0.5-3.8,0.6-7.7h-1.7c-0.4,0-1.9,0.1-3.4,0.4l-0.4-2.4c1.5,0.4,2.9,0.6,3.7,0.6h13.1l0.1-7.3h-5.6v2
		c0,0.4-0.1,0.6-0.3,0.8c-0.5,0.4-1.9,0.6-3.2,0.6c-0.7,0-1.3,0-1.7,0c-1.5-0.1-1.9-0.3-2-1.4c0.2-5.8,0.2-6.7,0.2-9.3
		c0-2.7-0.1-4.4-0.3-6.7c8.5,0.8,9.8,1.1,9.8,1.9c0,0.6-0.6,0.9-2.6,1.7v8.9h5.6v-1.1c0-7.6-0.1-10.5-0.5-13.5
		c8.5,0.5,10.3,0.9,10.3,1.7c0,0.6-0.6,1.1-2.5,1.7c-0.1,5.7-0.1,10.5-0.1,13.3c0,1.4,0,2.2,0,3.1c0,0.2,0,0.5,0,2.3L892.6,43.3z
		 M921.7,50.4c2.2-2.4,2.9-3.1,5.1-5.3c3.3,2.5,4.3,3.3,7.6,5.9c0.2,0.2,0.4,0.4,0.4,0.5c0,0.3-0.3,0.4-0.9,0.4H904
		c1.6,2,3.7,3.7,6.5,4.9c6.5,3.1,12.6,4.2,24.6,4.2v0.5c-3.2,1.7-5.1,3.9-5.7,6.9c-0.2,0.8-0.4,1-1,1s-2.7-0.4-4.7-0.9
		c-9.8-2.4-17-7.8-21.5-16.4c-1.9,4.2-3.5,6.4-6.6,8.9c-6.2,5.2-14,7.7-26.5,8.6l-0.1-0.6c12.6-3.3,21.4-9.3,25-17.1h-17.2
		c-1.7,0-3,0.1-6,0.4l-0.5-2.7c2.9,0.6,4.5,0.7,6.5,0.7h17.8c0.8-2.4,1.1-4.6,1.1-7.2c0-0.1,0-0.2,0-0.4c1.9,0.2,3.4,0.4,4.4,0.6
		c2.4,0.4,4.1,0.6,4.2,0.6c1.4,0.1,2.2,0.6,2.2,1.1c0,0.6-0.6,0.9-2.8,1.6c-0.6,2.5-0.6,2.5-1,3.7h11.3c-1.9-3.7-2.9-4.9-5.6-6.6
		l0.4-0.6c7.1,0.7,10,2.1,10,4.6c0,1-0.3,1.7-1.2,2.7H921.7z M893.2,25.6c4.7-0.9,10.7-2.9,14.5-4.9c5.7-2.9,9.2-5.4,13.6-9.8h-12.3
		c-0.6,0.4-0.8,0.4-1.4,0.8c1.2,0.2,2.8,0.8,4.2,1.4c1.4,0.6,1.9,1.1,1.9,2.4c0,1.5-1.3,2.9-2.7,2.9c-0.6,0-0.9-0.3-1.1-1
		c-0.7-2.4-1.7-4.1-3.1-5.2c-1.9,1.1-3.2,1.7-5.2,2.6c0.4,0.2,0.4,0.3,1.1,0.6c2.9,1.1,4,2.3,4,3.7c0,1.5-1.3,2.9-2.7,2.9
		c-0.9,0-1.5-0.8-1.9-2.8c-0.3-1.4-0.9-2.7-1.6-3.9c-1.9,0.8-2.9,1.1-5.9,2l-0.4-0.8c5.6-3.7,11.8-9.8,13.4-13.4
		c3.2,0.7,4.4,1.1,7.2,1.8c2.1,0.5,2.4,0.6,2.4,1.1c0,0.6-0.7,0.9-3.7,1.4c-1.1,1-1.4,1.3-2.4,2h10.5l4.8-3.4
		c2.5,1.9,3.3,2.5,5.8,4.7c0.4,0.4,0.6,0.7,0.6,1c0,0.8-0.8,1.1-3.2,1.2c-8.5,6.2-11.6,8-17.4,10.1c-5.6,1.9-11.6,3.1-18.7,3.5
		L893.2,25.6z M893.5,27.7c0.9,0.2,2.2,0.4,3.7,0.4h20.6v-2.9c0-1-0.1-1.7-0.3-3.8c1.3,0.1,2.3,0.1,2.9,0.2c1.4,0.1,2.2,0.3,2.6,0.3
		c2.7,0.1,4.2,0.6,4.2,1.3c0,0.6-0.7,1.1-2.3,1.6V28h1.3c1.9-2,2.4-2.6,4.3-4.4c2.4,2,3.1,2.7,5.4,4.9c0.2,0.2,0.4,0.4,0.4,0.6
		c0,0.3-0.3,0.4-0.8,0.4h-10.5v2.9c0,1.6,0,2.7,0,3.1c0,0.9,0,1.4,0,1.7c0,0.2,0,0.6,0,0.9c0,0.5,0,0.9,0,1.1c0,1.8-0.7,3.3-1.8,3.9
		c-1.5,0.9-4.4,1.7-6.1,1.7c-0.8,0-0.9-0.2-1-1.5c-0.2-2.4-2.3-3.9-7-4.9c-0.7,2.2-2.2,3.6-3.7,3.6c-0.9,0-1.4-0.5-2-2.3
		c-1.4-3.7-2.7-5.7-5.6-8.5l0.3-0.5c0.6,0.1,1.1,0.3,1.4,0.4c3.9,0.9,5.3,1.4,7.2,2.4c1.8,1,2.6,2.1,2.6,3.6c0,0.1,0,0.3,0,0.5
		c2.9,0.3,4.1,0.4,7.2,0.6c0.1,0,0.4,0,0.4,0c0.8,0,1-0.3,1-1.2v-7.4h-20.2c-1.7,0-3,0.1-3.8,0.4L893.5,27.7z"/>
	<path d="M955.7,10.7c1.3-1.7,1.7-2.2,3.1-3.9c2.2,1.7,2.9,2.2,5,3.9c0.5,0.4,0.7,0.6,0.7,0.9c0,0.5-0.6,1-2.1,1.9
		c-0.1,5.6-0.1,9.8-0.1,12.7c0,3,0,3,0.1,24c-0.1,0.8-0.3,1.1-0.9,1.3c-0.6,0.2-2.4,0.4-3.9,0.4c-1.7,0-2.1-0.1-2.2-0.9v-5.4h-5v7.4
		c-0.1,0.9-0.4,1.1-1,1.4c-0.4,0.1-3.3,0.4-4.5,0.4c-1.3,0-1.7-0.4-1.8-1.4c0.3-12.3,0.4-18.4,0.4-26.4c0-11.6-0.1-16.2-0.5-20.9
		c3.6,1.9,4.7,2.6,8,4.7H955.7z M950.5,12.3v31.9h5V12.3H950.5z M976.8,27.9c-0.9,0-1.7,0.1-2.4,0.1c-0.2,8.4-0.9,13.8-2.6,19.6
		c-2.6,8.9-6.6,15.3-14,22.1l-0.6-0.6c4.1-7.2,6.1-12.2,7.7-19.2c1.7-7.7,2.2-14.8,2.2-31.6c0-8.2-0.1-10.1-0.4-14.7
		c4,1.6,5.2,2.2,9,4.1h22.3c1.7-1.7,2.2-2.3,4-3.9c2.5,1.8,3.2,2.4,5.6,4.2c0.6,0.5,0.9,0.8,0.9,1.2c0,0.6-0.5,0.9-2.4,1.9
		c0,1.1,0,1.9,0,2.4c0,1.2,0,2.7,0.1,6.4c0,0.1,0,0.3,0,0.4c0,1.2-0.7,1.5-4.4,1.7c2.8,1.9,3.5,2.5,6.2,4.8c0.1,0.1,0.2,0.4,0.3,0.5
		c0,0,0,0,0,0.1c0,0.2-0.4,0.4-0.8,0.4h-16.6c-4.2,6.1-4.9,7-8.1,10.3c8.3-0.4,8.3-0.4,14.9-0.9c-1.2-2.2-1.9-3.3-4.4-6.4l0.5-0.6
		c4.7,2.1,7.1,3.3,9.4,5c2.4,1.9,3.3,3.1,3.3,4.6c0,2.9-2.2,6.1-4.2,6.1c-1,0-1.6-0.9-2.3-3.2c-0.4-1.4-0.7-2.3-1.4-3.7
		c-0.9,0.3-1,0.3-2,0.6c-4.7,1.4-13.7,3.7-18.3,4.5c-0.4,1.9-0.8,2.7-1.4,2.7c-0.7,0-1.2-1.7-2.7-8.9c1.8,0.1,2.5,0.2,3.9,0.2
		c0.4,0,1.4,0,2.2,0c1.1-4,1.1-4.2,2.1-10.3H976.8z M984,51.1c0-2.9-0.1-4.1-0.4-6.7c9.9,0.8,10.7,0.9,10.7,1.9c0,0.6-0.7,1.1-3,1.8
		v5.2h5.2c1.9-2.4,2.5-3.1,4.6-5.3c3.1,2.4,4,3.2,6.8,5.7c0.3,0.4,0.4,0.5,0.4,0.7c0,0.2-0.3,0.4-0.8,0.4h-16.2v10.8h6
		c2.2-2.7,2.9-3.4,5.1-5.9c3.4,2.6,4.3,3.4,7.2,6.3c0.2,0.3,0.4,0.5,0.4,0.6c0,0.3-0.4,0.4-0.9,0.4h-38.2c-1.7,0-3.2,0.1-4.7,0.4
		l-0.5-2.5c2,0.4,3.6,0.6,5.2,0.6H984V54.8h-8.2c-1.4,0-2.7,0.1-3.8,0.4l-0.5-2.4c1.5,0.3,3,0.5,4.3,0.5h8.2V51.1z M974.5,19.8
		l-0.1,6.4c1.1,0.1,1.7,0.2,2.4,0.2h20.3c0.8-0.9,2.2-2.3,4-4.2c-0.3,0-0.5,0-0.6,0c-1.5,0-1.9-0.2-1.9-1.1v-1.2H974.5z M998.5,18.3
		v-9h-23.8c-0.1,3.7-0.1,3.7-0.1,9H998.5z"/>
	<path d="M1023.2,46.3c-0.4-11.5-1.1-17.3-4.1-31.4c-0.2-1.1-0.4-2.6-0.4-3.4c0-2.9,1.9-4.2,6-4.2c4.1,0,6,1.3,6,4.2
		c0,1.5,0,1.5-1.5,8.7c-1.7,8.2-2.7,16.6-3,26.1H1023.2z M1030.5,57.4c0,3.3-2.7,6-6,6s-6-2.7-6-6c0-3.3,2.7-6,6-6
		C1028,51.4,1030.5,54,1030.5,57.4z"/>
	<path d="M1048.5,46.3c-0.4-11.5-1.1-17.3-4.1-31.4c-0.2-1.1-0.4-2.6-0.4-3.4c0-2.9,1.9-4.2,6-4.2s6,1.3,6,4.2c0,1.5,0,1.5-1.5,8.7
		c-1.7,8.2-2.7,16.6-3,26.1H1048.5z M1055.9,57.4c0,3.3-2.7,6-6,6c-3.3,0-6-2.7-6-6c0-3.3,2.7-6,6-6
		C1053.3,51.4,1055.9,54,1055.9,57.4z"/>
</g>
</svg>
