<?xml version="1.0" encoding="utf-8"?>
<!-- Generator: Adobe Illustrator 18.0.0, SVG Export Plug-In . SVG Version: 6.00 Build 0)  -->
<!DOCTYPE svg PUBLIC "-//W3C//DTD SVG 1.1//EN" "http://www.w3.org/Graphics/SVG/1.1/DTD/svg11.dtd">
<svg version="1.1" id="圖層_1" xmlns="http://www.w3.org/2000/svg" xmlns:xlink="http://www.w3.org/1999/xlink" x="0px" y="0px"
	 viewBox="0 0 724 72" enable-background="new 0 0 724 72" xml:space="preserve">
<g>
	<path d="M22.2,19.4c1.3-1.7,2.6-3.4,3.7-5c2.7,2.4,3.4,3.1,5.8,5.5c0.3,0.3,0.4,0.4,0.4,0.6c0,0.2-0.2,0.4-0.6,0.4h-11v4.8
		c6.7,2.7,9.9,5.3,9.9,8.1c0,2.5-2.2,5.5-4.1,5.5c-0.9,0-1.4-0.6-1.9-3.1c-0.8-4.1-2-6.8-4-9.1v24.1c0,7.1,0,7.1,0.1,16.4
		c0,1.6-0.8,1.9-5.2,1.9c-2.4,0-2.7-0.1-2.7-1.4c0.1-5.4,0.1-5.4,0.3-11.2l0.3-11l0.2-7.6c-3.4,7.3-5.8,10.9-10.3,15.3l-0.6-0.4
		c4.7-9.4,8.2-20.8,9.9-32.3H7.7c-1.6,0-2.2,0.1-3.7,0.4l-0.4-2.5c1.5,0.4,2.7,0.6,4.1,0.6h5.5v-6.8c0-4.5-0.1-6.1-0.4-9.4
		c2.2,0.2,3.8,0.4,4.9,0.4c5,0.5,6.1,0.8,6.1,1.7c0,0.7-0.6,1-3.2,1.9v12.2H22.2z M54.6,13c1.9-2,2.6-2.7,4.5-4.5
		c3,2.3,3.9,3,6.6,5.3c0.7,0.6,1,1.1,1,1.4c0,0.7-1,1.1-3.5,1.4c-3.9,6-6.6,9.4-10.7,13.3c6,3.4,11.7,4.8,20.1,5.3v0.7
		c-2.6,1.6-4.1,3.7-4.7,6.6c-0.2,0.9-0.4,1.2-0.9,1.2c-0.4,0-1.1-0.2-2.6-0.7c-6.6-2.3-11.3-5.3-15.8-9.8c-4.9,3.9-9.1,6.5-14.8,9.1
		c1.6,0.7,2.6,1.1,5.4,2.5h16.1c1.4-1.6,1.8-2,3-3.5c2.6,1.6,3.4,2.1,5.9,3.7c0.9,0.7,1.2,1.1,1.2,1.4c0,0.5-0.6,1.1-2,1.9
		c-0.1,2.2-0.1,3.7-0.1,5c0,3.5,0.1,7.9,0.3,14c0,1.6-0.7,1.9-5.1,1.9c-2.5,0-2.8-0.1-2.9-1.2v-3.5H39.1v2.8
		c-0.1,0.9-0.1,1.1-0.4,1.3c-0.6,0.4-2,0.6-4.4,0.6c-2.7,0-3.1-0.1-3.1-1.5c0.1-11.5,0.1-14,0.1-17.1c0-2.8,0-2.9-0.1-7.3
		c-2.2,0.9-3.5,1.4-6.9,2.5L24,45.1c8.4-4.9,14.3-9.6,20.8-16.4c-2.5-3.4-3.7-5.7-5.5-10c-3.1,4.1-5.5,6.5-10.6,10.4l-0.6-0.5
		c3-4.8,4.5-8,6.6-13.7c1.8-5,2.5-7.8,3.1-12C48,5.4,48.8,5.7,48.8,6.5c0,0.7-0.9,1.1-3.2,1.5c-1.2,2.5-1.7,3.3-2.6,5H54.6z
		 M39.1,63h16.6V46.2H39.1V63z M42,14.5c-1,1.6-1.1,1.7-2.1,3.1c3,4.5,4.5,6.3,7.1,8.5c3.2-3.8,4.9-6.4,7.6-11.6H42z"/>
	<path d="M95.2,8.8c0-3,0-3.7-0.3-6.1c9.9,0.9,10.7,1,10.7,1.9c0,0.6-0.7,1-2.9,1.6c0,1.3,0,2.2,0,2.6h12.9c0-2.5-0.1-3.5-0.4-6
		c2.2,0.2,3.9,0.4,5,0.4c4.5,0.3,5.6,0.6,5.6,1.4c0,0.6-0.6,0.9-2.7,1.6v2.6h7.1c2.2-2.3,3-3,5.3-5.2c3.5,2.3,4.5,3.1,7.9,5.8
		c0.3,0.2,0.4,0.4,0.4,0.5c0,0.3-0.3,0.4-0.7,0.4h-20c0,1.2,0.1,1.5,0.1,3.1c0,0.7-0.1,0.9-0.4,1.2c-0.6,0.4-2.4,0.7-4.8,0.7
		c-2,0-2.4-0.2-2.4-1.2l0.1-3.7h-12.9c0,1.4,0,1.4,0.1,3c0,0.6-0.1,0.7-0.5,1.1c1.7,1,2.4,1.6,4.8,3.2c0.5,0.4,0.7,0.7,0.7,1.1
		c0,0.5-0.5,0.9-2.1,1.8c0.1,6.6,0.1,6.7,0.2,10.5c0,1.4-0.9,1.9-4.1,1.9c-0.4,0-0.4,0-1,0c-0.1,0-0.1,0-0.1,0
		c-1.2,0-1.7-0.4-1.7-1.3v-1H87.4v21.8L87.3,61c0,1.9,0,3.7,0.1,6.7c0,0.8-0.1,1.2-0.6,1.4c-0.6,0.4-2.4,0.6-4.5,0.6
		c-1.9,0-2.5-0.3-2.5-1.6c0.4-16.1,0.4-16.1,0.4-21.8c0-19-0.1-28.2-0.4-33c3.7,1.7,4.8,2.2,8.3,4h10.4c1.2-1.3,1.4-1.6,2.4-2.5
		c-1.4,0.1-2.1,0.2-3.2,0.2c-2.2,0-2.6-0.1-2.6-1.2c0.1-1.7,0.1-1.7,0.1-3.4h-13c-1.8,0-3.2,0.1-4.8,0.4L77,8.2
		c2,0.4,3.4,0.6,5.1,0.6H95.2z M99,18.7H87.4v4.2H99V18.7z M99,24.4H87.4v4.5H99V24.4z M112.4,55.9c9.2,1.6,12.5,3.4,12.5,6.6
		c0,1.9-1.3,3.7-2.7,3.7c-0.8,0-0.9-0.1-2.2-2c-0.8-1.1-3-3.5-4-4.5c-1-0.9-1.9-1.5-3.5-2.5c0.1,3.5,0.1,3.5,0.3,10
		c0,0.4-0.1,0.6-0.1,0.9c-0.4,0.4-1.8,0.7-4,0.7c-2.2,0-2.4-0.2-2.4-1.4c0.1-1.7,0.1-1.7,0.3-7.1v-1.7c-5.8,4.4-8.8,5.8-16.6,8.2
		l-0.2-0.8c5.9-3.6,9.2-6.6,13.3-11.9h-2.7v0.4c-0.1,1.1-0.8,1.4-4.1,1.4c-1.9,0-2.2-0.1-2.2-1.2c0.2-4,0.2-4.5,0.2-9.9
		c0-2.5-0.1-3.7-0.3-6.3c3,1.2,3.9,1.5,6.7,2.7h6v-3.5H94.2c-1.6,0-3.1,0.1-4.3,0.4l-0.3-2.5c1.7,0.4,2.9,0.5,4.8,0.5h12.1
		c-0.1-2-0.1-2.7-0.4-5.2c3.6,0.4,4.8,0.6,6.8,0.9v-0.4c0.1-4.5,0.1-6.3,0.1-9.9c0-3.5,0-4.8-0.1-7.8c3.3,1.4,4.3,1.8,7.6,3.3h10.9
		c1.7-1.7,2.2-2.2,3.9-3.7c2.4,1.6,3.1,2.1,5.4,3.8c0.5,0.4,0.7,0.7,0.7,1.1c0,0.6-0.5,1-2.2,2v24.5c0,5.6,0,5.6,0.3,16.9
		c0,0.4,0,0.7,0,0.9c0,3-0.8,4.6-2.9,5.7c-1.4,0.7-3.7,1.2-5.6,1.2c-0.7,0-0.9-0.2-1-1.2c-0.1-3.7-0.9-5-4.1-6.3v-0.7
		c3.8,0.2,3.8,0.2,5.4,0.2c0.7-0.1,0.8-0.3,0.8-1.2v-30h-12.1v0.9c0,1.2-0.7,1.4-4,1.4c-0.4,0-0.8,0-1.4,0c-0.2,0.7-0.4,0.9-2.1,1.4
		v2.1h8.2c1.3-1.3,2.5-2.5,3.6-3.7c2.5,1.8,3.3,2.4,5.8,4.3c0.2,0.2,0.3,0.4,0.3,0.5c0,0.2-0.3,0.4-0.7,0.4h-17.2v3.5h6.7
		c1.2-1.3,1.6-1.7,2.7-2.9c2.2,1.4,2.7,1.8,4.8,3.2c0.4,0.4,0.7,0.6,0.7,0.8c0,0.5-0.4,0.9-1.8,1.7c0,6.7,0,6.7,0.1,10.1
		c0,0.7-0.1,0.9-0.4,1.2c-0.4,0.4-2.1,0.6-4,0.6c-1.4,0-1.8-0.2-1.8-1V54h-6.8V55.9z M106.4,42.7h-6.3v4h6.3V42.7z M106.4,48.2h-6.3
		v4.3h6.3V48.2z M119.2,46.7v-4h-7v4H119.2z M119.2,52.5v-4.3h-7c0.1,1.6,0.1,3,0.1,4.3H119.2z M131.8,18.7h-12.1v4.2h12.1V18.7z
		 M131.8,24.4h-12.1v4.5h12.1V24.4z"/>
	<path d="M168.8,27.4c0-4-0.1-4.7-0.4-7.1c8.4,0.7,9.2,0.7,10.1,1c0.6,0.2,0.9,0.5,0.9,0.9c0,0.6-0.9,1.1-2.8,1.6
		c0,11.7,0,12.4-0.2,16c-0.7,12.5-3.3,18.6-10.4,23.7c-3.9,2.8-8,4.5-15.2,6.5l-0.5-0.8c6.1-3,9.8-5.8,12.9-9.7
		c2.4-3,3.6-5.7,4.6-10c-5.1,2.9-5.2,3-13.6,6.3c-0.1,2.1-0.5,3-1.2,3c-0.8,0-1.2-0.9-4.2-9.5c4-0.1,11.7-0.9,19.5-2.2
		c0.3-2.3,0.4-3.5,0.5-7.7h-12.3c-2,0-3,0.1-4.2,0.4l-0.6-2.5c1.9,0.4,3.2,0.6,4.8,0.6h12.4c0.1-3,0.1-3.7,0.1-9h-14.1
		c-1.7,0-2.9,0.1-4.5,0.4l-0.6-2.5c2,0.4,3.2,0.6,5,0.6H168.8z M187.1,11.3c0-3.8-0.1-5.6-0.4-7.6c2.2,0.2,4,0.4,5.1,0.4
		c4.5,0.4,5.6,0.7,5.6,1.4c0,0.6-0.6,1-2.8,1.7l0.1,4h7.2c1.9-2,3.6-3.9,5.2-5.6c3.4,2.6,4.4,3.4,7.6,6c0.3,0.4,0.4,0.5,0.4,0.7
		s-0.3,0.4-0.7,0.4h-19.7c0.1,2.5,0.1,2.5,0.1,4.4c-0.1,0.4-0.2,0.7-0.5,0.8c-0.6,0.4-2.1,0.6-3.9,0.6c-2.8,0-3.3-0.2-3.5-1.2
		c0.1-2.2,0.1-2.5,0.1-4.5h-13c0.1,2.6,0.1,2.6,0.1,4.5c-0.1,0.5-0.1,0.7-0.4,0.9c-0.6,0.3-2.2,0.5-4,0.5c-3,0-3.5-0.1-3.5-1.3
		c0.1-3.2,0.1-3.2,0.1-4.5h-12.1c-1.3,0-3.5,0.2-4.9,0.4l-0.6-2.6c2.3,0.5,3.5,0.6,5.5,0.6h12.1c0-1,0-1.4,0-2.3
		c0-2.2-0.1-3.2-0.2-5.3c2.2,0.2,3.9,0.3,5,0.4c4.7,0.3,5.8,0.6,5.8,1.4c0,0.6-0.8,1.1-2.8,1.7C174,8.4,174,9.3,174,10
		c0,0.5,0,0.7,0.1,1.3H187.1z M201.5,27.4c2.7-3,2.7-3,4.9-5.4c3.2,2.5,4.3,3.2,7.3,5.8c0.2,0.3,0.4,0.5,0.4,0.6
		c0,0.2-0.3,0.4-0.7,0.4h-21l0.1,9.9h8.6c1.7-1.9,3.2-3.5,4.7-5.1c3,2.4,4,3.1,6.8,5.5c0.3,0.3,0.4,0.5,0.4,0.7
		c0,0.3-0.4,0.5-0.9,0.5h-19.7l0.1,10.9v0.2h9.8c2.4-2.5,3.2-3.3,5.4-5.6c3.2,2.5,4.2,3.3,7.3,6.1c0.3,0.3,0.4,0.5,0.4,0.6
		c0,0.2-0.4,0.4-0.8,0.4h-22.1c0.1,9.1,0.1,9.1,0.3,13.8c0,0.9-0.2,1.2-1,1.5c-0.6,0.2-3.3,0.5-5,0.5c-1.8,0-2.3-0.3-2.4-1.5
		c0.3-7.5,0.4-13.3,0.4-22c0-5.4-0.1-15.4-0.1-19.7c0-2.4-0.1-3.4-0.4-5.4c2.2,0.1,4,0.3,5,0.4c5.2,0.4,5.8,0.6,5.8,1.4
		c0,0.6-0.7,1.1-2.8,1.6v3.7H201.5z"/>
	<path d="M288.4,59.1c-3.1,1.6-4.1,3.1-4.5,6.7c-0.1,0.8-0.4,1.1-1.2,1.2c-1.2,0.1-8.9,0.4-12.8,0.4c-13.7,0-18.3-0.3-21.5-1.2
		c-3.9-1.2-6.8-3-8.9-5.6c-1.2-1.6-2.2-3.4-3.5-6.9c-3.5,5-3.9,5.5-9.6,12.2c0,0.4,0,0.7,0,0.9c0,1.5-0.4,2.4-1.1,2.4
		c-0.3,0-0.6-0.3-0.9-0.9c-0.1-0.2-0.1-0.2-4.5-9.4c3.5-0.8,6.4-2.2,9.7-4.6V34.4h-4.3c-1.4,0-3.2,0.2-4.5,0.5l-0.5-2.7
		c2.3,0.5,3.7,0.6,5,0.6h3.5c1.8-2,2.4-2.7,4.2-4.6c2.6,1.9,3.4,2.5,5.9,4.4c0.6,0.5,0.8,0.8,0.8,1.3c0,0.7-0.4,1-2.2,2.2v17.1
		c1.5,2.7,2.5,3.8,4.3,4.8c2.9,1.5,7.1,2,15.7,2c8.4,0,20.2-0.6,30.9-1.7V59.1z M222.9,4.1c4.1,1.5,7.6,3.1,10.8,5.1
		c3,1.9,4.8,4.1,4.8,6.1c0,3.2-3,7.3-5.5,7.3c-1.2,0-1.5-0.5-2.4-3.3c-1.8-6-3.8-9.6-8.2-14.6L222.9,4.1z M251.1,52.3v3
		c-0.1,0.6-0.1,0.9-0.5,1.1c-0.6,0.3-2.2,0.5-4,0.5c-2.6,0-3.1-0.2-3.2-1.3c0.3-6.6,0.4-9,0.4-16.8c0-19.2-0.1-22.8-0.3-25.9
		c3.6,1.6,4.7,2.2,8.4,4.1h7.4v-6.3c0-3.5-0.1-4.8-0.4-7.5c2,0.2,3.5,0.4,4.5,0.4c5,0.4,6.3,0.7,6.3,1.6c0,0.7-0.9,1.3-3,1.9V17h8.1
		c1.7-1.9,2.2-2.5,3.9-4.2c2.7,1.8,3.5,2.4,6,4.2c0.6,0.4,0.9,0.8,0.9,1.2c0,0.5-0.2,0.7-2.4,2.2C283,25.9,283,30,283,32.8
		c0,8.2,0.1,12.8,0.3,21.9c-0.1,0.6-0.3,0.8-0.6,1c-0.6,0.4-2,0.7-3.5,0.7c-0.9,0-1.7-0.1-2.4-0.1c-0.8-0.1-1-0.3-1.2-1.1v-3H251.1z
		 M259.1,18.5h-8.1v14.6h8.1L259.1,18.5z M259.2,34.6h-8.1v16.1h8.2L259.2,34.6z M275.5,18.5h-8.8v14.6h8.8V18.5z M275.5,34.6h-8.8
		v16.1h8.8V34.6z"/>
	<path d="M346.2,36.8c1.9-1.7,2.4-2.2,4.5-3.8c3,2.2,4,2.9,6.9,5.1c0.5,0.4,0.7,0.6,0.7,1c0,0.7-0.4,0.9-4,1.8
		c-5.5,7.8-10.5,12.6-17.8,17.1c-7.7,4.9-15.8,7.8-26.7,9.8c-3.9,0.6-7.1,1.1-13.1,1.7l-0.3-0.8c12-3.1,19.8-6,27.9-10.4
		c5-2.7,8.2-5,12.2-8.7c4.3-3.9,6.5-6.6,9.7-11.4h-15.9c-3.2,2.9-5,4.3-7.9,6.2c3.9,1.1,4.8,1.5,6.1,2.1c2.7,1.1,3.7,2.1,3.7,3.7
		c0,2.5-2.2,5.3-4.2,5.3c-0.7,0-1.1-0.4-1.4-1.4c-1.5-4.3-3-6.8-5.3-8.9c-3.4,2.1-6.7,3.7-10.4,5.3c-2.6,1.1-3.2,1.3-10.4,3.5
		l-0.4-0.7c8.6-4.6,14.3-8.6,20.2-14.3c4.1-3.8,7.2-7.6,8.9-10.5c-5.1,3.6-8.8,5.7-13.8,7.9c-7.2,3.1-12.7,4.8-21.9,6.3l-0.2-0.7
		c11.4-4.2,18.7-7.9,25.9-13.3c6.8-5.1,11.5-9.9,15.7-15.9h-14.8c-2.9,2.7-4.6,4.1-7.3,6c4.5,1.2,5.5,1.6,7.2,2.5
		c1.2,0.7,1.9,1.8,1.9,2.7c0,2.1-2.2,4.6-4.1,4.6c-0.9,0-1.2-0.4-1.9-2.4c-1.1-3.2-2.3-5.2-4-6.8c-5.9,3.9-9.3,5.5-16.4,8l-0.4-0.6
		c6.6-4.5,10.5-7.9,14.8-12.5c4-4.4,6.5-8.4,7.9-12.3c9.9,2.8,11.1,3.2,11.1,4c0,0.9-0.2,0.9-3.5,1.7c-1.6,1.7-2,2.1-3.7,3.7H335
		c1.8-1.7,2.4-2.3,4.3-3.9c3.2,2.3,4.2,3,7.2,5.3c0.5,0.4,0.6,0.7,0.6,1.1c0,1-1.1,1.4-4.2,1.7c-4.4,5.5-7.1,8.1-12.7,12.3l3.8,1
		c4.1,1.1,5.5,1.7,5.5,2.4c0,0.7-1,1.2-3.5,1.7c-2.9,2.8-2.9,2.8-4,3.8H346.2z"/>
	<path d="M382.5,44c4.3-1.1,7.3-2,12.2-3.7l0.4,0.7c-6.9,4.8-11,7.1-25.2,14.6c-0.3,2.4-0.7,3.2-1.3,3.2c-0.9,0-1.2-0.6-4.3-10.9
		c4.4-0.6,6.2-0.9,10.2-1.9V14.8h-5.4c-1.8,0-2.6,0.1-4.3,0.4l-0.4-2.5c1.7,0.4,3.2,0.6,4.7,0.6h13.5c2-2.5,2.7-3.3,4.8-5.8
		c3.3,2.5,4.3,3.3,7.6,6.1c0.2,0.2,0.4,0.6,0.4,0.7c0,0.3-0.4,0.5-0.9,0.5h-12.2V44z M400.9,21.8c0.2-3.9,0.4-9.8,0.4-13
		c0-1.9-0.1-2.9-0.4-5.3c10.2,1,10.4,1,11.2,1.4c0.3,0.2,0.6,0.5,0.6,0.8c0,0.7-0.8,1.2-2.9,1.9c-0.2,7.3-0.3,9.1-0.7,14.1h10.1
		c1.9-2,2.4-2.7,4.4-4.7c2.7,2,3.6,2.7,6.1,4.7c0.6,0.6,1,0.9,1,1.2c0,0.6-0.4,0.9-2.7,2.2c-0.4,19.7-2.2,33.7-5.2,38.4
		c-1.7,3-4.4,4.4-8.7,5c-0.7,0.1-1.7,0.1-2.1,0.1c-0.9,0-1.2-0.3-1.2-1.3c-0.2-1.8-0.9-3.2-2.2-4.3c-1.3-1.1-2.5-1.6-8.9-3.6
		l0.1-0.8c8.9,0.9,11.1,1.2,13.3,1.2c1.8,0,2.4-0.3,3-1.4c0.9-1.8,1.8-5.9,2.4-11.4c0.7-5.9,1.2-16.4,1.2-23.7h-10.9
		c-0.7,7.7-1.4,12.4-2.8,16.7c-3,9.3-7.7,15.6-16.1,21.7c-4.3,3.1-7.6,4.8-14.3,7.3l-0.4-0.7c8.6-5.9,14.1-11.4,18.1-17.9
		c4.2-7.1,6.3-14.9,7.2-27.2h-6.6c-2.1,0-3,0.1-4.7,0.4l-0.4-2.4c1.7,0.4,2.8,0.5,5.3,0.5H400.9z"/>
	<path d="M457.8,10.1c8.7,4.3,12,7.1,12,10.4c0,3-2.5,6.3-4.6,6.3c-1,0-1.6-0.8-1.9-2.7c-0.3-1.4-0.5-2.5-1.1-4.1
		c-7.5,2.6-9,3-21.8,5.6c-0.2,1.4-0.6,2.2-1.3,2.2c-0.6,0-1-0.6-1.3-2.1l-1.4-7.4c3,0.3,3.7,0.4,6.8,0.4c1.8-4.3,3.2-10.2,3.7-15.5
		c10.9,1.9,12.1,2.3,12.1,3.2c0,0.3-0.1,0.6-0.4,0.7c-0.4,0.2-1.1,0.5-2.1,0.7c-0.2,0.1-0.6,0.1-1.1,0.3c-3.4,4-5.6,6.6-9.4,10.5
		c6.7-0.1,10.1-0.2,15.3-0.7c-1.3-3-2.1-4.4-4-7.1L457.8,10.1z M448.6,62.1c0,0.8,0,0.8,0.1,4.8c0,0.7-0.1,1.1-0.2,1.4
		c-0.3,0.4-1.4,0.7-3.1,0.7c-4,0-4.4-0.1-4.5-0.9c-0.1-0.2-0.1-0.4-0.1-1.2c0.3-8.1,0.4-10.4,0.4-15.3c0-18.6-0.1-23-0.2-25.6
		c2.5,1,5.3,2.2,8.4,3.6h9.3c1.5-1.8,2-2.3,3.5-4c2.5,1.6,3.3,2.1,5.6,3.7c0.7,0.6,1,1,1,1.3c0,0.6-0.6,1.2-2,2.1v16.2
		c0,3.7,0,3.7,0.1,10c0,0.4,0,0.9,0,1.3c0,0.5,0,1,0,1.7c-0.2,3-0.9,4.2-2.8,5.3c-1.3,0.7-2.2,1-4.3,1.3c-1.2,0.1-1.7,0.2-2.1,0.2
		c-0.6,0-0.7-0.2-0.9-1.4c-0.4-3.8-1.3-4.7-6.3-6.2l0.1-0.6c2.7,0.2,3,0.2,7.1,0.4c0.1,0,0.3,0,0.3,0c1,0,1.3-0.3,1.3-1.2v-9.7
		h-10.7V62.1z M459.2,31.2h-10.7V39h10.7V31.2z M459.2,40.5h-10.7v8.4h10.7V40.5z M479.7,17.7c6.6-5,9.9-8.5,12.5-13
		c3.2,1.9,3.2,1.9,7.8,4.8c0.7,0.5,1.1,0.9,1.1,1.4c0,0.5-0.6,0.9-1.4,0.9c-0.2,0-1.1-0.1-1.9-0.2c-6.8,4-8.3,4.7-18,8.1v5
		c0,1.6,0.2,1.7,2.7,1.7c0.1,0,0.2,0.1,0.4,0.1c0.4,0,1,0,1.9,0c6.3,0,8-0.2,9-1.1c0.4-0.3,0.8-0.9,1-1.4c0.5-1,1.1-2.7,2-5
		c0.4-0.8,0.8-2.1,1.5-3.7h0.7l-0.3,8.1c0,0.1,0,0.4,0,0.4c0,1.1,0.2,1.3,1.5,1.6c1.4,0.4,2.2,1.4,2.2,3c0,1.5-0.9,3.1-2.1,3.7
		c-1.6,0.7-6.1,1.1-12.7,1.1c-6.7,0-11.1-0.2-12.3-0.7c-2.1-0.6-3-2.3-3-5.2V10c0-1.4,0-1.7-0.1-6.2c9.8,0.9,10.6,1,10.6,2
		c0,0.7-0.8,1.2-2.9,1.9V17.7z M479.7,50c6.2-4.8,10.4-9.1,12.9-13.4c7.8,4.6,9.1,5.5,9.1,6.3c0,0.5-0.6,0.9-1.4,0.9
		c-0.3,0-1.2-0.1-2.1-0.3c-8,4.7-10.5,5.9-18.6,8.6v7.1c0,0.9,0.3,1.2,1.2,1.4c0.8,0.2,3.7,0.4,5.7,0.4c5.3,0,6.4-0.1,7.1-1
		c0.9-1,2.7-5.3,5.1-11.5l0.7,0.1l-0.4,8.6v0.4c0,1.3,0.2,1.8,1,2.2c1.9,0.8,2.5,1.6,2.5,3.2c0,2.2-1.6,3.7-4.6,4.2
		c-1.7,0.4-6.3,0.7-10.5,0.7c-6.1,0-10.3-0.3-11.9-0.8c-2.2-0.8-3.5-2.7-3.5-5.5v-19c0-4,0-4.8-0.2-7.4c9.1,0.8,10.4,1,10.4,2.1
		c0,0.2-0.1,0.4-0.3,0.6c-0.1,0.1-0.9,0.6-2.5,1.4V50z"/>
	<path d="M545.6,61h14.9c2-2.4,4-4.8,6.1-7.1c3.9,3.1,5.1,4.1,8.9,7.3c0.2,0.3,0.5,0.6,0.5,0.8c0,0.3-0.4,0.5-0.9,0.5H516
		c-2.2,0-4.8,0.1-6.7,0.4l-0.4-2.7c2.1,0.4,4.7,0.7,7.1,0.7h21.1V13h-17.7c-2.3,0-3.7,0.1-5.7,0.4l-0.4-2.5c2,0.4,4.1,0.7,6.1,0.7
		h37.5c2.5-2.9,3.3-3.7,5.8-6.6c3.8,3,5,3.9,8.7,7.1c0.2,0.2,0.4,0.4,0.4,0.6c0,0.2-0.3,0.4-0.7,0.4h-25.4V61z"/>
	<path d="M580.1,69.1c5.8-3.5,9.4-6,13.6-9.8c3.2-3,4.4-4.2,6-6.6C609.6,57,610,57.1,610,58c0,0.7-0.6,1-1.9,1
		c-0.4,0-1.2-0.1-1.9-0.1c-9.7,6-14.1,7.8-25.8,10.8L580.1,69.1z M581.1,48.9c1.8,0.4,3.2,0.6,5.1,0.6h48.3c2.3-2.7,3-3.5,5.3-6.1
		c3.6,2.7,4.7,3.6,8.1,6.5c0.3,0.3,0.4,0.5,0.4,0.6c0,0.3-0.3,0.4-0.7,0.4h-61.5c-1.7,0-3.1,0.1-4.7,0.4L581.1,48.9z M600.9,44.6
		c0,1.4-0.9,1.7-5.3,1.7c-2.5,0-3-0.2-3-1.6c0.3-10.3,0.4-17.3,0.4-25.4c0-6.3-0.1-9.3-0.4-15.8c4,1.7,5.3,2.2,9,4.3h24.2
		c1.7-2,2.2-2.6,4-4.3c2.7,1.8,3.5,2.4,6,4.2c0.6,0.4,0.9,0.8,0.9,1.2c0,0.6-0.6,1.1-2.4,2.2v12.5c0,7.9,0,9.3,0.3,20.5
		c0,0.7-0.1,1.1-0.5,1.3c-0.7,0.4-2.5,0.6-5,0.6c-2.4,0-2.7-0.1-2.7-1.3v-2h-25.4V44.6z M626.3,9.3h-25.4v9.3h25.4V9.3z M600.9,20.2
		v9.3h25.4v-9.3H600.9z M600.9,31V41h25.4V31H600.9z M618.1,53.6c10,1.7,15.1,3,18.5,4.5c3.5,1.6,4.5,3,4.5,5.8c0,3-1.6,5.5-3.5,5.5
		c-1.1,0-1.2-0.1-4.2-3.3c-4.5-4.8-8.9-8.1-15.7-11.8L618.1,53.6z"/>
	<path d="M656.4,39.6c-0.3,1.6-0.8,2.4-1.4,2.4c-0.3,0-0.6-0.3-0.8-0.8c-0.1-0.4-0.7-3.2-1.6-8.1c2.2,0.1,3.2,0.1,4.3,0.1
		c0.6,0,0.6,0,3-0.1c2.3-3,4.2-5.7,6.5-9.3c3.7-5.8,5.9-10.1,7.1-13.1c8,3.4,9.4,4.2,9.4,4.8c0,0.8-0.8,1.1-3.2,1.1h-0.3
		c-6.2,7.3-10.4,11.5-16.7,16.4c8.4-0.4,8.7-0.4,12-0.7c-1-2.8-1.5-3.8-3.2-6.3l0.6-0.4c6.9,4,9.9,7.1,9.9,10.2
		c0,2.4-2.3,5.3-4.3,5.3c-0.9,0-1.4-0.8-1.5-2.4c-0.2-1.6-0.4-2.7-0.8-4.2c-1.9,0.6-2.7,1-4.4,1.4v14.7c0,6.6,0,8.3,0.1,17.3
		c0,1.5-0.9,1.9-4.9,1.9c-2.2,0-2.5-0.2-2.5-1.4c0.3-7.1,0.4-11.7,0.4-17.1v-4.1c-0.6,0.1-0.8,0.1-1.4,0.3
		c-3.1,8.9-5.5,13.5-10,19.2l-0.6-0.4c2.5-7.8,4.1-16,4.4-23.6c4,1.1,5.5,1.5,7.7,2.4v-7.5L656.4,39.6z M653.8,12.7
		c2.8,1,3.7,1.4,5.7,2.5c2.2-4.8,3.6-8.9,4.1-12.6c9.6,3,10.8,3.5,10.8,4.4c0,0.8-1,1.1-3.7,1.1c-1.1,1.1-2.1,1.9-2.7,2.5
		c-4.5,4.4-4.5,4.4-6.5,5.8c3.5,2.2,4.2,3.1,4.2,5c0,2.8-2.1,5.5-4.2,5.5c-1,0-1.7-0.8-2.2-2.7c-1.4-5-2.6-7.1-6-10.9L653.8,12.7z
		 M671.9,42.1c4,2.7,6,4.6,7.6,7.1c1.1,1.7,1.9,3.6,1.9,4.9c0,2.6-2.6,5.7-4.7,5.7c-0.9,0-1.4-0.9-1.5-2.6c-0.2-2.8-0.4-4.8-0.7-7
		c-0.6-3.3-1.1-4.8-3-7.4L671.9,42.1z M713.5,65c1.4-2.3,1.9-3,3.5-5.2c1.9,2.5,2.5,3.2,4.3,5.8c0.1,0.2,0.2,0.4,0.2,0.6
		c0,0.2-0.2,0.4-0.7,0.4h-41.6c-1.5,0-2.7,0.1-4.4,0.4l-0.4-2.6c1.7,0.5,3.1,0.7,4.9,0.7h4.4V16c0-6.2-0.1-7.3-0.4-12
		c4,1.7,5.2,2.3,9,4.4h12.5c1.6-1.9,2.1-2.5,3.7-4.3c2.8,1.9,3.6,2.5,6.2,4.4c0.6,0.5,0.9,0.9,0.9,1.3c0,0.7-0.6,1.2-2.7,2.4V65
		H713.5z M705.4,10h-14v16.1h14V10z M705.4,27.6h-14v16.4h14V27.6z M705.4,45.6h-14V65h14V45.6z"/>
</g>
</svg>
