<?xml version="1.0" encoding="utf-8"?>
<!-- Generator: Adobe Illustrator 18.0.0, SVG Export Plug-In . SVG Version: 6.00 Build 0)  -->
<!DOCTYPE svg PUBLIC "-//W3C//DTD SVG 1.1//EN" "http://www.w3.org/Graphics/SVG/1.1/DTD/svg11.dtd" [
	<!ENTITY ns_flows "http://ns.adobe.com/Flows/1.0/">
	<!ENTITY ns_extend "http://ns.adobe.com/Extensibility/1.0/">
	<!ENTITY ns_ai "http://ns.adobe.com/AdobeIllustrator/10.0/">
	<!ENTITY ns_graphs "http://ns.adobe.com/Graphs/1.0/">
]>
<svg version="1.1" id="圖層_1" xmlns:x="&ns_extend;" xmlns:i="&ns_ai;" xmlns:graph="&ns_graphs;"
	 xmlns="http://www.w3.org/2000/svg" xmlns:xlink="http://www.w3.org/1999/xlink" xmlns:a="http://ns.adobe.com/AdobeSVGViewerExtensions/3.0/"
	 x="0px" y="0px" viewBox="0 0 308 72" style="enable-background:new 0 0 308 72;" xml:space="preserve">
<g>
	<path d="M19.5,18.8c1.3-1.9,1.7-2.5,3-4.4c2.1,2.2,2.7,3,4.8,5.2c0.1,0.2,0.2,0.4,0.2,0.5s-0.2,0.3-0.4,0.3H16.5V27
		c1.4,0.9,2.7,1.6,4.5,2.9c2.9,2.1,3.9,3.3,3.9,4.9c0,2-1.1,4.6-2,4.6c-0.6,0-0.9-0.5-1.7-2.7c-1.3-3.5-2.9-6.2-4.6-8.2
		c0,33.9,0,33.9,0.1,40c0,0.9-0.9,1.1-3.8,1.1c-0.6,0-0.9-0.2-0.9-0.9c0.1-13.3,0.2-26.4,0.3-28.9l0.4-9.8
		C10,39.2,7.1,45.8,2.5,53.1l-0.9-0.5c5.2-11.5,7.2-18,10-32.1H6.7c-1.6,0-2.3,0.1-4,0.4l-0.4-2.7c1.5,0.4,2.6,0.5,4.4,0.5h5.4v-7.6
		C12.1,6,12,4.7,11.8,2c6.3,0.6,7.7,0.9,7.7,1.7c0,0.5-0.4,0.8-3.1,1.9v13.2H19.5z M51.3,12.8c1.3-1.5,1.7-2,3-3.3
		c1.9,1.9,2.5,2.6,4.4,4.5c0.5,0.6,0.7,0.9,0.7,1.1c0,0.7-0.7,0.9-3.4,1.3c-4.1,7-6.4,10.3-9.9,14c6,5.1,11.2,7.4,19.5,8.6v1.1
		c-2.6,1-3.4,1.8-4.5,4.9c-8-4.1-12.5-7.4-17.2-12.5c-4.5,4.3-9,7.6-13.9,10.3c1.3,0.9,1.7,1.2,3.2,2.3h17.9
		c0.9-1.2,1.2-1.5,2.1-2.7c1.5,1.2,2,1.5,3.5,2.7c0.7,0.6,0.9,1,0.9,1.2c0,0.4-0.4,0.8-1.8,1.8c0,2.7,0,4.4,0,6
		c0,2.8,0,4.7,0.2,14.2c0,0.4-0.1,0.6-0.4,0.7c-0.5,0.1-2,0.3-3.1,0.3c-0.9,0-1.1-0.1-1.1-0.7v-3.4H33.2v3.1c-0.1,1-0.6,1.1-3.5,1.1
		c-0.8,0-1-0.2-1-0.9c0.1-10.5,0.1-13.6,0.1-16.4c0-2.6,0-2.6-0.1-8.6c-2.4,1.3-4,2-7.8,3.7l-0.5-0.9c8.3-5.2,10.2-6.5,14.1-10.1
		c2.3-2.1,4.4-4.2,6.7-6.8c-3.2-4.1-5-7.6-6.8-12.4c-3.6,6.3-6.3,9.9-10.5,13.7L23.4,30c2.9-4.1,5.3-8.8,7.8-15c2-5,3.4-9.4,4-12.7
		c1.4,0.4,2.5,0.8,3.3,1c3.4,1,4.2,1.4,4.2,1.9c0,0.7-0.9,1-3,1.3c-2,4.1-2,4.1-3.1,6.3H51.3z M33.2,63.4h18.3V46.7H33.2V63.4z
		 M35.7,14.5c-0.3,0.6-0.3,0.6-0.7,1.2c2.7,5.4,4.6,8.2,7.8,11.7c3.4-4.2,5.1-6.9,8-12.8H35.7z"/>
	<path d="M102.9,8c0-2-0.1-3-0.2-6c6.8,0.8,7.1,0.8,7.1,1.6c0,0.6-0.7,0.9-3,1.4v3h13.6c-0.1-2.7-0.1-3.6-0.2-6
		c6.4,0.7,6.8,0.9,6.8,1.6c0,0.5-0.2,0.7-2.5,1.5c0,1,0,2,0,3h10.1c1.5-2,2.1-2.6,3.8-4.4c2.6,2.2,3.5,2.9,6.2,5.1
		c0.1,0.2,0.3,0.4,0.3,0.6c0,0.1-0.2,0.4-0.5,0.4h-19.8c0,1.3,0,1.8,0.1,3.7v0.1c-0.1,0.5-0.1,0.6-0.5,0.7c-0.4,0.2-2.1,0.4-2.9,0.4
		c-0.8,0-1.1-0.2-1.1-0.9c0.1-1.9,0.1-2.6,0.1-4.1h-13.5c0,1.5,0,1.6,0,3.3c0.1,0.1,0.1,0.2,0.1,0.3c0,0.7-0.2,0.7-3.6,0.9
		c-0.5,0-0.7-0.2-0.7-0.7c0-0.7,0.1-2,0.1-3.8H90.9c-1.5,0.1-2.8,0.1-3.7,0.1c-1.3,0.1-1.3,0.1-2.5,0.3l-0.3-2.8
		C86.5,7.8,88.6,8,91.6,8H102.9z M91.6,30.5v22.6c0,1.5,0,3.7-0.1,6.3c0,1.2,0,2.3,0,2.7c0,1.6,0,3.2,0.1,5.9
		c-0.1,1.1-0.8,1.5-3.3,1.5c-0.9,0-1.2-0.1-1.2-0.7c0.2-13.2,0.2-16.6,0.2-45c0-4.5-0.1-6.6-0.2-10.5c2.1,1.3,2.8,1.7,4.8,3.5h13.5
		c0.9-1,1.1-1.3,2.1-2.2c1.3,0.9,1.7,1.2,2.9,2.2c0.5,0.4,0.7,0.7,0.7,0.9c0,0.4-0.5,1-1.7,1.8c0,1.4,0,2.7,0,3.3
		c0,2.7,0,4.4,0.1,8.2c0,0.1,0,0.2,0,0.3c0,0.8-0.9,1.2-2.9,1.2c-0.9,0-1.1-0.1-1.1-0.7c0,0,0-0.1,0-0.1v-1H91.6z M105.5,18.4H91.6
		v4.1h13.9V18.4z M105.5,24.3H91.6v4.6h13.9V24.3z M115.6,55.6c4.8,1.3,7.7,2.2,8.9,2.7c3.5,1.5,4.7,2.9,4.7,5.3
		c0,1.4-0.4,2.4-1,2.4c-0.3,0-0.6-0.2-1.3-0.9c-2.6-2.8-8.6-7.2-11.3-8.3c0.1,5.9,0.1,6.4,0.3,10.6c0,0.6-0.1,0.7-0.5,0.9
		c-0.3,0.2-1.7,0.3-2.6,0.3c-0.7,0-1-0.1-1-0.7c0.1-2,0.1-2,0.2-4.9c0-1.6,0-1.6,0.1-4.5v-2.2c-5.7,5.1-10.4,7.8-17.8,10.4l-0.3-1
		c3.8-2.1,7.4-4.5,11.3-7.7c1.7-1.4,2.3-1.9,4-4H103v1c0,1-0.5,1.2-2.9,1.2c-0.7,0-1-0.2-1-1c0,0,0-0.1,0-0.1
		c0.1-3.8,0.2-5.3,0.2-7.9c0-3-0.1-5.3-0.3-8.8c1.9,1,2.5,1.3,4.4,2.5h8.6v-3.5H99c-1.8,0-3.2,0.1-4.8,0.4L93.9,35
		c1.6,0.5,3.2,0.7,5.1,0.7h13.1c-0.1-2.1-0.1-2.9-0.3-5.5c5,0.7,5.5,0.7,5.5,1.4c0,0.4-0.5,0.7-1.8,1v3h11.3
		c1.3-1.5,1.7-1.9,3.2-3.2c1.9,1.7,2.5,2.3,4.5,4.1c0.1,0.2,0.2,0.4,0.2,0.5c0,0.2-0.2,0.3-0.6,0.3h-18.5c0,2.5,0,2.5,0,3.5h9.3
		c0.7-1,1-1.3,1.8-2.2c1.6,1,2.1,1.3,3.6,2.4c0.3,0.3,0.5,0.5,0.5,0.7c0,0.4-0.3,0.8-1.5,1.7c0,1.3,0,1.5,0,2.7
		c0,2.4,0.1,5.7,0.1,8.9c0,1-0.7,1.2-2.9,1.2c-0.6,0-0.9-0.2-0.9-0.9v-1.3h-9.8V55.6z M112.1,42.6H103v3.9h9.1V42.6z M112.1,48.2
		H103v4.1h9.1V48.2z M125.4,46.5v-3.9h-9.9v3.9H125.4z M125.4,52.4v-4.1h-9.9v4.1H125.4z M122.1,30.5v1c0,0.1,0,0.1,0,0.1
		c0,0.6-0.7,0.8-2.7,0.8c-1,0-1.3-0.1-1.3-0.8c0,0,0-0.1,0-0.1c0.1-4.6,0.1-6.8,0.1-9.7c0-2.9,0-4.4-0.1-7.4
		c2.1,0.9,2.7,1.2,4.6,2.4H136c1.1-1.2,1.3-1.5,2.4-2.7c1.7,1.1,2.1,1.5,3.6,2.7c0.5,0.4,0.7,0.7,0.7,1c0,0.6-0.5,1.3-2,2.2v27.6
		c0,9.3,0,9.3,0.3,16.1c-0.1,2.1-0.3,3-1.3,3.8c-1.1,1.1-2.3,1.6-5,2.1c-0.3-3.3-0.9-4-4.8-5.2l0.2-0.9c4.1,0.2,4.1,0.2,5.8,0.2
		c0.5-0.1,0.7-0.2,0.7-1V30.5H122.1z M136.7,18.4h-14.6v4.1h14.6V18.4z M136.7,24.3h-14.6v4.6h14.6V24.3z"/>
	<path d="M184.1,26.9c0-0.6,0-0.6,0-1.8c0-0.7,0-1.3-0.3-4.4c6.8,0.7,7.2,0.9,7.2,1.6c0,0.6-0.6,1-2.5,1.7
		c-0.1,10.9-0.1,12.9-0.2,16.6c-0.5,12.4-2.4,17.5-8.5,22.6c-3.5,2.9-7.1,4.8-13.1,6.9l-0.6-1.3c11-5.7,15.6-11,17-19.5
		c-5.3,2.5-7.7,3.4-14.5,5.6c-0.3,2.4-0.5,3.2-1.1,3.2c-0.6,0-1.1-1.2-3.2-7.4c4-0.2,14.1-2,19.1-3.2c0.2-1.5,0.3-2.8,0.5-7.3h-12.1
		c-2.3,0-3.1,0.1-4.4,0.4l-0.6-2.7c2,0.4,2.8,0.5,5,0.5H184c0-1.9,0.1-5.2,0.1-9.8h-13.9c-1.9,0-2.9,0.1-4.4,0.4l-0.7-2.7
		c2.3,0.5,2.9,0.6,5,0.6H184.1z M200.5,11.1c0-5-0.1-6-0.3-8.4c6.8,0.8,7.1,0.8,7.1,1.6c0,0.6-0.5,0.9-2.6,1.7v5.1h9.5
		c1.7-2.3,2.3-2.9,4-5c2.8,2.4,3.7,3.2,6.3,5.6c0.3,0.3,0.4,0.5,0.4,0.7c0,0.3-0.3,0.4-0.7,0.4h-19.4c0,1.5,0,1.5,0.1,5
		c-0.1,1-0.5,1.1-3.1,1.1c-1.1,0-1.3-0.1-1.4-0.7c0.1-2.9,0.1-3.5,0.1-5.4h-14.3c0.1,2.3,0.1,4,0.1,5.2V18c0,0.3-0.1,0.4-0.2,0.5
		c-0.3,0.2-1.3,0.4-2.3,0.4c-0.1,0-0.2,0-0.3,0c-0.3,0-0.6,0-0.9,0c-0.7-0.1-0.8-0.1-0.8-0.7c0.1-1.2,0.1-2.1,0.1-2.7
		c0-1.5,0-1.5,0.1-2.7h-10.9c-2.8,0-4.2,0.1-6,0.4l-0.6-2.8c3.3,0.6,3.7,0.7,6.6,0.7H182C182,10.4,182,10,182,9.9V6.2
		c0-0.8,0-1-0.1-3.6c1.4,0.2,2.5,0.3,3.3,0.4c3,0.3,4,0.6,4,1.4c0,0.6-0.7,1-2.8,1.7c-0.1,1.7-0.1,2.8-0.1,3.8c0,0.1,0,0.7,0,1.2
		H200.5z M214,26.9c1.7-2.6,1.7-2.6,3.2-4.7c2.7,2.3,3.6,3,6,5.5c0.1,0.2,0.2,0.4,0.2,0.4c0,0.3-0.3,0.5-0.7,0.5H202v9.8h11.5
		c1.5-2,1.9-2.7,3.3-4.6c2.5,2.2,3.3,2.9,5.6,5.1c0.2,0.3,0.4,0.7,0.4,0.8c0,0.2-0.3,0.4-0.6,0.4H202c0,0.7,0,4.5,0,11.2h12.7
		c1.7-2.3,2.3-2.9,3.8-5.1c2.6,2.5,3.4,3.2,5.8,5.7c0.3,0.3,0.4,0.5,0.4,0.7c0,0.2-0.3,0.4-0.6,0.4H202c0,3.7,0,3.7,0.1,7.8
		c0.1,3,0.1,3.4,0.1,6.8c0,0.3-0.1,0.4-0.2,0.5c-0.5,0.3-1.7,0.6-2.9,0.6c-0.2,0.1-0.4,0.1-0.5,0.1c-0.1,0-0.2,0-0.3,0
		c-0.7,0-1.1-0.4-1.1-1c0-0.1,0-0.1,0-0.1c0.3-8.1,0.4-16.7,0.4-25.7c0-13.6-0.1-19-0.3-21.4c7,0.8,7.2,0.9,7.2,1.5
		c0,0.7-0.5,1-2.5,1.8v3H214z"/>
	<path d="M253.2,32.9c1.1-1.5,1.4-2,2.5-3.4c1.8,1.4,2.3,1.8,4.2,3.4c0.3,0.3,0.5,0.6,0.5,0.8c0,0.5-0.5,1.1-2.2,2.4v17.6
		c2.3,4.5,4.2,6.2,8.3,7.4c2.8,0.8,5.6,1.1,10.5,1.1c9.1,0,18.8-0.5,29.3-1.5v1c-2.5,0.8-3.4,1.8-4.1,5.2c-5,0.3-7.1,0.4-10.6,0.4
		c-6.6,0-16.4-0.2-19-0.5c-3.8-0.3-7.5-1.8-10.3-4c-2.5-2-3.8-4-5.7-9c-3.2,5.3-4.4,6.9-8.3,11.1c0,0.5,0,1.3,0,1.5
		c0,1.3-0.3,2.1-0.9,2.1c-0.3,0-0.5-0.3-0.8-0.9c-0.1,0-0.9-2.4-2.8-6.9c1.4-0.5,1.9-0.7,3.5-1.7c3.4-2,4.4-2.7,6.5-4.6V34.6h-4
		c-1.6,0-3.5,0.2-5.2,0.5l-0.5-3c2.6,0.6,4,0.7,5.8,0.7H253.2z M246.1,3.7c3.1,1.8,5.6,3.6,8.5,6.2c2.7,2.4,3.5,3.6,3.5,5.1
		c0,2.8-1.3,6.1-2.5,6.1c-0.7,0-1.2-0.7-1.9-2.9c-1.6-4.7-3.8-8.4-8.3-13.8L246.1,3.7z M270.4,53.1v3.4c0,0.1,0,0.1,0,0.2
		c0,0.5-0.1,0.7-0.7,0.7c-0.3,0.1-1.9,0.2-2.5,0.2c-1.2,0-1.5-0.1-1.5-0.7c0.3-15.9,0.3-17.7,0.3-21.5c0-12.6-0.1-19.3-0.3-21.8
		c2.3,1.3,3.1,1.8,5.4,3.3h9.4V8.6c0-2.3-0.1-3.6-0.3-6.2c1.2,0.1,2.1,0.4,2.7,0.4c3.9,0.6,4.9,0.9,4.9,1.5c0,0.6-0.8,1-2.9,1.6V17
		h9.9c1.1-1.5,1.5-1.9,2.6-3.3c2,1.4,2.5,1.8,4.4,3.3c0.5,0.3,0.7,0.6,0.7,0.9c0,0.5,0,0.5-2.3,2.3c-0.1,6.4-0.1,11.4-0.1,14.7
		c0,7.8,0,9.5,0.2,21.2c-0.1,0.5-0.2,0.8-0.7,1c-0.6,0.1-1.9,0.4-2.6,0.4c-1.1,0-1.4-0.1-1.5-0.9v-3.4H270.4z M280.6,18.7h-10.2
		v14.6h10.2V18.7z M280.6,35h-10.2v16.4h10.2V35z M295.8,18.7H285v14.6h10.7V18.7z M295.8,35H285v16.4h10.7V35z"/>
</g>
</svg>
