<?xml version="1.0" encoding="utf-8"?>
<!-- Generator: Adobe Illustrator 18.0.0, SVG Export Plug-In . SVG Version: 6.00 Build 0)  -->
<!DOCTYPE svg PUBLIC "-//W3C//DTD SVG 1.1//EN" "http://www.w3.org/Graphics/SVG/1.1/DTD/svg11.dtd">
<svg version="1.1" id="圖層_1" xmlns="http://www.w3.org/2000/svg" xmlns:xlink="http://www.w3.org/1999/xlink" x="0px" y="0px"
	 viewBox="0 0 794 72" enable-background="new 0 0 794 72" xml:space="preserve">
<g>
	<path d="M22.5,19.4c1.3-1.7,2.6-3.4,3.7-5c2.7,2.4,3.4,3.1,5.8,5.5c0.3,0.3,0.4,0.4,0.4,0.6c0,0.2-0.2,0.4-0.6,0.4h-11v4.8
		c6.7,2.7,9.9,5.3,9.9,8.1c0,2.5-2.2,5.5-4.1,5.5c-0.9,0-1.4-0.6-1.9-3.1c-0.8-4.1-2-6.8-4-9.1v24.1c0,7.1,0,7.1,0.1,16.4
		c0,1.6-0.8,1.9-5.2,1.9c-2.4,0-2.7-0.1-2.7-1.4c0.1-5.4,0.1-5.4,0.3-11.2l0.3-11l0.2-7.6C10.4,45.5,8,49.1,3.5,53.6l-0.6-0.4
		c4.7-9.4,8.2-20.8,9.9-32.3H7.9c-1.6,0-2.2,0.1-3.7,0.4l-0.4-2.5c1.5,0.4,2.7,0.6,4.1,0.6h5.5v-6.8c0-4.5-0.1-6.1-0.4-9.4
		c2.2,0.2,3.8,0.4,4.9,0.4c5,0.5,6.1,0.8,6.1,1.7c0,0.7-0.6,1-3.2,1.9v12.2H22.5z M54.8,13c1.9-2,2.6-2.7,4.5-4.5
		c3,2.3,3.9,3,6.6,5.3c0.7,0.6,1,1.1,1,1.4c0,0.7-1,1.1-3.5,1.4c-3.9,6-6.6,9.4-10.7,13.3c6,3.4,11.7,4.8,20.1,5.3v0.7
		c-2.6,1.6-4.1,3.7-4.7,6.6c-0.2,0.9-0.4,1.2-0.9,1.2c-0.4,0-1.1-0.2-2.6-0.7c-6.6-2.3-11.3-5.3-15.8-9.8c-4.9,3.9-9.1,6.5-14.8,9.1
		c1.6,0.7,2.6,1.1,5.4,2.5h16.1c1.4-1.6,1.8-2,3-3.5c2.6,1.6,3.4,2.1,5.9,3.7c0.9,0.7,1.2,1.1,1.2,1.4c0,0.5-0.6,1.1-2,1.9
		c-0.1,2.2-0.1,3.7-0.1,5c0,3.5,0.1,7.9,0.3,14c0,1.6-0.7,1.9-5.1,1.9c-2.5,0-2.8-0.1-2.9-1.2v-3.5H39.3v2.8
		c-0.1,0.9-0.1,1.1-0.4,1.3c-0.6,0.4-2,0.6-4.4,0.6c-2.7,0-3.1-0.1-3.1-1.5c0.1-11.5,0.1-14,0.1-17.1c0-2.8,0-2.9-0.1-7.3
		c-2.2,0.9-3.5,1.4-6.9,2.5l-0.4-0.8c8.4-4.9,14.3-9.6,20.8-16.4c-2.5-3.4-3.7-5.7-5.5-10c-3.1,4.1-5.5,6.5-10.6,10.4l-0.6-0.5
		c3-4.8,4.5-8,6.6-13.7c1.8-5,2.5-7.8,3.1-12c10.2,2.4,11.1,2.7,11.1,3.5c0,0.7-0.9,1.1-3.2,1.5c-1.2,2.5-1.7,3.3-2.6,5H54.8z
		 M39.3,63h16.6V46.2H39.3V63z M42.3,14.5c-1,1.6-1.1,1.7-2.1,3.1c3,4.5,4.5,6.3,7.1,8.5c3.2-3.8,4.9-6.4,7.6-11.6H42.3z"/>
	<path d="M95.5,8.8c0-3,0-3.7-0.3-6.1c9.9,0.9,10.7,1,10.7,1.9c0,0.6-0.7,1-2.9,1.6c0,1.3,0,2.2,0,2.6h12.9c0-2.5-0.1-3.5-0.4-6
		c2.2,0.2,3.9,0.4,5,0.4c4.5,0.3,5.6,0.6,5.6,1.4c0,0.6-0.6,0.9-2.7,1.6v2.6h7.1c2.2-2.3,3-3,5.3-5.2c3.5,2.3,4.5,3.1,7.9,5.8
		c0.3,0.2,0.4,0.4,0.4,0.5c0,0.3-0.3,0.4-0.7,0.4h-20c0,1.2,0.1,1.5,0.1,3.1c0,0.7-0.1,0.9-0.4,1.2c-0.6,0.4-2.4,0.7-4.8,0.7
		c-2,0-2.4-0.2-2.4-1.2l0.1-3.7H103c0,1.4,0,1.4,0.1,3c0,0.6-0.1,0.7-0.5,1.1c1.7,1,2.4,1.6,4.8,3.2c0.5,0.4,0.7,0.7,0.7,1.1
		c0,0.5-0.5,0.9-2.1,1.8c0.1,6.6,0.1,6.7,0.2,10.5c0,1.4-0.9,1.9-4.1,1.9c-0.4,0-0.4,0-1,0c-0.1,0-0.1,0-0.1,0
		c-1.2,0-1.7-0.4-1.7-1.3v-1H87.7v21.8L87.6,61c0,1.9,0,3.7,0.1,6.7c0,0.8-0.1,1.2-0.6,1.4c-0.6,0.4-2.4,0.6-4.5,0.6
		c-1.9,0-2.5-0.3-2.5-1.6c0.4-16.1,0.4-16.1,0.4-21.8c0-19-0.1-28.2-0.4-33c3.7,1.7,4.8,2.2,8.3,4h10.4c1.2-1.3,1.4-1.6,2.4-2.5
		c-1.4,0.1-2.1,0.2-3.2,0.2c-2.2,0-2.6-0.1-2.6-1.2c0.1-1.7,0.1-1.7,0.1-3.4h-13c-1.8,0-3.2,0.1-4.8,0.4l-0.4-2.5
		c2,0.4,3.4,0.6,5.1,0.6H95.5z M99.3,18.7H87.7v4.2h11.6V18.7z M99.3,24.4H87.7v4.5h11.6V24.4z M112.7,55.9
		c9.2,1.6,12.5,3.4,12.5,6.6c0,1.9-1.3,3.7-2.7,3.7c-0.8,0-0.9-0.1-2.2-2c-0.8-1.1-3-3.5-4-4.5c-1-0.9-1.9-1.5-3.5-2.5
		c0.1,3.5,0.1,3.5,0.3,10c0,0.4-0.1,0.6-0.1,0.9c-0.4,0.4-1.8,0.7-4,0.7c-2.2,0-2.4-0.2-2.4-1.4c0.1-1.7,0.1-1.7,0.3-7.1v-1.7
		c-5.8,4.4-8.8,5.8-16.6,8.2l-0.2-0.8c5.9-3.6,9.2-6.6,13.3-11.9h-2.7v0.4c-0.1,1.1-0.8,1.4-4.1,1.4c-1.9,0-2.2-0.1-2.2-1.2
		c0.2-4,0.2-4.5,0.2-9.9c0-2.5-0.1-3.7-0.3-6.3c3,1.2,3.9,1.5,6.7,2.7h6v-3.5H94.4c-1.6,0-3.1,0.1-4.3,0.4l-0.3-2.5
		c1.7,0.4,2.9,0.5,4.8,0.5h12.1c-0.1-2-0.1-2.7-0.4-5.2c3.6,0.4,4.8,0.6,6.8,0.9v-0.4c0.1-4.5,0.1-6.3,0.1-9.9c0-3.5,0-4.8-0.1-7.8
		c3.3,1.4,4.3,1.8,7.6,3.3h10.9c1.7-1.7,2.2-2.2,3.9-3.7c2.4,1.6,3.1,2.1,5.4,3.8c0.5,0.4,0.7,0.7,0.7,1.1c0,0.6-0.5,1-2.2,2v24.5
		c0,5.6,0,5.6,0.3,16.9c0,0.4,0,0.7,0,0.9c0,3-0.8,4.6-2.9,5.7c-1.4,0.7-3.7,1.2-5.6,1.2c-0.7,0-0.9-0.2-1-1.2
		c-0.1-3.7-0.9-5-4.1-6.3v-0.7c3.8,0.2,3.8,0.2,5.4,0.2c0.7-0.1,0.8-0.3,0.8-1.2v-30H120v0.9c0,1.2-0.7,1.4-4,1.4
		c-0.4,0-0.8,0-1.4,0c-0.2,0.7-0.4,0.9-2.1,1.4v2.1h8.2c1.3-1.3,2.5-2.5,3.6-3.7c2.5,1.8,3.3,2.4,5.8,4.3c0.2,0.2,0.3,0.4,0.3,0.5
		c0,0.2-0.3,0.4-0.7,0.4h-17.2v3.5h6.7c1.2-1.3,1.6-1.7,2.7-2.9c2.2,1.4,2.7,1.8,4.8,3.2c0.4,0.4,0.7,0.6,0.7,0.8
		c0,0.5-0.4,0.9-1.8,1.7c0,6.7,0,6.7,0.1,10.1c0,0.7-0.1,0.9-0.4,1.2c-0.4,0.4-2.1,0.6-4,0.6c-1.4,0-1.8-0.2-1.8-1V54h-6.8V55.9z
		 M106.7,42.7h-6.3v4h6.3V42.7z M106.7,48.2h-6.3v4.3h6.3V48.2z M119.5,46.7v-4h-7v4H119.5z M119.5,52.5v-4.3h-7
		c0.1,1.6,0.1,3,0.1,4.3H119.5z M132.1,18.7H120v4.2h12.1V18.7z M132.1,24.4H120v4.5h12.1V24.4z"/>
	<path d="M169,27.4c0-4-0.1-4.7-0.4-7.1c8.4,0.7,9.2,0.7,10.1,1c0.6,0.2,0.9,0.5,0.9,0.9c0,0.6-0.9,1.1-2.8,1.6
		c0,11.7,0,12.4-0.2,16c-0.7,12.5-3.3,18.6-10.4,23.7c-3.9,2.8-8,4.5-15.2,6.5l-0.5-0.8c6.1-3,9.8-5.8,12.9-9.7
		c2.4-3,3.6-5.7,4.6-10c-5.1,2.9-5.2,3-13.6,6.3c-0.1,2.1-0.5,3-1.2,3c-0.8,0-1.2-0.9-4.2-9.5c4-0.1,11.7-0.9,19.5-2.2
		c0.3-2.3,0.4-3.5,0.5-7.7h-12.3c-2,0-3,0.1-4.2,0.4l-0.6-2.5c1.9,0.4,3.2,0.6,4.8,0.6H169c0.1-3,0.1-3.7,0.1-9H155
		c-1.7,0-2.9,0.1-4.5,0.4l-0.6-2.5c2,0.4,3.2,0.6,5,0.6H169z M187.4,11.3c0-3.8-0.1-5.6-0.4-7.6c2.2,0.2,4,0.4,5.1,0.4
		c4.5,0.4,5.6,0.7,5.6,1.4c0,0.6-0.6,1-2.8,1.7l0.1,4h7.2c1.9-2,3.6-3.9,5.2-5.6c3.4,2.6,4.4,3.4,7.6,6c0.3,0.4,0.4,0.5,0.4,0.7
		s-0.3,0.4-0.7,0.4H195c0.1,2.5,0.1,2.5,0.1,4.4c-0.1,0.4-0.2,0.7-0.5,0.8c-0.6,0.4-2.1,0.6-3.9,0.6c-2.8,0-3.3-0.2-3.5-1.2
		c0.1-2.2,0.1-2.5,0.1-4.5h-13c0.1,2.6,0.1,2.6,0.1,4.5c-0.1,0.5-0.1,0.7-0.4,0.9c-0.6,0.3-2.2,0.5-4,0.5c-3,0-3.5-0.1-3.5-1.3
		c0.1-3.2,0.1-3.2,0.1-4.5h-12.1c-1.3,0-3.5,0.2-4.9,0.4l-0.6-2.6c2.3,0.5,3.5,0.6,5.5,0.6h12.1c0-1,0-1.4,0-2.3
		c0-2.2-0.1-3.2-0.2-5.3c2.2,0.2,3.9,0.3,5,0.4c4.7,0.3,5.8,0.6,5.8,1.4c0,0.6-0.8,1.1-2.8,1.7c-0.1,1.2-0.1,2.2-0.1,2.8
		c0,0.5,0,0.7,0.1,1.3H187.4z M201.8,27.4c2.7-3,2.7-3,4.9-5.4c3.2,2.5,4.3,3.2,7.3,5.8c0.2,0.3,0.4,0.5,0.4,0.6
		c0,0.2-0.3,0.4-0.7,0.4h-21l0.1,9.9h8.6c1.7-1.9,3.2-3.5,4.7-5.1c3,2.4,4,3.1,6.8,5.5c0.3,0.3,0.4,0.5,0.4,0.7
		c0,0.3-0.4,0.5-0.9,0.5h-19.7l0.1,10.9v0.2h9.8c2.4-2.5,3.2-3.3,5.4-5.6c3.2,2.5,4.2,3.3,7.3,6.1c0.3,0.3,0.4,0.5,0.4,0.6
		c0,0.2-0.4,0.4-0.8,0.4h-22.1c0.1,9.1,0.1,9.1,0.3,13.8c0,0.9-0.2,1.2-1,1.5c-0.6,0.2-3.3,0.5-5,0.5c-1.8,0-2.3-0.3-2.4-1.5
		c0.3-7.5,0.4-13.3,0.4-22c0-5.4-0.1-15.4-0.1-19.7c0-2.4-0.1-3.4-0.4-5.4c2.2,0.1,4,0.3,5,0.4c5.2,0.4,5.8,0.6,5.8,1.4
		c0,0.6-0.7,1.1-2.8,1.6v3.7H201.8z"/>
	<path d="M288.6,59.1c-3.1,1.6-4.1,3.1-4.5,6.7c-0.1,0.8-0.4,1.1-1.2,1.2c-1.2,0.1-8.9,0.4-12.8,0.4c-13.7,0-18.3-0.3-21.5-1.2
		c-3.9-1.2-6.8-3-8.9-5.6c-1.2-1.6-2.2-3.4-3.5-6.9c-3.5,5-3.9,5.5-9.6,12.2c0,0.4,0,0.7,0,0.9c0,1.5-0.4,2.4-1.1,2.4
		c-0.3,0-0.6-0.3-0.9-0.9c-0.1-0.2-0.1-0.2-4.5-9.4c3.5-0.8,6.4-2.2,9.7-4.6V34.4h-4.3c-1.4,0-3.2,0.2-4.5,0.5l-0.5-2.7
		c2.3,0.5,3.7,0.6,5,0.6h3.5c1.8-2,2.4-2.7,4.2-4.6c2.6,1.9,3.4,2.5,5.9,4.4c0.6,0.5,0.8,0.8,0.8,1.3c0,0.7-0.4,1-2.2,2.2v17.1
		c1.5,2.7,2.5,3.8,4.3,4.8c2.9,1.5,7.1,2,15.7,2c8.4,0,20.2-0.6,30.9-1.7V59.1z M223.2,4.1c4.1,1.5,7.6,3.1,10.8,5.1
		c3,1.9,4.8,4.1,4.8,6.1c0,3.2-3,7.3-5.5,7.3c-1.2,0-1.5-0.5-2.4-3.3c-1.8-6-3.8-9.6-8.2-14.6L223.2,4.1z M251.3,52.3v3
		c-0.1,0.6-0.1,0.9-0.5,1.1c-0.6,0.3-2.2,0.5-4,0.5c-2.6,0-3.1-0.2-3.2-1.3c0.3-6.6,0.4-9,0.4-16.8c0-19.2-0.1-22.8-0.3-25.9
		c3.6,1.6,4.7,2.2,8.4,4.1h7.4v-6.3c0-3.5-0.1-4.8-0.4-7.5c2,0.2,3.5,0.4,4.5,0.4c5,0.4,6.3,0.7,6.3,1.6c0,0.7-0.9,1.3-3,1.9V17h8.1
		c1.7-1.9,2.2-2.5,3.9-4.2c2.7,1.8,3.5,2.4,6,4.2c0.6,0.4,0.9,0.8,0.9,1.2c0,0.5-0.2,0.7-2.4,2.2c-0.1,5.6-0.1,9.7-0.1,12.5
		c0,8.2,0.1,12.8,0.3,21.9c-0.1,0.6-0.3,0.8-0.6,1c-0.6,0.4-2,0.7-3.5,0.7c-0.9,0-1.7-0.1-2.4-0.1c-0.8-0.1-1-0.3-1.2-1.1v-3H251.3z
		 M259.4,18.5h-8.1v14.6h8.1L259.4,18.5z M259.5,34.6h-8.1v16.1h8.2L259.5,34.6z M275.8,18.5H267v14.6h8.8V18.5z M275.8,34.6H267
		v16.1h8.8V34.6z"/>
	<path d="M309.3,18.9c1.4-1.7,1.8-2.3,3.3-4c2.1,1.9,2.7,2.4,4.5,4.5c0.2,0.2,0.4,0.5,0.4,0.7c0,0.3-0.3,0.4-0.9,0.4h-8.1v14.5
		c2.3-0.6,3.2-0.9,6-1.9l0.3,0.7c-2.2,1.8-3,2.4-6.3,4.5V50c0,0.8,0,2.1,0,3.9c0.1,3.2,0.1,3.2,0.1,9.2c-0.1,2.9-1.1,4.2-3.5,5.3
		c-1.6,0.6-4.3,1.3-5.3,1.3c-0.8,0-1-0.2-1.1-1.4c-0.5-3.7-1.6-4.7-7.3-6.8l0.1-0.9c5.2,0.5,5.5,0.5,8.6,0.6c0.9-0.1,1-0.1,1-1.4
		V42.3c-1.4,0.8-1.4,0.8-4.5,2.2c-0.2,2.2-0.6,3-1.2,3c-0.8,0-0.8,0-3.2-9.7c2.7-0.1,4.6-0.4,9-1.4v-16h-3.7c-1.5,0-2.5,0.1-4.3,0.5
		l-0.4-2.7c1.5,0.4,3.2,0.7,4.7,0.7h3.7v-5.5c0-4.4-0.1-7.7-0.4-10.2c8.4,0.9,8.9,1,9.8,1.3c0.6,0.2,0.9,0.5,0.9,0.9
		c0,0.6-0.7,1-2.9,1.7v11.7H309.3z M335.3,8.5c-0.4,0.3-0.6,0.4-1.1,0.8v12.2c0,0.4,0,1.2,0,2.4c0.1,2.5,0.1,2.9,0.1,6.3
		c0,0.2,0,0.4,0,0.5c0,1.4-0.1,1.9-0.9,3c2.6,0.6,6.6,1.7,7.1,1.9c0.6,0.2,0.9,0.6,0.9,0.9c0,0.3-0.2,0.5-0.4,0.6
		c-0.4,0.1-0.4,0.1-2.7,0.4c-0.9,0.8-2.8,2.2-5.8,4.1h12.2c1.9-1.9,2.5-2.4,4.5-4.2c2.6,1.7,3.3,2.3,5.5,4.2
		c0.6,0.5,0.9,0.9,0.9,1.2c0,0.6-0.6,1.1-2.4,2.1c0,14.7,0,14.7,0.3,22.5c0,0.7-0.1,1.1-0.4,1.4c-0.4,0.6-2.2,0.9-4.8,0.9
		c-2.5,0-2.8-0.1-2.9-1.4v-2.7h-20.7v2.5c0,0.9-0.3,1.3-1.2,1.6c-0.6,0.2-2.8,0.4-4.3,0.4c-2,0-2.6-0.4-2.6-1.5c0-0.1,0-0.1,0-0.2
		c0.3-6.6,0.4-9.7,0.4-16.3c0-8-0.1-10.6-0.3-14.5c3.7,1.7,4.9,2.2,8.6,4.2h4.4c1.1-2.7,1.3-3.4,2-6.6c-1.6,0.9-3.9,1.7-5.1,1.7
		c-0.6,0-0.7-0.1-0.8-1.2c-0.2-2.4-1.2-3.4-5.5-4.8v-0.8c0.8,0.1,1.4,0.1,1.7,0.1c2.7,0.2,3.1,0.2,4.8,0.2c0.7-0.1,0.8-0.2,0.8-1.1
		v-6.1c-1.8,1.3-3.1,2.2-11.2,7.5c0.1,0.4,0.1,0.7,0.1,1c0,1.2-0.3,1.9-0.8,1.9c-0.3,0-0.6-0.3-0.9-0.9c-0.7-1.3-1.9-4.5-3-7.3
		c3.9-0.5,10.5-2.1,15.8-3.7V8.5h-10.2c-1.8,0-2.7,0.1-4.3,0.4l-0.4-2.5c1.7,0.4,3,0.6,4.7,0.6h9.4c1.4-1.7,1.9-2.2,3.5-3.9
		c2.1,1.5,2.7,2,4.7,3.5l0.4,0.4h14c1.6-1.7,2.1-2.3,3.7-4c2.5,1.8,3.2,2.3,5.3,4c0.6,0.6,0.9,0.9,0.9,1.2c0,0.5-0.4,0.8-2.4,2v11.2
		c0,0.1,0.1,3.1,0.1,9c0.1,0.4,0.1,0.7,0.1,0.9c0,2-0.7,3.2-2.5,4.1c-1.4,0.7-4.1,1.4-5.5,1.4c-0.6,0-0.7-0.1-0.8-1
		c-0.4-2.6-1.8-3.8-5.8-5.2v-0.8c2.7,0.2,3.7,0.2,6.8,0.4c0.6,0,0.9-0.2,0.9-0.9V22l-4.1,3c-5.1,3.4-5.1,3.4-6.3,4.2
		c-0.2,2.5-0.4,2.9-1.1,2.9c-0.4,0-0.6-0.2-0.9-0.9c-0.5-1.1-1.7-4.5-2.4-6.8c3.2-0.4,9.6-2.2,14.8-4V8.5H335.3z M315.6,10.2
		c6.8,2.2,9.4,3.8,9.4,6.1c0,2.2-1.9,4.8-3.5,4.8c-0.6,0-0.9-0.4-1.3-1.4c-1.2-3.5-2.7-6.1-5.1-8.9L315.6,10.2z M345.3,43.1h-20.7
		V52h20.7V43.1z M324.6,53.5v10.4h20.7V53.5H324.6z M337,10.6c6.6,1.9,9.2,3.5,9.2,5.7c0,2.3-1.9,4.8-3.6,4.8
		c-0.8,0-1.1-0.4-1.8-2.4c-1-2.8-1.8-4.3-4.3-7.5L337,10.6z"/>
	<path d="M409.9,46.4c1.7-1.6,2.2-2.1,4-3.6c2.5,1.7,3.3,2.2,5.7,4c0.4,0.4,0.6,0.7,0.6,1c0,0.6-0.6,1.1-2.2,2v16.1h2.5
		c1.8-2.2,3.5-4.2,5.2-6.2c3,2.8,4,3.7,7,6.7c0.1,0.1,0.3,0.3,0.3,0.4c-0.1,0.4-0.2,0.6-0.7,0.6h-60.6c-2.5,0-3.7,0.1-6.3,0.5
		l-0.4-2.8c2.9,0.6,4.8,0.8,6.8,0.8h7.6V47.1c0-1.4-0.1-2.3-0.3-4.3c3.6,1.4,4.7,1.9,8.2,3.6H409.9z M432.5,42.8
		c0.1,0.1,0.2,0.3,0.2,0.4c0,0.7-0.9,1.1-2.3,1.1c-0.4,0-0.9-0.1-1.9-0.1c-2.7,1.7-3.2,2.1-7,4.3l-0.7-0.5c0.4-2.2,0.6-3.1,0.9-6.2
		h-46.3c-0.1,2.5-0.7,4.4-1.8,6.3c-1.2,2.1-3.2,3.6-4.6,3.6c-1.8,0-3.2-1.9-3.2-4.5c0-1.8,0.5-2.6,2.1-3.3c3.5-1.4,5.3-3.2,5.7-5.5
		c-0.7,0.2-2.3,0.4-4.1,0.4c-1,0-1.3-0.2-1.4-1c0.1-2.3,0.3-7.9,0.3-10.6c0-0.6,0-1.2-0.1-3.6c-0.1-1.5-0.1-1.5-0.1-3.6
		c2.8,1.4,3.7,1.8,6.7,3.3h14.5c1.4-1.3,1.8-1.7,3.2-2.9c2.2,1.5,2.8,2,4.8,3.7c0.4,0.4,0.4,0.5,0.4,0.8s-0.1,0.5-0.4,0.7
		c-0.1,0.1-0.1,0.1-0.9,0.5c-0.2,0.1-0.3,0.1-0.7,0.4c-0.1,1.7-0.1,2.7-0.1,3.3l0.1,4.5c0.1,0.2,0.1,1,0.1,2.4
		c-0.1,1.2-0.9,1.5-4.2,1.5c-1.5,0-1.9-0.2-1.9-1v-0.5h-15.1v0.5l-0.1,0.7c0.6,0.9,0.8,1.3,0.9,2.4h45.7c1.3-1.1,1.4-1.2,2.5-2.2
		c-1.3-0.1-1.4-0.1-1.4-1.1v-0.2h-15.6v0.5c-0.1,1-0.9,1.3-3.5,1.3c-2.6,0-2.8-0.1-2.9-1.3c0.1-2.5,0.3-7.3,0.3-10.7
		c0-1.9-0.1-3.4-0.1-4.6c-0.1-0.9-0.1-1-0.1-1.7c2.9,1.1,3.8,1.5,6.8,3h14.9c1.4-1.6,1.7-2,3.2-3.5c2.1,1.5,2.8,1.9,4.9,3.5
		c0.4,0.4,0.6,0.6,0.6,0.9c0,0.7-0.6,1.2-2.4,1.9c0,0.8,0,1.3,0,1.8c0,1.4,0.1,7.4,0.2,8.4v0.1c-0.1,1-0.3,1.2-2,1.5
		c2.2,1.7,2.8,2,5.5,4.2L432.5,42.8z M379.5,28.9v-4.3h-4.8v4.3H379.5z M374.7,35.1h4.8v-4.7h-4.8V35.1z M384.4,20.4
		c-0.2,1-0.9,1.2-3.9,1.4c-0.4,0-0.6,0-0.7,0c-0.1,0-0.2,0-0.4,0c-0.1,0-0.2,0-0.2,0c-1.5,0-2-0.4-2-1.4c0.2-6.8,0.2-8.4,0.2-10.7
		s0-2.3-0.1-5.5c0-0.7,0-0.7-0.1-1.9c3.3,1.1,4.3,1.6,7.6,3.2H412c1.3-1.2,2.6-2.4,3.9-3.5c2.3,1.6,3,2.1,5.3,3.8
		c0.5,0.4,0.7,0.6,0.7,0.9c0,0.5-0.2,0.7-2,1.7c0,1.9,0,3.2,0,3.9v2.2c0,1.4,0,2.7,0.1,5.5c0,0.4-0.1,0.8-0.4,0.9
		c-0.4,0.4-2.3,0.6-4.2,0.6c-0.1,0-0.1,0-0.7,0c-0.1,0-0.1,0-0.2,0c-1.2,0-1.7-0.4-1.8-1.2v-0.9h-28.2V20.4z M394.8,7h-10.4v4.4
		h10.4V7z M384.4,12.9V18h10.4v-5.1H384.4z M389.8,24.7h-5v4.3h5V24.7z M384.8,30.5v4.7h5v-4.7H384.8z M410.2,47.9h-23.6v4.8h23.6
		V47.9z M410.2,54.2h-23.6v4.9h23.6V54.2z M410.2,65.9v-5.3h-23.6v5.3H410.2z M412.6,11.4V7h-11.1v4.4H412.6z M401.5,18h11.1v-5.1
		h-11.1V18z M411.7,28.9v-4.3h-4.9v4.3H411.7z M406.8,35.1h4.9v-4.7h-4.9V35.1z M422.4,24.7h-5.1v4.3h5.1V24.7z M417.2,30.5v4.7h5.1
		v-4.7H417.2z"/>
	<path d="M448.7,46.6c4.6-1.2,4.6-1.2,6.5-1.8c0-1.4,0.1-3.5,0.1-6c0-21.4-0.1-30.4-0.6-35.4c10.2,0.9,11,1,11,2.1
		c0,0.9-0.9,1.4-2.8,1.9c-0.1,15.6-0.1,15.6-0.1,18.8c0,4.4,0,7,0.1,14.4c0,1.7,0,1.7,0.1,12.7c0,3.6,0.1,4.9,0.1,13.8
		c0,0.8-0.2,1.2-0.6,1.4c-0.8,0.4-3.4,0.8-5.7,0.8c-1.4,0-1.9-0.3-1.9-1.4c0.1-1.9,0.1-8.7,0.3-20.6c-4.2,3.4-6.6,5-12.9,8.9
		c-0.1,2.2-0.5,3-1.4,3c-0.9,0-2-2.6-4.5-10.2c2-0.2,2.2-0.3,4.9-0.8V20.2c0-4.3-0.1-5.8-0.4-9.2c2.2,0.1,3.8,0.3,5,0.4
		c4.1,0.3,5.6,0.7,5.6,1.7c0,0.7-0.6,1.2-2.8,1.9V46.6z M464.1,67.6c7.4-6,11.7-10.7,15.8-17.7c-3.5-6-5.6-12.2-6.8-20
		c-2.9,4.5-4.8,6.9-9,11l-0.7-0.5c4.3-8.1,6.6-14,8.7-22.8c1.3-5.3,2.1-9.3,2.7-14.2c10.2,2,10.4,2,11,2.3c0.4,0.2,0.7,0.5,0.7,0.8
		c0,0.8-0.9,1.3-3.1,1.7c-1.8,5.1-3.1,8.1-5.2,12.5h13.6c2.2-2.7,3-3.5,5-6.1c3.5,2.9,4.5,3.7,7.7,6.6c0.1,0.2,0.3,0.4,0.3,0.5
		c0,0.3-0.3,0.4-0.7,0.4h-7.4c-1.8,12.8-4.4,20.3-9.6,27.9c5.3,4.5,9.6,6.4,18,8.1v0.9c-2.2,1.1-2.8,1.7-4.1,3.7
		c-0.8,1.2-1.4,2.6-1.7,3.7c-0.2,0.9-0.5,1.1-0.9,1.1c-0.3,0-1.6-0.7-3.2-1.8c-4.4-2.9-8.3-6.6-11.9-11c-5.8,6.4-10.6,9.9-18.7,13.5
		L464.1,67.6z M477.5,22.2c-1.4,2.6-1.9,3.5-3.4,6c1.6,6.4,4.2,11.7,8.3,16.9c3.4-7.4,5.1-13.9,6-23H477.5z"/>
	<path d="M519.5,37.4c-2.7,0.8-3.9,1.1-7.3,1.9c-0.3,1.7-0.7,2.5-1.3,2.5c-0.7,0-0.8-0.3-2.5-8.9c1.6,0.1,2.5,0.2,3.3,0.2
		c0.6,0,0.9,0,3.5-0.1c5.5-6.8,10.4-15.3,12.5-21.5c7.9,3.5,8.5,3.8,8.5,4.5c0,0.6-0.7,0.9-2.9,1c-5.5,6.8-10.6,12.1-15.1,15.8
		c5.9-0.2,8-0.4,11.2-0.7c-0.8-2.6-1.2-3.6-2.8-6l0.6-0.5c4.2,2.5,6,3.8,7.3,5.4c1.1,1.3,1.7,2.7,1.7,4c0,2.4-2.1,5.2-3.7,5.2
		c-1,0-1.5-0.8-1.9-2.7c-0.1-1.1-0.3-1.7-0.6-3.4c-0.5,0.1-0.5,0.1-1.4,0.5c-0.5,0.1-0.8,0.2-2.2,0.7v16.3c0,5,0,10,0.1,15.6
		c0,1.6-0.9,2-4.5,2c-2.3,0-2.7-0.2-2.7-1.4c0,0,0-0.1,0-0.2c0.1-3.4,0.1-3.4,0.4-15.1v-6l-0.9,0.1c-1.4,4.5-2.3,6.6-4.2,10.1
		c-1.9,3.7-3.2,5.5-5.9,8.8l-0.7-0.4c1.7-4.6,2.4-7.9,3.5-14.1c0.7-4.2,0.9-5.9,1.1-8.9c3.2,0.9,3.2,0.9,7.1,2.2V37.4z M524.2,9.5
		c-3.7,3.8-4.8,4.8-7.3,6.6c3.1,2,4,3,4,5c0,2.9-1.7,5.2-3.8,5.2c-1.1,0-1.5-0.6-2.2-3c-1.1-3.6-2.6-6.5-5.5-10.2l0.4-0.6
		c0.9,0.4,1.6,0.7,2.1,0.9c1.9,0.8,2.2,0.9,3.2,1.4c2.2-4.4,3.5-8.3,4.3-12.8c7.9,2.4,10,3.2,10,4s-0.7,1-3.1,1.2L524.2,9.5z
		 M527.3,41.5c5.2,4,7.8,7.3,7.8,10.2c0,2.9-2.4,6.6-4.3,6.6c-0.9,0-1.3-0.8-1.4-2.9c-0.4-7-0.9-9.4-2.6-13.5L527.3,41.5z
		 M565.2,17.2c1.6-1.9,2.1-2.5,3.9-4.4c2.5,1.7,3.2,2.3,5.5,4c0.6,0.5,0.9,0.9,0.9,1.2c0,0.7-0.7,1.2-2.4,2.2v24.4
		c0,5.5,0,7.1,0.2,16.1c0,3.7-0.9,5.4-3.7,6.7c-1.4,0.6-4,1.2-5.8,1.2c-0.7,0-0.9-0.2-1-1.3c-0.1-1.7-0.7-2.9-1.8-3.7
		c-1.1-0.9-1.1-0.9-7.7-3.1l0.1-0.8c7.3,0.4,7.4,0.4,11.4,0.5c0.9,0,1.1-0.2,1.1-1.1V18.7h-8.1c-0.3,4.5-0.5,6.1-1.1,9.3
		c6.3,5.3,9.2,9.4,9.2,13.2c0,3-2.2,6.7-4,6.7c-0.5,0-0.9-0.4-1.2-1.2c-0.2-0.6-0.2-0.6-0.7-5c-0.5-4.5-1.6-8.2-3.5-12.1
		c-2,8.9-5,13.8-12.2,20l-0.4-0.5l-0.1,4.8v6.6c0,1.4,0,3.5,0.1,6.6c0,0.1,0,0.3,0,0.3c0,1.4-1.1,1.8-4.8,1.8c-2,0-2.6-0.3-2.6-1.4
		c0-0.1,0-0.1,0-0.2c0.2-8.2,0.4-24,0.4-35c0-7.7-0.1-14.6-0.4-19.7c3.6,1.7,4.7,2.3,8.1,4.5h6.3C551,14.3,551,13,551,10
		c0-3.2-0.1-4.3-0.4-7.1c9.3,0.8,10.6,1,10.6,2c0,0.6-0.7,1-3,1.7c-0.1,5-0.1,6.8-0.4,10.6H565.2z M543.8,48.8
		c0.2-0.4,0.2-0.4,1.3-2.2c2.1-3.7,4-9.9,4.8-16.2c0.6-3.9,0.8-6.7,0.9-11.7h-7.1V48.8z"/>
	<path d="M589,38.6c-3.6,2.9-4.2,3.4-8.9,6.4l-0.6-0.7c4.3-4.8,7.1-8.6,10.4-14.1c3.2-5.4,4.5-8.4,5.4-12c8.7,2.8,10.3,3.5,10.3,4.3
		c0,0.7-1,1.1-3.3,1.3c-2.7,4-4.5,6.5-7.2,9.2c2.9,0.7,3.8,1.1,3.8,1.7c0,0.6-0.7,1-2.3,1.5v13.9c0,3.2,0,8.9,0.1,17.4
		c-0.1,0.9-0.2,1.4-0.6,1.7c-0.6,0.5-2.6,0.8-5,0.8c-1.9,0-2.4-0.4-2.4-1.9c0.3-10.8,0.4-12,0.4-17.9V38.6z M580,23.7
		c4-3.9,6.8-7.4,9.9-12.5c2.2-3.7,3-5.3,3.8-8.3C604.2,6.2,605,6.5,605,7.5c0,0.8-0.9,1.1-3.7,1.2c-7.1,7.7-11.8,11.3-20.7,15.8
		L580,23.7z M631.3,23.1c9.5,4,14.9,8,14.9,11.2c0,1.4-0.7,3.2-1.5,4.6c-0.7,1.2-1.9,1.9-3,1.9c-0.9,0-1.3-0.5-2.1-2.4
		c-1.3-3-1.8-4.2-2.9-6.3c-5.5,1.1-14,2.6-20.7,3.6c1.1,0.3,2,0.5,2.6,0.6c3.1,0.7,3.6,0.9,3.6,1.4c0,0.6-0.8,0.9-3,1.4
		c-0.6,1-0.7,1.4-1.3,2.2h11.2c1.8-1.9,2.3-2.4,4.2-4.1c2.7,2.1,3.6,2.8,6.3,5c0.6,0.5,0.9,0.9,0.9,1.2c0,0.7-0.8,1.1-3.4,1.7
		c-4,5.3-6,7.6-9.2,10.4c5.8,2.7,12.5,4,20.7,4.2v0.7c-2.7,1.4-4.1,3.2-5,6.3c-0.4,1.5-0.6,1.7-1.1,1.7c-1.5,0-6.9-1.8-10-3.4
		c-3.4-1.7-6.1-3.5-8.9-6c-3.5,2.4-7.7,4.8-11.4,6.3c-3.7,1.5-6.9,2.5-13.7,3.9l-0.4-0.9c8.6-3.5,15-7.4,21.5-13.4
		c-2.5-2.9-3.9-5.3-5.3-8.6c-4.5,5.5-9.1,9.3-15.8,13l-0.5-0.7c4.5-4.6,7.2-8,10.2-13.2c1.9-3.2,3.2-6.2,4.2-8.9l-8.2,1.3
		c-0.2,1.7-0.7,2.7-1.4,2.7c-0.8,0-0.8,0-2.4-9.6c3.1,0.3,4.6,0.4,6.9,0.4c0.4,0,0.8,0,7.3-0.1c2.9-2.8,4.6-4.8,7.7-9
		c4.4-5.7,6.4-8.9,8.4-12.9c2.1,1.1,3.7,1.8,4.8,2.3c4.5,2.1,5.6,2.7,5.6,3.4s-0.9,1-3.7,1c-9.1,8-12.2,10.5-19.1,15.1
		c0.8,0,0.8,0,2.1,0c3.6-0.1,9.3-0.4,15.3-0.8c-1.7-3-2.6-4.1-5-6.6L631.3,23.1z M604,12c3.8,1.4,5.5,2,8.4,3.5
		c2.2-4.8,3.4-8.4,3.9-12.3c2.2,0.7,3.9,1.1,5,1.4c5.4,1.5,6.5,1.9,6.5,2.7s-1,1-3.5,1.2c-4.2,4.3-5.9,5.9-9.3,8.4
		c3,1.9,3.9,3,3.9,4.6c0,2.7-2.3,5.7-4.4,5.7c-0.7,0-1.2-0.3-1.7-1.2c-0.2-0.4-0.4-0.7-1.2-2.6c-1.8-4-4.2-7.2-8.2-10.7L604,12z
		 M616.9,42.9c-0.7,0.9-0.9,1.3-1.7,2.4c1.9,3,3.2,4.3,7.1,7.1c3.2-3.5,4.6-5.4,6.9-9.5H616.9z"/>
	<path d="M673.9,11.6c-0.1-5.3-0.1-5.4-0.4-8.6c2.2,0.2,4,0.4,5,0.5c4.5,0.5,5.8,0.9,5.8,1.7c0,0.7-0.7,1.1-2.9,1.7
		c0,10.9,0,15.2,0.1,22.3c0,1.5-0.8,1.8-5.4,1.8c-2.1,0-2.4-0.1-2.5-1.2c0.1-2.5,0.1-2.5,0.1-7.1c-3.3,1.9-8.8,4.6-14.3,7.2
		c-0.2,2.4-0.5,3.1-1.2,3.1c-0.9,0-1.2-0.9-4.2-9.9c4.8-0.1,12.5-1.2,19.7-2.7c0-3.1,0-3.1,0-3.5v-3.6h-13.3c-2,0-3.5,0.1-5.2,0.5
		l-0.4-2.7c1.9,0.4,3.6,0.6,5.6,0.6H673.9z M672.8,53.4v14.3c0,1.5-0.8,1.8-5.5,1.8c-2.6,0-3-0.1-3-1.4c0.2-11,0.3-17.6,0.3-26.6
		c0-4.8-0.1-6.6-0.3-11.3c4.1,1.4,5.3,1.9,9.2,3.8H699c1.7-1.7,2.3-2.2,4.1-4.1c2.9,1.8,3.7,2.4,6.3,4.3c0.6,0.5,0.8,0.8,0.8,1.1
		c0,0.6-0.6,1.1-2.5,2.2v11.6c0,3.2,0.1,5.9,0.2,12.2c0,4.5-1.3,6-5.6,7.1c-1.6,0.4-3.5,0.6-4.7,0.6c-0.7,0-0.9-0.2-1-1.1
		c-0.1-1.8-0.9-3.2-2.5-4c-1.5-0.9-3.6-1.4-8.3-2.4l0.1-1c4.6,0.3,6.3,0.4,12.5,0.5c0.9-0.1,1.1-0.2,1.1-1.3v-6.4H672.8z
		 M699.6,42.8v-7.1h-26.7v7.1H699.6z M672.8,44.3v7.6h26.7v-7.6H672.8z M696.6,14.9c7.1-4.2,10.3-6.6,13-10.1c8.5,5,8.7,5.1,8.7,5.8
		c0,0.5-0.5,0.8-1.3,0.8c-0.6,0-1.5-0.1-2.4-0.2c-6.3,2.7-9.8,3.7-18,5.6V22c0,1,0.2,1.4,1,1.5c0.5,0.1,3.3,0.2,8.2,0.2
		c4.2,0,5.5-0.2,6.2-1.1c0.9-1.1,1.8-3.1,3.9-8.4l0.7,0.1l-0.4,6.8v0.6c0,0.6,0,0.6,1.8,1.4c0.9,0.4,1.7,1.4,1.7,2.6
		c0,1.5-0.9,2.5-2.5,3.2c-1.7,0.7-4.5,0.8-12.4,0.8c-11.2,0-12.4-0.1-14-0.9c-1.1-0.5-1.5-1.4-1.6-3.3V9.6c0-2.7-0.1-3.9-0.3-6.6
		c2.2,0.3,4,0.4,5.1,0.6c4.4,0.4,5.5,0.7,5.5,1.6c0,0.7-0.6,1-3,1.7V14.9z"/>
	<path d="M775.1,13.1c1.8-2.1,2.4-2.7,4.2-4.8c2.9,1.9,3.7,2.5,6.3,4.7c0.8,0.6,1.1,1,1.1,1.3c0,0.6-0.6,1.1-2.7,2.3
		c-1,16.9-1,17-1.9,23.1c-1,7.6-2.7,11.2-6,12.7c-1.5,0.6-4.1,1.1-6.4,1.1c-0.9,0-0.9-0.1-1.1-1.5c-0.2-3.1-1.7-4-9.4-6l0.1-0.7
		c4,0.4,9.3,0.8,10.7,0.8c2,0,3.1-1.1,3.5-3.8c1.1-6.5,2-17.1,2.2-27.7h-31.2c-6,9.5-10.7,14.2-20,20.2l-0.6-0.6
		c5.1-6.3,7.9-10.8,11-17.6c2.3-5.1,3.6-8.9,4.8-14.2c12,2.5,12.2,2.6,12.2,3.6c0,0.7-0.6,1-3.7,1.7c-1.3,2.7-1.8,3.6-2.8,5.3H775.1
		z M742.3,40.5v17.4c0,1.5,0.6,1.9,3.4,2c1.5,0.1,15,0.2,23.6,0.2c9.2,0,10.8-0.3,11.9-1.8c1.4-2.1,2.9-5.8,5.9-15h0.9l-0.9,12.2
		c-0.1,0.6-0.1,1-0.1,1.2c0,0.9,0.4,1.3,1.4,1.7c1.9,0.7,2.7,1.8,2.7,3.7c0,2.4-1.7,3.9-4.8,4.4c-3.5,0.6-11.7,0.8-29,0.8
		c-10.1,0-15.9-0.2-18.4-0.6c-3.4-0.5-4.7-2.4-4.8-6.7c0.1-4.5,0.1-6.5,0.1-9.2v-7.9c0-2.8-0.1-4.6-0.4-8.2c4.1,1.8,5.3,2.4,9.2,4.3
		h13.3V26.1h-12.8c-1.3,0-2.3,0.1-4.3,0.3l-0.5-2.3c1.9,0.4,3.2,0.5,5.2,0.5h12c1.6-1.9,2.1-2.5,3.7-4.4c2.7,1.9,3.6,2.4,6.2,4.4
		c0.6,0.5,0.9,0.8,0.9,1.1c0,0.6-0.7,1.1-2.5,1.9c0,7.7,0,7.7,0.1,13.6c0,1.1-0.2,1.5-0.8,1.9c-0.4,0.2-4,0.7-5.8,0.7
		c-0.9,0-1.3-0.4-1.4-1.5v-1.8L742.3,40.5z"/>
</g>
</svg>
