<?xml version="1.0" encoding="utf-8"?>
<!-- Generator: Adobe Illustrator 18.0.0, SVG Export Plug-In . SVG Version: 6.00 Build 0)  -->
<!DOCTYPE svg PUBLIC "-//W3C//DTD SVG 1.1//EN" "http://www.w3.org/Graphics/SVG/1.1/DTD/svg11.dtd">
<svg version="1.1" id="圖層_1" xmlns="http://www.w3.org/2000/svg" xmlns:xlink="http://www.w3.org/1999/xlink" x="0px" y="0px"
	 viewBox="0 0 158 72" enable-background="new 0 0 158 72" xml:space="preserve">
<g>
	<path d="M2,62.8C2.8,56.9,4.2,52.7,7,48.5c2.8-4.3,6.2-7.7,14.5-14.7c3.4-2.8,5-4.6,6.1-6.8c1-2.1,1.5-4.3,1.5-6.8
		c0-6.4-3.5-10.6-8.7-10.6c-3.5,0-5.7,1.7-6.8,4.9c-0.6,1.8-0.7,2.6-0.8,6.7c-0.1,2.9-1.5,4-4.7,4c-3.5,0-5.2-1.2-5.2-3.9
		c0-4,2.2-7.7,6.1-10.4c3.3-2.2,7.3-3.3,12.2-3.3c11.1,0,17.7,5.1,17.7,13.6c0,3.7-1.1,6.7-3.3,9.3c-1.5,1.8-4.3,3.9-8.1,6
		c-9.7,5.4-11.9,6.9-15.3,10c-2.9,2.6-4.3,4.6-5.8,8.3h21.3c6,0,8.2-1.9,9.5-8.5l2.5,0.5l-2.6,15.9H2z"/>
	<path d="M51.8,15.1c3.1-4.6,8.3-7.2,14.2-7.2c5.9,0,11.1,2.6,14.2,7.2c3.5,5.2,5.4,12.4,5.4,20.9c0,8.4-1.8,15.6-5.4,20.8
		C77.1,61.3,71.9,64,66,64c-5.9,0-11.2-2.6-14.2-7.3c-3.5-5.2-5.4-12.5-5.4-20.8C46.4,27.5,48.3,20.4,51.8,15.1z M58.5,55.8
		c1.6,4.3,4.1,6.4,7.5,6.4c3.7,0,6.3-2.5,7.9-7.6c1.3-4,1.9-9.9,1.9-18.6c0-9.5-0.7-15.6-2.3-19.8c-1.6-4.3-4-6.4-7.5-6.4
		c-6.8,0-9.8,8-9.8,26.2C56.2,45.3,56.9,51.6,58.5,55.8z"/>
	<path d="M136.6,12.5c1.8-1.8,2.4-2.3,4.4-4c3.2,2.4,4.1,3.2,7.1,5.8c0.4,0.4,0.5,0.6,0.5,0.9s-0.1,0.6-0.4,0.8
		c-0.4,0.3-0.4,0.3-3.5,1c-8.2,10.9-15.3,17.6-25.3,24.2h24.7c1.8-1.8,2.4-2.4,4.5-4.4c3,2.1,4,2.7,6.8,4.9c0.4,0.4,0.5,0.6,0.5,1
		c0,0.9-1,1.5-3.2,2.4c0.1,9.3,0.1,12.9,0.2,16.4c0.1,4.4,0.1,4.4,0.1,6.1c-0.1,1-0.4,1.5-1.2,1.7c-0.8,0.2-3.4,0.4-5.4,0.4
		c-1.5,0-1.9-0.3-2-1.3v-3.3h-26.4v3.2c-0.1,0.8-0.4,1.2-1.5,1.4c-0.8,0.2-2.9,0.4-4.4,0.4c-1.9,0-2.4-0.3-2.5-1.4
		c0.4-6,0.6-12.9,0.6-22.3c-6.1,3.1-11.7,5.1-19.4,7l-0.3-0.7c9.9-4.9,16.4-8.9,23.2-14.2c5.8-4.6,11.3-10,16.1-15.6
		c2.5-3,3.7-4.7,6.3-8.8h-17c-3.2,3.5-3.7,3.9-7,6.9c0.8,0.4,0.8,0.4,4.8,2.2c3.2,1.4,4.7,3.1,4.7,5.1c0,2.8-2.6,5.8-5,5.8
		c-1,0-1.3-0.4-1.7-2.7c-0.7-4.6-1.8-7.1-3.7-9.6c-5.9,5-9.6,7.3-18.5,11.2l-0.4-0.7c6-4.7,10.9-9.5,15.6-15.5
		c5-6.4,7.6-10.7,8.7-14.8c2.4,0.7,4.3,1.2,5.5,1.5c5.7,1.5,6.5,1.8,6.5,2.6s-0.5,1-3.7,1.5c-2.2,2.6-2.9,3.5-4.3,5H136.6z
		 M118.1,63.5h26.4V42.7h-26.4V63.5z"/>
</g>
</svg>
