<?xml version="1.0" encoding="utf-8"?>
<!-- Generator: Adobe Illustrator 18.0.0, SVG Export Plug-In . SVG Version: 6.00 Build 0)  -->
<!DOCTYPE svg PUBLIC "-//W3C//DTD SVG 1.1//EN" "http://www.w3.org/Graphics/SVG/1.1/DTD/svg11.dtd">
<svg version="1.1" id="圖層_1" xmlns="http://www.w3.org/2000/svg" xmlns:xlink="http://www.w3.org/1999/xlink" x="0px" y="0px"
	 viewBox="0 0 434 72" enable-background="new 0 0 434 72" xml:space="preserve">
<g>
	<path fill="#231815" d="M2.3,38c6.1-6.1,10.3-11.6,14.5-18.6c3.4-5.9,5.4-10.4,7.1-16.2c5.9,2.3,10,4,10.7,4.6
		C34.8,7.9,35,8.2,35,8.4c0,0.7-0.9,1.1-3.5,1.3c-4.6,8.2-7.9,12.6-12.7,17.5c-4.6,4.6-8.6,7.5-15.8,11.5L2.3,38z M35.1,32.7
		c-0.5,4.3-0.6,4.8-1.1,7.2C30.7,55.4,22.9,63.4,4.8,69.6l-0.4-0.8c9.9-6.4,15.5-12.5,18.6-20.3c1.7-4.5,2.5-8.2,3.3-15.8h-5.1
		c-1.7,0-3.4,0.1-5.1,0.4l-0.5-2.5c2.2,0.4,3.7,0.6,5.5,0.6h27.4c1.4-1.5,1.9-2,3.3-3.3c2.8,2,3.6,2.5,6.3,4.5
		c0.6,0.5,0.9,0.9,0.9,1.2c0,0.4-0.4,0.8-1.7,1.5c-0.8,11.2-1.2,15.2-2.1,20.5c-1.2,6.9-2.8,9.8-6.3,11.2c-2,0.8-5.1,1.4-7.9,1.4
		c-1.3,0-1.4-0.1-1.5-1.7c-0.1-1.8-1.2-3.4-2.8-4.3c-1.8-1-3.2-1.5-8.1-3l0.1-0.9c5.5,0.7,11.6,1.2,13.5,1.2c3.1,0,4-0.7,4.7-3.6
		c1.3-5.6,2-13.4,2.3-23.3H35.1z M42.7,3.8c-0.1,0.4-0.1,0.7-0.1,0.7c0,2.1,2.7,6.3,6.6,10.3c3.5,3.6,8,6.6,13.2,9
		c3,1.3,4.8,1.9,9.2,3v0.7c-2,0.9-2.7,1.6-4.1,3.4c-0.8,1.2-1.5,2.5-2,3.7c-0.2,0.7-0.5,0.9-0.8,0.9c-0.7,0-4-2.2-6.9-4.6
		c-7.2-6-11.9-12.7-15.7-22.6c-0.8-2-1.2-2.7-2-3.6L42.7,3.8z"/>
	<path fill="#231815" d="M104.9,48c0-1.8-0.1-3-0.5-5.3c4.9,0.6,6.1,0.7,8.7,1.3c3-2.2,4.5-3.5,6.9-5.9H88.7c-1.7,0-3.4,0.1-5.4,0.4
		l-0.5-2.6c2.5,0.5,3.8,0.7,6,0.7h32.5c2.4-1.8,2.4-1.8,4.7-3.5c3.3,2.2,4.3,2.9,7.5,5.3c0.7,0.5,0.9,0.8,0.9,1.2c0,0.6-0.9,1-2.1,1
		c-0.1,0-0.2,0-0.4,0c-0.7-0.1-1.2-0.1-1.8-0.1c-0.4,0-0.9,0-1.6,0c-5.9,2.2-8.4,3-13.1,4.5c0.1,0.1,0.1,0.3,0.1,0.4
		c0,0.5-0.7,0.9-2.7,1.5v3.1H129c2.4-2.7,3.1-3.5,5.6-6.1c3.5,2.6,4.6,3.4,8.2,6.3c0.4,0.4,0.5,0.6,0.5,0.8c0,0.3-0.4,0.5-0.8,0.5
		h-29.6v4.3c0,3.1,0.1,5.5,0.1,6c0,0.4,0,0.6-0.1,1.2c0,2.5-0.6,3.8-2.5,4.8c-1.7,0.9-3,1.2-5.8,1.6c-1.4,0.1-1.8,0.2-2.2,0.2
		c-0.7,0-0.8-0.1-0.9-1.2c-0.1-1.4-0.5-2.4-1.2-3c-0.7-0.8-2.7-1.7-4.9-2.5c-0.4-0.1-2.2-0.6-5.4-1.4l0.1-1
		c3.5,0.2,3.5,0.2,13.4,0.7c1.2-0.1,1.7-0.4,1.7-1.2v-8.5H82.1c-1.6,0-3.7,0.1-5.3,0.4l-0.7-2.6c2.1,0.4,3.8,0.7,5.9,0.7h22.8V48z
		 M128.1,11.5c2.4-2.6,3.1-3.4,5.5-5.8c3.5,2.5,4.6,3.3,8.2,6c0.3,0.3,0.4,0.5,0.4,0.6c0,0.4-0.4,0.7-0.9,0.7H82.1
		c-1.4,0-3.5,0.2-4.8,0.4L76.6,11c2.4,0.4,3.8,0.5,5.5,0.5h22.5V7.8c0-1.7-0.1-2.9-0.4-5.3c1.1,0.1,1.1,0.1,4.3,0.4
		c1.8,0.2,1.8,0.2,4.7,0.6c1.7,0.2,2.5,0.6,2.5,1.3c0,0.7,0,0.7-2.9,1.9v4.7H128.1z M121.8,18.5c1.7-1.9,2.2-2.4,3.9-4
		c2.7,1.6,3.4,2.1,5.9,3.8c0.7,0.6,1.1,0.9,1.1,1.3c0,0.7-0.7,1.2-2.4,2.1c0,2,0,2.1,0,4.3c0.1,2.2,0.1,2.2,0.1,4.8
		c0.1,0.1,0.1,0.4,0.1,0.5c0,0.6-0.3,1-0.7,1.2c-0.7,0.3-3.8,0.6-6.2,0.6c-0.8,0-1.1-0.3-1.2-1v-1.2H95.3V32
		c-0.1,0.7-0.2,0.9-0.5,1.2c-0.5,0.4-2.2,0.6-4.3,0.6c-2.7,0-3.3-0.3-3.3-1.5c0-0.1,0-0.2,0-0.3c0.1-3.5,0.2-4.6,0.2-7.2
		c0-5.6-0.1-7.3-0.4-10.1c4.1,1.4,5.3,2,9.2,3.8H121.8z M95.3,29.3h27.1V20H95.3V29.3z"/>
	<path fill="#231815" d="M146.2,40.3c3.6-6,6.4-12.1,9.6-21.3c2.6-7.2,3.7-11.7,4.1-16.3c11.8,2.5,11.9,2.5,11.9,3.5
		c0,0.7-0.8,1.1-3.2,1.5c-3.2,7.7-5.5,12.4-8.9,17.5c4.8,0.7,5.7,0.9,5.7,1.7c0,0.6-0.7,1-2.5,1.6v18.1l0.1,20.9
		c0,1-0.3,1.4-1.2,1.7c-0.8,0.2-3,0.4-4.6,0.4c-2,0-2.4-0.3-2.4-1.8c0.1-4.3,0.1-4.3,0.4-19.9V31.4c-2.9,3.8-4.7,5.9-8.4,9.4
		L146.2,40.3z M166.5,59.9c3.3-6.9,4.8-11.5,6.4-18c1.2-4.8,1.5-7.3,1.7-11.5c10.8,2.2,11,2.3,11,3.1c0,0.6-0.8,0.9-3.2,1.5
		c-2.2,6.6-3.5,9.6-5.9,13.7c-2.7,4.6-4.9,7.4-9.2,11.6L166.5,59.9z M195.3,49.1c0,0.8,0,3.5,0.1,7.3c0,1,0.1,2.8,0.1,4.8
		c0,3.4-0.6,4.7-2.5,5.9c-1.8,1.2-4.6,1.9-7.2,1.9c-1,0-1.1-0.1-1.3-1.6c-0.1-1.7-1-3-2.6-3.9c-1.3-0.8-3-1.4-7.5-2.7l0.1-0.9
		c7.4,0.6,7.7,0.6,11.7,0.7c1.2-0.1,1.4-0.3,1.4-1.3V19.5h-7.9c-3.3,5.3-6.7,9.2-12.4,13.9l-0.6-0.4c4-7,6.1-12,8.2-18.9
		c1.4-4.8,2-7.2,2.2-11.2c2.2,0.4,4.4,0.9,5.5,1.1c5.9,1.1,7.1,1.5,7.1,2.2s-1.1,1.2-3.8,1.6c-2.2,4.8-3.3,6.8-5.3,10.3h22.4
		c1.5-2,2-2.7,3.6-4.6c3.7,2.7,4.8,3.5,8.2,6.5c0.4,0.5,0.6,0.8,0.6,1.2c0,0.9-0.9,1.2-4.8,1.5c-4.2,3.4-5.6,4.4-9.5,6.7l-0.5-0.5
		c1.8-3.8,2.3-5.2,3.4-9.2h-8.5V49.1z M199.3,31.3c6.2,5.1,10.2,9.3,12.6,13.2c1.5,2.5,2.4,4.9,2.4,6.6c0,1.5-0.8,3.8-1.9,5.6
		c-0.9,1.4-2.4,2.5-3.7,2.5c-0.5,0-1-0.3-1.3-0.7c-0.4-0.6-0.4-0.8-0.8-3.2c-0.5-3.6-2-9.6-3.1-12.9c-1.1-3.3-2.2-5.7-4.8-10.7
		L199.3,31.3z"/>
	<path fill="#231815" d="M240,17.2c1.7-1.8,2.2-2.3,4-4.2c2.6,1.7,3.3,2.2,5.7,4.2c0.6,0.5,0.8,0.8,0.8,1.2c0,0.5-0.4,0.9-2.3,1.9
		v8.6c0,19.2,0,24.9,0.1,31.5c0,1.6-0.9,1.9-5,1.9c-2.4,0-2.7-0.1-2.7-1.3v-3.9h-10v5.5c0,1.7-0.7,2-5,2c-2.5,0-3-0.2-3-1.4
		c0.4-13.1,0.4-16.4,0.4-25.3c0-11.3-0.1-19.4-0.4-25.1c3.7,1.7,4.8,2.2,8,4.3h0.5c1.3-5.4,1.8-9.4,1.8-14.2c2.2,0.5,4,0.9,5.1,1.1
		c4.7,0.9,6.1,1.5,6.1,2.3c0,0.7-0.9,1.1-3.4,1.4c-3.6,5.2-4.8,6.9-7,9.3H240z M240.7,35.1V18.7h-10v16.3H240.7z M230.6,36.6v19.1
		h10V36.6H230.6z M276.1,17.2c2-2.1,2.7-2.7,4.6-4.6c2.7,2,3.5,2.6,5.9,4.6c0.7,0.6,0.9,1,0.9,1.4c0,0.7-0.5,1-2.7,2
		c-0.4,16.6-0.9,23.2-2.1,31.8c-1.5,10.8-3.4,14.4-8.2,15.8c-1.2,0.4-4,0.8-5.1,0.8c-0.8,0-1-0.3-1-1.3c-0.2-4-3-5.9-11.3-7.7
		l0.1-0.9c9.2,0.6,9.8,0.6,13.8,0.6c1.7,0,2.2-0.4,2.8-2.7c0.8-3,1.9-10.3,2.2-15.9c0.5-6.9,0.8-13.4,0.8-22.3h-15.5
		c-3.6,6.9-7.1,11.7-12.1,16.5l-0.7-0.4c4.8-9.1,8.6-22.8,8.9-31.9c9.5,2,11.8,2.7,11.8,3.6c0,0.7-0.7,1-3.5,1.6
		c-1.3,4-2,5.8-3.6,9.1H276.1z M257.5,27.8c9,5.1,13.2,9.2,13.2,13.2c0,3.3-2.6,6.7-5.1,6.7c-1.4,0-2-0.7-2.5-3.5
		c-1.1-5.8-2.7-10.2-6.1-15.8L257.5,27.8z"/>
	<path fill="#231815" d="M316.4,10.9c2-2.1,2.5-2.7,4.4-4.9c3,2.3,3.8,3,6.6,5.5l0.2,0.3c1.4-3.4,2.1-5.4,2.7-9.2
		c2.2,0.5,4,0.8,5.1,1c4.7,0.9,5.6,1.2,5.6,1.9c0,0.7-0.9,1.1-3.3,1.5c-1.2,2-1.6,2.7-2.5,3.9h12c1.7-2,3.4-3.9,5.1-5.7
		c3.3,2.6,4.3,3.5,7.4,6.2c0.3,0.3,0.4,0.4,0.4,0.6c0,0.2-0.3,0.4-0.6,0.4h-21.8c5.6,2.1,7.5,3.5,7.5,5.4c0,2-2.5,4.7-4.3,4.7
		c-0.9,0-1.4-0.6-1.6-1.9c-0.6-3.5-1.3-5.3-2.9-8.2h-2.4c-3.3,4-5.9,6.2-11.3,9.8l-0.6-0.4c2.5-3.8,3.5-5.3,5.3-9.4l-0.3,0.1h-16.8
		c6.1,2.6,7.6,3.7,7.6,5.7c0,2-2.5,4.4-4.6,4.4c-0.9,0-1.4-0.6-1.7-2.2c-0.7-3.9-1-4.8-2.8-7.9h-2.2c-5.3,5.9-7.6,7.9-14.1,12.2
		l-0.5-0.6c3.8-4.8,5.9-8.2,8.2-13.7c1.7-3.8,2.2-5.3,2.6-8.2c2.2,0.5,4,0.8,5.1,1.1c4.9,0.9,5.9,1.3,5.9,2c0,0.7-0.6,0.9-3.1,1.4
		c-1.3,2-1.7,2.7-2.9,4.1H316.4z M305.1,45.4c-0.4,1.4-0.6,2-1.1,3.4c-0.5,0.9-1.1,1.2-2.8,1.2c-3.3,0-5.2-0.5-5.2-1.4
		c0-0.2,0.1-0.6,0.2-0.9c2.8-7.3,4.5-13.2,5.5-18.9c3.5,1.7,4.5,2.3,7.5,4.4H322l-0.1-9h-17.7c-1.4,0-2.3,0.1-4.1,0.4l-0.4-2.5
		c1.7,0.4,3,0.6,4.6,0.6h40c2-2,2-2,3.8-3.8c2.4,1.7,3.1,2.2,5.3,4.1c0.6,0.4,0.8,0.7,0.8,1c0,0.6-0.5,1-2.3,1.8c0,0.9,0,1.2,0,1.9
		c0,1.6,0,3.5,0.1,8.4c0,0.8-0.1,1.2-0.5,1.4c-0.6,0.4-2.5,0.6-4.9,0.6c-2.1,0-2.5-0.2-2.5-1.4v-2h-14.5l0.1,9.2h17.3
		c1.8-1.8,2.4-2.3,4.1-4c2.4,1.7,3.1,2.3,5.5,4.2c0.6,0.5,0.9,0.8,0.9,1.2c0,0.5-0.6,0.9-2.4,1.8c-1.2,10.2-1.8,12.6-4,14.7
		c-1.3,1.4-3,2.1-5.9,2.5c-0.9,0.1-1.7,0.1-2,0.1c-0.8,0-1.1-0.2-1.1-1.1c-0.1-1.2-0.4-2.1-0.9-2.8c-1.2-1.5-2.2-2-8.6-4v-0.8
		c6.7,0.6,9.4,0.7,11.4,0.7c1.2,0,1.9-0.6,2.3-2.2c0.6-2.2,0.9-4.5,1.2-8.7h-17.8l0.1,7.5c0.1,7.9,0.1,7.9,0.4,14.9
		c0,1.7-0.9,2-4.9,2c-2.9,0-3.3-0.1-3.3-1.4c0.1-7.5,0.1-9.2,0.1-13v-4.1c-4.8,4.8-8.7,7.7-14.5,10.8c-5,2.7-8.7,4.1-14.6,5.8
		l-0.4-0.7c6.5-3.8,11.7-7.6,17.1-12.6c3.5-3.3,5.3-5.3,8.2-9.2H305.1z M322,34.7h-13.5c-1,3.5-1.2,4-2.9,9.2h16.5L322,34.7z
		 M329.6,33.2h14.5v-9h-14.7L329.6,33.2z"/>
	<path fill="#231815" d="M365.4,34.5c2.5,0.5,5.5,0.8,9.1,0.8h41.1c2.5-3.2,3.3-4.2,5.9-7.3c4.3,3.3,5.6,4.3,9.8,7.8
		c0.3,0.3,0.4,0.4,0.4,0.6c0,0.3-0.3,0.4-0.9,0.4h-56.3c-3.3,0-6,0.1-8.6,0.5L365.4,34.5z"/>
</g>
</svg>
