<?xml version="1.0" encoding="utf-8"?>
<!-- Generator: Adobe Illustrator 18.0.0, SVG Export Plug-In . SVG Version: 6.00 Build 0)  -->
<!DOCTYPE svg PUBLIC "-//W3C//DTD SVG 1.1//EN" "http://www.w3.org/Graphics/SVG/1.1/DTD/svg11.dtd" [
	<!ENTITY ns_flows "http://ns.adobe.com/Flows/1.0/">
	<!ENTITY ns_extend "http://ns.adobe.com/Extensibility/1.0/">
	<!ENTITY ns_ai "http://ns.adobe.com/AdobeIllustrator/10.0/">
	<!ENTITY ns_graphs "http://ns.adobe.com/Graphs/1.0/">
]>
<svg version="1.1" id="圖層_1" xmlns:x="&ns_extend;" xmlns:i="&ns_ai;" xmlns:graph="&ns_graphs;"
	 xmlns="http://www.w3.org/2000/svg" xmlns:xlink="http://www.w3.org/1999/xlink" xmlns:a="http://ns.adobe.com/AdobeSVGViewerExtensions/3.0/"
	 x="0px" y="0px" viewBox="0 0 634 72" style="enable-background:new 0 0 634 72;" xml:space="preserve">
<g>
	<path d="M45.3,20.3c0,8.2-6,13.6-11.3,18.5c-7.1,6.8-14,11.6-22,18.3c-0.6,0.5-0.2,1,0.2,1c4.7,0,19.2,0,21.9-0.5
		c1.5-0.3,3.9-0.5,6.6-4.4c0.9-1.3,1.1-1.4,1.7-1.4c0.4,0,0.5,1,0.2,2.4c-0.6,2.7-3.2,7.6-4.5,9c-0.6,0.7-1.9,1-2.6,1
		C34.1,64.4,17.2,64,13,64c-4.8,0-8.5,0.1-9.5,0.1c-1,0-1.7,0-1.7-0.9c0-0.5,0.9-1.6,1.6-2.3c4.7-3.2,13.5-10.8,19.3-16.2
		C31,36.9,37.5,30,37.5,20.8c0-5.9-4.6-8.9-8.4-8.9c-4.9,0-9.1,2.2-12.2,5.4c-1.2,1.3-2,1.9-2.5,1.9s-0.7-0.2-0.7-0.6
		c0.1-0.7,0.2-1.3,1.1-2.6c3.6-5.1,9.8-9.6,16.9-9.6C38.9,6.5,45.3,12,45.3,20.3z"/>
	<path d="M96.3,23.3c0,11.2-4.3,24.6-10.9,33c-3.9,4.7-9.4,8.9-15.8,8.9c-10.9,0-13.4-9.7-13.4-16.5c0-12,4.9-25.4,11-32.9
		c4.2-5.1,10-9.2,16.2-9.2C93.8,6.5,96.3,16.1,96.3,23.3z M72.2,18.7c-5,9.5-8.7,23.9-8.7,33.4c0,6.7,1.7,10.4,5.9,10.4
		c7.8,0,12.2-11.9,14.8-18.6c2.6-7.4,4.8-17.2,4.8-24.8c0-5.3-1.6-9.9-6.1-9.9C79.1,9.1,75.4,12.9,72.2,18.7z"/>
	<path d="M108.4,62c4.9-0.6,5.7-2.3,7.2-5.9c1-2.6,3.6-11.4,8.1-26.6c1.2-3.8,3.9-14.1,4.1-15.9c0-0.5-0.5-1.1-0.8-1.1
		c-2.1-0.3-2.5-0.5-4.6-0.8c-0.8-0.2-2-0.5-1.9-1.1c0-0.5,0.5-1,1.9-1.2c3.9-0.5,9.8-0.9,12.4-2.3c1-0.5,1.5-0.7,1.9-0.7
		c0.5,0,0.6,0.9,0.5,1.4c-0.2,0.6-1.8,5.2-3.8,12c-1.8,6.5-6.9,23.9-9.7,34.9c-1.3,5.2-1.6,6.1,4.8,7.3c0.9,0.2,1.8,0.5,1.8,1.1
		c0,0.8-1.4,1.1-2.9,1.1c-2.9,0-5.6-0.2-8.2-0.2c-5,0-7.7,0.4-10.8,0.4c-1.4,0-3,0-3-0.9C105.5,62.8,106.3,62.3,108.4,62z"/>
	<path d="M191.3,39.4c0,8.8-4.1,16.1-9.6,20.9c-4.7,3.9-9.3,5-12.9,5c-7,0-13.7-4.7-13.7-16.4c0-14.1,11.9-31,27.6-40.5
		c6.5-4,12.5-6.4,15.6-6.4c1.4,0,1.8,0.7,1.8,1.1s-0.2,0.4-1.2,0.8c-12.7,5.3-22.3,14.1-28.4,23.7c-0.3,0.4,0.1,0.7,0.5,0.6
		c2.9-0.9,6.8-1.8,9.5-1.8C187.3,26.5,191.3,33.6,191.3,39.4z M168,33.1c-2.6,3.3-5.8,10.8-5.8,18.7c0,7.8,2.7,11.1,6.8,11.1
		c3.2,0,5.8-1.7,8.3-5c3.8-5,6.5-12.3,6.5-18.5c0-5.9-3.3-9.9-8.5-9.9C171.7,29.6,169.6,31.1,168,33.1z"/>
	<path d="M239.7,31.5h7.3c2.1-2.3,2.8-3.1,4.9-5.5c3.2,2.5,4.2,3.2,7.4,5.8c0.2,0.3,0.3,0.5,0.3,0.6c0,0.3-0.3,0.5-0.7,0.5h-19.3
		v16.7h10.4c2.4-2.6,3.1-3.4,5.6-6c3.4,2.7,4.4,3.5,7.6,6.3c0.2,0.3,0.3,0.5,0.3,0.6c0,0.3-0.3,0.5-0.8,0.5h-23.2v6
		c0,1,0.1,6.2,0.2,10.4c0,1.2-0.2,1.6-0.9,1.8s-2.5,0.5-4.6,0.5c-2.4,0-2.8-0.2-2.8-1.3c0-0.1,0-0.2,0-0.3c0.2-7.8,0.3-9.1,0.3-10.7
		v-6.4h-24.6c-1,0-4.4,0.3-5.8,0.4l-0.4-2.4c3,0.4,4.2,0.5,6.2,0.5h4.4V35.2c0-3.8-0.1-5.2-0.3-8.6c4,2.1,5.1,2.8,8.9,5h11.6V18.3
		h-13.3c-5.1,6.8-9.7,11.1-16.3,15.7l-0.5-0.7c4.3-5.5,6.8-9.4,9.4-15.2c2.2-4.8,3.4-8.2,4.2-11.8c6.9,1.9,10.3,2.9,11,3.5
		c0.2,0.1,0.3,0.4,0.3,0.7c0,0.8-0.5,1-3.6,1.4c-2,3-2.5,3.7-3.6,5h28.8c1.7-1.9,3.5-3.8,5.2-5.8c3.6,2.6,4.6,3.4,8,6.2
		c0.2,0.2,0.3,0.4,0.3,0.5c0,0.3-0.3,0.5-0.7,0.5h-21.6V31.5z M219.5,33v16.7h12.5V33H219.5z"/>
	<path d="M287.1,65.1v2.3c0,1.6-1.1,2-5.3,2c-2.5,0-2.7-0.2-2.7-1.8c0.3-15.3,0.4-24.2,0.4-27c0-11.9-0.1-18.1-0.5-22.4
		c4,1.8,5.2,2.5,9,4.7h13.4V16c0-4.9-0.1-6.8-0.4-9.8c10.3,1.1,11.2,1.3,11.2,2.2c0,0.7-0.9,1.2-3,2v12.5H324c1.8-2,2.3-2.6,4.1-4.5
		c2.7,1.9,3.5,2.5,5.9,4.5c0.5,0.5,0.8,0.8,0.8,1.1c0,0.5-0.7,1-2.5,2.1c0,28.1,0,28.1,0.3,41.1c0,0.9-0.1,1.3-0.5,1.6
		c-0.5,0.4-2.8,0.7-5.5,0.7c-1.4,0-1.9-0.3-1.9-1.4c0-0.1,0-0.3,0-0.4v-2.6H287.1z M301.4,24.3h-14.3v17.6h14.3V24.3z M301.4,43.4
		h-14.4v20.3h14.4V43.4z M324.6,24.3h-15.4v17.6h15.4V24.3z M324.6,43.4h-15.4v20.3h15.4V43.4z"/>
	<path d="M346.1,41.9c3.4-5.7,6.1-11.5,9.1-20.2c2.5-6.8,3.5-11.1,3.9-15.5c11.2,2.3,11.2,2.3,11.2,3.3c0,0.6-0.8,1-3,1.4
		c-3,7.3-5.2,11.7-8.4,16.6c4.6,0.7,5.4,0.9,5.4,1.6c0,0.5-0.7,1-2.3,1.5v17.1l0.1,19.8c0,1-0.3,1.3-1.1,1.6
		c-0.8,0.2-2.8,0.4-4.4,0.4c-1.8,0-2.3-0.3-2.3-1.7c0.1-4,0.1-4,0.4-18.9V33.5c-2.7,3.6-4.4,5.5-7.9,8.9L346.1,41.9z M365.4,60.5
		c3.1-6.6,4.6-10.9,6-17c1.1-4.5,1.4-6.9,1.6-10.9c10.2,2.1,10.4,2.2,10.4,2.9c0,0.5-0.8,0.9-3,1.4c-2.1,6.2-3.4,9.1-5.6,13
		c-2.5,4.3-4.7,7-8.7,11L365.4,60.5z M392.7,50.3c0,0.8,0,3.4,0.1,6.9c0,1,0.1,2.7,0.1,4.5c0,3.2-0.5,4.5-2.4,5.5
		c-1.7,1.1-4.4,1.8-6.8,1.8c-1,0-1-0.1-1.2-1.5c-0.1-1.6-1-2.9-2.5-3.7c-1.2-0.8-2.8-1.3-7.1-2.5l0.1-0.9c7,0.5,7.3,0.5,11.1,0.7
		c1.1-0.1,1.4-0.3,1.4-1.2V22.2h-7.5c-3.1,5.1-6.4,8.8-11.7,13.1l-0.5-0.4c3.8-6.6,5.7-11.4,7.7-17.9c1.4-4.5,1.8-6.8,2.1-10.6
		c2.1,0.4,4.2,0.8,5.2,1c5.5,1,6.7,1.4,6.7,2.1c0,0.7-1,1.1-3.6,1.5c-2.1,4.5-3.1,6.4-5,9.7h21.2c1.4-1.9,1.9-2.5,3.4-4.4
		c3.5,2.5,4.6,3.4,7.8,6.2c0.4,0.5,0.5,0.8,0.5,1.1c0,0.9-0.9,1.2-4.6,1.4c-4,3.2-5.3,4.2-9,6.3l-0.5-0.5c1.7-3.6,2.2-4.9,3.2-8.7
		h-8.1V50.3z M396.4,33.4c5.9,4.9,9.7,8.8,11.9,12.5c1.4,2.4,2.3,4.7,2.3,6.2c0,1.4-0.8,3.6-1.8,5.3c-0.9,1.4-2.3,2.3-3.5,2.3
		c-0.5,0-1-0.3-1.2-0.6c-0.3-0.5-0.4-0.8-0.8-3c-0.5-3.4-1.8-9.1-2.9-12.3c-1-3.1-2.1-5.4-4.5-10.1L396.4,33.4z"/>
	<path d="M428.3,18.5c-1.3,0-3.6,0.1-5.4,0.4l-0.5-2.5c2.1,0.5,3.6,0.6,5.9,0.6h20.6v-2.9c0-3.2-0.1-4.7-0.5-7.8
		c9.4,0.9,10.5,1.1,10.5,2c0,0.5-0.6,0.9-2.7,1.7v7H471c2.4-2.6,3.1-3.4,5.4-5.7c3.5,2.5,4.4,3.4,7.5,6.2c0.1,0.2,0.3,0.4,0.3,0.5
		c0,0.2-0.3,0.3-0.8,0.3h-27.2v20.9c3.6,5.2,7,8.1,13.9,11.8c5.8,3.1,9.4,4.3,15.5,5.2V57c-3.2,1.5-4,2.6-5.5,6.9
		c-0.1,0.4-0.4,0.6-0.8,0.6c-0.8,0-4.4-1.9-7.1-3.8c-4.7-3.3-8.8-7.4-11.9-11.9c-1.6-2.4-2.5-4-4.1-7.5v10.3c0.1,3.9,0.2,7,0.3,9.2
		c0.1,3.2,0.1,3.4,0.2,6.3c0,0.9-0.3,1.3-1,1.6c-0.6,0.3-2.9,0.5-4.4,0.5c-2,0-2.5-0.3-2.5-1.4c0.2-12.1,0.2-13.1,0.2-14.9v-5.3
		c-4.9,5.1-8.6,8.2-14.1,11.6c-4,2.4-7.3,4-13.4,6.5l-0.5-0.7c5.9-3.9,9.9-7.2,14.9-12.3c5.7-5.7,8.9-9.8,13.1-16.5v-18H428.3z
		 M422.8,45.4c3.4-4.9,5.3-8.3,7.5-13.4c1.8-4.3,2.8-7,3.6-10.7c9.4,2.3,9.8,2.4,9.8,3.4c0,0.8-0.8,1-3,1.3c-1.4,2.6-2,3.6-3.4,5.7
		c3.8,1.1,5,1.6,6.2,2.1c2.1,1,2.9,2.1,2.9,3.8c0,2.5-1.8,4.9-3.8,4.9c-1,0-1.2-0.4-2-2.9c-0.9-2.8-2.1-4.7-4-6.8
		c-4.2,6-7.2,8.9-13.3,13.3L422.8,45.4z M457.7,40.6c2.3-3.5,3.6-6,5.3-10.3c1.4-3.5,1.8-5.1,2.6-9.1c9.2,2.6,9.7,2.7,9.7,3.6
		c0,0.8-0.9,1.1-3.3,1.3c-1.4,2.5-2.1,3.6-3.4,5.4c2.5,0.8,4.7,1.5,7.2,2.5c3.9,1.6,5.6,3.4,5.6,5.8c0,2.7-1.8,5.5-3.6,5.5
		c-0.9,0-1.2-0.3-2.5-2.9c-2-4-4.9-7.9-7.5-9.9c-3.1,3.8-5.4,5.9-9.5,8.7L457.7,40.6z"/>
	<path d="M505,27.6v40.2c0,0.8-0.1,1.2-0.5,1.5c-0.7,0.4-2.3,0.6-4.6,0.6c-2.1,0-2.7-0.3-2.7-1.4c0,0,0-0.1,0-0.2
		c0.4-11,0.5-19.8,0.5-42.6c0-9.7-0.1-14.2-0.3-19.6c3.7,1.5,4.9,2.1,8.4,3.9h9.7c1.6-1.8,2.1-2.3,3.6-4c2.4,1.6,3.1,2.2,5.5,4
		c0.5,0.5,0.8,0.8,0.8,1c0,0.5-0.4,0.8-2.2,1.8v5.1c0,3.8,0.1,6.3,0.2,11c0,0.7-0.1,1-0.5,1.2c-0.6,0.4-2.3,0.6-4.4,0.6
		c-1.9,0-2.3-0.2-2.3-1.4v-1.7H505z M516,11.5h-11v6.3h11V11.5z M516,19.2h-11v7h11V19.2z M536.5,46.9h1.4c1.5-1.8,2-2.4,3.6-4.2
		c2.4,2.1,3.1,2.7,5.3,4.9c0.2,0.2,0.3,0.3,0.3,0.4c0,0.2-0.2,0.3-0.6,0.3h-10.1v4.4c0,3.4,0,6.4,0.1,12.5c0,0.1,0,0.2,0,0.2
		c0,0.9-0.3,1.2-1.1,1.5c-0.5,0.1-2.7,0.3-3.8,0.3c-1.8,0-2.3-0.3-2.3-1.6l0.1-12.9v-4.5h-6.7c-1,10.3-4.7,15.3-15.1,20l-0.5-0.7
		c6.2-5.5,8.2-9.9,8.9-19.3h-4.4c-1.4,0-2.9,0.1-4,0.4l-0.4-2.3c1.6,0.4,2.6,0.5,4.4,0.5h4.5c0.1-2.7,0.1-3.9,0.1-6
		c0-1.2,0-1.7-0.1-4.4H513c-1.4,0-2.6,0.1-3.8,0.4l-0.4-2.3c1.4,0.3,2.7,0.5,4.2,0.5h22.3c1.6-1.9,2.2-2.5,3.8-4.3
		c2.7,2.1,3.5,2.7,6,4.9c0.2,0.3,0.3,0.4,0.3,0.5c0,0.2-0.2,0.3-0.5,0.3h-8.4V46.9z M523.1,36.5c0,1,0,1.9,0,2.8
		c0,2.6-0.1,4.9-0.2,7.6h6.6V36.5H523.1z M536.7,27.6v1.3c-0.1,1.3-1.1,1.7-4.5,1.7c-2.4,0-2.7-0.2-2.8-1.5
		c0.2-6.8,0.2-7.4,0.2-12.9c0-6.3,0-6.9-0.3-10c3.5,1.5,4.6,2.1,7.9,3.8h10.1c1.6-1.8,2.2-2.3,3.7-4.1c2.5,1.6,3.3,2.2,5.8,3.9
		c0.7,0.5,1,0.9,1,1.2c0,0.5-0.1,0.6-2.2,2.1V43c0,7.7,0.1,11.4,0.2,20.1c-0.1,3.7-1.3,5.2-5.3,6.2c-1.2,0.3-3,0.6-3.9,0.6
		c-0.8,0-1-0.2-1-1.2c-0.1-1.6-0.7-3.3-1.4-4c-0.8-1-1.8-1.4-5.3-2.7v-0.8c4.7,0.3,5.9,0.3,7.3,0.3c0.3,0,0.7,0,1.2,0
		c0.9-0.1,1-0.2,1-1.7V27.6H536.7z M548.2,11.5h-11.5v6.3h11.5V11.5z M548.2,19.2h-11.5v7h11.5V19.2z"/>
	<path d="M585.6,16.2c6,2.5,7.9,4,7.9,6c0,2-2.4,4.4-4.4,4.4c-0.3,0-0.5-0.1-0.8-0.3c-0.3,0.3-0.5,0.4-1.3,0.8v7h1.9
		c1.5-2.1,1.9-2.7,3.5-4.6c2.5,2.2,3.1,2.9,5.3,5.2c0.2,0.2,0.3,0.3,0.3,0.5c0,0.2-0.2,0.3-0.7,0.3H587v4.4c6.2,2.2,9.6,4.9,9.6,7.7
		c0,2.7-1.8,5.4-3.6,5.4c-0.8,0-1.3-0.6-1.8-2.2c-1.6-5.8-2.4-7.4-4.2-9.4v7.7c0,7.5,0,7.5,0.1,18.8c-0.1,1.5-0.8,1.8-4.8,1.8
		c-2.3,0-2.6-0.1-2.6-1.4c0.3-10.6,0.3-10.6,0.4-14l0.1-6.2c-3.4,5.6-5.8,8.2-12.2,13.3l-0.6-0.5c4.1-5.5,6.9-10.7,9.9-18.1
		c1-2.4,1.4-3.7,2.3-7.2h-5.3c-1.7,0-2.7,0.1-4.4,0.5l-0.4-2.5c1.6,0.4,3.1,0.6,4.7,0.6h6v-4.2c0-2.1-0.1-3.3-0.3-5.7
		c5.7,0.5,7.2,0.8,7.9,1c-0.1-0.2-0.1-0.3-0.1-0.5c-0.6-3.5-1.4-5.7-3.1-8.4h-3c-4,4.7-7.5,7.9-13,11.4l-0.5-0.5
		c3.4-4.6,5.4-7.9,7.5-12.7c1.8-3.9,2.3-5.5,2.7-8.2c2.1,0.4,3.9,0.8,4.9,1c5,1,5.6,1.2,5.6,1.9c0,0.7-0.7,1-3.2,1.3
		c-1.3,2.1-1.8,2.9-2.9,4.4h8.1c1.8-2.1,2.3-2.8,4.1-4.8c2.5,1.9,2.5,1.9,6.5,5.2c1.9-4.2,2.5-6,3-8.8c9.3,1.7,10.4,2.1,10.4,2.9
		c0,0.7-1,1.1-3.3,1.3c-1.2,2.1-1.7,2.8-2.9,4.2h11.6c2.2-2.5,2.2-2.5,4.5-5.1c3.2,2.3,4.2,3.1,7.1,5.5c0.3,0.3,0.4,0.5,0.4,0.6
		c0,0.3-0.3,0.4-0.8,0.4h-20.8c5.9,2.4,8,4,8,6.3c0,1.8-2.4,4.2-4.3,4.2c-1,0-1.4-0.6-1.6-2.2c-0.4-3.1-1.2-5.3-2.9-8.3h-2.3
		c-3.6,4-6.6,6.7-11.6,10.1l-0.7-0.4c2.7-3.7,3.5-5.1,5.7-9.7H585.6z M619.2,28.2c1.7-1.7,2.3-2.3,3.9-3.9c2.4,1.8,3.1,2.3,5.4,4
		c0.6,0.5,0.8,0.8,0.8,1c0,0.5-0.5,1-2.3,1.9V53c0,3.4,0.1,7.6,0.3,14.2c-0.1,0.8-0.2,1.2-0.5,1.4c-0.6,0.3-2.3,0.6-4.4,0.6
		c-2,0-2.5-0.3-2.5-1.4V65h-14.2v2.7c-0.1,1.6-0.8,1.8-5,1.8c-2.1,0-2.4-0.2-2.4-1.4c0.1-4,0.4-19.2,0.4-28.8
		c0-4.1-0.1-10.1-0.3-14.6c3.5,1.5,4.5,1.9,7.7,3.6H619.2z M619.7,39.2v-9.4h-14.1v9.4H619.7z M605.6,40.6v10.1h14.2V40.6H605.6z
		 M605.6,52.2v11.4h14.2V52.2H605.6z"/>
</g>
</svg>
