<?xml version="1.0" encoding="utf-8"?>
<!-- Generator: Adobe Illustrator 18.0.0, SVG Export Plug-In . SVG Version: 6.00 Build 0)  -->
<!DOCTYPE svg PUBLIC "-//W3C//DTD SVG 1.1//EN" "http://www.w3.org/Graphics/SVG/1.1/DTD/svg11.dtd">
<svg version="1.1" id="圖層_1" xmlns="http://www.w3.org/2000/svg" xmlns:xlink="http://www.w3.org/1999/xlink" x="0px" y="0px"
	 viewBox="0 0 994 72" enable-background="new 0 0 994 72" xml:space="preserve">
<g>
	<path d="M21.8,18.9c1.3-1.7,2.6-3.4,3.8-5c2.7,2.4,3.4,3.1,5.9,5.6c0.3,0.3,0.4,0.4,0.4,0.6c0,0.2-0.2,0.4-0.6,0.4H20.2v4.9
		c6.8,2.7,10,5.4,10,8.1c0,2.5-2.3,5.6-4.1,5.6c-0.9,0-1.4-0.7-1.9-3.1c-0.8-4.1-2-6.8-4-9.2v24.3c0,7.2,0,7.2,0.1,16.6
		c0,1.6-0.8,1.9-5.2,1.9c-2.4,0-2.7-0.1-2.8-1.5c0.1-5.4,0.1-5.4,0.3-11.3l0.3-11.1l0.2-7.6c-3.4,7.3-5.8,11-10.4,15.5L2,52.9
		c4.7-9.5,8.3-21,10-32.5H7.2c-1.6,0-2.2,0.1-3.8,0.4L3,18.3c1.5,0.4,2.7,0.6,4.1,0.6h5.5V12c0-4.6-0.1-6.2-0.4-9.4
		c2.3,0.2,3.8,0.4,4.9,0.4c5,0.5,6.2,0.8,6.2,1.7c0,0.7-0.7,1-3.2,1.9v12.3H21.8z M54.4,12.5c2-2,2.6-2.7,4.6-4.6
		c3.1,2.3,3.9,3.1,6.6,5.3c0.7,0.7,1,1.1,1,1.5c0,0.7-1,1.1-3.5,1.5c-3.9,6.1-6.7,9.5-10.8,13.4c6.1,3.4,11.8,4.9,20.3,5.4v0.7
		c-2.6,1.6-4.1,3.7-4.7,6.7c-0.2,0.9-0.4,1.2-0.9,1.2c-0.4,0-1.1-0.2-2.6-0.7c-6.6-2.3-11.4-5.3-15.9-9.9c-4.9,3.9-9.2,6.5-15,9.2
		c1.6,0.7,2.6,1.2,5.4,2.5h16.2c1.4-1.6,1.8-2,3-3.5c2.6,1.6,3.4,2.1,6,3.7c0.9,0.7,1.2,1.1,1.2,1.5c0,0.5-0.6,1.1-2,1.9
		c-0.1,2.3-0.1,3.7-0.1,5.1c0,3.6,0.1,8,0.3,14.2c0,1.6-0.7,1.9-5.2,1.9c-2.5,0-2.8-0.1-2.9-1.2v-3.5H38.8v2.8
		c-0.1,0.9-0.1,1.1-0.4,1.3c-0.6,0.4-2,0.7-4.4,0.7c-2.8,0-3.1-0.1-3.1-1.5C31,56.1,31,53.6,31,50.4c0-2.8,0-2.9-0.1-7.3
		c-2.2,0.9-3.5,1.4-7,2.5l-0.4-0.8c8.5-4.9,14.5-9.7,21-16.5c-2.5-3.4-3.8-5.7-5.6-10.1c-3.1,4.1-5.5,6.5-10.7,10.5l-0.6-0.5
		c3-4.8,4.5-8.1,6.6-13.8c1.8-5,2.5-7.9,3.1-12.1C47.8,4.8,48.6,5,48.6,5.9c0,0.7-0.9,1.1-3.3,1.5c-1.2,2.5-1.7,3.3-2.6,5H54.4z
		 M38.8,62.9h16.7V46H38.8V62.9z M41.8,14c-1,1.6-1.1,1.7-2.1,3.1c3,4.5,4.5,6.3,7.2,8.6c3.3-3.9,4.9-6.5,7.7-11.7H41.8z"/>
	<path d="M96.2,8.2c0-3,0-3.8-0.3-6.2c10,0.9,10.8,1,10.8,2c0,0.7-0.7,1-2.9,1.6c0,1.3,0,2.2,0,2.6h13c0-2.5-0.1-3.6-0.4-6.1
		c2.3,0.2,3.9,0.4,5,0.4c4.5,0.3,5.7,0.6,5.7,1.4c0,0.6-0.6,0.9-2.8,1.6v2.6h7.2c2.3-2.3,3-3,5.3-5.2c3.5,2.3,4.6,3.1,8,5.8
		c0.3,0.2,0.4,0.4,0.4,0.5c0,0.3-0.3,0.4-0.7,0.4h-20.1c0,1.2,0.1,1.5,0.1,3.1c0,0.7-0.1,0.9-0.4,1.2c-0.6,0.4-2.4,0.7-4.9,0.7
		c-2,0-2.5-0.2-2.5-1.2l0.1-3.8h-13c0,1.4,0,1.5,0.1,3c0,0.6-0.1,0.7-0.5,1.1c1.7,1,2.5,1.6,4.8,3.2c0.5,0.4,0.7,0.7,0.7,1.1
		c0,0.5-0.5,0.9-2.1,1.8c0.1,6.6,0.1,6.8,0.2,10.6c0,1.5-0.9,1.9-4.1,1.9c-0.4,0-0.4,0-1,0c-0.1,0-0.1,0-0.1,0
		c-1.2,0-1.7-0.4-1.7-1.3v-1H88.2v22l-0.1,8.8c0,1.9,0,3.7,0.1,6.8c0,0.8-0.1,1.2-0.6,1.4c-0.7,0.4-2.4,0.6-4.5,0.6
		c-2,0-2.5-0.3-2.5-1.6c0.4-16.3,0.4-16.3,0.4-22c0-19.2-0.1-28.5-0.4-33.3c3.8,1.7,4.9,2.2,8.4,4h10.5c1.2-1.3,1.5-1.6,2.4-2.5
		c-1.4,0.1-2.1,0.2-3.3,0.2c-2.3,0-2.6-0.1-2.6-1.2c0.1-1.7,0.1-1.7,0.1-3.4H83c-1.8,0-3.2,0.1-4.9,0.4l-0.4-2.5
		c2,0.4,3.4,0.6,5.2,0.6H96.2z M99.9,18.2H88.2v4.2h11.7V18.2z M99.9,23.9H88.2v4.6h11.7V23.9z M113.4,55.7
		c9.2,1.6,12.6,3.4,12.6,6.7c0,2-1.3,3.7-2.8,3.7c-0.8,0-0.9-0.1-2.3-2c-0.8-1.1-3-3.5-4.1-4.6c-1-0.9-1.9-1.5-3.6-2.5
		c0.1,3.5,0.1,3.5,0.3,10.1c0,0.4-0.1,0.7-0.1,0.9c-0.4,0.4-1.8,0.7-4,0.7c-2.2,0-2.5-0.2-2.5-1.5c0.1-1.7,0.1-1.7,0.3-7.1v-1.7
		c-5.9,4.4-8.9,5.9-16.8,8.3l-0.2-0.8c6-3.6,9.3-6.6,13.4-12H101v0.4c-0.1,1.2-0.8,1.4-4.1,1.4c-1.9,0-2.2-0.1-2.2-1.2
		c0.2-4,0.2-4.5,0.2-10c0-2.5-0.1-3.7-0.3-6.3c3.1,1.2,3.9,1.5,6.8,2.8h6v-3.5H95.1c-1.6,0-3.1,0.1-4.4,0.4l-0.3-2.5
		c1.7,0.4,2.9,0.5,4.8,0.5h12.2c-0.1-2-0.1-2.8-0.4-5.2c3.6,0.4,4.8,0.6,6.8,0.9v-0.4c0.1-4.5,0.1-6.3,0.1-10c0-3.5,0-4.8-0.1-7.8
		c3.3,1.4,4.4,1.8,7.6,3.3h11c1.7-1.7,2.2-2.2,3.9-3.7c2.4,1.6,3.1,2.1,5.5,3.8c0.5,0.4,0.7,0.7,0.7,1.1c0,0.6-0.5,1-2.3,2v24.7
		c0,5.7,0,5.7,0.3,17.1c0,0.4,0,0.7,0,0.9c0,3-0.8,4.6-2.9,5.7c-1.4,0.7-3.7,1.2-5.7,1.2c-0.7,0-0.9-0.2-1-1.2
		c-0.1-3.8-0.9-5-4.1-6.4v-0.7c3.9,0.2,3.9,0.2,5.4,0.2c0.7-0.1,0.8-0.3,0.8-1.2V30h-12.2v0.9c0,1.2-0.7,1.5-4.1,1.5
		c-0.4,0-0.8,0-1.4,0c-0.2,0.7-0.4,0.9-2.1,1.4v2.1h8.3c1.3-1.3,2.5-2.5,3.6-3.7c2.5,1.8,3.3,2.4,5.9,4.4c0.2,0.2,0.3,0.4,0.3,0.5
		c0,0.2-0.3,0.4-0.7,0.4h-17.4v3.5h6.8c1.2-1.3,1.6-1.7,2.8-2.9c2.2,1.4,2.8,1.8,4.8,3.3c0.4,0.4,0.7,0.6,0.7,0.8
		c0,0.5-0.4,0.9-1.8,1.7c0,6.8,0,6.8,0.1,10.2c0,0.7-0.1,0.9-0.4,1.2c-0.4,0.4-2.1,0.7-4.1,0.7c-1.5,0-1.8-0.2-1.8-1v-0.9h-6.9V55.7
		z M107.4,42.4H101v4.1h6.4V42.4z M107.4,48H101v4.3h6.4V48z M120.3,46.5v-4.1h-7v4.1H120.3z M120.3,52.3V48h-7
		c0.1,1.6,0.1,3,0.1,4.3H120.3z M133.1,18.2h-12.2v4.2h12.2V18.2z M133.1,23.9h-12.2v4.6h12.2V23.9z"/>
	<path d="M171,27c0-4-0.1-4.7-0.4-7.2c8.4,0.7,9.3,0.7,10.2,1c0.6,0.2,0.9,0.5,0.9,0.9c0,0.7-0.9,1.2-2.8,1.6
		c0,11.8,0,12.5-0.2,16.1c-0.7,12.6-3.3,18.7-10.5,23.9c-3.9,2.8-8.1,4.6-15.3,6.5l-0.5-0.8c6.2-3,9.9-5.8,13-9.7
		c2.4-3,3.6-5.7,4.6-10.1c-5.2,2.9-5.2,3-13.7,6.4c-0.1,2.1-0.5,3-1.2,3c-0.8,0-1.2-0.9-4.2-9.6c4-0.1,11.8-0.9,19.6-2.2
		c0.3-2.3,0.4-3.6,0.5-7.8h-12.4c-2,0-3,0.1-4.3,0.4l-0.6-2.5c2,0.4,3.2,0.6,4.9,0.6h12.5c0.1-3,0.1-3.7,0.1-9.1h-14.2
		c-1.7,0-2.9,0.1-4.5,0.4l-0.6-2.5c2,0.4,3.3,0.6,5.1,0.6H171z M189.5,10.7c0-3.9-0.1-5.7-0.4-7.6c2.2,0.2,4.1,0.4,5.2,0.4
		c4.6,0.4,5.7,0.7,5.7,1.5c0,0.7-0.6,1-2.8,1.7l0.1,4.1h7.3c1.9-2,3.6-3.9,5.2-5.7c3.4,2.6,4.4,3.4,7.6,6c0.3,0.4,0.4,0.5,0.4,0.7
		c0,0.2-0.3,0.4-0.7,0.4h-19.8c0.1,2.5,0.1,2.5,0.1,4.4c-0.1,0.4-0.2,0.7-0.5,0.8c-0.6,0.4-2.1,0.6-3.9,0.6c-2.8,0-3.3-0.2-3.5-1.2
		c0.1-2.2,0.1-2.5,0.1-4.6h-13.2c0.1,2.6,0.1,2.6,0.1,4.5c-0.1,0.5-0.1,0.7-0.4,0.9c-0.6,0.3-2.2,0.5-4.1,0.5c-3,0-3.5-0.1-3.5-1.3
		c0.1-3.3,0.1-3.3,0.1-4.6h-12.2c-1.3,0-3.6,0.2-4.9,0.4l-0.6-2.6c2.3,0.5,3.6,0.7,5.5,0.7h12.2c0-1,0-1.5,0-2.3
		c0-2.2-0.1-3.3-0.2-5.3c2.3,0.2,3.9,0.3,5,0.4c4.7,0.3,5.8,0.6,5.8,1.4c0,0.7-0.8,1.1-2.8,1.7c-0.1,1.2-0.1,2.2-0.1,2.8
		c0,0.5,0,0.7,0.1,1.3H189.5z M204,27c2.8-3,2.8-3,4.9-5.4c3.3,2.5,4.3,3.3,7.3,5.9c0.2,0.3,0.4,0.5,0.4,0.7c0,0.2-0.3,0.4-0.7,0.4
		h-21.2l0.1,10h8.7c1.7-1.9,3.3-3.6,4.7-5.2c3,2.4,4,3.1,6.9,5.5c0.3,0.3,0.4,0.5,0.4,0.7c0,0.3-0.4,0.5-0.9,0.5h-19.9l0.1,11v0.2
		h9.9c2.4-2.5,3.2-3.3,5.4-5.7c3.3,2.5,4.2,3.3,7.4,6.1c0.3,0.3,0.4,0.5,0.4,0.7c0,0.2-0.4,0.4-0.8,0.4H195
		c0.1,9.2,0.1,9.2,0.3,13.9c0,0.9-0.2,1.2-1,1.5c-0.7,0.2-3.3,0.5-5,0.5c-1.8,0-2.3-0.3-2.4-1.5c0.3-7.6,0.4-13.4,0.4-22.2
		c0-5.4-0.1-15.5-0.1-19.8c0-2.5-0.1-3.4-0.4-5.5c2.3,0.1,4,0.3,5.1,0.4c5.2,0.4,5.9,0.6,5.9,1.5c0,0.7-0.7,1.1-2.8,1.6V27H204z"/>
	<path d="M292.3,58.9c-3.1,1.6-4.1,3.1-4.6,6.8c-0.1,0.8-0.4,1.1-1.2,1.2c-1.2,0.1-8.9,0.4-12.9,0.4c-13.8,0-18.5-0.3-21.7-1.2
		c-3.9-1.2-6.8-3-8.9-5.7c-1.2-1.6-2.2-3.4-3.6-7c-3.6,5.1-3.9,5.6-9.7,12.3c0,0.4,0,0.7,0,0.9c0,1.5-0.4,2.4-1.1,2.4
		c-0.3,0-0.7-0.3-0.9-0.9c-0.1-0.2-0.1-0.2-4.6-9.5c3.6-0.8,6.5-2.2,9.8-4.6V34h-4.4c-1.5,0-3.2,0.2-4.6,0.5l-0.5-2.7
		c2.3,0.5,3.7,0.7,5.1,0.7h3.5c1.8-2,2.4-2.7,4.3-4.6c2.6,1.9,3.4,2.5,6,4.4c0.6,0.5,0.8,0.8,0.8,1.3c0,0.7-0.4,1-2.3,2.2V53
		c1.5,2.7,2.5,3.9,4.4,4.8c2.9,1.5,7.1,2,15.8,2c8.5,0,20.4-0.7,31.2-1.7V58.9z M226.3,3.5c4.1,1.5,7.6,3.1,10.9,5.2
		c3.1,1.9,4.8,4.1,4.8,6.2c0,3.3-3,7.3-5.6,7.3c-1.2,0-1.5-0.5-2.4-3.3c-1.8-6-3.8-9.7-8.3-14.7L226.3,3.5z M254.7,52.1v3
		c-0.1,0.7-0.1,0.9-0.5,1.2c-0.6,0.3-2.3,0.5-4.1,0.5c-2.6,0-3.1-0.2-3.3-1.3c0.3-6.7,0.4-9.1,0.4-16.9c0-19.4-0.1-23-0.3-26.2
		c3.6,1.6,4.7,2.2,8.4,4.1h7.5v-6.4c0-3.6-0.1-4.8-0.4-7.6c2,0.2,3.6,0.4,4.6,0.4c5.1,0.4,6.4,0.7,6.4,1.6c0,0.7-0.9,1.3-3,2v10h8.1
		c1.7-1.9,2.3-2.5,3.9-4.3c2.7,1.8,3.5,2.4,6,4.3c0.7,0.4,0.9,0.8,0.9,1.2c0,0.5-0.2,0.7-2.5,2.2c-0.1,5.7-0.1,9.8-0.1,12.6
		c0,8.3,0.1,12.9,0.3,22.1c-0.1,0.6-0.3,0.8-0.6,1c-0.6,0.4-2,0.7-3.6,0.7c-0.9,0-1.7-0.1-2.5-0.1c-0.8-0.1-1-0.3-1.2-1.1v-3H254.7z
		 M262.8,18h-8.1v14.7h8.2L262.8,18z M262.9,34.3h-8.2v16.3h8.3L262.9,34.3z M279.3,18h-8.9v14.7h8.9V18z M279.3,34.3h-8.9v16.3h8.9
		V34.3z"/>
	<path d="M322.8,62c0.7-5.8,2.2-10,4.9-14.2c2.8-4.2,6.1-7.6,14.4-14.5c3.3-2.8,4.9-4.6,6-6.7c1-2.1,1.5-4.3,1.5-6.7
		c0-6.3-3.4-10.5-8.6-10.5c-3.4,0-5.7,1.7-6.8,4.9c-0.6,1.8-0.7,2.5-0.8,6.6c-0.1,2.8-1.5,4-4.6,4c-3.5,0-5.2-1.2-5.2-3.8
		c0-3.9,2.2-7.6,6-10.2c3.3-2.2,7.2-3.3,12.1-3.3c11,0,17.5,5,17.5,13.4c0,3.6-1.1,6.6-3.3,9.2c-1.5,1.8-4.3,3.9-8,6
		c-9.6,5.4-11.8,6.8-15.1,9.9c-2.9,2.6-4.2,4.5-5.7,8.2h21.1c6,0,8.1-1.9,9.4-8.4l2.5,0.5L357.6,62H322.8z"/>
	<path d="M374.9,60c3.3-0.1,4.4-0.2,5.5-0.9c1.7-0.9,2.2-2.8,2.2-7.4V18.3c-0.1-3.7-0.1-3.7-0.2-4.4c-0.3-1.6-1.2-2-4.9-2h-2v-2
		c6.9-0.6,12.2-1.3,17-2.2c-0.4,5.2-0.7,11.3-0.7,18.3v25.6c0,4.4,0.4,6.2,1.7,7.3c1,0.8,1.9,0.9,5.6,1v2h-24.2V60z"/>
	<path d="M454.1,29h7.8c2.3-2.5,3-3.3,5.2-5.8c3.4,2.6,4.5,3.4,7.8,6.1c0.2,0.3,0.4,0.5,0.4,0.7c0,0.3-0.4,0.6-0.7,0.6h-20.5v17.7
		h11c2.5-2.8,3.3-3.6,6-6.3c3.6,2.8,4.6,3.7,8.1,6.7c0.2,0.3,0.4,0.5,0.4,0.7c0,0.3-0.3,0.5-0.8,0.5h-24.6v6.4c0,1.1,0.1,6.6,0.2,11
		c0,1.2-0.2,1.7-0.9,2c-0.7,0.3-2.6,0.5-4.9,0.5c-2.5,0-3-0.2-3-1.4c0-0.1,0-0.2,0-0.4c0.2-8.3,0.3-9.7,0.3-11.3v-6.8h-26.2
		c-1,0-4.7,0.3-6.2,0.4l-0.4-2.5c3.2,0.4,4.4,0.6,6.6,0.6h4.7V32.8c0-4-0.1-5.5-0.3-9.2c4.2,2.3,5.4,3,9.4,5.3h12.3v-14h-14.1
		c-5.4,7.2-10.3,11.8-17.3,16.6l-0.6-0.7c4.6-5.8,7.2-10,10-16.1c2.3-5.1,3.6-8.7,4.5-12.5c7.3,2,10.9,3.1,11.6,3.7
		c0.2,0.1,0.4,0.4,0.4,0.7c0,0.8-0.5,1-3.8,1.5c-2.1,3.2-2.6,3.9-3.8,5.3h30.6c1.8-2,3.7-4.1,5.5-6.1c3.8,2.8,4.9,3.6,8.5,6.5
		c0.2,0.2,0.4,0.4,0.4,0.6c0,0.3-0.3,0.5-0.7,0.5h-23V29z M432.6,30.5v17.7h13.2V30.5H432.6z"/>
	<path d="M523.2,56.6c0,0.9,0,1.5,0,2.1c0,0.4,0,3.5,0.1,9.3c-0.1,0.9-0.3,1.3-0.9,1.5c-0.9,0.3-2.7,0.5-4.4,0.5
		c-2.4,0-2.9-0.3-2.9-1.5c0.1-4.4,0.1-4.4,0.2-12H494c-2.6,0-5,0.2-7,0.6l-0.4-2.9c2.9,0.6,4.7,0.8,7.5,0.8h21.4v-8.1h-12.6v2.9
		c0,0.7-0.3,1-0.9,1.2c-0.9,0.3-2.8,0.4-4.6,0.4c-2,0-2.5-0.4-2.5-1.6c0-3.4,0-3.4,0.2-14.7c0.1-0.9,0.1-2,0.1-2.8
		c0-3.4-0.1-8.1-0.3-10.4c-0.5,0-0.9,0-1.1,0c-2,0-2.5-0.3-2.5-1.6c0.1-3.5,0.1-3.9,0.1-11.4c0-3.7-0.1-4.5-0.2-6.9
		c3.6,1.6,4.6,2.2,8.4,4.3h9c1.7-2,2.3-2.5,3.9-4.3c2.5,2,3.3,2.5,5.7,4.6c0.4,0.4,0.5,0.6,0.5,0.8c0,0.6-0.6,1-2.3,1.8
		c0,1.9,0,3.3,0,4.3c0,0.4,0,1.9,0.1,6.5c-0.1,0.9-0.4,1.2-2,1.5c-0.4,0.1-2.8,0.2-3.4,0.2c-1.5,0-2-0.3-2.1-1.3v-1.5h-10v1.4
		c-0.1,1-0.4,1.2-2.9,1.5c3.2,1.2,4.3,1.7,8.2,3.8h31.9l4.3-4c2.7,1.7,3.5,2.3,6.1,4.2c0.4,0.4,0.7,0.7,0.7,1c0,0.6-0.5,1-2.5,2.3
		c-0.1,3.2-0.1,5.6-0.1,7.2c0,2.9,0,3.8,0.2,12.3c0,0.4-0.1,0.6-0.1,1L545,49c3.7,2.6,4.9,3.5,8.6,6.5c0.2,0.2,0.4,0.5,0.4,0.6
		c0,0.3-0.4,0.4-0.9,0.4H523.2z M498.7,17.4h10V7.8h-10V17.4z M502.7,27.1v8.1h12.6v-8.1H502.7z M515.4,36.7h-12.6v8.7h12.6V36.7z
		 M529.9,20.3c-0.1,0.8-0.3,1.1-0.9,1.2c-0.9,0.2-2.4,0.4-3.6,0.4c-2.4,0-3-0.3-3-1.5c0,0,0-0.2,0-0.3c0.1-3.2,0.1-4.3,0.1-9
		c0-6,0-6.2-0.2-8.6c3.3,1.5,4.4,2,7.9,3.7h9.8c1.7-1.8,2.1-2.4,3.7-4.1c2.6,1.8,3.3,2.4,5.9,4.2c0.5,0.4,0.7,0.7,0.7,1
		c0,0.7-0.4,1-2.2,2c0,1.7,0,3,0,3.8c0,2.7,0,4,0.1,7c-0.1,0.8-0.3,1.2-0.9,1.4c-1.2,0.3-2.4,0.4-4.9,0.4c-1.3,0-1.7-0.3-1.7-1.1
		c0,0-0.1-0.1-0.1-0.2v-1.8h-10.8V20.3z M523.2,35.1h13.4v-8.1h-13.4V35.1z M536.6,45.4v-8.7h-13.4v8.7H536.6z M539.3,55
		c1.3-1.5,3-3.1,4.9-5.2c-1.3,0.4-3.6,0.7-5.4,0.7c-1.6,0-2.1-0.4-2.1-1.3c0-0.1,0-0.1,0-0.2v-2.1h-13.4V55H539.3z M529.9,17.4h10.8
		V7.8h-10.8V17.4z"/>
	<path d="M560.1,34.1c2.5,0.5,5.5,0.8,9.2,0.8h41.3c2.5-3.2,3.3-4.2,6-7.3c4.4,3.3,5.7,4.4,9.8,7.8c0.3,0.3,0.4,0.4,0.4,0.6
		c0,0.3-0.3,0.4-0.9,0.4h-56.6c-3.3,0-6,0.1-8.6,0.5L560.1,34.1z"/>
	<path d="M632.7,45.2c9.7-5.1,15.6-9.2,22.5-15.6c-0.7,0.4-1.5,0.7-2.1,0.7c-0.9,0-1.3-0.7-1.4-2.5c-0.1-2.5-0.4-3.6-1.6-5.4
		c-4.4,5.3-8.3,8.4-14.7,11.9l-0.5-0.7c4.4-4.6,6.8-8,9.1-12.6c1.5-3,2.3-5.2,3.1-8.4c10.2,2.6,10.2,2.6,10.2,3.5
		c0,0.7-0.9,1.1-3.5,1.4c-1.2,1.9-1.7,2.5-2.6,3.8c0.6,0.2,1,0.4,1.3,0.4c3.9,1.3,4.9,2.2,4.9,4c0,0.9-0.4,1.9-1.2,2.8
		c2-2,3.4-3.6,6.5-7.6v-9.6h-21.1c-2.3,0-3.9,0.1-5.8,0.4l-0.5-2.7c2.2,0.5,3.9,0.7,6.3,0.7h21.1V9.3c0-2.8-0.1-4.2-0.3-7.1
		C672.4,2.9,673,3,673,4c0,0.7-0.9,1.2-2.9,1.8v4h15.1c2.6-2.6,3.4-3.4,5.9-5.9c3.7,2.7,4.9,3.5,8.4,6.2c0.2,0.3,0.4,0.7,0.4,0.7
		c0,0.3-0.4,0.5-0.8,0.5h-29v11.1c1.7,2.4,2.3,3.2,3.8,4.5c2.7-3.5,5.7-10,6.5-14c2,0.5,3.6,0.9,4.6,1.2c4.5,1.2,5.3,1.5,5.3,2.2
		c0,0.7-0.9,1.1-3.2,1.4c-1.2,1.3-1.5,1.7-2.3,2.5c2.8,0.9,4.6,1.5,6.5,2.3c1.7,0.7,3.4,1.7,4.3,2.6c0.5,0.6,0.8,1.3,0.8,2.3
		c0,2.5-2.1,5.4-4,5.4c-0.2,0-0.7-0.2-1-0.5c-0.4-0.4-0.4-0.4-1.6-2.9c-1.7-3.6-4.2-6.9-6-8.2c-3.1,2.9-5.3,4.6-8.8,6.5
		c2.9,2.1,5.7,3.7,9.2,5.2c5.5,2.3,9.8,3.3,17,3.8v0.9c-2.3,1.2-3.3,2.2-4.2,4.1c-0.4,0.7-0.8,1.7-0.9,2.4c-0.2,0.7-0.4,0.9-0.9,0.9
		c-1.1,0-5.4-1.9-8.4-3.6c-5.2-3.1-9.6-6.6-12.4-10c-1.6-2-2.6-3.6-4.3-6.8v3.7c0,0.1,0.1,1.5,0.1,3.3c0,0.7,0.1,1.7,0.1,3
		c-0.1,0.8-0.3,1.1-0.9,1.3c-0.7,0.3-2.7,0.5-4.1,0.5c-2,0-2.4-0.2-2.6-1.2l0.1-3.1v-1.5c-5.2,4.3-9.6,7-16.5,10.2
		c-4,1.9-7.2,3-13.3,4.7L632.7,45.2z M675.3,43c1.5-1.2,2.9-2.5,4.2-3.6c2.8,2.2,3.6,2.8,6.4,5.1c0.6,0.5,0.8,0.9,0.8,1.2
		c0,0.7-0.9,1.1-3.6,1.5c-3.4,3.8-4.7,5-6.8,6.8c11,3.4,12.9,4.8,12.9,10.1c0,2.3-1.1,4-2.5,4c-0.8,0-1.3-0.3-2.8-1.7
		c-2.5-2.3-7.5-5.7-12.6-8.6c-3.8,2.5-7.8,4.6-12.3,6.3c-6.8,2.5-12.7,3.9-23.2,5.2l-0.2-0.7c12.1-3.3,21.2-7.8,29.4-14.2
		c-3.8-1.9-4.7-2.3-10.1-4.6c-6.1,4.2-10.1,6.2-17.6,8.6l-0.5-0.8c9.8-6,17.9-13.9,21.4-21.1c1.9,0.5,3.4,0.9,4.4,1.1
		c5,1.1,5.8,1.4,5.8,2.1c0,0.7-0.9,1-3.3,1.2c-0.9,1-1.3,1.5-1.9,2.1H675.3z M661.7,44.5c-2,1.7-3.3,2.8-5.7,4.5
		c0.9,0.1,0.9,0.1,2.3,0.4c2.8,0.4,5.6,1.1,10,2.3c2.7-2.3,4.1-3.7,7-7.3H661.7z"/>
	<path d="M744.8,10.9c0-5.2,0-5.7-0.3-8.6c10.5,0.9,10.8,1,10.8,2c0,0.6-0.6,0.9-2.7,1.6c0,2.5,0,2.9,0,5.1h7.1
		c2.2-2.5,2.9-3.3,5.2-5.6c3.6,2.5,4.6,3.4,8,6.2c0.2,0.3,0.3,0.4,0.3,0.6c0,0.2-0.3,0.4-0.7,0.4h-19.9c0,1.1,0,1.1,0.1,6.3
		c0,0.7-0.1,0.9-0.4,1.2c-0.6,0.5-2.3,0.7-4.7,0.7c-2.6,0-2.8-0.1-2.9-1.2c0.1-4.7,0.1-4.7,0.1-7H732c0,2,0,2.9,0.1,6.3
		c0,0.7-0.1,1-0.5,1.2c-0.7,0.4-2.5,0.7-4.6,0.7c-2.5,0-2.9-0.2-2.9-1.4c0.1-3.3,0.2-4.3,0.2-6.8h-12.1c-2.4,0-3.6,0.1-5.2,0.4
		l-0.4-2.5c1.8,0.4,3.3,0.6,5.7,0.6h12.1c0-5.3,0-5.8-0.3-8.7c10.8,1.1,10.9,1.1,10.9,2c0,0.7-0.7,1.1-2.8,1.7c0,1.8,0,2.7-0.1,4
		c0,0.4,0,0.4,0,1H744.8z M754.8,38.4h4.6c2.3-2.5,3-3.3,5.4-5.8c3.5,2.5,4.5,3.3,7.8,6.2c0.4,0.3,0.5,0.5,0.5,0.7
		c0,0.3-0.3,0.4-0.7,0.4h-17.6v7.3c0,7.4,0,7.4,0.1,14.2c-0.1,4.3-1.5,6-6.1,7.3c-1.7,0.4-3.8,0.8-4.9,0.8c-0.7,0-0.9-0.2-1-1.3
		c-0.2-1.7-1.1-3.2-2.3-4.1c-1.4-1-2.5-1.4-8.8-2.9l0.1-0.9c6.9,0.4,8.7,0.4,14,0.5c0.8-0.1,1-0.3,1-1.2V41.7
		c-6.3,7.2-11.8,11.7-19.5,15.8c-6.7,3.6-12.6,5.9-20.5,8l-0.4-0.9c9.2-4.6,15.5-8.8,22.5-15c3.9-3.4,6.6-6.3,9.1-9.7h-25.5
		c-2.3,0-3.5,0.1-5.7,0.5l-0.5-2.7c2,0.4,3.9,0.7,6.2,0.7h8.4V25h-5.4c-2.1,0-3.4,0.1-5.2,0.4l-0.4-2.5c2.2,0.4,3.4,0.6,5.9,0.6
		h40.3c2.3-2.5,2.9-3.2,5.1-5.5c3.3,2.5,4.3,3.3,7.6,6c0.4,0.3,0.5,0.4,0.5,0.7s-0.3,0.4-0.7,0.4h-13.9V38.4z M728.9,25v13.4h18V25
		H728.9z"/>
	<path d="M826.4,14.9c0.1,11.3,1,20.1,2.7,25.7c1.5-3.6,2.7-7.4,3.9-12.3c0.9-3.4,1.1-4.8,1.2-7.7c9,2.3,10.2,2.7,10.2,3.6
		c0,0.7-0.8,1.1-3,1.5c-2.8,10.4-5.4,16.9-9,22.8c1.9,3,3.2,4.6,7.3,8.6c2.2-4,2.8-5.5,5.9-12.8l0.8,0.2l-1.8,12.4
		c-0.2,1.8-0.2,1.8-0.2,2.2c0,0.8,0.1,0.9,1.4,2.6c0.6,0.8,0.9,1.6,0.9,2.5c0,2.2-1.8,4-4.1,4c-2.7,0-6.2-2.7-10.8-8.1
		c-1.6-1.9-2.8-3.5-4-5.5c-6.2,7-10.6,10-21.1,14.6l-0.4-0.7c9.2-6.8,13.9-11.8,18.7-19.5c-3.5-8-4.7-15.6-5.7-34h-26.7v5.9
		c0,14.9-1.3,25.2-4.1,32.8c-2,5.7-4.5,9.4-9.7,15.2l-0.7-0.4c2.9-6.4,4.1-10.5,5.2-17.5c1.1-7,1.5-15.5,1.5-28.3
		c0-5.7-0.1-8.9-0.4-13.9c4.1,1.8,5.4,2.4,9.2,4.7h25.7c0-1.2,0-1.4-0.1-2c-0.1-5.1-0.2-6-0.6-8.9c9.4,1,10.5,1.2,10.5,2.2
		c0,0.6-0.7,1-2.5,1.7c0,3-0.1,3.8-0.1,5.7v1.4h9.9l5.2-4.9c2.7,2.3,3.5,2.9,6,5.3c0.2,0.3,0.4,0.5,0.4,0.7c0,0.3-0.3,0.4-0.8,0.4
		H826.4z M816.8,35.7c-1.2,6.2-2.4,10.1-4.7,14.2c3.9,1.9,4.7,2.8,4.7,5c0,2.4-1.8,5-3.4,5c-0.9,0-1.1-0.2-2.5-2.8
		c-0.6-1.2-0.9-1.7-1.8-2.8c-1.9,2.4-3.9,4.4-6.2,6.2c-3.1,2.5-5.8,3.9-12.6,6.5l-0.4-0.7c8.3-5.9,11.6-9.3,15.3-16.1
		c-1.5-1.4-2.1-1.8-4.2-3.1c-0.5,1.4-0.9,2.3-1.8,4.3c-0.4,0.9-0.9,1.1-2,1.1c-3,0-4.8-0.5-4.8-1.5c0-0.1,0.1-0.5,0.2-0.9
		c2.5-5.4,3.7-8.5,5.5-14.5h-2.3c-0.9,0-1.5,0.1-2.5,0.2l-0.4-2.1c1,0.2,2,0.4,2.9,0.4h2.8c1.2-4.3,1.5-6.1,1.9-9.1
		c9.3,1.4,9.3,1.4,9.3,2.2c0,0.6-0.7,0.9-2.8,1.5c-0.8,2.8-0.9,3.6-1.5,5.4h5c1.7-2,2.3-2.5,4-4.4c2.8,2.1,3.6,2.8,6.2,4.9
		c0.1,0.2,0.3,0.4,0.3,0.6s-0.2,0.4-0.5,0.4H816.8z M808.2,22.7c1.8-2.1,2.5-2.8,4.3-4.8c3,2.3,3.9,3.1,6.7,5.5
		c0.2,0.2,0.3,0.4,0.3,0.5c0,0.1-0.2,0.3-0.6,0.3h-22.4c-1,0-1.7,0.1-2.8,0.3l-0.4-2.3c1.1,0.3,2.2,0.4,3.2,0.4H808.2z M804.8,35.7
		c-1.3,4.3-2.4,7.5-3.5,10.5c2.5,0.7,3.3,0.9,5.1,1.4c1.6-3.6,2.6-7.2,3.3-12H804.8z M829.6,4.2c6.7,1.2,8.7,2.4,8.7,4.9
		c0,2-1.6,3.6-3.6,3.6c-1.3,0-1.7-0.4-2.3-2.2c-0.7-2.6-1.2-3.6-3.2-5.9L829.6,4.2z"/>
	<path d="M904.8,28.7c2.8-3.2,3.6-4.1,6.3-7.2c4,3.1,5.2,4.1,9,7.5c0.4,0.4,0.5,0.6,0.5,0.7c0,0.4-0.4,0.5-0.9,0.5h-29.6V63h12.2
		c2.7-3.1,3.6-4.1,6.2-7.2c3.9,3.2,5.1,4.2,8.9,7.5c0.3,0.4,0.4,0.6,0.4,0.7c0,0.4-0.4,0.5-1,0.5h-54.1c-2.2,0-3.7,0.1-5.5,0.5
		l-0.5-2.7c2.1,0.4,3.9,0.7,6,0.7h18.5V30.2h-22.3c-2.2,0-3.6,0.1-5.2,0.4l-0.4-2.6c2.1,0.5,3.3,0.7,5.5,0.7h22.4V14.4
		c0-4.1-0.1-6.3-0.5-10.9c11.8,1.3,13,1.5,13,2.6c0,0.7-0.7,1.1-3.6,1.9v20.6H904.8z"/>
	<path d="M938.1,44.9c0.3,2.5,0.4,3.6,0.4,5.1c0,4.6-1,8.9-2.6,11.4c-1.5,2-3.5,3.3-5.3,3.3c-2.1,0-3.7-2.6-3.7-6
		c0-0.9,0.3-1.9,0.8-2.4c0.4-0.4,0.4-0.4,2.7-1.6c1.7-0.9,3.5-2.5,4.6-4.1c1.1-1.5,1.6-2.8,2.4-5.7H938.1z M933.4,6.2
		c2.3,0.6,3.7,0.7,5.7,0.7h32.6c1.8-1.9,2.4-2.4,4.4-4.2c2.7,1.8,3.5,2.3,6,4.2c0.6,0.5,0.9,0.9,0.9,1.2c0,0.7-0.7,1.2-2.5,2.3
		c0,1.6,0,2.8,0,3.6c0,2.7,0,4.6,0.1,8.6c0,0.8-0.1,1.2-0.6,1.4c-0.7,0.4-2.5,0.7-4.9,0.7c-2.2,0-2.7-0.2-2.7-1.3
		c0,0,0.1-0.1,0.1-0.1v-2.4h-29.1v9.8c0,1.5,0.4,2,1.7,2c1.4,0.1,9,0.2,20.2,0.2c11.8,0,13.7-0.1,15-1.1c1.3-0.9,2.3-3,5.7-11.6
		l0.9,0.1l-0.8,9.3c0,0.4,0,0.8,0,0.9c0,0.7,0.3,1.1,1.2,1.4c1.7,0.5,2.5,1.4,2.5,2.8c0,2.2-1.2,3.5-4.1,4.1
		c-2.4,0.5-6.5,0.7-16.6,0.7c-19,0-25.6-0.1-27.9-0.4c-4.4-0.5-5.5-1.7-5.7-5.6V22.1c0-2.9,0-4.2-0.2-7.3c4.1,1.7,5.4,2.3,9.2,4.4
		h28V8.5h-33.4c-2.3,0-3.3,0.1-5.2,0.4L933.4,6.2z M944.1,49.8c0-2.3-0.1-3.6-0.4-6.6c2.1,0.2,4,0.4,5,0.5c4.6,0.5,6,0.9,6,1.7
		c0,0.7-0.6,1.1-3,1.8v11.1c0,1.2,0.1,1.5,1.2,1.7c0.7,0.2,4.1,0.3,10.2,0.3c5.2,0,6.4-0.2,7.3-1.2c0.9-1.1,1.7-2.7,5-11.3l0.7,0.1
		l-0.6,9.2c-0.1,0.2-0.1,0.4-0.1,0.4c0,0.9,0.3,1.2,1.2,1.4c1.9,0.5,2.8,1.5,2.8,3.1c0,2.1-1.2,3.6-3.9,4.3c-2,0.5-5.7,0.7-14.7,0.7
		c-11,0-13.4-0.1-15-1c-1.4-0.8-2-2-2-4.1c0-0.1,0-0.3,0-0.5c0-2.1,0-4.2,0-6.4V49.8z M954.6,41.8c10.1,2.3,13.7,4.4,13.7,7.4
		c0,3-2.1,6.1-4.3,6.1c-0.9,0-1.2-0.3-2.2-2.5c-1.8-4.4-3.9-7.1-7.6-10.4L954.6,41.8z M978.1,44.6c6.1,2.9,8.9,4.5,10.9,6.5
		c2,1.9,3,3.6,3,5.4c0,3.3-2.5,7.3-4.6,7.3c-1.2,0-1.7-0.9-2.5-3.7c-1.6-5.5-3.8-10.2-7.3-14.8L978.1,44.6z"/>
</g>
</svg>
