<?xml version="1.0" encoding="utf-8"?>
<!-- Generator: Adobe Illustrator 18.0.0, SVG Export Plug-In . SVG Version: 6.00 Build 0)  -->
<!DOCTYPE svg PUBLIC "-//W3C//DTD SVG 1.1//EN" "http://www.w3.org/Graphics/SVG/1.1/DTD/svg11.dtd">
<svg version="1.1" id="圖層_1" xmlns="http://www.w3.org/2000/svg" xmlns:xlink="http://www.w3.org/1999/xlink" x="0px" y="0px"
	 viewBox="0 0 504 72" enable-background="new 0 0 504 72" xml:space="preserve">
<g>
	<path d="M2.9,38.7c6-6.1,10.2-11.5,14.4-18.5c3.4-5.8,5.4-10.3,7-16.1c5.8,2.3,10,4,10.6,4.5c0.1,0.1,0.4,0.4,0.4,0.6
		c0,0.7-0.9,1.1-3.5,1.3c-4.6,8.1-7.8,12.5-12.6,17.3c-4.5,4.5-8.5,7.5-15.7,11.4L2.9,38.7z M35.3,33.4c-0.5,4.3-0.6,4.8-1.1,7.1
		C31,56,23.3,63.8,5.3,70L5,69.2c9.8-6.4,15.3-12.4,18.4-20.1c1.7-4.4,2.5-8.2,3.3-15.7h-5c-1.7,0-3.4,0.1-5,0.4l-0.5-2.5
		c2.2,0.4,3.7,0.6,5.4,0.6h27.2c1.4-1.5,1.9-1.9,3.3-3.2c2.8,1.9,3.6,2.5,6.2,4.4c0.6,0.5,0.9,0.9,0.9,1.2c0,0.4-0.4,0.8-1.7,1.5
		c-0.8,11.1-1.2,15-2.1,20.4c-1.2,6.9-2.8,9.7-6.2,11.1c-1.9,0.8-5.1,1.4-7.9,1.4c-1.3,0-1.4-0.1-1.5-1.7c-0.1-1.8-1.1-3.4-2.8-4.3
		c-1.8-1-3.2-1.5-8-2.9l0.1-0.9c5.4,0.6,11.5,1.2,13.4,1.2c3.1,0,4-0.7,4.7-3.6c1.3-5.6,2-13.3,2.3-23.1H35.3z M42.9,4.7
		c-0.1,0.4-0.1,0.6-0.1,0.7c0,2.1,2.7,6.2,6.6,10.2c3.5,3.6,8,6.6,13,9c2.9,1.3,4.8,1.9,9.2,3v0.7c-1.9,0.9-2.7,1.6-4.1,3.4
		c-0.8,1.1-1.5,2.4-2,3.7c-0.2,0.6-0.5,0.9-0.8,0.9c-0.6,0-4-2.2-6.9-4.6c-7.2-5.9-11.8-12.6-15.5-22.4c-0.8-1.9-1.2-2.7-2-3.6
		L42.9,4.7z"/>
	<path d="M104.7,48.6c0-1.8-0.1-2.9-0.5-5.3c4.9,0.6,6,0.7,8.7,1.3c3-2.2,4.4-3.4,6.9-5.8H88.6c-1.7,0-3.4,0.1-5.4,0.4l-0.5-2.6
		c2.4,0.5,3.7,0.6,5.9,0.6h32.2c2.4-1.8,2.4-1.8,4.7-3.5c3.2,2.1,4.2,2.9,7.5,5.3c0.6,0.5,0.9,0.8,0.9,1.1c0,0.6-0.9,1-2.1,1
		c-0.1,0-0.2,0-0.4,0c-0.6-0.1-1.2-0.1-1.8-0.1c-0.4,0-0.9,0-1.6,0c-5.8,2.1-8.3,3-13,4.4c0.1,0.1,0.1,0.3,0.1,0.4
		c0,0.5-0.7,0.9-2.7,1.5v3.1h16c2.4-2.6,3.1-3.4,5.6-6c3.5,2.6,4.6,3.4,8.1,6.2c0.4,0.4,0.5,0.6,0.5,0.8c0,0.3-0.4,0.5-0.8,0.5
		h-29.4v4.3c0,3.1,0.1,5.4,0.1,5.9c0,0.4,0,0.6-0.1,1.2c0,2.5-0.6,3.8-2.5,4.7c-1.7,0.9-2.9,1.2-5.7,1.6c-1.4,0.1-1.8,0.2-2.2,0.2
		c-0.6,0-0.8-0.1-0.9-1.2c-0.1-1.4-0.5-2.4-1.2-3c-0.7-0.8-2.7-1.7-4.9-2.4c-0.4-0.1-2.2-0.6-5.4-1.4l0.1-1
		c3.5,0.2,3.5,0.2,13.3,0.7c1.2-0.1,1.6-0.4,1.6-1.1V52H82c-1.6,0-3.7,0.1-5.2,0.4l-0.6-2.6c2.1,0.4,3.8,0.6,5.9,0.6h22.6V48.6z
		 M127.7,12.4c2.4-2.6,3.1-3.4,5.4-5.8c3.4,2.5,4.5,3.3,8.1,5.9c0.3,0.3,0.4,0.5,0.4,0.6c0,0.4-0.4,0.7-0.9,0.7H82
		c-1.4,0-3.4,0.2-4.8,0.4l-0.6-2.4c2.4,0.4,3.8,0.5,5.4,0.5h22.3V8.7c0-1.7-0.1-2.9-0.4-5.2c1.1,0.1,1.1,0.1,4.2,0.4
		c1.8,0.2,1.8,0.2,4.7,0.6c1.7,0.2,2.4,0.6,2.4,1.3c0,0.6,0,0.6-2.9,1.9v4.7H127.7z M121.4,19.3c1.7-1.9,2.2-2.4,3.9-4
		c2.7,1.6,3.4,2.1,5.9,3.7c0.7,0.6,1.1,0.9,1.1,1.3c0,0.6-0.6,1.2-2.4,2.1c0,2,0,2.1,0,4.2c0.1,2.2,0.1,2.2,0.1,4.8
		c0.1,0.1,0.1,0.4,0.1,0.5c0,0.6-0.3,1-0.7,1.2c-0.7,0.3-3.8,0.6-6.2,0.6c-0.8,0-1.1-0.3-1.1-1v-1.2H95.1v1.2
		c-0.1,0.7-0.2,0.9-0.5,1.2c-0.5,0.4-2.2,0.6-4.3,0.6c-2.6,0-3.2-0.3-3.2-1.5c0-0.1,0-0.2,0-0.3c0.1-3.4,0.2-4.6,0.2-7.2
		c0-5.6-0.1-7.2-0.4-10c4.1,1.4,5.3,2,9.2,3.8H121.4z M95.1,30H122v-9.2H95.1V30z"/>
	<path d="M179.1,67.8c0,1.7-0.6,1.9-4.5,1.9c-2.2,0-2.5-0.1-2.5-1.4c0.2-10.2,0.4-22.4,0.4-37.3l-0.1-14c-0.8,0.3-1.1,0.4-2.3,0.4
		c-4,5.1-9.7,11.3-15.2,16.6c5-0.2,7.3-0.4,10.7-0.9c-0.6-2.4-1-3.4-2.6-6.2l0.6-0.5c3,2.1,4.2,3,5.7,4.4c1.5,1.6,2.5,3.4,2.5,4.7
		c0,2.6-2.1,5.7-3.9,5.7c-0.8,0-1.2-0.9-1.4-2.8c-0.1-1.1-0.2-1.8-0.4-3.2c-1.1,0.4-1.2,0.5-2.8,1v16.3c0,8.1,0,8.1,0.1,15.1
		c0,1.7-0.7,2.1-4.1,2.1c-2.5,0-2.7-0.1-2.7-1.5c0.2-4.4,0.4-10.8,0.4-15.3v-5.9l-0.8,0.1c-2.4,7-2.9,8-3.7,10
		c-1.4,3.2-2.7,5.4-5.4,9.2l-0.8-0.4c2.4-8,3.6-14.8,4-23.1c3.4,1,4.6,1.4,6.7,2.1v-6.7c-3.6,1-4.2,1.1-6.9,1.9
		c-0.4,1.8-0.6,2.4-1.2,2.4c-0.6,0-0.9-0.6-2.4-8.7c2,0.1,2.9,0.2,3.9,0.2c0.5,0,0.6,0,2.2-0.1c2.1-2.9,3.2-4.7,5.4-8.6
		c3.7-6.5,5.2-9.5,6.5-13.5c1.9,0.9,3.4,1.6,4.3,2c1.9,0.8,2.7,1.3,3.7,2c-0.1-6.7-0.1-8.5-0.4-12.1c3.7,1.6,4.9,2.2,8.2,4.3h23.5
		c1.5-1.9,2-2.4,3.7-4.2c2.5,1.8,3.2,2.3,5.5,4.1c0.6,0.5,0.8,0.8,0.8,1.1c0,0.6-0.6,1.1-2.4,2.3v30.6c0,1.6,0.1,12.5,0.1,20.1
		c0.1,0.2,0.1,0.5,0.1,0.6c0,3.4-1.6,5.2-5.5,6.5c-1.4,0.4-2.9,0.6-3.9,0.6c-0.7,0-0.9-0.2-1-1.3c-0.1-1.4-0.8-2.6-1.9-3.4
		c-1.1-0.9-2.1-1.3-7.7-2.9l0.1-0.9c6.9,0.5,7.2,0.5,11.5,0.6c1.1-0.1,1.3-0.3,1.3-1.3V9.7h-25.3v42.1V67.8z M147.8,13.1
		c2.2,1,3.1,1.4,4.8,2.5c1.8-4.2,2.9-8.1,3.5-12.2c8.8,2.4,10.4,3,10.4,3.9c0,0.7-0.9,1.1-3.4,1.2c-3.9,4.2-5.6,5.7-8.7,8.3
		c2.9,2.3,3.7,3.2,3.7,5c0,2.7-1.9,5.4-3.7,5.4c-1,0-1.5-0.7-2.1-2.9c-1.2-4.8-2.4-7-5.1-10.6L147.8,13.1z M164.1,42.3
		c4.9,4.3,7.7,8.5,7.7,11.5c0,2.8-2.1,5.9-3.9,5.9c-0.9,0-1.2-0.8-1.3-3.1c-0.1-1.8-0.4-4.4-0.6-6.5c-0.5-2.9-0.9-4.4-2.4-7.3
		L164.1,42.3z M179.6,34.6c1.3,0.4,2.4,0.6,3.9,0.6h4.3v-8h-3.4c-2,0-2.7,0.1-4.2,0.4l-0.4-2.4c1.5,0.4,2.9,0.6,4.6,0.6h6.9
		c2.3-5.8,3.5-9.8,4.2-14.5c6.7,2.1,7.7,2.6,7.7,3.2s-0.7,0.9-2.5,1.1c-2.8,4.4-3.8,5.7-7.7,10.2h3.4c1.5-1.9,1.5-1.9,3-3.6
		c1.9,1.7,2.5,2.3,4.2,4.2c0.1,0.2,0.3,0.4,0.3,0.6c0,0.2-0.3,0.4-0.7,0.4h-9.2v8h2.3c1.4-1.7,1.8-2.2,3.2-3.8
		c2,1.8,2.6,2.4,4.4,4.3c0.2,0.3,0.4,0.4,0.4,0.6c0,0.3-0.4,0.4-0.9,0.4h-13.1v11.6c0,1.5,0,1.5,2.6,1.5c2,0,2.7-0.1,5.2-0.4
		c0.2-0.1,0.4-0.1,0.6-0.1c1.4,0,2.7,1.8,2.7,3.7c0,1.1-0.6,2-1.6,2.4c-1.1,0.4-3.9,0.6-8,0.6c-4.1,0-5.8-0.3-6.8-1.1
		c-0.6-0.5-0.9-1.2-1-2.2c0-0.4,0-1.1,0-3.2V36.7h-0.6c-1.4,0-2.2,0.1-3.4,0.4L179.6,34.6z M182.5,11.2c2.4,1.4,3.4,2.1,5.1,3.8
		c1.7,1.7,2.4,2.8,2.4,4.3c0,2.3-2,4.9-3.8,4.9c-0.9,0-1.2-0.6-1.5-3.2c-0.3-2.7-1.1-5.9-2.7-9.4L182.5,11.2z"/>
	<path d="M240,19.7c2-2.5,2.6-3.2,4.7-5.4c2.9,2.5,3.8,3.3,6.5,5.9c0.2,0.2,0.4,0.4,0.4,0.6c0,0.3-0.4,0.5-0.9,0.5h-25.9
		c-1.2,0-2.7,0.2-4.7,0.6l-0.6-2.8c1.9,0.5,3.4,0.7,5.3,0.7h5.3V11c0-2.4-0.1-3.7-0.5-6.2c2.2,0.2,4,0.4,5.2,0.6
		c5.4,0.6,6,0.7,6,1.5c0,0.7-1,1.3-3,1.9v10.9H240z M247.2,49c-8.2,6.1-14.4,10-21.6,13.5c-0.1,2.6-0.4,3.4-1.1,3.4
		c-1,0-1.3-0.8-4.7-10.3c3.6-0.3,7.1-1.1,14.1-3.2c2.2-11.2,4.2-23.7,4.4-29.1c5.2,1.1,9,2,9.9,2.4c0.5,0.2,0.8,0.5,0.8,0.9
		c0,0.8-0.7,1.1-3,1.4c-4.1,11.2-6.3,17.1-6.7,18c-0.9,2.2-1.6,3.9-2.3,5.5c3.9-1.2,5.7-1.8,9.8-3.4L247.2,49z M223,23.4
		c3.4,4.2,4.9,6.4,6.6,9.5c1.9,3.6,3.1,6.9,3.1,9.1c0,3.7-3,7.9-5.4,7.9c-1.1,0-1.6-0.9-1.6-3.6c-0.2-10.3-1.1-16.3-3.2-22.6
		L223,23.4z M273,39.4c1.8-2.1,2.3-2.7,4.2-4.7c2.7,1.9,3.4,2.6,6,4.5c0.6,0.5,0.9,0.9,0.9,1.1c0,0.6-0.6,1.1-2.7,2.3
		c0.1,16.8,0.1,16.8,0.4,24.9c-0.1,0.9-0.3,1.1-0.9,1.4c-0.6,0.2-3.4,0.4-5.5,0.4c-1.2,0-1.6-0.3-1.6-1.3v-3.5h-17.9v3.5
		c-0.1,0.7-0.2,1-0.9,1.1c-0.6,0.2-3.7,0.4-5.4,0.4c-1.1,0-1.5-0.3-1.6-1.2c0.2-6.8,0.3-9.8,0.3-15.7c0-3.6-0.1-9.5-0.3-17.9
		c3.8,1.8,4.9,2.4,8.5,4.6h3.6l-0.1-26.1c0-3.7-0.1-5.5-0.4-9.1c9.7,0.8,10,0.9,10.6,1c0.5,0.1,0.9,0.4,0.9,0.9c0,0.6-0.9,1.1-3,1.9
		v12.3h5.1c2.3-2.7,3-3.5,5.2-6c3.4,2.8,4.3,3.7,7.5,6.5c0.1,0.2,0.3,0.4,0.3,0.6c0,0.3-0.4,0.5-0.7,0.5h-17.3v17.5H273z M255.7,63
		h17.9V41h-17.9V63z"/>
	<path d="M348.1,45.5c1.8-2.5,2.4-3.3,4.4-5.9c2.8,2.7,3.6,3.6,6.2,6.4c0.1,0.2,0.3,0.4,0.3,0.6c0,0.2-0.2,0.4-0.8,0.4h-10.3v3.3
		c0,0.8,0,2.9,0.1,6.2c0,0.9,0,2.4,0.1,4.3c0,0.3,0,0.6,0,0.7c0,4.3-1.5,6.1-5.9,7.3c-1.6,0.4-3.9,0.7-5.1,0.7c-0.6,0-0.9-0.3-1-1.2
		c-0.3-1.9-1.1-3.2-2.7-4.4c-1.5-1-3.4-1.6-8.4-2.8v-0.7c1.4,0.1,2.9,0.2,3.7,0.2c5.5,0.4,6.3,0.4,10.1,0.4c0.9,0,1.1-0.2,1.1-1.1
		V47h-32.1v20.6c-0.1,0.7-0.1,1.1-0.5,1.4c-0.6,0.5-2.4,0.8-5.1,0.8c-2,0-2.7-0.4-2.7-1.5c0,0,0-0.1,0-0.2c0.1-5.9,0.1-5.9,0.3-21
		h-3.9c-2.2,0-4,0.1-5.7,0.4l-0.5-2.5c2.4,0.5,3.9,0.6,6.5,0.6h3.7c0-0.8,0-1.4,0-1.8c0-0.4,0-1.1,0-2.2c0.1-1.7,0.1-3.8,0.1-5.7
		c0-10.2-0.1-15.6-0.4-20.3c4,1.9,5.2,2.4,9,4.6h11.2V9.5h-21.2c-2.6,0-4.8,0.1-7.1,0.4l-0.4-2.7c2.7,0.5,4.7,0.7,7.6,0.7h44.6
		c2.3-2.7,3-3.4,5.4-6c3.8,2.7,4.9,3.5,8.7,6.4c0.3,0.4,0.4,0.5,0.4,0.7c0,0.2-0.4,0.4-0.8,0.4h-29.5v10.5H339
		c1.7-1.9,2.3-2.5,4.1-4.4c2.8,1.8,3.7,2.4,6.2,4.3c0.6,0.5,0.9,0.8,0.9,1.1c0,0.5-0.3,0.8-2.3,2.3v22.1H348.1z M319.5,21.6h-11.9
		v10.8h11.9V21.6z M319.5,33.9h-11.9v11.6h11.9V33.9z M339.7,21.6h-12.5v10.8h12.5V21.6z M339.7,33.9h-12.5v11.6h12.5V33.9z"/>
	<path d="M373.2,19.5c0.1-2.8,0.1-4.9,0.1-7.7c0-3.4-0.1-4.7-0.3-7.7c11,1.3,11,1.3,11,2.4c0,0.7-0.3,0.9-2.7,1.9
		c-0.2,3.2-0.2,3.2-0.4,8.8c0,0.8,0,1-0.1,2.3h6.4c1.5-1.8,2-2.4,3.7-4c2.5,1.6,3.2,2.2,5.6,4c0.6,0.6,0.9,0.9,0.9,1.3
		c0,0.6-0.6,1.1-2.4,2.1c-0.1,2.7-0.1,2.7-0.5,14.3c-0.2,6-0.8,12.8-1.6,19.1c-0.7,5.2-2,8.5-4.2,9.9c-1.9,1.3-4.7,2.1-7.1,2.1
		c-0.7,0-0.8-0.1-0.9-1.4c-0.3-3.5-2-4.9-8-6.4l0.1-0.9c3.8,0.3,4.1,0.3,4.8,0.4c1.8,0.1,2.9,0.1,3.1,0.2c0.8,0.1,1.4,0.1,1.9,0.1
		c1.6,0,2.2-0.7,2.7-3.5c0.6-3.3,1.5-12.1,1.8-18.4c0.2-4.8,0.4-8.2,0.5-17.3h-6.7c-0.6,12.6-2.1,21.8-4.6,28.2
		c-2.8,7.1-7.4,13.5-14,19.6l-0.6-0.6c4.6-7,7.7-14.6,9.5-23.3c1.4-6.9,1.9-13,2.2-23.9h-5.3c-1.1,0-1.9,0.1-4.7,0.5l-0.4-2.6
		c1.9,0.4,3.7,0.6,5.1,0.6H373.2z M407.8,65.6c0,1.1-0.3,1.6-1.2,1.9c-0.8,0.3-2.3,0.4-4.2,0.4c-2.2,0-2.6-0.3-2.7-1.7
		c0.2-15.8,0.2-15.8,0.2-35.4c0-8-0.1-13-0.4-19.6c3.8,1.8,4.9,2.4,8.5,4.5h8.9c1.9-2,1.9-2,4-4.2l5.5,4.2c0.7,0.6,0.9,0.9,0.9,1.3
		c0,0.5-0.4,0.9-2.3,2C425,22,425,24,425,24.9c0,21.9,0.1,27.9,0.5,39.8c0,2.1-0.8,2.4-5.7,2.4c-2,0-2.4-0.3-2.5-1.5v-3.8h-9.5V65.6
		z M407.8,60.3h9.5V17.1h-9.5L407.8,60.3z"/>
	<path d="M450.7,11.5c-1.9,8.5-3.2,12.3-6.2,18.8l0.4,0.4h5.5c1.5-1.7,2-2.3,3.6-3.9c2.2,1.6,2.8,2.1,4.8,3.9c0.5,0.4,0.6,0.6,0.6,1
		s-0.2,0.7-0.6,0.9c-1,0.6-1,0.6-1.4,0.9c-0.1,2.8-0.1,4.7-0.1,5.9c0,3,0.1,12.2,0.2,18.5c0.5-0.9,0.7-1.2,1.7-2.1
		c3-2.7,3.6-3.8,4.3-8.7l0.9-0.3c0.9,2.9,1.1,4.4,1.1,7c0,5.9-2.2,10.4-5.1,10.4c-1.4,0-2.6-1.1-3-2.8c-0.3,0.5-0.5,0.7-0.9,0.8
		c-1.1,0.4-3.3,0.6-4.4,0.6c-1,0-1.4-0.4-1.4-1.1v-3.2h-5.1v6.7c0,0.4-0.1,0.7-0.2,0.9c-0.4,0.4-1.9,0.7-3.7,0.7
		c-0.5,0-0.9,0.1-1.2,0.1c-0.1,0-0.2,0-0.3,0c-1.2,0-1.6-0.3-1.6-1.2c0.3-8.1,0.4-11.7,0.4-19.3V40c-1.9,2.8-2.9,4.1-5.7,6.8
		l-0.6-0.6c3.5-7,5.4-12.5,7.6-21.4c1.2-5.1,2.1-9.7,2.4-13.3h-3.8c-1.7,0-2.4,0.1-3.7,0.4l-0.6-2.4c1.6,0.4,2.6,0.6,4.3,0.6h11.8
		c2-2.3,2.6-3,4.5-5.1c2.6,2.3,3.4,3,5.7,5.2c0.3,0.4,0.4,0.6,0.4,0.9c0,0.2-0.3,0.4-0.5,0.4H450.7z M445.6,57h5.1V32.2h-5.1V57z
		 M487.1,19.6c1.9-2.1,2.4-2.7,4.2-4.7c2.7,2.1,3.6,2.8,6,5c0.4,0.3,0.4,0.5,0.4,0.7c0,0.3-0.2,0.4-0.6,0.4h-13.5v9.2h3.7
		c1.7-2.1,2.3-2.8,4-4.7c2.9,2.2,3.7,2.9,6.2,5.3c0.2,0.2,0.3,0.4,0.3,0.5c0,0.3-0.2,0.4-0.7,0.4h-13.5v9.4h7.9
		c1.6-1.7,2-2.2,3.5-3.9c2.4,1.6,3,2.1,5.2,3.9c0.7,0.5,0.9,0.9,0.9,1.2c0,0.7-0.4,1.1-2.1,2.1c-0.2,1.5-0.2,1.5-0.6,5.6
		c-0.8,8-1.7,11.8-3.3,14.7c-1.8,3.2-5.4,5.2-9.2,5.2c-0.9,0-1.1-0.1-1.2-0.9c0-0.1-0.1-0.2-0.1-0.5c0-0.1-0.1-0.4-0.2-0.9
		c-0.4-2.1-1.4-3.2-3.8-4.1c-1.7-0.7-3.2-1.1-5.2-1.4v-1l10.5,0.9c0.6,0,1.1,0.1,1.4,0.1c1.1,0,1.9-0.6,2.3-2.1
		c1.1-3.3,1.9-9.5,2.2-17.2h-22.5v1.6c-0.1,0.6-0.2,0.9-0.8,1c-0.7,0.2-2.8,0.4-4.2,0.4c-1.8,0-2.3-0.3-2.4-1.2
		c0-1.6,0.1-2.9,0.1-3.7c0.1-3.8,0.1-6.2,0.1-7.1c0-3.9-0.4-27-0.4-28.6c3.6,1.5,4.7,2.1,8.1,3.9h18c2-2.4,2.6-3,4.7-5.1
		c2.9,2.4,3.8,3.1,6.6,5.4c0.2,0.3,0.4,0.5,0.4,0.6c0,0.3-0.3,0.5-0.7,0.5h-15v9.2H487.1z M468.8,46.6c4.4,4.4,5.9,7,5.9,10
		c0,2.9-2.2,5.5-4.7,5.5c-1,0-1.6-0.6-1.6-1.5c0-0.1,0.1-0.8,0.2-1.4c0.4-2.4,0.6-4.2,0.6-6.1c0-2.2-0.2-3.5-1-6L468.8,46.6z
		 M476.5,10.4h-7.3v9.2h7.3V10.4z M469.2,21.1v9.2h7.3v-9.2H469.2z M469.2,31.8v9.4h7.3v-9.4H469.2z M474.6,45.6
		c6,3.5,8.2,5.7,8.2,8.4c0,2.4-1.9,4.8-3.9,4.8c-1,0-1.5-0.6-1.5-1.9c0,0,0-0.4,0-0.6c0-0.2,0-0.4,0-0.6c0-3-0.9-5.7-3.2-9.7
		L474.6,45.6z M481.4,44.6c3.4,1.1,4.9,1.9,6.2,2.7c1.4,1.1,2.1,2.3,2.1,3.7c0,2.1-1.6,4.4-2.9,4.4c-0.7,0-1.1-0.5-1.3-1.8
		c-0.6-3.1-2-5.8-4.4-8.5L481.4,44.6z"/>
</g>
</svg>
