<?xml version="1.0" encoding="utf-8"?>
<!-- Generator: Adobe Illustrator 18.0.0, SVG Export Plug-In . SVG Version: 6.00 Build 0)  -->
<!DOCTYPE svg PUBLIC "-//W3C//DTD SVG 1.1//EN" "http://www.w3.org/Graphics/SVG/1.1/DTD/svg11.dtd" [
	<!ENTITY ns_flows "http://ns.adobe.com/Flows/1.0/">
	<!ENTITY ns_extend "http://ns.adobe.com/Extensibility/1.0/">
	<!ENTITY ns_ai "http://ns.adobe.com/AdobeIllustrator/10.0/">
	<!ENTITY ns_graphs "http://ns.adobe.com/Graphs/1.0/">
]>
<svg version="1.1" id="圖層_1" xmlns:x="&ns_extend;" xmlns:i="&ns_ai;" xmlns:graph="&ns_graphs;"
	 xmlns="http://www.w3.org/2000/svg" xmlns:xlink="http://www.w3.org/1999/xlink" xmlns:a="http://ns.adobe.com/AdobeSVGViewerExtensions/3.0/"
	 x="0px" y="0px" viewBox="0 0 334 72" style="enable-background:new 0 0 334 72;" xml:space="preserve">
<g>
	<path d="M37,63.8c3.1-8.4,4.3-12,6.2-19.5c2-7.9,3.6-15.6,4.6-22.2c3.8,1,9.6,2.9,11.2,3.6c1,0.4,1.5,0.8,1.5,1.2
		c0,0.7-1,1.2-3.3,1.5c-3.8,9.2-8.1,18.5-12.5,27c-1.2,2.4-1.7,3.2-3.7,6.5c-0.4,0.6-0.5,0.8-1.1,1.9h14.2c2.6-3,3.5-3.9,6-6.9
		c3.9,3,5.2,4,9.4,7.3c0.3,0.2,0.4,0.4,0.4,0.6c0,0.3-0.3,0.5-0.8,0.5H8.4c-1.6,0-2.8,0.1-5.1,0.5L2.5,63c1.7,0.4,4.9,0.8,6,0.8H37z
		 M52.7,17.9c2.5-2.8,3.2-3.7,5.6-6.5c3.8,2.8,5,3.7,8.9,6.8c0.3,0.3,0.4,0.6,0.4,0.8c0,0.3-0.3,0.5-0.7,0.5H11.5
		c-1,0-3.8,0.3-5.1,0.5l-0.8-2.8c1.8,0.4,4.7,0.8,5.9,0.8h19.4V8.8c0-2.3-0.1-3.3-0.4-5.7c1.5,0.1,2.7,0.2,3.5,0.3
		c2.3,0.1,3.8,0.3,3.9,0.3c3,0.1,4.7,0.8,4.7,1.7c0,0.7-0.9,1.2-3.1,2v10.5H52.7z M15.4,22.8c9.4,11.6,14.8,21.4,14.8,26.8
		c0,4.1-3.7,9.5-6.6,9.5c-0.8,0-1.4-0.5-1.7-1.4c-0.2-0.7-0.3-1.2-0.4-3.5c-0.9-12.9-2.9-22.1-6.8-31L15.4,22.8z"/>
	<path d="M101.8,54.5c4.5-0.9,9.4-2,11.8-2.6c-1.5-3.3-2.4-4.9-5.5-9.7l0.5-0.6c5.3,3.2,8.1,5.2,10.5,7.6c2.8,2.8,4.4,5.3,4.4,7.4
		c0,3.2-2.8,7-5.2,7c-0.5,0-1-0.3-1.2-0.7c-0.4-0.7-0.4-0.7-1.3-4.6c-0.2-1-0.6-2.3-1.4-4.5c-4.6,2.8-13.5,7.3-19.9,10
		c-0.4,2.3-0.6,3-1.3,3c-0.9,0-0.9,0-3.9-10.7c2.5-0.1,3.4-0.3,4.8-0.4v-40c0-3.4-0.2-8.6-0.4-11.6c3.9,1.9,5.1,2.5,8.9,4.6h11.1
		c1.6-1.7,2.1-2.3,3.8-4.2c2.8,1.9,3.6,2.5,6,4.4c0.7,0.5,0.9,0.8,0.9,1.2c0,0.7-0.7,1.2-2.6,2.1V26l0.1,7.4l0.1,4.8
		c0,1-0.3,1.5-1.1,1.7c-0.7,0.3-3.1,0.6-4.6,0.6c-1.6,0-2.1-0.4-2.1-1.6v-2h-12.2V54.5z M114,10.4h-12.2v11.5H114V10.4z M114,23.4
		h-12.2v12H114V23.4z M135.4,55.5c0,0.8,0,2.8,0.1,6c0.1,1.2,0.1,3.2,0.1,5.5c-0.1,1.2-0.2,1.7-0.8,2c-0.7,0.5-2.8,0.8-5.2,0.8
		c-2,0-2.5-0.4-2.5-2c0.3-10.8,0.4-17.6,0.4-33.1c0-19.5-0.1-24.2-0.5-30.1c4,1.7,5.2,2.3,8.9,4.4h8.4c1.7-1.8,2.2-2.4,4-4.4
		c2.7,1.9,3.5,2.5,5.8,4.4c0.7,0.7,1.1,1.1,1.1,1.5c0,0.7-0.7,1.3-2.5,2.2v21.7c0,1.4,0.1,7.3,0.2,17.9c-0.1,3.8-1.2,5.6-3.8,6.8
		c-1.6,0.7-4.1,1.3-5.9,1.3c-1.1,0-1.2-0.1-1.4-1.5c-0.4-4.1-2-5.7-6.6-6.5V55.5z M135.4,51c4.9,0.4,5.8,0.4,8.7,0.4
		c0.7-0.1,0.9-0.3,0.9-0.9V10.4h-9.6V51z"/>
	<path d="M187.4,25v42.7c0,0.9-0.1,1.3-0.6,1.6c-0.7,0.4-2.4,0.7-4.9,0.7c-2.2,0-2.8-0.4-2.8-1.5c0,0,0-0.1,0-0.2
		c0.4-11.7,0.5-21,0.5-45.3c0-10.3-0.1-15.1-0.4-20.8c3.9,1.6,5.2,2.2,8.9,4.1h10.2c1.7-1.9,2.2-2.5,3.9-4.3
		c2.5,1.7,3.3,2.3,5.8,4.2c0.6,0.5,0.8,0.8,0.8,1.1c0,0.6-0.4,0.9-2.3,1.9v5.4c0,4,0.1,6.7,0.2,11.6c0,0.7-0.1,1.1-0.6,1.3
		c-0.7,0.4-2.4,0.7-4.6,0.7c-2,0-2.5-0.2-2.5-1.5V25H187.4z M199.1,7.9h-11.7v6.7h11.7V7.9z M199.1,16.1h-11.7v7.4h11.7V16.1z
		 M220.8,45.4h1.5c1.6-2,2.1-2.5,3.9-4.4c2.5,2.2,3.3,2.8,5.7,5.2c0.2,0.2,0.3,0.4,0.3,0.4c0,0.2-0.2,0.4-0.7,0.4h-10.7v4.6
		c0,3.6,0,6.8,0.1,13.3c0,0.1,0,0.2,0,0.2c0,0.9-0.3,1.3-1.2,1.6c-0.6,0.1-2.8,0.4-4.1,0.4c-2,0-2.4-0.4-2.4-1.7l0.1-13.7V47h-7.1
		c-1,11-5,16.3-16.1,21.2l-0.5-0.7c6.6-5.9,8.7-10.5,9.4-20.5h-4.6c-1.5,0-3.1,0.1-4.3,0.4l-0.4-2.5c1.7,0.4,2.8,0.5,4.7,0.5h4.8
		c0.1-2.9,0.1-4.1,0.1-6.3c0-1.3,0-1.8-0.1-4.7h-3.5c-1.5,0-2.8,0.1-4,0.4l-0.4-2.5c1.5,0.4,2.9,0.5,4.4,0.5h23.7
		c1.7-2,2.3-2.6,4.1-4.6c2.9,2.2,3.7,2.8,6.3,5.2c0.2,0.3,0.3,0.4,0.3,0.6c0,0.2-0.2,0.4-0.6,0.4h-8.9V45.4z M206.6,34.4
		c0,1,0,2,0,3c0,2.8-0.1,5.2-0.2,8.1h7v-11H206.6z M221,25v1.4c-0.1,1.4-1.2,1.8-4.8,1.8c-2.5,0-2.9-0.2-3-1.6
		c0.2-7.2,0.2-7.8,0.2-13.7c0-6.7,0-7.3-0.3-10.6c3.7,1.6,4.9,2.2,8.4,4h10.7c1.7-1.9,2.3-2.5,3.9-4.4c2.6,1.7,3.5,2.3,6.1,4.1
		c0.7,0.6,1,0.9,1,1.3c0,0.6-0.1,0.7-2.3,2.3v31.6c0,8.1,0.1,12.1,0.2,21.4c-0.1,3.9-1.4,5.5-5.7,6.6c-1.3,0.4-3.2,0.7-4.1,0.7
		c-0.8,0-1-0.2-1-1.3c-0.1-1.7-0.7-3.5-1.5-4.3c-0.9-1-1.9-1.5-5.7-2.8v-0.8c5,0.3,6.2,0.4,7.8,0.4c0.3,0,0.7,0,1.3,0
		c0.9-0.1,1-0.2,1-1.8V25H221z M233.2,7.9H221v6.7h12.2V7.9z M233.2,16.1H221v7.4h12.2V16.1z"/>
	<path d="M282,12.9c6.3,2.6,8.4,4.2,8.4,6.3s-2.5,4.6-4.6,4.6c-0.4,0-0.6-0.1-0.9-0.4c-0.3,0.3-0.5,0.4-1.4,0.8v7.5h2
		c1.6-2.2,2-2.8,3.7-4.9c2.6,2.3,3.3,3.1,5.7,5.5c0.2,0.2,0.4,0.4,0.4,0.5c0,0.2-0.2,0.4-0.7,0.4h-11V38c6.6,2.3,10.2,5.2,10.2,8.1
		c0,2.8-1.9,5.7-3.8,5.7c-0.9,0-1.4-0.7-1.9-2.3c-1.7-6.2-2.5-7.8-4.5-10v8.1c0,7.9,0,7.9,0.1,20c-0.1,1.6-0.9,1.9-5.1,1.9
		c-2.5,0-2.8-0.1-2.8-1.5c0.4-11.3,0.4-11.3,0.4-14.8l0.1-6.5c-3.6,6-6.2,8.7-12.9,14.1l-0.7-0.6c4.4-5.8,7.3-11.3,10.5-19.3
		c1-2.5,1.5-3.9,2.4-7.6h-5.7c-1.8,0-2.9,0.1-4.6,0.5l-0.4-2.7c1.7,0.4,3.3,0.7,5,0.7h6.4v-4.5c0-2.3-0.1-3.5-0.4-6
		c6.1,0.6,7.6,0.8,8.4,1.1c-0.1-0.2-0.1-0.3-0.1-0.5c-0.7-3.7-1.5-6-3.3-8.9h-3.2c-4.2,5-8,8.4-13.8,12.1l-0.6-0.6
		c3.6-4.9,5.7-8.4,8-13.5c1.9-4.1,2.4-5.8,2.9-8.7c2.2,0.4,4.1,0.9,5.2,1.1c5.3,1.1,6,1.3,6,2c0,0.7-0.7,1-3.4,1.4
		c-1.4,2.2-1.9,3-3.1,4.6h8.6c1.9-2.3,2.5-3,4.4-5.1c2.7,2,2.7,2,6.9,5.5c2-4.4,2.7-6.3,3.2-9.4c9.9,1.8,11,2.2,11,3.1
		c0,0.7-1.1,1.2-3.5,1.4c-1.3,2.2-1.8,3-3,4.5h12.3c2.3-2.6,2.3-2.6,4.8-5.4c3.4,2.5,4.4,3.3,7.6,5.9c0.3,0.3,0.4,0.5,0.4,0.7
		c0,0.3-0.4,0.4-0.8,0.4h-22.1c6.2,2.5,8.5,4.3,8.5,6.7c0,2-2.5,4.4-4.6,4.4c-1,0-1.5-0.7-1.7-2.3c-0.4-3.3-1.3-5.6-3.1-8.8h-2.5
		c-3.8,4.2-7,7.1-12.4,10.7l-0.7-0.4c2.9-3.9,3.7-5.4,6.1-10.2H282z M317.6,25.7c1.8-1.8,2.4-2.4,4.1-4.1c2.5,1.9,3.3,2.4,5.7,4.3
		c0.7,0.5,0.9,0.8,0.9,1.1c0,0.6-0.5,1-2.5,2v23c0,3.6,0.1,8.1,0.3,15.1c-0.1,0.8-0.2,1.2-0.6,1.5c-0.7,0.4-2.4,0.7-4.7,0.7
		c-2.1,0-2.6-0.3-2.6-1.5v-3h-15v2.8c-0.1,1.7-0.9,2-5.3,2c-2.3,0-2.5-0.2-2.5-1.5c0.1-4.3,0.4-20.4,0.4-30.6
		c0-4.4-0.1-10.7-0.4-15.5c3.7,1.6,4.8,2,8.2,3.8H317.6z M318.2,37.3v-10h-15v10H318.2z M303.2,38.8v10.8h15V38.8H303.2z
		 M303.2,51.1v12.1h15V51.1H303.2z"/>
</g>
</svg>
