<?xml version="1.0" encoding="utf-8"?>
<!-- Generator: Adobe Illustrator 18.0.0, SVG Export Plug-In . SVG Version: 6.00 Build 0)  -->
<!DOCTYPE svg PUBLIC "-//W3C//DTD SVG 1.1//EN" "http://www.w3.org/Graphics/SVG/1.1/DTD/svg11.dtd">
<svg version="1.1" id="圖層_1" xmlns="http://www.w3.org/2000/svg" xmlns:xlink="http://www.w3.org/1999/xlink" x="0px" y="0px"
	 viewBox="0 0 114 72" enable-background="new 0 0 114 72" xml:space="preserve">
<g>
	<path d="M22.4,34.7c11.2,0.9,16.9,5.7,16.9,14.2c0,9.4-7.3,15.1-19.2,15.1c-10.4,0-18-4.8-18-11.4c0-2.8,2.1-4.4,5.5-4.4
		c1.8,0,3.2,0.5,3.7,1.4c0.4,0.6,0.4,0.7,0.6,4.1c0.1,2.1,1,4.6,2,5.9c1.2,1.5,3.5,2.5,6,2.5c6.1,0,9.5-4.9,9.5-13.4
		c0-5.1-1.4-8.7-4-10.6c-1.9-1.4-5.6-2.3-9.5-2.3h-2.2v-2.3h2.1c8.3-0.1,12.6-4.4,12.6-12.7c0-7.1-2.7-10.9-7.9-10.9
		c-2.7,0-4.7,1-5.8,3.1c-0.9,1.6-1.4,3.7-1.5,5.9c-0.1,2.4-0.2,2.9-0.9,3.7c-0.7,0.7-2.1,1.1-3.8,1.1c-3.4,0-5.1-1.2-5.1-3.6
		c0-6.8,7.6-12.1,17.3-12.1c5.2,0,10,1.5,13.1,4c2.5,2.1,4,5.5,4,9c0,7.2-5.6,12-15.4,13.2V34.7z"/>
	<path d="M92.4,12.5c1.8-1.8,2.4-2.3,4.4-4c3.2,2.4,4.1,3.2,7.1,5.8c0.4,0.4,0.5,0.6,0.5,0.9c0,0.3-0.1,0.6-0.4,0.8
		c-0.4,0.3-0.4,0.3-3.5,1c-8.2,10.9-15.3,17.6-25.3,24.2H100c1.8-1.8,2.4-2.4,4.5-4.4c3,2.1,4,2.7,6.8,4.9c0.4,0.4,0.5,0.6,0.5,1
		c0,0.9-1,1.5-3.2,2.4c0.1,9.3,0.1,12.9,0.2,16.4c0.1,4.4,0.1,4.4,0.1,6.1c-0.1,1-0.4,1.5-1.2,1.7c-0.8,0.2-3.4,0.4-5.4,0.4
		c-1.5,0-1.9-0.3-2-1.3v-3.3H74v3.2c-0.1,0.8-0.4,1.2-1.5,1.4c-0.8,0.2-2.9,0.4-4.4,0.4c-1.9,0-2.4-0.3-2.5-1.4
		c0.4-6,0.6-12.9,0.6-22.3c-6.1,3.1-11.7,5.1-19.4,7l-0.3-0.7c9.9-4.9,16.4-8.9,23.2-14.2c5.8-4.6,11.3-10,16.1-15.6
		c2.5-3,3.7-4.7,6.3-8.8h-17c-3.2,3.5-3.7,3.9-7.1,6.9c0.8,0.4,0.8,0.4,4.8,2.2c3.2,1.4,4.7,3.1,4.7,5.1c0,2.8-2.6,5.8-5,5.8
		c-1,0-1.3-0.4-1.7-2.7c-0.7-4.6-1.8-7.1-3.7-9.6c-5.9,5-9.6,7.3-18.5,11.2l-0.4-0.7c6-4.7,10.9-9.5,15.6-15.5
		c5-6.4,7.6-10.7,8.7-14.8C75,2.7,76.9,3.2,78,3.5c5.7,1.5,6.5,1.8,6.5,2.6c0,0.8-0.5,1-3.7,1.5c-2.2,2.6-2.9,3.5-4.3,5H92.4z
		 M74,63.5h26.4V42.7H74V63.5z"/>
</g>
</svg>
