<?xml version="1.0" encoding="utf-8"?>
<!-- Generator: Adobe Illustrator 18.0.0, SVG Export Plug-In . SVG Version: 6.00 Build 0)  -->
<!DOCTYPE svg PUBLIC "-//W3C//DTD SVG 1.1//EN" "http://www.w3.org/Graphics/SVG/1.1/DTD/svg11.dtd" [
	<!ENTITY ns_flows "http://ns.adobe.com/Flows/1.0/">
	<!ENTITY ns_extend "http://ns.adobe.com/Extensibility/1.0/">
	<!ENTITY ns_ai "http://ns.adobe.com/AdobeIllustrator/10.0/">
	<!ENTITY ns_graphs "http://ns.adobe.com/Graphs/1.0/">
]>
<svg version="1.1" id="圖層_1" xmlns:x="&ns_extend;" xmlns:i="&ns_ai;" xmlns:graph="&ns_graphs;"
	 xmlns="http://www.w3.org/2000/svg" xmlns:xlink="http://www.w3.org/1999/xlink" xmlns:a="http://ns.adobe.com/AdobeSVGViewerExtensions/3.0/"
	 x="0px" y="0px" viewBox="0 0 916 72" style="enable-background:new 0 0 916 72;" xml:space="preserve">
<g>
	<path d="M10.2,53.5c0,0.1,0,0.2,0,0.2c0,1.6-1,2-5,2c-2.5,0-3-0.2-3-1.4c0,0,0-0.1,0-0.2c0.3-12.2,0.4-15.9,0.4-28.9
		c0-8.8-0.1-13.7-0.4-19.6C6,7.4,7.1,8,10.6,10.1h8.3c1.6-1.8,2.1-2.4,3.8-4.3c2.6,1.8,3.4,2.5,5.8,4.3c0.6,0.5,0.9,0.8,0.9,1.1
		c0,0.6-0.6,1.1-2.5,2.1c0,29.2,0.1,31.7,0.2,38.4c0,0.6-0.1,0.9-0.2,1.1c-0.5,0.6-2.1,0.9-4.8,0.9c-2.4,0-2.7-0.1-2.8-1.3v-3.8h-9
		V53.5z M19.2,11.6h-9v16.1h9V11.6z M10.2,29.2v18h9v-18H10.2z M40.1,42.6c-1.1,6.2-2.9,10.5-6.3,14.8c-3.9,4.8-8.4,8.1-16.3,12
		L17,68.7c5.1-4.1,7.4-6.5,9.7-10.1c3.6-5.3,5.3-10.6,6-18.6c0.4-4.6,0.6-10.7,0.6-19.8c0-7.8-0.1-10.7-0.5-16.1
		c4.1,1.7,5.3,2.3,9.2,4.4h12c1.6-1.8,2.2-2.4,3.9-4.3c2.7,1.9,3.5,2.6,6,4.4c0.7,0.6,1,0.9,1,1.3c0,0.6-0.6,1.2-2.6,2.3v33.3
		l0.2,14.8c-0.1,2.5-0.1,2.5-0.2,3.1c-0.6,2.6-2.6,4.2-6.2,5c-1,0.3-3.3,0.6-4.1,0.6c-1,0-1,0-1.4-2c-0.3-1.5-1.4-3.1-3-3.9
		c-1.6-0.8-2.8-1.2-7.3-2.3l0.1-0.9c6.4,0.4,8.1,0.6,12.6,0.7c0.1,0,0.3,0,0.4,0c0.9,0,1.1-0.3,1.1-1.4V42.6H40.1z M41.1,26
		c-0.1,6.4-0.4,12.2-0.8,15.2h14.2V26H41.1z M54.5,24.5V10H41.2v4.7c0,0.5,0,2.4-0.1,4.9c0,1.1-0.1,2.8-0.1,4.9H54.5z"/>
	<path d="M108.2,31.1c1.9,6.7,3.3,9.6,6.5,13.7c2.8,3.6,6.4,6.6,10.5,9c4.2,2.4,7.7,3.6,14.6,5.3l-0.1,0.7c-3.8,1.5-6,3.8-7.2,7.5
		c-0.1,0.6-0.4,0.9-0.8,0.9c-0.9,0-3.6-1.6-6.8-4.1c-7.5-5.9-12.5-13.2-15.4-22.1c-1.1-3.1-1.6-5.3-2.3-10.1
		c-1.5,10.8-5.5,18.8-12.7,25.5c-3.6,3.3-7.9,6.1-12.4,8.2c-2.6,1.2-4.6,1.9-8.9,3.2l-0.4-0.8c7.5-4.1,12.7-8.3,16.9-13.7
		c5.1-6.5,8-13.9,9.2-23H83.1c-2.4,0-4.9,0.1-6.7,0.4l-0.4-2.6c2.3,0.5,4.2,0.7,7.1,0.7H99c0.4-4.8,0.6-8,0.6-17.9H80.4
		c-2.3,0-4.4,0.1-6.4,0.4l-0.4-2.6c2.4,0.4,4.6,0.6,7,0.6H124c2.3-2.8,3.1-3.7,5.5-6.5c4,2.9,5.1,3.8,9,6.9c0.3,0.3,0.4,0.5,0.4,0.6
		c0,0.3-0.3,0.4-0.9,0.4h-29.9c-0.2,10.2-0.4,13.4-0.8,17.9h14.4c2.3-2.8,3.1-3.6,5.5-6.3c3.8,2.8,5,3.7,8.6,6.8
		c0.3,0.3,0.4,0.5,0.4,0.6c0,0.3-0.3,0.4-0.9,0.4H108.2z"/>
	<path d="M161.7,20.2l2.8-4.1c1.9,1.9,2.5,2.6,4.1,4.6c0.1,0.2,0.2,0.4,0.2,0.6c0,0.3-0.3,0.4-0.8,0.4h-7v12.9
		c3-0.9,4.1-1.3,7.6-2.8l0.3,0.8c-2.5,2.1-3.3,2.6-7.9,5.8v13.2c0,0.5,0,4.4,0.1,9.7c0,2.3-0.1,3.5-0.6,4.5c-0.9,2-3,3.3-6.5,3.9
		c-0.8,0.1-1.5,0.2-1.9,0.2c-0.9,0-1.1-0.2-1.1-1.4c-0.1-3.8-1.4-5.1-6.8-6.5l0.1-0.9c3.1,0.2,5.3,0.3,7.1,0.3c0.4,0,0.7,0,1.4,0
		c0.8-0.1,1-0.3,1-0.9V43c-1.1,0.7-1.1,0.7-3.9,2.1c-0.2,2.1-0.5,2.8-1.2,2.8c-0.8,0-0.8,0-3.4-9.5c1.8-0.2,5-0.9,8.5-1.8V21.7h-3.5
		c-1.6,0-2.8,0.1-4.1,0.4l-0.4-2.4c2,0.4,2.9,0.6,4.4,0.6h3.5v-7c0-4.1-0.1-6.1-0.4-9c2.3,0.2,4.1,0.4,5.2,0.5
		c4.3,0.4,5.7,0.8,5.7,1.6c0,0.6-0.8,1.1-3.1,1.7v12.2H161.7z M160.4,69c7.1-5.7,10.2-9.1,12.7-14.4c1.8-3.9,3.1-8.7,3.6-14.6
		c-1.6,1.8-2.3,2.6-8.2,7.7c-0.1,2.3-0.4,3.2-1.1,3.2c-0.7,0-1.4-1.6-4.1-9.2c4-0.7,9.2-2.4,13.6-4.5c0.2-4.2,0.3-6.4,0.3-12.4
		c0-10.2-0.1-16.4-0.5-20.1c9.9,1,10.6,1.1,10.6,2.1c0,0.6-0.7,1.1-2.7,1.8c-0.1,22.1-0.1,22.1-0.3,26c-0.5,9.2-1.5,14.1-3.9,19.1
		c-2.3,4.8-6,8.6-11.4,12c-2.1,1.3-3.8,2.2-7.9,4.1L160.4,69z M167.5,13.7c2.7,2.4,3.9,3.8,5.5,5.9c1.9,2.7,3,5.2,3,7.2
		c0,3-2.3,6.3-4.4,6.3c-1,0-1.5-1-1.5-2.9c-0.1-6.8-0.9-10.8-3.2-16.1L167.5,13.7z M196.2,28c3.6-5.2,5.9-9.9,7.5-14.9
		c3.3,2.2,4.1,2.8,7.3,5.3c0.8,0.6,1.1,1,1.1,1.4s-0.5,0.7-1.4,0.7c-0.4,0-1.1,0-1.8-0.1c-5.5,4.8-6.7,5.7-12.6,9.5v4.1
		c9.8,4.8,12.9,7.3,12.9,10.5c0,2.9-2.1,6.1-4.1,6.1c-0.9,0-1.6-0.8-2.1-2.8c-1.5-5.1-3.4-8.7-6.6-12.4v24c0,1,0.3,1.2,1.7,1.2
		c0.3,0,1.1,0,2.2,0.1c0.2,0,0.5,0,0.6,0c2.6,0,3.6-0.3,4.3-1.3c0.9-1.2,1.8-3.7,4.1-10.6l0.6,0.1l-0.4,8.9c0,0.4,0,0.6,0,0.6
		c0,0.8,0.2,1.1,0.9,1.4c1.7,0.8,2.3,1.5,2.3,3.1c0,1.8-1,3.1-3,3.8c-1.8,0.6-4.1,0.9-10.5,0.9c-6.3,0-7.4-0.1-8.5-1.1
		c-1-0.9-1.4-2-1.4-4.4c0.1-9.8,0.1-14.7,0.1-16.8V14.4c0-4.9-0.1-6.5-0.4-9.6c10,1.1,10.3,1.1,10.3,2.1c0,0.6-0.6,1.1-2.9,1.8V28z"
		/>
	<path d="M238.6,4.8c3.6,1.6,4.8,2.2,8.2,4.1h26c1.7-1.8,2.2-2.4,4-4.3c2.7,1.8,3.5,2.5,5.8,4.2c0.7,0.6,1,0.9,1,1.3
		c0,0.6-0.6,1.1-2.6,2.1c0.1,38.2,0.1,38.2,0.4,54.1c-0.1,1-0.3,1.4-1,1.7c-0.6,0.3-3.1,0.6-4.6,0.6c-1.6,0-2.1-0.3-2.2-1.3v-3.6
		h-27.2v2.8c0,0.7-0.1,1.1-0.6,1.4c-0.7,0.4-2.6,0.7-4.9,0.7c-1.8,0-2.2-0.3-2.2-1.6c0.3-15.6,0.4-22.6,0.4-34.3
		c0-9-0.1-21.9-0.2-24.8c-0.6,0.2-0.9,0.3-1.8,0.4c-2.6,7.3-4.6,11.6-7.5,16.5c4.8,0.9,5.8,1.1,5.8,1.9c0,0.6-0.7,1.1-2.6,1.6v15.1
		c0,12.5,0,12.5,0.1,23.3c-0.1,0.6-0.3,0.9-0.6,1.2c-0.7,0.4-2.4,0.7-4.4,0.7c-2.3,0-2.8-0.3-2.8-1.6v-0.1c0.3-9.6,0.5-18,0.5-23.1
		V31.4c-2.6,3.3-4,5-7.8,8.7l-0.6-0.5c3.7-6.6,6-12,8.3-19.4c2.1-6.5,3.1-11.4,3.8-16.8c5.3,1.4,7,1.9,9.6,2.8L238.6,4.8z
		 M273.5,10.4h-27.2v51.9h27.2V10.4z M263,36h1.7c1.2-1.2,1.6-1.6,2.8-2.8c1.7,1.4,2.2,1.8,3.7,3.1c0.6,0.6,0.8,0.9,0.8,1.1
		c0,0.4-0.6,0.9-2,1.6c0,10,0.1,11,0.2,17.1c0,0.1,0.1,0.2,0.1,0.3c0,1.3-1.3,1.8-4.8,1.8c-1.4,0-1.7-0.2-1.8-1.2v-3.5h-7.5v3.1
		c-0.1,0.7-0.1,1-0.4,1.2c-0.5,0.4-2.1,0.7-4.3,0.7c-1.4,0-1.8-0.3-1.8-1.4c0-3.8,0.1-4.7,0.1-10c0-7.9-0.1-9.5-0.3-14.1
		c2.4,1.2,3.1,1.6,5.3,3.1h1.4V24.8h-3.3c-2.3,0-3.4,0.1-5.4,0.4l-0.4-2.6c2.2,0.5,3.8,0.6,5.8,0.6h3.3v-5c0-2.3-0.1-3.3-0.4-5.6
		c1.9,0.2,3.3,0.4,4.3,0.4c4.3,0.4,5.4,0.6,5.4,1.4c0,0.6-0.6,0.9-2.6,1.8v7h1.8c1.1-1.4,2.2-2.8,3.3-4.1c2.2,2,2.8,2.6,4.8,4.6
		c0.3,0.4,0.4,0.5,0.4,0.6c0,0.2-0.4,0.4-0.7,0.4H263V36z M256.2,51.9h7.5V37.4h-7.5V51.9z"/>
	<path d="M311.2,38.9V57c4.6-0.6,12-2,16.1-3l0.3,0.7c-8.3,4.8-18.1,9.1-28.2,12.4c-0.3,2.2-0.6,2.9-1.3,2.9c-0.9,0-1.4-1.2-4.1-11
		c3.1-0.1,3.1-0.1,9.4-0.9V22.6c-0.1-11-0.1-11-0.2-13c3.9,1.7,5.1,2.3,8.9,4.4h8.2V9.9c0-1.2-0.1-3.1-0.4-5.6
		c9.1,0.6,11.2,0.9,11.2,2c0,0.7-0.8,1.2-3,1.9V14h8.5c1.6-1.8,2.1-2.4,3.9-4.2c2.9,1.8,3.7,2.5,6.3,4.6c0.6,0.4,0.7,0.7,0.7,1
		c0,0.6-0.6,1.1-2.7,2.3v6c0,5.8,0.1,12,0.2,16.1l-0.1,0.6c0.4-0.5,0.4-0.5,1.7-2.1c7.5,5,8.6,5.8,8.6,6.5c0,0.4-0.6,0.8-1.4,0.8
		c-0.1,0-0.1,0-2.3-0.1c-6.8,3-12.4,5.1-18.4,7c5.5,4,12.6,6.2,24.6,7.6l-0.1,0.6c-4,1.8-5.8,3.8-7,7.8c-0.1,0.4-0.4,0.6-0.8,0.6
		c-0.9,0-4.3-1.4-7.5-2.9c-6.5-3.2-11.9-8.1-15.6-14.1c-2.6-4.2-3.9-7.3-5.3-12.9H311.2z M337.2,25.2v-9.7h-26v9.7H337.2z
		 M311.2,26.7v10.7h26V26.7H311.2z M322.8,38.9c2.3,5.5,4.3,8.4,8.8,12.2c4.5-2.8,9.3-6.8,12.6-10c-1.6,0.5-3.3,0.8-5.3,0.8
		c-1.2,0-1.6-0.4-1.8-1.3v-1.6H322.8z"/>
	<path d="M401.2,33.8c1.4,5.3,3.2,8.7,6.6,13c4.4-4.7,7-8.3,8.7-12.2c7.8,4.1,9.5,5.1,9.5,6c0,0.5-0.6,0.8-1.4,0.8
		c-0.5,0-1.4-0.1-2.3-0.2c-5.3,3.4-7.9,4.8-13.2,7c2.2,2.4,4.3,4.1,7.3,5.8c4.9,3,9,4.5,15.4,5.8l-0.1,0.8c-2.6,0.9-4,2.1-5.4,4.5
		c-0.5,0.8-0.6,1.1-1.1,2.4c-0.1,0.5-0.4,0.7-0.8,0.7c-1.4,0-7.3-3.9-10.7-7c-6.2-5.8-10.5-13-12.7-21.6c-0.5-1.9-0.7-3-1.1-5.8
		h-7.5v23.6c5.9-0.8,8.6-1.2,14.1-2.3l0.2,0.9c-7.2,3.8-14.6,7-26.2,11c-0.4,2.1-0.8,2.8-1.4,2.8c-0.9,0-1.1-0.6-3.7-10.7
		c3.3,0,3.3,0,9.5-0.7V33.8h-6.8c-0.4,7-1,11.1-2.3,15.6c-2.1,7.7-5.5,13.6-11.7,20.3l-0.7-0.5c5.6-11.9,7.1-22.4,7.1-50.9
		c0-7.5-0.1-8.6-0.3-12.7c4.2,1.8,5.4,2.5,9.3,4.6h35.8c2.3-2.5,3.1-3.3,5.5-5.5c3.5,2.4,4.6,3.3,8,6c0.2,0.3,0.4,0.5,0.4,0.6
		c0,0.2-0.3,0.4-0.7,0.4h-49.8c-0.3,15.6-0.3,16.4-0.5,20.7h37.8c2.7-2.9,2.7-2.9,5.1-5.6c3.4,2.6,4.5,3.3,7.8,6
		c0.3,0.3,0.4,0.5,0.4,0.6c0,0.3-0.3,0.4-0.9,0.4H401.2z M381.1,20.4c1.9,0.5,3,0.6,5.1,0.6h24.9c2.2-2.4,2.8-3.2,5-5.5
		c3.4,2.5,4.4,3.3,7.7,6c0.2,0.3,0.4,0.4,0.4,0.6c0,0.3-0.3,0.4-0.8,0.4h-37.4c-1.4,0-2.4,0.1-4.3,0.4L381.1,20.4z"/>
	<path d="M488.7,17l5.9-6.4c3.6,2.8,4.7,3.7,8.3,6.8c0.4,0.3,0.5,0.5,0.5,0.6c0,0.3-0.4,0.5-0.9,0.5h-28.2v14.1H486l5.7-6
		c3.5,2.7,4.6,3.6,7.9,6.3c0.4,0.4,0.5,0.6,0.5,0.7c0,0.4-0.4,0.5-0.9,0.5H448c-1.7,0-3,0.1-4.8,0.6l-0.5-2.7c2,0.5,3.4,0.6,5.3,0.6
		h17.9V18.5h-21.8c-1.8,0-3.4,0.1-4.9,0.5l-0.4-2.6c1.9,0.4,3.2,0.6,5.3,0.6h21.8v-5.7c0-2.8-0.1-4.2-0.4-7.2
		c11.5,0.9,11.8,1,11.8,2c0,0.6-0.7,1.1-3.1,1.9v9H488.7z M456.2,67.4c-0.1,1.5-0.7,1.7-5.3,1.7c-2.6,0-3.1-0.2-3.1-1.6
		c0.2-6.5,0.3-9.3,0.3-15.9c0-7.7-0.1-8.7-0.3-13.2c4.2,1.8,5.5,2.5,9.2,4.6h26.5c1.6-1.6,3-3.1,4.3-4.6l6.1,4.2
		c0.8,0.6,1.1,0.9,1.1,1.3c0,0.7-0.6,1.1-2.7,2.3c0.1,15.4,0.1,15.4,0.3,20.7c0,1.7-0.8,2-5.6,2c-2.4,0-2.8-0.2-2.8-1.5v-3.1h-28
		V67.4z M456.1,63h28.1V44.6h-28.1V63z"/>
	<path d="M520.2,59.3c0,1-0.2,1.4-0.9,1.6c-0.6,0.2-2.4,0.4-4.1,0.4c-2.5,0-2.8-0.2-2.8-1.4c0.3-10.2,0.4-20.1,0.4-34.3
		c0-7.3-0.1-11.9-0.4-19.4c3.8,1.8,4.9,2.4,8.4,4.5h5.7c1.6-1.8,2.1-2.5,3.8-4.3c2.4,1.8,3.2,2.4,5.5,4.3c0.6,0.6,0.9,0.9,0.9,1.2
		c0,0.6-0.7,1.2-2.5,2.1v19.3c0,8.5,0,8.5,0.2,23.7c0,0.6-0.1,1-0.3,1.2c-0.5,0.6-2.1,0.9-4.7,0.9c-2.3,0-2.6-0.1-2.6-1.4v-4.3h-6.6
		V59.3z M526.9,12.2h-6.6v18.6h6.6V12.2z M520.2,32.2v19.6h6.6V32.2H520.2z M567.2,38.1h1.2c1.5-2,2-2.6,3.5-4.6
		c2.5,2.1,3.2,2.8,5.3,5c0.3,0.3,0.4,0.5,0.4,0.6c0,0.3-0.3,0.4-0.8,0.4h-9.6v10.6c0,1.4,0.1,4.7,0.1,10c-0.1,3.9-0.6,5.4-2.3,6.7
		c-1.6,1.1-3,1.6-5.9,1.9c-1.1,0.1-1.6,0.2-2.1,0.2c-0.8,0-1-0.2-1.1-1.3c-0.7-3.6-2.8-4.9-11-6.5v-1.1c6.2,0.4,8.1,0.5,13.1,0.6
		c1.1-0.1,1.4-0.4,1.4-1.3v-20h-19.1c-1.8,0-2.6,0.1-4.1,0.5l-0.6-2.6c1.7,0.4,3.1,0.6,4.8,0.6h19v-9.3h-19.6
		c-1.6,0-2.8,0.1-4.1,0.5l-0.5-2.6c1.6,0.4,2.9,0.6,4.6,0.6h9.3V16.2h-8.4c-1.6,0-2.7,0.1-4.1,0.5l-0.6-2.6c1.6,0.5,2.8,0.6,4.7,0.6
		h8.3V9.9c0-1.1,0-1.3-0.4-6.2C559.4,4.8,560,4.9,560,5.9c0,0.6-0.7,1-3.1,1.8v7h5.8c2-2.6,2.6-3.3,4.7-5.8c3.2,2.6,4.2,3.4,7.1,6.2
		c0.3,0.3,0.4,0.5,0.4,0.6c0,0.3-0.3,0.4-0.7,0.4h-17.3v11.1h7.8c2.1-2.4,2.7-3.2,4.9-5.6c3.3,2.5,4.3,3.3,7.4,6
		c0.3,0.3,0.4,0.5,0.4,0.6c0,0.3-0.4,0.4-0.9,0.4h-9.5V38.1z M540.1,41.9c5.5,1.9,7,2.6,9.5,4.3c2.3,1.6,3.4,3.1,3.4,4.8
		c0,3-2.4,6-4.8,6c-1.1,0-1.6-0.6-2.1-2.4c-0.4-1.6-1.8-4.8-2.7-6.6c-1-1.9-1.9-3.2-3.9-5.5L540.1,41.9z"/>
	<path d="M640.1,45.2c1.8-2.5,2.4-3.3,4.3-5.8c2.8,2.7,3.6,3.6,6.2,6.4c0.1,0.2,0.3,0.4,0.3,0.6c0,0.2-0.2,0.4-0.8,0.4h-10.2v3.3
		c0,0.8,0,2.9,0.1,6.2c0,0.9,0,2.4,0.1,4.3c0,0.3,0,0.6,0,0.7c0,4.3-1.5,6-5.9,7.3c-1.6,0.4-3.9,0.7-5.1,0.7c-0.6,0-0.9-0.3-1-1.2
		c-0.3-1.8-1.1-3.2-2.7-4.3c-1.5-1-3.3-1.6-8.3-2.8V60c1.4,0.1,2.9,0.2,3.6,0.2c5.5,0.4,6.3,0.4,10,0.4c0.9,0,1.1-0.2,1.1-1.1V46.7
		h-31.9v20.4c-0.1,0.7-0.1,1.1-0.5,1.4c-0.6,0.5-2.4,0.8-5,0.8c-2,0-2.6-0.4-2.6-1.5c0,0,0-0.1,0-0.2c0.1-5.9,0.1-5.9,0.3-20.8h-3.9
		c-2.1,0-4,0.1-5.7,0.4l-0.5-2.5c2.3,0.5,3.8,0.6,6.4,0.6h3.7c0-0.8,0-1.4,0-1.8c0-0.4,0-1.1,0-2.2c0.1-1.7,0.1-3.8,0.1-5.7
		c0-10.1-0.1-15.5-0.4-20.1c4,1.8,5.1,2.4,8.9,4.6h11.2V9.5h-21.1c-2.6,0-4.8,0.1-7,0.4l-0.4-2.6c2.6,0.5,4.7,0.7,7.5,0.7H635
		c2.3-2.6,3-3.4,5.4-6c3.8,2.6,4.9,3.5,8.6,6.3c0.3,0.4,0.4,0.5,0.4,0.7s-0.4,0.4-0.8,0.4h-29.3v10.5h11.8c1.7-1.9,2.3-2.5,4.1-4.3
		c2.8,1.8,3.6,2.4,6.1,4.3c0.6,0.5,0.9,0.8,0.9,1.1c0,0.5-0.3,0.8-2.3,2.3v22H640.1z M611.7,21.4h-11.8v10.7h11.8V21.4z M611.7,33.7
		h-11.8v11.5h11.8V33.7z M631.8,21.4h-12.4v10.7h12.4V21.4z M631.8,33.7h-12.4v11.5h12.4V33.7z"/>
	<path d="M655.6,17.4c1.6,0.4,3,0.6,4.2,0.6h10.4c2-2.3,2.6-3,4.8-5.3c3,2.3,3.9,3.1,6.8,5.6c0.3,0.4,0.4,0.5,0.4,0.7
		c0,0.2-0.3,0.4-0.7,0.4h-21.7c-1.6,0-2.3,0.1-3.7,0.4L655.6,17.4z M657.8,26.6c1.4,0.4,2.7,0.6,3.9,0.6h8.5
		c1.5-1.6,2.8-3.1,4.2-4.7c2.8,2.1,3.7,2.8,6.4,5c0.4,0.4,0.5,0.6,0.5,0.8c0,0.3-0.3,0.4-0.8,0.4h-18.8c-1.4,0-2.2,0.1-3.6,0.4
		L657.8,26.6z M657.9,35.8c1.6,0.4,2.6,0.5,3.9,0.5h8.5c1.8-2.1,2.3-2.8,4.3-4.8c2.8,2.2,3.7,2.9,6.3,5.3c0.3,0.3,0.4,0.4,0.4,0.6
		c0,0.2-0.2,0.4-0.6,0.4h-18.9c-1.1,0-2,0.1-3.6,0.4L657.9,35.8z M658,8.5c1.4,0.3,2.5,0.4,4,0.4h8.2c1.8-2.2,2.3-2.8,4.1-5
		c2.8,2.2,3.7,2.9,6.4,5.3c0.3,0.3,0.4,0.5,0.4,0.7s-0.3,0.4-0.7,0.4h-18.5c-1.5,0-2.2,0.1-3.6,0.4L658,8.5z M665.5,67.3
		c0,0.8-0.1,1-0.4,1.3c-0.5,0.4-2.1,0.6-4.4,0.6c-1.8,0-2.3-0.4-2.3-1.6c0.1-4,0.1-7.8,0.1-15.3c0-5.4-0.1-7.5-0.4-10.7
		c3.6,1.8,4.6,2.3,8,4.4h4.6c1.5-1.7,2-2.2,3.6-3.9c2.5,1.7,3.3,2.3,5.6,4.1c0.4,0.4,0.6,0.6,0.6,0.9c0,0.6-0.6,1.1-2.4,2v4.1
		c0,5.3,0.1,9,0.3,12.7c0,0.8-0.1,1.1-0.4,1.4c-0.5,0.5-2.3,0.8-4.8,0.8c-1.6,0-2.1-0.3-2.1-1.4v-2.3h-5.8V67.3z M665.6,63h5.7V47.5
		h-5.7V63z M701.3,32.6h-6.4v20.5c4.6-1,5.6-1.3,9.2-2.3l0.2,0.8c-6.4,4.2-12.6,7.7-18.8,10.7c-0.3,2.1-0.7,3-1.4,3
		c-0.8,0-1.2-1-3.7-9.9c2.7-0.1,4.3-0.4,7.3-0.9V32.6h-3.2c-1.5,0-2.2,0.1-3.5,0.4l-0.4-2.4c1.6,0.4,2.8,0.6,4,0.6h7.7l3.8-4.6
		c2.6,2.2,3.3,2.8,5.5,5.1l0.1,0.2c-0.4-4.3-0.6-7.5-0.9-12.4h-13.4c-1.6,0-2.3,0.1-3.8,0.4l-0.5-2.5c1.5,0.4,2.9,0.6,4.3,0.6h13.4
		c-0.1-2.3-0.1-3.7-0.1-6c-0.1-4.5-0.1-5.3-0.4-7.5c2.1,0.2,3.6,0.4,4.6,0.5c4.4,0.4,5.7,0.7,5.7,1.5c0,0.5-0.5,0.9-2.2,1.6
		c-0.1,6.1-0.1,6.1-0.1,7.8v2.1h4.6c1.1-1.3,1.6-1.8,2.3-2.5c-1-0.5-1.3-0.9-1.6-2.4c-0.6-2.9-1.1-4.2-2.4-5.8l0.4-0.6
		c2.9,0.5,4.2,0.9,5.4,1.4c1.8,0.8,2.8,1.8,2.8,3c0,1.1-0.5,2-1.8,3.3c2,1.6,2.6,2.1,4.8,4c0.2,0.2,0.4,0.5,0.4,0.6
		c0,0.2-0.3,0.4-0.7,0.4h-13.9c0.1,6.3,0.4,11,1,15.2c0.8,5.9,2.3,11.4,4.2,15.4c0.9,1.9,1.6,3.1,3.4,5.3c1.1-2.6,3-7.5,4.8-12.4
		l0.7,0.1l-1.2,13.2c-0.1,0.6-0.1,1.4-0.1,1.6c0,1,0.2,1.6,0.9,2.5c1.1,1.5,1.3,2,1.3,3.2c0,2.2-1.5,3.8-3.6,3.8
		c-3.4,0-7.5-4-11.2-10.9c-3.4-6.5-5.5-13.8-6.6-24.1L701.3,32.6z"/>
	<path d="M729.8,34.9c2.4,0.5,5.4,0.8,9,0.8h40.5c2.4-3.1,3.2-4.1,5.8-7.2c4.3,3.3,5.5,4.3,9.6,7.7c0.3,0.3,0.4,0.4,0.4,0.6
		c0,0.3-0.3,0.4-0.9,0.4h-55.4c-3.3,0-5.9,0.1-8.5,0.5L729.8,34.9z"/>
	<path d="M830,37c-6.3,4.9-8.3,6.1-22,13.8c-0.3,2.4-0.6,3.1-1.3,3.1c-0.9,0-0.9-0.1-4.4-10.9c3.3-0.3,5.3-0.7,11.5-2.2
		c6.9-1.6,10.5-2.7,15.9-4.6L830,37z M804.9,9.9c6,1.5,9,2.5,11.5,4c2.9,1.7,3.8,3.1,3.8,5.3c0,3.3-2.3,6.7-4.4,6.7
		c-0.9,0-1.2-0.4-2.8-3.7c-2.4-5-4.4-7.8-8.7-11.7L804.9,9.9z M868.3,58.5c-2.2,0.9-3.1,1.6-4.2,3.6c-0.8,1.3-1.6,3-1.9,4.1
		c-0.3,0.8-0.5,1.1-0.9,1.1c-0.2,0-0.8-0.3-1.8-0.9c-4.6-2.6-10-9.1-12.6-15.5c-2.3-5.8-3.6-11.1-4.3-19c-0.6,8.3-1.5,12.4-3.7,16.9
		c-5,10.4-14.6,16.4-31.1,19.6l-0.3-0.9c5.9-2.3,9.1-4,12.7-6.6c6.4-4.8,10.8-10.9,12.9-17.9c1.1-3.8,2-10,2-14.4
		c0-1.3-0.1-1.9-0.2-3.7c9.3,0.9,9.7,0.9,10.6,1.2c0.6,0.1,0.9,0.5,0.9,0.9c0,0.6-0.7,1.1-2.8,1.9c0.3,5.1,1.1,8.6,3.3,13
		c2.6,5.5,6.5,9.6,11.9,12.5c3.1,1.7,5.4,2.6,9.5,3.4V58.5z M833.3,20.3c-4.5,7.2-8.3,11.4-13.9,15.9l-0.6-0.6
		c3.8-6.1,6.4-11.3,8.5-17.3c2.1-5.8,3.1-9.9,3.3-13.9c12.2,2.9,12.2,2.9,12.2,3.8c0,0.8-0.9,1.1-3.8,1.4c-1.8,4.1-2.9,6.1-4.8,9.2
		h20.9c1.8-2.1,2.3-2.7,4.2-4.6c3.3,2.6,4.3,3.5,7.4,6.3c0.6,0.6,0.9,1.1,0.9,1.4c0,0.7-0.7,1-2.3,1h-1.6
		c-6.5,6.7-8.1,8.2-12.7,11.9l-0.7-0.5c2.5-5.5,3.3-7.8,5.2-14.1H833.3z"/>
	<path d="M906.4,47.4c-0.4-11.4-1.1-17.1-4.1-31.2c-0.2-1.1-0.4-2.6-0.4-3.3c0-2.8,1.9-4.1,6-4.1c4.1,0,5.9,1.3,5.9,4.1
		c0,1.5,0,1.5-1.5,8.6c-1.7,8.1-2.7,16.5-3,25.9H906.4z M913.7,58.3c0,3.3-2.6,5.9-5.9,5.9s-5.9-2.6-5.9-5.9c0-3.3,2.6-5.9,5.9-5.9
		C911.1,52.4,913.7,55,913.7,58.3z"/>
</g>
</svg>
