<?xml version="1.0" encoding="utf-8"?>
<!-- Generator: Adobe Illustrator 18.0.0, SVG Export Plug-In . SVG Version: 6.00 Build 0)  -->
<!DOCTYPE svg PUBLIC "-//W3C//DTD SVG 1.1//EN" "http://www.w3.org/Graphics/SVG/1.1/DTD/svg11.dtd" [
	<!ENTITY ns_flows "http://ns.adobe.com/Flows/1.0/">
	<!ENTITY ns_extend "http://ns.adobe.com/Extensibility/1.0/">
	<!ENTITY ns_ai "http://ns.adobe.com/AdobeIllustrator/10.0/">
	<!ENTITY ns_graphs "http://ns.adobe.com/Graphs/1.0/">
]>
<svg version="1.1" id="圖層_1" xmlns:x="&ns_extend;" xmlns:i="&ns_ai;" xmlns:graph="&ns_graphs;"
	 xmlns="http://www.w3.org/2000/svg" xmlns:xlink="http://www.w3.org/1999/xlink" xmlns:a="http://ns.adobe.com/AdobeSVGViewerExtensions/3.0/"
	 x="0px" y="0px" viewBox="0 0 574 72" style="enable-background:new 0 0 574 72;" xml:space="preserve">
<g>
	<path d="M35.3,56.6c0,0.9,0,1.4,0,2.1c0,0.4,0,3.5,0.1,9.3c-0.1,0.9-0.3,1.3-0.9,1.5c-0.8,0.3-2.4,0.5-4,0.5
		c-2.2,0-2.6-0.3-2.6-1.4c0.1-4.4,0.1-4.4,0.2-12H8.9c-2.4,0-4.5,0.2-6.4,0.6l-0.4-2.9c2.6,0.6,4.3,0.8,6.8,0.8h19.4V47H16.8v2.9
		c0,0.7-0.3,1-0.9,1.2c-0.9,0.3-2.5,0.4-4.1,0.4c-1.8,0-2.3-0.4-2.3-1.6c0-3.4,0-3.4,0.2-14.7c0.1-0.9,0.1-2,0.1-2.8
		c0-3.4-0.1-8-0.3-10.4c-0.5,0-0.8,0-1,0c-1.8,0-2.2-0.3-2.2-1.6C6.4,17,6.4,16.6,6.4,9.1c0-3.7-0.1-4.5-0.2-6.9
		c3.2,1.6,4.2,2.2,7.6,4.3h8.2c1.6-2,2.1-2.5,3.6-4.3c2.2,2,3,2.5,5.1,4.6c0.3,0.4,0.5,0.6,0.5,0.8c0,0.6-0.5,1-2.1,1.8
		c0,1.9,0,3.3,0,4.3c0,0.4,0,1.9,0.1,6.5c-0.1,0.9-0.4,1.2-1.8,1.4c-0.4,0.1-2.5,0.2-3.1,0.2c-1.4,0-1.8-0.3-1.9-1.3v-1.5h-9.1v1.4
		c-0.1,1-0.3,1.2-2.6,1.4c2.9,1.2,3.9,1.7,7.4,3.8h28.9l3.9-4c2.4,1.7,3.2,2.2,5.5,4.2c0.4,0.4,0.7,0.7,0.7,1c0,0.6-0.5,1-2.2,2.2
		c-0.1,3.2-0.1,5.6-0.1,7.2c0,2.9,0,3.8,0.2,12.3c0,0.4-0.1,0.6-0.1,1l0.4-0.6c3.4,2.6,4.4,3.5,7.8,6.5c0.2,0.2,0.3,0.5,0.3,0.6
		c0,0.3-0.3,0.4-0.8,0.4H35.3z M13.1,17.6h9.1V8h-9.1V17.6z M16.8,27.2v8h11.5v-8H16.8z M28.2,36.8H16.8v8.7h11.5V36.8z M41.4,20.5
		c-0.1,0.8-0.3,1.1-0.9,1.2c-0.8,0.2-2.2,0.4-3.3,0.4c-2.2,0-2.7-0.3-2.7-1.4c0,0,0-0.2,0-0.3c0.1-3.2,0.1-4.3,0.1-9
		c0-5.9,0-6.2-0.2-8.5c3,1.4,4,2,7.2,3.7h8.9c1.5-1.8,1.9-2.4,3.4-4.1c2.4,1.8,3,2.4,5.3,4.2c0.5,0.4,0.7,0.7,0.7,1c0,0.7-0.4,1-2,2
		c0,1.7,0,3,0,3.8c0,2.7,0,4,0.1,7c-0.1,0.8-0.3,1.2-0.9,1.4c-1.1,0.3-2.2,0.4-4.4,0.4c-1.2,0-1.6-0.3-1.6-1.1c0,0-0.1-0.1-0.1-0.2
		v-1.8h-9.7V20.5z M35.3,35.2h12.2v-8H35.3V35.2z M47.5,45.4v-8.7H35.3v8.7H47.5z M49.9,55.1c1.2-1.4,2.7-3.1,4.4-5.1
		c-1.2,0.4-3.2,0.7-4.9,0.7c-1.4,0-1.9-0.4-1.9-1.3c0-0.1,0-0.1,0-0.2V47H35.3v8.1H49.9z M41.4,17.6h9.7V8h-9.7V17.6z"/>
	<path d="M71.4,34.2c2.2,0.5,5,0.8,8.3,0.8h37.5c2.2-3.2,3-4.2,5.4-7.3c4,3.3,5.1,4.3,8.9,7.8c0.3,0.3,0.3,0.4,0.3,0.6
		c0,0.3-0.3,0.4-0.8,0.4H79.7c-3,0-5.5,0.1-7.8,0.5L71.4,34.2z"/>
	<path d="M139.7,45.2c8.8-5.1,14.2-9.2,20.3-15.6c-0.7,0.4-1.3,0.7-1.9,0.7c-0.9,0-1.2-0.7-1.3-2.5c-0.1-2.5-0.3-3.5-1.4-5.4
		c-4,5.3-7.5,8.3-13.4,11.9l-0.5-0.7c3.9-4.6,6.1-8,8.2-12.6c1.3-3,2-5.2,2.8-8.3c9.2,2.6,9.2,2.6,9.2,3.5c0,0.7-0.9,1.1-3.2,1.4
		c-1.1,1.9-1.5,2.5-2.4,3.8c0.5,0.2,0.9,0.4,1.2,0.4c3.6,1.3,4.5,2.2,4.5,4c0,0.9-0.4,1.9-1.1,2.8c1.8-2,3.1-3.5,5.9-7.6v-9.6h-19.2
		c-2,0-3.6,0.1-5.3,0.4L142,9.3c2,0.5,3.5,0.7,5.7,0.7h19.2V9.5c0-2.8-0.1-4.2-0.3-7.1c9.2,0.8,9.7,0.9,9.7,1.9
		c0,0.7-0.8,1.2-2.6,1.8v4h13.7c2.4-2.6,3.1-3.4,5.3-5.9c3.4,2.7,4.4,3.5,7.6,6.2c0.2,0.3,0.4,0.7,0.4,0.7c0,0.3-0.3,0.5-0.7,0.5
		h-26.3v11.1c1.5,2.4,2.1,3.2,3.4,4.5c2.4-3.5,5.1-9.9,5.9-14c1.8,0.5,3.3,0.9,4.2,1.2c4.1,1.2,4.8,1.5,4.8,2.2
		c0,0.7-0.9,1.1-2.9,1.4c-1.1,1.3-1.3,1.7-2.1,2.5c2.5,0.9,4.2,1.5,5.9,2.3c1.6,0.7,3.1,1.7,3.9,2.6c0.5,0.6,0.7,1.3,0.7,2.2
		c0,2.5-1.9,5.4-3.6,5.4c-0.2,0-0.7-0.2-0.9-0.5c-0.4-0.4-0.4-0.4-1.4-2.9c-1.6-3.5-3.8-6.9-5.5-8.2c-2.8,2.9-4.8,4.6-8,6.5
		c2.6,2.1,5.1,3.7,8.4,5.1c5,2.3,8.9,3.3,15.4,3.8v0.9c-2,1.2-3,2.2-3.8,4.1c-0.3,0.7-0.7,1.7-0.9,2.4c-0.2,0.7-0.4,0.9-0.8,0.9
		c-1,0-4.9-1.9-7.6-3.6c-4.7-3-8.7-6.6-11.2-9.9c-1.4-2-2.4-3.5-3.9-6.7v3.7c0,0.1,0.1,1.4,0.1,3.3c0,0.7,0.1,1.7,0.1,3
		c-0.1,0.8-0.3,1.1-0.9,1.3c-0.6,0.3-2.4,0.5-3.7,0.5c-1.8,0-2.2-0.2-2.4-1.2l0.1-3V31c-4.7,4.3-8.7,7-14.9,10.2
		c-3.6,1.9-6.5,3-12,4.7L139.7,45.2z M178.4,43.1c1.3-1.2,2.6-2.5,3.8-3.5c2.5,2.2,3.3,2.8,5.8,5.1c0.5,0.5,0.7,0.9,0.7,1.2
		c0,0.7-0.9,1.1-3.2,1.4c-3.1,3.8-4.3,5-6.1,6.8c10,3.4,11.7,4.8,11.7,10.1c0,2.2-1,4-2.2,4c-0.7,0-1.2-0.3-2.6-1.7
		c-2.2-2.3-6.8-5.7-11.4-8.6c-3.4,2.5-7,4.6-11.2,6.3c-6.1,2.5-11.5,3.9-21.1,5.2l-0.2-0.7c10.9-3.3,19.2-7.7,26.7-14.2
		c-3.4-1.9-4.3-2.3-9.2-4.6c-5.5,4.2-9.2,6.2-15.9,8.5l-0.5-0.8c8.9-5.9,16.3-13.9,19.4-21.1c1.7,0.5,3.1,0.9,4,1.1
		c4.5,1.1,5.3,1.4,5.3,2.1c0,0.7-0.9,1-3,1.2c-0.9,1-1.2,1.5-1.7,2.1H178.4z M166.1,44.6c-1.8,1.7-3,2.8-5.1,4.5
		c0.8,0.1,0.8,0.1,2.1,0.4c2.5,0.4,5.1,1.1,9.1,2.3c2.4-2.2,3.8-3.7,6.4-7.2H166.1z"/>
	<path d="M243.9,11.1c0-5.2,0-5.7-0.3-8.6c9.5,0.9,9.8,1,9.8,2c0,0.6-0.5,0.9-2.4,1.6c0,2.5,0,2.9,0,5.1h6.5c2-2.5,2.6-3.3,4.7-5.6
		c3.2,2.5,4.2,3.4,7.2,6.2c0.2,0.3,0.3,0.4,0.3,0.6c0,0.2-0.3,0.4-0.6,0.4h-18c0,1.1,0,1.1,0.1,6.3c0,0.7-0.1,0.9-0.4,1.2
		c-0.5,0.5-2,0.7-4.3,0.7c-2.4,0-2.6-0.1-2.6-1.2c0.1-4.7,0.1-4.7,0.1-7h-11.6c0,2,0,2.9,0.1,6.3c0,0.7-0.1,1-0.5,1.2
		c-0.6,0.4-2.3,0.7-4.2,0.7c-2.2,0-2.6-0.2-2.6-1.4c0.1-3.3,0.2-4.3,0.2-6.8h-11c-2.2,0-3.2,0.1-4.7,0.4l-0.4-2.5
		c1.6,0.4,3,0.6,5.1,0.6h10.9c0-5.3,0-5.8-0.3-8.7c9.8,1.1,9.9,1.1,9.9,2c0,0.7-0.7,1.1-2.5,1.7c0,1.8,0,2.7-0.1,4c0,0.4,0,0.4,0,1
		H243.9z M253,38.5h4.1c2.1-2.5,2.8-3.3,4.9-5.8c3.2,2.5,4.1,3.3,7.1,6.2c0.3,0.3,0.5,0.5,0.5,0.7c0,0.3-0.3,0.4-0.7,0.4H253v7.3
		c0,7.4,0,7.4,0.1,14.2c-0.1,4.3-1.4,6-5.5,7.2c-1.6,0.4-3.4,0.8-4.4,0.8c-0.7,0-0.9-0.2-0.9-1.3c-0.2-1.7-1-3.2-2.1-4.1
		c-1.3-1-2.3-1.4-8-2.9l0.1-0.9c6.3,0.4,7.9,0.4,12.7,0.5c0.7-0.1,0.9-0.3,0.9-1.2V41.8c-5.7,7.2-10.7,11.7-17.7,15.8
		c-6.1,3.5-11.5,5.9-18.6,8l-0.3-0.9c8.4-4.6,14-8.8,20.4-14.9c3.6-3.4,6-6.3,8.2-9.7h-23.1c-2.1,0-3.2,0.1-5.1,0.5l-0.5-2.7
		c1.8,0.4,3.5,0.7,5.6,0.7h7.6V25.1h-4.9c-1.9,0-3.1,0.1-4.7,0.4l-0.3-2.5c2,0.4,3.1,0.6,5.3,0.6h36.5c2-2.5,2.6-3.2,4.6-5.5
		c3,2.5,3.9,3.3,6.8,6c0.3,0.3,0.5,0.4,0.5,0.7c0,0.2-0.3,0.4-0.6,0.4H253V38.5z M229.6,25.1v13.4h16.3V25.1H229.6z"/>
	<path d="M305.1,68.4c9.4-2.6,17-5.9,23.4-10.1c-0.4,0.1-0.7,0.2-1,0.2c-0.5,0-1.1-0.4-1.4-1c-0.3-0.5-0.3-0.5-1-4.1
		c-0.3-1.6-0.9-2.7-2.3-4.3c-5.6,4.6-10.7,7.4-17.6,9.6L305,58c5-3.3,9.3-7.1,13.1-11.5c2.4-2.6,3.8-4.6,6.3-8.5h-11.9
		c-0.3,3-0.9,5.1-1.8,6.8c-1.2,2.1-2.7,3.3-4.3,3.3c-2,0-3.2-2-3.2-5.1c0-1,0.3-1.9,0.9-2.4c0.3-0.2,0.6-0.4,1.8-0.8
		c1.8-0.7,3.8-2.2,4.9-3.7c0.5-0.7,0.7-1.2,1.2-2.6c-0.9-0.1-1.1-0.3-1.2-1.3c0.1-4.7,0.1-5.9,0.1-11.2c0-2-0.1-3.6-0.1-6.4
		c3.2,1.4,4.2,1.8,7.2,3.5h31.5c1.4-1.5,1.8-2,3.3-3.5c2.2,1.6,3,2.2,5.2,3.9c0.6,0.5,0.9,0.9,0.9,1.3c0,0.5-0.6,1-2.1,1.9l-0.1,5
		c0,1.7,0.1,2.8,0.1,5.5c0,0.7-0.1,1-0.5,1.2c-0.5,0.4-2.2,0.6-4.3,0.6c-1.8,0-2.2-0.1-2.2-1.2v-1.2h-32.3v0.4
		c-0.1,1.1-0.9,1.4-4,1.4c-0.1,0-0.5,0-0.9,0c0,0.4,0,0.7,0,0.9c0,0.3,0,0.4,0,0.6v0.8c0,0.2,0,0.4,0,0.7h41.1
		c1.6-1.7,2.2-2.2,3.8-3.8c2.8,2.3,3.7,3.1,6.4,5.7c0.5,0.5,0.7,0.8,0.7,1.2c0,0.7-0.9,1-3.8,1.2c-3.3,2.4-4.7,3.3-8.2,5.3
		c0.4,0.4,0.5,0.7,0.5,1c0,0.6-0.7,0.9-3.3,1.3c-6.9,7.6-13.5,12.3-22.1,15.9c-6.5,2.6-11.9,3.8-22.5,4.9L305.1,68.4z M339,9.5
		c0-1.2,0-2,0-2.5c0-1.4-0.1-2.4-0.2-4.2c2,0.2,3.6,0.4,4.6,0.4c4,0.3,5.1,0.7,5.1,1.4c0,0.7-0.7,1-2.6,1.6v3.2h6.6
		c2-2.5,2.7-3.3,4.8-5.6c3.2,2.6,4.1,3.4,7.2,6.3c0.2,0.2,0.3,0.4,0.3,0.5c0,0.2-0.3,0.4-0.6,0.4h-18.2c0,1.4,0,2,0.1,3.6
		c0,1.4-0.8,1.7-4.5,1.7c-2.3,0-2.6-0.1-2.6-1.3c0.1-2.8,0.1-2.8,0.1-4.1h-11.5v3.7c0,1.4-0.7,1.7-4.6,1.7c-2.1,0-2.4-0.1-2.4-1.2
		c0.1-2,0.1-2.6,0.1-4.1h-10.9c-2,0-3.3,0.1-5.1,0.4l-0.3-2.6c1.9,0.5,3.3,0.7,5.4,0.7h10.9V7.3c0-2.2,0-2.9-0.2-4.7
		c2,0.2,3.6,0.4,4.7,0.4c3.8,0.3,5,0.7,5,1.5c0,0.6-0.6,0.9-2.6,1.7c0,1.2,0,2.3,0,3.3H339z M324,19.7h-6.5v10.6h6.5V19.7z
		 M327,45.3c-1.3,1.2-1.8,1.8-3.3,3c5.5,1.4,8.2,3.3,8.2,5.4c0,1-0.4,2.1-1.1,3c4.9-3.7,7.7-6.3,12-11.4H327z M342.8,43.8
		c1.6-1.4,2-1.8,3.6-3.1c2.5,2,3,2.4,5.1,4.4c1.3-2.7,1.7-4,2.6-7h-21.3c-2.2,3-2.8,3.8-4.5,5.7H342.8z M330.3,30.2h6.5V19.7h-6.5
		V30.2z M343.1,30.2h6.7V19.7h-6.7V30.2z"/>
	<path d="M392.5,14.4c1.6-2,2-2.5,3.6-4.6c2.4,2,3.1,2.7,5.3,4.9c0.3,0.4,0.4,0.5,0.4,0.7c0,0.3-0.3,0.4-0.8,0.4h-11v3.3
		c2,0.8,3.2,1.4,5.1,2.5c3.8,2.2,5.3,3.9,5.3,6c0,2.6-2,5.6-3.8,5.6c-0.8,0-1-0.3-1.7-2.8c-1.2-4.1-2.9-7.5-4.9-9.8v6.3
		c0,8,0,9.4,0.1,15.8c-0.1,1.6-0.7,1.8-4.5,1.8c-2,0-2.4-0.2-2.4-1.5c0-2.7,0-2.7,0.1-8c0.1-1.2,0.1-2.5,0.1-4.6v-3.1
		c-3.9,5.1-6.6,7.7-12,11.2l-0.5-0.7c4.1-5.4,6.6-9.5,8.9-14.7c1-2.2,1.4-3.5,2.6-7.1h-5.5c-1.3,0-2.6,0.1-4,0.4l-0.4-2.5
		c1.7,0.4,3,0.6,4.3,0.6h6.6V9.9c0-3.1-0.1-4.2-0.3-6.7c7.6,0.7,8.2,0.8,9,1.2c0.5,0.2,0.8,0.5,0.8,0.9c0,0.7-0.7,1.1-2.9,1.9v7.3
		H392.5z M382.6,47.6c0.3,2,0.4,2.9,0.4,4.1c0,3.4-0.7,7.6-1.4,9.8c-1.2,3.1-3.2,4.9-5.4,4.9c-2.1,0-3.6-2.3-3.6-5.7
		c0-1.2,0.3-2.2,1.1-2.8c0.3-0.3,0.7-0.5,1.9-1.1c3.5-1.7,4.9-3.9,6.3-9.2L382.6,47.6z M388.6,52.2c0-2.2-0.1-3.1-0.3-5.3
		c7.6,0.9,7.9,0.9,8.7,1.2c0.5,0.2,0.9,0.6,0.9,0.9c0,0.7-0.7,1.1-2.4,1.6v8.5c0,0.8,0.1,1.2,0.5,1.4c0.5,0.3,2.5,0.4,8,0.4
		c6.3,0,7.5-0.2,8.6-1.4c1.1-1.3,2.2-4.2,4.1-10.5l0.8,0.1l-0.3,8.6c0,0.3,0,0.4,0,0.6c0,0.9,0.2,1.2,1.1,1.5
		c1.9,0.8,2.6,1.7,2.6,3.3c0,2-1.3,3.4-3.8,4c-1.9,0.5-6.1,0.7-12.2,0.7c-15.7,0-16.3-0.2-16.3-5.7c0-0.7,0-1.1,0-1.5
		c0-0.2,0-0.2,0.1-3.6V52.2z M397.9,44.4c9,2.2,12.1,4,12.1,7.1c0,2.7-2,5.9-3.8,5.9c-0.9,0-1.1-0.3-2.4-3.3
		c-1.7-3.9-3.2-6.1-6.5-9.1L397.9,44.4z M409.1,42.1c0,1.4-0.7,1.7-4.9,1.7c-1.7,0-2.1-0.3-2.1-1.6c0.1-10.5,0.1-14.8,0.1-22.7
		c0-8.6-0.1-12.3-0.3-16.4c3.6,1.8,4.6,2.4,7.8,4.6h11.1c1.5-2,2-2.5,3.8-4.3c2.4,1.8,3.2,2.4,5.5,4.2c0.6,0.6,0.9,0.9,0.9,1.2
		c0,0.6-0.7,1.2-2.3,2.1c0,2.6,0,2.6,0,5.1c0,9.2,0.1,20.5,0.3,25.8c0,1.8-0.8,2.2-4.8,2.2c-2.1,0-2.4-0.2-2.4-1.5v-2.2h-12.5V42.1z
		 M421.6,9.2h-12.5v8.5h12.5V9.2z M409.1,19.2v8.7h12.5v-8.7H409.1z M409.1,29.4v9.3h12.5v-9.3H409.1z M419.9,47.3
		c8.5,3.5,12.8,7.2,12.8,11c0,3.3-2.4,6.9-4.5,6.9c-0.9,0-1.4-0.7-2-3.5c-1.3-5.4-3-8.8-6.9-13.7L419.9,47.3z"/>
	<path d="M451.2,25v42.6c0,0.9-0.1,1.3-0.5,1.6c-0.7,0.4-2.2,0.7-4.4,0.7c-2,0-2.6-0.4-2.6-1.5c0,0,0-0.1,0-0.2
		c0.4-11.7,0.5-20.9,0.5-45.1c0-10.3-0.1-15.1-0.3-20.7c3.6,1.6,4.7,2.2,8.1,4.1h9.3c1.5-1.9,2-2.5,3.5-4.3c2.3,1.7,3,2.3,5.3,4.2
		c0.5,0.5,0.7,0.8,0.7,1.1c0,0.6-0.4,0.9-2.1,1.9v5.4c0,4,0.1,6.7,0.2,11.6c0,0.7-0.1,1.1-0.5,1.3c-0.6,0.4-2.2,0.7-4.2,0.7
		c-1.8,0-2.2-0.2-2.2-1.4V25H451.2z M461.8,7.9h-10.6v6.7h10.6V7.9z M461.8,16h-10.6v7.4h10.6V16z M481.5,45.3h1.4
		c1.4-2,1.9-2.5,3.5-4.4c2.3,2.2,3,2.8,5.1,5.1c0.2,0.2,0.3,0.4,0.3,0.4c0,0.2-0.2,0.4-0.6,0.4h-9.7v4.6c0,3.5,0,6.8,0.1,13.3
		c0,0.1,0,0.2,0,0.2c0,0.9-0.3,1.3-1.1,1.6c-0.5,0.1-2.6,0.4-3.7,0.4c-1.8,0-2.2-0.4-2.2-1.7l0.1-13.7v-4.7h-6.5
		c-0.9,10.9-4.5,16.2-14.5,21.1l-0.5-0.7c6-5.9,7.9-10.4,8.6-20.4h-4.2c-1.4,0-2.8,0.1-3.9,0.4l-0.4-2.5c1.6,0.4,2.5,0.5,4.3,0.5
		h4.3c0.1-2.9,0.1-4.1,0.1-6.3c0-1.3,0-1.8-0.1-4.7h-3.2c-1.3,0-2.5,0.1-3.6,0.4l-0.4-2.5c1.4,0.4,2.6,0.5,4,0.5h21.5
		c1.6-2,2.1-2.6,3.7-4.6c2.6,2.2,3.4,2.8,5.7,5.1c0.2,0.3,0.3,0.4,0.3,0.6c0,0.2-0.2,0.4-0.5,0.4h-8V45.3z M468.6,34.3c0,1,0,2,0,3
		c0,2.8-0.1,5.2-0.2,8h6.4v-11H468.6z M481.7,25v1.4c-0.1,1.4-1.1,1.8-4.3,1.8c-2.3,0-2.6-0.2-2.7-1.6c0.2-7.2,0.2-7.8,0.2-13.6
		c0-6.7,0-7.3-0.3-10.6c3.4,1.6,4.4,2.2,7.6,4h9.7c1.6-1.9,2.1-2.5,3.6-4.3c2.4,1.7,3.2,2.3,5.5,4.1c0.7,0.6,0.9,0.9,0.9,1.3
		c0,0.6-0.1,0.7-2.1,2.2v31.5c0,8.1,0.1,12.1,0.2,21.3c-0.1,3.9-1.3,5.5-5.1,6.6c-1.2,0.4-2.9,0.7-3.8,0.7c-0.7,0-0.9-0.2-0.9-1.3
		c-0.1-1.7-0.7-3.5-1.4-4.3c-0.8-1-1.7-1.4-5.1-2.8v-0.8c4.5,0.3,5.7,0.4,7,0.4c0.3,0,0.7,0,1.2,0c0.9-0.1,0.9-0.2,0.9-1.8V25H481.7
		z M492.7,7.9h-11.1v6.7h11.1V7.9z M492.7,16h-11.1v7.4h11.1V16z"/>
	<path d="M527.1,12.9c5.7,2.6,7.6,4.2,7.6,6.3c0,2.1-2.3,4.6-4.2,4.6c-0.3,0-0.5-0.1-0.8-0.4c-0.3,0.3-0.5,0.4-1.3,0.8v7.5h1.8
		c1.4-2.2,1.8-2.8,3.4-4.9c2.4,2.3,3,3,5.1,5.5c0.2,0.2,0.3,0.4,0.3,0.5c0,0.2-0.2,0.4-0.7,0.4h-10v4.6c6,2.3,9.2,5.1,9.2,8.1
		c0,2.8-1.7,5.7-3.4,5.7c-0.8,0-1.3-0.7-1.7-2.3c-1.6-6.2-2.3-7.8-4.1-10v8.1c0,7.9,0,7.9,0.1,19.9c-0.1,1.6-0.8,1.9-4.6,1.9
		c-2.2,0-2.5-0.1-2.5-1.4c0.3-11.2,0.3-11.2,0.4-14.8l0.1-6.5c-3.3,5.9-5.6,8.7-11.7,14l-0.6-0.6c3.9-5.8,6.6-11.3,9.5-19.2
		c0.9-2.5,1.3-3.9,2.2-7.6h-5.1c-1.6,0-2.6,0.1-4.2,0.5l-0.4-2.7c1.5,0.4,3,0.7,4.5,0.7h5.8v-4.5c0-2.2-0.1-3.5-0.3-6
		c5.5,0.6,6.9,0.8,7.6,1.1c-0.1-0.2-0.1-0.3-0.1-0.5c-0.6-3.7-1.4-6-3-8.9h-2.9c-3.8,5-7.2,8.3-12.5,12.1l-0.5-0.6
		c3.3-4.9,5.2-8.3,7.2-13.5c1.7-4.1,2.2-5.8,2.6-8.7c2,0.4,3.8,0.9,4.7,1.1c4.8,1.1,5.4,1.3,5.4,2c0,0.7-0.7,1-3.1,1.4
		c-1.3,2.2-1.7,3-2.8,4.6h7.8c1.7-2.2,2.2-3,4-5.1c2.4,2,2.4,2,6.3,5.5c1.8-4.4,2.4-6.3,2.9-9.3c9,1.8,10,2.2,10,3
		c0,0.7-1,1.2-3.2,1.4c-1.2,2.2-1.6,3-2.8,4.5h11.1c2.1-2.6,2.1-2.6,4.3-5.4c3.1,2.5,4,3.3,6.8,5.9c0.3,0.3,0.4,0.5,0.4,0.7
		c0,0.3-0.3,0.4-0.7,0.4h-20c5.7,2.5,7.7,4.3,7.7,6.7c0,2-2.3,4.4-4.1,4.4c-0.9,0-1.4-0.7-1.6-2.3c-0.4-3.3-1.2-5.6-2.8-8.8h-2.2
		c-3.4,4.2-6.4,7.1-11.2,10.6l-0.7-0.4c2.6-3.9,3.4-5.4,5.5-10.2H527.1z M559.3,25.6c1.6-1.8,2.2-2.4,3.8-4.1c2.3,1.9,3,2.4,5.2,4.3
		c0.6,0.5,0.8,0.8,0.8,1.1c0,0.6-0.5,1-2.2,2v22.9c0,3.5,0.1,8,0.3,15.1c-0.1,0.8-0.2,1.2-0.5,1.5c-0.6,0.4-2.2,0.7-4.3,0.7
		c-1.9,0-2.4-0.3-2.4-1.4v-3h-13.6v2.8c-0.1,1.7-0.8,2-4.8,2c-2,0-2.3-0.2-2.3-1.5c0.1-4.3,0.4-20.4,0.4-30.5
		c0-4.3-0.1-10.7-0.3-15.5c3.4,1.6,4.3,2,7.4,3.8H559.3z M559.9,37.2v-10h-13.6v10H559.9z M546.3,38.7v10.7h13.6V38.7H546.3z
		 M546.3,51v12h13.6V51H546.3z"/>
</g>
</svg>
