<?xml version="1.0" encoding="utf-8"?>
<!-- Generator: Adobe Illustrator 18.0.0, SVG Export Plug-In . SVG Version: 6.00 Build 0)  -->
<!DOCTYPE svg PUBLIC "-//W3C//DTD SVG 1.1//EN" "http://www.w3.org/Graphics/SVG/1.1/DTD/svg11.dtd" [
	<!ENTITY ns_flows "http://ns.adobe.com/Flows/1.0/">
	<!ENTITY ns_extend "http://ns.adobe.com/Extensibility/1.0/">
	<!ENTITY ns_ai "http://ns.adobe.com/AdobeIllustrator/10.0/">
	<!ENTITY ns_graphs "http://ns.adobe.com/Graphs/1.0/">
]>
<svg version="1.1" id="圖層_1" xmlns:x="&ns_extend;" xmlns:i="&ns_ai;" xmlns:graph="&ns_graphs;"
	 xmlns="http://www.w3.org/2000/svg" xmlns:xlink="http://www.w3.org/1999/xlink" xmlns:a="http://ns.adobe.com/AdobeSVGViewerExtensions/3.0/"
	 x="0px" y="0px" viewBox="0 0 522 72" style="enable-background:new 0 0 522 72;" xml:space="preserve">
<g>
	<path d="M13.9,11.2c1.6-1.7,2-2.3,3.6-3.9c2.3,1.6,2.9,2.1,5.1,3.9c0.7,0.5,0.9,0.8,0.9,1.1c0,0.5-0.1,0.6-2.1,1.9
		c-0.1,7.2-0.1,12.8-0.1,16.5c0,6.3,0,6.4,0.1,18.9c0.1,0.1,0.1,0.4,0.1,0.4c0,0.4-0.1,0.7-0.4,0.8c-0.6,0.4-2.3,0.7-4.1,0.7
		c-2,0-2.6-0.3-2.6-1.2c0-0.1,0-0.1,0-0.2v-4.4l-4.8,0.1v7.2c0,0.1,0,0.2,0,0.4c0.1,0.1,0.1,0.1,0.1,0.1c0,0.9-1.5,1.4-4.1,1.4
		c-2.4,0-3.1-0.3-3.1-1.2v-0.1c0.2-19.4,0.2-20.6,0.2-25.3C2.6,16.1,2.5,11,2.2,7.1c3.4,1.7,4.4,2.2,7.7,4.1H13.9z M9.6,12.7v31.4
		h4.8V12.7H9.6z M33.9,18.8c1.7-4.8,2.3-6.6,3.4-10.6H26.4c-1,0-2.8,0.1-4.3,0.4l-0.5-2.6c2,0.4,3.1,0.6,4.8,0.6h10.7
		c1.7-1.6,2.3-2.1,4.2-3.6c2.6,2.4,3.3,3.1,5.6,5.6l0.3,0.4c0-2.2,0-2.8-0.2-5.1c2.2,0.3,3.9,0.5,5,0.6c4.5,0.5,5.7,0.9,5.8,1.6
		c0,0.8-0.6,1.2-2.8,2V59c0,1.7,0,1.7,3.9,1.7c1.9,0,2.6-0.3,3.1-1.4c0.4-0.9,3-9,5.2-16.1l0.6,0.1l-0.8,14.1c0,0.7,0,1.1,0,1.2
		c0,0.6,0.2,0.9,0.9,1.2c1.7,0.7,2.4,1.6,2.4,3.1c0,1.7-1.1,3.2-2.8,3.9c-1.4,0.5-3.9,0.7-8.9,0.7c-7.1,0-8.2-0.1-9.5-0.8
		c-1.1-0.7-1.5-1.7-1.6-4.1c0-2.2,0-3.7,0-4.6l0.1-5.2V29.5c-2.6,2-2.6,2-9.9,6.6v11.3c0,4.5,0,4.5,0.1,10.6
		c0.1,0.6,0.1,1.2,0.1,1.8c0,0.4,0,1,0,1.8c-0.1,3.1-1.2,4.9-3.4,6c-1.4,0.7-4.4,1.5-5.8,1.5c-0.9,0-0.9-0.1-1.2-1.6
		c-0.5-3.3-2.6-4.7-9.4-6.6v-0.7c7,0.4,7,0.4,10.6,0.7c0.1,0,0.3,0,0.4,0c0.9,0,1.2-0.3,1.2-1.3V39.9c-0.6,0.4-1.7,1.1-3.5,2
		c-0.1,2.3-0.4,3-1.2,3c-0.9,0-1.2-0.6-3.8-9.8c3.1-0.4,5.1-0.8,8.5-1.7v-7.6c0-3.2-0.1-4.6-0.4-7.4L33.9,18.8z M47.2,13.2
		c0-0.9,0-1.2,0-2.5c-0.4,0.1-0.4,0.1-2.6,0.8c-2.6,2.6-3.1,3-8.5,7.5c3,0.4,3.6,0.7,3.6,1.3c0,0.7-0.6,1-2.4,1.7v9.5
		c4.3-1.2,4.3-1.2,9.9-3.1V13.2z"/>
	<path d="M76.1,44.4c1.4-4.8,3.9-7.1,8-7.1c1.7,0,4.6,0.5,7.7,1.4c3.5,0.9,5.7,1.4,7.1,1.4c2.7,0,4.4-0.9,5.6-2.9l1.3,0.8
		c-1.5,4.9-4.1,7.2-8,7.2c-1.5,0-3.6-0.4-7.5-1.5c-4.4-1.2-5.8-1.4-7.6-1.4c-2.5,0-4.2,0.9-5.4,2.9L76.1,44.4z"/>
	<path d="M114.3,44.4c1.4-4.8,3.9-7.1,8-7.1c1.7,0,4.6,0.5,7.7,1.4c3.5,0.9,5.7,1.4,7.1,1.4c2.7,0,4.4-0.9,5.6-2.9l1.3,0.8
		c-1.5,4.9-4.1,7.2-8,7.2c-1.5,0-3.6-0.4-7.5-1.5c-4.4-1.2-5.8-1.4-7.6-1.4c-2.5,0-4.2,0.9-5.4,2.9L114.3,44.4z"/>
	<path d="M210.5,40.9v7l0.1,8.2l0.1,4.7c-0.1,3-0.6,4.4-2.5,5.8c-1.9,1.5-6,2.6-9.4,2.6c-1,0-1.3-0.3-1.4-1.1c-0.2-2-1-3.3-2.6-4.4
		c-1.7-1.2-3.9-1.9-10.8-3.5l0.1-0.9c8.4,0.5,10.6,0.6,16.8,0.6c1.1-0.1,1.3-0.3,1.3-1.2V9.9h-42.6c-2.6,0-4.7,0.1-6.6,0.4l-0.4-2.7
		c2.3,0.5,4.3,0.7,6.9,0.7h47.2c2.4-2.8,3.1-3.6,5.5-6.4c3.7,2.8,4.8,3.6,8.5,6.6c0.4,0.4,0.5,0.6,0.5,0.8c0,0.3-0.4,0.5-0.9,0.5
		h-9.8V40.9z M169.5,51.3c-0.1,0.9-0.3,1.2-0.7,1.5c-0.7,0.5-2.6,0.8-5.4,0.8c-1.7,0-2.3-0.4-2.3-1.5c0-0.1,0-0.3,0-0.4
		c0.3-6.7,0.4-13.6,0.4-24.1c0-3.5-0.1-6.3-0.4-10.7c4.2,2,5.3,2.6,9.2,4.8h12.2c1.8-2,2.4-2.6,4.3-4.7c2.7,1.8,3.5,2.5,6,4.4
		c0.6,0.6,0.9,0.9,0.9,1.2c0,0.6-0.4,0.9-2.4,2c0,11.4,0.1,16.1,0.3,24.3c0,0.9-0.3,1.2-1.1,1.5c-0.9,0.3-3.4,0.6-5,0.6
		c-1.8,0-2.3-0.3-2.3-1.5v-3.9h-13.6V51.3z M169.5,44.1h13.6V23.2h-13.6V44.1z"/>
	<path d="M232.1,15.6c1.2,4.4,1.6,6.9,1.6,10.6c0,6.1-1.8,10.3-4.5,10.3c-2,0-3.6-2.6-3.6-5.8c0-1.3,0.4-1.9,1.8-3.4
		c2.8-2.8,3.9-5.8,3.9-10.2c0-0.3,0-0.8-0.1-1.4L232.1,15.6z M245.1,4.1c0.6,0.2,0.9,0.5,0.9,0.9c0,0.7-0.8,1.2-2.8,1.7
		c0,35.5,0,45.3,0.1,61.1c0,1.7-0.9,2-5.1,2c-2.5,0-2.9-0.3-2.9-1.7c0.3-18.1,0.3-19.3,0.3-26.7c0-1.7,0-9,0-17.1
		c-0.1-17.4-0.1-17.4-0.4-21.3C243.7,3.7,244.2,3.8,245.1,4.1z M244.2,15.1c6.1,3.1,8.1,4.7,8.1,7.1c0,2.3-2.5,5-4.4,5
		c-1,0-1.5-0.8-1.6-2.6c-0.2-4.3-0.9-6.3-2.7-9L244.2,15.1z M274.4,14.7v-4c0-3.2-0.1-4.6-0.4-7.5c9.7,0.9,10.9,1.2,10.9,2.2
		c0,0.7-0.8,1.2-2.8,1.7v7.7h2c1.7-2.2,2.3-2.8,4.2-4.8c2.5,2.3,3.2,3,5.5,5.3c0.3,0.3,0.4,0.4,0.4,0.6c0,0.3-0.3,0.4-0.8,0.4h-11.3
		v13.2h2.4c1.8-2.3,2.4-3,4.2-5.2c2.8,2.4,3.6,3.1,6.3,5.8c0.2,0.2,0.3,0.4,0.3,0.6c0,0.2-0.3,0.4-0.7,0.4h-42
		c-1.9,0-3.5,0.1-5.3,0.4l-0.4-2.6c1.8,0.4,3.9,0.7,6,0.7h4.4V16.2h-2.4c-1.6,0-3.2,0.1-4.7,0.4l-0.4-2.6c1.7,0.4,3.4,0.6,5.2,0.6
		h2.4v-4.3c0-3.1-0.1-4.4-0.4-7.2c8.2,0.7,9.1,0.8,10,1.2c0.7,0.2,0.9,0.5,0.9,0.9c0,0.7-0.7,1.1-2.9,1.7v7.7H274.4z M260.1,68
		c0,1.5-1,1.8-5.4,1.8c-2,0-2.5-0.4-2.5-1.7c0.1-6.3,0.1-8.3,0.1-18.3c0-9.1-0.1-10.8-0.4-16c3.9,1.7,5.2,2.2,8.8,4.2h18.2
		c1.7-1.8,2.3-2.3,4.1-4c2.6,1.7,3.4,2.3,5.6,4c0.7,0.5,0.9,0.9,0.9,1.2c0,0.5-0.5,0.9-2.4,2c0,1.1,0,1.7,0,2.4
		c0,6.3,0.2,18.9,0.4,24.5c0,1.5-1,1.8-5.2,1.8c-2.3,0-2.7-0.2-2.8-1.3v-3.9h-19.5V68z M279.6,39.5h-19.5V50h19.5V39.5z M260.1,51.5
		v11.7h19.5V51.5H260.1z M264.9,29.4h9.5V16.2h-9.5V29.4z"/>
	<path d="M301.5,20.4c4.4,0.9,7.6,1.9,10.1,3.3c2.5,1.4,3.4,2.6,3.4,4.5c0,2.9-2.3,5.8-4.7,5.8c-1.2,0-1.7-0.5-2.5-2.6
		c-1.5-4.7-3.4-7.4-6.6-10.4L301.5,20.4z M302.2,46.8c3.4,0.6,4.2,0.7,4.6,0.7c0.9,0,1.6-0.6,2.7-2.6c2.8-4.8,3.4-5.9,10.3-20.1
		c2.6-5.4,2.6-5.4,3.4-6.9l0.7,0.3l-9.5,29.2c-0.9,2.7-0.9,2.7-0.9,3.5c0,1.1,0,1.1,1.7,5.6c0.7,1.8,1,3.4,1,4.7
		c0,1.8-0.5,3.4-1.5,4.7c-1.3,1.7-3.8,2.9-6,2.9c-1.5,0-2.3-0.7-2.3-1.9c0-0.4,0.1-1.7,0.6-4.4c0.5-3.2,0.7-6.1,0.7-8.4
		c0-3.6-0.9-4.7-5.5-6.4L302.2,46.8z M306,4.3c5.4,1,8.9,2.1,11.2,3.5c2.4,1.4,3.1,2.6,3.1,4.6c0,3.1-2.3,6-4.5,6
		c-1,0-1.7-0.7-2.3-2.4c-1.7-4.7-3.5-7.2-7.7-11.1L306,4.3z M351.8,36.4c2.2-2,2.8-2.6,4.9-4.3c2.8,2.2,3.7,2.8,6.4,5.2
		c0.5,0.5,0.7,0.8,0.7,1.2c0,0.7-1,1.2-3.6,1.6c-3.6,5.9-6.8,9.9-11,13.9c7.1,3.3,11.3,4.2,20.9,4.6l-0.1,0.9
		c-3,1.3-4.6,3.4-5.7,7.4c-0.1,0.7-0.4,0.9-0.9,0.9c-0.7,0-6-1.9-8.7-3.2c-3.1-1.4-6.9-3.8-10.3-6.6c-7.9,5.9-15.5,9-27.9,11.4
		l-0.2-0.7c9.3-3.9,16.7-8.5,23.5-14.8c-4.3-4.4-7.7-9.7-10-16h-3c-1.4,0-2.2,0.1-3.9,0.4l-0.5-2.4c2,0.4,3.2,0.5,4.4,0.5H351.8z
		 M353.7,10.7c1.7-2,2.3-2.6,4.1-4.4c2.7,1.9,3.5,2.5,6.3,4.7c0.4,0.4,0.7,0.7,0.7,1c0,0.5-0.5,0.9-2.9,2c-1,7.1-2.4,12.1-4.2,14.4
		c-1.5,2-5.2,3.4-9,3.4c-0.9,0-1-0.1-1.2-1.6c-0.3-2.8-2.1-4-9-5.7l0.1-0.7c1.5,0.1,1.5,0.1,6,0.4c1.5,0.1,4.2,0.2,5.1,0.2
		c1.4,0,1.7-0.3,2.3-1.6c0.9-2.3,1.8-6.6,2.3-10.5h-15.4c-4.4,10.6-10.1,17.8-17.9,22.4l-0.5-0.4c4.7-6.9,7-11.4,9-18.4
		c1.5-5,2.4-9.4,2.5-12.6c2.1,0.4,3.9,0.7,5,0.8c5.9,0.9,7,1.2,7,1.9s-1.2,1.3-3.4,1.7c-0.5,1.4-0.7,1.8-1.1,3H353.7z M331.1,37.9
		c3.6,5.6,7.1,9.3,12,12.6c3.9-4.3,5.9-7.3,8.7-12.6H331.1z"/>
	<path d="M413.8,43c0,0.6,0,0.8,0,1v1.2c0,6.8,0.1,16,0.3,22.4c0,1.8-0.9,2.2-5.7,2.2c-3.2,0-3.6-0.2-3.6-1.8
		c0.3-9.5,0.3-12.1,0.4-25h-15.7v3.9c0,1.7-0.9,2-5.2,2c-3.1,0-3.5-0.2-3.5-1.8c0.4-12.2,0.4-13,0.4-19.1c0-6.2-0.1-8.8-0.4-13.6
		c4.4,2,5.8,2.6,10.1,5h14.4c-0.1-12.4-0.1-12.4-0.6-16.5c2.3,0.1,4.2,0.3,5.4,0.4c5.5,0.4,6.9,0.8,6.9,1.7c0,0.7-0.8,1.2-3.2,1.9
		v12.5h16c2-2.2,2.6-2.8,4.5-5c2.8,2,3.6,2.6,6.2,4.4c0.8,0.7,1.1,1.1,1.1,1.6c0,0.7-0.6,1.2-2.6,2.2c0,11.5,0.1,14.6,0.4,23.9
		c0,2-0.9,2.3-5.8,2.3c-2.6,0-2.9-0.2-2.9-1.6V43H413.8z M405.3,34.4v-7.1c0-0.7,0-1.2,0-6.2h-15.8v20.5h15.7L405.3,34.4z M430.6,21
		h-16.9c0,1,0,7.9,0,20.5h16.9V21z"/>
	<path d="M475.5,43.2c0,0.4-0.1,0.7-0.2,0.9c-0.6,0.7-2.2,0.9-4.9,0.9c-1.8,0-2.6-0.4-2.6-1.4c0-0.1,0-0.2,0-0.4
		c0.1-1.7,0.2-6.8,0.3-15.1h-4.2c-0.5,5.6-1.1,7.9-2.8,10.8c-1.5,2.7-3.6,4.6-9.1,8.3l-0.5-0.5c2.3-3.5,3.7-6.9,4.5-10.8
		c0.4-2.2,0.5-3.9,0.6-7.8h-1.7c-0.4,0-2,0.1-3.4,0.4l-0.4-2.5c1.5,0.4,2.9,0.6,3.7,0.6h13.3l0.1-7.4h-5.7v2c0,0.4-0.1,0.7-0.3,0.8
		c-0.5,0.4-1.9,0.6-3.2,0.6c-0.7,0-1.3,0-1.7,0c-1.5-0.1-2-0.3-2-1.4c0.2-5.9,0.2-6.8,0.2-9.4c0-2.8-0.1-4.5-0.3-6.8
		c8.6,0.8,10,1.1,10,1.9c0,0.7-0.6,0.9-2.6,1.7v9h5.7v-1.2c0-7.7-0.1-10.7-0.5-13.7c8.6,0.5,10.4,0.9,10.4,1.7
		c0,0.6-0.7,1.1-2.6,1.7c-0.1,5.8-0.1,10.7-0.1,13.6c0,1.5,0,2.3,0,3.1c0,0.2,0,0.5,0,2.3L475.5,43.2z M505,50.4
		c2.3-2.4,3-3.1,5.2-5.4c3.4,2.6,4.4,3.4,7.7,6c0.2,0.2,0.4,0.4,0.4,0.5c0,0.3-0.3,0.4-0.9,0.4H487c1.6,2,3.8,3.7,6.6,5
		c6.6,3.1,12.8,4.2,25,4.3v0.5c-3.2,1.7-5.2,4-5.8,7c-0.2,0.8-0.4,1-1,1s-2.8-0.4-4.7-0.9c-10-2.4-17.3-7.9-21.9-16.7
		c-2,4.2-3.6,6.5-6.7,9c-6.3,5.2-14.2,7.8-26.9,8.7l-0.1-0.7c12.8-3.4,21.7-9.5,25.4-17.4h-17.5c-1.7,0-3.1,0.1-6.1,0.4l-0.5-2.7
		c3,0.6,4.6,0.7,6.6,0.7h18.1c0.8-2.5,1.2-4.7,1.2-7.4c0-0.1,0-0.2,0-0.4c2,0.2,3.5,0.4,4.4,0.6c2.5,0.4,4.2,0.7,4.3,0.7
		c1.5,0.1,2.3,0.6,2.3,1.1c0,0.7-0.6,0.9-2.8,1.7c-0.6,2.6-0.6,2.6-1,3.8h11.4c-1.9-3.8-2.9-5-5.7-6.7l0.4-0.7
		c7.2,0.7,10.1,2.1,10.1,4.7c0,1-0.3,1.7-1.2,2.7H505z M476,25.2c4.7-0.9,10.9-3,14.7-5c5.8-2.9,9.3-5.5,13.8-10H492
		c-0.6,0.4-0.8,0.4-1.4,0.8c1.2,0.2,2.8,0.8,4.3,1.5c1.5,0.6,1.9,1.2,1.9,2.4c0,1.5-1.3,2.9-2.8,2.9c-0.6,0-0.9-0.3-1.2-1
		c-0.7-2.4-1.7-4.2-3.1-5.2c-1.9,1.1-3.2,1.7-5.2,2.6c0.4,0.2,0.4,0.3,1.2,0.6c2.9,1.2,4.1,2.3,4.1,3.8c0,1.5-1.3,2.9-2.8,2.9
		c-0.9,0-1.5-0.8-2-2.8c-0.3-1.5-0.9-2.7-1.7-3.9c-1.9,0.8-3,1.2-6,2l-0.4-0.8c5.7-3.7,12-10,13.6-13.6c3.3,0.7,4.5,1.1,7.4,1.8
		c2.1,0.5,2.4,0.7,2.4,1.2c0,0.7-0.7,0.9-3.7,1.4c-1.2,1-1.5,1.3-2.5,2h10.6l4.9-3.5c2.6,2,3.4,2.6,5.9,4.7c0.4,0.4,0.7,0.7,0.7,1
		c0,0.8-0.8,1.1-3.3,1.2c-8.7,6.3-11.8,8.2-17.7,10.3c-5.7,1.9-11.8,3.1-19,3.6L476,25.2z M476.3,27.3c0.9,0.2,2.2,0.4,3.8,0.4H501
		v-2.9c0-1-0.1-1.7-0.3-3.9c1.3,0.1,2.3,0.1,3,0.2c1.4,0.1,2.3,0.3,2.6,0.3c2.7,0.1,4.2,0.6,4.2,1.3c0,0.7-0.7,1.1-2.3,1.6v3.4h1.3
		c1.9-2,2.5-2.6,4.4-4.5c2.4,2,3.1,2.7,5.5,5c0.2,0.2,0.4,0.4,0.4,0.6c0,0.3-0.3,0.4-0.8,0.4h-10.7v3c0,1.6,0,2.8,0,3.1
		c0,0.9,0,1.4,0,1.7c0,0.2,0,0.7,0,0.9c0,0.5,0,0.9,0,1.1c0,1.8-0.7,3.4-1.8,4c-1.5,0.9-4.4,1.7-6.2,1.7c-0.8,0-0.9-0.2-1-1.5
		c-0.2-2.5-2.3-4-7.1-5c-0.7,2.3-2.2,3.6-3.8,3.6c-0.9,0-1.4-0.5-2-2.3c-1.4-3.7-2.7-5.8-5.7-8.7l0.3-0.5c0.7,0.1,1.1,0.3,1.4,0.4
		c4,0.9,5.4,1.4,7.4,2.5c1.8,1,2.6,2.1,2.6,3.6c0,0.1,0,0.3,0,0.5c2.9,0.3,4.2,0.4,7.3,0.6c0.1,0,0.4,0,0.4,0c0.8,0,1-0.3,1-1.2
		v-7.5h-20.5c-1.7,0-3.1,0.1-3.9,0.4L476.3,27.3z"/>
</g>
</svg>
