<?xml version="1.0" encoding="utf-8"?>
<!-- Generator: Adobe Illustrator 18.0.0, SVG Export Plug-In . SVG Version: 6.00 Build 0)  -->
<!DOCTYPE svg PUBLIC "-//W3C//DTD SVG 1.1//EN" "http://www.w3.org/Graphics/SVG/1.1/DTD/svg11.dtd" [
	<!ENTITY ns_flows "http://ns.adobe.com/Flows/1.0/">
	<!ENTITY ns_extend "http://ns.adobe.com/Extensibility/1.0/">
	<!ENTITY ns_ai "http://ns.adobe.com/AdobeIllustrator/10.0/">
	<!ENTITY ns_graphs "http://ns.adobe.com/Graphs/1.0/">
]>
<svg version="1.1" id="圖層_1" xmlns:x="&ns_extend;" xmlns:i="&ns_ai;" xmlns:graph="&ns_graphs;"
	 xmlns="http://www.w3.org/2000/svg" xmlns:xlink="http://www.w3.org/1999/xlink" xmlns:a="http://ns.adobe.com/AdobeSVGViewerExtensions/3.0/"
	 x="0px" y="0px" viewBox="0 0 1412 72" style="enable-background:new 0 0 1412 72;" xml:space="preserve">
<g>
	<path d="M5,61.3c4.9-0.6,5.6-2.3,7.1-5.9c1-2.5,3.5-11.3,8-26.2c1.2-3.8,3.9-14,4.1-15.7c0-0.5-0.5-1.1-0.8-1.1
		c-2.1-0.3-2.4-0.5-4.5-0.8c-0.8-0.2-2-0.5-1.9-1.1c0-0.5,0.5-1,1.9-1.2c3.9-0.5,9.6-0.9,12.3-2.3c1-0.5,1.4-0.7,1.9-0.7
		c0.5,0,0.6,0.9,0.5,1.4c-0.2,0.6-1.8,5.1-3.8,11.8c-1.8,6.4-6.8,23.6-9.5,34.5c-1.3,5.1-1.6,6,4.8,7.2c0.9,0.2,1.8,0.5,1.8,1.1
		c0,0.8-1.4,1.1-2.9,1.1c-2.9,0-5.5-0.2-8.1-0.2c-5,0-7.6,0.4-10.6,0.4c-1.4,0-3,0-3-0.9C2.2,62,3,61.5,5,61.3z"/>
	<path d="M91.8,22c0,8.5-4.1,18.1-9.7,25.7c-7.4,9.7-18.6,16.6-21.9,18.3c-2.9,1.6-5.1,2.2-6.2,2.2c-0.6,0-1.4-0.2-1.4-0.5
		c-0.1-0.3,0.3-0.6,0.7-0.9c8.7-4.7,19.3-14.7,24.6-23.9c0.1-0.2,0.2-0.8-0.5-0.7C73.9,43.2,69,44,67.6,44c-5.1,0-10.9-4.3-10.9-14
		c0-5,2.6-11.5,7.3-16.2c4.8-4.9,10.1-7.4,14.7-7.4C88.1,6.4,91.8,14.8,91.8,22z M69.5,14.4C66.1,18.5,64,24.9,64,30.3
		c0,7.1,4.1,10.4,8.5,10.4c4.1,0,6.5-1.5,8.1-4.1c1.6-2.8,4.5-11.4,4.5-17.7c0-5-1.3-10-7-10C76.5,8.9,73.2,9.9,69.5,14.4z"/>
	<path d="M139.7,38.9c0,8.6-4.1,15.9-9.5,20.6c-4.6,3.9-9.2,5-12.7,5c-6.9,0-13.5-4.7-13.5-16.2c0-14,11.7-30.6,27.2-40
		c6.4-4,12.3-6.3,15.4-6.3c1.4,0,1.8,0.7,1.8,1.1c0,0.4-0.2,0.4-1.2,0.8c-12.5,5.2-22,14-28,23.4c-0.3,0.4,0.1,0.7,0.5,0.6
		c2.9-0.9,6.8-1.8,9.4-1.8C135.8,26.1,139.7,33.2,139.7,38.9z M116.7,32.7c-2.6,3.2-5.8,10.6-5.8,18.5c0,7.7,2.7,11,6.8,11
		c3.2,0,5.8-1.7,8.2-5c3.8-5,6.4-12.2,6.4-18.3c0-5.9-3.2-9.7-8.4-9.7C120.4,29.2,118.3,30.7,116.7,32.7z"/>
	<path d="M189.8,16.7c0,5.5-4.4,8.6-8.2,11.3c-1.9,1.3-3.9,2.3-5.9,3.4c-0.4,0.2-0.7,0.5-0.1,0.7c4.9,1.2,7.9,3.9,9.6,5.9
		c1.8,2.1,2.5,4.9,2.5,8.1c0,7.3-5.8,14.5-17.5,19.2c-3.5,1.4-8,2.3-12,2.3c-5,0-8.5-2-8.5-6.6c0.2-0.8,0.6-1.5,1.1-1.6
		c0.2-0.1,0.9,0.1,1.8,0.8c3.1,2.6,6.8,3.6,10.5,3.6c3.5,0,7.7-0.8,10.4-2.9c3.9-3.2,6.2-7.6,6.2-13.5c0-7.6-5-10.7-9.9-10.7
		c-2.3,0-3,0.2-4.9,0.5c-0.7,0.1-2.1,0.5-2.6,0.5c-0.6,0-1-0.4-1-0.7c0-0.5,0.6-1.8,1.8-2.3c1.4-0.6,5.1-1.8,8.9-3.7
		c7.3-3.9,10.2-8.2,10.2-12.9c0-4.3-2.8-7.9-7.7-7.9c-5,0-9.2,4.5-10.6,8.2c-0.1,0.3-0.8,0.5-1.1,0.4c-0.9-0.5-1.9-1.7-1.9-3.1
		c0-0.4,0.8-1.7,2.2-2.8c2.5-2.2,8.5-6.8,15-6.8C185.8,6.4,189.8,12.2,189.8,16.7z"/>
	<path d="M240.4,31.2h7.2c2.1-2.3,2.8-3,4.9-5.4c3.2,2.4,4.2,3.2,7.3,5.7c0.2,0.3,0.3,0.5,0.3,0.6c0,0.3-0.3,0.5-0.7,0.5h-19.1v16.5
		h10.3c2.4-2.6,3.1-3.3,5.5-5.9c3.3,2.6,4.3,3.4,7.5,6.2c0.2,0.3,0.3,0.5,0.3,0.6c0,0.3-0.3,0.5-0.7,0.5h-22.9v5.9
		c0,1,0.1,6.1,0.2,10.3c0,1.1-0.2,1.6-0.9,1.8c-0.7,0.3-2.4,0.5-4.5,0.5c-2.4,0-2.8-0.2-2.8-1.3c0-0.1,0-0.2,0-0.3
		c0.2-7.7,0.3-9,0.3-10.5v-6.4h-24.3c-0.9,0-4.4,0.3-5.7,0.4l-0.4-2.4c3,0.4,4.1,0.5,6.1,0.5h4.4V34.7c0-3.7-0.1-5.1-0.3-8.5
		c3.9,2.1,5.1,2.8,8.8,4.9h11.4v-13h-13.1c-5.1,6.7-9.6,10.9-16.1,15.5l-0.5-0.7c4.3-5.4,6.7-9.3,9.3-15c2.2-4.7,3.4-8.1,4.2-11.6
		c6.8,1.9,10.1,2.9,10.8,3.4c0.2,0.1,0.3,0.4,0.3,0.7c0,0.7-0.5,0.9-3.5,1.4c-2,3-2.4,3.6-3.5,4.9H249c1.7-1.9,3.4-3.8,5.1-5.7
		c3.5,2.6,4.5,3.4,7.9,6.1c0.2,0.2,0.3,0.4,0.3,0.5c0,0.3-0.3,0.5-0.7,0.5h-21.3V31.2z M220.4,32.6v16.5h12.3V32.6H220.4z"/>
	<path d="M291.5,21.8c1.2-1.6,2.4-3.2,3.5-4.7c2.5,2.2,3.2,2.9,5.5,5.2c0.3,0.3,0.3,0.4,0.3,0.5c0,0.2-0.2,0.3-0.5,0.3h-10.3v4.5
		c6.3,2.5,9.3,5,9.3,7.6c0,2.4-2.1,5.2-3.8,5.2c-0.9,0-1.3-0.6-1.8-2.9c-0.7-3.8-1.9-6.4-3.7-8.6v22.6c0,6.7,0,6.7,0.1,15.4
		c0,1.5-0.7,1.8-4.9,1.8c-2.2,0-2.5-0.1-2.6-1.4c0.1-5.1,0.1-5.1,0.3-10.5l0.3-10.3l0.2-7.1c-3.2,6.8-5.4,10.2-9.7,14.4l-0.6-0.4
		c4.4-8.8,7.7-19.5,9.3-30.3h-4.5c-1.5,0-2,0.1-3.5,0.3l-0.3-2.3c1.4,0.4,2.5,0.5,3.9,0.5h5.1v-6.4c0-4.3-0.1-5.7-0.4-8.8
		c2.1,0.2,3.6,0.3,4.6,0.4c4.7,0.5,5.7,0.7,5.7,1.6c0,0.6-0.6,0.9-3,1.8v11.5H291.5z M321.8,15.8c1.8-1.9,2.4-2.5,4.3-4.3
		c2.8,2.2,3.6,2.8,6.1,4.9c0.7,0.6,0.9,1,0.9,1.4c0,0.6-0.9,1-3.2,1.4c-3.6,5.7-6.2,8.9-10.1,12.4c5.7,3.2,11,4.5,18.9,5v0.6
		c-2.4,1.5-3.9,3.4-4.4,6.2c-0.2,0.9-0.4,1.1-0.8,1.1c-0.3,0-1-0.2-2.4-0.7c-6.1-2.2-10.6-4.9-14.8-9.2c-4.6,3.6-8.5,6.1-13.9,8.5
		c1.5,0.6,2.4,1.1,5.1,2.3h15.1c1.3-1.5,1.7-1.9,2.8-3.2c2.4,1.5,3.2,2,5.5,3.4c0.8,0.6,1.1,1,1.1,1.4c0,0.5-0.5,1-1.9,1.8
		c-0.1,2.1-0.1,3.4-0.1,4.7c0,3.3,0.1,7.4,0.3,13.2c0,1.5-0.7,1.8-4.8,1.8c-2.4,0-2.6-0.1-2.7-1.2v-3.2h-15.5v2.6
		c-0.1,0.9-0.1,1-0.4,1.2c-0.5,0.4-1.9,0.6-4.1,0.6c-2.6,0-2.9-0.1-2.9-1.4c0.1-10.8,0.1-13.1,0.1-16.1c0-2.6,0-2.7-0.1-6.8
		c-2,0.8-3.2,1.3-6.5,2.4l-0.3-0.7c7.9-4.6,13.4-9,19.5-15.3c-2.3-3.2-3.5-5.3-5.2-9.4c-2.9,3.9-5.1,6.1-9.9,9.8l-0.5-0.5
		c2.8-4.5,4.2-7.5,6.1-12.8c1.7-4.7,2.4-7.4,2.9-11.2c9.6,2.2,10.4,2.5,10.4,3.3c0,0.6-0.8,1-3,1.4c-1.1,2.3-1.6,3.1-2.4,4.7H321.8z
		 M307.3,62.7h15.5V47h-15.5V62.7z M310.1,17.2c-0.9,1.5-1,1.6-2,2.9c2.8,4.2,4.2,5.9,6.7,8c3-3.6,4.6-6,7.2-10.9H310.1z"/>
	<path d="M365,11.8c0-2.8,0-3.5-0.3-5.7c9.3,0.8,10,0.9,10,1.8c0,0.6-0.7,0.9-2.7,1.5c0,1.2,0,2,0,2.4h12.1c0-2.4-0.1-3.3-0.3-5.7
		c2.1,0.2,3.6,0.3,4.7,0.4c4.2,0.3,5.3,0.5,5.3,1.4c0,0.5-0.5,0.8-2.6,1.5v2.4h6.7c2.1-2.2,2.8-2.8,4.9-4.9c3.2,2.2,4.3,2.9,7.4,5.4
		c0.3,0.2,0.3,0.4,0.3,0.5c0,0.3-0.3,0.4-0.7,0.4h-18.7c0,1.1,0.1,1.4,0.1,2.9c0,0.6-0.1,0.9-0.3,1.1c-0.5,0.4-2.2,0.7-4.5,0.7
		c-1.9,0-2.3-0.2-2.3-1.1l0.1-3.5H372c0,1.3,0,1.4,0.1,2.8c0,0.5-0.1,0.7-0.5,1c1.6,0.9,2.3,1.5,4.5,3c0.5,0.4,0.7,0.7,0.7,1
		c0,0.5-0.5,0.9-2,1.7c0.1,6.1,0.1,6.3,0.2,9.9c0,1.4-0.8,1.8-3.9,1.8c-0.3,0-0.3,0-0.9,0c-0.1,0-0.1,0-0.1,0
		c-1.1,0-1.6-0.3-1.6-1.2v-0.9h-10.9v20.5l-0.1,8.2c0,1.8,0,3.4,0.1,6.3c0,0.7-0.1,1.1-0.5,1.3c-0.6,0.3-2.2,0.5-4.2,0.5
		c-1.8,0-2.3-0.3-2.3-1.5C351,52.3,351,52.3,351,47c0-17.8-0.1-26.5-0.4-30.9c3.5,1.6,4.5,2,7.8,3.7h9.8c1.1-1.2,1.4-1.5,2.2-2.4
		c-1.3,0.1-2,0.2-3,0.2c-2.1,0-2.4-0.1-2.4-1.1c0.1-1.6,0.1-1.6,0.1-3.2h-12.2c-1.7,0-3,0.1-4.5,0.4l-0.3-2.4
		c1.9,0.4,3.2,0.5,4.8,0.5H365z M368.5,21.2h-10.9v3.9h10.9V21.2z M368.5,26.5h-10.9v4.3h10.9V26.5z M381.1,56
		c8.6,1.5,11.8,3.2,11.8,6.2c0,1.8-1.2,3.4-2.6,3.4c-0.7,0-0.9-0.1-2.1-1.9c-0.7-1-2.8-3.2-3.8-4.3c-0.9-0.8-1.8-1.4-3.3-2.4
		c0.1,3.2,0.1,3.2,0.3,9.4c0,0.4-0.1,0.6-0.1,0.8c-0.3,0.4-1.7,0.7-3.7,0.7s-2.3-0.2-2.3-1.4c0.1-1.6,0.1-1.6,0.3-6.6v-1.6
		c-5.5,4.1-8.2,5.5-15.6,7.7l-0.2-0.7c5.5-3.4,8.6-6.1,12.4-11.1h-2.6v0.4c-0.1,1.1-0.7,1.3-3.9,1.3c-1.8,0-2-0.1-2-1.1
		c0.2-3.7,0.2-4.2,0.2-9.3c0-2.4-0.1-3.4-0.3-5.9c2.8,1.1,3.6,1.4,6.3,2.6h5.6V39H364c-1.5,0-2.9,0.1-4.1,0.4l-0.3-2.3
		c1.6,0.3,2.7,0.5,4.5,0.5h11.4c-0.1-1.9-0.1-2.6-0.3-4.9c3.4,0.4,4.5,0.5,6.4,0.9v-0.3c0.1-4.2,0.1-5.9,0.1-9.3
		c0-3.2,0-4.5-0.1-7.3c3.1,1.3,4.1,1.7,7.1,3.1h10.2c1.6-1.6,2-2,3.6-3.4c2.2,1.5,2.9,2,5.1,3.6c0.5,0.4,0.7,0.7,0.7,1
		c0,0.5-0.5,0.9-2.1,1.9v23c0,5.3,0,5.3,0.3,15.9c0,0.3,0,0.7,0,0.8c0,2.8-0.7,4.3-2.7,5.3c-1.3,0.7-3.4,1.1-5.3,1.1
		c-0.7,0-0.9-0.2-0.9-1.1c-0.1-3.5-0.9-4.7-3.9-5.9v-0.6c3.6,0.2,3.6,0.2,5.1,0.2c0.6-0.1,0.7-0.3,0.7-1.1V32.2H388V33
		c0,1.1-0.7,1.4-3.8,1.4c-0.4,0-0.7,0-1.3,0c-0.2,0.7-0.4,0.8-2,1.3v2h7.7c1.2-1.2,2.4-2.4,3.4-3.4c2.4,1.7,3.1,2.2,5.5,4.1
		c0.2,0.2,0.3,0.3,0.3,0.5c0,0.2-0.3,0.3-0.7,0.3h-16.1v3.2h6.3c1.1-1.2,1.5-1.6,2.6-2.7c2,1.3,2.6,1.7,4.5,3
		c0.4,0.3,0.6,0.5,0.6,0.7c0,0.5-0.3,0.8-1.7,1.6c0,6.3,0,6.3,0.1,9.5c0,0.6-0.1,0.9-0.3,1.1c-0.3,0.3-2,0.6-3.8,0.6
		c-1.4,0-1.7-0.2-1.7-0.9v-0.9h-6.4V56z M375.5,43.7h-5.9v3.8h5.9V43.7z M375.5,48.9h-5.9v4h5.9V48.9z M387.5,47.4v-3.8h-6.6v3.8
		H387.5z M387.5,52.8v-4h-6.6c0.1,1.5,0.1,2.8,0.1,4H387.5z M399.3,21.2H388v3.9h11.4V21.2z M399.3,26.5H388v4.3h11.4V26.5z"/>
	<path d="M453,25.5c-3.3,2.8-4.7,3.9-7.2,5.5c4.5,3.6,5.8,5.1,7.7,8.4c2.8,4.7,4.2,9.9,4.2,15.9c0,5.1-1.1,8.7-3.2,10.7
		c-1.4,1.3-3.6,2.2-6.6,2.6c-0.6,0.1-1.4,0.1-1.5,0.1c-0.7,0-0.8-0.2-0.9-1.3c-0.2-1.6-0.5-2.5-1.1-3.1c-0.6-0.7-2.4-1.5-4.7-2.2
		l-1.9-0.5c-0.4-0.1-0.7-0.2-1.1-0.3v-0.7c2.9,0.3,9.5,0.5,11.4,0.5c2.1,0,2.4-0.3,2.8-2.7c0.2-1.4,0.4-4.1,0.4-5.7
		c0-1.1,0-1.8-0.1-2.9c-2.1,1.7-6.7,4.6-9.9,6.3c-6.1,3.2-12.8,5.7-21.3,7.6l-0.3-0.6c8.4-3.8,13.9-7,20.7-12.1
		c3.9-2.9,6-4.7,9.9-8.6c-0.3-1.4-0.5-1.8-0.9-3c-7.5,5.6-17,9.7-29.1,12.5l-0.3-0.7c8.3-3.9,11.9-5.9,18.2-10.6
		c3.4-2.5,4.7-3.6,8.2-6.8c-0.7-0.9-0.9-1.3-1.7-2.2c-6.9,4.1-13.7,6.7-23.1,8.6l-0.4-0.7c9.7-4.3,15.5-8,22-14.1h-7.6
		c-1.7,0-2.7,0.1-4.5,0.4l-0.5-2.4c2,0.4,3.4,0.5,5.2,0.5h26.6c1.9-2,2.4-2.6,4.3-4.7c1.6,0.9,1.8,1.1,3,1.9
		c0.6-1.4,0.9-2.2,1.8-4.9H430c0.1,0.5,0.1,1,0.1,1.3c0,6.3-2.3,10.3-5.9,10.3c-2.3,0-4.1-2.1-4.1-4.9c0-0.7,0.2-1.4,0.6-1.9
		c0.5-0.5,0.5-0.5,3-2.1c2.8-1.8,4-3.9,4.5-8.7h0.7c0.6,2.2,0.7,2.8,0.9,4.6h16.8v-4.1c0-1.6-0.1-2.4-0.3-4.4
		c10.7,0.9,10.9,1,10.9,1.9c0,0.5-0.9,1.1-2.9,1.6v5h16.4c1.6-1.8,2-2.3,3.8-4c3.3,2.2,4.3,2.9,7.4,5.4c0.5,0.5,0.7,0.8,0.7,1.1
		c0,0.3-0.2,0.5-0.4,0.7c-0.7,0.4-0.7,0.4-4,0.5c-2.1,1.1-2.1,1.1-4.9,2.4c-1.6,0.7-1.6,0.7-2.5,1.2c1.2,0.8,1.8,1.2,3.6,2.4
		c0.2,0.2,0.3,0.3,0.3,0.4c0,0.2-0.2,0.3-0.5,0.3h-17.7c1.1,5.1,2.4,8.4,5.2,13.5c3.8-4.1,6-7.2,7.8-10.9c6.8,3.2,9.3,4.7,9.3,5.4
		c0,0.7-0.9,0.9-3.1,0.9c-0.1,0-0.5,0-0.8,0c-5.5,3.1-7,3.9-12.2,6.1c2.8,4.2,5.9,7.4,10.3,10.4c3.4,2.3,6,3.6,10.1,4.7l-0.2,0.7
		c-2.4,0.3-3.9,1.2-5.5,3.2c-0.5,0.7-1.1,1.8-1.5,2.6c-0.2,0.7-0.4,0.9-0.7,0.9c-0.5,0-1.4-0.7-3-2c-8.9-7.4-14.9-20.2-17-35.6H453z
		"/>
	<path d="M510,20.7c1.6-2,2.1-2.6,3.8-4.6c2.5,2,3,2.4,5.8,5c2-5.5,3.3-10.4,3.7-14.3C533,9.1,534,9.4,534,10.3
		c0,0.7-0.5,0.9-3.2,1.4c-1.4,2.7-1.4,2.8-4,7h14.8c2.2-2.6,2.8-3.4,4.9-5.9c3.4,2.4,4.5,3.2,7.7,6c0.3,0.3,0.4,0.5,0.4,0.7
		c0,0.3-0.3,0.6-0.8,0.6H526c-2.8,4.2-6.2,7.9-9.8,10.5c0.7,0.5,1,0.8,2.1,1.6c0.6,0.5,0.8,0.7,0.8,1.1c0,0.5-0.9,1.1-2.4,2
		c-0.3,8.8-1,17.2-1.9,22.4c-0.8,4.7-1.8,6.9-3.9,8.5c-1.6,1.2-3.6,1.8-5.9,1.8c-0.7,0-0.9-0.3-0.9-1.1c-0.1-1.3-0.3-2.4-0.8-3.4
		c-0.5-0.9-1.2-1.6-3.5-2.8l0.1-0.7c2.6,0.3,2.9,0.3,3.8,0.5c0.8,0.1,1.5,0.1,2.1,0.1c1.7,0,2-0.8,2.7-5.6
		c0.9-6.4,1.4-12.5,1.6-21.7h-4.5c-0.8,9.5-1.8,14.6-3.5,19.5c-2.1,6.1-5.1,10.8-10.5,16.1l-0.6-0.5c5.9-10.1,7.9-21.3,8-46.1h-2.5
		c-1.1,0-2,0.1-3.9,0.4L492,20c1.6,0.4,3.4,0.7,4.4,0.7h4.3v-8.2c0-1.4-0.1-2.5-0.4-5.3c9.3,0.8,10.3,1,10.3,2.1
		c0,0.7-0.7,1.1-2.8,1.7v9.7H510z M506,22.2c-0.1,3.9-0.2,7.2-0.4,9.6h4.3c1.3-1.5,1.7-2,3.1-3.4c1.2,0.8,1.6,1.1,2.5,1.7
		c2.1-3.7,2.5-4.4,3.8-7.8H506z M538.3,32.8c-0.2,5.8-0.3,7.6-0.9,11.2h6.1c1.8-2.3,2.4-3,4.3-5.2c2.9,2.3,3.7,3,6.4,5.5
		c0.3,0.2,0.4,0.4,0.4,0.6c0,0.3-0.3,0.5-0.6,0.5h-16c1.2,3,2.2,4.7,4.1,6.7c3.4,3.6,7.4,5.8,14.2,7.7l-0.1,0.5
		c-2.2,0.9-3.2,2-4.3,4.6c-0.3,0.8-0.5,1.1-0.7,2.6c-0.1,0.4-0.3,0.6-0.6,0.6c-1.1,0-4.9-3.1-7-6c-3.4-4.5-4.9-8.3-6.6-16.2
		c-1.6,7-4.7,12.2-9.7,16.1c-3.7,2.9-8,4.9-14.6,6.7l-0.3-0.7c5.8-3.3,8.4-5.1,11-8.2c3.5-3.9,5.4-8,6.8-14.4h-7.5
		c-1.2,0-2.2,0.1-4.3,0.3l-0.5-2.2c1.5,0.3,3.4,0.5,4.8,0.5h7.8c0.5-3.8,0.7-5.8,0.7-11.2h-2.8c-2.4,3-5.4,5.7-9.7,8.9l-0.5-0.4
		c4.3-6.3,7-12.4,8.5-19.1c7.2,1.7,9.3,2.4,9.3,3.1c0,0.5-1,1-3.2,1.4c-1.4,2.3-2,3.1-3.2,4.8h11.8c1.8-2.2,2.4-2.9,4.3-5.1
		c2.8,2.3,3.7,3,6.6,5.5c0.3,0.2,0.3,0.4,0.3,0.5c0,0.3-0.3,0.4-0.7,0.4H538.3z"/>
	<path d="M581.2,51.4c6.8-2,14.1-4.6,19.5-6.9l0.3,0.7c-9.7,7.2-16.9,11.4-29.1,16.9c-0.2,2.6-0.4,3.4-1.1,3.4
		c-0.3,0-0.6-0.3-0.9-0.7c-0.3-0.5-1.1-2.2-1.7-4l-0.9-2.9c-0.3-1.1-0.7-2-1-3c2.9-0.3,3.8-0.5,7.4-1.4L573,17.3
		c-0.1-3-0.2-4.5-0.7-7.8c2.2,0.2,3.8,0.3,4.9,0.4c4.9,0.3,6.1,0.6,6.1,1.6c0,0.7-0.7,1.1-2.8,1.8L581.2,51.4z M581.7,67.4
		c11.5-5.5,19.1-12.4,23.6-21.5c2.8-5.6,4.5-13,5.3-22.9c0.3-3.5,0.5-8,0.5-10.5c0-1.2,0-1.8-0.1-3.4c2.3,0.3,4.1,0.5,5.2,0.6
		c4.8,0.5,6.4,0.9,6.4,1.8c0,0.7-0.9,1.2-3.2,1.8c-1.2,14.7-1.8,18.9-3.3,24.3c-1.1,4.1-2.4,7-4.3,10.3c2.9,1.4,6.5,3.4,9.3,5.5
		c3.6,2.6,4.9,4.3,4.9,6.6c0,3.2-2.5,6.8-4.9,6.8c-0.6,0-1.1-0.3-1.4-1c-0.3-0.5-0.3-0.5-1.3-3.7c-1.4-4.4-4.4-9.9-7.3-13
		c-3.1,5-6.7,8.6-11.6,11.9c-5.2,3.4-10.2,5.5-17.6,7.3L581.7,67.4z M586.9,15.3c9.3,4.5,14.8,9.2,14.8,12.5c0,3.4-2.5,6.9-4.9,6.9
		c-1.1,0-1.6-0.7-2.2-2.6c-1.4-5.2-4.5-11.2-8.2-16.4L586.9,15.3z"/>
	<path d="M639.4,67.8c9.7-2.4,17.4-5.5,24.1-9.5c-0.4,0.1-0.7,0.2-1,0.2c-0.5,0-1.1-0.4-1.5-0.9c-0.3-0.5-0.3-0.5-1-3.9
		c-0.3-1.5-0.9-2.5-2.4-4c-5.7,4.3-11,6.9-18.1,8.9l-0.2-0.5c5.1-3.1,9.5-6.6,13.4-10.7c2.4-2.4,3.9-4.3,6.4-7.9H647
		c-0.3,2.8-0.9,4.8-1.9,6.4c-1.2,2-2.8,3-4.5,3c-2,0-3.3-1.9-3.3-4.8c0-0.9,0.3-1.8,0.9-2.2c0.3-0.2,0.6-0.3,1.8-0.7
		c1.8-0.6,3.8-2,5-3.4c0.5-0.7,0.7-1.1,1.2-2.4c-0.9-0.1-1.1-0.3-1.2-1.2c0.1-4.4,0.1-5.5,0.1-10.5c0-1.8-0.1-3.4-0.1-5.9
		c3.3,1.3,4.3,1.7,7.4,3.3h32.4c1.5-1.4,1.9-1.9,3.4-3.2c2.3,1.5,3,2,5.3,3.6c0.6,0.5,0.9,0.9,0.9,1.2c0,0.5-0.6,0.9-2.2,1.8
		l-0.1,4.7c0,1.6,0.1,2.6,0.1,5.1c0,0.7-0.1,0.9-0.5,1.1c-0.5,0.3-2.3,0.5-4.4,0.5c-1.9,0-2.2-0.1-2.2-1.1v-1.1h-33.2v0.4
		c-0.1,1-0.9,1.3-4.1,1.3c-0.1,0-0.5,0-0.9,0c0,0.3,0,0.6,0,0.8c0,0.3,0,0.4,0,0.5v0.7c0,0.2,0,0.3,0,0.7h42.2
		c1.7-1.6,2.2-2.1,3.9-3.6c2.9,2.2,3.8,2.9,6.6,5.3c0.5,0.5,0.7,0.7,0.7,1.1c0,0.7-0.9,0.9-3.9,1.1c-3.4,2.2-4.8,3-8.4,4.9
		c0.4,0.4,0.5,0.6,0.5,0.9c0,0.5-0.7,0.8-3.4,1.2c-7.1,7.1-13.9,11.5-22.7,14.8c-6.7,2.4-12.2,3.6-23.1,4.6L639.4,67.8z M674.1,12.8
		c0-1.1,0-1.9,0-2.3c0-1.3-0.1-2.2-0.2-3.9c2.1,0.2,3.7,0.3,4.7,0.4c4.1,0.3,5.3,0.6,5.3,1.4c0,0.6-0.7,0.9-2.7,1.5v3h6.8
		c2.1-2.4,2.8-3,4.9-5.3c3.2,2.4,4.2,3.2,7.4,5.9c0.2,0.2,0.3,0.3,0.3,0.5c0,0.2-0.3,0.3-0.6,0.3h-18.7c0,1.4,0,1.8,0.1,3.4
		c0,1.4-0.8,1.6-4.7,1.6c-2.4,0-2.6-0.1-2.6-1.2c0.1-2.6,0.1-2.6,0.1-3.8h-11.8v3.4c0,1.4-0.7,1.6-4.7,1.6c-2.2,0-2.5-0.1-2.5-1.1
		c0.1-1.8,0.1-2.4,0.1-3.8h-11.1c-2,0-3.4,0.1-5.2,0.4l-0.3-2.4c2,0.5,3.4,0.6,5.5,0.6h11.1v-2c0-2,0-2.7-0.2-4.4
		c2.1,0.2,3.7,0.3,4.8,0.4c3.9,0.3,5.1,0.6,5.1,1.4c0,0.5-0.6,0.9-2.6,1.6c0,1.1,0,2.2,0,3H674.1z M658.7,22.4h-6.6v9.9h6.6V22.4z
		 M661.8,46.3c-1.3,1.1-1.9,1.7-3.4,2.8c5.6,1.4,8.4,3,8.4,5.1c0,0.9-0.4,2-1.1,2.8c5.1-3.4,7.9-5.9,12.4-10.7H661.8z M678.1,44.9
		c1.6-1.3,2.1-1.7,3.7-2.9c2.6,1.8,3.1,2.2,5.3,4.1c1.3-2.5,1.8-3.7,2.7-6.6h-21.9c-2.2,2.8-2.8,3.6-4.6,5.3H678.1z M665.2,32.2h6.7
		v-9.9h-6.7V32.2z M678.4,32.2h6.9v-9.9h-6.9V32.2z"/>
	<path d="M730.7,17.4c1.6-1.8,2.1-2.4,3.7-4.3c2.4,1.9,3.2,2.5,5.5,4.6c0.3,0.3,0.4,0.5,0.4,0.7c0,0.3-0.3,0.4-0.8,0.4h-11.3v3
		c2.1,0.7,3.3,1.3,5.3,2.3c3.9,2,5.4,3.6,5.4,5.6c0,2.4-2.1,5.2-3.9,5.2c-0.8,0-1-0.3-1.8-2.6c-1.2-3.8-3-7-5.1-9.2v5.9
		c0,7.4,0,8.8,0.1,14.7c-0.1,1.5-0.7,1.7-4.7,1.7c-2.1,0-2.4-0.2-2.4-1.4c0-2.5,0-2.5,0.1-7.4c0.1-1.1,0.1-2.3,0.1-4.3v-2.9
		c-4,4.8-6.8,7.2-12.3,10.5l-0.5-0.7c4.2-5,6.8-8.9,9.1-13.7c1-2,1.5-3.2,2.6-6.6h-5.7c-1.4,0-2.6,0.1-4.1,0.4l-0.4-2.4
		c1.8,0.4,3,0.5,4.5,0.5h6.8v-4.2c0-2.9-0.1-3.9-0.3-6.3c7.8,0.7,8.4,0.7,9.3,1.1c0.5,0.2,0.8,0.5,0.8,0.8c0,0.6-0.7,1-3,1.8v6.8
		H730.7z M720.6,48.4c0.3,1.8,0.4,2.7,0.4,3.8c0,3.2-0.7,7.1-1.5,9.1c-1.2,2.9-3.2,4.6-5.5,4.6c-2.2,0-3.6-2.2-3.6-5.3
		c0-1.1,0.3-2,1.1-2.6c0.3-0.3,0.7-0.5,2-1c3.6-1.6,5.1-3.6,6.4-8.6L720.6,48.4z M726.8,52.7c0-2-0.1-2.9-0.3-4.9
		c7.8,0.8,8.1,0.8,8.9,1.1c0.5,0.2,0.9,0.5,0.9,0.9c0,0.6-0.7,1-2.5,1.5v7.9c0,0.7,0.1,1.1,0.5,1.3c0.5,0.3,2.6,0.3,8.2,0.3
		c6.4,0,7.7-0.2,8.9-1.4c1.1-1.2,2.2-3.9,4.3-9.8l0.8,0.1l-0.3,8c0,0.3,0,0.4,0,0.5c0,0.8,0.2,1.1,1.1,1.4c2,0.7,2.7,1.6,2.7,3
		c0,1.8-1.4,3.2-3.9,3.7c-2,0.5-6.2,0.7-12.5,0.7c-16.1,0-16.8-0.2-16.8-5.3c0-0.6,0-1,0-1.4c0-0.2,0-0.2,0.1-3.4V52.7z M736.3,45.4
		c9.2,2,12.4,3.7,12.4,6.6c0,2.5-2.1,5.5-3.9,5.5c-0.9,0-1.2-0.3-2.4-3c-1.8-3.6-3.3-5.7-6.6-8.5L736.3,45.4z M747.8,43.3
		c0,1.4-0.7,1.6-5.1,1.6c-1.8,0-2.2-0.3-2.2-1.5c0.1-9.8,0.1-13.8,0.1-21.1c0-8-0.1-11.5-0.3-15.3c3.6,1.7,4.7,2.2,8,4.3h11.4
		c1.6-1.8,2.1-2.4,3.9-4c2.5,1.7,3.2,2.2,5.6,3.9c0.6,0.5,0.9,0.8,0.9,1.1c0,0.5-0.7,1.1-2.4,2c0,2.4,0,2.4,0,4.7
		c0,8.6,0.1,19.1,0.3,24.1c0,1.7-0.8,2-4.9,2c-2.2,0-2.5-0.2-2.5-1.4v-2.1h-12.8V43.3z M760.6,12.6h-12.8v7.9h12.8V12.6z
		 M747.8,21.9V30h12.8v-8.1H747.8z M747.8,31.4v8.6h12.8v-8.6H747.8z M758.9,48.1c8.7,3.3,13.2,6.8,13.2,10.3c0,3-2.4,6.4-4.6,6.4
		c-0.9,0-1.4-0.7-2.1-3.2c-1.3-5-3.1-8.2-7.1-12.8L758.9,48.1z"/>
	<path d="M845.2,61.1c-2.2,1.1-3,1.8-3.9,3.3c-0.6,0.9-1.2,2.2-1.4,3.2c-0.2,0.6-0.4,0.9-0.8,0.9c-0.8,0-4.1-1.5-6.6-3
		c-9.4-5.5-14.1-11.3-17.1-21.1h-0.3c-3.4,2.9-5,4-8.4,5.9v9.4c7.3-0.7,10-0.9,14.1-1.6l0.2,0.8c-8.1,3.5-14.1,5.4-26.4,8.6
		c-0.5,1.7-0.9,2.4-1.5,2.4c-0.7,0-0.7,0-3.2-9.4c0.9,0.1,1.7,0.1,2.2,0.1c1.6,0,2.5-0.1,7.9-0.5v-6.6c-4.1,2-10.2,3.8-17.5,5.2
		l-0.3-0.5c6.4-2.6,10.4-4.8,15.7-8.4c3.2-2.1,4.9-3.4,7-5.5h-16c-1.5,0-2.9,0.1-4.7,0.5l-0.5-2.5c2.4,0.4,3.5,0.5,5.2,0.5h20.8
		v-2.5c0-2.3-0.1-2.8-0.3-4.4c9,0.7,9.9,0.9,9.9,1.8c0,0.5-0.8,1.1-2.6,1.8v3.4h14.9c2.2-2.4,2.8-3,4.9-5.1c3.3,2.4,4.3,3.1,7.4,5.6
		c0.2,0.2,0.3,0.4,0.3,0.5c0,0.3-0.3,0.5-0.8,0.5h-26.8c2,4,3.6,6.1,6.6,8.6c3.9-3.4,5.9-5.5,7.5-8c3.1,1.5,6.6,3.3,7.8,4.1
		c0.4,0.2,0.6,0.5,0.6,0.8c0,0.5-0.7,0.9-1.8,0.9c-0.1,0-0.8-0.1-2.1-0.1c-4.6,1.8-4.6,1.8-10.2,3.7c1.8,1.1,3.4,2,5.7,2.9
		c4.7,1.9,8.3,2.7,14.3,3.1V61.1z M802.3,17.5c-0.1-6.6-0.1-6.6-0.3-10.7c9.1,0.7,9.9,0.8,9.9,1.6c0,0.5-0.9,1.1-2.7,1.8
		c0.1,21.7,0.1,21.7,0.3,27.7c-0.1,0.7-0.2,0.9-0.8,1.1c-0.7,0.2-2.8,0.4-4.1,0.4c-2.2,0-2.4-0.1-2.5-1c0.1-2.3,0.2-6.1,0.3-11.6
		h-6.1c-0.2,3.6-0.7,5.3-2,7.4c-1.9,3-4.2,4.6-9.6,6.6l-0.3-0.5c4.1-4,4.9-6.1,5.1-13.6h-2.1c-0.9,0-2.2,0.1-3.4,0.3l-0.6-2.3
		c1.7,0.3,2.6,0.5,4.2,0.5h14.8c0-0.7,0-1.2,0-1.6c0.1-0.8,0.1-1.6,0.1-1.6c0-0.1,0-0.7-0.1-1.5c0-0.3,0-0.9,0-1.6h-7v2
		c-0.1,1-0.7,1.2-4.4,1.2c-2.2,0-2.5-0.1-2.5-1.1c0.1-2.6,0.1-3.5,0.1-5.8c0-3.5-0.1-4.4-0.3-7c7.7,0.7,8,0.8,8.6,1
		c0.6,0.2,0.9,0.5,0.9,0.8c0,0.7-0.6,1-2.5,1.6v5.8H802.3z M834.4,18.4c2-2.2,2.6-2.9,4.5-4.9c2.9,2.3,3.9,3,6.7,5.4
		c0.2,0.2,0.3,0.4,0.3,0.5c0,0.2-0.3,0.4-0.7,0.4h-15.5v12.9h4.1c2-2.3,2.6-3,4.4-5c2.8,2.4,3.6,3.2,6.3,5.6
		c0.1,0.2,0.3,0.4,0.3,0.5c0,0.2-0.2,0.3-0.5,0.3h-28.8c-1.5,0-2.8,0.1-4.3,0.4l-0.5-2.4c1.8,0.3,2.8,0.5,4.8,0.5h7.3V19.9h-8.1
		c-1.3,0-2.4,0.1-3.7,0.3l-0.7-2.4c1.6,0.4,3,0.5,4.4,0.5h8.1v-4.3c0-2.7-0.1-4.2-0.4-7.2c9.4,0.8,9.9,0.9,9.9,1.8
		c0,0.6-0.5,0.9-2.5,1.8v8H834.4z"/>
	<path d="M872.2,16c5.9,2.4,7.8,3.9,7.8,5.9c0,2-2.4,4.3-4.3,4.3c-0.3,0-0.5-0.1-0.8-0.3c-0.3,0.3-0.5,0.4-1.3,0.7v7h1.9
		c1.5-2,1.9-2.6,3.4-4.5c2.4,2.2,3.1,2.8,5.3,5.1c0.2,0.2,0.3,0.3,0.3,0.5c0,0.2-0.2,0.3-0.7,0.3h-10.3v4.3c6.1,2.2,9.5,4.8,9.5,7.6
		c0,2.6-1.8,5.3-3.5,5.3c-0.8,0-1.3-0.6-1.8-2.2c-1.6-5.7-2.4-7.3-4.2-9.3v7.6c0,7.4,0,7.4,0.1,18.6c-0.1,1.5-0.8,1.8-4.7,1.8
		c-2.3,0-2.6-0.1-2.6-1.4c0.3-10.5,0.3-10.5,0.4-13.8l0.1-6.1c-3.4,5.5-5.7,8.1-12,13.1l-0.6-0.5c4.1-5.4,6.8-10.5,9.7-17.9
		c0.9-2.4,1.3-3.6,2.2-7.1H861c-1.7,0-2.7,0.1-4.3,0.5l-0.4-2.5c1.6,0.4,3.1,0.6,4.7,0.6h5.9v-4.2c0-2.1-0.1-3.2-0.3-5.6
		c5.7,0.5,7.1,0.7,7.8,1c-0.1-0.2-0.1-0.3-0.1-0.5c-0.6-3.4-1.4-5.6-3.1-8.3h-3c-3.9,4.7-7.4,7.8-12.8,11.3l-0.5-0.5
		c3.4-4.5,5.3-7.8,7.4-12.6c1.8-3.9,2.2-5.4,2.7-8.1c2.1,0.4,3.9,0.8,4.9,1c4.9,1,5.5,1.2,5.5,1.9c0,0.7-0.7,0.9-3.2,1.3
		c-1.3,2.1-1.8,2.8-2.8,4.3h8c1.8-2.1,2.3-2.8,4.1-4.7c2.5,1.9,2.5,1.9,6.4,5.1c1.9-4.1,2.5-5.9,3-8.7c9.2,1.7,10.3,2,10.3,2.8
		c0,0.7-1,1.1-3.2,1.3c-1.2,2-1.7,2.8-2.8,4.2h11.4c2.2-2.4,2.2-2.4,4.5-5.1c3.2,2.3,4.1,3,7,5.5c0.3,0.3,0.4,0.5,0.4,0.6
		c0,0.3-0.3,0.4-0.7,0.4H897c5.8,2.4,7.9,4,7.9,6.2c0,1.8-2.4,4.1-4.3,4.1c-0.9,0-1.4-0.6-1.6-2.2c-0.4-3-1.2-5.2-2.9-8.2h-2.3
		c-3.5,3.9-6.6,6.6-11.5,9.9l-0.7-0.4c2.7-3.6,3.4-5,5.7-9.5H872.2z M905.3,27.9c1.7-1.7,2.2-2.2,3.9-3.8c2.4,1.8,3,2.2,5.3,4
		c0.6,0.5,0.8,0.7,0.8,1c0,0.5-0.5,0.9-2.3,1.9v21.3c0,3.3,0.1,7.5,0.3,14.1c-0.1,0.7-0.2,1.1-0.5,1.4c-0.6,0.3-2.2,0.6-4.4,0.6
		c-2,0-2.4-0.3-2.4-1.4v-2.8h-14v2.6c-0.1,1.6-0.8,1.8-4.9,1.8c-2.1,0-2.4-0.2-2.4-1.4c0.1-4,0.4-19,0.4-28.4c0-4.1-0.1-10-0.3-14.5
		c3.4,1.5,4.5,1.9,7.6,3.6H905.3z M905.9,38.7v-9.3H892v9.3H905.9z M892,40.1v10h14v-10H892z M892,51.6v11.2h14V51.6H892z"/>
	<path d="M1005.9,17.3c1.6-2,2.2-2.7,3.9-4.7c2.8,2.2,3.6,2.9,6.2,5.1c0.3,0.3,0.3,0.4,0.3,0.6s-0.3,0.3-0.6,0.3h-12.6v10.1h2.9
		c1.7-2.1,2.2-2.7,3.9-4.8c2.7,2.2,3.5,2.9,6.1,5.3c0.3,0.2,0.3,0.4,0.3,0.5c0,0.2-0.3,0.3-0.6,0.3h-11.9v11.7h2.3
		c1.8-2.2,2.3-2.9,4.1-5c2.6,2.3,3.3,3,5.6,5.4c0.2,0.3,0.3,0.5,0.3,0.6c0,0.3-0.3,0.4-0.6,0.4h-11.7v13.9c3.9,1.8,7.8,2.4,15.4,2.4
		c8.9,0,19.3-0.5,27.9-1.5v0.6c-1.2,0.8-1.7,1.2-2.3,2.2c-0.9,1.2-1.5,2.7-1.6,4.1c-0.2,1.4-0.3,1.5-1,1.6
		c-1.2,0.1-4.9,0.2-10.5,0.2c-16.4,0-21.1-0.4-25.4-2c-7.2-2.8-11.7-8.1-14-16.6c-2,7.4-4.7,12.7-9.9,19.2l-0.7-0.3
		c2.1-6,3-9.5,3.9-15.2c0.7-4.7,1.3-11.1,1.3-14.5c0-0.9,0-1.5-0.1-2.9c7.6,0.9,8.1,1,8.9,1.4c0.5,0.1,0.8,0.5,0.8,0.8
		c0,0.5-0.6,0.9-2.5,1.6c-0.4,3.8-0.6,5.2-1.2,7.9c1.3,3.1,2.1,4.3,4.1,6.3V30.2h-8.7c-2,0-3,0.1-4.4,0.4l-0.5-2.4
		c1.6,0.4,3.1,0.5,4.9,0.5h7.8V18.7h-6.6c-1.8,0-2.8,0.1-3.8,0.3l-0.5-2.3c1.5,0.4,2.6,0.5,4.3,0.5h6.6V13c0-2.6-0.1-3.8-0.3-6.6
		c9.9,0.9,10.5,1.1,10.5,2c0,0.7-0.7,1-3,1.7v7.2H1005.9z M1032.9,11.2c1.6-1.8,2.1-2.3,3.8-3.9c2.5,1.8,3.2,2.3,5.6,4.2
		c0.6,0.5,0.9,0.9,0.9,1.1c0,0.6-0.5,1.1-2.4,2.1v4.1c0,4.2,0.1,6.7,0.2,12c0,1.6-1,2-4.9,2c-2.2,0-2.6-0.2-2.6-1.4v-2.6h-9.9v17.7
		c0,1.6,0.3,1.8,2.7,1.8c0.7,0,2.1,0,4.1,0.1c0.3,0,0.6,0,0.7,0c4.7,0,5.7-0.2,6.6-1.6c0.9-1.5,2-4.5,4.3-12.4l0.7,0.1l-0.5,10.7
		c0,0.4,0,0.8,0,0.9c0,0.7,0,0.7,2.1,1.6c0.8,0.4,1.3,1.4,1.3,2.6c0,1.7-0.9,3-2.7,3.5c-2,0.6-6,0.9-13.6,0.9
		c-11.8,0-12.7-0.3-12.8-4.9v-4.9c0-2.3,0-2.9,0-4.8v-9.9c0-2.1-0.1-3.7-0.2-7.2c3.6,1.8,4.8,2.4,8.2,4.4h8.9V12.6h-13.9
		c-1.6,0-2.7,0.1-3.9,0.4l-0.5-2.4c1.5,0.4,2.9,0.5,4.4,0.5H1032.9z"/>
	<path d="M1105.3,33.6c2.1-2.7,3.4-4.7,5.3-8.3c2.8,1.6,2.8,1.6,7,4.1c0.7,0.5,1.1,0.9,1.1,1.3c0,0.5-0.6,0.9-1.6,0.9
		c-0.3,0-1.1,0-1.7-0.1c-4.4,5.3-6.6,7.8-10.1,11.1c0.1,11.3,0.1,11.3,0.3,18.5c-0.1,3-0.7,4.3-2.6,5.6c-1.6,1.1-5.6,2.3-7.5,2.3
		c-0.7,0-0.9-0.2-1-1.4c-0.3-3.8-2.2-4.9-10.2-6.3v-0.9c3,0.1,3,0.1,7.2,0.1c2.9,0.1,2.9,0.1,5.5,0.1c1,0,1.3-0.2,1.3-1.1V48.6
		c-6.5,4.9-14.3,9.4-22,12.6c-6.1,2.5-11.5,4.1-18.7,5.5l-0.3-0.8c14.2-5.4,27-13,38.6-22.9c-10.7,3.3-18.6,5.3-32.5,8.3
		c-0.4,2.2-0.7,2.9-1.4,2.9c-0.8,0-1.3-1.6-3.4-9.7c4.7-0.1,6-0.1,9.9-0.3V20.8c0-2.8-0.1-5.1-0.3-9.9c3.9,1.6,5,2.2,8.5,4.3h3.9
		c0.8-2.9,1.3-5.7,1.5-9.1c2,0.4,3.4,0.7,4.5,0.9c5.1,0.9,6,1.3,6,2c0,0.7-0.3,0.8-3.2,1.4c-0.7,0.6-1.1,1-1.5,1.3
		c-2.9,2.4-2.9,2.4-4,3.4h13.6c1.6-1.8,2-2.4,3.7-4.1c2.6,1.9,2.6,1.9,5.3,3.8c0.7,0.5,1,0.9,1,1.2c0,0.5-0.5,1-2.3,2V33.6z
		 M1098.2,24.1v-7.5h-22.4v7.5H1098.2z M1075.8,25.5v8h22.4v-8H1075.8z M1098.2,34.9h-22.4v8.6c8.8-0.7,16.6-1.6,22.2-2.5l0.1-0.1
		V34.9z"/>
	<path d="M1143.4,22l2.7-3.9c1.8,1.8,2.4,2.4,3.9,4.4c0.1,0.2,0.2,0.4,0.2,0.5c0,0.3-0.3,0.4-0.7,0.4h-6.7v12.3
		c2.8-0.9,3.9-1.2,7.2-2.6l0.3,0.7c-2.4,2-3.2,2.5-7.5,5.5v12.5c0,0.5,0,4.2,0.1,9.2c0,2.2-0.1,3.3-0.6,4.3
		c-0.9,1.9-2.8,3.1-6.1,3.7c-0.7,0.1-1.4,0.2-1.8,0.2c-0.9,0-1-0.2-1.1-1.3c-0.1-3.6-1.4-4.8-6.5-6.1l0.1-0.9
		c2.9,0.2,5.1,0.3,6.8,0.3c0.3,0,0.7,0,1.3,0c0.7-0.1,0.9-0.3,0.9-0.9V43.6c-1.1,0.7-1.1,0.7-3.7,2c-0.2,2-0.5,2.7-1.2,2.7
		c-0.7,0-0.7,0-3.2-9.1c1.8-0.2,4.7-0.8,8.1-1.7V23.4h-3.3c-1.5,0-2.6,0.1-3.9,0.3l-0.3-2.3c1.9,0.4,2.8,0.5,4.2,0.5h3.3v-6.6
		c0-3.9-0.1-5.8-0.3-8.5c2.2,0.2,3.8,0.4,4.9,0.5c4.1,0.3,5.4,0.7,5.4,1.5c0,0.6-0.7,1-3,1.6V22H1143.4z M1142.2,68.3
		c6.8-5.4,9.7-8.6,12-13.6c1.8-3.7,2.9-8.2,3.4-13.9c-1.6,1.8-2.2,2.4-7.8,7.3c-0.1,2.2-0.4,3-1.1,3c-0.7,0-1.4-1.6-3.9-8.8
		c3.8-0.7,8.7-2.3,12.9-4.3c0.2-4,0.3-6.1,0.3-11.8c0-9.7-0.1-15.6-0.5-19.1c9.4,0.9,10.1,1.1,10.1,2c0,0.6-0.7,1.1-2.6,1.8
		c-0.1,21-0.1,21-0.3,24.7c-0.5,8.7-1.4,13.4-3.7,18.1c-2.2,4.6-5.7,8.2-10.8,11.4c-2,1.2-3.6,2.1-7.5,3.9L1142.2,68.3z
		 M1148.9,15.7c2.6,2.3,3.7,3.6,5.2,5.6c1.8,2.6,2.8,4.9,2.8,6.8c0,2.8-2.2,6-4.2,6c-0.9,0-1.4-0.9-1.4-2.8
		c-0.1-6.4-0.9-10.3-3-15.3L1148.9,15.7z M1176.1,29.4c3.4-4.9,5.6-9.4,7.1-14.1c3.1,2.1,3.9,2.7,6.9,5.1c0.7,0.6,1,0.9,1,1.4
		s-0.5,0.7-1.3,0.7c-0.4,0-1.1,0-1.8-0.1c-5.3,4.6-6.4,5.4-12,9v3.9c9.3,4.6,12.2,7,12.2,10c0,2.8-2,5.8-3.9,5.8
		c-0.9,0-1.5-0.7-2-2.6c-1.4-4.9-3.2-8.3-6.3-11.8v22.8c0,0.9,0.3,1.1,1.6,1.1c0.3,0,1,0,2.1,0.1c0.2,0,0.5,0,0.5,0
		c2.5,0,3.4-0.3,4.1-1.2c0.8-1.1,1.8-3.5,3.9-10.1l0.6,0.1l-0.3,8.4c0,0.3,0,0.6,0,0.6c0,0.7,0.2,1,0.8,1.3c1.6,0.7,2.2,1.4,2.2,2.9
		c0,1.8-0.9,3-2.8,3.6c-1.7,0.6-3.9,0.8-10,0.8c-6,0-7-0.1-8.1-1.1c-0.9-0.8-1.3-1.9-1.3-4.2c0.1-9.3,0.1-14,0.1-15.9V16.4
		c0-4.7-0.1-6.1-0.3-9.1c9.5,1,9.8,1,9.8,2c0,0.6-0.6,1-2.8,1.7V29.4z"/>
	<path d="M1228.7,27.2c1.4-1.4,1.8-1.9,3.2-3.3c2.2,1.6,2.8,2.2,5,3.9c0.4,0.3,0.7,0.7,0.7,0.9c0,0.4-0.3,0.7-2,1.9
		c0.1,12.4,0.1,12.4,0.3,17.4c0,0.7-0.2,1-0.7,1.2c-0.7,0.3-2.8,0.5-4.4,0.5c-1.1,0-1.5-0.3-1.6-1v-1.4h-6.2V53c0,0.6,0,1.1,0,1.6
		h7.1c2-2.1,2.7-2.8,4.7-4.7c2.8,2.1,3.7,2.8,6.4,5.1c0.3,0.2,0.4,0.4,0.4,0.5c-0.1,0.4-0.3,0.5-0.7,0.5h-17.8c0,4,0.1,6.2,0.3,11.4
		c0,0.6-0.1,0.8-0.5,1c-0.4,0.2-2.8,0.4-5,0.4c-1.2,0-1.7-0.3-1.7-1.2c0.2-4.4,0.3-6.7,0.4-11.7h-10.7c-1.6,0-2.6,0.1-4.5,0.5
		l-0.5-2.6c2.2,0.5,3.7,0.7,5,0.7h10.7v-7.2h-5.7v1.9c-0.1,0.5-0.1,0.7-0.3,0.9c-0.5,0.3-1.8,0.6-3.3,0.6c-2.8,0-3.2-0.1-3.2-1.1
		c0,0,0-0.1,0-0.2c0.2-5.9,0.3-7.3,0.3-11.8c0-6.4-0.1-11.7-0.3-13.6c-0.3,0.1-0.5,0.1-0.7,0.1c-1.2,0-1.6-0.3-1.6-1.1
		c0.1-1.6,0.1-2.6,0.1-7.2v-0.5c0-1.8,0-1.8-0.1-5.8c0-0.5,0-0.7-0.1-3.2c3,1.4,3.9,1.8,6.6,3.4h3.8c1.2-1.6,1.6-2,2.8-3.4
		c1.8,1.4,2.3,1.8,4.1,3.1c0.6,0.5,0.9,0.9,0.9,1.1c0,0.3-0.4,0.7-1.7,1.3c0,1.1,0,1.8,0,2.1c0,0.1,0,2.2,0,4.6c0,1.6,0,1.6,0.1,3.4
		c0,0.1,0,0.2,0,0.2c0,0.7-0.2,1-0.9,1.1c-0.5,0.1-2.8,0.3-3.5,0.3c-1,0-1.3-0.3-1.4-1v-1.1h-4.8v1.1c-0.1,1.1-0.4,1.2-3,1.4
		c3.4,1.3,3.8,1.5,6.8,3H1228.7z M1207.9,11.2v9h4.8v-9H1207.9z M1211,28.7v7.5h5.7v-7.5H1211z M1216.8,37.6h-5.7V46h5.7V37.6z
		 M1231.7,9.8c1.3-1.4,1.7-1.8,2.9-3.2c2,1.3,2.6,1.7,4.5,3.1c0.5,0.4,0.7,0.6,0.7,0.9c0,0.5-0.5,0.9-1.9,1.7
		c0,4.5,0.1,5.9,0.3,10.4c0,0.6-0.2,0.8-0.7,0.9c-0.7,0.2-2.2,0.3-3.9,0.3c-1.3,0-1.5-0.1-1.5-0.8v-1.6h-4.9v1.1
		c-0.1,0.5-0.1,0.6-0.5,0.7c-0.5,0.2-1.5,0.3-2.4,0.3c-2.4,0-2.9-0.2-2.9-0.9c0,0,0-0.1,0.1-0.2c-0.1-0.5-0.1-0.9-0.1-1.2
		c0-0.3,0-0.8,0-1.6c0.1-1.6,0.1-5.7,0.1-7c0-2.2-0.1-4.6-0.1-6.4c2.8,1.4,3.5,1.8,6,3.3H1231.7z M1223.3,36.2h6.1v-7.5h-6.1
		L1223.3,36.2z M1229.4,46v-8.4h-6.1V46H1229.4z M1227.2,11.2v9h4.9v-9H1227.2z M1242.3,13.3c-0.1-3.5-0.1-4.2-0.3-6.4
		c8.4,0.7,9.5,0.9,9.5,1.8c0,0.6-0.5,0.9-2.6,1.7c-0.1,4-0.1,6.1-0.1,7.9c0,2,0,4.1,0.1,8l5.8-0.8c0.7-1,1.6-2.5,2.8-4.5
		c-0.6,0.3-0.9,0.3-1.4,0.3c-1.1,0-1.6-0.5-1.8-1.8c-0.4-2.8-1.6-5.8-3.4-8.9l0.4-0.3c6.1,2.5,8.7,4.5,8.7,6.7
		c0,1.3-0.6,2.5-1.9,3.5c3,1.9,3.4,2.2,5.9,3.9c0.3,0.3,0.5,0.5,0.5,0.7c0,0.3-0.3,0.5-0.7,0.5l-5.3,0.7l-9.7,1.4
		c0.3,7.6,0.8,11.9,1.8,15.5c2.1-4.8,3.4-9.1,4.1-12.6c6.3,2,8.6,2.9,8.6,3.6c0,0.6-0.6,0.9-2.5,1.1c-3,7.3-4.7,10.6-7.5,14.7
		c1.6,2.9,2.6,4.4,5.2,7.4c2.5-4.4,3.2-6,5.2-10.5l0.6,0.2l-1.6,9.9c-0.1,0.8-0.2,1.6-0.2,2.1c0,0.4,0,0.4,0.2,1
		c0.2,0.6,0.2,0.6,0.3,1c0,0.1,0,0.1,0.3,0.6c0.4,0.5,0.8,1.8,0.8,2.7c0,1.6-1.4,2.8-3,2.8c-3.5,0-8.2-4.5-12.2-11.8
		c-5.3,5.5-10.8,8.9-19.9,12.4l-0.5-0.7c7.4-4.8,13.6-10.5,18-16.8c-2.4-6-3.4-12.2-4-21.9l-0.9,0.1c-1.1,0.2-1.9,0.4-3.2,0.9
		l-0.5-2.5c1.2,0.3,2,0.3,2.8,0.3c0.3,0,0.6,0,0.8-0.1l1-0.1L1242.3,13.3z"/>
	<path d="M1298.6,25.9c-0.1-14.9-0.1-14.9-0.4-18.2c8,0.7,8.6,0.7,9.5,1.1c0.6,0.1,0.9,0.5,0.9,0.8c0,0.5-0.7,1-2.5,1.6v14.7h10.5
		V15.1c0-2.6-0.2-5.2-0.5-7.4c8,0.7,8.6,0.8,9.5,1.1c0.5,0.3,0.8,0.5,0.8,0.9c0,0.5-0.7,1-2.4,1.6c-0.1,4.5-0.1,7.2-0.1,10.1
		c0,1.1,0,2,0,4.4h1.9c1.8-2.4,2.4-3.2,4.4-5.5c3,2.4,3.9,3.2,6.8,5.9c0.3,0.3,0.4,0.5,0.4,0.7c0,0.3-0.3,0.4-0.7,0.4h-12.7
		c0.1,17,0.1,17,0.3,23.2c0,0.7-0.1,1.1-0.3,1.4c-0.5,0.5-2.6,0.8-4.9,0.8c-1.9,0-2.4-0.4-2.4-1.8l0.1-0.1V47h-10.5v4.1
		c0,0.7-0.1,0.9-0.2,1.2c-0.5,0.7-2.1,1-5.1,1c-1.9,0-2.4-0.3-2.4-1.5c0-0.1,0-0.1,0-0.3c0.3-15.9,0.3-15.9,0.3-18.6
		c0-1,0-2.4-0.1-3.4c0-0.3,0-0.6,0-0.8c0-0.4,0-0.7,0.1-1.5h-9.5v35.2h32.2c2.2-2.7,2.8-3.5,5.1-6.2c3.4,2.8,4.5,3.7,7.8,6.6
		c0.3,0.3,0.4,0.5,0.4,0.7c0,0.3-0.3,0.4-0.8,0.4h-44.7v2.6c0,0.1,0,0.3,0,0.4c0,1.4-1.4,1.9-5.9,1.9c-1.6,0-2.1-0.3-2.1-1.6
		c0,0,0-0.1,0-0.1c0.3-10.9,0.3-15.5,0.3-25.9V27.3h-2.8c-2.4,0-3.8,0.1-5.6,0.4l-0.4-2.4c1.8,0.3,4.1,0.5,6,0.5h2.8
		c-0.1-13.6-0.1-13.6-0.5-18.2c9.9,0.9,10.7,1,10.7,2c0,0.5-0.7,0.9-2.6,1.6v14.6H1298.6z M1306.1,45.6h10.5V27.3h-10.5V45.6z"/>
	<path d="M1361.1,33.4v1.8c0,0.6-0.1,0.9-0.5,1.1c-0.6,0.4-2.4,0.7-4.4,0.7c-2.1,0-2.6-0.3-2.6-1.5c0.2-5.3,0.3-7.6,0.3-13.6
		c0-7.4-0.1-10.5-0.3-15.5c3.8,1.6,4.9,2.2,8.6,4.1h30.3c1.6-1.7,2.2-2.2,3.9-3.9c2.4,1.8,3.2,2.3,5.7,4.1c0.5,0.5,0.7,0.7,0.7,1.1
		c0,0.6-0.6,1.1-2.4,1.8c0,2.4,0,4.1,0,5.2c0,6,0.1,11.1,0.3,16c0,0.7-0.1,1-0.4,1.2c-0.5,0.5-2.6,0.8-4.8,0.8
		c-1.8,0-2.2-0.3-2.3-1.4v-2H1381c1.9,2.2,3.9,3.6,7.3,5.4c5.3,2.8,12.3,4.4,21.6,4.9l-0.1,0.7c-2.5,1-4,2.7-4.9,5.7
		c-0.3,1-0.5,1.2-1,1.2c-2,0-8.3-2.8-12.4-5.5c-0.4,0.1-0.5,0.2-1.1,0.3v6.1c0,0.7,0.1,5.4,0.3,14.2c-0.1,1.6-1.1,2-4.9,2
		c-2.4,0-2.8-0.2-2.8-1.4c0.2-7.9,0.2-9.3,0.2-10.8c0-10.5,0-11.1-0.2-13.6c2.4,0.3,3.6,0.4,5,0.6c-3-2.4-4.3-3.8-6.2-6.6
		c-1.2-1.8-1.6-2.4-2-3.4h-3.2c-3.2,4.6-4.8,6.1-8.9,9.2c5.5,0.8,6,0.9,6,1.7c0,0.5-0.6,0.9-2.3,1.6c-0.4,5.7-0.9,8.2-2.2,11.1
		c-1.9,4.3-6.1,7.8-11.2,9.7c-3.2,1.2-5.5,1.7-10.8,2.6l-0.3-0.9c7.3-3,10.1-4.7,12.9-8.3c2.7-3.4,3.9-7.8,3.9-14.1
		c0-0.1,0-0.4,0-0.7c-5.6,3.4-10,5-18.3,6.8l-0.3-0.8c7.2-3.2,11.3-5.7,15.6-9.4c3.2-2.8,4.9-4.9,7.2-8.4H1361.1z M1373.2,21v-9.2
		h-12.1V21H1373.2z M1373.2,22.5h-12.1V32h12.1V22.5z M1393.2,11.8h-12.8V21h12.8V11.8z M1380.4,22.5V32h12.8v-9.5H1380.4z"/>
</g>
</svg>
