<?xml version="1.0" encoding="utf-8"?>
<!-- Generator: Adobe Illustrator 18.0.0, SVG Export Plug-In . SVG Version: 6.00 Build 0)  -->
<!DOCTYPE svg PUBLIC "-//W3C//DTD SVG 1.1//EN" "http://www.w3.org/Graphics/SVG/1.1/DTD/svg11.dtd">
<svg version="1.1" id="圖層_1" xmlns="http://www.w3.org/2000/svg" xmlns:xlink="http://www.w3.org/1999/xlink" x="0px" y="0px"
	 viewBox="0 0 152 72" enable-background="new 0 0 152 72" xml:space="preserve">
<g>
	<path d="M2.4,60.7c3.4-0.1,4.4-0.2,5.5-0.9c1.7-0.9,2.2-2.8,2.2-7.5V18.6c-0.1-3.7-0.1-3.7-0.2-4.4c-0.3-1.6-1.2-2-5-2h-2v-2.1
		c7-0.6,12.3-1.3,17.2-2.2c-0.4,5.2-0.7,11.4-0.7,18.5v25.9c0,4.5,0.4,6.3,1.8,7.3c1,0.8,1.9,1,5.7,1v2.1H2.4V60.7z"/>
	<path d="M45.4,15.1c3.1-4.6,8.3-7.2,14.2-7.2c5.9,0,11.1,2.6,14.2,7.2c3.5,5.2,5.4,12.4,5.4,20.9c0,8.4-1.8,15.6-5.4,20.8
		c-3.1,4.6-8.3,7.3-14.2,7.3c-5.9,0-11.2-2.6-14.2-7.3C42,51.5,40,44.2,40,35.9C40,27.5,41.9,20.4,45.4,15.1z M52.2,55.8
		c1.6,4.3,4.1,6.4,7.5,6.4c3.7,0,6.3-2.5,7.9-7.6c1.3-4,1.9-9.9,1.9-18.6c0-9.5-0.7-15.6-2.3-19.8c-1.6-4.3-4-6.4-7.5-6.4
		c-6.8,0-9.8,8-9.8,26.2C49.8,45.3,50.5,51.6,52.2,55.8z"/>
	<path d="M130.2,12.5c1.8-1.8,2.4-2.3,4.4-4c3.2,2.4,4.1,3.2,7.1,5.8c0.4,0.4,0.5,0.6,0.5,0.9s-0.1,0.6-0.4,0.8
		c-0.4,0.3-0.4,0.3-3.5,1c-8.2,10.9-15.3,17.6-25.3,24.2h24.7c1.8-1.8,2.4-2.4,4.5-4.4c3,2.1,4,2.7,6.8,4.9c0.4,0.4,0.5,0.6,0.5,1
		c0,0.9-1,1.5-3.2,2.4c0.1,9.3,0.1,12.9,0.2,16.4c0.1,4.4,0.1,4.4,0.1,6.1c-0.1,1-0.4,1.5-1.2,1.7c-0.8,0.2-3.4,0.4-5.4,0.4
		c-1.5,0-1.9-0.3-2-1.3v-3.3h-26.4v3.2c-0.1,0.8-0.4,1.2-1.5,1.4c-0.8,0.2-2.9,0.4-4.4,0.4c-1.9,0-2.4-0.3-2.5-1.4
		c0.4-6,0.6-12.9,0.6-22.3c-6.1,3.1-11.7,5.1-19.4,7l-0.3-0.7c9.9-4.9,16.4-8.9,23.2-14.2c5.8-4.6,11.3-10,16.1-15.6
		c2.5-3,3.7-4.7,6.3-8.8h-17c-3.2,3.5-3.7,3.9-7,6.9c0.8,0.4,0.8,0.4,4.8,2.2c3.2,1.4,4.7,3.1,4.7,5.1c0,2.8-2.6,5.8-5,5.8
		c-1,0-1.3-0.4-1.7-2.7c-0.7-4.6-1.8-7.1-3.7-9.6C99,26.7,95.3,29,86.4,33L86,32.3c6-4.7,10.9-9.5,15.6-15.5
		c5-6.4,7.6-10.7,8.7-14.8c2.4,0.7,4.3,1.2,5.5,1.5c5.7,1.5,6.5,1.8,6.5,2.6s-0.5,1-3.7,1.5c-2.2,2.6-2.9,3.5-4.3,5H130.2z
		 M111.8,63.5h26.4V42.7h-26.4V63.5z"/>
</g>
</svg>
