<?xml version="1.0" encoding="utf-8"?>
<!-- Generator: Adobe Illustrator 18.0.0, SVG Export Plug-In . SVG Version: 6.00 Build 0)  -->
<!DOCTYPE svg PUBLIC "-//W3C//DTD SVG 1.1//EN" "http://www.w3.org/Graphics/SVG/1.1/DTD/svg11.dtd">
<svg version="1.1" id="圖層_1" xmlns="http://www.w3.org/2000/svg" xmlns:xlink="http://www.w3.org/1999/xlink" x="0px" y="0px"
	 viewBox="0 0 114 72" enable-background="new 0 0 114 72" xml:space="preserve">
<g>
	<path d="M8.2,35.5c4.6-4.3,8.6-5.9,14.2-5.9c10.7,0,17.4,6.3,17.4,16.5C39.8,57,32.1,64,19.9,64c-9.6,0-17.1-4.6-17.1-10.6
		c0-2.8,1.8-4.3,5.2-4.3c1.7,0,3,0.4,3.7,1.2c0.5,0.6,0.7,1.2,0.7,3.3c0.1,2.7,0.7,4.6,2.1,6c1.4,1.5,3.5,2.4,5.7,2.4
		c3,0,5.5-1.3,7.2-3.7c1.8-2.7,2.8-6.8,2.8-11.3c0-9.3-3.8-14.6-10.4-14.6c-4.8,0-9.4,3-12.3,8L5,39.8L7.4,9h30l-1.3,8.2H9.7
		L8.2,35.5z"/>
	<path d="M91.9,12.5c1.8-1.8,2.4-2.3,4.4-4c3.2,2.4,4.1,3.2,7.1,5.8c0.4,0.4,0.5,0.6,0.5,0.9s-0.1,0.6-0.4,0.8
		c-0.4,0.3-0.4,0.3-3.5,1c-8.2,10.9-15.3,17.6-25.3,24.2h24.7c1.8-1.8,2.4-2.4,4.5-4.4c3,2.1,4,2.7,6.8,4.9c0.4,0.4,0.5,0.6,0.5,1
		c0,0.9-1,1.5-3.2,2.4c0.1,9.3,0.1,12.9,0.2,16.4c0.1,4.4,0.1,4.4,0.1,6.1c-0.1,1-0.4,1.5-1.2,1.7c-0.8,0.2-3.4,0.4-5.4,0.4
		c-1.5,0-1.9-0.3-2-1.3v-3.3H73.4v3.2C73.3,69,73,69.4,72,69.6c-0.8,0.2-2.9,0.4-4.4,0.4c-1.9,0-2.4-0.3-2.5-1.4
		c0.4-6,0.6-12.9,0.6-22.3c-6.1,3.1-11.7,5.1-19.4,7L46,52.7c9.9-4.9,16.4-8.9,23.2-14.2c5.8-4.6,11.3-10,16.1-15.6
		c2.5-3,3.7-4.7,6.3-8.8h-17c-3.2,3.5-3.7,3.9-7,6.9c0.8,0.4,0.8,0.4,4.8,2.2c3.2,1.4,4.7,3.1,4.7,5.1c0,2.8-2.6,5.8-5,5.8
		c-1,0-1.3-0.4-1.7-2.7c-0.7-4.6-1.8-7.1-3.7-9.6C60.7,26.7,57,29,48.1,33l-0.4-0.7c6-4.7,10.9-9.5,15.6-15.5C68.2,10.4,70.8,6,72,2
		c2.4,0.7,4.3,1.2,5.5,1.5c5.7,1.5,6.5,1.8,6.5,2.6s-0.5,1-3.7,1.5c-2.2,2.6-2.9,3.5-4.3,5H91.9z M73.4,63.5h26.4V42.7H73.4V63.5z"
		/>
</g>
</svg>
