<?xml version="1.0" encoding="utf-8"?>
<!-- Generator: Adobe Illustrator 18.0.0, SVG Export Plug-In . SVG Version: 6.00 Build 0)  -->
<!DOCTYPE svg PUBLIC "-//W3C//DTD SVG 1.1//EN" "http://www.w3.org/Graphics/SVG/1.1/DTD/svg11.dtd" [
	<!ENTITY ns_flows "http://ns.adobe.com/Flows/1.0/">
	<!ENTITY ns_extend "http://ns.adobe.com/Extensibility/1.0/">
	<!ENTITY ns_ai "http://ns.adobe.com/AdobeIllustrator/10.0/">
	<!ENTITY ns_graphs "http://ns.adobe.com/Graphs/1.0/">
]>
<svg version="1.1" id="圖層_1" xmlns:x="&ns_extend;" xmlns:i="&ns_ai;" xmlns:graph="&ns_graphs;"
	 xmlns="http://www.w3.org/2000/svg" xmlns:xlink="http://www.w3.org/1999/xlink" xmlns:a="http://ns.adobe.com/AdobeSVGViewerExtensions/3.0/"
	 x="0px" y="0px" viewBox="0 0 986 72" style="enable-background:new 0 0 986 72;" xml:space="preserve">
<g>
	<path d="M56.3,30.7c1.6-1.6,2.1-2.1,3.6-3.4c3.2,2.2,4.2,3,7.4,5.6c0.6,0.5,0.9,0.9,0.9,1.3c0,0.6-0.8,0.9-2.3,0.9
		c-0.4,0-0.9,0-1.7-0.1c-4.5,2.8-5.9,3.6-7.9,4.6l2.3,1.8c0.6,0.6,0.9,0.9,0.9,1.1c0,0.6-0.7,1.1-2.3,2v6.4c0,0.6,0,1.9,0.1,3.7
		c0,0.7,0.1,1.8,0.1,3.3c0,3.1-0.7,4.4-2.7,5.3c-1.6,0.7-4.9,1.4-6.4,1.4c-1,0-1.1-0.1-1.3-1.5c-0.1-1.6-0.6-2.9-1.4-3.6
		c-0.9-0.9-2.1-1.4-5.9-2.1v-0.8c1.4,0.1,2.5,0.1,3.2,0.2c2.9,0.3,3.4,0.3,5.6,0.4c0.1,0,0.2,0,0.2,0c0.7,0,1-0.4,1-1.1V42.5H37.8
		v13.9l0.2,6.1c0,0.9,0.1,2.2,0.1,4.1c-0.1,0.8-0.2,1.2-0.6,1.4c-0.7,0.4-2.2,0.6-4.1,0.6c-0.4,0-0.6,0-0.6,0c-0.3,0-0.5,0-0.5,0
		c-1.6,0-2.2-0.4-2.4-1.5c0.2-7,0.3-11.6,0.3-16.7v-8.1H19.5v19.8c0,0.9-0.1,1.3-0.5,1.5c-0.7,0.4-2.6,0.7-5,0.7
		c-1.9,0-2.4-0.2-2.4-1.3c0.3-7.9,0.4-9.7,0.4-14.2c0-5.8-0.1-8.3-0.4-12c-1.1,4.2-3.6,7-6.3,7c-2.1,0-3.7-1.9-3.7-4.4
		c0-0.9,0.3-1.8,0.8-2.4c0.6-0.7,0.6-0.7,3.1-2.1c3.4-1.9,4.6-3.9,4.9-8.3h0.8c0.6,2,0.7,2.6,0.9,3.9H56.3z M23.9,11.8
		c0-5.9-0.1-7-0.3-9.8C32,3,32,3,32.5,3.1C33,3.3,33.4,3.6,33.4,4c0,0.6-0.9,1.1-2.9,1.5v6.3h6V8.9c0-3.3-0.1-4.2-0.4-6.7
		c2,0.3,3.6,0.4,4.6,0.5C44.9,3.1,46,3.4,46,4.1c0,0.6-0.9,1.1-2.6,1.4v6.2h4.8V9.1c0-3.1-0.1-4.1-0.3-6.5c2,0.2,3.5,0.4,4.5,0.6
		c4.1,0.5,5.1,0.8,5.1,1.5c0,0.5-0.7,1-2.6,1.7v5.4h2.8c1.4-1.6,2.8-3.1,4.1-4.6c2.9,2.3,3.7,2.9,6.4,5.2c0.2,0.2,0.3,0.4,0.3,0.4
		c0,0.3-0.4,0.6-0.6,0.6h-13v6.6c0,1.1,0,1.1,3.2,1.1c2.1,0,2.6-0.1,3.1-0.8c0.5-0.6,1.3-2.2,2.9-6h0.6v4.4c0,1.5,0,1.6,0.8,1.9
		c1.4,0.6,1.9,1.4,1.9,2.6c0,1.3-0.7,2.3-2.1,3c-1.4,0.6-2.3,0.7-9.5,0.7c-6.2,0-7.5-0.6-7.7-3.3l0.1-6.4v-3.8h-4.9
		c0,0.9,0,1.6,0,1.9c0,1.9,0,2,0.2,10.4c-0.1,0.6-0.2,1-0.5,1.1c-0.6,0.4-2,0.6-3.8,0.6c-2.3,0-2.6-0.1-2.7-1.2v-2.1h-6v2
		c-0.1,0.7-0.3,1-0.9,1.1c-0.9,0.3-2.3,0.4-3.6,0.4c-1.7,0-2.1-0.2-2.3-1.3c0.2-7.4,0.2-8.9,0.2-13H19c-0.7,3.5-1.6,5.7-3.1,8
		c-2.6,3.8-5.7,5.9-12.8,8.8l-0.4-0.8c3.6-2.8,5.5-4.9,7.1-8.1c1.1-2.1,1.6-4.1,2.1-7.9H7c-1.4,0-3.6,0.2-4.9,0.4l-0.5-2.6
		c1.6,0.4,3.2,0.6,5.4,0.6h5.1c0.1-1.4,0.1-2.8,0.1-4.4c0-1.4-0.1-2.6-0.4-5.2c2.1,0.2,3.8,0.4,4.8,0.5c4.4,0.4,5.4,0.6,5.4,1.4
		c0,0.6-0.6,1-2.6,1.6c-0.1,3.1-0.1,4.1-0.4,6.1H23.9z M12.1,32.2c0,1.8-0.1,2.7-0.4,4.2c3.4,1.7,4.6,2.3,8.3,4.5h10.1v-8.7H12.1z
		 M30.5,22.5h6v-9.2h-6V22.5z M37.8,41h11.4c1.8-1.6,2.4-2.1,4.1-3.7l1.6,1.3c0.6-1.5,0.6-1.5,1.6-6.3H37.8V41z"/>
	<path d="M127.7,14c2.2-2.6,2.9-3.4,5.1-5.9c3.7,2.6,4.8,3.4,8.2,6.3c0.3,0.3,0.4,0.5,0.4,0.6c0,0.2-0.3,0.4-0.7,0.4h-23.5v11.6
		h15.2c2.4-2.7,3.1-3.6,5.5-6.2c3.8,2.7,4.9,3.5,8.4,6.4c0.4,0.4,0.5,0.6,0.5,0.8c0,0.3-0.3,0.4-0.8,0.4h-28.9v12.5h8.9
		c2.4-2.8,3.1-3.6,5.6-6.3c3.6,2.7,4.7,3.6,8.1,6.7c0.4,0.3,0.5,0.5,0.5,0.7c0,0.3-0.3,0.4-0.8,0.4h-22.3v15.3
		c2.9,0.3,5.4,0.4,8.8,0.4c5.7,0,10.4-0.3,20.4-1.3l0.1,0.7c-2.5,1.6-3.7,3.4-4.2,6.4c-0.3,1.6-0.4,1.7-1.1,1.8
		c-0.6,0.1-5.1,0.1-8,0.1c-11.7,0-17.9-0.8-22.2-2.7c-3.7-1.8-7.2-4.6-9.2-7.5c-1.6-2.3-3.7-6.2-4.6-8.9c-3.7,9.1-7.9,14-17.9,20.9
		l-0.5-0.6c4.9-6,7.5-10.7,9.8-17.4c1.9-5.7,3.1-11.8,3.1-15.8c0-0.2,0-0.6,0-1.1c10.7,1.9,11.2,1.9,11.2,2.9c0,0.6-0.6,1-2.7,1.6
		c-1.1,4.2-1.6,5.6-2.4,7.7c1.6,2.9,2.4,4,4,5.7c2.4,2.5,4.5,4.1,7.2,5.3V28.6H86c-1.5,0-2.9,0.1-4.4,0.5l-0.5-2.6
		c1.7,0.4,3.3,0.6,4.9,0.6h23.1V15.5H92.2c-1.6,0-3.4,0.1-4.9,0.5l-0.5-2.6c1.7,0.4,3.4,0.6,5.4,0.6h16.9v-1.4
		c0-5.9-0.1-7.4-0.4-10.3c10.4,0.9,11.7,1.1,11.7,2.1c0,0.7-0.6,1.1-3.1,1.7V14H127.7z"/>
	<path d="M213.1,11.9c1.4-1.4,1.9-1.7,3.4-2.9c2.1,1.2,2.8,1.6,4.8,3.1c0.6,0.4,0.9,0.6,0.9,0.9c0,0.5-0.5,0.9-1.9,1.8
		c0.1,1.3,0.1,1.4,0.1,3.1c0,0.1,0,0.5-0.1,0.9c-0.1,0.7-0.4,0.9-1.4,1.1c-1,0.1-2.1,0.1-3.7,0.1c1.5,1,2,1.3,3.9,2.6
		c0.1,0.2,0.3,0.4,0.3,0.5c0,0.2-0.3,0.4-0.8,0.4h-16.9v3h9.7c1-0.9,1.9-1.8,2.9-2.6c2.1,1.4,2.9,1.8,5,3.3c0.1,0.1,0.3,0.4,0.3,0.4
		c0,0.2-0.4,0.4-0.7,0.4h-4.4c2.5,1.8,4.2,2.9,5,3.5c0.1,0.2,0.2,0.4,0.2,0.4c0,0.3-0.3,0.4-0.8,0.4h-17.1V34c0,1.4,0.4,1.7,1.9,1.7
		c0.1,0,0.3,0,0.5,0c0.4,0,2.6,0,5.6,0.1c0.6,0,1.1,0,1.5,0c5.6,0,6.9-0.1,7.4-0.9c0.4-0.6,2.1-4.6,3.7-9l0.6,0.1l-0.4,7.2
		c0,0.4,0,0.6,0,0.7c0,0.4,0.1,0.7,0.7,1c1.5,0.9,1.8,1.1,1.8,2.2c0,2.1-1.9,3-6.9,3.3c3.1,2.1,3.6,2.4,6.4,4.4
		c0.3,0.3,0.4,0.5,0.4,0.7c0,0.3-0.4,0.6-0.8,0.6h-15.9c6.4,2.7,8.5,3.8,8.5,4.4c0,0.5-0.9,0.9-2.1,0.9c-0.4,0-1,0-1.5-0.1
		c-1.2,0.4-1.2,0.4-5.1,1.6c-2,0.6-3.6,1.1-5,1.4c6.8,3.3,12.6,4.6,22.6,5.5l-0.1,0.6c-2.6,1.2-4,2.4-5.1,4.4
		c-0.4,0.7-0.4,0.9-0.9,2.4c-0.1,0.4-0.3,0.6-0.6,0.6c-0.3,0-0.6-0.1-1.1-0.3c-0.1,0-0.5-0.1-1-0.3c-3.6-1.1-8.9-3.7-11.9-5.8
		c-4.6-3-8.3-7-10.9-11.9c-0.4-0.8-0.7-1.4-1.6-3.4h-0.9c-2.9,2.3-4.2,3.2-6.9,4.9l-0.1,8.3c6.4-0.6,8.3-0.9,13.9-1.9l0.1,0.9
		c-6.9,3.1-16,6.2-27.2,9.2c-0.2,1.9-0.5,2.4-1.2,2.4c-0.3,0-0.6-0.1-0.7-0.4c-0.4-0.4-0.4-0.7-1.1-3.1c-0.7-2.8-1.2-4.6-1.5-5.7
		c4.5-0.1,6.4-0.2,10.6-0.7v-5.5c-5.6,2.3-10.7,3.7-18.7,5.1l-0.2-0.7c9.7-3.4,18.4-8.3,23.3-12.8h-16.2c-1.4,0-3.4,0.1-4.7,0.4
		l-0.6-2.5c2.1,0.4,3.9,0.6,5.3,0.6h21.6v-2.4c0-0.6,0-0.8-0.1-2.1c-1.7,0.9-2.6,1.3-4.6,1.6c-0.3,0-0.4,0.1-0.5,0.1
		c-0.3,0.1-0.5,0.1-0.6,0.1c-0.4,0-0.5-0.1-0.5-0.5c-0.1-1.2-0.2-1.7-0.7-2.4c-1-1.1-2.4-1.7-5.8-2.4v-0.7c2.5,0.1,2.8,0.1,7.2,0.3
		c0.7-0.1,0.9-0.4,0.9-1.1v-2.6h-12.2v8.2c-0.1,1.1-0.9,1.3-5.6,1.3c-1.2,0-1.5-0.2-1.6-1.1c0.2-6,0.3-9.4,0.3-13.3
		c0-3.4-0.1-4.2-0.3-9.1c3.3,1.1,4.3,1.5,7.5,2.7h11.4c1.2-1.3,1.6-1.7,2.9-3c2.5,1.4,3.2,1.8,5.5,3.2c0.4,0.4,0.6,0.6,0.6,0.9
		s-0.4,0.7-2,1.8c0.1,8.8,0.1,8.8,0.1,12.7l-0.1,1c1.4,0.1,1.4,0.1,2.6,0.3c1.6,0.1,1.6,0.1,3.1,0.3c-0.4-0.9-0.4-1.1-0.5-2.2
		c0.1-6,0.1-8.4,0.1-11.7c0-4.6-0.1-7-0.2-8.8c3.3,0.6,4.3,0.9,7.7,1.6h11.4v-4.1h-11.7v0.8c-0.1,0.5-0.4,0.7-0.8,0.8
		c-0.4,0.1-2.8,0.2-4,0.2c-2.2,0-2.5-0.1-2.5-1.2c0.1-1.9,0.1-2.6,0.1-4.9c0-2.9-0.1-5.6-0.2-6.9c8.6,0.6,9.6,0.8,9.6,1.7
		c0,0.6-0.4,0.8-2.2,1.6V7h10.9c1.2-1.4,2.6-2.9,4.1-4.5c2.8,2.1,3.6,2.8,6.3,5c0.2,0.1,0.4,0.4,0.4,0.4c0,0.3-0.4,0.6-0.7,0.6
		h-20.9v3.4H213.1z M183.9,7.9c1.4-1.6,1.8-2.1,3.2-3.6c3,2.4,3,2.4,5.1,4.1c0.1,0.2,0.3,0.4,0.3,0.6c0,0.3-0.3,0.4-0.9,0.4h-9.5
		c4.9,1.4,5.2,1.6,5.2,2.1c0,0.2-0.2,0.5-0.4,0.6c-0.1,0-0.6,0.1-1.9,0.4c-1.7,1.5-3.4,2.9-5.5,4.1h5.8c1.4-1.6,1.8-2.1,3.1-3.6
		c2.1,1.6,2.7,2.1,4.7,3.8c0.2,0.3,0.4,0.6,0.4,0.7c0,0.3-0.4,0.6-0.8,0.6h-30.1c-0.9,0-1.6,0.1-3.1,0.4l-0.6-2.4
		c0.9,0.2,2.9,0.5,3.7,0.5h5.9c-0.6-0.4-0.6-0.5-1-3.1c-0.2-1.3-0.9-3-1.5-4.1h-2.4c-0.6,0-1.1,0.1-3.1,0.3l-0.6-2.3
		c1.2,0.3,2.9,0.5,3.7,0.5h8.6V6c0-0.8-0.2-2.7-0.4-3.9c9.1,0.7,9.9,0.9,9.9,1.7c0,0.6-0.4,0.9-2.4,1.5v2.6H183.9z M168.3,9.4
		c3.7,1.5,5,2.6,5,4.2c0,1.2-0.8,2.3-2.1,3h6.6c0.8-1.8,1.5-4.5,1.9-7.2H168.3z M182.7,22.7h-12.2v3.5h12.2V22.7z M182.7,27.7h-12.2
		V31h12.2V27.7z M194.3,46.2c2.4,3.6,3.9,5.2,7.2,7.2c3.3-2.6,5.6-5,7-7.2H194.3z M213.2,44.7c1.7-2,2.1-2.4,3.7-4.1
		c-2.2,0.1-4.4,0.1-8.4,0.1c-8,0-9.9-0.1-11.8-0.7c-0.5,0.3-0.6,0.4-1.3,0.6v4.1H213.2z M212,22.2c0.9-0.9,1.1-1.2,2-2.1
		c-0.4-0.2-0.5-0.3-0.6-0.7v-0.4h-11.7v3.2H212z M201.7,28.2V31h9.7c1.2-1.2,1.6-1.6,2.9-2.9H201.7z"/>
	<path d="M253.2,33.6c3.1-0.8,4.2-1.1,7.5-2.2l0.4,0.7c-2.7,2.1-3.9,2.9-7.9,5.1v9.5c0,6.7,0,6.7,0.1,13.9c0,3.2-0.6,4.6-2.9,5.9
		c-1.4,0.8-3.9,1.4-6.1,1.4c-1,0-1.1-0.3-1.2-1.6c-0.1-2-0.6-3.3-1.7-4.1c-1-0.8-1.1-0.9-5-2.4v-0.9c3.1,0.3,4.1,0.4,7.9,0.5
		c1.1,0,1.3-0.1,1.3-1.1V41.4c-1.9,1.1-2.2,1.4-3.6,2.1c-0.4,2.4-0.6,3-1.4,3c-0.4,0-0.6-0.3-1-1.1c-0.4-1.1-1.5-4.9-2.5-8.7
		c3.6-0.3,4.8-0.5,8.5-1.4V19.7H242c-1.6,0-2.6,0.1-4,0.5l-0.6-2.6c1.7,0.4,3.1,0.6,4.6,0.6h3.6v-6.7c0-3.8-0.1-6.2-0.3-9.2
		c8.6,0.7,9,0.8,9.9,1.1c0.6,0.2,0.9,0.5,0.9,0.9c0,0.6-0.8,1.1-2.9,1.9v12.1h0.4c1.2-1.9,1.6-2.4,2.9-4.2c1.9,1.8,2.5,2.4,3.6,3.7
		c2.5-4.7,4.2-9.3,4.9-13.3c8.9,2.4,9.6,2.6,9.6,3.4c0,0.6-0.8,1-2.9,1.1c-5.6,6.5-8.3,9-12.8,12l-0.5-0.5l0.5-0.8h-5.8V33.6z
		 M266.7,21c-1.8,0-2.6,0.1-3.7,0.4l-0.6-2.4c1.4,0.4,2.5,0.5,4.3,0.5h5.4c2.6-6.6,3.9-11.7,4.3-17.2c2,0.4,3.5,0.7,4.5,0.9
		c5.3,0.9,6.2,1.2,6.2,2.1c0,0.6-0.7,1-3.1,1.5c-2,6.5-2.9,9.2-4.4,12.7h6.7c1.7-2.1,2.2-2.7,4-4.6c2.9,2.1,3.7,2.9,6.4,5.2
		c0.2,0.2,0.4,0.4,0.4,0.5c0,0.3-0.3,0.4-0.6,0.4h-12.7c1.5,3.6,2.5,5.1,5,8h4.4c2-2.3,2.6-3,4.7-5.2c3,2.4,3.9,3.1,6.7,5.7
		c0.2,0.3,0.3,0.4,0.3,0.6c0,0.3-0.3,0.4-0.8,0.4h-13.5c1.5,1.4,2.8,2.4,4.7,3.6c3.8,2.4,6.3,3.4,10.6,4.5v0.7
		c-2.4,1.1-3.9,2.6-4.8,4.8c-0.5,1.2-0.6,1.3-1.1,1.3c-0.8,0-3.9-2.2-6.4-4.6c-0.4,0.3-0.6,0.4-1.3,0.7c-0.1,4.4-0.1,5.3-0.4,6.7
		c-0.6,3.5-1.9,5.5-4.2,6.5c-1.3,0.5-3.6,1-4.9,1c-0.6,0-0.9-0.2-0.9-1c-0.2-3.4-1.2-4.1-7-5.2v-0.9c2.9,0.2,6.6,0.4,8.3,0.4
		c1.4,0,1.6-0.3,1.9-2c0.1-1.1,0.3-3.4,0.4-7.5h-12.9v18.1c0,1.6,0.4,1.9,2.4,1.9c1.1-0.1,3.8,0,7.5,0.1c0.8,0,1.4,0,1.9,0
		c6,0,7.1-0.2,8.2-1.4c1-1.1,2.9-4.9,5.1-10.7l0.9,0.1l-0.8,8.6c-0.1,0.4-0.1,0.8-0.1,1c0,0.5,0.2,0.7,0.9,0.9
		c1.9,0.7,2.6,1.6,2.6,3.4c0,2.2-1.1,3.5-3.6,4.1c-2.2,0.5-4.9,0.6-15.7,0.6c-10.9,0-13.2-0.1-14.9-1.1c-1.4-0.7-1.8-1.8-1.8-4.4
		V39.6c-3.5,3.1-5.8,4.6-10.6,7.3l-0.5-0.7c6.4-5.9,9.2-9.3,13.1-15.7h-5.2c-1.4,0-2.7,0.1-4.1,0.4l-0.6-2.4
		c1.9,0.4,2.7,0.5,4.6,0.5h6.2c1.5-2.8,2.5-4.9,3.7-8H266.7z M273,30.5c-1.6,2.1-2.5,3.3-4.3,5.3c1.1,0.6,2.1,1.1,3.9,2.1h12
		c0.7-0.6,1.9-1.7,3.5-3.1c-1-1.5-1.6-2.5-2.5-4.3H273z M278.7,21c-1.6,3.4-2.5,5.1-4.4,8H285c-1.4-3.1-2.1-5.1-2.7-8H278.7z
		 M288.1,6.6c9.9,2.1,13.7,4.6,13.7,8.7c0,2.4-1.9,4.9-3.6,4.9c-1.1,0-1.4-0.4-3-3.5c-1.7-3.2-4.1-6.2-7.5-9.4L288.1,6.6z"/>
	<path d="M342.8,22.7c-0.1-15.8-0.1-15.8-0.4-19.2c8.4,0.7,9.2,0.8,10,1.1c0.6,0.1,0.9,0.5,0.9,0.9c0,0.6-0.7,1.1-2.6,1.7v15.5h11.2
		V11.3c0-2.8-0.2-5.5-0.6-7.9c8.5,0.8,9.1,0.9,10.1,1.2c0.6,0.3,0.9,0.6,0.9,0.9c0,0.6-0.8,1.1-2.6,1.7c-0.1,4.7-0.1,7.7-0.1,10.7
		c0,1.1,0,2.1,0,4.6h2c1.9-2.6,2.6-3.4,4.6-5.9c3.1,2.6,4.1,3.4,7.2,6.2c0.3,0.4,0.4,0.5,0.4,0.7c0,0.3-0.3,0.4-0.8,0.4h-13.4
		c0.1,17.9,0.1,17.9,0.4,24.6c0,0.8-0.1,1.1-0.4,1.4c-0.6,0.5-2.8,0.9-5.2,0.9c-2,0-2.6-0.4-2.6-1.9l0.1-0.1V45h-11.2v4.4
		c0,0.7-0.1,1-0.2,1.3c-0.5,0.7-2.2,1.1-5.4,1.1c-2,0-2.6-0.4-2.6-1.6c0-0.1,0-0.1,0-0.3c0.3-16.8,0.3-16.8,0.3-19.7
		c0-1.1,0-2.5-0.1-3.6c0-0.4,0-0.6,0-0.9c0-0.4,0-0.8,0.1-1.6h-10v37.3h34.1c2.3-2.9,3-3.7,5.4-6.6c3.6,3,4.7,3.9,8.2,6.9
		c0.3,0.4,0.4,0.6,0.4,0.7c0,0.3-0.3,0.4-0.9,0.4h-47.3v2.8c0,0.1,0,0.4,0,0.4c0,1.5-1.4,2-6.2,2c-1.7,0-2.2-0.4-2.2-1.7
		c0,0,0-0.1,0-0.1c0.3-11.6,0.4-16.4,0.4-27.4V24.2h-2.9c-2.6,0-4,0.1-5.9,0.4l-0.4-2.5c1.9,0.4,4.4,0.6,6.4,0.6h2.9
		c-0.1-14.4-0.1-14.4-0.5-19.2c10.4,0.9,11.3,1.1,11.3,2.1c0,0.6-0.7,1-2.7,1.7v15.4H342.8z M350.7,43.5h11.2V24.2h-11.2V43.5z"/>
	<path d="M410.7,30.6v1.9c0,0.6-0.1,1-0.5,1.2c-0.6,0.4-2.5,0.7-4.6,0.7c-2.2,0-2.8-0.3-2.8-1.6c0.2-5.6,0.3-8.1,0.3-14.4
		c0-7.8-0.1-11.2-0.4-16.4c4,1.7,5.2,2.3,9.2,4.3H444c1.7-1.8,2.3-2.3,4.1-4.1c2.6,1.9,3.4,2.4,6,4.3c0.6,0.5,0.8,0.8,0.8,1.2
		c0,0.6-0.6,1.1-2.6,1.9c0,2.5,0,4.4,0,5.5c0,6.4,0.1,11.8,0.3,16.9c0,0.7-0.1,1.1-0.4,1.3c-0.6,0.5-2.7,0.9-5.1,0.9
		c-1.9,0-2.4-0.3-2.4-1.4v-2.1h-12.9c2,2.3,4.1,3.9,7.7,5.7c5.6,2.9,13,4.6,22.8,5.2l-0.1,0.8c-2.6,1.1-4.2,2.9-5.1,6
		c-0.4,1.1-0.5,1.3-1.1,1.3c-2.1,0-8.8-2.9-13.2-5.8c-0.4,0.1-0.6,0.2-1.1,0.4v6.5c0,0.7,0.1,5.7,0.3,15c-0.1,1.6-1.1,2.1-5.2,2.1
		c-2.6,0-3-0.2-3-1.5c0.2-8.4,0.2-9.9,0.2-11.4c0-11.1,0-11.7-0.2-14.4c2.6,0.3,3.9,0.4,5.3,0.6c-3.1-2.5-4.6-4-6.6-6.9
		c-1.3-1.9-1.6-2.5-2.1-3.6h-3.4c-3.4,4.9-5.1,6.5-9.4,9.7c5.8,0.9,6.4,1,6.4,1.8c0,0.6-0.6,1-2.4,1.6c-0.4,6.1-0.9,8.7-2.3,11.7
		c-2,4.5-6.4,8.3-11.9,10.3c-3.4,1.2-5.9,1.8-11.4,2.7l-0.3-0.9c7.7-3.1,10.7-5,13.7-8.8c2.9-3.6,4.1-8.3,4.1-14.9
		c0-0.1,0-0.4,0-0.8c-5.9,3.6-10.6,5.3-19.4,7.2l-0.4-0.9c7.7-3.4,11.9-6,16.5-9.9c3.4-2.9,5.2-5.1,7.6-8.9H410.7z M423.5,17.5V7.8
		h-12.8v9.7H423.5z M423.5,19.1h-12.8v10h12.8V19.1z M444.6,7.8h-13.5v9.7h13.5V7.8z M431.1,19.1v10h13.5v-10H431.1z"/>
	<path d="M493.1,16.2c1.7-1.8,2.2-2.3,4-4.1c2.6,1.7,3.3,2.2,5.6,4.1c0.6,0.5,0.8,0.8,0.8,1.1c0,0.5-0.4,0.9-2.3,1.9v8.5
		c0,19,0,24.6,0.1,31.2c0,1.6-0.9,1.9-4.9,1.9c-2.4,0-2.6-0.1-2.7-1.3v-3.9h-9.9v5.4c0,1.7-0.7,2-4.9,2c-2.5,0-2.9-0.2-2.9-1.4
		c0.4-12.9,0.4-16.2,0.4-25c0-11.2-0.1-19.2-0.4-24.8c3.6,1.6,4.7,2.2,7.9,4.3h0.5c1.3-5.4,1.8-9.3,1.8-14c2.2,0.5,3.9,0.9,5.1,1.1
		c4.6,0.9,6.1,1.5,6.1,2.3c0,0.7-0.9,1.1-3.4,1.4c-3.6,5.1-4.8,6.8-6.9,9.2H493.1z M493.7,33.9V17.7h-9.9v16.2H493.7z M483.8,35.4
		v18.9h9.9V35.4H483.8z M528.8,16.2c2-2.1,2.6-2.7,4.6-4.6c2.6,2,3.4,2.6,5.8,4.6c0.6,0.6,0.9,1,0.9,1.4c0,0.6-0.5,1-2.6,2
		c-0.4,16.4-0.9,23-2.1,31.5c-1.5,10.7-3.4,14.2-8.2,15.6c-1.2,0.4-4,0.8-5.1,0.8c-0.8,0-1-0.3-1-1.3c-0.2-3.9-3-5.9-11.2-7.6
		l0.1-0.9c9.2,0.6,9.7,0.6,13.7,0.6c1.7,0,2.1-0.4,2.8-2.7c0.8-3,1.9-10.2,2.2-15.7c0.5-6.8,0.8-13.3,0.8-22h-15.4
		c-3.6,6.9-7,11.6-11.9,16.4l-0.7-0.4c4.7-9,8.5-22.6,8.8-31.6c9.4,2,11.7,2.6,11.7,3.6c0,0.7-0.7,1-3.4,1.6c-1.3,4-2,5.8-3.6,9
		H528.8z M510.4,26.7c8.9,5,13.1,9.2,13.1,13c0,3.3-2.6,6.6-5.1,6.6c-1.4,0-1.9-0.7-2.4-3.4c-1.1-5.7-2.7-10.1-6-15.7L510.4,26.7z"
		/>
	<path d="M554.2,67.1c10.2-2.6,18.4-5.8,25.5-10c-0.4,0.1-0.8,0.2-1.1,0.2c-0.6,0-1.2-0.4-1.6-1c-0.4-0.5-0.4-0.5-1.1-4.1
		c-0.3-1.6-0.9-2.6-2.5-4.2c-6.1,4.5-11.7,7.3-19.2,9.4l-0.2-0.6c5.4-3.3,10.1-7,14.2-11.4c2.6-2.6,4.1-4.6,6.8-8.4h-12.9
		c-0.4,3-0.9,5.1-2,6.7c-1.3,2.1-2.9,3.2-4.7,3.2c-2.1,0-3.5-2-3.5-5.1c0-1,0.4-1.9,0.9-2.4c0.3-0.2,0.6-0.4,1.9-0.8
		c1.9-0.6,4.1-2.1,5.3-3.6c0.6-0.7,0.8-1.2,1.3-2.6c-1-0.1-1.2-0.3-1.3-1.3c0.1-4.6,0.1-5.8,0.1-11.1c0-1.9-0.1-3.6-0.1-6.3
		c3.5,1.4,4.6,1.8,7.9,3.5h34.3c1.6-1.5,2-2,3.6-3.4c2.4,1.6,3.2,2.1,5.6,3.9c0.6,0.5,1,0.9,1,1.3c0,0.5-0.6,1-2.3,1.9l-0.1,4.9
		c0,1.7,0.1,2.8,0.1,5.4c0,0.7-0.1,1-0.5,1.2c-0.5,0.4-2.4,0.6-4.6,0.6c-2,0-2.4-0.1-2.4-1.1v-1.1h-35.1v0.4
		c-0.1,1.1-0.9,1.4-4.4,1.4c-0.1,0-0.5,0-0.9,0c0,0.4,0,0.6,0,0.9c0,0.3,0,0.4,0,0.6v0.8c0,0.2,0,0.4,0,0.7h44.6
		c1.8-1.7,2.4-2.2,4.1-3.8c3.1,2.3,4,3.1,6.9,5.6c0.6,0.5,0.8,0.8,0.8,1.1c0,0.7-0.9,1-4.1,1.2c-3.6,2.4-5.1,3.2-8.9,5.2
		c0.4,0.4,0.6,0.6,0.6,1c0,0.6-0.7,0.9-3.6,1.3c-7.5,7.5-14.7,12.2-24,15.7c-7.1,2.6-12.9,3.8-24.5,4.9L554.2,67.1z M590.9,8.9
		c0-1.2,0-2,0-2.4c0-1.4-0.1-2.4-0.2-4.1c2.2,0.2,3.9,0.4,5,0.4c4.4,0.3,5.6,0.6,5.6,1.4c0,0.6-0.7,1-2.9,1.6v3.1h7.2
		c2.2-2.5,2.9-3.2,5.2-5.6c3.4,2.6,4.4,3.4,7.8,6.2c0.2,0.2,0.3,0.4,0.3,0.5c0,0.2-0.3,0.4-0.6,0.4h-19.8c0,1.4,0,1.9,0.1,3.6
		c0,1.4-0.9,1.7-4.9,1.7c-2.5,0-2.8-0.1-2.8-1.3c0.1-2.7,0.1-2.7,0.1-4h-12.4V14c0,1.4-0.7,1.6-5,1.6c-2.3,0-2.6-0.1-2.6-1.2
		c0.1-1.9,0.1-2.6,0.1-4.1h-11.8c-2.1,0-3.6,0.1-5.5,0.4l-0.4-2.6c2.1,0.5,3.6,0.6,5.9,0.6h11.8V6.7c0-2.1,0-2.9-0.2-4.6
		c2.2,0.2,3.9,0.4,5.1,0.4c4.1,0.3,5.4,0.6,5.4,1.5c0,0.6-0.6,0.9-2.8,1.6c0,1.2,0,2.3,0,3.2H590.9z M574.6,18.9h-7v10.4h7V18.9z
		 M577.9,44.3c-1.4,1.2-2,1.8-3.6,3c5.9,1.4,8.9,3.2,8.9,5.4c0,1-0.4,2.1-1.1,2.9c5.4-3.6,8.4-6.2,13.1-11.3H577.9z M595.1,42.8
		c1.7-1.4,2.2-1.8,3.9-3.1c2.7,1.9,3.3,2.4,5.6,4.4c1.4-2.6,1.9-3.9,2.9-6.9h-23.2c-2.4,3-3,3.8-4.9,5.6H595.1z M581.5,29.4h7.1
		V18.9h-7.1V29.4z M595.4,29.4h7.3V18.9h-7.3V29.4z"/>
	<path d="M652.6,13.7c1.7-1.9,2.2-2.5,3.9-4.5c2.6,2,3.4,2.6,5.8,4.9c0.3,0.4,0.4,0.5,0.4,0.7c0,0.3-0.4,0.4-0.9,0.4H650v3.2
		c2.2,0.8,3.5,1.4,5.6,2.4c4.1,2.1,5.7,3.9,5.7,5.9c0,2.6-2.2,5.5-4.1,5.5c-0.9,0-1.1-0.3-1.9-2.8c-1.3-4-3.1-7.4-5.4-9.7V26
		c0,7.9,0,9.3,0.1,15.6c-0.1,1.6-0.7,1.8-4.9,1.8c-2.2,0-2.6-0.2-2.6-1.5c0-2.6,0-2.6,0.1-7.9c0.1-1.2,0.1-2.4,0.1-4.6v-3.1
		c-4.2,5.1-7.2,7.7-13,11.1l-0.5-0.7c4.4-5.3,7.2-9.4,9.7-14.5c1.1-2.1,1.6-3.4,2.8-7h-6c-1.4,0-2.8,0.1-4.4,0.4l-0.4-2.5
		c1.9,0.4,3.2,0.6,4.7,0.6h7.2V9.3c0-3.1-0.1-4.1-0.4-6.7c8.2,0.7,8.9,0.8,9.8,1.1c0.6,0.2,0.9,0.5,0.9,0.9c0,0.6-0.7,1.1-3.1,1.9
		v7.2H652.6z M641.9,46.5c0.3,1.9,0.4,2.9,0.4,4c0,3.4-0.7,7.5-1.6,9.7c-1.3,3.1-3.4,4.9-5.9,4.9c-2.3,0-3.9-2.3-3.9-5.6
		c0-1.2,0.4-2.1,1.1-2.8c0.3-0.3,0.8-0.5,2.1-1.1c3.8-1.7,5.4-3.9,6.8-9.1L641.9,46.5z M648.4,51.1c0-2.1-0.1-3.1-0.4-5.2
		c8.2,0.9,8.6,0.9,9.4,1.1c0.6,0.2,0.9,0.6,0.9,0.9c0,0.6-0.7,1.1-2.6,1.6v8.4c0,0.8,0.1,1.2,0.5,1.4c0.6,0.3,2.7,0.4,8.7,0.4
		c6.8,0,8.2-0.2,9.4-1.4c1.1-1.3,2.4-4.1,4.5-10.4l0.9,0.1l-0.3,8.5c0,0.3,0,0.4,0,0.6c0,0.9,0.2,1.1,1.1,1.5
		c2.1,0.8,2.9,1.6,2.9,3.2c0,1.9-1.4,3.4-4.1,3.9c-2.1,0.5-6.6,0.7-13.2,0.7c-17.1,0-17.7-0.2-17.7-5.6c0-0.6,0-1.1,0-1.5
		c0-0.2,0-0.2,0.1-3.6V51.1z M658.6,43.3c9.7,2.1,13.2,3.9,13.2,7c0,2.6-2.2,5.9-4.1,5.9c-1,0-1.2-0.3-2.6-3.2c-1.9-3.9-3.5-6-7-9
		L658.6,43.3z M670.6,41.1c0,1.4-0.8,1.6-5.4,1.6c-1.9,0-2.3-0.3-2.3-1.6c0.1-10.4,0.1-14.6,0.1-22.4c0-8.5-0.1-12.2-0.4-16.2
		c3.9,1.8,5,2.4,8.5,4.5h12.1c1.6-1.9,2.2-2.5,4.1-4.2c2.6,1.8,3.4,2.4,5.9,4.1c0.6,0.6,0.9,0.9,0.9,1.2c0,0.6-0.7,1.1-2.5,2.1
		c0,2.6,0,2.6,0,5c0,9.1,0.1,20.2,0.3,25.5c0,1.8-0.9,2.1-5.2,2.1c-2.3,0-2.6-0.2-2.6-1.5v-2.2h-13.6V41.1z M684.2,8.6h-13.6v8.4
		h13.6V8.6z M670.6,18.4V27h13.6v-8.6H670.6z M670.6,28.5v9.2h13.6v-9.2H670.6z M682.4,46.2c9.2,3.5,13.9,7.2,13.9,10.9
		c0,3.2-2.6,6.8-4.9,6.8c-1,0-1.5-0.7-2.2-3.4c-1.4-5.3-3.3-8.7-7.5-13.5L682.4,46.2z"/>
	<path d="M755.6,14.4c0.1,11.2,1,19.7,2.6,25.3c1.5-3.6,2.6-7.3,3.9-12.1c0.9-3.4,1.1-4.7,1.2-7.6c8.9,2.2,10.1,2.6,10.1,3.5
		c0,0.7-0.8,1.1-3,1.4c-2.7,10.2-5.3,16.6-8.9,22.5c1.9,3,3.1,4.6,7.2,8.4c2.1-3.9,2.8-5.4,5.8-12.6l0.8,0.2l-1.8,12.2
		c-0.2,1.8-0.2,1.8-0.2,2.1c0,0.8,0.1,0.9,1.4,2.6c0.6,0.8,0.9,1.6,0.9,2.5c0,2.1-1.8,3.9-4,3.9c-2.6,0-6.2-2.6-10.6-8
		c-1.6-1.9-2.7-3.4-3.9-5.4c-6.1,6.9-10.4,9.9-20.8,14.4l-0.4-0.7c9.1-6.7,13.7-11.6,18.4-19.2c-3.4-7.9-4.6-15.4-5.6-33.5h-26.3
		v5.8c0,14.7-1.3,24.8-4.1,32.3c-2,5.6-4.4,9.3-9.6,14.9l-0.6-0.4c2.9-6.3,4.1-10.4,5.1-17.2c1.1-6.9,1.5-15.3,1.5-27.9
		c0-5.6-0.1-8.7-0.4-13.7c4.1,1.8,5.3,2.4,9,4.6h25.3c0-1.2,0-1.4-0.1-2c-0.1-5-0.2-5.9-0.6-8.8c9.2,1,10.3,1.2,10.3,2.1
		c0,0.6-0.6,1-2.5,1.6c0,2.9-0.1,3.7-0.1,5.6v1.4h9.7l5.1-4.8c2.6,2.2,3.4,2.9,5.9,5.2c0.2,0.3,0.4,0.5,0.4,0.6
		c0,0.3-0.3,0.4-0.8,0.4H755.6z M746.1,34.9c-1.1,6.2-2.4,9.9-4.6,14c3.8,1.9,4.6,2.8,4.6,4.9c0,2.4-1.8,4.9-3.4,4.9
		c-0.9,0-1.1-0.2-2.5-2.7c-0.6-1.1-0.9-1.7-1.8-2.8c-1.9,2.4-3.9,4.3-6.2,6.1c-3.1,2.4-5.7,3.9-12.4,6.4l-0.4-0.6
		c8.2-5.8,11.4-9.2,15.1-15.9c-1.5-1.4-2.1-1.8-4.1-3c-0.5,1.4-0.9,2.2-1.8,4.2c-0.4,0.9-0.9,1.1-1.9,1.1c-3,0-4.7-0.5-4.7-1.4
		c0-0.1,0.1-0.5,0.2-0.9c2.5-5.3,3.6-8.4,5.4-14.3h-2.3c-0.9,0-1.4,0.1-2.5,0.2l-0.4-2.1c1,0.2,2,0.4,2.9,0.4h2.7
		c1.1-4.2,1.5-6,1.9-8.9c9.2,1.4,9.2,1.4,9.2,2.1c0,0.6-0.6,0.9-2.8,1.4c-0.8,2.8-0.9,3.5-1.5,5.4h4.9c1.6-1.9,2.2-2.5,3.9-4.3
		c2.7,2.1,3.6,2.7,6.2,4.9c0.1,0.2,0.3,0.4,0.3,0.6s-0.2,0.4-0.5,0.4H746.1z M737.6,22.1c1.8-2.1,2.4-2.7,4.2-4.7
		c3,2.3,3.9,3.1,6.6,5.4c0.2,0.2,0.3,0.4,0.3,0.5s-0.2,0.3-0.6,0.3h-22c-1,0-1.6,0.1-2.8,0.3l-0.4-2.2c1.1,0.3,2.1,0.4,3.1,0.4
		H737.6z M734.3,34.9c-1.3,4.2-2.4,7.4-3.4,10.4c2.4,0.6,3.2,0.9,5,1.4c1.6-3.5,2.6-7.1,3.2-11.8H734.3z M758.7,3.9
		c6.6,1.2,8.6,2.4,8.6,4.9c0,1.9-1.6,3.5-3.5,3.5c-1.3,0-1.7-0.4-2.2-2.1c-0.6-2.6-1.2-3.6-3.1-5.8L758.7,3.9z"/>
	<path d="M839.2,28c2.7-3.1,3.6-4.1,6.2-7.1c3.9,3.1,5.1,4.1,8.9,7.4c0.4,0.4,0.5,0.6,0.5,0.7c0,0.4-0.4,0.5-0.9,0.5h-29.2v32.2h12
		c2.6-3.1,3.5-4.1,6.1-7.1c3.8,3.1,5,4.1,8.7,7.4c0.3,0.4,0.4,0.6,0.4,0.7c0,0.4-0.4,0.5-1,0.5h-53.2c-2.1,0-3.6,0.1-5.4,0.5
		l-0.5-2.6c2.1,0.4,3.9,0.6,5.9,0.6h18.2V29.5h-22c-2.1,0-3.5,0.1-5.1,0.4l-0.4-2.6c2.1,0.5,3.3,0.6,5.4,0.6h22v-14
		c0-4-0.1-6.2-0.5-10.7c11.6,1.3,12.8,1.5,12.8,2.6c0,0.7-0.7,1.1-3.6,1.9V28H839.2z"/>
	<path d="M878.3,43.9c0.3,2.4,0.4,3.5,0.4,5c0,4.6-1,8.8-2.6,11.2c-1.4,2-3.4,3.3-5.2,3.3c-2.1,0-3.6-2.6-3.6-5.9
		c0-0.9,0.3-1.9,0.8-2.4c0.4-0.4,0.4-0.4,2.6-1.6c1.6-0.9,3.4-2.4,4.5-4.1c1.1-1.5,1.6-2.8,2.4-5.6H878.3z M873.7,5.9
		c2.3,0.6,3.6,0.7,5.6,0.7h32.1c1.8-1.9,2.4-2.4,4.3-4.1c2.6,1.8,3.4,2.3,5.9,4.1c0.6,0.5,0.9,0.9,0.9,1.2c0,0.6-0.6,1.2-2.5,2.2
		c0,1.6,0,2.7,0,3.5c0,2.6,0,4.5,0.1,8.5c0,0.8-0.1,1.1-0.6,1.4c-0.6,0.4-2.4,0.6-4.8,0.6c-2.1,0-2.6-0.2-2.6-1.3
		c0,0,0.1-0.1,0.1-0.1v-2.4h-28.7v9.7c0,1.5,0.4,1.9,1.7,2c1.4,0.1,8.9,0.2,19.9,0.2c11.6,0,13.5-0.1,14.8-1.1
		c1.3-0.9,2.3-2.9,5.6-11.4l0.9,0.1l-0.8,9.2c0,0.4,0,0.8,0,0.9c0,0.7,0.3,1.1,1.2,1.4c1.6,0.5,2.4,1.4,2.4,2.7
		c0,2.1-1.2,3.4-4.1,4.1c-2.4,0.5-6.4,0.7-16.3,0.7c-18.7,0-25.2-0.1-27.5-0.4c-4.3-0.5-5.4-1.7-5.6-5.5V21.5c0-2.9,0-4.1-0.2-7.2
		c4.1,1.6,5.3,2.2,9,4.4h27.6V8.1h-32.9c-2.3,0-3.3,0.1-5.1,0.4L873.7,5.9z M884.2,48.8c0-2.2-0.1-3.6-0.4-6.5
		c2.1,0.2,3.9,0.4,4.9,0.5c4.6,0.5,5.9,0.9,5.9,1.7c0,0.7-0.6,1.1-2.9,1.8v10.9c0,1.2,0.1,1.5,1.1,1.7c0.7,0.2,4,0.3,10.1,0.3
		c5.1,0,6.3-0.2,7.2-1.2c0.9-1.1,1.6-2.6,4.9-11.1l0.7,0.1l-0.6,9c-0.1,0.2-0.1,0.4-0.1,0.4c0,0.9,0.3,1.2,1.1,1.4
		c1.9,0.5,2.8,1.5,2.8,3.1c0,2.1-1.2,3.5-3.8,4.2c-1.9,0.5-5.6,0.7-14.5,0.7c-10.9,0-13.2-0.1-14.7-1c-1.4-0.8-1.9-2-1.9-4.1
		c0-0.1,0-0.3,0-0.5c0-2.1,0-4.1,0-6.3V48.8z M894.6,40.9c9.9,2.3,13.5,4.3,13.5,7.3c0,3-2.1,6-4.2,6c-0.9,0-1.1-0.3-2.1-2.5
		c-1.8-4.3-3.8-7-7.5-10.2L894.6,40.9z M917.7,43.6c6,2.9,8.7,4.4,10.7,6.4c2,1.9,3,3.6,3,5.3c0,3.3-2.4,7.1-4.6,7.1
		c-1.1,0-1.7-0.9-2.5-3.6c-1.6-5.4-3.8-10-7.2-14.6L917.7,43.6z"/>
	<path d="M977,45.8c-0.4-11.4-1.1-17.2-4.1-31.3c-0.2-1.1-0.4-2.6-0.4-3.4c0-2.9,1.9-4.1,6-4.1s5.9,1.3,5.9,4.1c0,1.5,0,1.5-1.5,8.7
		c-1.7,8.2-2.7,16.6-3,26H977z M984.4,56.8c0,3.3-2.6,5.9-5.9,5.9s-5.9-2.6-5.9-5.9c0-3.3,2.6-5.9,5.9-5.9
		C981.8,50.9,984.4,53.5,984.4,56.8z"/>
</g>
</svg>
