<?xml version="1.0" encoding="utf-8"?>
<!-- Generator: Adobe Illustrator 18.0.0, SVG Export Plug-In . SVG Version: 6.00 Build 0)  -->
<!DOCTYPE svg PUBLIC "-//W3C//DTD SVG 1.1//EN" "http://www.w3.org/Graphics/SVG/1.1/DTD/svg11.dtd">
<svg version="1.1" id="圖層_1" xmlns="http://www.w3.org/2000/svg" xmlns:xlink="http://www.w3.org/1999/xlink" x="0px" y="0px"
	 viewBox="0 0 1108 72" enable-background="new 0 0 1108 72" xml:space="preserve">
<g>
	<path fill="#231815" d="M22,18.9c1.3-1.7,2.6-3.4,3.8-5c2.7,2.4,3.4,3.1,5.9,5.6c0.3,0.3,0.4,0.4,0.4,0.6c0,0.2-0.2,0.4-0.6,0.4
		H20.4v4.9c6.8,2.7,10,5.4,10,8.1c0,2.5-2.3,5.6-4.1,5.6c-0.9,0-1.4-0.7-1.9-3.1c-0.8-4.1-2-6.8-4-9.2v24.3c0,7.2,0,7.2,0.1,16.6
		c0,1.6-0.8,1.9-5.2,1.9c-2.4,0-2.7-0.1-2.8-1.5c0.1-5.4,0.1-5.4,0.3-11.3L13,45.5l0.2-7.6c-3.4,7.3-5.8,11-10.4,15.5l-0.7-0.4
		c4.7-9.5,8.3-21,10-32.5H7.4c-1.6,0-2.2,0.1-3.8,0.4l-0.4-2.5c1.5,0.4,2.7,0.6,4.1,0.6h5.5V12c0-4.6-0.1-6.2-0.4-9.4
		c2.3,0.2,3.9,0.4,4.9,0.4c5,0.5,6.2,0.8,6.2,1.7c0,0.7-0.7,1-3.2,1.9v12.4H22z M54.6,12.5c2-2,2.6-2.7,4.6-4.6
		c3.1,2.3,3.9,3.1,6.6,5.3c0.7,0.7,1,1.1,1,1.5c0,0.7-1,1.1-3.5,1.5c-3.9,6.1-6.7,9.5-10.8,13.4c6.1,3.4,11.8,4.9,20.3,5.4v0.7
		c-2.6,1.6-4.1,3.7-4.7,6.7c-0.2,0.9-0.4,1.2-0.9,1.2c-0.4,0-1.1-0.2-2.6-0.7c-6.6-2.3-11.4-5.3-15.9-9.9c-4.9,3.9-9.2,6.5-15,9.2
		c1.6,0.7,2.6,1.2,5.4,2.5h16.2c1.4-1.6,1.8-2,3.1-3.5c2.6,1.6,3.4,2.1,6,3.7c0.9,0.7,1.2,1.1,1.2,1.5c0,0.5-0.6,1.1-2,1.9
		c-0.1,2.3-0.1,3.7-0.1,5.1c0,3.6,0.1,8,0.3,14.2c0,1.6-0.7,1.9-5.2,1.9c-2.5,0-2.8-0.1-2.9-1.2v-3.5H39v2.8
		c-0.1,0.9-0.1,1.1-0.4,1.3c-0.6,0.4-2,0.7-4.4,0.7c-2.8,0-3.1-0.1-3.1-1.5c0.1-11.6,0.1-14.1,0.1-17.3c0-2.8,0-2.9-0.1-7.3
		c-2.2,0.9-3.5,1.4-7,2.5l-0.4-0.8c8.5-4.9,14.5-9.7,21-16.5c-2.5-3.4-3.8-5.7-5.6-10.1c-3.1,4.1-5.5,6.5-10.7,10.5l-0.6-0.5
		c3-4.8,4.5-8.1,6.6-13.8c1.8-5,2.5-7.9,3.1-12.1C48,4.8,48.8,5.1,48.8,5.9c0,0.7-0.9,1.1-3.3,1.5c-1.2,2.5-1.7,3.3-2.6,5H54.6z
		 M39,62.9h16.7V46H39V62.9z M42,14c-1,1.6-1.1,1.7-2.1,3.1c3,4.5,4.5,6.3,7.2,8.6c3.3-3.8,4.9-6.5,7.7-11.7H42z"/>
	<path fill="#231815" d="M95.6,8.2c0-3.1,0-3.8-0.3-6.2c10,0.9,10.8,1,10.8,2c0,0.7-0.7,1-2.9,1.6c0,1.3,0,2.2,0,2.6h13
		c0-2.5-0.1-3.6-0.4-6.1c2.3,0.2,3.9,0.4,5,0.4c4.5,0.3,5.7,0.6,5.7,1.5c0,0.6-0.6,0.9-2.8,1.6v2.6h7.2c2.3-2.3,3-3.1,5.3-5.2
		c3.5,2.3,4.6,3.1,8,5.8c0.3,0.2,0.4,0.4,0.4,0.5c0,0.3-0.3,0.4-0.7,0.4h-20.1c0,1.2,0.1,1.5,0.1,3.1c0,0.7-0.1,0.9-0.4,1.2
		c-0.6,0.4-2.4,0.7-4.9,0.7c-2,0-2.5-0.2-2.5-1.2l0.1-3.8h-13c0,1.4,0,1.5,0.1,3c0,0.6-0.1,0.7-0.5,1.1c1.7,1,2.5,1.6,4.8,3.2
		c0.5,0.4,0.7,0.7,0.7,1.1c0,0.5-0.5,0.9-2.1,1.8c0.1,6.6,0.1,6.8,0.2,10.6c0,1.5-0.9,1.9-4.1,1.9c-0.4,0-0.4,0-1,0
		c-0.1,0-0.1,0-0.1,0c-1.2,0-1.7-0.4-1.7-1.3v-1H87.7v22l-0.1,8.8c0,1.9,0,3.7,0.1,6.8c0,0.8-0.1,1.2-0.6,1.4
		c-0.7,0.4-2.4,0.6-4.5,0.6c-2,0-2.5-0.3-2.5-1.6c0.4-16.3,0.4-16.3,0.4-22c0-19.2-0.1-28.5-0.4-33.3c3.8,1.7,4.9,2.2,8.4,4H99
		c1.2-1.3,1.5-1.6,2.4-2.5c-1.4,0.1-2.1,0.2-3.3,0.2c-2.3,0-2.6-0.1-2.6-1.2c0.1-1.7,0.1-1.7,0.1-3.4H82.5c-1.8,0-3.2,0.1-4.9,0.4
		l-0.4-2.5c2,0.4,3.4,0.6,5.2,0.6H95.6z M99.4,18.2H87.7v4.2h11.7V18.2z M99.4,23.9H87.7v4.6h11.7V23.9z M112.9,55.7
		c9.2,1.6,12.6,3.4,12.6,6.7c0,2-1.3,3.7-2.8,3.7c-0.8,0-0.9-0.1-2.3-2c-0.8-1.1-3-3.5-4.1-4.6c-1-0.9-1.9-1.5-3.6-2.5
		c0.1,3.5,0.1,3.5,0.3,10.1c0,0.4-0.1,0.7-0.1,0.9c-0.4,0.4-1.8,0.7-4,0.7s-2.5-0.2-2.5-1.5c0.1-1.7,0.1-1.7,0.3-7.1v-1.7
		c-5.9,4.4-8.9,5.9-16.8,8.3l-0.2-0.8c6-3.6,9.3-6.6,13.4-12h-2.8v0.4c-0.1,1.2-0.8,1.4-4.1,1.4c-1.9,0-2.2-0.1-2.2-1.2
		c0.2-4,0.2-4.5,0.2-10c0-2.5-0.1-3.7-0.3-6.3c3.1,1.2,3.9,1.5,6.8,2.8h6v-3.5H94.5c-1.6,0-3.1,0.1-4.4,0.4l-0.3-2.5
		c1.7,0.4,2.9,0.5,4.8,0.5h12.2c-0.1-2-0.1-2.8-0.4-5.2c3.6,0.4,4.8,0.6,6.8,0.9v-0.4c0.1-4.5,0.1-6.3,0.1-10c0-3.5,0-4.8-0.1-7.8
		c3.3,1.4,4.4,1.8,7.6,3.3h11c1.7-1.7,2.2-2.2,3.9-3.7c2.4,1.6,3.1,2.1,5.4,3.8c0.5,0.4,0.7,0.7,0.7,1.1c0,0.6-0.5,1-2.3,2v24.7
		c0,5.7,0,5.7,0.3,17.1c0,0.4,0,0.7,0,0.9c0,3.1-0.8,4.6-2.9,5.7c-1.4,0.7-3.7,1.2-5.7,1.2c-0.7,0-0.9-0.2-1-1.2
		c-0.1-3.8-0.9-5-4.1-6.4v-0.7c3.8,0.2,3.8,0.2,5.4,0.2c0.7-0.1,0.8-0.3,0.8-1.2V30h-12.2v0.9c0,1.2-0.7,1.5-4.1,1.5
		c-0.4,0-0.8,0-1.4,0c-0.2,0.7-0.4,0.9-2.1,1.4v2.1h8.3c1.3-1.3,2.5-2.5,3.6-3.7c2.5,1.8,3.3,2.4,5.9,4.4c0.2,0.2,0.3,0.4,0.3,0.5
		c0,0.2-0.3,0.4-0.7,0.4h-17.4v3.5h6.8c1.2-1.3,1.6-1.7,2.8-2.9c2.2,1.4,2.8,1.8,4.8,3.3c0.4,0.4,0.7,0.6,0.7,0.8
		c0,0.5-0.4,0.9-1.8,1.7c0,6.8,0,6.8,0.1,10.2c0,0.7-0.1,0.9-0.4,1.2c-0.4,0.4-2.1,0.7-4.1,0.7c-1.5,0-1.8-0.2-1.8-1v-0.9h-6.9V55.7
		z M106.9,42.4h-6.4v4.1h6.4V42.4z M106.9,48h-6.4v4.3h6.4V48z M119.8,46.5v-4.1h-7v4.1H119.8z M119.8,52.3V48h-7
		c0.1,1.6,0.1,3.1,0.1,4.3H119.8z M132.5,18.2h-12.2v4.2h12.2V18.2z M132.5,23.9h-12.2v4.6h12.2V23.9z"/>
	<path fill="#231815" d="M169.7,27c0-4-0.1-4.7-0.4-7.2c8.4,0.7,9.3,0.7,10.2,1c0.6,0.2,0.9,0.5,0.9,0.9c0,0.7-0.9,1.2-2.8,1.6
		c0,11.8,0,12.5-0.2,16.1c-0.7,12.6-3.3,18.7-10.5,23.9c-3.9,2.8-8.1,4.6-15.3,6.5l-0.5-0.8c6.2-3.1,9.9-5.8,13-9.7
		c2.4-3.1,3.6-5.7,4.6-10.1c-5.2,2.9-5.2,3-13.7,6.4c-0.1,2.1-0.5,3-1.2,3c-0.8,0-1.2-0.9-4.2-9.6c4-0.1,11.8-0.9,19.6-2.2
		c0.3-2.3,0.4-3.6,0.5-7.8h-12.4c-2,0-3,0.1-4.3,0.4l-0.6-2.5c2,0.4,3.2,0.6,4.9,0.6h12.5c0.1-3.1,0.1-3.7,0.1-9.1h-14.2
		c-1.7,0-2.9,0.1-4.5,0.4l-0.6-2.5c2,0.4,3.3,0.6,5.1,0.6H169.7z M188.2,10.7c0-3.9-0.1-5.7-0.4-7.6c2.2,0.2,4.1,0.4,5.2,0.4
		c4.6,0.4,5.7,0.7,5.7,1.5c0,0.7-0.6,1-2.8,1.7l0.1,4.1h7.3c1.9-2,3.6-3.9,5.2-5.7c3.4,2.6,4.4,3.4,7.6,6c0.3,0.4,0.4,0.5,0.4,0.7
		c0,0.2-0.3,0.4-0.7,0.4h-19.8c0.1,2.5,0.1,2.5,0.1,4.4c-0.1,0.4-0.2,0.7-0.5,0.8c-0.6,0.4-2.1,0.6-3.9,0.6c-2.8,0-3.3-0.2-3.5-1.2
		c0.1-2.2,0.1-2.5,0.1-4.6h-13.1c0.1,2.6,0.1,2.6,0.1,4.5c-0.1,0.5-0.1,0.7-0.4,0.9c-0.6,0.3-2.2,0.5-4.1,0.5
		c-3.1,0-3.5-0.1-3.5-1.3c0.1-3.3,0.1-3.3,0.1-4.6h-12.2c-1.3,0-3.6,0.2-4.9,0.4l-0.6-2.6c2.3,0.5,3.6,0.7,5.5,0.7h12.2
		c0-1,0-1.5,0-2.3c0-2.2-0.1-3.3-0.2-5.3c2.3,0.2,3.9,0.3,5,0.4c4.7,0.3,5.8,0.6,5.8,1.5c0,0.7-0.8,1.1-2.8,1.7
		C175,7.8,175,8.8,175,9.4c0,0.5,0,0.7,0.1,1.3H188.2z M202.8,27c2.8-3,2.8-3,4.9-5.4c3.3,2.5,4.3,3.3,7.3,5.9
		c0.2,0.3,0.4,0.5,0.4,0.7c0,0.2-0.3,0.4-0.7,0.4h-21.2l0.1,10h8.7c1.7-1.9,3.3-3.6,4.7-5.2c3.1,2.4,4,3.1,6.9,5.5
		c0.3,0.3,0.4,0.5,0.4,0.7c0,0.3-0.4,0.5-0.9,0.5h-19.9l0.1,11v0.2h9.9c2.4-2.5,3.2-3.3,5.4-5.7c3.3,2.5,4.2,3.3,7.4,6.1
		c0.3,0.3,0.4,0.5,0.4,0.7c0,0.2-0.4,0.4-0.8,0.4h-22.3c0.1,9.2,0.1,9.2,0.3,13.9c0,0.9-0.2,1.2-1,1.5c-0.7,0.2-3.3,0.5-5,0.5
		c-1.8,0-2.3-0.3-2.4-1.5c0.3-7.6,0.4-13.4,0.4-22.2c0-5.4-0.1-15.5-0.1-19.8c0-2.5-0.1-3.4-0.4-5.4c2.3,0.1,4,0.3,5.1,0.4
		c5.2,0.4,5.9,0.6,5.9,1.5c0,0.7-0.7,1.1-2.8,1.6V27H202.8z"/>
	<path fill="#231815" d="M290.3,58.9c-3.1,1.6-4.1,3.1-4.6,6.8c-0.1,0.8-0.4,1.1-1.2,1.2c-1.2,0.1-8.9,0.4-12.9,0.4
		c-13.8,0-18.5-0.3-21.7-1.2c-3.9-1.2-6.8-3-8.9-5.7c-1.2-1.6-2.2-3.4-3.6-7c-3.6,5.1-3.9,5.6-9.7,12.3c0,0.4,0,0.7,0,0.9
		c0,1.5-0.4,2.4-1.1,2.4c-0.3,0-0.7-0.3-0.9-0.9c-0.1-0.2-0.1-0.2-4.6-9.5c3.6-0.8,6.5-2.2,9.8-4.6V34h-4.4c-1.5,0-3.2,0.2-4.6,0.5
		l-0.5-2.7c2.3,0.5,3.7,0.7,5.1,0.7h3.5c1.8-2,2.4-2.7,4.3-4.6c2.6,1.9,3.4,2.5,6,4.4c0.6,0.5,0.8,0.8,0.8,1.3c0,0.7-0.4,1-2.3,2.2
		V53c1.5,2.7,2.5,3.8,4.4,4.8c2.9,1.5,7.1,2,15.8,2c8.5,0,20.4-0.7,31.2-1.7V58.9z M224.3,3.5c4.1,1.5,7.6,3.1,10.9,5.2
		c3.1,1.9,4.8,4.1,4.8,6.2c0,3.3-3.1,7.3-5.6,7.3c-1.2,0-1.5-0.5-2.4-3.3c-1.8-6-3.9-9.7-8.3-14.7L224.3,3.5z M252.7,52.1v3
		c-0.1,0.7-0.1,0.9-0.5,1.2c-0.6,0.3-2.3,0.5-4.1,0.5c-2.6,0-3.1-0.2-3.3-1.3c0.3-6.7,0.4-9.1,0.4-16.9c0-19.4-0.1-23-0.3-26.2
		c3.6,1.6,4.7,2.2,8.4,4.1h7.5v-6.4c0-3.6-0.1-4.8-0.4-7.6c2,0.2,3.6,0.4,4.6,0.4c5.1,0.4,6.4,0.7,6.4,1.6c0,0.7-0.9,1.3-3,2v10h8.1
		c1.7-1.9,2.3-2.5,3.9-4.3c2.7,1.8,3.5,2.4,6,4.3c0.7,0.4,0.9,0.8,0.9,1.2c0,0.5-0.2,0.7-2.5,2.2c-0.1,5.7-0.1,9.8-0.1,12.6
		c0,8.3,0.1,12.9,0.3,22.1c-0.1,0.6-0.3,0.8-0.6,1c-0.6,0.4-2,0.7-3.6,0.7c-0.9,0-1.7-0.1-2.5-0.1c-0.8-0.1-1-0.3-1.2-1.1v-3H252.7z
		 M260.8,18h-8.1v14.7h8.2L260.8,18z M260.9,34.3h-8.2v16.3h8.3L260.9,34.3z M277.3,18h-8.9v14.7h8.9V18z M277.3,34.3h-8.9v16.3h8.9
		V34.3z"/>
	<path fill="#231815" d="M301.8,60c3.3-0.1,4.4-0.2,5.4-0.9c1.7-0.9,2.2-2.8,2.2-7.4V18.3c-0.1-3.7-0.1-3.7-0.2-4.4
		c-0.3-1.6-1.2-2-4.9-2h-2v-2c6.9-0.6,12.2-1.3,17-2.2c-0.4,5.2-0.7,11.3-0.7,18.3v25.6c0,4.4,0.4,6.2,1.7,7.3c1,0.8,1.9,0.9,5.6,1
		v2h-24.2V60z"/>
	<path fill="#231815" d="M345.4,35c4.5-4.2,8.5-5.9,14-5.9c10.6,0,17.2,6.2,17.2,16.3c0,10.8-7.6,17.7-19.7,17.7
		c-9.5,0-16.9-4.6-16.9-10.5c0-2.8,1.8-4.2,5.2-4.2c1.7,0,3,0.4,3.6,1.2c0.5,0.6,0.7,1.2,0.7,3.3c0.1,2.7,0.7,4.6,2,6
		c1.4,1.5,3.5,2.4,5.7,2.4c3,0,5.4-1.3,7.1-3.7c1.7-2.7,2.8-6.7,2.8-11.2c0-9.2-3.8-14.5-10.3-14.5c-4.8,0-9.3,3-12.2,7.9l-2.4-0.6
		l2.4-30.5h29.7l-1.3,8.1h-26.2L345.4,35z"/>
	<path fill="#231815" d="M424.9,29h7.8c2.3-2.5,3-3.3,5.2-5.8c3.4,2.6,4.5,3.4,7.8,6.1c0.2,0.3,0.4,0.5,0.4,0.7
		c0,0.3-0.4,0.6-0.7,0.6h-20.5v17.7h11c2.5-2.8,3.3-3.6,6-6.3c3.6,2.8,4.6,3.7,8.1,6.7c0.2,0.3,0.4,0.5,0.4,0.7
		c0,0.3-0.3,0.5-0.8,0.5h-24.6v6.4c0,1.1,0.1,6.6,0.2,11c0,1.2-0.2,1.7-0.9,2c-0.7,0.3-2.6,0.5-4.9,0.5c-2.5,0-3-0.2-3-1.4
		c0-0.1,0-0.2,0-0.4c0.2-8.3,0.3-9.7,0.3-11.3v-6.8h-26.2c-1,0-4.7,0.3-6.2,0.4l-0.4-2.5c3.2,0.4,4.4,0.6,6.6,0.6h4.7V32.8
		c0-4-0.1-5.5-0.3-9.2c4.2,2.3,5.4,3,9.4,5.3h12.3v-14h-14.1c-5.4,7.2-10.3,11.8-17.3,16.6l-0.6-0.7c4.6-5.8,7.2-10,10-16.1
		c2.3-5.1,3.6-8.7,4.5-12.5c7.3,2,10.9,3.1,11.6,3.7c0.2,0.1,0.4,0.4,0.4,0.7c0,0.8-0.5,1-3.8,1.5c-2.1,3.2-2.6,3.9-3.8,5.3h30.6
		c1.8-2,3.7-4.1,5.5-6.1c3.8,2.8,4.9,3.6,8.5,6.5c0.2,0.2,0.4,0.4,0.4,0.6c0,0.3-0.3,0.5-0.7,0.5h-23V29z M403.4,30.5v17.7h13.2
		V30.5H403.4z"/>
	<path fill="#231815" d="M493.2,56.6c0,0.9,0,1.5,0,2.1c0,0.4,0,3.5,0.1,9.3c-0.1,0.9-0.3,1.3-0.9,1.5c-0.9,0.3-2.7,0.5-4.4,0.5
		c-2.4,0-2.9-0.3-2.9-1.5c0.1-4.4,0.1-4.4,0.2-12h-21.3c-2.6,0-5,0.2-7,0.6l-0.4-2.9c2.9,0.6,4.7,0.8,7.5,0.8h21.4v-8.1h-12.6v2.9
		c0,0.7-0.3,1-0.9,1.2c-0.9,0.3-2.8,0.4-4.6,0.4c-2,0-2.5-0.4-2.5-1.6c0-3.4,0-3.4,0.2-14.7c0.1-0.9,0.1-2,0.1-2.8
		c0-3.4-0.1-8.1-0.3-10.4c-0.5,0-0.9,0-1.1,0c-2,0-2.5-0.3-2.5-1.6c0.1-3.5,0.1-3.9,0.1-11.4c0-3.7-0.1-4.5-0.2-6.9
		c3.6,1.6,4.6,2.2,8.4,4.3h9c1.7-2,2.3-2.5,3.9-4.3c2.5,2,3.3,2.5,5.7,4.6c0.4,0.4,0.5,0.6,0.5,0.8c0,0.6-0.6,1-2.3,1.8
		c0,1.9,0,3.3,0,4.3c0,0.4,0,1.9,0.1,6.5c-0.1,0.9-0.4,1.2-2,1.5c-0.4,0.1-2.8,0.2-3.4,0.2c-1.5,0-2-0.3-2.1-1.3v-1.5h-10v1.4
		c-0.1,1-0.4,1.2-2.9,1.5c3.2,1.2,4.3,1.7,8.2,3.8H506l4.3-4c2.7,1.7,3.5,2.3,6.1,4.2c0.4,0.4,0.7,0.7,0.7,1c0,0.6-0.5,1-2.5,2.3
		c-0.1,3.2-0.1,5.6-0.1,7.2c0,2.9,0,3.8,0.2,12.3c0,0.4-0.1,0.6-0.1,1L515,49c3.7,2.6,4.9,3.5,8.6,6.5c0.2,0.2,0.4,0.5,0.4,0.6
		c0,0.3-0.4,0.4-0.9,0.4H493.2z M468.8,17.4h10V7.8h-10V17.4z M472.8,27.1v8.1h12.6v-8.1H472.8z M485.5,36.7h-12.6v8.7h12.6V36.7z
		 M500,20.3c-0.1,0.8-0.3,1.1-0.9,1.2c-0.9,0.2-2.4,0.4-3.6,0.4c-2.4,0-3-0.3-3-1.5c0,0,0-0.2,0-0.3c0.1-3.2,0.1-4.3,0.1-9
		c0-6,0-6.2-0.2-8.6c3.3,1.5,4.4,2,7.9,3.7h9.8c1.7-1.8,2.1-2.4,3.7-4.1c2.6,1.8,3.3,2.4,5.9,4.2c0.5,0.4,0.7,0.7,0.7,1
		c0,0.7-0.4,1-2.2,2c0,1.7,0,3,0,3.9c0,2.7,0,4,0.1,7c-0.1,0.8-0.3,1.2-0.9,1.4c-1.2,0.3-2.4,0.4-4.9,0.4c-1.3,0-1.7-0.3-1.7-1.1
		c0,0-0.1-0.1-0.1-0.2v-1.8H500V20.3z M493.2,35.1h13.4v-8.1h-13.4V35.1z M506.7,45.4v-8.7h-13.4v8.7H506.7z M509.4,55
		c1.3-1.5,3-3.1,4.9-5.2c-1.3,0.4-3.6,0.7-5.4,0.7c-1.6,0-2.1-0.4-2.1-1.3c0-0.1,0-0.1,0-0.2v-2.1h-13.4V55H509.4z M500,17.4h10.8
		V7.8H500V17.4z"/>
	<path fill="#231815" d="M529.5,34.1c2.5,0.5,5.5,0.8,9.2,0.8H580c2.5-3.2,3.3-4.2,6-7.3c4.4,3.3,5.7,4.4,9.8,7.8
		c0.3,0.3,0.4,0.4,0.4,0.6c0,0.3-0.3,0.4-0.9,0.4h-56.6c-3.3,0-6,0.1-8.6,0.5L529.5,34.1z"/>
	<path fill="#231815" d="M601.2,45.2c9.7-5.1,15.6-9.2,22.4-15.6c-0.7,0.4-1.5,0.7-2.1,0.7c-0.9,0-1.3-0.7-1.4-2.5
		c-0.1-2.5-0.4-3.6-1.6-5.4c-4.4,5.3-8.3,8.4-14.7,11.9l-0.5-0.7c4.4-4.6,6.8-8,9.1-12.6c1.5-3.1,2.3-5.2,3.1-8.4
		c10.2,2.6,10.2,2.6,10.2,3.5c0,0.7-0.9,1.1-3.5,1.4c-1.2,1.9-1.7,2.5-2.6,3.8c0.6,0.2,1,0.4,1.3,0.4c3.9,1.3,4.9,2.2,4.9,4
		c0,0.9-0.4,1.9-1.2,2.8c2-2,3.4-3.6,6.5-7.6v-9.6H610c-2.3,0-3.9,0.1-5.8,0.4l-0.5-2.7c2.2,0.5,3.8,0.7,6.3,0.7h21.1V9.3
		c0-2.8-0.1-4.2-0.3-7.1C641,2.9,641.6,3,641.6,4c0,0.7-0.9,1.2-2.9,1.8v4h15.1c2.6-2.6,3.4-3.4,5.9-5.9c3.7,2.7,4.9,3.5,8.4,6.2
		c0.2,0.3,0.4,0.7,0.4,0.7c0,0.3-0.4,0.5-0.8,0.5h-29v11.1c1.7,2.4,2.3,3.2,3.8,4.5c2.7-3.5,5.7-10,6.5-14c2,0.5,3.6,0.9,4.6,1.2
		c4.5,1.2,5.3,1.5,5.3,2.2c0,0.7-0.9,1.1-3.2,1.4c-1.2,1.3-1.5,1.7-2.3,2.5c2.8,0.9,4.6,1.5,6.5,2.3c1.7,0.7,3.4,1.7,4.3,2.6
		c0.5,0.6,0.8,1.3,0.8,2.3c0,2.5-2.1,5.4-4,5.4c-0.2,0-0.7-0.2-1-0.5c-0.4-0.4-0.4-0.4-1.6-2.9c-1.7-3.6-4.2-6.9-6-8.2
		c-3.1,2.9-5.3,4.6-8.8,6.5c2.9,2.1,5.7,3.7,9.2,5.2c5.5,2.3,9.8,3.3,17,3.8v0.9c-2.3,1.2-3.3,2.2-4.2,4.1c-0.4,0.7-0.8,1.7-0.9,2.4
		c-0.2,0.7-0.4,0.9-0.9,0.9c-1.1,0-5.4-1.9-8.4-3.6c-5.2-3.1-9.6-6.6-12.3-10c-1.6-2-2.6-3.6-4.3-6.8v3.7c0,0.1,0.1,1.5,0.1,3.3
		c0,0.7,0.1,1.7,0.1,3c-0.1,0.8-0.3,1.1-0.9,1.3c-0.7,0.3-2.7,0.5-4.1,0.5c-2,0-2.4-0.2-2.6-1.2l0.1-3.1v-1.5
		c-5.2,4.3-9.6,7-16.5,10.2c-4,1.9-7.2,3-13.3,4.7L601.2,45.2z M643.9,43c1.5-1.2,2.9-2.5,4.2-3.6c2.8,2.2,3.6,2.8,6.4,5.1
		c0.6,0.5,0.8,0.9,0.8,1.2c0,0.7-0.9,1.1-3.6,1.5c-3.4,3.8-4.7,5-6.8,6.8c11,3.4,12.9,4.8,12.9,10.1c0,2.3-1.1,4-2.5,4
		c-0.8,0-1.3-0.3-2.8-1.7c-2.5-2.3-7.5-5.7-12.6-8.6c-3.8,2.5-7.8,4.6-12.3,6.3c-6.8,2.5-12.7,3.9-23.2,5.2l-0.2-0.7
		c12.1-3.3,21.2-7.8,29.4-14.2c-3.8-1.9-4.7-2.3-10.1-4.6c-6.1,4.2-10.1,6.2-17.6,8.6l-0.5-0.8c9.8-6,17.9-13.9,21.4-21.1
		c1.9,0.5,3.4,0.9,4.4,1.1c5,1.1,5.8,1.4,5.8,2.1c0,0.7-0.9,1-3.3,1.2c-0.9,1-1.3,1.5-1.9,2.1H643.9z M630.3,44.5
		c-2,1.7-3.3,2.8-5.7,4.5c0.9,0.1,0.9,0.1,2.3,0.4c2.8,0.4,5.6,1.1,10,2.3c2.7-2.3,4.1-3.7,7-7.3H630.3z"/>
	<path fill="#231815" d="M712.6,10.9c0-5.2,0-5.7-0.3-8.6c10.5,0.9,10.8,1,10.8,2c0,0.6-0.6,0.9-2.7,1.6c0,2.5,0,2.9,0,5.1h7.1
		c2.2-2.5,2.9-3.3,5.2-5.6c3.6,2.5,4.6,3.4,8,6.2c0.2,0.3,0.3,0.4,0.3,0.6c0,0.2-0.3,0.4-0.7,0.4h-19.9c0,1.1,0,1.1,0.1,6.3
		c0,0.7-0.1,0.9-0.4,1.2c-0.6,0.5-2.3,0.7-4.7,0.7c-2.6,0-2.8-0.1-2.9-1.2c0.1-4.7,0.1-4.7,0.1-7h-12.8c0,2,0,2.9,0.1,6.3
		c0,0.7-0.1,1-0.5,1.2c-0.7,0.4-2.5,0.7-4.6,0.7c-2.5,0-2.9-0.2-2.9-1.4c0.1-3.3,0.2-4.3,0.2-6.8h-12.1c-2.4,0-3.6,0.1-5.2,0.4
		l-0.4-2.5c1.8,0.4,3.3,0.6,5.7,0.6H692c0-5.3,0-5.8-0.3-8.7c10.8,1.1,10.9,1.1,10.9,2c0,0.7-0.7,1.1-2.8,1.7c0,1.8,0,2.7-0.1,4
		c0,0.4,0,0.4,0,1H712.6z M722.6,38.4h4.6c2.3-2.5,3.1-3.3,5.4-5.8c3.5,2.5,4.5,3.3,7.8,6.2c0.4,0.3,0.5,0.5,0.5,0.7
		c0,0.3-0.3,0.4-0.7,0.4h-17.6v7.3c0,7.4,0,7.4,0.1,14.2c-0.1,4.3-1.5,6-6.1,7.3c-1.7,0.4-3.8,0.8-4.9,0.8c-0.7,0-0.9-0.2-1-1.3
		c-0.2-1.7-1.1-3.2-2.3-4.1c-1.4-1-2.5-1.4-8.8-2.9l0.1-0.9c6.9,0.4,8.7,0.4,14,0.5c0.8-0.1,1-0.3,1-1.2V41.7
		c-6.3,7.2-11.8,11.7-19.5,15.8c-6.7,3.6-12.6,5.9-20.5,8l-0.4-0.9c9.2-4.6,15.5-8.8,22.5-15c3.9-3.4,6.6-6.3,9.1-9.7h-25.5
		c-2.3,0-3.5,0.1-5.7,0.5l-0.5-2.7c2,0.4,3.8,0.7,6.2,0.7h8.4V25h-5.4c-2.1,0-3.4,0.1-5.2,0.4l-0.4-2.5c2.2,0.4,3.4,0.6,5.9,0.6
		h40.3c2.3-2.5,2.9-3.2,5.1-5.5c3.3,2.5,4.3,3.3,7.6,6c0.4,0.3,0.5,0.4,0.5,0.7c0,0.2-0.3,0.4-0.7,0.4h-13.9V38.4z M696.8,25v13.4
		h18V25H696.8z"/>
	<path fill="#231815" d="M793.5,14.9c0.1,11.3,1,20.1,2.7,25.7c1.5-3.6,2.7-7.4,3.9-12.3c0.9-3.4,1.1-4.8,1.2-7.7
		c9,2.3,10.2,2.7,10.2,3.6c0,0.7-0.8,1.1-3.1,1.5c-2.8,10.4-5.4,16.9-9,22.8c1.9,3.1,3.2,4.6,7.3,8.6c2.2-4,2.8-5.5,5.9-12.8
		l0.8,0.2l-1.8,12.4c-0.2,1.8-0.2,1.8-0.2,2.2c0,0.8,0.1,0.9,1.4,2.6c0.6,0.8,0.9,1.6,0.9,2.5c0,2.2-1.8,4-4.1,4
		c-2.7,0-6.2-2.7-10.8-8.1c-1.6-1.9-2.8-3.5-4-5.5c-6.2,7-10.6,10-21.1,14.6l-0.4-0.7c9.2-6.8,13.9-11.8,18.7-19.5
		c-3.5-8-4.7-15.6-5.7-34h-26.7v5.9c0,14.9-1.3,25.2-4.1,32.8c-2,5.7-4.5,9.4-9.7,15.2l-0.7-0.4c2.9-6.4,4.1-10.5,5.2-17.5
		s1.5-15.5,1.5-28.3c0-5.7-0.1-8.9-0.4-13.9c4.1,1.8,5.4,2.4,9.2,4.7h25.7c0-1.2,0-1.4-0.1-2c-0.1-5.1-0.2-6-0.6-8.9
		c9.4,1,10.5,1.2,10.5,2.2c0,0.6-0.7,1-2.5,1.7c0,3-0.1,3.8-0.1,5.7v1.4h9.9l5.2-4.9c2.7,2.3,3.5,2.9,6,5.3c0.2,0.3,0.4,0.5,0.4,0.7
		c0,0.3-0.3,0.4-0.8,0.4H793.5z M783.9,35.7c-1.2,6.2-2.4,10.1-4.7,14.2c3.8,1.9,4.7,2.8,4.7,5c0,2.4-1.8,5-3.4,5
		c-0.9,0-1.1-0.2-2.5-2.8c-0.6-1.2-0.9-1.7-1.8-2.8c-1.9,2.4-3.9,4.4-6.2,6.2c-3.1,2.5-5.8,3.9-12.6,6.5l-0.4-0.7
		c8.3-5.9,11.5-9.3,15.3-16.1c-1.5-1.4-2.1-1.8-4.2-3.1c-0.5,1.4-0.9,2.3-1.8,4.3c-0.4,0.9-0.9,1.1-2,1.1c-3.1,0-4.8-0.5-4.8-1.5
		c0-0.1,0.1-0.5,0.2-0.9c2.5-5.4,3.7-8.5,5.5-14.5h-2.3c-0.9,0-1.5,0.1-2.5,0.2l-0.4-2.1c1,0.2,2,0.4,2.9,0.4h2.8
		c1.2-4.3,1.5-6.1,1.9-9.1c9.3,1.4,9.3,1.4,9.3,2.2c0,0.6-0.7,0.9-2.8,1.5c-0.8,2.8-0.9,3.6-1.5,5.4h5c1.7-2,2.3-2.5,4-4.4
		c2.8,2.1,3.6,2.8,6.2,4.9c0.1,0.2,0.3,0.4,0.3,0.6s-0.2,0.4-0.5,0.4H783.9z M775.3,22.7c1.8-2.1,2.5-2.8,4.3-4.8
		c3.1,2.3,3.9,3.1,6.7,5.5c0.2,0.2,0.3,0.4,0.3,0.5s-0.2,0.3-0.6,0.3h-22.4c-1,0-1.7,0.1-2.8,0.3l-0.4-2.3c1.1,0.3,2.2,0.4,3.2,0.4
		H775.3z M771.9,35.7c-1.3,4.3-2.4,7.5-3.5,10.5c2.5,0.7,3.3,0.9,5.1,1.5c1.6-3.6,2.6-7.2,3.3-12H771.9z M796.7,4.2
		c6.7,1.2,8.7,2.4,8.7,4.9c0,2-1.6,3.6-3.6,3.6c-1.3,0-1.7-0.4-2.3-2.2c-0.7-2.6-1.2-3.6-3.2-5.9L796.7,4.2z"/>
	<path fill="#231815" d="M871.2,28.7c2.8-3.2,3.6-4.1,6.3-7.2c4,3.1,5.2,4.1,9,7.5c0.4,0.4,0.5,0.6,0.5,0.7c0,0.4-0.4,0.5-0.9,0.5
		h-29.6V63h12.2c2.7-3.1,3.6-4.1,6.2-7.2c3.8,3.2,5.1,4.2,8.9,7.5c0.3,0.4,0.4,0.6,0.4,0.7c0,0.4-0.4,0.5-1,0.5H829
		c-2.2,0-3.7,0.1-5.5,0.5l-0.5-2.7c2.1,0.4,3.9,0.7,6,0.7h18.5V30.2h-22.3c-2.2,0-3.6,0.1-5.2,0.4l-0.4-2.6c2.1,0.5,3.3,0.7,5.5,0.7
		h22.4V14.4c0-4.1-0.1-6.3-0.5-10.9c11.8,1.3,13,1.5,13,2.6c0,0.7-0.7,1.1-3.6,1.9v20.6H871.2z"/>
	<path fill="#231815" d="M903.7,44.9c0.3,2.5,0.4,3.6,0.4,5.1c0,4.6-1,8.9-2.6,11.4c-1.5,2-3.5,3.3-5.3,3.3c-2.1,0-3.7-2.6-3.7-6
		c0-0.9,0.3-1.9,0.8-2.4c0.4-0.4,0.4-0.4,2.7-1.6c1.7-0.9,3.5-2.5,4.6-4.1c1.1-1.5,1.6-2.8,2.4-5.7H903.7z M899,6.2
		c2.3,0.6,3.7,0.7,5.7,0.7h32.6c1.8-1.9,2.4-2.4,4.4-4.2c2.7,1.8,3.5,2.3,6,4.2c0.6,0.5,0.9,0.9,0.9,1.2c0,0.7-0.7,1.2-2.5,2.3
		c0,1.6,0,2.8,0,3.6c0,2.7,0,4.6,0.1,8.6c0,0.8-0.1,1.2-0.6,1.4c-0.7,0.4-2.5,0.7-4.9,0.7c-2.2,0-2.7-0.2-2.7-1.3
		c0,0,0.1-0.1,0.1-0.1v-2.4H909v9.8c0,1.5,0.4,2,1.7,2c1.4,0.1,9,0.2,20.2,0.2c11.8,0,13.7-0.1,15-1.1c1.3-0.9,2.3-3,5.7-11.6
		l0.9,0.1l-0.8,9.3c0,0.4,0,0.8,0,0.9c0,0.7,0.3,1.1,1.2,1.4c1.7,0.5,2.5,1.4,2.5,2.8c0,2.2-1.2,3.5-4.1,4.1
		c-2.4,0.5-6.5,0.7-16.6,0.7c-19,0-25.6-0.1-27.9-0.4c-4.4-0.5-5.5-1.7-5.7-5.6V22.1c0-2.9,0-4.2-0.2-7.3c4.1,1.7,5.4,2.3,9.2,4.4
		h28V8.5h-33.4c-2.3,0-3.3,0.1-5.2,0.4L899,6.2z M909.7,49.8c0-2.3-0.1-3.6-0.4-6.6c2.1,0.2,4,0.4,5,0.5c4.6,0.5,6,0.9,6,1.7
		c0,0.7-0.6,1.1-3,1.8v11.1c0,1.2,0.1,1.5,1.2,1.7c0.7,0.2,4.1,0.3,10.2,0.3c5.2,0,6.4-0.2,7.3-1.2c0.9-1.1,1.7-2.7,5-11.3l0.7,0.1
		l-0.6,9.2c-0.1,0.2-0.1,0.4-0.1,0.4c0,0.9,0.3,1.2,1.2,1.5c1.9,0.5,2.8,1.5,2.8,3.1c0,2.1-1.2,3.6-3.9,4.3c-2,0.5-5.7,0.7-14.7,0.7
		c-11,0-13.4-0.1-15-1c-1.4-0.8-2-2-2-4.1c0-0.1,0-0.3,0-0.5c0-2.1,0-4.2,0-6.4V49.8z M920.2,41.8c10.1,2.3,13.7,4.4,13.7,7.4
		c0,3.1-2.1,6.1-4.3,6.1c-0.9,0-1.2-0.3-2.2-2.5c-1.8-4.4-3.8-7.1-7.6-10.4L920.2,41.8z M943.7,44.6c6.1,2.9,8.9,4.5,10.9,6.5
		c2,1.9,3.1,3.6,3.1,5.4c0,3.3-2.5,7.3-4.6,7.3c-1.2,0-1.7-0.9-2.5-3.7c-1.6-5.5-3.8-10.2-7.3-14.8L943.7,44.6z"/>
	<path fill="#231815" d="M971.2,8.2c1.7,0.3,4.5,0.6,5.8,0.6h30.9c2.6-2.4,2.6-2.4,5.1-4.8c3.5,2.6,4.5,3.4,7.8,6.2
		c0.6,0.5,0.7,0.8,0.7,1.2c0,0.9-0.9,1.2-4.3,1.4c-6.2,5-10.5,9-18.7,17.2c-12.3,12.5-15.3,15.6-17.5,19.3c-1.2,2-1.8,3.6-1.8,4.7
		c0,1.5,0.9,2.5,2.7,3c1.8,0.6,5.7,0.7,17.8,0.7c9.2,0,14.8-0.2,16.9-0.7c1.7-0.4,2.4-1.1,3.5-3.5c1.4-3.1,3.1-7.8,5.6-15.5l0.7,0.1
		l-0.7,14.7c-0.1,0.6-0.1,1.2-0.1,1.5c0,1,0.2,1.2,1.3,1.5c2,0.6,3.3,2,3.3,3.8c0,2.3-1.7,3.8-5.3,4.6c-3.5,0.7-12.3,1-27.4,1
		c-12.7,0-17-0.3-20.9-1.6c-3.8-1.2-6-4-6-7.7c0-6.7,5.2-14,22.7-31.5c9.3-9.3,10.6-10.7,13.9-14.2H977c-1.8,0-3.7,0.2-5.2,0.5
		L971.2,8.2z"/>
	<path fill="#231815" d="M1063.5,36.4h0.5c1.4-2,1.9-2.7,3.4-4.7c2.3,2.2,2.9,2.9,4.9,5.3c0.2,0.2,0.3,0.4,0.3,0.6
		c0,0.2-0.3,0.4-0.7,0.4h-8.4v11c0,2.9,0.1,9.1,0.2,18.5c0,0.8-0.3,1.1-1.1,1.4c-0.7,0.2-3.2,0.4-4.6,0.4c-1.5,0-2-0.4-2-1.4
		c0.2-7.3,0.3-9.1,0.3-19.1V37.9h-5.3c-0.4,7.6-1.5,13.1-3.2,17.7c-2.3,5.7-5.2,9.5-11,14l-0.6-0.5c5.5-8.6,7.3-15.5,7.7-31.1h-3.1
		c-1.6,0-2.6,0.1-4.2,0.4l-0.5-2.5c1.7,0.4,3.2,0.6,5.1,0.6h2.7c0.1-2.3,0.1-3.5,0.1-6c0-3.6,0-4.3-0.1-10.2h-1.3
		c-1.9,0-2.8,0.1-4.4,0.4l-0.5-2.5c2,0.4,3.1,0.6,5.4,0.6h11.6c2.1-4.7,4.4-12.3,4.8-16.2c10.3,3,10.3,3,10.3,3.7
		c0,0.7-0.9,1-2.5,1.2c-4.2,5.1-6.4,7.5-10.3,11.3h5.5c1.5-2,2-2.6,3.6-4.6c2.5,2.1,3.2,2.8,5.6,5.1c0.3,0.3,0.4,0.4,0.4,0.6
		c0,0.2-0.3,0.4-0.7,0.4h-7.6V36.4z M1040.3,2.9c7.8,3.3,11.3,6,11.3,8.9c0,2.6-2.5,5.7-4.6,5.7c-0.8,0-1.5-0.4-1.7-1.2
		c-0.2-0.4-0.2-0.4-1-3.6c-0.9-3.7-2-6-4.4-9.3L1040.3,2.9z M1051.2,20.2c0,0.4-0.1,5.7-0.2,16.1h5.3V20.2H1051.2z M1089.5,22.1
		c1.7-2,2.3-2.5,4-4.4c2.5,1.9,3.3,2.5,5.6,4.4c0.7,0.6,0.9,0.9,0.9,1.3c0,0.5-0.4,0.9-2.6,2.2l-0.7,34.4v0.6c0,0.4,0.2,0.5,1,0.5
		c0.7,0,1-0.2,1.2-0.9c0.4-1.1,1.5-5.7,3.4-14.7h0.7l-0.1,13.1c0,1.3,0.1,1.7,1,2c1.3,0.5,1.8,1.2,1.8,2.6c0,1.5-0.8,2.9-2,3.6
		c-1.3,0.7-3.6,1-7.1,1c-4.1,0-5.7-0.4-6.5-1.3c-0.4-0.7-0.7-1.9-0.7-3.1l0.1-7.2c-5.1,3.2-8.1,4.8-19.5,10
		c-0.4,2.3-0.6,2.8-1.3,2.8c-0.4,0-0.7-0.3-1-0.9c-0.5-1.1-1.6-4.5-2.8-8.9c2.3-0.1,2.7-0.1,5.4-0.6c2-15.3,4.1-37.1,4.6-48.9h-0.5
		c-2.2,0-3.1,0.1-4.7,0.4l-0.5-2.5c1.6,0.4,3.3,0.7,5.3,0.7h17.2l4.9-5.7c3.3,2.5,4.4,3.3,7.6,6c0.3,0.2,0.4,0.5,0.4,0.7
		c0,0.2-0.4,0.4-0.9,0.4h-21.4c-0.1,1.8-0.5,6-1.1,12.4H1089.5z M1081.1,23.6c-1,11.3-1.7,18.7-2.1,22.1c-0.2,2.3-0.7,6.2-1.3,11.6
		c6.3-1.1,8.6-1.7,12.1-2.7l0.6-31H1081.1z M1081.2,30.3c5,4.4,7.7,8.5,7.7,11.7c0,2.8-2.3,6.1-4.4,6.1c-1,0-1.5-1-1.5-3.2
		c0-0.4,0-0.8,0-1.6c0-0.4,0-0.9,0-1.1c0-5.9-0.6-8.6-2.4-11.4L1081.2,30.3z"/>
</g>
</svg>
