<?xml version="1.0" encoding="utf-8"?>
<!-- Generator: Adobe Illustrator 18.0.0, SVG Export Plug-In . SVG Version: 6.00 Build 0)  -->
<!DOCTYPE svg PUBLIC "-//W3C//DTD SVG 1.1//EN" "http://www.w3.org/Graphics/SVG/1.1/DTD/svg11.dtd">
<svg version="1.1" id="圖層_1" xmlns="http://www.w3.org/2000/svg" xmlns:xlink="http://www.w3.org/1999/xlink" x="0px" y="0px"
	 viewBox="-332 0 808 72" enable-background="new -332 0 808 72" xml:space="preserve">
<g>
	<path fill="#231815" d="M-309.5,19c1.3-1.7,2.6-3.5,3.7-5c2.6,2.4,3.5,3.1,5.9,5.7c0.2,0.2,0.4,0.4,0.4,0.7c0,0.2-0.2,0.4-0.7,0.4
		h-11.1v4.8c6.8,2.6,10,5.4,10,8.1c0,2.6-2.2,5.7-4.1,5.7c-0.9,0-1.3-0.7-2-3.1c-0.9-4.1-2-6.8-3.9-9.2v24.4c0,7.2,0,7.2,0,16.6
		c0,1.5-0.9,2-5.2,2c-2.4,0-2.6-0.2-2.8-1.5c0.2-5.4,0.2-5.4,0.2-11.3l0.2-11.1l0.2-7.6c-3.5,7.4-5.9,10.9-10.5,15.5l-0.7-0.4
		c4.8-9.6,8.3-21.1,10-32.7h-4.8c-1.5,0-2.2,0-3.7,0.4l-0.4-2.4c1.5,0.4,2.6,0.7,4.1,0.7h5.4V12c0-4.6,0-6.1-0.4-9.4
		c2.2,0.2,3.9,0.4,5,0.4c5,0.4,6.1,0.9,6.1,1.7c0,0.7-0.7,1.1-3.3,2v12.4h2.2V19z M-276.8,12.7c2-2,2.6-2.6,4.6-4.6
		c3.1,2.4,3.9,3.1,6.5,5.2c0.7,0.7,1.1,1.1,1.1,1.5c0,0.7-1.1,1.1-3.5,1.5c-3.9,6.1-6.8,9.6-10.9,13.5c6.1,3.5,11.8,4.8,20.3,5.4V36
		c-2.6,1.5-4.1,3.7-4.8,6.8c-0.2,0.9-0.4,1.3-0.9,1.3c-0.4,0-1.1-0.2-2.6-0.7c-6.5-2.4-11.3-5.2-15.9-9.8c-5,3.9-9.2,6.5-15,9.2
		c1.5,0.7,2.6,1.1,5.4,2.4h16.3c1.3-1.5,1.7-2,3.1-3.5c2.6,1.5,3.5,2.2,5.9,3.7c0.9,0.7,1.3,1.1,1.3,1.5c0,0.4-0.7,1.1-2,2
		c0,2.2,0,3.7,0,5c0,3.5,0,8.1,0.2,14.2c0,1.5-0.7,2-5.2,2c-2.6,0-2.8-0.2-2.8-1.3v-3.5h-16.8V68c0,0.9-0.2,1.1-0.4,1.3
		c-0.7,0.4-2,0.7-4.4,0.7c-2.8,0-3.1-0.2-3.1-1.5c0.2-11.6,0.2-14.2,0.2-17.4c0-2.8,0-2.8,0-7.4c-2.2,0.9-3.5,1.3-7,2.6l-0.4-0.9
		c8.5-5,14.6-9.6,21.1-16.6c-2.4-3.5-3.7-5.7-5.7-10c-3.1,4.1-5.4,6.5-10.7,10.5l-0.7-0.4c3.1-4.8,4.6-8.1,6.5-13.9
		c1.7-5,2.6-7.8,3.1-12c10.2,2.4,11.1,2.6,11.1,3.5c0,0.7-0.9,1.1-3.3,1.5c-1.3,2.4-1.7,3.3-2.6,5h11.8V12.7z M-292.5,63h16.8V46
		h-16.8V63z M-289.5,14.2c-1.1,1.5-1.1,1.7-2.2,3.1c3.1,4.6,4.6,6.3,7.2,8.5c3.3-3.9,5-6.5,7.6-11.8h-12.6V14.2z"/>
	<path fill="#231815" d="M-235.6,8.3c0-3.1,0-3.7-0.2-6.1c10,0.9,10.7,1.1,10.7,2c0,0.7-0.7,1.1-2.8,1.5c0,1.3,0,2.2,0,2.6h13.1
		c0-2.6,0-3.5-0.4-6.1c2.2,0.2,3.9,0.4,5,0.4c4.6,0.2,5.7,0.7,5.7,1.5c0,0.7-0.7,0.9-2.8,1.5v2.6h7.2c2.2-2.4,3.1-3.1,5.2-5.2
		c3.5,2.4,4.6,3.1,8.1,5.9c0.2,0.2,0.4,0.4,0.4,0.4c0,0.2-0.2,0.4-0.7,0.4h-20.3c0,1.3,0,1.5,0,3.1c0,0.7,0,0.9-0.4,1.1
		c-0.7,0.4-2.4,0.7-4.8,0.7c-2,0-2.4-0.2-2.4-1.3V9.6h-13.1c0,1.3,0,1.5,0,3.1c0,0.7,0,0.7-0.4,1.1c1.7,1.1,2.4,1.5,4.8,3.3
		c0.4,0.4,0.7,0.7,0.7,1.1c0,0.4-0.4,0.9-2.2,1.7c0,6.5,0,6.8,0.2,10.7c0,1.5-0.9,2-4.1,2c-0.4,0-0.4,0-1.1,0c0,0,0,0-0.2,0
		c-1.3,0-1.7-0.4-1.7-1.3v-1.1h-11.8v22v8.7c0,2,0,3.7,0,6.8c0,0.9-0.2,1.1-0.7,1.3c-0.7,0.4-2.4,0.7-4.6,0.7c-2,0-2.4-0.2-2.4-1.5
		c0.4-16.3,0.4-16.3,0.4-22c0-19.2-0.2-28.6-0.4-33.3c3.7,1.7,4.8,2.2,8.3,3.9h10.5c1.1-1.3,1.5-1.5,2.4-2.6
		c-1.3,0.2-2.2,0.2-3.3,0.2c-2.2,0-2.6-0.2-2.6-1.3c0-1.7,0-1.7,0-3.5h-13.1c-1.7,0-3.3,0.2-4.8,0.4l0.2-2.2c2,0.4,3.5,0.7,5.2,0.7
		H-235.6z M-231.9,18.3h-11.8v4.1h11.8V18.3z M-231.9,24h-11.8v4.6h11.8V24z M-218.4,55.8c9.2,1.5,12.6,3.5,12.6,6.8
		c0,2-1.3,3.7-2.8,3.7c-0.9,0-0.9-0.2-2.2-2c-0.9-1.1-3.1-3.5-4.1-4.6c-1.1-0.9-2-1.5-3.5-2.6c0,3.5,0,3.5,0.2,10
		c0,0.4,0,0.7-0.2,0.9c-0.2,0.7-1.5,0.9-3.7,0.9s-2.4-0.2-2.4-1.5c0-1.7,0-1.7,0.2-7.2v-1.7c-5.9,4.4-8.9,5.9-16.8,8.3l-0.2-0.9
		c5.9-3.7,9.4-6.5,13.5-12h-3.1v0.4c0,1.1-0.9,1.3-4.1,1.3c-2,0-2.2-0.2-2.2-1.3c0.2-3.9,0.2-4.6,0.2-10c0-2.6,0-3.7-0.2-6.3
		c3.1,1.1,3.9,1.5,6.8,2.8h6.1v-3.5h-12.4c-1.5,0-3.1,0.2-4.4,0.4l-0.2-2.4c1.7,0.4,2.8,0.4,4.8,0.4h12.2c0-2,0-2.8-0.4-5.2
		c3.7,0.4,4.8,0.7,6.8,0.9V31c0-4.6,0-6.3,0-10c0-3.5,0-4.8-0.2-7.8c3.3,1.3,4.4,1.7,7.6,3.3h10.9c1.7-1.7,2.2-2.2,3.9-3.7
		c2.4,1.5,3.1,2.2,5.4,3.9c0.4,0.4,0.7,0.7,0.7,1.1c0,0.7-0.4,1.1-2.2,2v24.8c0,5.7,0,5.7,0.2,17.2c0,0.4,0,0.7,0,0.9
		c0,3.1-0.9,4.6-2.8,5.7c-1.3,0.7-3.7,1.3-5.7,1.3c-0.7,0-0.9-0.2-1.1-1.1c-0.2-3.7-0.9-5-4.1-6.3v-0.7c3.9,0.2,3.9,0.2,5.4,0.2
		c0.7-0.2,0.9-0.2,0.9-1.3V30.1h-12.2V31c0,1.1-0.7,1.5-4.1,1.5c-0.4,0-0.9,0-1.3,0c-0.2,0.7-0.4,0.9-2.2,1.3V36h8.3
		c1.3-1.3,2.6-2.6,3.7-3.7c2.6,1.7,3.3,2.4,5.9,4.4c0.2,0.2,0.2,0.4,0.2,0.4c0,0.2-0.2,0.4-0.7,0.4h-17.4V41h6.8
		c1.3-1.3,1.5-1.7,2.8-2.8c2.2,1.3,2.8,1.7,4.8,3.3c0.4,0.4,0.7,0.7,0.7,0.9c0,0.4-0.4,0.9-1.7,1.7c0,6.8,0,6.8,0.2,10.2
		c0,0.7,0,0.9-0.4,1.1c-0.4,0.4-2.2,0.7-4.1,0.7c-1.5,0-1.7-0.2-1.7-1.1v-0.9h-7v1.7H-218.4z M-224.3,42.5h-6.5v4.1h6.5V42.5z
		 M-224.3,48.2h-6.5v4.4h6.5V48.2z M-211.4,46.7v-4.1h-7v4.1H-211.4z M-211.4,52.6v-4.4h-7c0,1.5,0,3.1,0,4.4H-211.4z M-198.6,18.3
		h-12.2v4.1h12.2V18.3z M-198.6,24h-12.2v4.6h12.2V24z"/>
	<path fill="#231815" d="M-161.3,27.1c0-3.9,0-4.8-0.4-7.2c8.5,0.7,9.4,0.7,10.2,1.1c0.7,0.2,0.9,0.4,0.9,0.9c0,0.7-0.9,1.1-2.8,1.5
		c0,11.8,0,12.4-0.2,16.1c-0.7,12.6-3.3,18.7-10.5,24c-3.9,2.8-8.1,4.6-15.5,6.5l-0.4-0.9c6.1-3.1,9.8-5.9,13.1-9.8
		c2.4-3.1,3.7-5.7,4.6-10c-5.2,2.8-5.2,3.1-13.7,6.3c-0.2,2.2-0.4,3.1-1.3,3.1s-1.1-0.9-4.1-9.6c3.9,0,11.8-0.9,19.6-2.2
		c0.2-2.4,0.4-3.5,0.4-7.8H-174c-2,0-3.1,0-4.4,0.4l-0.7-2.6c2,0.4,3.3,0.7,4.8,0.7h12.4c0-3.1,0-3.7,0.2-9.2h-14.4
		c-1.7,0-2.8,0.2-4.6,0.4l-0.7-2.6c2,0.4,3.3,0.7,5,0.7h14.8V27.1z M-142.8,10.9c0-3.9,0-5.7-0.4-7.6c2.2,0.2,4.1,0.4,5.2,0.4
		c4.6,0.4,5.7,0.7,5.7,1.5c0,0.7-0.7,1.1-2.8,1.7v4.1h7.2c2-2,3.7-3.9,5.2-5.7c3.5,2.6,4.4,3.5,7.6,6.1c0.2,0.4,0.4,0.4,0.4,0.7
		c0,0.2-0.2,0.4-0.7,0.4h-19.8c0,2.6,0,2.6,0,4.4c0,0.4-0.2,0.7-0.4,0.9c-0.7,0.4-2.2,0.7-3.9,0.7c-2.8,0-3.3-0.2-3.5-1.3
		c0.2-2.2,0.2-2.4,0.2-4.6h-13.1c0,2.6,0,2.6,0,4.6c0,0.4-0.2,0.7-0.4,0.9c-0.7,0.2-2.2,0.4-4.1,0.4c-3.1,0-3.5-0.2-3.5-1.3
		c0.2-3.3,0.2-3.3,0.2-4.6h-12.2c-1.3,0-3.5,0.2-5,0.4l-0.7-2.6c2.4,0.4,3.5,0.7,5.4,0.7h12.2c0-1.1,0-1.5,0-2.4
		c0-2.2,0-3.3-0.2-5.2c2.2,0.2,3.9,0.2,5,0.4c4.8,0.2,5.9,0.7,5.9,1.5c0,0.7-0.9,1.1-2.8,1.7c0,1.3,0,2.2,0,2.8c0,0.4,0,0.7,0,1.3
		h13.3V10.9z M-128.2,27.1c2.8-3.1,2.8-3.1,5-5.4c3.3,2.4,4.4,3.3,7.4,5.9c0.2,0.2,0.4,0.4,0.4,0.7s-0.2,0.4-0.7,0.4h-21.4v10h8.7
		c1.7-2,3.3-3.5,4.8-5.2c3.1,2.4,3.9,3.1,7,5.4c0.2,0.2,0.4,0.4,0.4,0.7s-0.4,0.4-0.9,0.4h-20.1v10.9V51h9.8
		c2.4-2.6,3.3-3.3,5.4-5.7c3.3,2.6,4.1,3.3,7.4,6.1c0.2,0.2,0.4,0.4,0.4,0.7s-0.4,0.4-0.9,0.4h-22.4c0.2,9.2,0.2,9.2,0.2,13.9
		c0,0.9-0.2,1.3-1.1,1.5c-0.7,0.2-3.3,0.4-5,0.4c-1.7,0-2.4-0.2-2.4-1.5c0.2-7.6,0.4-13.5,0.4-22.2c0-5.4,0-15.7-0.2-19.8
		c0-2.4,0-3.5-0.4-5.4c2.2,0.2,3.9,0.2,5,0.4c5.2,0.4,5.9,0.7,5.9,1.5c0,0.7-0.7,1.1-2.8,1.5v3.7h9.8V27.1z"/>
	<path fill="#231815" d="M-40.6,59.1c-3.1,1.5-4.1,3.1-4.6,6.8c0,0.9-0.4,1.1-1.3,1.1c-1.3,0.2-8.9,0.4-12.9,0.4
		c-13.9,0-18.5-0.2-21.8-1.3C-85,65-87.9,63-90,60.4c-1.3-1.5-2.2-3.5-3.5-7c-3.5,5-3.9,5.7-9.6,12.4c0,0.4,0,0.7,0,0.9
		c0,1.5-0.4,2.4-1.1,2.4c-0.2,0-0.7-0.2-0.9-0.9c-0.2-0.2-0.2-0.2-4.6-9.6c3.5-0.9,6.5-2.2,9.8-4.6V34h-4.4c-1.5,0-3.3,0.2-4.6,0.4
		l-0.4-2.6c2.4,0.4,3.7,0.7,5,0.7h3.5c1.7-2,2.4-2.6,4.4-4.6c2.6,2,3.5,2.4,5.9,4.4c0.7,0.4,0.9,0.9,0.9,1.3c0,0.7-0.4,1.1-2.2,2.2
		V53c1.5,2.6,2.6,3.9,4.4,4.8c2.8,1.5,7.2,2,15.9,2c8.5,0,20.5-0.7,31.2-1.7v1.1H-40.6z M-106.6,3.5c4.1,1.5,7.6,3.1,10.9,5.2
		c3.1,2,4.8,4.1,4.8,6.1c0,3.3-3.1,7.4-5.7,7.4c-1.1,0-1.5-0.4-2.4-3.3c-1.7-6.1-3.9-9.6-8.3-14.8L-106.6,3.5z M-78.3,52.3v3.1
		c0,0.7-0.2,0.9-0.4,1.1c-0.7,0.2-2.2,0.4-4.1,0.4c-2.6,0-3.1-0.2-3.3-1.3c0.2-6.8,0.4-9.2,0.4-17c0-19.4,0-23.1-0.2-26.2
		c3.7,1.5,4.8,2.2,8.5,4.1h7.4v-6.3c0-3.5,0-4.8-0.4-7.6c2,0.2,3.5,0.4,4.6,0.4c5,0.4,6.3,0.7,6.3,1.5c0,0.7-0.9,1.3-3.1,2v10h8.1
		c1.7-2,2.2-2.6,3.9-4.4c2.6,1.7,3.5,2.4,6.1,4.4c0.7,0.4,0.9,0.9,0.9,1.1c0,0.4-0.2,0.7-2.4,2.2c0,5.7,0,9.8,0,12.6
		c0,8.3,0,12.9,0.2,22.2c-0.2,0.7-0.2,0.9-0.7,1.1c-0.7,0.4-2,0.7-3.5,0.7c-0.9,0-1.7,0-2.4-0.2c-0.9-0.2-1.1-0.2-1.3-1.1v-3.1
		h-24.6V52.3z M-70,18.1h-8.3v14.8h8.3V18.1z M-70,34.5h-8.3v16.3h8.3V34.5z M-53.4,18.1h-8.9v14.8h8.9V18.1z M-53.4,34.5h-8.9v16.3
		h8.9V34.5z"/>
	<path fill="#231815" d="M9.8,31.2c-2.8,2.4-3.7,3.1-6.1,4.6c6.1,5.7,9.6,13.7,9.6,22.4c0,5.2-1.7,8.5-5.2,10
		c-1.5,0.7-4.1,1.3-5.2,1.3c-0.9,0-0.9-0.2-1.1-1.1c-0.4-3.5-1.5-4.4-8.3-6.3v-0.9c1.3,0,2.2,0.2,2.8,0.2c3.3,0.2,6.1,0.4,7.4,0.4
		c1.3,0,1.7-0.2,2.2-1.1c0.4-1.3,0.7-3.1,0.9-6.3c-8.1,4.4-15,6.5-24.6,8.3l-0.2-0.7C-7.9,57.8-2,54.3,6.1,47.6
		c-0.2-1.1-0.2-1.5-0.7-2.6c-3.1,1.7-4.1,2.4-7.2,3.5c-5.9,2.4-10,3.7-15.9,4.8l-0.2-0.7c9.2-4.1,15-8.1,21.4-13.7
		c-0.4-1.1-0.7-1.3-1.1-2.2c-6.8,4.1-12.2,6.3-20.1,8.1l-0.4-0.7c8.1-4.1,13.7-8.3,18.1-12.9h-3.7v0.9c0,0.9-0.9,1.1-3.9,1.1
		c-3.1,0-3.5-0.2-3.5-1.5c0-2.6,0.2-5.9,0.2-9.6c-1.5,1.3-2.6,2-5,3.5l-0.4-0.7c1.7-2.4,2.4-3.3,3.5-5h-7.8v5.9
		c2.4,1.3,3.1,1.7,4.4,2.6c2.6,1.7,3.9,3.5,3.9,5.2c0,2.4-1.7,5-3.5,5c-0.9,0-1.3-0.7-1.5-2.8c-0.7-4.4-1.5-6.8-3.1-8.7v15.7
		c0,10.7,0,15.9,0.2,24.4c0,2-0.9,2.2-5.4,2.2c-2,0-2.2-0.2-2.2-1.5c0.2-5.7,0.2-7.6,0.2-12.4c0-1.3,0-2.8,0-3.9c0-3.3,0-5.9,0-7.4
		l0.2-7.6c-2.8,7.2-5.9,11.8-10.7,16.3l-0.7-0.4c5.4-10.7,8.3-20.3,10.2-32.3h-3.9c-1.7,0-2.8,0.2-4.4,0.4l-0.4-2.6
		c2,0.4,2.8,0.7,4.8,0.7h4.8v-7.6c0-3.3-0.2-5-0.4-8.5c8.5,0.9,8.9,0.9,9.8,1.3c0.7,0.2,0.9,0.4,0.9,0.9c0,0.7-0.7,1.1-2.8,1.7v12.2
		h0.4c1.3-2,1.7-2.6,3.1-4.4c2.4,2.2,2.8,2.6,5,4.6C-7.9,12.2-5.7,7-4.8,2C6.1,4.4,6.1,4.4,6.1,5.1S5.2,6.1,2.8,6.4
		c-0.9,1.3-1.1,2-1.7,2.8h7.6C10.9,7,10.9,7,12.6,5.1c2.8,2.2,3.7,3.1,6.8,5.4c0.7,0.4,0.9,0.9,0.9,1.1c0,0.9-1.1,1.1-3.7,1.1
		c-3.9,3.3-4.8,3.9-7.8,6.1H20c1.5-1.7,2-2.4,3.5-4.1c2.4,1.7,3.1,2.2,5.4,3.9c0.7,0.7,1.1,0.9,1.1,1.3c0,0.7-0.4,1.1-2.4,2
		c0,1.1,0,2,0,2.6c0,1.7,0,4.1,0.2,7c0,1.3-0.9,1.7-4.4,1.7c6.1,3.5,8.1,4.8,8.1,5.4c0,0.4-0.4,0.7-1.1,0.7s-1.5,0-2.4-0.2
		c-4.8,2.6-6.8,3.5-10.9,5c1.5,2.2,3.1,3.7,5.2,5.7c3.7,2.8,6.1,4.4,10.2,5.4v0.7c-2,1.1-2.6,1.7-3.7,3.3c-0.9,1.1-1.3,2.4-2,3.5
		c-0.2,0.7-0.4,1.1-0.9,1.1c-0.7,0-2.8-1.7-5-4.4C15.2,52.8,11.7,43.6,9.8,31.2L9.8,31.2z M5.6,19c1.5-3.1,2.2-4.4,3.7-8.1H0.2
		c-1.7,2.2-3.5,4.4-5.9,6.8c0.7,0.4,1.1,0.7,2.2,1.3H5.6z M-3.5,20.5v9.4h8.3v-9.4C4.8,20.5-3.5,20.5-3.5,20.5z M11.5,31.2
		c1.3,5.2,2.6,8.1,4.8,11.6c3.1-3.1,5.2-5.9,7-9.4c-2.4,0-2.4,0-2.4-1.1v-1.1H11.5z M11.5,29.7h9.2v-9.4h-9.2V29.7z"/>
	<path fill="#231815" d="M43.8,21.4c-2,0-3.3,0.2-5,0.4l-0.4-2.6c2,0.4,3.1,0.7,5.4,0.7h22v-8.3c0-3.9,0-5.4-0.4-8.7
		c9.2,0.9,9.6,1.1,10.5,1.3c0.7,0.2,0.9,0.7,0.9,0.9c0,0.7-0.7,1.1-3.1,2v12.9h15.5c2.4-2.6,2.4-2.6,5.9-6.5c3.7,2.8,4.8,3.9,8.3,7
		c0.2,0.2,0.4,0.4,0.4,0.7c0,0.2-0.4,0.4-0.7,0.4H74.3c2.4,6.3,4.6,10,8.5,14.4c3.9,4.1,8.7,7.8,14.6,10.7c2.4,1.3,4.1,2,8.1,3.5
		v0.7c-2.2,1.1-3.1,1.7-3.9,3.5c-0.9,1.1-1.7,3.1-2,3.9c-0.4,0.9-0.7,1.1-0.9,1.1c-0.9,0-4.8-2.8-8.1-5.9C85.2,48,80.8,42.1,78,35.3
		c-1.5-3.5-2.4-6.1-3.9-11.8l0.2,25.7c0.2,10.2,0.2,16.3,0.2,18.5c0,1.7-0.9,2-5.2,2c-3.3,0-3.5-0.2-3.5-1.5
		c0.2-4.6,0.4-13.7,0.4-18.7l0.2-16.3c-4.8,8.1-8.5,12.4-14.4,17.4c-4.4,3.7-8.5,6.5-15.5,10L35.9,60c9.6-8.5,13.3-12.9,19-21.8
		c3.7-6.1,6.5-11.3,8.5-17H43.8V21.4z"/>
	<path fill="#231815" d="M157.5,51.3c0,3.3,0,3.5,0,8.9v6.3c0,1.5-0.9,2-4.8,2c-2.2,0-2.6-0.2-2.6-1.5c0-1.5,0-6.8,0-15.9v-2.6h-8.1
		v19.2c0,1.7-0.7,2-5,2c-2.4,0-2.6-0.2-2.6-1.5l0,0c0.2-14.6,0.2-15,0.2-20.1c0-12.4-0.2-25.1-0.2-28.1h-9.4v5.7
		c5.4,2.8,8.7,6.8,8.7,10.5c0,3.1-2,5.9-3.9,5.9c-0.9,0-1.3-0.7-1.5-2.8c-0.7-6.8-1.3-8.7-3.3-12v2.2c0,7.8,0,29,0.2,38.4
		c0,1.7-0.9,2.2-4.8,2.2c-2.6,0-3.1-0.2-3.1-1.5c0.4-12.6,0.4-12.6,0.7-23.1l0.2-7.6c-3.1,6.8-5,10-10,15.5l-0.7-0.4
		c4.8-9.2,7.8-19.4,9.8-32.3h-4.1c-1.5,0-2.2,0-3.7,0.4l-0.4-2.6c1.7,0.4,2.6,0.7,4.1,0.7h4.8v-7.2c0-3.9,0-5.4-0.4-8.9
		c8.3,0.9,9.2,0.9,10,1.3c0.7,0.2,0.9,0.4,0.9,0.9c0,0.7-0.9,1.1-3.1,1.7v12h1.3c1.5-2.2,2-2.8,3.5-5c2.4,2.4,3.1,3.1,5,5.4
		c3.5,1.7,4.1,2,7.6,3.9h10.2c-0.9-0.7-0.9-0.7-2-2.6c-1.5-2.4-4.1-5-8.3-8.1l0.2-0.7c7.2,1.5,9.8,2.2,12.6,3.5
		c1.5-1.5,2.2-2.2,6.1-7h-22.2c-2,0-3.1,0.2-4.6,0.4l-0.4-2.6c2,0.4,3.3,0.7,5,0.7h22c2-1.7,2.4-2.2,4.4-3.9
		c3.5,2.6,4.4,3.3,7.6,5.9c0.7,0.7,1.1,0.9,1.1,1.3c0,0.9-1.1,1.3-3.1,1.3c-0.2,0-0.7,0-1.1,0c-6.5,3.3-8.5,3.9-12.6,5.4
		c0.9,1.1,1.1,1.7,1.1,2.6c0,1.7-0.4,2.8-1.5,3.7h8.3c1.5-2,2.2-2.4,3.9-4.4c2.4,1.7,3.3,2.2,5.4,3.9c0.7,0.7,1.1,1.1,1.1,1.3
		c0,0.7-0.7,1.3-2.4,2.2v19.8c0,11.3,0,11.3,0,16.6c0,3.1-0.7,4.4-2.6,5.4c-1.5,0.7-3.7,1.3-5.2,1.3c-1.1,0-1.3-0.2-1.3-1.1
		c-0.2-2-0.4-3.1-1.1-3.9c-0.9-0.9-1.5-1.3-5-2.4v-0.9c2.8,0.2,3.9,0.4,7,0.4c0.9,0,1.1-0.2,1.1-0.9V48.9h-8.5v2.4H157.5z
		 M150.4,24.4h-8.1v10.5h8.1V24.4z M150.4,36.4h-8.1v10.9h8.1V36.4z M166.3,34.7V24.2h-8.5v10.5H166.3z M166.3,47.1V36.2h-8.5v10.9
		H166.3z"/>
	<path fill="#231815" d="M181.1,32.1c2,0.2,3.7,0.4,5,0.4h4.6c1.5-2,2.2-2.4,3.9-4.4c2.8,2,3.7,2.6,6.3,4.6c0.4,0.4,0.4,0.7,0.4,0.9
		c0,0.7-0.2,0.9-2.6,2.2v17.7c2,2.8,3.3,4.1,5,5c3.1,1.3,8.3,2,17.9,2c7,0,18.5-0.7,28.8-1.3V60c-2.8,1.7-3.9,3.3-4.6,6.8
		c-0.2,0.7-0.4,0.9-1.1,0.9c-0.9,0-12.4,0.4-15.7,0.4c-15.5,0-20.9-0.9-24.8-3.7c-3.1-2.2-4.8-4.6-7.2-10.7
		c-2.4,4.1-4.4,6.5-9.4,12.4c0,0.2,0,0.4,0,0.4c0,0.2,0,0.4,0,0.9c0,0.2,0,0.4,0,0.7c0,0.9-0.4,1.5-0.9,1.5c-0.4,0-0.9-0.2-1.1-0.9
		c-0.9-1.3-1.7-3.1-2.6-5c-0.4-0.9-1.1-2.4-2-4.4c3.1-0.9,6.5-2.6,9.8-4.8V34.5h-4.8c-1.1,0-3.1,0.2-4.4,0.4L181.1,32.1z M184.6,3.7
		c10.7,4.1,14.8,7.2,14.8,11.3c0,3.3-2.8,7-5.4,7c-1.1,0-1.7-0.7-2.4-3.1c-2.2-7.2-3.7-10.2-7.6-14.8L184.6,3.7z M220.8,15.1V8.8
		c0-2.4,0-3.7-0.2-6.3c9.8,1.1,10.9,1.3,10.9,2.4c0,0.7-0.7,1.1-2.8,2v8.5h5.9c2-2.6,2.6-3.3,4.8-5.7c3.5,2.6,4.4,3.5,7.6,6.3
		c0.2,0.2,0.4,0.4,0.4,0.4c0,0.2-0.4,0.4-0.9,0.4h-18.1v11.6h8.3c2.2-2.6,2.8-3.5,5.2-5.9c3.5,2.8,4.6,3.7,7.8,6.5
		c0.2,0.2,0.2,0.2,0.2,0.4c0,0.2-0.4,0.4-0.9,0.4H204c-1.1,0-3.1,0.2-3.9,0.4l-0.7-2.4c1.7,0.2,3.3,0.4,4.6,0.4h16.6V16.8H212
		c-2.8,4.1-5.4,7-9.8,10.2l-0.7-0.4c2.4-4.6,4.4-9.4,5.9-15.5c0.7-2.4,1.1-4.1,1.3-7c8.3,2.2,9.2,2.4,10,3.1
		c0.4,0.2,0.7,0.4,0.7,0.9c0,0.7-0.4,0.9-3.3,1.5c-1.5,3.1-2,3.9-3.3,5.7h7.8V15.1z M234,36.9c1.5-1.7,2.2-2.2,3.9-3.9
		c2.6,1.7,3.5,2.2,6.1,3.9c0.4,0.2,0.7,0.7,0.7,0.9c0,0.4-0.4,1.1-2.2,2.2c0,1.7,0,2.6,0,3.7c0,3.7,0,7.6,0.2,12
		c0,0.9-0.4,1.1-1.3,1.3c-0.7,0.2-3.5,0.4-4.8,0.4s-1.7-0.2-1.7-1.3V53h-19.4v3.1c-0.2,1.3-1.1,1.5-4.6,1.5c-2.8,0-3.3-0.2-3.5-1.3
		c0.2-4.4,0.2-8.3,0.2-14.4c0-5,0-6.8-0.2-9.4c3.9,1.7,5,2.2,8.7,4.1H234V36.9z M215.1,51.7h19.4V38.2h-19.4V51.7z"/>
	<path fill="#231815" d="M302.9,52.3c2.4-2.4,3.1-3.1,5.4-5.4c3.5,2.4,4.4,3.3,7.6,5.9c0.2,0.2,0.4,0.4,0.4,0.7s-0.4,0.4-0.9,0.4
		h-23.3v11.3h15.3c2.6-2.8,3.5-3.9,6.1-6.5c3.7,2.8,4.8,3.9,8.3,7c0.4,0.4,0.4,0.4,0.4,0.7c0,0.2-0.4,0.4-0.9,0.4h-61.2
		c-2,0-2.8,0-4.4,0.4l-0.4-2.6c1.7,0.4,2.8,0.7,4.6,0.7h23.8V53.9h-17.7c-1.7,0-2.8,0-4.1,0.4l-0.4-2.6c1.7,0.4,3.1,0.7,4.6,0.7
		h17.7v-2.6c0-2.2,0-3.1-0.2-5c-1.5,0.2-2.4,0.2-3.7,0.2c-2,0-2.6-0.2-2.6-1.3v-0.2c0.2-9.8,0.2-9.8,0.2-16.1v-2.8h-6.3
		c-0.9,7.4-2.8,12.9-6.1,17c-2.2,2.4-4.4,4.1-10,7.6l-0.4-0.7c6.5-7.8,8.3-12.6,9.2-24h-5c-1.3,0-2.4,0-3.7,0.4l-0.4-2.4
		c1.5,0.4,2.6,0.4,3.9,0.4h5.2c0.2-3.3,0.2-4.8,0.2-8.9V9.2h-3.5c-1.5,0-2.6,0-3.7,0.4l-0.4-2.4c1.5,0.4,2.8,0.7,4.1,0.7h21.1
		c2.2-2.2,2.8-2.8,4.8-5c2.8,2.2,3.7,2.8,6.5,5.2c0.4,0.2,0.4,0.4,0.4,0.7c0,0.2-0.4,0.4-0.9,0.4H285v13.7h0.2
		c1.7-2.2,2.2-2.8,3.9-4.8c2.6,2.4,3.3,2.8,5.7,5.2v-9.8c0-3.5,0-4.6-0.2-7.6c10,0.9,10.7,1.1,10.7,2c0,0.7-0.9,1.1-2.8,1.7v14.8
		c0,2.8,0,4.1,0,7.2c0,1.5-1.1,2-4.8,2c-2.4,0-2.8-0.2-2.8-1.5c0-2.6,0-2.6,0-7.6h-0.4h-9.6v2.8c0,11.1,0,11.1,0,15.9v0.4
		c4.1,0.4,6.8,0.7,7.8,0.9c1.1,0.2,1.5,0.7,1.5,1.1c0,0.7-0.7,1.1-2.8,1.7v5C291.4,52.3,302.9,52.3,302.9,52.3z M272,9.2
		c-0.2,9.2-0.2,9.2-0.4,13.7h6.3V9.2H272z M298.3,37.5c6.5,0.4,6.5,0.4,10,0.4c1.1,0,1.5-0.2,1.5-1.1V14c0-4.8,0-6.5-0.4-10.2
		c11.3,1.1,11.3,1.1,11.3,2.2c0,0.7-0.7,1.1-2.8,1.7v19.4c0,0.4,0,1.5,0,3.5c0,1.3,0,1.3,0.2,7.2c0,3.7-0.9,5.4-2.8,6.3
		c-1.5,0.9-4.8,1.7-6.8,1.7c-0.9,0-1.1-0.2-1.1-1.3c0-1.5-0.7-2.6-2-3.5c-1.3-0.9-2.6-1.3-7.2-2.4L298.3,37.5z"/>
	<path fill="#231815" d="M348.7,7.7v2c-5.7,0.2-6.3,0.9-6.3,7.6v23.1c0,6.8,0.7,10.9,2.6,14.2c2.4,3.9,6.3,6.1,11.6,6.1
		c6.1,0,10.9-2.8,13.1-8.1c1.1-2.8,1.7-7.4,1.7-13.1v-17c0-10.2-1.3-12.2-7.4-12.6V7.7h17.9v2.2c-6.1,0.2-7.4,2.6-7.4,12.6v17
		c0,7.6-0.9,12-2.8,15.7c-3.5,5.7-8.7,8.3-17.2,8.3c-8.1,0-14.4-2.4-17.9-7c-2.6-3.5-3.5-7-3.5-14.4V17.3c0-6.5-0.7-7.4-6.3-7.6v-2
		H348.7z"/>
	<path fill="#231815" d="M387,45.2h2.8c1.1,10.9,5.4,16.1,13.5,16.1c6.3,0,10.2-3.7,10.2-10c0-5-2.8-7.8-12-12.4
		c-6.1-3.1-7.8-3.9-9.6-5.2c-4.1-3.1-5.9-6.5-5.9-11.6c0-5.9,3.3-11.1,8.5-13.5c2.4-1.1,5.4-1.7,9.4-1.7c2.4,0,3.5,0.2,8.9,1.3
		c1.1,0.2,1.7,0.2,2.6,0.2c1.1,0,2.2-0.2,4.4-1.1l-0.7,16.3h-2.8c-0.2-4.1-0.9-6.5-2.4-9.2c-2.2-3.7-5.7-5.7-10-5.7
		c-5.7,0-9.4,3.9-9.4,9.4c0,2.4,0.9,4.6,2.4,6.1c1.7,1.7,3.7,2.8,9.4,5.7c6.5,3.1,9.6,5,12,7.4c2.4,2.6,3.7,5.9,3.7,10
		c0,5-1.7,9.2-5,11.8c-3.5,2.6-8.1,4.1-13.3,4.1c-2.8,0-4.6-0.2-9.8-1.3c-0.9-0.2-1.7-0.2-2.8-0.2c-1.3,0-2.2,0.2-4.8,0.7L387,45.2z
		"/>
	<path fill="#231815" d="M428,60.4c5.9-0.2,6.5-0.9,6.5-7.6V17.3c0-6.8-0.7-7.4-6.5-7.6v-2h22.9c14.4,0,20.9,3.9,20.9,12.4
		c0,7.6-4.6,11.3-15.7,12.6v0.4c11.6,0.7,17.7,5.2,17.7,14.2c0,10.5-7,14.8-24,14.8h-21.6v-1.7H428z M450,32.1
		c7.6,0,11.6-3.9,11.6-11.3c0-7.2-4.1-10.7-12-10.7h-5.7v22.2h6.1V32.1z M449.4,60.2c9.2,0,13.7-4.4,13.7-13.1
		c0-4.8-1.7-8.7-4.8-10.7c-2-1.3-5-2-8.5-2h-5.9v25.7C443.9,60.2,449.4,60.2,449.4,60.2z"/>
</g>
</svg>
