<?xml version="1.0" encoding="utf-8"?>
<!-- Generator: Adobe Illustrator 18.0.0, SVG Export Plug-In . SVG Version: 6.00 Build 0)  -->
<!DOCTYPE svg PUBLIC "-//W3C//DTD SVG 1.1//EN" "http://www.w3.org/Graphics/SVG/1.1/DTD/svg11.dtd" [
	<!ENTITY ns_flows "http://ns.adobe.com/Flows/1.0/">
	<!ENTITY ns_extend "http://ns.adobe.com/Extensibility/1.0/">
	<!ENTITY ns_ai "http://ns.adobe.com/AdobeIllustrator/10.0/">
	<!ENTITY ns_graphs "http://ns.adobe.com/Graphs/1.0/">
]>
<svg version="1.1" id="圖層_1" xmlns:x="&ns_extend;" xmlns:i="&ns_ai;" xmlns:graph="&ns_graphs;"
	 xmlns="http://www.w3.org/2000/svg" xmlns:xlink="http://www.w3.org/1999/xlink" xmlns:a="http://ns.adobe.com/AdobeSVGViewerExtensions/3.0/"
	 x="0px" y="0px" viewBox="0 0 912 72" style="enable-background:new 0 0 912 72;" xml:space="preserve">
<g>
	<path d="M22,10.1c0-3.7-0.1-4.7-0.5-7.8c9.9,0.8,11.3,1,11.3,2c0,0.7-0.9,1.2-3.1,1.7v7.3h13v-2.8c0-3.9-0.1-5-0.3-8.1
		c10.2,0.9,11,1,11,2c0,0.7-0.9,1.2-3,1.7v7.2h5.2c2.3-2.5,3-3.3,5.3-5.7c3.3,2.5,4.2,3.3,7.3,6.1c0.3,0.4,0.4,0.5,0.4,0.7
		c0,0.3-0.4,0.5-0.9,0.5H50.4v13.2h6.9c2.3-2.7,3.1-3.5,5.5-6c3.6,2.6,4.6,3.4,7.9,6.3c0.3,0.4,0.4,0.6,0.4,0.7
		c0,0.3-0.4,0.5-0.9,0.5H45.2c2.5,2.9,4.1,4.2,7,5.9c5.3,3,10,4.3,19.9,5.5L72,41.8c-2.8,1.5-4.4,3.3-5.5,6.5
		c-0.3,0.9-0.6,1.2-1,1.2c-1.1,0-7.1-3.3-10.1-5.5c-5.5-4.1-8.7-7.9-11.6-14.4H30.9c-3.2,4.6-5.4,7.1-9.1,10.3
		c-5.7,5-11.3,8.2-19.4,11.5L2,50.7c6-4.3,9.4-7.5,13.5-12.4c2.8-3.3,3.8-4.8,6-8.7H9.6c-1.9,0-3.5,0.1-5.5,0.5l-0.4-2.7
		c2.1,0.4,4,0.7,6,0.7H22V14.9h-8.9c-2.3,0-3.6,0.1-5.3,0.4l-0.4-2.6c2.3,0.5,3.6,0.7,5.7,0.7H22V10.1z M20.8,44.9c0,0.9,0,1.7,0,2
		c0,4.1-0.9,8.6-2.3,11.9c-1.5,3.3-4.3,5.8-6.7,5.8c-1.2,0-2.3-0.7-2.8-1.8c-0.5-1.2-0.8-2.7-0.8-4.1c0-1.8,0.5-2.4,3.3-3.6
		c2.2-1,3.9-2.3,5.4-3.9c1.6-1.9,2.3-3.3,3-6.3L20.8,44.9z M18.4,60.5c1,0.1,1.8,0.1,2.3,0.2c3.2,0.2,3.4,0.2,5.6,0.3
		c1,0,1.2-0.2,1.2-1.3V42.9c0-2.1-0.1-3.9-0.4-7.6c8.9,0.7,10.5,0.9,10.5,1.7c0,0.7-0.7,1.1-2.7,1.7v11.2c0,6.3,0,6.5,0.1,11.3
		c0,0.4,0,0.7,0,0.8c0,3.3-0.7,4.7-3,5.9c-1.6,0.7-4.1,1.3-6,1.3c-0.9,0-0.9-0.1-1.1-1.9c-0.1-1.5-0.9-2.9-2-3.7
		c-1.1-0.9-2-1.3-4.7-2.1L18.4,60.5z M29.7,14.9v13.2h13V14.9H29.7z M39.1,44.5c6.5,5.3,10.5,10.3,10.5,13.6c0,2.8-3.1,6.3-5.5,6.3
		c-1.2,0-1.7-0.9-1.9-3.3c-0.5-6.2-1.6-11-3.9-16.1L39.1,44.5z M49.7,44.8c5.7,3,8.5,4.7,11,6.8c2.7,2.3,3.8,4.1,3.8,5.9
		c0,3.3-2.6,6.8-4.9,6.8c-1.2,0-1.6-0.7-2.5-3.5c-1.5-5.2-4.2-10.5-7.9-15.5L49.7,44.8z"/>
	<path d="M97,36.3c4,1.2,5.8,1.8,7.3,2.8c1.7,1.1,2.5,2.2,2.5,3.4c0,1.5-1,2.8-2.7,3.8h10.5c2-3.8,3.3-6.8,4.2-10.2
		c2.1,0.9,3.7,1.5,4.7,1.9c4.2,1.7,5.1,2.1,5.1,2.8s-0.7,0.9-2,0.9c-0.4,0-0.9,0-1.5,0c-5.7,3.7-5.7,3.7-7.3,4.6h13.4
		c3.1-3.1,3.1-3.1,5.7-5.7c3.6,2.5,4.7,3.3,8.1,6.2c0.3,0.3,0.4,0.4,0.4,0.7s-0.3,0.4-0.7,0.4H83.1c-2,0-3.3,0.1-4.8,0.5L78,45.7
		c1.7,0.4,2.8,0.6,5.1,0.6h17.2c-0.7-0.7-0.9-1-1-2c-0.8-4.7-0.9-4.9-2.3-6.9c-0.1,0.9-1.1,1.1-4.1,1.1c-3.3,0-3.8-0.1-3.8-1.5
		c0.1-3.2,0.1-4.7,0.1-8.2c0-3.3,0-4.5-0.1-7.3c3.9,1.5,5.1,2,8.9,3.7h26.5c1.7-1.5,2.1-1.9,3.7-3.3c2.8,1.7,3.7,2.2,6.3,3.9
		c0.6,0.4,0.8,0.7,0.8,0.9c0,0.6-0.6,1.1-2.3,1.8c0,1.1,0,2,0,2.5c0,1.3,0,1.9,0.1,5.1c0,0.6-0.1,0.8-0.2,1
		c-0.4,0.5-2.3,0.8-5.2,0.8c-2.3,0-2.5-0.1-2.5-0.9v-0.9H96.9L97,36.3L97,36.3z M129.7,9.7c2.3-2.4,2.3-2.4,5.5-5.5
		c3.7,2.5,4.9,3.2,8.4,6c0.3,0.3,0.4,0.5,0.4,0.7c0,0.3-0.3,0.4-0.8,0.4h-28.4v7.3h11.6c2.3-2.4,3-3.1,5.2-5.2
		c3.4,2.3,4.4,3.1,7.7,5.7c0.3,0.3,0.4,0.4,0.4,0.7c0,0.2-0.3,0.4-0.8,0.4H89.1c-2.2,0-3.3,0.1-4.9,0.5l-0.4-2.6
		c1.8,0.4,3.3,0.6,5.4,0.6h17.5v-7.3H84.9c-2,0-3.3,0.1-4.8,0.4l-0.5-2.6c1.8,0.4,3.5,0.7,5.3,0.7h21.8V8.3c0-2.5-0.1-3.7-0.3-6.3
		c10,0.8,11.5,1,11.5,2.1c0,0.7-0.6,1-3.1,1.7v3.9H129.7z M125.6,53.1c1.7-1.6,2.3-2.1,4.1-3.6c2.6,1.6,3.4,2.1,6.1,3.8
		c0.7,0.5,0.9,0.9,0.9,1.2c0,0.6-0.6,1.1-2.4,2c-0.1,1.7-0.1,2.9-0.1,3.8c0,1.7,0,2.8,0.2,7.6c0,1.5-0.8,1.7-5.3,1.7
		c-2.6,0-3-0.1-3-1.2v-2.4H95.5v2.1c0,1.4-0.4,1.5-5.2,1.5c-2.8,0-3.2-0.1-3.2-1.4c0.2-7.2,0.2-8.7,0.2-11.5c0-2.8,0-4.2-0.1-7.6
		c4.1,1.5,5.4,2,9.3,3.9H125.6z M95.5,64.5h30.7v-10H95.5V64.5z M96.9,34.6H125v-7.9H96.9V34.6z"/>
	<path d="M153.8,5.4c3.4,2.8,5,4.4,7.3,7.5c3.3-5.2,4-6.5,5.2-10.3c2,0.7,3.3,1.2,4.3,1.5c4.9,1.7,5.9,2.2,5.9,2.9
		c0,0.7-0.8,0.9-3.3,1.1c-3.7,4.5-5.7,6.5-9,9.5c4.4,7.7,6.5,17.5,6.5,29.6c0,9.6-1.2,16-3.4,18.6c-1.8,2-5.1,3.3-8.7,3.3
		c-0.9,0-1-0.1-1.2-1.8c-0.1-1.7-0.8-3.1-2-3.8c-0.7-0.4-2.3-1.2-4.8-2.2l0.1-0.9c5.2,0.5,7,0.7,8.8,0.7c2,0,2.3-0.3,2.9-2.4
		c0.7-3,1.1-7.3,1.1-13.5c0-2.8,0-4.1-0.1-6.5c-3.9,4.2-7.3,6.9-12.6,10.3l-0.4-0.6c5.6-6.7,8.2-10.9,12.2-19.7
		c-0.4-3.2-0.9-5.5-1.9-8.3c-2.6,2-6,4.3-10,6.6l-0.5-0.7c3.9-3.9,5.7-6,8.7-10.4c-1.8-4.1-3.1-6.4-5.8-10.1L153.8,5.4z M202.3,48.2
		c1.6-1.5,2.1-2,3.7-3.4c2.9,2,3.8,2.6,6.6,4.7c0.7,0.5,0.9,0.8,0.9,1.2c0,0.7-0.9,1-3.7,1.3c-4.1,3.6-5.7,5-8.9,7.1
		c4.4,0.9,9.3,1.4,14.9,1.4c1.1,0,2.7,0,4.8-0.1v0.8c-2.8,1.8-4.1,3.6-4.9,6.4c-0.3,0.9-0.5,1.2-1.1,1.2c-1.1,0-6.5-1.1-9.2-1.9
		c-4-1.2-7.2-2.5-10.5-4.4c-7.8,3.9-15.1,5.7-27.2,6.7l-0.2-0.7c10-2.8,15.3-4.9,22.5-9.3c-3.9-3.1-5.6-5-8.4-9.3h-4.4
		c-1.2,0-2.3,0.1-3.5,0.4l-0.5-2.5c1.5,0.4,2.7,0.5,4,0.5H202.3z M200.1,42.1h7.3c2-2.2,2.5-2.8,4.4-4.9c3.1,2.3,4.1,3,7,5.5
		c0.2,0.2,0.4,0.4,0.4,0.6c0,0.3-0.4,0.4-0.7,0.4h-35.1v1.2c-0.1,1.2-0.9,1.5-4.5,1.5c-2.3,0-2.7-0.2-2.7-1.4
		c0.2-6,0.2-7.6,0.2-13.1v-3.9c-2.2,1.7-3.3,2.4-6.5,4.3l-0.5-0.4c4.9-6,8.6-12.5,10-17.5c2,0.6,3.6,1,4.6,1.2c4.4,1.2,5,1.5,5,2.1
		c0,0.6-0.8,0.9-3.1,1.2c-0.9,1.2-1.3,1.5-2.2,2.5h9.5c1.1-2.8,1.6-4.4,1.9-6.4c7.3,1.8,8.9,2.3,8.9,3c0,0.7-0.7,0.9-3,0.9l-4.1,2.5
		h10.7l4.1-4.7c2.8,2.2,3.6,2.9,6.2,5.2c0.2,0.2,0.4,0.4,0.4,0.7c0,0.2-0.3,0.4-0.7,0.4h-17.3v5h5.7l4-4.2c2.7,2,3.5,2.7,6,4.9
		c0.2,0.1,0.4,0.4,0.4,0.5c0,0.2-0.3,0.4-0.6,0.4h-15.5v5.2h5.8c1.7-1.8,2.3-2.4,4-4.3c2.7,2,3.5,2.7,6.1,4.9
		c0.2,0.2,0.4,0.4,0.4,0.6c0,0.2-0.3,0.4-0.7,0.4h-15.6V42.1z M198.2,9.6c0.1-0.9,0.1-0.9,0.1-2c0-2.3-0.1-3.1-0.2-5.1
		c9.8,0.7,10.4,0.9,10.4,1.8c0,0.6-0.7,0.9-3,1.7c0,0.9,0,1.5,0,2c0,0.3,0,0.9,0,1.5h3.7c1.8-2.2,2.4-2.8,4.3-4.9
		c2.8,2.3,3.6,3,6.3,5.4c0.3,0.4,0.4,0.5,0.4,0.7c0,0.3-0.3,0.4-0.7,0.4h-14c0.1,1.2,0.1,1.2,0.1,2.7c-0.1,1.2-1,1.5-4.6,1.5
		c-2.5,0-2.8-0.1-2.9-1.2c0-1.6,0.1-2.6,0.1-3h-8.3c0.1,0.9,0.1,1.7,0.1,2.8c0,0.5-0.1,0.8-0.4,0.9c-0.6,0.4-2.5,0.6-4.4,0.6
		c-2,0-2.4-0.1-2.5-1c0-1,0-2.1,0-3.3h-5.5c-1.3,0-2.3,0.1-3.3,0.4l-0.4-2.4c1.4,0.3,2.5,0.4,3.9,0.4h5.5c0-4.2,0-4.7-0.3-7.2
		c2,0.2,3.6,0.4,4.6,0.4c4.7,0.4,5.7,0.7,5.7,1.5c0,0.6-0.6,0.9-2.8,1.7c0,0.9,0,1.5,0,2c0,0.3,0,0.9,0,1.5H198.2z M183.3,49.7
		c3.6,3.6,6.2,5.2,10.4,7.1c3.6-2.5,5-3.9,7.9-7.1H183.3z M193.2,27.8v-5h-9.8v5H193.2z M193.2,34.6v-5.2h-9.8v5.2H193.2z
		 M183.4,42.1h9.8v-6h-9.8V42.1z"/>
	<path d="M234.8,38c-2.8,2.3-4.5,3.6-8.7,6.2l-0.7-0.7c4.6-5.1,7.3-9.1,10.5-14.8c2.3-4.3,3.6-7.3,4.9-11.3c2,0.7,3.6,1.2,4.7,1.6
		c3.9,1.3,5.1,1.9,5.1,2.6s-0.8,1-2.8,1.2c-3.3,4.9-4.9,6.9-7.1,9.5c3.9,0.7,4.3,0.8,4.3,1.5c0,0.6-0.6,0.9-2.4,1.5v15.4
		c0,2.9,0,3.2,0.1,9.3c0,2.5,0,2.5,0,7.2c-0.1,0.7-0.2,1.1-0.5,1.4c-0.7,0.6-2.5,0.9-5.2,0.9c-1.9,0-2.4-0.4-2.5-1.8
		c0.4-11.8,0.4-12.4,0.4-16.2V38z M226.1,22.5c3.4-3.5,6.1-7,8.8-11.3c2.1-3.4,3-5.2,4.1-9.1c10.7,3.6,11,3.8,11,4.6
		s-0.4,0.9-3.5,1.4c-7.9,8.2-11.7,11.1-19.8,15.1L226.1,22.5z M251.6,35.9c-1.5,0-2.5,0.1-4.4,0.4l-0.5-2.5c2,0.4,3.2,0.6,5.2,0.6
		h29.7c2.1-2.3,2.8-3,4.9-5.2c3.1,2.3,4,3,7,5.5c0.3,0.3,0.4,0.5,0.4,0.7c0,0.3-0.4,0.5-0.9,0.5h-10.5v7.5h1.9
		c2-2.1,2.5-2.8,4.4-4.7c2.8,2.1,3.6,2.8,6.3,5.2c0.3,0.2,0.4,0.4,0.4,0.6c0,0.2-0.4,0.4-0.8,0.4h-12.1v7.9c0,0.7,0,2.5,0.1,5.2
		c0,0.9,0.1,2.4,0.1,4.2c-0.1,2.7-0.7,3.8-2.5,4.9c-1.6,1-5.6,2-8,2c-0.7,0-0.9-0.2-0.9-1.3c-0.5-4-2-5.3-8.4-6.7
		c-0.9,0.5-1.4,0.7-2,0.7c-0.9,0-1.4-0.6-1.9-2.3c-0.3-1-1.5-4.4-2.3-6.4c-0.9-2.3-1.9-3.9-3.9-6.3l0.4-0.5
		c9.7,3.5,12.8,5.7,12.8,8.9c0,1.7-0.7,3.5-1.9,4.8c3.2,0.3,5.2,0.4,9.6,0.4c1,0,1.2-0.2,1.2-1.2V44.9h-23.9c-1.9,0-3.1,0.1-5,0.4
		l-0.6-2.5c2.2,0.4,3.7,0.6,5.8,0.6h23.7v-7.5H251.6z M252.2,29.3c0.3-5.9,0.4-8.5,0.4-15.7c0-4.7-0.1-6.8-0.4-11
		c4.1,1.7,5.3,2.3,9.2,4.2h15.7c1.7-1.9,2.3-2.4,4.1-4.2c2.6,1.8,3.4,2.3,6,4.2c0.7,0.5,1,0.9,1,1.2c0,0.6-0.6,1.1-2.5,2
		c0,11.2,0,11.8,0.1,18.6c0,0.7-0.1,1.1-0.5,1.4c-0.7,0.5-2.4,0.8-4.9,0.8c-2.1,0-2.6-0.3-2.6-1.5v-1.8h-17.5v1.6
		c-0.1,0.9-0.3,1.3-1,1.6c-0.6,0.2-2.9,0.4-4.7,0.4C252.8,31.2,252.2,30.9,252.2,29.3L252.2,29.3z M277.8,8.4h-17.5v7.8h17.5V8.4z
		 M260.3,17.8v8.3h17.5v-8.3H260.3z"/>
	<path d="M319.4,18.9c1.3-1.7,2.6-3.4,3.8-5c2.7,2.4,3.4,3.1,5.9,5.6c0.3,0.3,0.4,0.4,0.4,0.6c0,0.2-0.2,0.4-0.6,0.4h-11.1v4.9
		c6.8,2.7,10,5.4,10,8.1c0,2.5-2.3,5.6-4.1,5.6c-0.9,0-1.4-0.7-1.9-3.1c-0.8-4.1-2-6.8-4-9.2v24.3c0,7.2,0,7.2,0.1,16.6
		c0,1.6-0.8,1.9-5.2,1.9c-2.4,0-2.7-0.1-2.8-1.5c0.1-5.5,0.1-5.5,0.3-11.3l0.3-11.1l0.2-7.6c-3.4,7.3-5.8,11-10.4,15.5l-0.7-0.4
		c4.7-9.5,8.3-21,10-32.6h-4.9c-1.6,0-2.2,0.1-3.8,0.4l-0.4-2.5c1.5,0.4,2.7,0.6,4.1,0.6h5.5V12c0-4.6-0.1-6.2-0.4-9.5
		c2.3,0.2,3.9,0.4,4.9,0.4c5,0.5,6.2,0.8,6.2,1.7c0,0.7-0.7,1-3.2,1.9v12.4H319.4z M352.1,12.5c2-2,2.6-2.7,4.6-4.6
		c3.1,2.3,3.9,3.1,6.6,5.3c0.7,0.7,1,1.1,1,1.5c0,0.7-1,1.1-3.5,1.5c-3.9,6.1-6.7,9.5-10.8,13.4c6.1,3.4,11.9,4.9,20.3,5.4v0.7
		c-2.6,1.6-4.1,3.7-4.7,6.7c-0.2,0.9-0.4,1.2-0.9,1.2c-0.4,0-1.1-0.2-2.6-0.7c-6.6-2.3-11.4-5.3-15.9-9.9c-4.9,3.9-9.2,6.5-15,9.2
		c1.6,0.7,2.6,1.2,5.5,2.5h16.2c1.4-1.6,1.8-2,3.1-3.5c2.6,1.6,3.4,2.1,6,3.7c0.9,0.7,1.2,1.1,1.2,1.5c0,0.5-0.6,1.1-2,1.9
		c-0.1,2.3-0.1,3.7-0.1,5.1c0,3.6,0.1,8,0.3,14.2c0,1.6-0.7,1.9-5.2,1.9c-2.5,0-2.8-0.1-2.9-1.2v-3.5h-16.7v2.8
		c-0.1,0.9-0.1,1.1-0.4,1.3c-0.6,0.4-2,0.7-4.4,0.7c-2.8,0-3.1-0.1-3.1-1.5c0.1-11.6,0.1-14.1,0.1-17.3c0-2.8,0-2.9-0.1-7.3
		c-2.2,0.9-3.5,1.4-7,2.5l-0.4-0.8c8.5-4.9,14.5-9.7,21-16.5c-2.5-3.4-3.8-5.7-5.6-10.1c-3.1,4.1-5.5,6.5-10.7,10.5l-0.6-0.5
		c3-4.8,4.5-8.1,6.6-13.8c1.8-5,2.5-7.9,3.1-12.1c10.3,2.4,11.2,2.7,11.2,3.6c0,0.7-0.9,1.1-3.3,1.5c-1.2,2.5-1.7,3.3-2.6,5H352.1z
		 M336.5,62.9h16.7V46h-16.7V62.9z M339.4,14c-1,1.6-1.1,1.7-2.1,3.1c3,4.5,4.5,6.3,7.2,8.6c3.3-3.9,4.9-6.5,7.7-11.7H339.4z"/>
	<path d="M394.9,8.2c0-3.1,0-3.8-0.3-6.2c10,0.9,10.8,1,10.8,2c0,0.7-0.7,1-2.9,1.6c0,1.3,0,2.2,0,2.6h13c0-2.5-0.1-3.6-0.4-6.1
		c2.3,0.2,3.9,0.4,5,0.4c4.5,0.3,5.7,0.6,5.7,1.5c0,0.6-0.6,0.9-2.8,1.6v2.6h7.2c2.3-2.3,3-3.1,5.3-5.2c3.5,2.3,4.6,3.1,8,5.8
		c0.3,0.2,0.4,0.4,0.4,0.5c0,0.3-0.3,0.4-0.7,0.4h-20.1c0,1.2,0.1,1.5,0.1,3.1c0,0.7-0.1,0.9-0.4,1.2c-0.6,0.4-2.4,0.7-4.9,0.7
		c-2,0-2.5-0.2-2.5-1.2l0.1-3.8h-13c0,1.4,0,1.5,0.1,3c0,0.6-0.1,0.7-0.5,1.1c1.7,1,2.5,1.6,4.8,3.2c0.5,0.4,0.7,0.7,0.7,1.1
		c0,0.5-0.5,0.9-2.1,1.8c0.1,6.6,0.1,6.8,0.2,10.6c0,1.5-0.9,1.9-4.1,1.9c-0.4,0-0.4,0-1,0c-0.1,0-0.1,0-0.1,0
		c-1.2,0-1.7-0.4-1.7-1.3v-1H387v22l-0.1,8.8c0,1.9,0,3.7,0.1,6.8c0,0.8-0.1,1.2-0.6,1.4c-0.7,0.4-2.4,0.6-4.5,0.6
		c-2,0-2.5-0.3-2.5-1.6c0.4-16.3,0.4-16.3,0.4-22c0-19.2-0.1-28.5-0.4-33.3c3.8,1.7,4.9,2.2,8.4,4h10.5c1.2-1.3,1.5-1.6,2.4-2.5
		c-1.4,0.1-2.1,0.2-3.3,0.2c-2.3,0-2.6-0.1-2.6-1.2c0.1-1.7,0.1-1.7,0.1-3.4h-13.2c-1.8,0-3.2,0.1-4.9,0.4l-0.4-2.5
		c2,0.4,3.4,0.6,5.2,0.6H394.9z M398.7,18.2H387v4.2h11.7V18.2z M398.7,24H387v4.6h11.7V24z M412.3,55.7c9.2,1.6,12.7,3.4,12.7,6.7
		c0,2-1.3,3.7-2.8,3.7c-0.8,0-0.9-0.1-2.3-2c-0.8-1.1-3-3.5-4.1-4.6c-1-0.9-1.9-1.5-3.6-2.5c0.1,3.5,0.1,3.5,0.3,10.1
		c0,0.4-0.1,0.7-0.1,0.9c-0.4,0.4-1.8,0.7-4,0.7s-2.5-0.2-2.5-1.5c0.1-1.7,0.1-1.7,0.3-7.1v-1.7c-5.9,4.4-8.9,5.9-16.8,8.3l-0.2-0.8
		c6-3.6,9.3-6.6,13.4-12h-2.8v0.4c-0.1,1.2-0.8,1.4-4.1,1.4c-1.9,0-2.2-0.1-2.2-1.2c0.2-4,0.2-4.5,0.2-10c0-2.5-0.1-3.7-0.3-6.3
		c3.1,1.2,3.9,1.5,6.8,2.8h6v-3.5h-12.4c-1.6,0-3.1,0.1-4.4,0.4l-0.3-2.5c1.7,0.4,2.9,0.5,4.8,0.5h12.2c-0.1-2-0.1-2.8-0.4-5.2
		c3.6,0.4,4.8,0.6,6.8,0.9v-0.4c0.1-4.5,0.1-6.3,0.1-10c0-3.5,0-4.8-0.1-7.9c3.3,1.4,4.4,1.8,7.6,3.3h11c1.7-1.7,2.2-2.2,3.9-3.7
		c2.4,1.6,3.1,2.1,5.5,3.9c0.5,0.4,0.7,0.7,0.7,1.1c0,0.6-0.5,1-2.3,2v24.7c0,5.7,0,5.7,0.3,17.1c0,0.4,0,0.7,0,0.9
		c0,3.1-0.8,4.7-2.9,5.7c-1.4,0.7-3.7,1.2-5.7,1.2c-0.7,0-0.9-0.2-1-1.2c-0.1-3.8-0.9-5-4.1-6.4v-0.7c3.9,0.2,3.9,0.2,5.5,0.2
		c0.7-0.1,0.8-0.3,0.8-1.2V30.1h-12.2v0.9c0,1.2-0.7,1.5-4.1,1.5c-0.4,0-0.8,0-1.4,0c-0.2,0.7-0.4,0.9-2.1,1.4v2.1h8.3
		c1.3-1.3,2.5-2.5,3.6-3.7c2.5,1.8,3.3,2.4,5.9,4.4c0.2,0.2,0.3,0.4,0.3,0.5c0,0.2-0.3,0.4-0.7,0.4h-17.4v3.5h6.8
		c1.2-1.3,1.6-1.7,2.8-2.9c2.2,1.4,2.8,1.8,4.8,3.3c0.4,0.4,0.7,0.6,0.7,0.8c0,0.5-0.4,0.9-1.8,1.7c0,6.8,0,6.8,0.1,10.2
		c0,0.7-0.1,0.9-0.4,1.2c-0.4,0.4-2.1,0.7-4.1,0.7c-1.5,0-1.8-0.2-1.8-1v-0.9h-6.9V55.7z M406.2,42.4h-6.4v4.1h6.4V42.4z M406.2,48
		h-6.4v4.3h6.4V48z M419.2,46.5v-4.1h-7.1v4.1H419.2z M419.2,52.3V48h-7.1c0.1,1.6,0.1,3.1,0.1,4.3H419.2z M431.9,18.2h-12.2v4.2
		h12.2V18.2z M431.9,24h-12.2v4.6h12.2V24z"/>
	<path d="M470.9,27c0-4-0.1-4.7-0.4-7.2c8.4,0.7,9.3,0.7,10.2,1c0.6,0.2,0.9,0.5,0.9,0.9c0,0.7-0.9,1.2-2.8,1.6
		c0,11.8,0,12.5-0.2,16.1c-0.7,12.7-3.3,18.8-10.5,23.9c-3.9,2.8-8.1,4.6-15.3,6.5l-0.5-0.8c6.2-3.1,9.9-5.8,13-9.7
		c2.4-3.1,3.6-5.7,4.7-10.1c-5.2,2.9-5.2,3-13.7,6.4c-0.1,2.1-0.5,3-1.2,3c-0.8,0-1.2-0.9-4.2-9.6c4-0.1,11.8-0.9,19.6-2.2
		c0.3-2.3,0.4-3.6,0.5-7.8h-12.4c-2,0-3,0.1-4.3,0.4l-0.6-2.5c2,0.4,3.2,0.6,4.9,0.6h12.5c0.1-3.1,0.1-3.7,0.1-9.1h-14.3
		c-1.7,0-2.9,0.1-4.5,0.4l-0.6-2.5c2,0.4,3.3,0.6,5.1,0.6H470.9z M489.5,10.7c0-3.9-0.1-5.7-0.4-7.6c2.2,0.2,4.1,0.4,5.2,0.4
		c4.6,0.4,5.7,0.7,5.7,1.5c0,0.7-0.6,1-2.8,1.7l0.1,4.1h7.3c1.9-2,3.6-3.9,5.2-5.7c3.4,2.6,4.4,3.4,7.6,6c0.3,0.4,0.4,0.5,0.4,0.7
		c0,0.2-0.3,0.4-0.7,0.4h-19.9c0.1,2.5,0.1,2.5,0.1,4.4c-0.1,0.4-0.2,0.7-0.5,0.8c-0.6,0.4-2.1,0.6-3.9,0.6c-2.8,0-3.3-0.2-3.5-1.2
		c0.1-2.2,0.1-2.5,0.1-4.6h-13.2c0.1,2.6,0.1,2.6,0.1,4.5c-0.1,0.5-0.1,0.7-0.4,0.9c-0.6,0.3-2.2,0.5-4.1,0.5
		c-3.1,0-3.5-0.1-3.5-1.3c0.1-3.3,0.1-3.3,0.1-4.6h-12.2c-1.3,0-3.6,0.2-4.9,0.4l-0.6-2.6c2.3,0.5,3.6,0.7,5.5,0.7h12.2
		c0-1,0-1.5,0-2.3c0-2.2-0.1-3.3-0.2-5.3c2.3,0.2,3.9,0.3,5,0.4c4.7,0.3,5.8,0.6,5.8,1.5c0,0.7-0.8,1.1-2.8,1.7
		c-0.1,1.2-0.1,2.2-0.1,2.8c0,0.5,0,0.7,0.1,1.3H489.5z M504,27c2.8-3,2.8-3,4.9-5.5c3.3,2.5,4.3,3.3,7.3,5.9
		c0.2,0.3,0.4,0.5,0.4,0.7c0,0.2-0.3,0.4-0.7,0.4h-21.2l0.1,10h8.7c1.7-1.9,3.3-3.6,4.7-5.2c3.1,2.4,4,3.1,6.9,5.5
		c0.3,0.3,0.4,0.5,0.4,0.7c0,0.3-0.4,0.5-0.9,0.5h-19.9l0.1,11v0.2h9.9c2.4-2.5,3.2-3.3,5.5-5.7c3.3,2.5,4.2,3.3,7.4,6.1
		c0.3,0.3,0.4,0.5,0.4,0.7c0,0.2-0.4,0.4-0.8,0.4H495c0.1,9.2,0.1,9.2,0.3,14c0,0.9-0.2,1.2-1,1.5c-0.7,0.2-3.3,0.5-5,0.5
		c-1.8,0-2.3-0.3-2.4-1.5c0.3-7.6,0.4-13.5,0.4-22.2c0-5.5-0.1-15.6-0.1-19.9c0-2.5-0.1-3.4-0.4-5.5c2.3,0.1,4,0.3,5.1,0.4
		c5.2,0.4,5.9,0.6,5.9,1.5c0,0.7-0.7,1.1-2.8,1.6V27H504z"/>
	<path d="M593.5,58.9c-3.1,1.6-4.1,3.1-4.6,6.8c-0.1,0.8-0.4,1.1-1.2,1.2c-1.2,0.1-8.9,0.4-12.9,0.4c-13.8,0-18.5-0.3-21.7-1.2
		c-3.9-1.2-6.8-3-8.9-5.7c-1.2-1.6-2.2-3.4-3.6-7c-3.6,5.1-3.9,5.6-9.7,12.4c0,0.4,0,0.7,0,0.9c0,1.5-0.4,2.4-1.1,2.4
		c-0.3,0-0.7-0.3-0.9-0.9c-0.1-0.2-0.1-0.2-4.6-9.5c3.6-0.8,6.5-2.2,9.8-4.7V34.1h-4.4c-1.5,0-3.2,0.2-4.6,0.5l-0.5-2.7
		c2.3,0.5,3.7,0.7,5.1,0.7h3.5c1.8-2,2.4-2.7,4.3-4.7c2.6,1.9,3.4,2.5,6,4.4c0.6,0.5,0.8,0.8,0.8,1.3c0,0.7-0.4,1-2.3,2.2v17.2
		c1.5,2.7,2.5,3.9,4.4,4.8c2.9,1.5,7.1,2,15.9,2c8.5,0,20.4-0.7,31.2-1.7V58.9z M527.4,3.5c4.1,1.5,7.6,3.1,10.9,5.2
		c3.1,1.9,4.8,4.1,4.8,6.2c0,3.3-3.1,7.3-5.6,7.3c-1.2,0-1.5-0.5-2.4-3.3c-1.8-6-3.9-9.7-8.3-14.8L527.4,3.5z M555.8,52.1v3
		c-0.1,0.7-0.1,0.9-0.5,1.2c-0.6,0.3-2.3,0.5-4.1,0.5c-2.6,0-3.1-0.2-3.3-1.3c0.3-6.7,0.4-9.1,0.4-16.9c0-19.4-0.1-23.1-0.3-26.2
		c3.6,1.6,4.7,2.2,8.4,4.1h7.5v-6.4c0-3.6-0.1-4.8-0.4-7.6c2,0.2,3.6,0.4,4.6,0.4c5.1,0.4,6.4,0.7,6.4,1.6c0,0.7-0.9,1.3-3,2v10h8.1
		c1.7-1.9,2.3-2.5,3.9-4.3c2.7,1.8,3.5,2.4,6,4.3c0.7,0.4,0.9,0.8,0.9,1.2c0,0.5-0.2,0.7-2.5,2.2c-0.1,5.7-0.1,9.8-0.1,12.7
		c0,8.3,0.1,12.9,0.3,22.1c-0.1,0.6-0.3,0.8-0.6,1c-0.6,0.4-2,0.7-3.6,0.7c-0.9,0-1.7-0.1-2.5-0.1c-0.8-0.1-1-0.3-1.2-1.1v-3H555.8z
		 M564,18h-8.1v14.8h8.2L564,18z M564,34.3h-8.2v16.3h8.3L564,34.3z M580.5,18h-8.9v14.8h8.9V18z M580.5,34.3h-8.9v16.3h8.9V34.3z"
		/>
	<path d="M606.9,60c3.3-0.1,4.4-0.2,5.5-0.9c1.7-0.9,2.2-2.8,2.2-7.4V18.3c-0.1-3.7-0.1-3.7-0.2-4.4c-0.3-1.6-1.2-2-4.9-2h-2v-2
		c6.9-0.6,12.2-1.3,17-2.2c-0.4,5.2-0.7,11.3-0.7,18.3v25.7c0,4.4,0.4,6.3,1.7,7.3c1,0.8,1.9,0.9,5.6,1v2h-24.2V60z"/>
	<path d="M652.3,35c4.5-4.2,8.5-5.9,14-5.9c10.6,0,17.2,6.3,17.2,16.4c0,10.8-7.6,17.7-19.7,17.7c-9.5,0-16.9-4.6-16.9-10.5
		c0-2.8,1.8-4.2,5.2-4.2c1.7,0,3,0.4,3.6,1.2c0.5,0.6,0.7,1.2,0.7,3.3c0.1,2.7,0.7,4.6,2,6c1.4,1.5,3.5,2.4,5.7,2.4
		c3,0,5.5-1.3,7.1-3.7c1.7-2.7,2.8-6.7,2.8-11.2c0-9.2-3.8-14.5-10.3-14.5c-4.8,0-9.3,3-12.2,7.9l-2.4-0.6l2.4-30.5h29.7l-1.3,8.1
		h-26.2L652.3,35z"/>
	<path d="M733.7,29h7.8c2.3-2.5,3-3.3,5.2-5.8c3.4,2.6,4.5,3.4,7.9,6.1c0.2,0.3,0.4,0.5,0.4,0.7c0,0.3-0.4,0.6-0.7,0.6h-20.5v17.7
		h11.1c2.5-2.8,3.3-3.6,6-6.3c3.6,2.8,4.7,3.7,8.1,6.7c0.2,0.3,0.4,0.5,0.4,0.7c0,0.3-0.3,0.5-0.8,0.5h-24.7v6.4
		c0,1.1,0.1,6.6,0.2,11.1c0,1.2-0.2,1.7-0.9,2c-0.7,0.3-2.6,0.5-4.9,0.5c-2.5,0-3-0.2-3-1.4c0-0.1,0-0.2,0-0.4
		c0.2-8.3,0.3-9.7,0.3-11.3v-6.8h-26.2c-1,0-4.7,0.3-6.2,0.4l-0.4-2.5c3.2,0.4,4.4,0.6,6.6,0.6h4.7V32.8c0-4-0.1-5.5-0.3-9.2
		c4.2,2.3,5.5,3,9.5,5.3h12.3v-14h-14.1c-5.5,7.2-10.3,11.8-17.3,16.7l-0.6-0.7c4.6-5.8,7.2-10,10-16.1c2.3-5.1,3.6-8.7,4.5-12.5
		c7.3,2,10.9,3.1,11.6,3.7c0.2,0.1,0.4,0.4,0.4,0.7c0,0.8-0.5,1-3.8,1.5c-2.1,3.2-2.6,3.9-3.8,5.3H743c1.8-2,3.7-4.1,5.5-6.1
		c3.8,2.8,4.9,3.6,8.5,6.5c0.2,0.2,0.4,0.4,0.4,0.6c0,0.3-0.3,0.5-0.7,0.5h-23V29z M712.2,30.5v17.7h13.2V30.5H712.2z"/>
	<path d="M773.4,8.2c1.7,0.3,4.5,0.6,5.8,0.6h30.9c2.6-2.4,2.6-2.4,5.1-4.8c3.5,2.6,4.5,3.4,7.8,6.3c0.6,0.5,0.7,0.8,0.7,1.2
		c0,0.9-0.9,1.2-4.3,1.4c-6.3,5-10.5,9-18.7,17.2c-12.4,12.5-15.3,15.6-17.5,19.3c-1.2,2-1.8,3.6-1.8,4.7c0,1.5,0.9,2.5,2.7,3
		c1.8,0.6,5.7,0.7,17.8,0.7c9.2,0,14.8-0.2,16.9-0.7c1.7-0.4,2.4-1.1,3.5-3.5c1.4-3.1,3.1-7.9,5.6-15.5l0.7,0.1L827.9,53
		c-0.1,0.6-0.1,1.2-0.1,1.5c0,1,0.2,1.2,1.3,1.5c2,0.6,3.3,2,3.3,3.8c0,2.3-1.7,3.9-5.3,4.6c-3.5,0.7-12.3,1-27.4,1
		c-12.7,0-17-0.3-20.9-1.6c-3.9-1.2-6-4-6-7.7c0-6.7,5.2-14,22.7-31.6c9.3-9.3,10.6-10.7,14-14.2h-30.2c-1.8,0-3.7,0.2-5.2,0.5
		L773.4,8.2z"/>
	<path d="M867.7,36.4h0.5c1.4-2,1.9-2.7,3.4-4.7c2.3,2.2,2.9,2.9,4.9,5.3c0.2,0.2,0.3,0.4,0.3,0.6s-0.3,0.4-0.7,0.4h-8.4V49
		c0,2.9,0.1,9.1,0.2,18.5c0,0.8-0.3,1.1-1.1,1.4c-0.7,0.2-3.2,0.4-4.7,0.4s-2-0.4-2-1.4c0.2-7.3,0.3-9.1,0.3-19.1V37.9h-5.3
		c-0.4,7.6-1.5,13.1-3.2,17.7c-2.3,5.7-5.2,9.5-11.1,14l-0.6-0.5c5.5-8.6,7.3-15.6,7.7-31.1h-3.1c-1.6,0-2.6,0.1-4.2,0.4l-0.5-2.5
		c1.7,0.4,3.2,0.6,5.1,0.6h2.7c0.1-2.3,0.1-3.5,0.1-6c0-3.6,0-4.3-0.1-10.2h-1.3c-1.9,0-2.8,0.1-4.4,0.4l-0.5-2.5
		c2,0.4,3.1,0.6,5.4,0.6h11.6c2.1-4.7,4.4-12.3,4.8-16.2c10.3,3,10.3,3,10.3,3.7c0,0.7-0.9,1-2.5,1.2c-4.2,5.1-6.4,7.5-10.3,11.3
		h5.5c1.5-2,2-2.6,3.6-4.6c2.5,2.1,3.2,2.8,5.6,5.1c0.3,0.3,0.4,0.4,0.4,0.6c0,0.2-0.3,0.4-0.7,0.4h-7.6V36.4z M844.4,2.9
		c7.9,3.3,11.3,6,11.3,8.9c0,2.6-2.5,5.7-4.7,5.7c-0.8,0-1.5-0.4-1.7-1.2c-0.2-0.4-0.2-0.4-1-3.6c-0.9-3.7-2-6-4.4-9.3L844.4,2.9z
		 M855.3,20.3c0,0.4-0.1,5.7-0.2,16.1h5.3V20.3H855.3z M893.7,22.1c1.7-2,2.3-2.5,4-4.4c2.5,1.9,3.3,2.5,5.6,4.4
		c0.7,0.6,0.9,0.9,0.9,1.3c0,0.5-0.4,0.9-2.6,2.2L900.9,60v0.6c0,0.4,0.2,0.5,1,0.5c0.7,0,1-0.2,1.2-0.9c0.4-1.1,1.5-5.7,3.4-14.7
		h0.7l-0.1,13.1c0,1.3,0.1,1.7,1,2c1.3,0.5,1.8,1.2,1.8,2.6c0,1.5-0.8,2.9-2,3.6c-1.3,0.7-3.6,1-7.1,1c-4.1,0-5.7-0.4-6.5-1.3
		c-0.4-0.7-0.7-1.9-0.7-3.1l0.1-7.2c-5.1,3.2-8.1,4.8-19.6,10c-0.4,2.3-0.6,2.8-1.3,2.8c-0.4,0-0.7-0.3-1-0.9
		c-0.5-1.1-1.6-4.5-2.8-8.9c2.3-0.1,2.7-0.1,5.4-0.6c2-15.3,4.1-37.2,4.7-48.9h-0.5c-2.2,0-3.1,0.1-4.7,0.4l-0.5-2.5
		c1.6,0.4,3.3,0.7,5.3,0.7H896l4.9-5.7c3.3,2.5,4.4,3.3,7.6,6c0.3,0.2,0.4,0.5,0.4,0.7c0,0.2-0.4,0.4-0.9,0.4h-21.5
		c-0.1,1.8-0.5,6-1.1,12.4H893.7z M885.3,23.7c-1,11.3-1.7,18.8-2.1,22.1c-0.2,2.3-0.7,6.2-1.3,11.6c6.3-1.1,8.6-1.7,12.1-2.7
		l0.6-31.1H885.3z M885.4,30.3c5,4.4,7.7,8.5,7.7,11.7c0,2.8-2.3,6.1-4.4,6.1c-1,0-1.5-1-1.5-3.2c0-0.4,0-0.8,0-1.6
		c0-0.4,0-0.9,0-1.1c0-5.9-0.6-8.7-2.4-11.4L885.4,30.3z"/>
</g>
</svg>
