<?xml version="1.0" encoding="utf-8"?>
<!-- Generator: Adobe Illustrator 18.0.0, SVG Export Plug-In . SVG Version: 6.00 Build 0)  -->
<!DOCTYPE svg PUBLIC "-//W3C//DTD SVG 1.1//EN" "http://www.w3.org/Graphics/SVG/1.1/DTD/svg11.dtd">
<svg version="1.1" id="圖層_1" xmlns="http://www.w3.org/2000/svg" xmlns:xlink="http://www.w3.org/1999/xlink" x="0px" y="0px"
	 viewBox="0 0 790 72" enable-background="new 0 0 790 72" xml:space="preserve">
<g>
	<path d="M21,17.7c1.2-1.6,2.4-3.1,3.4-4.6c2.5,2.2,3.1,2.8,5.4,5.1c0.3,0.3,0.3,0.4,0.3,0.5c0,0.2-0.2,0.3-0.5,0.3H19.5v4.4
		c6.2,2.5,9.1,4.9,9.1,7.4c0,2.3-2.1,5.1-3.8,5.1c-0.9,0-1.3-0.6-1.7-2.8c-0.7-3.8-1.9-6.2-3.6-8.4v22.1c0,6.6,0,6.6,0.1,15.1
		c0,1.5-0.7,1.7-4.8,1.7c-2.2,0-2.4-0.1-2.5-1.3c0.1-5,0.1-5,0.3-10.3L12.8,42l0.2-7c-3.1,6.7-5.3,10-9.5,14.1l-0.6-0.4
		c4.3-8.7,7.5-19.1,9.1-29.7H7.6c-1.5,0-2,0.1-3.4,0.3l-0.3-2.3c1.4,0.4,2.4,0.5,3.8,0.5h5v-6.3c0-4.2-0.1-5.6-0.4-8.6
		c2.1,0.2,3.5,0.3,4.5,0.4c4.6,0.5,5.6,0.7,5.6,1.5c0,0.6-0.6,0.9-2.9,1.7v11.3H21z M50.8,11.9c1.8-1.9,2.4-2.5,4.2-4.2
		c2.8,2.1,3.6,2.8,6,4.8c0.7,0.6,0.9,1,0.9,1.3c0,0.6-0.9,1-3.2,1.3c-3.6,5.6-6.1,8.7-9.9,12.2c5.6,3.1,10.8,4.4,18.5,4.9v0.6
		c-2.4,1.5-3.8,3.4-4.3,6.1c-0.2,0.9-0.4,1.1-0.8,1.1c-0.3,0-1-0.2-2.4-0.7c-6-2.1-10.4-4.8-14.5-9c-4.5,3.6-8.3,6-13.6,8.3
		c1.5,0.6,2.4,1.1,5,2.3h14.8c1.3-1.5,1.7-1.9,2.8-3.2c2.4,1.5,3.1,1.9,5.4,3.4c0.8,0.6,1.1,1,1.1,1.3c0,0.5-0.5,1-1.9,1.7
		c-0.1,2.1-0.1,3.4-0.1,4.6c0,3.2,0.1,7.3,0.3,12.9c0,1.5-0.7,1.7-4.7,1.7c-2.3,0-2.6-0.1-2.6-1.1v-3.2H36.5v2.6
		c-0.1,0.9-0.1,1-0.4,1.2c-0.5,0.4-1.9,0.6-4,0.6c-2.5,0-2.9-0.1-2.9-1.4c0.1-10.6,0.1-12.8,0.1-15.8c0-2.6,0-2.7-0.1-6.7
		c-2,0.8-3.2,1.3-6.4,2.3l-0.3-0.7c7.7-4.5,13.2-8.8,19.1-15c-2.3-3.1-3.4-5.2-5.1-9.2c-2.8,3.8-5,6-9.7,9.6l-0.5-0.5
		c2.7-4.4,4.1-7.3,6-12.6c1.7-4.6,2.3-7.2,2.8-11c9.4,2.2,10.2,2.4,10.2,3.2c0,0.6-0.8,1-3,1.4c-1.1,2.3-1.5,3-2.4,4.6H50.8z
		 M36.5,57.8h15.2V42.4H36.5V57.8z M39.2,13.3c-0.9,1.5-1,1.6-1.9,2.8c2.7,4.1,4.1,5.8,6.6,7.8c3-3.5,4.5-5.9,7-10.7H39.2z"/>
	<path d="M88.1,8c0-2.8,0-3.4-0.3-5.6c9.1,0.8,9.8,0.9,9.8,1.8C97.7,4.7,97,5,95,5.6c0,1.2,0,2,0,2.4h11.9c0-2.3-0.1-3.2-0.3-5.6
		c2.1,0.2,3.6,0.3,4.6,0.4c4.1,0.3,5.2,0.5,5.2,1.3c0,0.5-0.5,0.8-2.5,1.5V8h6.6c2.1-2.1,2.7-2.8,4.8-4.8c3.2,2.1,4.2,2.8,7.3,5.3
		c0.3,0.2,0.3,0.4,0.3,0.5c0,0.3-0.3,0.4-0.7,0.4h-18.3c0,1.1,0.1,1.4,0.1,2.8c0,0.6-0.1,0.9-0.3,1.1c-0.5,0.4-2.2,0.7-4.4,0.7
		c-1.9,0-2.2-0.2-2.2-1.1l0.1-3.4H95c0,1.3,0,1.3,0.1,2.7c0,0.5-0.1,0.7-0.5,1c1.5,0.9,2.2,1.5,4.4,2.9c0.5,0.4,0.7,0.7,0.7,1
		c0,0.5-0.5,0.9-1.9,1.7c0.1,6,0.1,6.2,0.2,9.7c0,1.3-0.8,1.7-3.8,1.7c-0.3,0-0.3,0-0.9,0c-0.1,0-0.1,0-0.1,0
		c-1.1,0-1.5-0.3-1.5-1.2v-0.9H80.9v20.1l-0.1,8c0,1.7,0,3.4,0.1,6.2c0,0.7-0.1,1.1-0.5,1.3c-0.6,0.3-2.2,0.5-4.1,0.5
		c-1.8,0-2.3-0.3-2.3-1.5c0.4-14.8,0.4-14.8,0.4-20.1c0-17.5-0.1-26-0.4-30.3c3.4,1.5,4.4,2,7.6,3.6h9.6c1.1-1.2,1.3-1.5,2.2-2.3
		c-1.3,0.1-1.9,0.2-3,0.2c-2.1,0-2.4-0.1-2.4-1.1c0.1-1.6,0.1-1.6,0.1-3.1h-12c-1.7,0-2.9,0.1-4.4,0.4l-0.3-2.3
		C73.2,7.8,74.5,8,76.1,8H88.1z M91.6,17.1H80.9v3.8h10.7V17.1z M91.6,22.3H80.9v4.2h10.7V22.3z M103.9,51.3
		c8.4,1.5,11.5,3.1,11.5,6.1c0,1.8-1.2,3.4-2.5,3.4c-0.7,0-0.9-0.1-2-1.9c-0.7-1-2.7-3.2-3.7-4.2c-0.9-0.8-1.7-1.4-3.2-2.3
		c0.1,3.2,0.1,3.2,0.3,9.2c0,0.4-0.1,0.6-0.1,0.8c-0.3,0.4-1.7,0.7-3.6,0.7c-2,0-2.2-0.2-2.2-1.3c0.1-1.6,0.1-1.6,0.3-6.5v-1.6
		c-5.4,4-8.1,5.4-15.3,7.5l-0.2-0.7c5.4-3.3,8.5-6,12.2-10.9h-2.5v0.4c-0.1,1.1-0.7,1.3-3.8,1.3c-1.7,0-2-0.1-2-1.1
		C87,46.4,87,46,87,41c0-2.3-0.1-3.4-0.3-5.8c2.8,1.1,3.6,1.4,6.2,2.5h5.5v-3.2H87.1c-1.5,0-2.8,0.1-4,0.4l-0.3-2.3
		c1.5,0.3,2.6,0.5,4.4,0.5h11.1c-0.1-1.9-0.1-2.5-0.3-4.8c3.3,0.4,4.4,0.5,6.2,0.9v-0.3c0.1-4.1,0.1-5.8,0.1-9.1
		c0-3.2,0-4.4-0.1-7.2c3,1.3,4,1.7,6.9,3h10c1.5-1.5,2-2,3.6-3.4c2.2,1.5,2.8,1.9,5,3.5c0.5,0.4,0.7,0.7,0.7,1
		c0,0.5-0.5,0.9-2.1,1.9v22.5c0,5.2,0,5.2,0.3,15.6c0,0.3,0,0.7,0,0.8c0,2.8-0.7,4.2-2.6,5.2c-1.3,0.7-3.4,1.1-5.2,1.1
		c-0.7,0-0.9-0.2-0.9-1.1c-0.1-3.4-0.9-4.6-3.8-5.8v-0.6c3.5,0.2,3.5,0.2,5,0.2c0.6-0.1,0.7-0.3,0.7-1.1V27.9h-11.1v0.8
		c0,1.1-0.7,1.3-3.7,1.3c-0.4,0-0.7,0-1.3,0c-0.2,0.7-0.4,0.8-1.9,1.3v1.9h7.5c1.2-1.2,2.3-2.3,3.3-3.4c2.3,1.7,3,2.2,5.4,4
		c0.2,0.2,0.3,0.3,0.3,0.5c0,0.2-0.3,0.3-0.7,0.3h-15.8v3.2h6.2c1.1-1.2,1.5-1.5,2.5-2.6c2,1.3,2.5,1.7,4.4,3
		c0.4,0.3,0.6,0.5,0.6,0.7c0,0.5-0.3,0.8-1.7,1.6c0,6.2,0,6.2,0.1,9.3c0,0.6-0.1,0.9-0.3,1.1c-0.3,0.3-1.9,0.6-3.7,0.6
		c-1.3,0-1.7-0.2-1.7-0.9v-0.9h-6.3V51.3z M98.4,39.1h-5.8v3.7h5.8V39.1z M98.4,44.2h-5.8v3.9h5.8V44.2z M110.2,42.8v-3.7h-6.4v3.7
		H110.2z M110.2,48.1v-3.9h-6.4c0.1,1.5,0.1,2.8,0.1,3.9H110.2z M121.8,17.1h-11.1v3.8h11.1V17.1z M121.8,22.3h-11.1v4.2h11.1V22.3z
		"/>
	<path d="M155.7,25.1c0-3.6-0.1-4.3-0.4-6.6c7.7,0.6,8.5,0.7,9.3,0.9c0.5,0.2,0.8,0.5,0.8,0.9c0,0.6-0.8,1.1-2.6,1.5
		c0,10.7,0,11.4-0.2,14.7c-0.7,11.5-3,17.1-9.5,21.8c-3.6,2.6-7.4,4.2-14,6l-0.5-0.7c5.6-2.8,9-5.3,11.9-8.9
		c2.2-2.8,3.3-5.2,4.2-9.2c-4.7,2.7-4.8,2.7-12.5,5.8c-0.1,1.9-0.5,2.7-1.1,2.7c-0.7,0-1.1-0.8-3.8-8.7c3.6-0.1,10.7-0.9,17.9-2
		c0.3-2.1,0.3-3.2,0.5-7.1h-11.3c-1.9,0-2.7,0.1-3.9,0.4l-0.5-2.3c1.8,0.4,2.9,0.5,4.4,0.5h11.4c0.1-2.8,0.1-3.4,0.1-8.3h-13
		c-1.6,0-2.6,0.1-4.1,0.4l-0.5-2.3c1.9,0.4,3,0.5,4.6,0.5H155.7z M172.6,10.3c0-3.5-0.1-5.2-0.3-6.9c2,0.2,3.7,0.3,4.7,0.4
		c4.2,0.3,5.2,0.6,5.2,1.3c0,0.6-0.5,0.9-2.6,1.5l0.1,3.7h6.6c1.7-1.9,3.3-3.6,4.8-5.2c3.1,2.4,4,3.1,6.9,5.5
		c0.3,0.3,0.4,0.5,0.4,0.7c0,0.2-0.3,0.4-0.7,0.4h-18.1c0.1,2.3,0.1,2.3,0.1,4c-0.1,0.4-0.2,0.6-0.5,0.7c-0.5,0.3-1.9,0.5-3.6,0.5
		c-2.6,0-3-0.2-3.2-1.1c0.1-2,0.1-2.3,0.1-4.2h-12c0.1,2.4,0.1,2.4,0.1,4.1c-0.1,0.5-0.1,0.7-0.4,0.8c-0.5,0.3-2,0.5-3.7,0.5
		c-2.8,0-3.2-0.1-3.2-1.2c0.1-3,0.1-3,0.1-4.2h-11.1c-1.2,0-3.2,0.2-4.5,0.4l-0.5-2.4c2.1,0.5,3.2,0.6,5,0.6h11.1c0-0.9,0-1.3,0-2.1
		c0-2-0.1-3-0.2-4.8c2,0.2,3.6,0.3,4.6,0.3c4.3,0.3,5.3,0.5,5.3,1.3c0,0.6-0.7,1-2.6,1.5c-0.1,1.1-0.1,2-0.1,2.6
		c0,0.5,0,0.7,0.1,1.2H172.6z M185.8,25.1c2.5-2.7,2.5-2.7,4.5-5c3,2.3,3.9,3,6.7,5.4c0.2,0.3,0.3,0.5,0.3,0.6
		c0,0.2-0.3,0.4-0.6,0.4h-19.3l0.1,9.1h7.9c1.5-1.7,3-3.2,4.3-4.7c2.8,2.2,3.6,2.8,6.3,5c0.3,0.3,0.4,0.5,0.4,0.6
		c0,0.3-0.3,0.5-0.8,0.5h-18.1l0.1,10v0.2h9c2.2-2.3,2.9-3,5-5.2c3,2.3,3.8,3,6.8,5.6c0.3,0.3,0.4,0.5,0.4,0.6
		c0,0.2-0.3,0.4-0.7,0.4h-20.3c0.1,8.3,0.1,8.3,0.3,12.7c0,0.9-0.2,1.1-0.9,1.4c-0.6,0.2-3,0.5-4.6,0.5c-1.7,0-2.1-0.3-2.2-1.4
		c0.3-6.9,0.3-12.2,0.3-20.2c0-5-0.1-14.2-0.1-18.1c0-2.2-0.1-3.1-0.4-5c2,0.1,3.6,0.3,4.6,0.4c4.8,0.3,5.4,0.5,5.4,1.3
		c0,0.6-0.7,1-2.6,1.5v3.4H185.8z"/>
	<path d="M265.6,54.2c-2.8,1.5-3.8,2.8-4.2,6.2c-0.1,0.7-0.4,1-1.1,1.1c-1.1,0.1-8.1,0.3-11.7,0.3c-12.6,0-16.8-0.3-19.7-1.1
		c-3.6-1.1-6.2-2.7-8.1-5.2c-1.1-1.5-2-3.1-3.2-6.4c-3.2,4.6-3.6,5.1-8.8,11.3c0,0.4,0,0.6,0,0.9c0,1.4-0.3,2.2-1,2.2
		c-0.3,0-0.6-0.3-0.9-0.8c-0.1-0.2-0.1-0.2-4.2-8.7c3.2-0.7,5.9-2,8.9-4.2V31.5h-4c-1.3,0-2.9,0.2-4.2,0.5l-0.5-2.4
		c2.1,0.5,3.4,0.6,4.6,0.6h3.2c1.7-1.8,2.2-2.4,3.9-4.2c2.4,1.7,3.1,2.3,5.4,4c0.5,0.5,0.7,0.7,0.7,1.2c0,0.7-0.3,0.9-2,2v15.7
		c1.4,2.4,2.3,3.5,4,4.4c2.7,1.4,6.5,1.9,14.4,1.9c7.7,0,18.6-0.6,28.4-1.6V54.2z M205.5,3.7c3.8,1.4,6.9,2.8,9.9,4.7
		c2.8,1.7,4.4,3.8,4.4,5.6c0,3-2.8,6.7-5.1,6.7c-1.1,0-1.4-0.5-2.2-3c-1.7-5.5-3.5-8.8-7.5-13.4L205.5,3.7z M231.4,47.9v2.7
		c-0.1,0.6-0.1,0.9-0.5,1.1c-0.5,0.3-2.1,0.5-3.7,0.5c-2.4,0-2.8-0.2-3-1.2c0.3-6.1,0.3-8.3,0.3-15.4c0-17.7-0.1-21-0.3-23.8
		c3.3,1.5,4.3,2,7.7,3.8h6.8V9.7c0-3.2-0.1-4.4-0.3-6.9c1.9,0.2,3.2,0.3,4.2,0.4c4.6,0.4,5.8,0.7,5.8,1.5c0,0.7-0.8,1.2-2.7,1.8v9.1
		h7.4c1.6-1.7,2.1-2.3,3.6-3.9c2.5,1.7,3.2,2.2,5.5,3.9c0.6,0.4,0.8,0.7,0.8,1.1c0,0.5-0.2,0.7-2.2,2c-0.1,5.2-0.1,8.9-0.1,11.5
		c0,7.5,0.1,11.7,0.3,20.1c-0.1,0.5-0.3,0.7-0.5,0.9c-0.5,0.4-1.9,0.7-3.2,0.7c-0.8,0-1.6-0.1-2.2-0.1c-0.7-0.1-0.9-0.3-1.1-1v-2.7
		H231.4z M238.8,16.9h-7.4v13.4h7.5L238.8,16.9z M238.8,31.7h-7.5v14.8h7.5L238.8,31.7z M253.8,16.9h-8.1v13.4h8.1V16.9z
		 M253.8,31.7h-8.1v14.8h8.1V31.7z"/>
	<path d="M268.9,29.7c1.6,0.4,2.8,0.6,3.7,0.6h4.2c1.5-1.8,1.9-2.4,3.6-4.2c2.4,1.7,3.1,2.2,5.3,4.2c0.5,0.5,0.8,0.7,0.8,1.1
		c0,0.5-0.3,0.8-2.1,1.9V49c1.3,2.4,2.3,3.4,4.1,4.3c2.9,1.5,6.3,2,12.6,2c10,0,21.6-0.5,30.7-1.5v0.9c-2.8,1.3-4,2.8-4.6,5.9
		c-0.1,0.9-0.3,0.9-1.1,1c-1.7,0.1-11.1,0.3-16.8,0.3c-6.6,0-9.8-0.2-12.6-0.7c-5.3-0.9-8.5-2.9-11.1-6.7c-0.9-1.4-1.5-2.5-2.6-5.2
		c-3.1,4.5-5.4,7.4-8.6,11c0.1,0.6,0.1,1.4,0.1,1.7c0,0.8-0.4,1.3-0.9,1.3c-0.7,0-1.7-1.8-5.4-9.3c3-1,6-2.4,9.1-4.4V31.7h-4.8
		c-1.3,0-1.9,0.1-3.2,0.4L268.9,29.7z M271.4,4c8.1,3.8,12.1,7.4,12.1,10.7c0,1.3-0.5,2.6-1.5,3.8c-1,1.3-2.5,2.2-3.4,2.2
		c-1.1,0-1.8-1-2.3-2.9c-1.2-5.5-2.6-8.9-5.5-13.4L271.4,4z M327.1,10c-0.3,0.1-1.3,0.6-3.4,1.5c3.2,2.5,3.2,2.5,5.4,4.2
		c0.3,0.2,0.4,0.5,0.4,0.6c0,0.3-0.3,0.5-0.7,0.5h-17.4c-0.1,0.7-0.1,0.7-0.1,2.1c0,1.6,0,1.9,0,3h7.2c1.4-1.5,1.9-1.9,3.4-3.3
		c1.8,1.3,3.6,2.5,5.2,3.7c0.5,0.4,0.7,0.7,0.7,0.9c0,0.5-0.5,0.9-2.3,2c0,8.3,0.1,13.4,0.2,15.2c-0.1,0.7-0.3,0.9-1.2,1.1
		c2.4,1.8,3.2,2.4,6,4.7c0.3,0.2,0.4,0.4,0.4,0.6c0,0.3-0.3,0.4-0.9,0.4h-18.5c0,2.2,0.1,3.9,0.1,4.9c-0.1,1.4-0.7,1.6-4.4,1.6
		c-2.1,0-2.4-0.1-2.5-1.2c0-0.9,0.1-2.6,0.1-5.3h-13c-0.9,0-2.8,0.2-4,0.4l-0.5-2.3c1.3,0.3,3.6,0.5,4.6,0.5h13l0.1-6h-7.4v1.9
		c-0.2,0.7-0.4,0.9-1.3,1c-0.7,0.1-2.3,0.2-3.3,0.2c-1.7,0-2.1-0.2-2.1-1.3c0.1-4,0.2-7.8,0.2-15.6c0-3-0.1-4.9-0.2-7.2
		c3.3,1.1,4.3,1.5,7.5,3h6.7c-0.1-3.4-0.1-3.4-0.1-5.1h-8.4c-1.3,0-1.9,0.1-3.2,0.4l-0.5-2c-1.1,1.4-2.3,2-3.8,2
		c-1.9,0-3.2-1.8-3.2-4.3c0-1.7,0.3-2.2,2.1-3c3.4-1.8,4.9-3.6,5.4-7.3h0.7c0.5,1.7,0.7,2.3,0.9,3.8h25.8c1.5-1.7,1.9-2.2,3.4-3.8
		c3.2,2.3,4.2,3,7.1,5.4c0.5,0.3,0.7,0.7,0.7,0.9c0,0.2-0.1,0.5-0.4,0.6c-0.2,0.2-0.9,0.3-1.7,0.4l-1.3,0.1L327.1,10z M319.3,15.3
		c1.3-1.5,1.4-1.5,3-3.2c-0.4,0.2-0.7,0.3-0.9,0.4c-1.2,0.5-1.3,0.6-2.5,1l-0.5-0.5c1.7-2.5,2.1-3.2,3-5.3H295
		c0,3.1-0.6,5.3-1.8,7.1c1.5,0.3,2.6,0.5,3.4,0.5h8.4c-0.1-2.3-0.1-3.2-0.3-5.9c8.5,0.7,9.2,0.9,9.2,1.7c0,0.6-0.6,1-2.4,1.7v2.5
		H319.3z M305,29.6c0-1,0-1.7,0-2.1c0,0,0-1.8,0.1-4.3h-7.4v6.4H305z M305.1,31h-7.4v7.4h7.4V31z M319,23.2h-7.6c0,1.4,0,2.6,0,3.4
		v3h7.6V23.2z M319,31h-7.5v7.4h7.5V31z M323.4,41.7c-0.9,0.1-2.1,0.3-3,0.3c-0.9,0-1.2-0.2-1.3-1v-1.2h-7.5l0.1,6h8.3L323.4,41.7z"
		/>
	<path d="M362.4,16.6c1.7-1.9,2.2-2.5,3.9-4.4c2.8,2,3.6,2.7,6.2,4.6c0.3,0.3,0.4,0.5,0.4,0.7c0,0.3-0.3,0.5-0.9,0.5h-15v4.8h5
		c1.3-1.5,1.7-1.8,3-3.2c2.2,1.3,2.8,1.7,4.8,3.2c0.7,0.5,1,0.8,1,1.1c0,0.6-0.5,1-2,1.9c-0.1,4-0.1,6-0.1,7.7
		c0,2.5,0.1,4.2,0.2,8.1c0,0.1,0,0.2,0,0.2c0,0.2,0,0.3,0,0.3c0,1.1-1.3,1.5-4.8,1.5c-1.2,0-1.5-0.3-1.6-1.1v-1h-5.4v6.2h4.6
		c1.2-1.3,2.3-2.5,3.4-3.6c2.4,1.7,3.1,2.3,5.5,4.1c0.1,0.1,0.2,0.4,0.2,0.5c0,0.2-0.3,0.4-0.6,0.4h-13.1v4.8c5-0.3,6.8-0.5,11.1-1
		l0.1,0.7c-4.9,1.9-7.2,2.6-13.8,4.4c-7.1,1.9-9.7,2.5-13.8,3.5c-0.3,1.9-0.6,2.5-1.2,2.5c-0.4,0-0.7-0.3-0.9-1
		c-0.5-1.1-1.6-4.7-2.4-7.9c3.8-0.1,3.8-0.1,14.6-0.7V49h-9.9c-1.2,0-2,0.1-3.5,0.3l-0.4-2.1c1.2,0.2,3,0.4,4.2,0.4h9.6v-6.2h-5.2
		v1.3c-0.1,0.7-0.3,1-1.1,1.3c-0.5,0.1-2.2,0.3-3.6,0.3c-1.7,0-2.1-0.3-2.1-1.4c0.3-8,0.3-8,0.3-11.9c0-5.3-0.1-8.3-0.3-11.3
		c3,1.3,4,1.8,7,3.2h5V18h-9.9c-0.9,0-1.7,0.1-4.2,0.3l-0.5-2.1c2.1,0.3,4,0.5,4.8,0.5h9.9v-4.9c-5.9,0.6-9.1,0.8-14,0.8l-0.1-0.7
		c7.3-1.5,10.7-2.3,15.7-4c5.6-1.9,8.2-3,10.8-4.8c2.8,1.7,2.8,1.7,6.9,4.6c0.6,0.4,0.8,0.7,0.8,0.9c0,0.4-0.5,0.7-1,0.7
		c-0.5,0-1.2-0.1-2.9-0.4c-4,1.1-7.6,1.9-9.9,2.2v5.6H362.4z M350.5,24.2h-5.2v6.8h5.2V24.2z M350.5,32.5h-5.2V40h5.2V32.5z
		 M362.3,24.2h-5.4v6.8h5.4V24.2z M362.3,32.5h-5.4V40h5.4V32.5z M387.9,20.5c1.5-1.7,1.9-2.1,3.4-3.7c2.4,1.5,3.1,2.1,5.2,3.7
		c0.7,0.5,0.9,0.9,0.9,1.2c0,0.5-0.5,0.9-2.2,1.9c-0.1,13.1-1.1,25.7-2.5,31c-0.9,3.7-2,5.4-4.2,6.6c-1.7,0.9-4.5,1.5-6.4,1.5
		c-0.5,0-0.7-0.1-0.7-0.6c-0.1-1.9-0.3-2.6-0.7-3.4c-0.7-1.4-2.4-2.4-6.1-3.3v-0.8c5,0.3,7.9,0.5,8.8,0.5c2,0,2.3-0.6,3.1-4.6
		c1.1-5.8,1.9-17.1,1.9-28.5h-5.3c-0.8,14.7-2.8,22.8-7.4,29.3c-3.7,5.3-8.4,8.8-17.2,12.8l-0.5-0.5c8-6,11.1-9.4,13.7-15.4
		c2.8-6.3,4-13.4,4.5-26.2H374c-1.7,0-2.3,0.1-3.8,0.3l-0.5-2.2c1.6,0.3,3.2,0.5,4.4,0.5h2.2c0.1-3.3,0.1-5,0.1-7.6
		c0-4-0.1-6.2-0.3-9c8.4,0.6,10,0.9,10,1.8c0,0.7-0.7,1.2-2.7,2c-0.1,7.1-0.2,8.9-0.3,12.8H387.9z"/>
	<path d="M427.1,15.5c1.6-1.9,2.1-2.5,3.8-4.4c2.8,2.1,3.6,2.7,6.4,4.9c0.3,0.3,0.4,0.5,0.4,0.7c0,0.5-0.7,0.9-2.1,1.4
		c1.3,3,3.6,6.8,6.2,9.9c-0.1-17.9-0.1-21.3-0.5-24.8c9.6,0.7,10.5,0.9,10.5,2c0,0.7-0.9,1.3-3,1.8v25.6c5.2,3,9,4.3,16,5.5
		l-0.1,0.6c-2.8,1.7-4.1,3.4-5,6.9c-0.1,0.5-0.3,0.7-0.6,0.7c-0.3,0-0.9-0.3-2.5-1.1c-2.5-1.3-4.1-2.4-7.8-5.2
		c0.1,2.9,0.1,2.9,0.1,7.2c0,2.2,0.1,7.2,0.2,14.9c0,0.7-0.1,1.1-0.5,1.3c-0.6,0.4-2.5,0.7-4.7,0.7c-2.1,0-2.6-0.3-2.6-1.3
		c0.1-1.9,0.1-4.5,0.3-7.7c0.2-7,0.3-9.8,0.3-14.6c0-1.5,0-3.6-0.1-6.5c-3.3-4.8-5.2-9.1-7.1-15.4l-0.5,0.1
		c-1.5,8.3-2.9,13.4-5.4,18.9c-3.7,8.2-8.9,14.6-15.9,19.7c-3.2,2.3-5.8,3.8-10.5,6l-0.5-0.8c7.2-5.4,11.3-9.9,15.2-16.3
		c5-8.1,8.1-17.3,10.1-29h-9c-1.6,3.6-2.6,5.6-4.6,8.7c6.4,3.9,7.9,5.5,7.9,8.1c0,2.7-2.2,5.7-4.2,5.7c-0.9,0-1.3-0.6-1.4-2.3
		c-0.5-5.4-1.2-8-2.9-10.6c-3.8,5.9-5.3,7.6-10.7,12.3l-0.5-0.4c3.6-5.6,6.2-11.1,8.4-18.1c2.2-6.8,3.5-12.6,4-17.3
		c9,1.7,10.5,2.1,10.5,3c0,0.7-0.5,0.9-2.8,1.5c-0.9,2.6-0.9,2.6-3,7.9H427.1z"/>
	<path d="M505,28.6l3.8-4.2c2.9,2,3.8,2.6,6.7,4.7c0.2,0.3,0.3,0.4,0.3,0.5c0,0.3-0.3,0.4-0.7,0.4h-25.6v5.9h15.6
		c1.8-2,2.3-2.6,4.2-4.4c3,2,3.9,2.6,6.7,4.8c0.3,0.3,0.4,0.5,0.4,0.7c0,0.3-0.3,0.4-0.8,0.4h-26v6.2h26.4c2.1-2.4,2.6-3.1,4.8-5.4
		c3.4,2.4,4.5,3.1,7.9,5.7c0.3,0.3,0.4,0.5,0.4,0.7c0,0.3-0.3,0.5-0.8,0.5h-33c-3.2,4-4.8,5.6-9.1,9.7c7-0.2,7-0.2,24.6-1.2
		c-2.4-2.8-3.6-3.8-6.8-6.2l0.5-0.7c6.4,1.9,11.1,4,14.8,6.4c2.1,1.3,3.1,3,3.1,5.2c0,2.7-1.9,5.6-3.5,5.6c-0.9,0-1.5-0.5-2.3-1.9
		c-1.9-3.3-2.4-4.1-4.1-6.4c-12,2.6-20.9,4.3-35.3,6.7c-0.4,1.8-0.8,2.4-1.5,2.4c-0.9,0-1.2-0.8-3.4-10.1c2.5,0.2,3.5,0.3,5.2,0.3
		c0.5,0,2.1-0.1,5-0.1c1.8-4,2.3-5.6,3.5-9.7h-11.5c-1.9,0-3.4,0.1-5.5,0.4l-0.3-2.4c2.1,0.5,3.7,0.6,5.8,0.6h8.1V24.4
		c-4.6,3.3-8.3,5.3-15.2,7.9l-0.5-0.8c6-3.8,9.9-7,14-11.5c2.1-2.2,3.6-4.2,5.8-7.4h-12.4c-2.4,0-3.5,0.1-5.5,0.3l-0.3-2.3
		c2,0.4,3.8,0.6,5.8,0.6h13.3c2.8-4.5,3.4-5.8,4.2-9.2c2.3,0.5,4,0.9,5.1,1.2c4.4,0.9,5.4,1.3,5.4,2.1s-0.7,1-3,1.2
		c-1.6,2.4-2.2,3.2-3.3,4.8H516c2.3-2.5,3-3.3,5.4-5.8c3.4,2.5,4.4,3.3,7.5,6c0.3,0.3,0.5,0.5,0.5,0.7c0,0.3-0.3,0.5-0.8,0.5h-23.9
		c1.9,2.5,3.9,4.2,6.9,5.8c5.3,2.8,11.4,4.4,18.6,5.1l-0.1,0.9c-2.4,1.1-3.8,2.6-4.9,5.4c-0.3,0.9-0.5,1.1-0.9,1.1
		c-0.5,0-1.6-0.4-3.4-1.3c-3.6-1.8-6.6-3.8-9.5-6.5h-21.8v5.6H505z M494.8,12.6c-2.2,2.8-4,4.6-7,7.4c1,0.7,1.2,0.8,2.4,1.6H504
		c1.6-1.4,1.8-1.5,3.2-2.8c-1.7-2-2.6-3.6-4-6.2H494.8z"/>
	<path d="M573.5,7.3c-2.4,3.4-3.9,6.3-5.2,10.3c-1.8,5.8-2.7,12.6-2.7,20.5c0,8.7,1.1,16,3.3,22.2c1.1,3.1,2.4,5.6,4.6,8.7l-1.3,1.1
		c-3.9-3.4-6.3-6.4-8.5-10.4c-3.7-6.5-5.7-14-5.7-21.5c0-8.1,2.3-16.2,6.6-23c2.1-3.3,4.2-5.8,7.7-8.9L573.5,7.3z"/>
	<path d="M577.1,55.3c5.7-0.2,6.3-0.9,6.3-6.9V16.1c0-6-0.5-6.7-6-6.9V7.5H598v1.7c-5.5,0.2-6,0.9-6,6.9v39h6.1
		c5.6,0,9.3-1.7,11.7-5.1c1.5-2.3,2.3-4.4,3.1-8.8l2.3,0.3L613.6,57h-36.6V55.3z"/>
	<path d="M641.9,41.5h2.7c0.9,9.9,4.9,14.6,12.3,14.6c5.8,0,9.3-3.4,9.3-9.1c0-4.5-2.6-7.2-10.9-11.3c-5.6-2.7-7.2-3.6-8.7-4.7
		c-3.8-2.8-5.4-6-5.4-10.5c0-5.4,3-10.1,7.8-12.4c2.2-1.1,4.9-1.5,8.5-1.5c2.2,0,3.1,0.1,8.1,1.1c0.9,0.2,1.7,0.3,2.3,0.3
		c1.1,0,2-0.2,4-0.9l-0.5,14.8h-2.7c-0.3-3.8-0.9-6-2.2-8.3c-2-3.4-5.2-5.2-9.1-5.2c-5.1,0-8.6,3.5-8.6,8.6c0,2.2,0.7,4.1,2.2,5.6
		c1.7,1.6,3.3,2.6,8.6,5.1c5.9,2.7,8.7,4.5,11,6.7c2.2,2.3,3.4,5.4,3.4,9.2c0,4.5-1.7,8.3-4.6,10.7c-3.1,2.4-7.3,3.8-12.1,3.8
		c-2.6,0-4.2-0.2-8.9-1.1c-0.8-0.1-1.7-0.2-2.5-0.2c-1.1,0-2,0.1-4.4,0.6L641.9,41.5z"/>
	<path d="M692.7,21.6c-0.3,4-0.4,8.6-0.4,12.8v14.4c0,5.9,0.5,6.6,5.2,6.6V57H679v-1.6c4.7-0.1,5.2-0.7,5.2-6.6V30.5
		c0-5.9-0.3-6.4-5-6.4v-1.6L692.7,21.6z M688.3,6.4c2.6,0,4.8,2.1,4.8,4.8c0,2.6-2.1,4.8-4.8,4.8s-4.8-2.1-4.8-4.8
		C683.5,8.5,685.6,6.4,688.3,6.4z"/>
	<path d="M715.8,24.1c-6.4,0-9.7,3-11.2,10.5l-2.1-0.3l1.3-11.9h25.8v2l-19.3,30.9h4.9c4.6,0,7.7-1.2,9.8-3.7c1.5-1.9,2.5-4,3.4-8.1
		l2,0.3L728.9,57h-27.7v-1.8l19.5-31.1H715.8z"/>
	<path d="M744.3,38.3c0.1,4.9,0.5,7.7,1.7,10.5c1.9,4.4,5,6.6,9,6.6c4.6,0,8.5-2.7,10.9-7.5l1.7,1.1c-3.3,6.3-7.7,9.1-14.6,9.1
		c-10.5,0-17.3-7.1-17.3-18.1c0-11.1,6.6-18.4,16.6-18.4c6.8,0,11.5,3,13.7,8.7c0.7,2,1.1,4,1.2,8.1H744.3z M759,36.4
		c-0.1-4.2-0.4-6.2-1.1-8.3c-1.3-3.5-3.1-5.2-5.7-5.2c-2.8,0-5,2-6.4,5.8c-0.7,2.1-1.1,4.2-1.4,7.6H759z"/>
	<path d="M771.6,68.9c5.5-7.6,7.9-17.1,7.9-30.9c0-13.8-2.4-23.2-7.9-30.8l1.3-1.1c3.9,3.4,6.3,6.4,8.6,10.4
		c3.7,6.6,5.6,13.9,5.6,21.5c0,8.2-2.3,16.2-6.5,23c-2.1,3.4-4.3,5.9-7.7,8.9L771.6,68.9z"/>
</g>
</svg>
