<?xml version="1.0" encoding="utf-8"?>
<!-- Generator: Adobe Illustrator 18.0.0, SVG Export Plug-In . SVG Version: 6.00 Build 0)  -->
<!DOCTYPE svg PUBLIC "-//W3C//DTD SVG 1.1//EN" "http://www.w3.org/Graphics/SVG/1.1/DTD/svg11.dtd" [
	<!ENTITY ns_flows "http://ns.adobe.com/Flows/1.0/">
	<!ENTITY ns_extend "http://ns.adobe.com/Extensibility/1.0/">
	<!ENTITY ns_ai "http://ns.adobe.com/AdobeIllustrator/10.0/">
	<!ENTITY ns_graphs "http://ns.adobe.com/Graphs/1.0/">
]>
<svg version="1.1" id="圖層_1" xmlns:x="&ns_extend;" xmlns:i="&ns_ai;" xmlns:graph="&ns_graphs;"
	 xmlns="http://www.w3.org/2000/svg" xmlns:xlink="http://www.w3.org/1999/xlink" xmlns:a="http://ns.adobe.com/AdobeSVGViewerExtensions/3.0/"
	 x="0px" y="0px" viewBox="0 0 938 72" style="enable-background:new 0 0 938 72;" xml:space="preserve">
<g>
	<path d="M2.6,60.5c4.1,0.3,4.1,0.3,4.7,0.3C9.2,61,11,61,12,61c1.4,0,1.9-0.5,2.4-2.7c0.5-2.3,1.2-10.2,1.2-14.7
		c0-1.6,0-2.7-0.1-4.8c-1.7,2-3.8,4-6.4,6.1c-1.6,1.3-2.1,1.7-6.4,4.6l-0.4-0.6c6.8-9.2,8-11.3,12.2-20.8l-0.1-0.7
		c-0.6-3-0.6-3-1.2-4.8c-0.4-1.2-0.4-1.2-0.6-1.7c-3.9,3.1-4.8,3.8-9.8,6.5L2.3,27c2.4-2.4,5.9-6.7,8.5-10.6
		c-2.1-4.6-3.5-6.9-6.1-10l0.6-0.6c2.7,2,4.7,4,7.4,7.6c3-4.8,4.1-7.1,5-10.2C20.2,4,24.3,5.6,26,6.4c1.7,0.7,2.2,1.1,2.2,1.6
		c0,0.7-0.6,0.9-3.7,1c-4.3,5.3-4.3,5.3-8.5,9.2c4.3,7.3,6.4,16.7,6.4,28.3c0,6.6-0.7,13.5-1.5,16.1c-1.1,3.4-3.1,5.3-6.6,6.2
		c-1.1,0.2-2.4,0.4-3.1,0.4c-1,0-1.2-0.1-1.3-1.6c-0.3-3.4-2.1-5-7.4-6.4L2.6,60.5z M21.8,34.2c3.3-6.9,5.5-12.8,7.6-20.4
		c1.4-5.1,2.1-8.5,2.3-11c2,0.5,3.5,0.9,4.6,1.1C36.3,4,36.4,4,36.4,4c5.1,1.2,6,1.6,6,2.3c0,0.7-0.4,0.9-3,1.4
		c-0.5,1-0.5,1-1.5,3.6c-1.2,3.3-3.8,8-6.8,12.6c5.1,0.9,5.1,0.9,5.1,1.5c0,0.5-0.4,0.9-2.3,1.6v9.4c0,2.9,0,2.9,0,12.8
		c0,1.3,0,3.5,0.1,9.2c0.1,5.6,0.1,5.6,0.1,9c0,0.1,0,0.3,0,0.4c0,0.5-0.1,0.8-0.6,1c-0.6,0.3-2.6,0.6-4.3,0.6
		c-2.1,0-2.6-0.3-2.6-1.3c0.2-5.7,0.4-14.9,0.4-21.2V29.8c-0.2,0.2-0.4,0.4-0.4,0.6c-1.7,2-1.7,2-2.6,2.9c-0.7,0.7-1.2,1.2-1.4,1.4
		L21.8,34.2z M45.4,33c-2.7,3.8-5.4,6.7-9,9.6l-0.7-0.5c1.6-2.7,2.7-5.2,3.9-8.7c1.1-3,2.5-8.8,2.5-10.5c0-0.1,0-0.2-0.1-0.5
		c1.7,0.3,3.1,0.6,4,0.8c0.1,0,0.2,0.1,0.3,0.1c5,1.1,5.9,1.4,5.9,2c0,0.7-0.6,0.9-3,1.5c-1.1,2.2-1.6,2.9-2.7,4.6H58
		c1.9-2.4,2.5-3.1,4.3-5.3c3.1,2.3,4,3.1,7.1,5.9c0.2,0.1,0.3,0.4,0.3,0.4c-0.1,0.4-0.1,0.5-1,0.5H55.6l-0.1,2.2
		c-0.1,3.3-0.3,5.9-0.7,9.2H60c2-2.4,2.6-3.2,4.6-5.4c3,2.5,3.8,3.3,6.6,6.1c0.1,0.1,0.2,0.3,0.2,0.4c-0.1,0.4-0.2,0.5-0.8,0.5H55.5
		c1.2,2.9,2.5,4.8,4.5,6.9c3.5,3.8,6.8,5.5,12.3,6.4v0.7c-1.7,0.9-2.5,1.7-3.5,3.7c-0.5,0.9-0.9,1.8-1.1,2.8
		c-0.2,0.8-0.5,1.2-0.9,1.2c-0.8,0-3.2-2.1-5.3-4.6c-3.8-4.5-5.4-8.5-6.9-16.7c-1.4,6.9-2.9,10.4-6.1,13.9
		c-3.1,3.5-7.3,6.2-13.2,8.6l-0.4-0.7c5.9-4.7,9-8.6,10.9-13.9c0.9-2.2,1.4-4.7,1.9-8.3h-7.8c-0.6,0-2.9,0.1-4.2,0.4l-0.5-2.5
		c2.5,0.4,3.5,0.6,4.7,0.6h8c0.3-2.6,0.6-6.9,0.6-9.4c0-0.8,0-0.9-0.1-2H45.4z M63.3,19.8c1.7-1.9,2.2-2.5,3.8-4.3
		c2,1.9,2.7,2.5,4.6,4.7c0.2,0.2,0.4,0.6,0.4,0.7c0,0.3-0.4,0.4-0.9,0.4H40.5c-1.1,0-2.1,0.1-4.4,0.4l-0.7-2.5
		c2.5,0.5,3.5,0.6,4.9,0.6h14.3c0.7-6.1,0.7-6.5,0.9-10h-9.1c-1.2,0-2.1,0.1-4.1,0.3l-0.6-2.5c2.2,0.5,3.3,0.7,4.6,0.7h8.9
		c1.6-1.7,1.6-1.7,3.8-4.1c2.7,1.7,3.5,2.2,6.2,4.1c0.5,0.4,0.7,0.6,0.7,1c0,0.7-0.6,1.2-2.9,2.2c-0.3,3-0.3,3.1-0.9,8.2H63.3z"/>
	<path d="M142.2,14.6c-0.6,0-0.9,0-1.6,0c-3,0.9-4.2,1.3-6.9,2c3.7,2.6,3.7,2.6,6.5,4.6c0.3,0.3,0.5,0.5,0.5,0.7
		c0,0.3-0.2,0.4-0.7,0.4h-15.9v7h3.5c2-2,2.5-2.6,4.2-4.6c3,2.1,3.9,2.8,6.9,5.1c0.3,0.3,0.4,0.4,0.4,0.6c0,0.2-0.2,0.4-0.4,0.4
		h-14.5v7.7h7.4c1.9-2.5,2.5-3.1,4.6-5.4c3.2,2.4,4.2,3.2,7.5,5.8c0.4,0.3,0.5,0.5,0.5,0.7c0,0.2-0.2,0.4-0.5,0.4h-23.2
		c1.7,2,3.5,3.3,6.4,4.6c5.8,2.7,11.2,3.9,19.7,4.5v0.6c-3.4,1.6-4.8,3.2-5.6,6.5c-0.1,0.6-0.4,0.8-0.7,0.8c-1,0-5.8-2.2-8.7-3.9
		c-5.6-3.4-9.2-7.2-12.5-13.1h-13.7c-6.4,9-15,14.7-27.5,18l-0.4-0.9c5.7-3,8.7-5.1,12.1-8.4c2.8-2.7,4.1-4.3,6.9-8.7H84.4
		c-1.2,0-2.2,0.1-4.4,0.5l-0.7-2.7c3,0.6,4.2,0.7,5.3,0.7h13.7v-7.7H91c-1.1,0-2,0.1-4.3,0.4l-0.6-2.5c2.5,0.4,4,0.7,5.4,0.7h6.9v-7
		H86.8c-1.5,1.8-2.7,2.5-4.3,2.5c-2.2,0-3.8-2.3-3.8-5.5c0-1.2,0.7-2,2.1-2.9c4.9-2.9,6.1-4.6,6.7-9.8h0.7c0.6,2,0.8,2.7,0.9,4.3h18
		V7.6c0-1.3-0.1-2.5-0.4-5.1c10.5,0.9,11.9,1.2,11.9,2.3c0,0.3-0.2,0.6-0.5,0.8c-0.2,0.1-1.2,0.5-2.8,1V11h17.1
		c1.7-1.9,2.2-2.5,4-4.4c3.7,2.4,4.8,3.2,8.4,5.7c0.7,0.6,0.9,0.9,0.9,1.3c0,0.7-0.8,1.1-2.1,1.1H142.2z M107.3,54.5h-9.9
		c-1.2,0-2.2,0.1-4.3,0.4l-0.6-2.5c1.3,0.3,4,0.5,5.2,0.5h9.6v-4.2c0-1.2-0.1-2.4-0.4-5.9c2,0.2,3.5,0.4,4.5,0.4
		c5.9,0.5,6.6,0.6,6.6,1.6c0,0.7-0.4,0.9-2.9,1.9v6.2h4.5c1.8-2,2.4-2.6,4-4.5c2.4,2,3.1,2.6,5.6,4.8c0.4,0.3,0.5,0.5,0.5,0.7
		c0,0.3-0.3,0.5-0.7,0.5h-13.9v11h14.1c2.4-2.6,3.1-3.5,5.3-6.1c4.8,3.8,4.8,3.8,8.4,6.6c0.3,0.3,0.4,0.5,0.4,0.7
		c0,0.2-0.3,0.4-0.6,0.4H85.8c-2,0-2.9,0.1-5.1,0.4l-0.5-2.6c2.2,0.5,3.8,0.6,6.1,0.6h21V54.5z M129.5,20.8c1.5-1.7,2-2.2,3.3-3.8
		c-0.9,0.3-1.2,0.4-2,0.6l-0.5-0.5c1.4-1.9,1.9-2.5,3-4.7h-44c0,0.6,0,1,0,1.3c0,2.8-0.5,5.2-1.4,7h10.6v-0.9c0-1.6-0.1-2.9-0.3-5.6
		c9.2,0.6,10.4,0.8,10.4,1.7c0,0.3-0.2,0.6-0.5,0.8c-0.2,0.1-1,0.4-2.4,0.9v3.1H117V20c0-2.3-0.1-3.3-0.3-5.6c4.9,0.2,9,0.7,9.8,1.1
		c0.3,0.1,0.4,0.4,0.4,0.6c0,0.7-0.7,1.1-2.8,1.8v2.9H129.5z M105.6,22.3v7H117v-7H105.6z M105.6,38.5H117v-7.7h-11.3V38.5z"/>
	<path d="M188.9,16.7v7.8c0,3.3,0,7.2,0.1,11.9c-0.2,1.3-1.3,1.7-5.3,1.7c-2,0-2.5-0.3-2.5-1.4c0.1-5.8,0.1-9.6,0.1-11.4v-8.5h-19.2
		c0.1,0.9,0.1,0.9,0.1,1.6c0,3.6-1.2,7.2-2.8,8.8c-0.9,0.9-2.3,1.5-3.5,1.5c-1.8,0-3.3-2.3-3.3-5.3c0-1.6,0.2-1.9,2.1-2.8
		c3.5-1.7,5.1-4.4,5.5-9.2l0.9-0.1c0.5,2.1,0.7,2.7,0.8,4h19.4V8.6h-15.9c-2,0-3.3,0.1-4.8,0.3l-0.3-2.4c1.7,0.4,3.2,0.6,5.1,0.6
		H199c2.2-2.2,2.9-3,5.1-5.1c3.5,2.2,4.5,3,7.9,5.6c0.3,0.3,0.4,0.4,0.4,0.6c0,0.3-0.3,0.5-0.7,0.5h-22.7v6.6h18.2
		c1.7-1.8,2.3-2.4,4.2-4.1c3.3,2.5,4.3,3.3,7.3,5.8c0.7,0.5,0.9,0.9,0.9,1.3c0,0.3-0.3,0.7-0.6,0.8c-0.6,0.2-0.9,0.3-3.5,0.4
		c-3.9,3.5-4.8,4.3-7.8,6.5l-0.8-0.4c0.9-4,1.1-4.9,1.2-6.4c0.3-2,0.3-2,0.3-2.3H188.9z M160.4,31.2c1.5,0.4,2.7,0.5,3.7,0.5h6.2
		c1.7-1.8,2.2-2.4,3.8-4.3c2.4,2,3.1,2.6,5.3,4.8c0.2,0.2,0.3,0.4,0.3,0.6c0,0.1-0.3,0.4-0.7,0.4H164c-1.2,0-1.9,0.1-3.3,0.2
		L160.4,31.2z M168.6,67.3c0,0.9-0.2,1.2-0.8,1.5c-0.6,0.3-3,0.5-5,0.5c-1.6,0-2.1-0.3-2.1-1.4c0.2-5.8,0.3-8.2,0.3-13.6
		c0-10-0.1-15-0.3-17.8c3.8,1.7,5,2.2,8.5,4.3h32.4c1.6-1.8,2.1-2.4,3.8-4.1c2.8,1.9,3.6,2.5,6.2,4.3c0.7,0.6,1,0.9,1,1.3
		c0,0.7-0.7,1.2-2.7,2c0.1,13.5,0.1,13.5,0.2,22.8c0,0.7-0.1,1-0.4,1.2c-0.5,0.4-2.5,0.7-5.3,0.7c-1.7,0-2.1-0.2-2.2-1.2v-2.7h-33.7
		V67.3z M163.4,23.2c1.3,0.4,2.1,0.4,3.3,0.4h3.7l3.7-4.1c2.2,2,3,2.6,5.3,4.8c0.1,0.1,0.2,0.4,0.2,0.5c0,0.2-0.3,0.4-0.6,0.4h-12.2
		c-1.3,0-1.9,0-3,0.2L163.4,23.2z M181.4,42.4h-12.8v9.2h12.8V42.4z M168.6,53.2v10.4h12.8V53.2H168.6z M202.4,51.6v-9.2H189v9.2
		H202.4z M189,63.6h13.4V53.2H189V63.6z M190.7,23.2c1.4,0.3,2.1,0.4,3,0.4h3.3c1.6-1.8,2.1-2.3,3.8-4.1c2.5,1.9,3.3,2.5,5.6,4.6
		c0.2,0.2,0.3,0.4,0.3,0.5c0,0.3-0.3,0.5-0.8,0.5h-12.2c-0.7,0-1.3,0.1-2.7,0.2L190.7,23.2z M190.7,31.3c1.7,0.3,2.6,0.4,3.7,0.4
		h6.6c1.7-2,2.3-2.5,4-4.4c2.7,2,3.5,2.7,6.1,4.9c0.2,0.2,0.3,0.4,0.3,0.6c0,0.2-0.4,0.4-0.7,0.4h-16.3c-1.1,0-1.9,0.1-3.4,0.3
		L190.7,31.3z"/>
	<path d="M226.7,44.3c1.4-4.8,3.9-7.1,7.9-7.1c1.7,0,4.6,0.5,7.7,1.4c3.5,0.9,5.6,1.4,7.1,1.4c2.7,0,4.4-0.9,5.6-2.9l1.3,0.8
		c-1.4,4.8-4,7.2-7.9,7.2c-1.5,0-3.5-0.4-7.4-1.4c-4.4-1.2-5.7-1.4-7.5-1.4c-2.5,0-4.2,0.9-5.3,2.9L226.7,44.3z"/>
	<path d="M264.6,44.3c1.4-4.8,3.9-7.1,7.9-7.1c1.7,0,4.6,0.5,7.7,1.4c3.5,0.9,5.6,1.4,7.1,1.4c2.7,0,4.4-0.9,5.6-2.9l1.3,0.8
		c-1.4,4.8-4,7.2-7.9,7.2c-1.5,0-3.5-0.4-7.4-1.4c-4.4-1.2-5.7-1.4-7.5-1.4c-2.5,0-4.2,0.9-5.3,2.9L264.6,44.3z"/>
	<path d="M328.6,34.5c2.5,0.5,5.5,0.8,9.1,0.8h41.1c2.5-3.2,3.3-4.2,5.9-7.3c4.3,3.3,5.6,4.3,9.8,7.8c0.3,0.3,0.4,0.4,0.4,0.6
		c0,0.3-0.3,0.4-0.9,0.4h-56.3c-3.3,0-6,0.1-8.6,0.5L328.6,34.5z"/>
	<path d="M412.6,25.3v42.5c0,0.9-0.1,1.3-0.6,1.6c-0.7,0.4-2.4,0.6-4.8,0.6c-2.2,0-2.8-0.4-2.8-1.5c0,0,0-0.1,0-0.2
		c0.4-11.6,0.5-20.9,0.5-45c0-10.3-0.1-15-0.4-20.7c3.9,1.6,5.1,2.2,8.9,4.1h10.2c1.7-1.9,2.2-2.5,3.8-4.3c2.5,1.7,3.3,2.3,5.8,4.2
		c0.6,0.5,0.8,0.8,0.8,1.1c0,0.6-0.4,0.9-2.3,1.9V15c0,4,0.1,6.6,0.2,11.6c0,0.7-0.1,1.1-0.6,1.3c-0.7,0.4-2.4,0.7-4.6,0.7
		c-2,0-2.5-0.2-2.5-1.4v-1.8H412.6z M424.3,8.2h-11.6v6.6h11.6V8.2z M424.3,16.4h-11.6v7.4h11.6V16.4z M445.9,45.6h1.5
		c1.6-2,2.1-2.5,3.8-4.4c2.5,2.2,3.3,2.8,5.6,5.1c0.2,0.2,0.3,0.4,0.3,0.4c0,0.2-0.2,0.4-0.6,0.4h-10.6v4.6c0,3.5,0,6.8,0.1,13.2
		c0,0.1,0,0.2,0,0.2c0,0.9-0.3,1.3-1.2,1.6c-0.6,0.1-2.8,0.4-4,0.4c-2,0-2.4-0.4-2.4-1.7l0.1-13.7v-4.7h-7.1c-1,10.9-5,16.2-16,21.1
		l-0.5-0.7c6.6-5.9,8.7-10.4,9.4-20.4h-4.6c-1.5,0-3,0.1-4.3,0.4l-0.4-2.5c1.7,0.4,2.7,0.5,4.7,0.5h4.8c0.1-2.9,0.1-4.1,0.1-6.3
		c0-1.3,0-1.8-0.1-4.7h-3.5c-1.4,0-2.7,0.1-4,0.4l-0.4-2.5c1.5,0.4,2.9,0.5,4.4,0.5h23.6c1.7-2,2.3-2.6,4-4.6
		c2.9,2.2,3.7,2.8,6.3,5.1c0.2,0.3,0.3,0.4,0.3,0.6c0,0.2-0.2,0.4-0.6,0.4h-8.8V45.6z M431.7,34.6c0,1,0,2,0,3c0,2.7-0.1,5.2-0.2,8
		h7v-11H431.7z M446.1,25.3v1.4c-0.1,1.4-1.2,1.8-4.8,1.8c-2.5,0-2.9-0.2-3-1.6c0.2-7.2,0.2-7.8,0.2-13.6c0-6.6,0-7.3-0.3-10.6
		c3.7,1.6,4.8,2.2,8.3,4h10.6c1.7-1.9,2.3-2.5,3.9-4.3c2.6,1.7,3.5,2.3,6.1,4.1c0.7,0.6,1,0.9,1,1.3c0,0.6-0.1,0.6-2.3,2.2v31.4
		c0,8.1,0.1,12.1,0.2,21.2c-0.1,3.9-1.4,5.5-5.6,6.6c-1.3,0.4-3.2,0.6-4.1,0.6c-0.8,0-1-0.2-1-1.3c-0.1-1.7-0.7-3.5-1.5-4.3
		c-0.9-1-1.9-1.4-5.6-2.8v-0.8c5,0.3,6.2,0.4,7.7,0.4c0.3,0,0.7,0,1.3,0c0.9-0.1,1-0.2,1-1.8v-34H446.1z M458.2,8.2h-12.1v6.6h12.1
		V8.2z M458.2,16.4h-12.1v7.4h12.1V16.4z"/>
	<path d="M517.3,29.4h7.7c2.2-2.5,3-3.3,5.2-5.8c3.4,2.6,4.5,3.4,7.8,6.1c0.2,0.3,0.4,0.5,0.4,0.7c0,0.3-0.4,0.6-0.7,0.6h-20.4v17.6
		h11c2.5-2.7,3.3-3.5,5.9-6.3c3.5,2.8,4.6,3.7,8,6.6c0.2,0.3,0.4,0.5,0.4,0.6c0,0.3-0.3,0.5-0.8,0.5h-24.5v6.4c0,1.1,0.1,6.6,0.2,11
		c0,1.2-0.2,1.7-0.9,2c-0.7,0.3-2.6,0.5-4.8,0.5c-2.5,0-3-0.2-3-1.4c0-0.1,0-0.2,0-0.4c0.2-8.2,0.3-9.6,0.3-11.3v-6.8h-26
		c-1,0-4.7,0.3-6.1,0.4l-0.4-2.5c3.2,0.4,4.4,0.6,6.6,0.6h4.7V33.2c0-4-0.1-5.5-0.3-9.1c4.2,2.2,5.4,3,9.4,5.3H509V15.4h-14
		c-5.4,7.2-10.3,11.7-17.2,16.5l-0.6-0.7c4.6-5.8,7.2-10,10-16c2.3-5.1,3.6-8.7,4.5-12.4c7.3,2,10.8,3.1,11.6,3.7
		c0.2,0.1,0.4,0.4,0.4,0.7c0,0.8-0.5,1-3.8,1.4c-2.1,3.2-2.6,3.9-3.8,5.3h30.4c1.8-2,3.7-4,5.5-6.1c3.8,2.7,4.8,3.6,8.5,6.5
		c0.2,0.2,0.4,0.4,0.4,0.6c0,0.3-0.3,0.5-0.7,0.5h-22.8V29.4z M495.9,30.9v17.6H509V30.9H495.9z"/>
	<path d="M548.7,64.4c2.5-4.6,3.7-7.5,4.8-11.6c0.9-3.2,1.5-6.6,1.8-9.7c9.2,2.5,9.3,2.5,9.3,3.4c0,0.6-0.3,0.7-2,1.2
		c-0.3,0.6-0.3,0.6-1.2,2.2c-2.8,5.6-6.2,9.9-12.1,15.2L548.7,64.4z M577.3,15.4c1.9-2.4,2.5-3.1,4.5-5.3c3,2.5,4,3.3,7.1,6
		c0.2,0.2,0.3,0.4,0.3,0.5c0,0.2-0.2,0.4-0.6,0.4h-31.4c-1.6,0-4.3,0.2-6.1,0.5l-0.5-2.5c2.3,0.4,4.3,0.5,6.6,0.5h7.7V9.6
		c0-2.2-0.1-3.5-0.3-5.8c2.3,0.2,4,0.4,5.1,0.4c4.2,0.4,5.9,0.9,5.9,1.8c0,0.6-0.4,0.9-2.7,1.9v7.5H577.3z M562.1,38.3v1.2
		c-0.1,0.6-0.3,0.9-1,1.2c-0.6,0.1-3,0.4-4.7,0.4c-1.4,0-1.9-0.2-2-1.2c0.2-4.3,0.3-5.9,0.3-11.6c0-4.3-0.1-5.9-0.3-8.5
		c3.7,1.4,4.8,2,8.5,3.9h11.8c1.4-1.7,2-2.2,3.5-3.9c2.5,1.8,3.3,2.5,5.9,4.4c0.3,0.3,0.4,0.4,0.4,0.6c0,0.2-0.1,0.4-0.2,0.6
		c-0.1,0.1-0.5,0.4-0.9,0.7c-0.3,0.1-0.7,0.4-1.1,0.7v0.9c0,1.7,0,3.3,0,4.8c0.1,3.9,0.1,3.9,0.1,4.6c0,0.7,0,0.8,0,1.6
		c-0.1,0.9-0.2,1.2-0.9,1.4c-0.7,0.2-3.1,0.4-4.7,0.4c-1.7,0-1.9-0.1-2-0.9v-1.1h-2.1V57c0,0.9,0,0.9,0.1,3.9c0,0.2,0,0.5,0,0.7
		c0,0.3,0,0.5,0,0.9c-0.2,2.5-0.9,3.8-2.6,4.8c-1.7,0.9-4.6,1.7-6.1,1.7c-0.9,0-1-0.2-1.2-1.4c-0.2-1.7-1.1-3.5-2.2-4.3
		c-0.9-0.8-1.7-1.1-4.7-2v-0.9c5.3,0.5,5.3,0.5,8.4,0.5c0.6,0,0.9-0.3,0.9-1.2V38.3H562.1z M562.1,36.8H575V25.2h-12.9V36.8z
		 M599.4,26.1c-0.3,2.2-0.3,2.5-0.7,4.3c1.4,0.1,3.6,0.5,5.7,0.9c2,0.4,2.6,0.7,2.6,1.4s-0.7,1-2.6,1.5v25.2c0,1.5,0.2,1.7,2.3,1.7
		c2.3,0,2.9-0.2,3.4-1.2c0.8-1.9,2.6-7.8,4-13.6l0.7,0.1l-0.2,12.1c0,0.9,0.1,1.2,1.5,1.8c1.3,0.7,2,1.7,2,3c0,2.2-1.4,3.5-4.3,4.1
		c-1.2,0.2-5.9,0.4-10.1,0.4c-4.8,0-6.6-1.2-6.6-4.6l0.4-26.9c-1.6,6.8-3.5,11.9-6.1,16.4c-4,6.9-8.3,10.9-17.8,16.5l-0.7-0.8
		c5.4-4.9,8.2-8.3,11.1-13.5c4.3-7.7,6.9-17,7.9-29h-2.3c-1.3,0-2.4,0.1-4.4,0.3l-0.4-2.2c2.1,0.3,3.6,0.4,4.8,0.4h2.5
		c0.4-4.6,0.7-10,0.7-13.1s-0.1-5.9-0.4-7.5c9.4,0.8,10.9,1.1,10.9,2.1c0,0.6-0.1,0.7-2.9,2.1c-0.4,11.5-0.5,12.7-0.9,16.4h5.6
		c1.7-2.2,2.2-2.7,3.6-4.3c-1.7-0.1-2.2-0.6-2.6-2.5c-1.2-5.4-1.7-6.6-3.7-9.4l0.5-0.6c7,2.6,9.9,4.8,9.9,7.6c0,1.9-0.9,3.3-2.7,4.4
		c3.7,3.1,3.7,3.1,6.4,5.5c0.2,0.1,0.3,0.4,0.3,0.4c0,0.3-0.3,0.4-0.7,0.4H599.4z M573.9,43.6c7.3,3.5,9.5,5.3,9.5,8.1
		c0,2.7-2.1,5.2-4.4,5.2c-1,0-1.5-0.7-1.7-2.5c-0.5-4.8-1.4-7.3-3.8-10.3L573.9,43.6z"/>
	<path d="M676.4,14.7c2.5-2.7,3.2-3.5,5.7-6.1c3.7,2.7,4.8,3.5,8.3,6.4c0.4,0.4,0.5,0.6,0.5,0.7c0,0.4-0.4,0.5-1,0.5h-37.3
		c-1.7,3.5-3.3,5.9-5.6,9.2c0.7,0.4,0.8,0.6,1.4,0.9h22.9c1.7-1.9,2.2-2.5,4.1-4.3c2.9,2,3.8,2.5,6.4,4.5c0.7,0.5,0.9,0.8,0.9,1.2
		c0,0.7-0.7,1.2-2.7,2.1v16c0,4,0,8.1,0.1,15.8c-0.1,4.2-1.5,6-5.6,7.1c-1.3,0.4-3.5,0.7-4.6,0.7c-0.7,0-1-0.3-1.1-1.3
		c-0.1-1.8-0.9-3.1-2.5-4.2c-1.4-0.9-2.8-1.3-8.1-2.5v-0.9c8.1,0.3,8.1,0.3,12.1,0.4c1.2,0,1.5-0.2,1.5-1.4V49.2h-23.7v18.7
		c-0.1,1.4-1.1,1.7-5.3,1.7c-2.6,0-3-0.2-3-1.5c0.2-7.7,0.4-15.6,0.4-19.8V33.5c-4.6,4.8-8.4,7.7-15.4,11.7l-0.4-0.7
		c8.7-8.6,15.3-18,19.8-28.3h-13c-2,0-3.5,0.1-5.5,0.4l-0.3-2.6c2.1,0.4,3.8,0.7,5.8,0.7h13.7c2-5.2,2.8-7.9,3.3-12.2
		C659,4.8,660,5,660,6c0,0.7-0.9,1.1-3.7,1.5c-1.2,3.4-1.8,4.8-2.9,7.2H676.4z M671.9,36.8v-9h-23.7v9H671.9z M648.2,47.7h23.7v-9.3
		h-23.7V47.7z"/>
	<path d="M740,34.7v-6.6c0-2.2-0.1-4-0.4-7.8c3.2,0.3,4,0.4,6.2,0.7c2-2.8,4.3-6.6,6.7-11.3h-19.5c-2.7,0-4.2,0.1-6.2,0.4l-0.4-2.6
		c2.5,0.5,4,0.7,6.4,0.7h19.5l4.6-4.3c3.3,2.6,4.3,3.3,7.3,6c0.6,0.5,0.8,0.9,0.8,1.2c0,0.7-0.7,0.9-3.8,1.2
		c-6.9,5.1-9.8,7.2-13,9.1c1.8,0.3,2.4,0.7,2.4,1.3c0,0.6-0.5,1-2.6,1.8v10.2h6.1c2.2-2.7,3-3.6,5.3-6.3c3.3,2.8,4.3,3.7,7.3,6.6
		c0.2,0.3,0.4,0.6,0.4,0.7c0,0.2-0.4,0.4-0.8,0.4H748v8.6c0,3.9,0,4.6,0.1,9.9c0.1,3.1,0.1,3.3,0.1,6.4c-0.1,3-0.6,4.4-2.4,5.6
		c-1.7,1.2-5.3,2.2-7.9,2.2c-0.8,0-0.9-0.1-0.9-1.3c-0.4-4-2-5.3-9.6-7.1l0.2-1c7.4,0.5,7.6,0.5,11.3,0.5c0.1,0,0.1,0,0.2,0
		c0.7,0,0.9-0.2,0.9-1.2V36.2h-15.8c-1.3,5.7-2.3,8.7-4,12.3c5.3,3.3,6.9,5,6.9,7.8c0,3-1.9,6.1-3.5,6.1c-0.9,0-1.4-0.5-2.6-3
		c-0.9-2-2.1-3.7-3.8-5.9c-2.2,3.4-4,5.3-6.6,7.8c-3.5,3.1-7.2,5.8-11.5,8.1l-0.5-0.6c6.4-6,10.8-12.1,14.3-20c-2-2-2.7-2.6-5.1-4.6
		l-1.2,4.5c-0.4,1.1-0.9,1.3-2.8,1.3c-1.6,0-3.5-0.2-4.1-0.4c-0.4-0.2-0.6-0.5-0.6-0.9c0-0.1,0.1-0.6,0.2-1c2.9-9.3,4.6-16.3,6.4-26
		h-1.7c-2.2,0-3.5,0.1-5.3,0.4l-0.4-2.5c2.4,0.4,3.9,0.6,5.7,0.6h2c1.5-8.5,2-12.4,2.2-16.8c2.2,0.3,4,0.5,5.1,0.7
		c4.1,0.5,5.3,0.9,5.3,1.8c0,0.7-0.9,1.3-3,1.7c-1,6.2-1.4,8.5-2.2,12.6h5.1c1.6-1.9,2.1-2.4,3.8-4.2c2.5,1.8,3.3,2.3,5.6,4.2
		c0.7,0.5,0.9,0.9,0.9,1.3c0,0.7-0.7,1.2-2.3,1.8c-0.9,5.9-1.2,8-2,11.4H740z M713.2,21.7c-1.4,7.2-3.3,15.2-4.9,21.5
		c2.9,1,3.9,1.4,6,2.4c2.6-7.3,4-13.9,4.8-23.8H713.2z"/>
	<path d="M772,32.5c1.7,0.4,3.1,0.7,4,0.7h4.6c1.6-2,2.1-2.6,4-4.6c2.6,1.9,3.4,2.5,5.8,4.6c0.6,0.5,0.9,0.8,0.9,1.2
		c0,0.6-0.4,0.9-2.3,2v17.2c1.4,2.6,2.5,3.7,4.5,4.7c3.2,1.6,6.9,2.2,13.8,2.2c10.9,0,23.6-0.6,33.5-1.6v1c-3,1.4-4.3,3-5,6.4
		c-0.1,0.9-0.3,1-1.2,1.1c-1.9,0.1-12.1,0.3-18.3,0.3c-7.2,0-10.7-0.2-13.8-0.7c-5.8-1-9.3-3.2-12.1-7.4c-1-1.5-1.7-2.7-2.9-5.7
		c-3.4,4.9-5.9,8.1-9.4,12c0.1,0.7,0.1,1.5,0.1,1.9c0,0.9-0.4,1.4-0.9,1.4c-0.7,0-1.9-2-5.9-10.1c3.3-1.1,6.5-2.6,9.9-4.8V34.7H776
		c-1.4,0-2,0.1-3.5,0.4L772,32.5z M774.6,4.4c8.9,4.2,13.2,8.1,13.2,11.7c0,1.4-0.6,2.9-1.6,4.2c-1.1,1.4-2.7,2.4-3.8,2.4
		c-1.2,0-2-1.1-2.5-3.2c-1.3-6-2.8-9.8-6-14.6L774.6,4.4z M835.5,11c-0.3,0.1-1.4,0.7-3.7,1.6c3.5,2.7,3.5,2.7,5.9,4.6
		c0.3,0.2,0.4,0.5,0.4,0.7c0,0.3-0.4,0.5-0.7,0.5h-19c-0.1,0.8-0.1,0.8-0.1,2.3c0,1.7,0,2.1,0,3.3h7.8c1.5-1.7,2-2.1,3.7-3.6
		c2,1.4,3.9,2.7,5.7,4c0.5,0.4,0.7,0.7,0.7,1c0,0.6-0.5,1-2.5,2.2c0,9,0.1,14.6,0.2,16.6c-0.1,0.8-0.4,0.9-1.3,1.2
		c2.6,2,3.5,2.6,6.5,5.1c0.3,0.2,0.4,0.4,0.4,0.6c0,0.3-0.4,0.4-1,0.4h-20.2c0,2.5,0.1,4.3,0.1,5.3c-0.1,1.5-0.7,1.7-4.8,1.7
		c-2.2,0-2.6-0.1-2.7-1.3c0-0.9,0.1-2.8,0.1-5.8h-14.2c-1,0-3,0.2-4.4,0.4l-0.6-2.5c1.4,0.3,3.9,0.6,5,0.6h14.2l0.1-6.5h-8.1v2
		c-0.2,0.8-0.4,0.9-1.4,1.1c-0.7,0.1-2.5,0.2-3.6,0.2c-1.9,0-2.3-0.2-2.3-1.4c0.1-4.3,0.2-8.5,0.2-17.1c0-3.3-0.1-5.3-0.2-7.9
		c3.6,1.2,4.7,1.7,8.2,3.3h7.3c-0.1-3.7-0.1-3.8-0.1-5.6h-9.2c-1.4,0-2,0.1-3.5,0.4l-0.5-2.2c-1.2,1.5-2.5,2.2-4.2,2.2
		c-2,0-3.5-2-3.5-4.7c0-1.8,0.4-2.4,2.2-3.3c3.8-2,5.3-4,5.9-8h0.7c0.6,1.8,0.8,2.5,0.9,4.2h28.2c1.6-1.8,2-2.4,3.7-4.2
		c3.5,2.5,4.6,3.3,7.7,5.9c0.5,0.4,0.7,0.7,0.7,1c0,0.2-0.1,0.5-0.4,0.7c-0.2,0.2-1,0.4-1.8,0.4l-1.4,0.1L835.5,11z M826.9,16.7
		c1.4-1.6,1.5-1.7,3.3-3.5c-0.4,0.2-0.8,0.4-1,0.4c-1.3,0.6-1.4,0.7-2.7,1.1l-0.6-0.5c1.8-2.7,2.2-3.5,3.3-5.8h-28.8
		c0,3.4-0.6,5.8-2,7.7c1.6,0.4,2.9,0.6,3.8,0.6h9.2c-0.1-2.5-0.1-3.5-0.4-6.4c9.3,0.8,10,0.9,10,1.8c0,0.7-0.7,1.1-2.7,1.9v2.7
		H826.9z M811.4,32.4c0-1.1,0-1.9,0-2.3c0,0,0-2,0.1-4.7h-8.1v7H811.4z M811.4,33.9h-8.1V42h8.1V33.9z M826.6,25.3h-8.3
		c0,1.5,0,2.8,0,3.8v3.3h8.3V25.3z M826.6,33.9h-8.2V42h8.2V33.9z M831.4,45.6c-0.9,0.1-2.2,0.3-3.3,0.3c-1,0-1.3-0.2-1.4-1.1v-1.3
		h-8.2l0.1,6.5h9.1L831.4,45.6z"/>
	<path d="M895.3,10.7c2.3-2.7,3-3.5,5.3-5.9c3.9,2.7,5.1,3.5,8.7,6.4c0.2,0.2,0.3,0.4,0.3,0.6c0,0.3-0.2,0.4-0.7,0.4h-43.4
		c-6.8,8.5-10.9,12.1-19,16.9l-0.6-0.7c4.5-4.8,7.7-9.5,10.8-15.5c2-3.8,3.5-7.5,4.6-10.9c11.1,2.9,11.5,3,11.5,3.9s-0.7,1.1-4,1.4
		c-1,1.6-1.3,2.1-2.1,3.3H895.3z M876.3,47.6c0,0,0,0.9,0,2c7.4,2,8.8,2.4,12.4,3.8c2.8,1.2,4,1.8,4.7,2.7c0.7,0.9,1.1,2,1.1,3.3
		c0,2.9-1.7,5.5-3.4,5.5c-0.7,0-1.3-0.4-2.2-1.7c-3.6-5.3-8.3-9.8-12.5-12.2c0.1,1,0.1,6.5,0.3,16.6c0,0.6-0.1,0.9-0.4,1.1
		c-0.6,0.4-2.5,0.8-4.5,0.8c-2.2,0-2.7-0.3-2.7-1.4c0.2-6.4,0.2-7.7,0.3-11.1v-4.1c-3.8,3.7-6.1,5.4-10.6,8.2
		c-4.2,2.6-6.6,3.8-11.6,5.6l-0.4-0.6c8.9-6.6,14.8-12.7,19.2-19.9h-12.6c-1.2,0-2.7,0.1-4.1,0.4l-0.6-2.5c1.7,0.4,3.4,0.6,4.8,0.6
		h15.8v-7.1c0-2.4-0.1-3.9-0.4-7c9.5,0.8,10.1,0.9,10.1,2c0,0.6-0.7,1.1-2.7,1.8l-0.1,10.3h2.2c2.8-5.5,4.3-9.2,5.2-13.4
		c8.5,3.5,9.1,3.8,9.1,4.6c0,0.3-0.1,0.5-0.4,0.7c-0.2,0.1-1.2,0.2-3,0.3c-4.7,4.4-5.6,5.2-8.7,7.8h4.9c2-2.2,2-2.2,3.8-4.3
		c2.5,2,3.3,2.7,5.6,4.8c0.2,0.2,0.4,0.4,0.4,0.5c0,0.2-0.3,0.4-0.5,0.4h-18.6V47.6z M894,27.1c1.8-2,2.4-2.7,4-4.6
		c2.6,1.9,3.5,2.5,6,4.5c0.6,0.5,0.9,0.8,0.9,1.1c0,0.7-0.5,1-2.6,2.2c-0.1,2.4-0.2,3.8-0.2,4.9c0,4.8,0.6,9.5,1.7,13.3
		c0.8,2.9,1.7,4.6,3.9,7.2c2.9-6.1,3.7-7.7,5.6-12.6l0.8,0.3l-1.9,12c-0.2,1.2-0.3,2.1-0.3,2.7c0,0.9,0,0.9,1.7,3.2
		c0.7,1,1.2,2.4,1.2,3.3c0,2.2-1.5,3.9-3.5,3.9c-2.6,0-6.5-2.8-9.5-7.1c-3.3-4.7-5.4-10.5-6.3-17.9c-0.4-4-0.6-7.2-0.9-14.8h-36.7
		c-1.4,0-2.8,0.1-4.3,0.4l-0.6-2.5c1.7,0.3,3.5,0.5,4.8,0.5H894z M854.6,31.7c1.7,0.5,3.3,1.2,5.4,2.2c3.8,2,5,3.3,5,5.3
		c0,2.2-2.2,4.9-4.1,4.9c-0.7,0-1.3-0.4-1.7-1.2c-0.3-0.5-0.3-0.5-1.6-4.6c-0.8-2.5-1.4-3.6-3.5-6.2L854.6,31.7z M891,18.8
		c2.7-2.8,2.7-2.8,5-5.2c3.4,2.5,4.4,3.2,7.6,5.6c0.2,0.3,0.4,0.5,0.4,0.7c0,0.3-0.2,0.4-0.7,0.4h-36c-1.2,0-2.5,0.1-4,0.4l-0.7-2.4
		c1.7,0.4,3.3,0.5,4.7,0.5H891z"/>
	<path d="M928.2,46.2c-0.4-11.6-1.1-17.4-4.1-31.7c-0.2-1.2-0.4-2.6-0.4-3.4c0-2.9,2-4.2,6.1-4.2c4.1,0,6,1.3,6,4.2
		c0,1.5,0,1.5-1.5,8.7c-1.7,8.2-2.7,16.8-3,26.3H928.2z M935.7,57.3c0,3.3-2.7,6-6,6c-3.3,0-6-2.7-6-6c0-3.3,2.7-6,6-6
		C933.1,51.3,935.7,53.9,935.7,57.3z"/>
</g>
</svg>
