<?xml version="1.0" encoding="utf-8"?>
<!-- Generator: Adobe Illustrator 18.0.0, SVG Export Plug-In . SVG Version: 6.00 Build 0)  -->
<!DOCTYPE svg PUBLIC "-//W3C//DTD SVG 1.1//EN" "http://www.w3.org/Graphics/SVG/1.1/DTD/svg11.dtd">
<svg version="1.1" id="圖層_1" xmlns="http://www.w3.org/2000/svg" xmlns:xlink="http://www.w3.org/1999/xlink" x="0px" y="0px"
	 viewBox="0 0 734 72" enable-background="new 0 0 734 72" xml:space="preserve">
<g>
	<path d="M22,18.9c1.3-1.7,2.6-3.4,3.8-5c2.7,2.4,3.4,3.1,5.9,5.6c0.3,0.3,0.4,0.4,0.4,0.6c0,0.2-0.2,0.4-0.6,0.4H20.3v4.9
		c6.8,2.7,10,5.4,10,8.1c0,2.5-2.3,5.6-4.1,5.6c-0.9,0-1.4-0.7-1.9-3.1c-0.8-4.1-2-6.8-4-9.2V51c0,7.2,0,7.2,0.1,16.6
		c0,1.6-0.8,1.9-5.2,1.9c-2.4,0-2.7-0.1-2.8-1.5c0.1-5.4,0.1-5.4,0.3-11.3L13,45.6l0.2-7.6c-3.4,7.3-5.8,11-10.4,15.5L2.2,53
		c4.7-9.5,8.3-21,10-32.5H7.3c-1.6,0-2.2,0.1-3.8,0.4l-0.4-2.5c1.5,0.4,2.7,0.6,4.1,0.6h5.5V12c0-4.6-0.1-6.2-0.4-9.4
		c2.3,0.2,3.8,0.4,4.9,0.4c5,0.5,6.2,0.8,6.2,1.7c0,0.7-0.7,1-3.2,1.9v12.3H22z M54.6,12.5c2-2,2.6-2.7,4.6-4.6
		c3.1,2.3,3.9,3.1,6.6,5.3c0.7,0.7,1,1.1,1,1.5c0,0.7-1,1.1-3.5,1.5c-3.9,6.1-6.7,9.5-10.8,13.4c6.1,3.4,11.8,4.9,20.3,5.4v0.7
		c-2.6,1.6-4.1,3.7-4.7,6.7c-0.2,0.9-0.4,1.2-0.9,1.2c-0.4,0-1.1-0.2-2.6-0.7c-6.6-2.3-11.4-5.3-15.9-9.9c-4.9,3.9-9.2,6.5-15,9.2
		c1.6,0.7,2.6,1.2,5.4,2.5h16.2c1.4-1.6,1.8-2,3-3.5c2.6,1.6,3.4,2.1,6,3.7c0.9,0.7,1.2,1.1,1.2,1.5c0,0.5-0.6,1.1-2,1.9
		c-0.1,2.3-0.1,3.7-0.1,5.1c0,3.6,0.1,8,0.3,14.2c0,1.6-0.7,1.9-5.2,1.9c-2.5,0-2.8-0.1-2.9-1.2v-3.5H39v2.8
		c-0.1,0.9-0.1,1.1-0.4,1.3c-0.6,0.4-2,0.7-4.4,0.7c-2.8,0-3.1-0.1-3.1-1.5c0.1-11.6,0.1-14.1,0.1-17.3c0-2.8,0-2.9-0.1-7.3
		c-2.2,0.9-3.5,1.4-7,2.5l-0.4-0.8c8.5-4.9,14.5-9.7,21-16.5c-2.5-3.4-3.8-5.7-5.6-10.1c-3.1,4.1-5.5,6.5-10.7,10.5l-0.6-0.5
		c3-4.8,4.5-8.1,6.6-13.8c1.8-5,2.5-7.9,3.1-12.1C47.9,4.8,48.8,5.1,48.8,6c0,0.7-0.9,1.1-3.3,1.5c-1.2,2.5-1.7,3.3-2.6,5H54.6z
		 M39,63h16.7V46H39V63z M42,14.1c-1,1.6-1.1,1.7-2.1,3.1c3,4.5,4.5,6.3,7.2,8.6c3.3-3.9,4.9-6.5,7.7-11.7H42z"/>
	<path d="M96.3,8.2c0-3,0-3.8-0.3-6.2c10,0.9,10.8,1,10.8,2c0,0.7-0.7,1-2.9,1.6c0,1.3,0,2.2,0,2.6h13c0-2.5-0.1-3.6-0.4-6.1
		c2.3,0.2,3.9,0.4,5,0.4c4.5,0.3,5.7,0.6,5.7,1.4c0,0.6-0.6,0.9-2.8,1.6v2.6h7.2c2.3-2.3,3-3,5.3-5.2c3.5,2.3,4.6,3.1,8,5.8
		c0.3,0.2,0.4,0.4,0.4,0.5c0,0.3-0.3,0.4-0.7,0.4h-20.1c0,1.2,0.1,1.5,0.1,3.1c0,0.7-0.1,0.9-0.4,1.2c-0.6,0.4-2.4,0.7-4.9,0.7
		c-2,0-2.5-0.2-2.5-1.2l0.1-3.8h-13c0,1.4,0,1.5,0.1,3c0,0.6-0.1,0.7-0.5,1.1c1.7,1,2.5,1.6,4.8,3.2c0.5,0.4,0.7,0.7,0.7,1.1
		c0,0.5-0.5,0.9-2.1,1.8c0.1,6.6,0.1,6.8,0.2,10.6c0,1.5-0.9,1.9-4.1,1.9c-0.4,0-0.4,0-1,0c-0.1,0-0.1,0-0.1,0
		c-1.2,0-1.7-0.4-1.7-1.3v-1H88.4v22l-0.1,8.8c0,1.9,0,3.7,0.1,6.8c0,0.8-0.1,1.2-0.6,1.4c-0.7,0.4-2.4,0.6-4.5,0.6
		c-2,0-2.5-0.3-2.5-1.6c0.4-16.3,0.4-16.3,0.4-22c0-19.2-0.1-28.5-0.4-33.3c3.8,1.7,4.9,2.2,8.4,4h10.5c1.2-1.3,1.5-1.6,2.4-2.5
		c-1.4,0.1-2.1,0.2-3.3,0.2c-2.3,0-2.6-0.1-2.6-1.2c0.1-1.7,0.1-1.7,0.1-3.4H83.2c-1.8,0-3.2,0.1-4.9,0.4L78,7.7
		c2,0.4,3.4,0.6,5.2,0.6H96.3z M100.1,18.3H88.4v4.2h11.7V18.3z M100.1,24H88.4v4.6h11.7V24z M113.6,55.8c9.2,1.6,12.6,3.4,12.6,6.7
		c0,2-1.3,3.7-2.8,3.7c-0.8,0-0.9-0.1-2.3-2c-0.8-1.1-3-3.5-4.1-4.6c-1-0.9-1.9-1.5-3.6-2.5c0.1,3.5,0.1,3.5,0.3,10.1
		c0,0.4-0.1,0.7-0.1,0.9c-0.4,0.4-1.8,0.7-4,0.7c-2.2,0-2.5-0.2-2.5-1.5c0.1-1.7,0.1-1.7,0.3-7.1v-1.7c-5.9,4.4-8.9,5.9-16.8,8.3
		l-0.2-0.8c6-3.6,9.3-6.6,13.4-12h-2.8v0.4c-0.1,1.2-0.8,1.4-4.1,1.4c-1.9,0-2.2-0.1-2.2-1.2c0.2-4,0.2-4.5,0.2-10
		c0-2.5-0.1-3.7-0.3-6.3c3.1,1.2,3.9,1.5,6.8,2.8h6v-3.5H95.2c-1.6,0-3.1,0.1-4.4,0.4l-0.3-2.5c1.7,0.4,2.9,0.5,4.8,0.5h12.2
		c-0.1-2-0.1-2.8-0.4-5.2c3.6,0.4,4.8,0.6,6.8,0.9v-0.4c0.1-4.5,0.1-6.3,0.1-10c0-3.5,0-4.8-0.1-7.8c3.3,1.4,4.4,1.8,7.6,3.3h11
		c1.7-1.7,2.2-2.2,3.9-3.7c2.4,1.6,3.1,2.1,5.5,3.8c0.5,0.4,0.7,0.7,0.7,1.1c0,0.6-0.5,1-2.3,2v24.7c0,5.7,0,5.7,0.3,17.1
		c0,0.4,0,0.7,0,0.9c0,3-0.8,4.6-2.9,5.7c-1.4,0.7-3.7,1.2-5.7,1.2c-0.7,0-0.9-0.2-1-1.2c-0.1-3.8-0.9-5-4.1-6.4v-0.7
		c3.9,0.2,3.9,0.2,5.4,0.2c0.7-0.1,0.8-0.3,0.8-1.2V30.1H121V31c0,1.2-0.7,1.5-4.1,1.5c-0.4,0-0.8,0-1.4,0c-0.2,0.7-0.4,0.9-2.1,1.4
		v2.1h8.3c1.3-1.3,2.5-2.5,3.6-3.7c2.5,1.8,3.3,2.4,5.9,4.4c0.2,0.2,0.3,0.4,0.3,0.5c0,0.2-0.3,0.4-0.7,0.4h-17.4v3.5h6.8
		c1.2-1.3,1.6-1.7,2.8-2.9c2.2,1.4,2.8,1.8,4.8,3.3c0.4,0.4,0.7,0.6,0.7,0.8c0,0.5-0.4,0.9-1.8,1.7c0,6.8,0,6.8,0.1,10.2
		c0,0.7-0.1,0.9-0.4,1.2c-0.4,0.4-2.1,0.7-4.1,0.7c-1.5,0-1.8-0.2-1.8-1v-0.9h-6.9V55.8z M107.6,42.5h-6.4v4.1h6.4V42.5z
		 M107.6,48.1h-6.4v4.3h6.4V48.1z M120.5,46.5v-4.1h-7v4.1H120.5z M120.5,52.3v-4.3h-7c0.1,1.6,0.1,3,0.1,4.3H120.5z M133.2,18.3
		H121v4.2h12.2V18.3z M133.2,24H121v4.6h12.2V24z"/>
	<path d="M171.2,27.1c0-4-0.1-4.7-0.4-7.2c8.4,0.7,9.3,0.7,10.2,1c0.6,0.2,0.9,0.5,0.9,0.9c0,0.7-0.9,1.2-2.8,1.6
		c0,11.8,0,12.5-0.2,16.1c-0.7,12.6-3.3,18.7-10.5,23.9c-3.9,2.8-8.1,4.6-15.3,6.5l-0.5-0.8c6.2-3,9.9-5.8,13-9.7
		c2.4-3,3.6-5.7,4.6-10.1c-5.2,2.9-5.2,3-13.7,6.4c-0.1,2.1-0.5,3-1.2,3c-0.8,0-1.2-0.9-4.2-9.6c4-0.1,11.8-0.9,19.6-2.2
		c0.3-2.3,0.4-3.6,0.5-7.8h-12.4c-2,0-3,0.1-4.3,0.4l-0.6-2.5c2,0.4,3.2,0.6,4.9,0.6h12.5c0.1-3,0.1-3.7,0.1-9.1H157
		c-1.7,0-2.9,0.1-4.5,0.4l-0.6-2.5c2,0.4,3.3,0.6,5.1,0.6H171.2z M189.7,10.8c0-3.9-0.1-5.7-0.4-7.6c2.2,0.2,4.1,0.4,5.2,0.4
		c4.6,0.4,5.7,0.7,5.7,1.5c0,0.7-0.6,1-2.8,1.7l0.1,4.1h7.3c1.9-2,3.6-3.9,5.2-5.7c3.4,2.6,4.4,3.4,7.6,6c0.3,0.4,0.4,0.5,0.4,0.7
		c0,0.2-0.3,0.4-0.7,0.4h-19.8c0.1,2.5,0.1,2.5,0.1,4.4c-0.1,0.4-0.2,0.7-0.5,0.8c-0.6,0.4-2.1,0.6-3.9,0.6c-2.8,0-3.3-0.2-3.5-1.2
		c0.1-2.2,0.1-2.5,0.1-4.6h-13.2c0.1,2.6,0.1,2.6,0.1,4.5c-0.1,0.5-0.1,0.7-0.4,0.9c-0.6,0.3-2.2,0.5-4.1,0.5c-3,0-3.5-0.1-3.5-1.3
		c0.1-3.3,0.1-3.3,0.1-4.6h-12.2c-1.3,0-3.6,0.2-4.9,0.4l-0.6-2.6c2.3,0.5,3.6,0.7,5.5,0.7h12.2c0-1,0-1.5,0-2.3
		c0-2.2-0.1-3.3-0.2-5.3c2.3,0.2,3.9,0.3,5,0.4c4.7,0.3,5.8,0.6,5.8,1.4c0,0.7-0.8,1.1-2.8,1.7c-0.1,1.2-0.1,2.2-0.1,2.8
		c0,0.5,0,0.7,0.1,1.3H189.7z M204.2,27.1c2.8-3,2.8-3,4.9-5.4c3.3,2.5,4.3,3.3,7.3,5.9c0.2,0.3,0.4,0.5,0.4,0.7
		c0,0.2-0.3,0.4-0.7,0.4H195l0.1,10h8.7c1.7-1.9,3.3-3.6,4.7-5.2c3,2.4,4,3.1,6.9,5.5c0.3,0.3,0.4,0.5,0.4,0.7
		c0,0.3-0.4,0.5-0.9,0.5h-19.9l0.1,11v0.2h9.9c2.4-2.5,3.2-3.3,5.4-5.7c3.3,2.5,4.2,3.3,7.4,6.1c0.3,0.3,0.4,0.5,0.4,0.7
		c0,0.2-0.4,0.4-0.8,0.4h-22.3c0.1,9.2,0.1,9.2,0.3,13.9c0,0.9-0.2,1.2-1,1.5c-0.7,0.2-3.3,0.5-5,0.5c-1.8,0-2.3-0.3-2.4-1.5
		c0.3-7.6,0.4-13.4,0.4-22.2c0-5.4-0.1-15.5-0.1-19.8c0-2.5-0.1-3.4-0.4-5.5c2.3,0.1,4,0.3,5.1,0.4c5.2,0.4,5.9,0.6,5.9,1.5
		c0,0.7-0.7,1.1-2.8,1.6v3.7H204.2z"/>
	<path d="M292.5,59c-3.1,1.6-4.1,3.1-4.6,6.8c-0.1,0.8-0.4,1.1-1.2,1.2c-1.2,0.1-8.9,0.4-12.9,0.4c-13.8,0-18.5-0.3-21.7-1.2
		c-3.9-1.2-6.8-3-8.9-5.7c-1.2-1.6-2.2-3.4-3.6-7c-3.6,5.1-3.9,5.6-9.7,12.3c0,0.4,0,0.7,0,0.9c0,1.5-0.4,2.4-1.1,2.4
		c-0.3,0-0.7-0.3-0.9-0.9c-0.1-0.2-0.1-0.2-4.6-9.5c3.6-0.8,6.5-2.2,9.8-4.6V34.1h-4.4c-1.5,0-3.2,0.2-4.6,0.5l-0.5-2.7
		c2.3,0.5,3.7,0.7,5.1,0.7h3.5c1.8-2,2.4-2.7,4.3-4.6c2.6,1.9,3.4,2.5,6,4.4c0.6,0.5,0.8,0.8,0.8,1.3c0,0.7-0.4,1-2.3,2.2v17.2
		c1.5,2.7,2.5,3.9,4.4,4.8c2.9,1.5,7.1,2,15.8,2c8.5,0,20.4-0.7,31.2-1.7V59z M226.5,3.5c4.1,1.5,7.6,3.1,10.9,5.2
		c3.1,1.9,4.8,4.1,4.8,6.2c0,3.3-3,7.3-5.6,7.3c-1.2,0-1.5-0.5-2.4-3.3c-1.8-6-3.8-9.7-8.3-14.7L226.5,3.5z M254.9,52.1v3
		c-0.1,0.7-0.1,0.9-0.5,1.2c-0.6,0.3-2.3,0.5-4.1,0.5c-2.6,0-3.1-0.2-3.3-1.3c0.3-6.7,0.4-9.1,0.4-16.9c0-19.4-0.1-23-0.3-26.2
		c3.6,1.6,4.7,2.2,8.4,4.1h7.5v-6.4c0-3.6-0.1-4.8-0.4-7.6c2,0.2,3.6,0.4,4.6,0.4c5.1,0.4,6.4,0.7,6.4,1.6c0,0.7-0.9,1.3-3,2v10h8.1
		c1.7-1.9,2.3-2.5,3.9-4.3c2.7,1.8,3.5,2.4,6,4.3c0.7,0.4,0.9,0.8,0.9,1.2c0,0.5-0.2,0.7-2.5,2.2c-0.1,5.7-0.1,9.8-0.1,12.6
		c0,8.3,0.1,12.9,0.3,22.1c-0.1,0.6-0.3,0.8-0.6,1c-0.6,0.4-2,0.7-3.6,0.7c-0.9,0-1.7-0.1-2.5-0.1c-0.8-0.1-1-0.3-1.2-1.1v-3H254.9z
		 M263,18.1h-8.1v14.7h8.2L263,18.1z M263.1,34.3h-8.2v16.3h8.3L263.1,34.3z M279.5,18.1h-8.9v14.7h8.9V18.1z M279.5,34.3h-8.9v16.3
		h8.9V34.3z"/>
	<path d="M347.8,43.9c1.7-1.7,2.2-2.2,4-3.8c2.8,1.9,3.6,2.5,6.1,4.6c0.7,0.6,0.9,0.9,0.9,1.2c0,0.8-1,1.3-3.7,1.7
		c-3.6,4.4-5.5,6.4-9.1,9.2c6.6,2,12.4,2.9,19.9,2.9v0.8c-1.7,0.7-2.3,1.2-3,2.2c-0.9,1.2-1.7,2.5-2,4.1c-0.3,1.2-0.4,1.4-1.1,1.4
		c-1.2,0-6.4-1.6-9.6-3c-3.3-1.4-6.2-3-8.7-5c-7.5,4.9-15.5,7.6-27.2,9.2l-0.3-0.8c9.6-3.3,16-6.7,23.2-12.2
		c-2.3-2.4-4.1-5.1-5.6-8.1c-4.4,4.8-9.2,8.3-15.9,11.6l-0.4-0.6c6.2-5.9,10.9-12.3,14.3-19.5c-1.3,0.1-2.3,0.2-3.9,0.2
		c-1.9,0-2.3-0.2-2.3-1.5c0.1-6.8,0.2-9,0.2-13.7c0-2.5,0-2.8-0.1-5.7c-1.5,1.2-2,1.6-3.7,2.7c0.3,0.3,0.6,0.7,0.6,0.9
		c0,0.6-0.6,0.8-2.8,0.9c-2.5,3.8-4,5.8-6.8,8.8c3.1,0.6,4,0.9,4,1.7c0,0.6-0.7,1-2.3,1.6v31.6c0,0.9-0.1,1.3-0.6,1.7
		c-0.7,0.5-2.4,0.8-5,0.8c-2.1,0-2.5-0.3-2.5-1.8c0.2-6.2,0.4-14.2,0.4-17.7V38c-3.1,2.5-4.7,3.6-8.4,5.8l-0.4-0.6
		c4.1-4.7,6.7-8.4,9.9-14.2c2.8-4.8,4-7.6,5.2-11.3c3.8,1.5,4.9,2,7.8,3.4c4-6.3,7.1-13.8,7.8-18.8c9.2,2.3,11,2.9,11,3.8
		c0,0.7-0.9,1-3.5,1.3c-1.6,2.1-2.2,2.8-3.5,4.4h20.1c2.3-2.7,3-3.5,5.2-6.1c3.6,2.7,4.6,3.6,8,6.5c0.3,0.4,0.4,0.5,0.4,0.7
		c0,0.3-0.4,0.4-0.9,0.4h-34.3c-1.2,1.4-2,2.1-3.1,3.3c2,0.9,2.8,1.3,5.2,2.8h17.3c1.5-1.6,1.5-1.6,3.7-3.7c2.5,1.5,3.3,2,5.7,3.8
		c0.7,0.4,0.9,0.8,0.9,1.2c0,0.6-0.5,1-2.3,2c0,1.5,0,1.5,0,3.1c0,2.7,0.1,5.3,0.2,11.8c0,0.7-0.1,0.9-0.3,1.2
		c-0.4,0.6-2,0.9-5.2,0.9c-2,0-2.3-0.2-2.3-1.4v-1.2h-18.1v0.2c7,1.2,7.3,1.3,8.1,1.6c0.5,0.3,0.9,0.6,0.9,0.9
		c0,0.7-0.6,0.9-3.3,1.5c-0.8,1.1-0.9,1.2-1.8,2.5H347.8z M296.9,22.6c3.6-4,6.2-7.5,8.9-12.1c1.8-3.3,2.7-5.2,3.7-8.5
		c2.1,0.7,3.8,1.2,4.9,1.5c4.7,1.4,6.2,2,6.2,2.8c0,0.8-0.9,1.1-3.4,1.2c-6.5,7.8-11.4,11.8-19.7,15.8L296.9,22.6z M349.3,21h-18.1
		v6.2h18.1V21z M331.2,28.8v6.9h18.1v-6.9H331.2z M333.9,45.4c-0.7,0.8-0.9,1.1-1.5,1.9c2.1,3,4.1,4.9,7.4,6.8
		c3.6-3.1,5-4.7,7.9-8.7H333.9z"/>
	<path d="M423.8,19.7c2.5-3,3.3-4,5.9-6.9c3.9,3,5.1,3.9,8.7,7.2c0.2,0.3,0.4,0.6,0.4,0.7c0,0.3-0.4,0.7-0.8,0.7h-29.6v17.5h10.5
		c1.5-1.7,3.1-3.3,4.5-4.9c2.8,2,3.7,2.7,6.5,4.9c0.5,0.4,0.7,0.7,0.7,1.2c0,0.7-0.5,1-2.8,2c0,4.8,0,6.5,0,10.5
		c0,5.9,0.1,10,0.3,15c-0.3,1.5-1.6,2-6.3,2c-1.8,0-2.3-0.3-2.4-1.5v-4.3h-30.5v4.1c-0.1,1.5-1.4,1.9-5.7,1.9
		c-2.2,0-2.8-0.4-2.8-1.6c0.1-9.8,0.2-14.7,0.2-20.5c0-4.6,0-5.4-0.3-13.7c4.2,2,5.5,2.6,9.6,5.1h10.1V21.3h-21.7
		c-2.4,0-4.5,0.1-5.9,0.4l-0.4-2.7c2.3,0.5,3.9,0.7,6.3,0.7h21.6v-6.8c0-4.6-0.1-6.3-0.4-10.2c9.4,0.7,10.2,0.8,11.2,1
		c0.7,0.2,0.9,0.6,0.9,1c0,0.7-0.7,1.1-3.2,2v12.9H423.8z M388.8,62h30.5V40.5h-30.5V62z"/>
	<path d="M451.2,22.6c-2.4,2.1-4.9,4-7.8,5.8l-0.7-0.7c3.7-4.6,6.2-8.5,8.5-13.3c2.3-4.7,3.6-8.4,4-12c10.7,1.9,11.3,2,11.3,2.9
		c0,0.7-0.8,1-3.1,1.4l-0.3,0.6c9.7,3.3,11.6,4.6,11.6,7.8c0,2.5-1.6,4.8-3.3,4.8c-1,0-1.5-0.4-2.5-2.9c-1.6-3.6-3.6-6.3-6.2-8.9
		c-4.4,7.2-6.8,10.2-11,14c0.9,0.2,1.9,0.3,3.3,0.3h8.3c1.5-1.9,2-2.5,3.5-4.4c2.8,2.1,3.6,2.8,6.2,4.9c0.3,0.3,0.4,0.5,0.4,0.7
		c0,0.2-0.3,0.4-0.8,0.4h-9.4v9.2h2.3c1.7-2,2.3-2.7,3.8-4.6c2.6,2.2,3.4,2.8,5.8,5.2c0.2,0.2,0.3,0.4,0.3,0.6
		c0,0.2-0.3,0.4-0.7,0.4h-11.5v20.7c3.8-0.8,5.9-1.2,11-2.6l0.2,0.8c-7.6,4.4-13.9,7.5-24.9,11.9c-0.3,2.2-0.7,3-1.5,3
		c-0.9,0-1-0.4-3.8-10.7c3.5-0.1,3.5-0.1,11.9-1.3V34.8h-7.3c-1.6,0-2.7,0.1-4,0.4l-0.4-2.5c1.5,0.4,2.8,0.6,4.4,0.6h7.4V24h-1.3
		c-0.9,0-2.3,0.1-3.3,0.4L451.2,22.6z M446.4,37.9c6,4.4,8.3,7.3,8.3,10.5c0,2.9-2.5,6.3-4.7,6.3c-1,0-1.5-1.1-1.6-3.7
		c-0.3-5.5-0.9-8.5-2.5-12.6L446.4,37.9z M464.5,53.4c1.9-6.5,2.9-11.9,3.1-15.9c7.9,3.4,8.5,3.7,8.5,4.4c0,0.6-0.7,0.9-2.4,0.9
		c-3.2,4.8-4.6,6.6-8.5,11L464.5,53.4z M498.2,7.7c1.7-2,2.3-2.6,4.1-4.5c2.6,2,3.4,2.5,5.9,4.5c0.7,0.6,0.9,0.9,0.9,1.3
		c0,0.7-0.5,1-2.7,2.1c0,3.3,0,5.5,0,7.8c0,4.9,0.1,8.6,0.2,15.3c0,1.2-0.3,1.5-1.5,1.9c5,3.3,6.8,4.7,6.8,5.3
		c0,0.4-0.5,0.8-1.2,0.8c-0.7,0-1.4-0.1-2.3-0.2c-5.6,2.7-7.8,3.6-12.4,5.2c2,2.8,4.1,4.9,7.1,7c3,2.1,5.4,3.2,9.4,4.5v0.7
		c-2,1.2-2.9,1.9-4,3.3c-0.8,1.1-1.7,2.6-2.1,3.6c-0.4,1.1-0.7,1.4-1,1.4c-0.5,0-1.2-0.5-2.8-1.9c-2.8-2.7-5.4-5.9-7.7-9.9
		c-4.4,2.9-11,6.2-20.6,10.6c-0.2,2.1-0.6,2.9-1.3,2.9c-0.9,0-0.9-0.1-3.9-10.5c3-0.1,3.8-0.2,7.2-0.7V13.6c0-3.7-0.1-6-0.4-10.5
		c4,1.8,5.2,2.5,8.9,4.6H498.2z M498.8,19.9V9.2h-14.9v10.8H498.8z M483.9,21.5v11.1h14.9V21.5H483.9z M483.9,57.1
		c5.5-1,6.5-1.2,10.5-2.2c-2.7-5.1-4.6-13.3-5.2-20.8h-5.4V57.1z M490.7,34.1c1.2,5.2,2,7.6,4.4,11.6c3.5-3.4,6.1-6.5,7.9-9.2
		c-0.7,0-1.2,0-1.7,0c-2.1,0-2.5-0.2-2.5-1.5v-0.9H490.7z"/>
	<path d="M567.6,24.2c1.7-1.9,2.3-2.5,4.1-4.4c2.7,1.7,3.5,2.3,6.1,4.2c0.7,0.5,0.9,0.8,0.9,1.2c0,0.7-0.4,1-2.5,2.4
		c0,1.6,0,3.3,0,3.9c0,4.6,0.1,7.4,0.3,12.7c-0.1,2-0.9,2.3-6.2,2.3c-1.7,0-2-0.3-2-1.4v-2.5h-34.6v15c0,1.4,0.4,2,1.5,2.2
		c1.7,0.4,6.8,0.6,17.1,0.6c15,0,19.6-0.3,20.9-1.2c1.5-1,2.4-3.2,6.6-15h0.7L580,56.1v0.3c0,0.8,0.1,1.6,0.4,1.8
		c0.2,0.2,0.2,0.2,2,0.9c1.1,0.4,1.8,1.5,1.8,2.9c0,2.2-1.7,3.8-4.9,4.4c-4.1,0.7-11.5,1-27.4,1c-15,0-20-0.2-22.6-1.1
		c-1.5-0.4-2.7-1.6-3.3-3c-0.3-0.8-0.5-1.8-0.6-3.5c0-2.6,0.1-4.4,0.1-5.8c0.1-3.5,0.1-6.1,0.1-6.9V26.6c-2.1,1.5-3.4,2.3-8.1,4.9
		l-0.5-0.7c5.3-5.1,8.3-8.7,11.8-14.5c3.3-5.2,5.2-9.4,6.8-14.4c9.3,2,10.6,2.3,11.3,2.8c0.2,0.1,0.5,0.6,0.5,0.8
		c0,0.1-0.3,0.6-0.5,0.7c-0.5,0.4-0.9,0.5-3,0.9c-1.2,1.8-1.7,2.3-2.8,3.8h12.4c1.9-2,2.5-2.6,4.4-4.5c3.5,2.2,4.6,2.9,7.8,5.4
		c0.7,0.6,1.1,1,1.1,1.4c0,0.9-1,1.2-4.4,1.5c-4.1,3.7-6.2,5.4-8.3,7.1l-2.9,2.3H567.6z M548.1,24.2c1.9-3,3.6-6.8,5.6-11.7h-13.7
		c-2.8,3.9-5.2,6.3-9,9.8c1.7,0.9,1.7,0.9,3.3,1.9H548.1z M533.6,25.8v15.4h12.9V25.8H533.6z M554.4,41.2h13.7V25.8h-13.7V41.2z"/>
	<path d="M609.6,19c2-2.4,2.6-3.1,4.6-5.2c2.8,2.4,3.7,3.1,6.5,5.7c0.3,0.3,0.4,0.4,0.4,0.6c0,0.3-0.3,0.4-0.7,0.4h-12.5v4.2
		c6.9,2.5,10.1,5.2,10.1,8.2c0,2.5-2.5,5.5-4.4,5.5c-1.2,0-1.5-0.7-2-4c-0.6-3.2-1.9-6.2-3.6-8.4v4.7c0,16.6,0,29.2,0.1,36.8
		c0,1.6-0.7,1.9-4.9,1.9c-2.8,0-3.2-0.2-3.2-1.6c0.4-11,0.5-14.3,0.7-20.8l0.1-9.9c-3,7-6,11.6-10.5,15.7l-0.7-0.4
		c4.5-8.3,8.6-20.9,10.3-31.9h-5.2c-1.2,0-2.3,0.1-3.6,0.4l-0.3-2.4c1.5,0.4,2.8,0.5,3.9,0.5h5.8v-7.2c0-4.4-0.1-6-0.3-9.4
		c2.3,0.2,4,0.4,5.1,0.5c4.7,0.5,5.8,0.8,5.8,1.6c0,0.7-0.8,1.2-3.1,1.8V19H609.6z M642.3,10c-1.9,5.5-5.2,11.9-8.6,16.6
		c4.9,0.7,6,1,6,1.9c0,0.7-0.7,1.1-2.5,1.8v9.9c0,8.9,0.1,17,0.3,27.5c0,0.7-0.1,0.9-0.4,1.2c-0.5,0.4-2.5,0.7-4.9,0.7
		c-2.8,0-3.2-0.2-3.3-1.6c0.3-8.6,0.4-12.6,0.4-26c0-2.5,0-8.4,0-9.7c-5.2,6.3-10.2,10.4-19.1,15.9l-0.4-0.7
		c7.4-7.5,12.3-13.9,17.1-22.6c2.8-5.2,5.3-10.8,6.5-15h-14.6c-1.4,0-2.5,0.1-4.4,0.4l-0.4-2.5c2,0.4,3.3,0.6,4.8,0.6h26.4
		c2-2.2,3.9-4.1,5.7-6c3.7,2.7,4.8,3.6,8.4,6.5c0.3,0.3,0.4,0.5,0.4,0.7c0,0.3-0.3,0.4-0.7,0.4H642.3z M640.7,25.9
		c5.7,3,9.4,5.4,12.9,8.5c3.1,2.8,4.4,5,4.4,7.6c0,1.7-0.7,3.7-1.9,5.4c-0.9,1.4-1.9,2-3,2c-1.5,0-1.9-0.6-2.8-3.6
		c-2-6.8-5.1-12.6-10.2-19.3L640.7,25.9z"/>
	<path d="M678.1,11.4h-6.2c-2.3,0-3,0.1-4.6,0.4l-0.5-2.5c2.1,0.5,2.9,0.6,5.2,0.6h6.2V8c0-2.3-0.1-3.2-0.4-5.2
		c9.4,0.8,10.1,0.9,10.1,2c0,0.7-0.5,0.9-2.8,1.6v3.5h3.6c1.5-1.9,2-2.5,3.7-4.4c2.7,2,3.5,2.7,6,4.8c0.2,0.2,0.4,0.5,0.4,0.6
		c0,0.3-0.4,0.5-0.7,0.5H685v6.4h4.7c1.6-2,2.1-2.5,3.7-4.4c2.8,2,3.6,2.7,6.2,4.8c0.1,0.2,0.4,0.5,0.4,0.6c0,0.3-0.4,0.5-0.7,0.5
		h-11.9c6,2.2,7,2.6,7,3.2c0,0.7-0.5,0.8-2.5,1c-2.5,2.4-3.8,3.5-6.2,5.6h5.1c1.5-1.9,2-2.4,3.6-4.2c2.7,2,3.5,2.6,6,4.6
		c0.2,0.2,0.4,0.5,0.4,0.6c0,0.3-0.3,0.5-0.7,0.5h-15v7.1h2.9c1.5-1.8,2-2.4,3.5-4.1c2.6,2,3.4,2.5,5.9,4.6c0.1,0.2,0.3,0.5,0.3,0.6
		c0,0.3-0.3,0.5-0.7,0.5H685v0.5c0,1.4,0,1.5,0.1,4.4c0.1,1.5,0.1,1.5,0.1,2.9c-0.1,1.6-0.7,1.8-6,1.8c-1.2,0-1.4-0.3-1.4-1.4
		c0-1.5,0-1.5,0.1-3.9c0.1-2.3,0.1-2.6,0.1-3.8v-0.5h-6.8c-2.2,0-2.8,0.1-4.5,0.4l-0.5-2.5c2,0.5,2.8,0.6,5,0.6h6.8v-7.1h-8.6
		c-2.3,0-3,0.1-4.6,0.4l-0.5-2.5c2,0.5,2.9,0.6,5.2,0.6h4.4c-0.3-0.6-0.4-0.9-0.7-3.1c-0.5-3.1-0.8-4-2.1-6l0.6-0.4
		c4.9,1.6,7.8,3.7,7.8,5.8c0,1.2-0.8,2.5-2.1,3.7h5.5c1.7-3.6,3.3-7.7,3.6-9.8h-16.7c-2.3,0-3,0.1-4.6,0.4l-0.6-2.5
		c2.2,0.5,3,0.6,5.2,0.6h8.4V11.4z M712.3,17.5c-0.7,5.2-1.2,7.8-2.6,11.5c4.3,2.9,6.2,5.4,6.2,8.4c0,2.5-1.5,4.9-3,4.9
		c-0.9,0-1.5-0.5-2-1.7c-1.9-3.9-2.3-4.6-3.6-6.6c-2.8,4.6-7.7,9.1-12.7,11.5c9.4,0.9,9.7,0.9,9.7,2.2c0,0.7-0.6,1.1-3.2,1.8v3.6
		h10.5c2.3-2.5,2.9-3.3,5.2-5.7c3.8,2.6,4.9,3.4,8.6,6.2c0.2,0.2,0.4,0.5,0.4,0.6c0,0.3-0.4,0.5-0.7,0.5h-24v10.1h15.8
		c2.3-2.8,3.1-3.7,5.6-6.4c4,2.9,5.2,3.8,9,6.8c0.1,0.2,0.4,0.5,0.4,0.6c0,0.3-0.4,0.5-0.7,0.5h-59.1c-3.2,0-4.1,0.1-6.2,0.4
		l-0.5-2.6c2.5,0.6,3.6,0.7,6.7,0.7h21V54.6H678c-3,0-3.8,0.1-5.8,0.4l-0.5-2.5c2.5,0.6,3.4,0.7,6.3,0.7h14.9v-1.2
		c0-2.3-0.1-4.2-0.4-5.5c-0.9,0.4-1.2,0.5-2.4,1l-0.4-0.7c5.9-4.3,8.6-7.3,11.2-12.1c0.9-1.8,1.6-3.3,2.3-5.9
		c-1.3-1.5-2.2-2.4-4.9-4.8l0.4-0.5c2.5,1.2,3.3,1.5,5.2,2.4c0.6-2.8,0.8-4.2,1.2-8.3h-2c-1.8,0-2.5,0.1-3.9,0.3l-0.6-2.3
		c1.8,0.4,2.7,0.5,4.4,0.5h2.1c0.1-2.8,0.2-4.5,0.2-7.2c0-2.4-0.1-3.3-0.4-6.1c7,0.7,9.5,0.9,10.1,1.4c0.1,0.1,0.4,0.4,0.4,0.7
		c0,0.7-0.5,0.9-2.8,1.6c-0.1,6.6-0.1,6.6-0.3,9.6h3.8c1.4-1.6,1.8-2.1,3.5-3.8c2.2,1.4,2.8,1.9,4.8,3.3c0.9,0.6,1.3,1,1.3,1.6
		c0,0.7-0.1,0.7-2.3,1.9c-0.1,2.2-0.1,3.1-0.1,4.3c0,3.2,0.2,6.2,0.8,8.9c0.7,3.7,1.2,5,2.1,6.3c2-4.5,2.5-5.9,4-9.7l0.8,0.4
		l-1.4,10c-0.1,0.4-0.1,0.8-0.1,1.2c0,1,0.1,1.3,1.2,3.1c0.6,0.9,0.9,1.7,0.9,2.6c0,2.2-1.3,3.6-3.5,3.6c-3.5,0-7.6-5.5-9.7-13.1
		c-1.4-4.8-2-10.1-2-19H712.3z"/>
</g>
</svg>
