<?xml version="1.0" standalone="no"?>
<!DOCTYPE svg PUBLIC "-//W3C//DTD SVG 1.1//EN" "http://www.w3.org/Graphics/SVG/1.1/DTD/svg11.dtd" >
<svg xmlns="http://www.w3.org/2000/svg">
<metadata>
Copyright (c) 2014 by Fontsmith Ltd. All rights reserved.
</metadata>
<defs>
<font id="GFFoundersWebScript" horiz-adv-x="264" >
  <font-face 
    font-family="GF Founders Web Script"
    font-weight="400"
    font-style="italic"
    font-stretch="normal"
    units-per-em="1000"
    panose-1="2 0 5 6 5 0 0 9 0 4"
    ascent="750"
    descent="-250"
    x-height="485"
    cap-height="633"
    bbox="-110 -247 1322 960"
    underline-thickness="20"
    underline-position="-113"
    slope="-12"
    unicode-range="U+000D-FB06"
  />
<missing-glyph horiz-adv-x="652" 
d="M97 633h454v-633h-454v633zM469 581h-290l146 -219zM499 102v430l-144 -215zM469 53l-144 218l-146 -218h290zM150 102l143 215q-38 56 -71.5 107t-71.5 108v-430z" />
    <glyph glyph-name="fi" unicode="fi" horiz-adv-x="546" 
d="M93 -60q-14 -72 -48.5 -104t-95.5 -32q-15 0 -31.5 2t-27.5 6v45q11 -2 26 -3.5t26 -1.5q40 0 59 21.5t30 75.5l100 486h-68l11 50h67l14 61q8 35 17.5 57.5t23.5 40.5q21 27 51 39.5t72 12.5q23 0 44.5 -5t33.5 -10l-9 -46q-14 5 -30 7.5t-35 2.5q-29 0 -45.5 -7
t-27.5 -20q-10 -12 -18 -31t-16 -54l-11 -48h207q36 0 55 -14q17 -13 17 -42q0 -12 -4.5 -34t-8.5 -40l-49 -232q-5 -21 -8.5 -37.5t-3.5 -24.5q0 -20 20 -20q22 0 47 17l-11 -50q-11 -8 -26 -12.5t-29 -4.5q-32 0 -48.5 16.5t-16.5 42.5q0 12 4.5 33t9.5 47l48 225
q5 20 8 35t3 23q0 22 -24 22h-201zM445 569l22 102q13 5 37 4t38 -8l-44 -98h-53z" />
    <glyph glyph-name="fl" unicode="fl" horiz-adv-x="539" 
d="M326 485l-11 -50h-121l-101 -495q-14 -72 -48.5 -104t-95.5 -32q-15 0 -31.5 2t-27.5 6v45q11 -2 26 -3.5t26 -1.5q40 0 59 21.5t30 75.5l100 486h-68l11 50h67l12 53q9 40 25 68.5t43 48.5q25 18 61.5 29.5t94.5 11.5q46 0 75.5 -5.5t43.5 -12.5t20 -17.5t6 -23.5
q0 -11 -4.5 -32.5t-10.5 -48.5l-92 -433q-5 -21 -8.5 -37.5t-3.5 -24.5q0 -20 20 -20q22 0 47 17l-11 -50q-11 -8 -26 -12.5t-29 -4.5q-32 0 -48.5 16.5t-16.5 42.5q0 12 4.5 33t9.5 47l91 426q6 27 9.5 44.5t3.5 26.5q0 10 -16 13q-11 2 -27 3.5t-41 1.5q-40 0 -66.5 -7.5
t-45.5 -21.5q-19 -16 -28.5 -36.5t-16.5 -49.5l-11 -45h121z" />
    <glyph glyph-name="f_f" unicode="ff" horiz-adv-x="592" 
d="M194 435l-101 -495q-14 -72 -48.5 -104t-95.5 -32q-15 0 -31.5 2t-27.5 6v45q11 -2 26 -3.5t26 -1.5q40 0 59 21.5t30 75.5l100 486h-68l11 50h67l10 47q8 35 17.5 57.5t23.5 40.5q21 27 51 39.5t72 12.5q23 0 44.5 -5t33.5 -10l-9 -46q-14 5 -30 7.5t-35 2.5
q-29 0 -45.5 -7t-27.5 -20q-10 -12 -18 -31t-16 -54l-7 -34h230l14 61q8 35 17.5 57.5t23.5 40.5q21 27 51 39.5t72 12.5q23 0 44.5 -5t33.5 -10l-9 -46q-14 5 -30 7.5t-35 2.5q-29 0 -45.5 -7t-27.5 -20q-10 -12 -18 -31t-16 -54l-11 -48h121l-11 -50h-121l-92 -451
q-14 -72 -48.5 -104t-95.5 -32q-15 0 -31.5 2t-27.5 6v45q11 -2 26 -3.5t26 -1.5q40 0 59 21.5t30 75.5l91 442h-231z" />
    <glyph glyph-name="f_f_i" unicode="ffi" horiz-adv-x="840" 
d="M396 -16q-14 -72 -48.5 -104t-95.5 -32q-15 0 -31.5 2t-27.5 6v45q11 -2 26 -3.5t26 -1.5q40 0 59 21.5t30 75.5l91 442h-231l-101 -495q-14 -72 -48.5 -104t-95.5 -32q-15 0 -31.5 2t-27.5 6v45q11 -2 26 -3.5t26 -1.5q40 0 59 21.5t30 75.5l100 486h-68l11 50h67l10 47
q8 35 17.5 57.5t23.5 40.5q21 27 51 39.5t72 12.5q23 0 44.5 -5t33.5 -10l-9 -46q-14 5 -30 7.5t-35 2.5q-29 0 -45.5 -7t-27.5 -20q-10 -12 -18 -31t-16 -54l-7 -34h230l14 61q8 35 17.5 57.5t23.5 40.5q21 27 51 39.5t72 12.5q23 0 44.5 -5t33.5 -10l-9 -46q-14 5 -30 7.5
t-35 2.5q-29 0 -45.5 -7t-27.5 -20q-10 -12 -18 -31t-16 -54l-11 -48h207q36 0 55 -14q17 -13 17 -42q0 -12 -4.5 -34t-8.5 -40l-49 -232q-5 -21 -8.5 -37.5t-3.5 -24.5q0 -20 20 -20q22 0 47 17l-11 -50q-11 -8 -26 -12.5t-29 -4.5q-32 0 -48.5 16.5t-16.5 42.5
q0 12 4.5 33t9.5 47l48 225q5 20 8 35t3 23q0 22 -24 22h-201zM739 569l22 102q13 5 37 4t38 -8l-44 -98h-53z" />
    <glyph glyph-name="f_f_l" unicode="ffl" horiz-adv-x="833" 
d="M435 485q9 37 9 60q0 40 -20.5 62t-74.5 22q-111 0 -138 -118l-6 -26h230zM671 696q46 0 75.5 -5.5t43.5 -12.5t20 -17.5t6 -23.5q0 -11 -4.5 -32.5t-10.5 -48.5l-92 -433q-5 -21 -8.5 -37.5t-3.5 -24.5q0 -20 20 -20q22 0 47 17l-11 -50q-11 -8 -26 -12.5t-29 -4.5
q-32 0 -48.5 16.5t-16.5 42.5q0 12 4.5 33t9.5 47l91 426q6 27 9.5 44.5t3.5 26.5q0 10 -16 13q-11 2 -27 3.5t-41 1.5q-40 0 -65 -6.5t-44 -20.5q-19 -16 -29.5 -36t-18.5 -52l-11 -45h121l-11 -50h-121l-92 -451q-14 -72 -48.5 -104t-95.5 -32q-15 0 -31.5 2t-27.5 6v45
q11 -2 26 -3.5t26 -1.5q40 0 59 21.5t30 75.5l91 442h-231l-101 -495q-14 -72 -48.5 -104t-95.5 -32q-15 0 -31.5 2t-27.5 6v45q11 -2 26 -3.5t26 -1.5q40 0 59 21.5t30 75.5l100 486h-68l11 50h67l9 41q8 35 23 62t36 45q26 22 61 34t79 12q58 0 92 -20.5t45 -50.5
q23 42 69 65t116 23z" />
    <glyph glyph-name="T_h" unicode="Th" horiz-adv-x="970" 
d="M564 675q51 0 70 -10.5t19 -30.5q0 -12 -6 -42t-13 -59l-25 -114q24 29 63 52t96 23t96 -31.5t39 -91.5q0 -24 -3.5 -44.5t-9.5 -49.5l-37 -174q-5 -21 -6.5 -31t-1.5 -14q0 -17 20 -17q9 0 21.5 4.5t25.5 12.5l-11 -50q-10 -8 -26.5 -12.5t-30.5 -4.5q-32 0 -47.5 16
t-15.5 39q0 11 2 24t7 36l37 172q6 26 9.5 46.5t3.5 37.5q0 35 -20.5 56.5t-62.5 21.5q-41 0 -73.5 -16.5t-52.5 -40.5q-20 -25 -33 -55.5t-23 -77.5l-54 -250h-63l118 551q5 22 8 38.5t3 21.5q0 8 -7 10q-5 2 -14.5 2.5t-20.5 0.5h-221l-133 -624h-68l133 624h-65
q-53 0 -85 -12t-56 -30l14 60q20 15 54 24t91 9h355z" />
    <glyph glyph-name="W_h" unicode="Wh" horiz-adv-x="1380" 
d="M746 475l42 98t45 71q24 26 56 39t80 13q44 0 70.5 -11t26.5 -34q0 -10 -6 -40t-13 -61l-28 -131q24 29 63 52t96 23t96 -31.5t39 -91.5q0 -24 -4 -46t-9 -48l-37 -174q-5 -21 -6.5 -31t-1.5 -14q0 -17 20 -17q9 0 21.5 4.5t25.5 12.5l-11 -50q-10 -8 -26.5 -12.5
t-30.5 -4.5q-32 0 -47.5 16t-15.5 39q0 11 2 24t7 36l37 172q6 26 9.5 46.5t3.5 37.5q0 35 -20.5 56.5t-62.5 21.5q-41 0 -73.5 -16.5t-52.5 -40.5q-20 -25 -33 -55.5t-23 -77.5l-54 -250h-63l116 543q7 32 12 57.5t5 32.5q0 6 -10 9q-11 3 -28 3q-29 0 -48.5 -8.5
t-34.5 -24.5q-21 -22 -40.5 -63t-40.5 -90q-12 -27 -29 -65.5t-38 -83t-44.5 -90.5t-47.5 -88t-46.5 -77t-41.5 -55h-56l-34 479q-25 -66 -57.5 -138t-66.5 -137.5t-66.5 -119t-57.5 -84.5h-56l-42 556q-2 17 -9.5 23.5t-18.5 6.5t-23.5 -2.5t-24.5 -6.5l10 50
q16 5 31.5 6.5t29.5 1.5q33 0 50.5 -16t20.5 -55l32 -476q61 103 121.5 237t123.5 308h53l40 -546q62 103 110 203t84 185z" />
    <glyph glyph-name=".notdef" horiz-adv-x="652" 
d="M97 633h454v-633h-454v633zM469 581h-290l146 -219zM499 102v430l-144 -215zM469 53l-144 218l-146 -218h290zM150 102l143 215q-38 56 -71.5 107t-71.5 108v-430z" />
    <glyph glyph-name=".null" horiz-adv-x="0" 
 />
    <glyph glyph-name=".null" horiz-adv-x="0" 
 />
    <glyph glyph-name="nonmarkingreturn" unicode="&#xd;" horiz-adv-x="232" 
 />
    <glyph glyph-name="space" unicode=" " horiz-adv-x="232" 
 />
    <glyph glyph-name="nonbreakingspace" unicode="&#xa0;" horiz-adv-x="232" 
 />
    <glyph glyph-name="A" unicode="A" horiz-adv-x="528" 
d="M204 623q16 5 36.5 8.5t39.5 3.5q47 0 72 -25q13 -14 20 -34t13 -56l81 -520h-69l-21 151h-262l-83 -151h-65l299 545q6 11 9 17t3 12q0 10 -18 10q-25 0 -64 -11zM369 201l-47 333l-181 -333h228z" />
    <glyph glyph-name="B" unicode="B" horiz-adv-x="566" 
d="M360 633q45 0 78.5 -7t57.5 -27q40 -32 40 -96q0 -61 -34 -106.5t-88 -64.5q95 -29 95 -126q0 -38 -13.5 -75t-42.5 -64q-35 -35 -85.5 -51t-128.5 -16h-181l125 582q-27 0 -47 -3.5t-35 -9t-27 -13t-24 -15.5l14 60q20 16 51 24t87 8h158zM439 208q0 23 -8 40.5
t-22 28.5q-35 27 -106 27h-111l-55 -253h89q53 0 91.5 7.5t64.5 27.5q30 23 43.5 54.5t13.5 67.5zM471 499q0 49 -31.5 66t-87.5 17h-101q-13 -57 -24.5 -113t-24.5 -114h91q83 0 130.5 37.5t47.5 106.5z" />
    <glyph glyph-name="C" unicode="C" horiz-adv-x="551" 
d="M557 473h-61q0 58 -29 87.5t-81 29.5q-67 0 -117 -40t-83 -99t-49 -125.5t-16 -120.5q0 -84 37 -122t109 -38q51 0 97.5 16t86.5 44l-14 -65q-38 -23 -84.5 -36t-92.5 -13q-104 0 -156.5 52t-52.5 155q0 74 22 153t65 143.5t106.5 106t146.5 41.5q77 0 121.5 -41
t44.5 -119v-9z" />
    <glyph glyph-name="D" unicode="D" horiz-adv-x="618" 
d="M300 633q62 0 116.5 -7.5t94.5 -30t63 -64.5t23 -110q0 -47 -9.5 -100.5t-29.5 -104.5t-51 -95t-73 -71q-45 -28 -100 -39t-118 -11h-158l124 582q-27 0 -46.5 -3.5t-34.5 -9t-27 -13t-24 -15.5l14 60q21 17 52.5 24.5t92.5 7.5h91zM526 420q0 44 -13 75t-36 48
q-28 21 -69.5 30t-107.5 9h-50l-113 -531h73q61 0 109.5 11t83.5 38q32 24 55.5 63.5t38.5 84.5t22 90.5t7 81.5z" />
    <glyph glyph-name="E" unicode="E" horiz-adv-x="518" 
d="M540 633l-11 -51h-279l-50 -235h228l-12 -51h-227l-52 -245h301l-10 -51h-370l124 582q-27 0 -46.5 -3.5t-34.5 -9t-27 -13t-24 -15.5l14 60q20 15 52 23.5t93 8.5h331z" />
    <glyph glyph-name="F" unicode="F" horiz-adv-x="500" 
d="M540 633l-11 -51h-279l-50 -235h228l-12 -51h-227l-63 -296h-68l124 582q-27 0 -46.5 -3.5t-34.5 -9t-27 -13t-24 -15.5l14 60q20 16 52 24t93 8h331z" />
    <glyph glyph-name="G" unicode="G" horiz-adv-x="562" 
d="M554 471h-61q0 57 -29 87.5t-81 30.5q-43 0 -79.5 -18t-62.5 -46q-29 -30 -51.5 -69.5t-37.5 -83t-23 -88.5t-8 -86q0 -71 32 -112.5t109 -41.5q38 0 75.5 13t62.5 32l29 136h-90l9 47h156l-58 -272h-49l1 37q-28 -19 -68 -32.5t-83 -13.5q-99 0 -147.5 54.5t-48.5 149.5
q0 47 9 97t27 98.5t44.5 92t61.5 78.5q37 35 86 58t109 23q35 0 65 -10t52.5 -30.5t35.5 -50.5t13 -70v-10z" />
    <glyph glyph-name="H" unicode="H" horiz-adv-x="601" 
d="M147 514q4 17 6.5 31t2.5 22q0 17 -25 17q-11 0 -27 -3.5t-33 -8.5l12 51q14 5 32.5 9t36.5 4q38 0 55.5 -13.5t17.5 -41.5q0 -10 -3 -29.5t-7 -37.5l-36 -170h295l61 289h68l-134 -633h-68l61 288h-295l-61 -288h-68z" />
    <glyph glyph-name="I" unicode="I" horiz-adv-x="275" 
d="M-5 46h67l115 541h-66l8 46h202l-9 -46h-67l-115 -541q32 2 52.5 6t33.5 12l-12 -53q-19 -6 -48 -8.5t-80 -2.5h-90z" />
    <glyph glyph-name="J" unicode="J" horiz-adv-x="374" 
d="M278 177q-9 -42 -23.5 -76.5t-34.5 -56.5q-23 -26 -56.5 -39.5t-75.5 -13.5q-29 0 -59 6.5t-49 17.5l11 51q22 -11 45 -17.5t46 -6.5q30 0 51 8.5t35.5 25t24 42t17.5 60.5l86 404h-41q-29 0 -50.5 -3t-37.5 -8.5t-28.5 -13t-24.5 -16.5l14 60q20 16 52 24t93 8h101z" />
    <glyph glyph-name="K" unicode="K" horiz-adv-x="529" 
d="M551 633l-242 -314l91 -241q8 -20 17 -28.5t26 -8.5q11 0 24.5 4.5t25.5 11.5l-11 -49q-11 -8 -26.5 -12.5t-31.5 -4.5q-35 0 -54 16.5t-31 48.5l-89 235h-86l-62 -291h-69l136 633h68l-61 -289h88l219 289h68z" />
    <glyph glyph-name="L" unicode="L" horiz-adv-x="443" 
d="M395 51l-10 -51h-352l134 633h68l-123 -582h283z" />
    <glyph glyph-name="M" unicode="M" horiz-adv-x="752" 
d="M148 517q4 18 6.5 31t2.5 20q0 17 -20 17q-13 0 -29.5 -3t-30.5 -8l10 51q15 5 33 7.5t34 2.5q45 0 68 -23q11 -11 18.5 -31t12.5 -45l79 -365q5 -26 9 -46.5t6 -42.5q13 24 26 47.5t30 51.5l277 452h67l-134 -633h-64l107 494q-15 -27 -32.5 -57t-31.5 -53l-237 -384
h-51l-76 356q-8 35 -14 69t-13 69q-6 -41 -12 -73t-13 -65l-76 -356h-62z" />
    <glyph glyph-name="N" unicode="N" horiz-adv-x="625" 
d="M621 633l-134 -633h-49l-193 430q-11 25 -21 48.5t-18 43.5q-5 -32 -10.5 -59.5t-11.5 -56.5l-86 -406h-60l108 512q4 18 6.5 31.5t2.5 20.5q0 8 -4 14.5t-15 6.5q-12 0 -29 -3t-31 -8l11 51q15 5 32.5 7.5t33.5 2.5q19 0 33.5 -3.5t26.5 -13t22.5 -26t22.5 -41.5
l151 -332q14 -30 23.5 -55t17.5 -48l110 517h61z" />
    <glyph glyph-name="O" unicode="O" horiz-adv-x="587" 
d="M566 438q0 -46 -9.5 -96.5t-28 -100t-46 -95t-64 -80t-81 -55t-97.5 -20.5q-97 0 -143 56.5t-46 149.5q0 48 9.5 100t28 101.5t46.5 93.5t64.5 77.5t81.5 53t99 19.5q48 0 83 -15t58 -42t34 -64.5t11 -82.5zM496 435q0 30 -6 57.5t-20.5 49t-37 34.5t-55.5 13
q-43 0 -79 -19t-64.5 -50t-49.5 -72t-35 -84t-21 -86t-7 -79q0 -69 29.5 -112t92.5 -43q43 0 78.5 19t64 51t49 73t34.5 84t20.5 86t6.5 78z" />
    <glyph glyph-name="P" unicode="P" horiz-adv-x="556" 
d="M353 633q60 0 99 -9.5t67 -32.5q47 -40 47 -116q0 -51 -20 -95.5t-51 -73.5q-37 -35 -92 -53t-127 -18h-100l-50 -235h-68l124 582q-27 0 -46.5 -3.5t-34.5 -9t-27 -13t-24 -15.5l14 60q20 15 52 23.5t93 8.5h144zM497 471q0 33 -10.5 54.5t-30 34t-46 17.5t-59.5 5h-101
l-62 -296h90q60 0 97 12.5t63 35.5q30 26 44.5 63t14.5 74z" />
    <glyph glyph-name="Q" unicode="Q" horiz-adv-x="587" 
d="M566 438q0 -46 -9.5 -96.5t-28 -100t-46.5 -95t-64.5 -80t-81.5 -55t-98 -20.5q-13 -11 -21.5 -26t-8.5 -30q0 -26 17 -36t40 -10q20 0 41.5 6.5t42.5 17t41 24.5t38 29l-12 -60q-12 -12 -31 -24t-41 -21t-45 -14.5t-44 -5.5q-22 0 -42 5.5t-35 16.5t-23.5 27.5
t-8.5 39.5q0 18 8 36.5t23 32.5q-65 17 -95.5 69t-30.5 129q0 48 9.5 100t28 101.5t46.5 93.5t64.5 77.5t81.5 53t99 19.5q48 0 83 -15t58 -42t34 -64.5t11 -82.5zM496 435q0 30 -6 57.5t-20.5 49t-37 34.5t-55.5 13q-43 0 -79 -19t-64.5 -50t-49.5 -72t-35 -84t-21 -86
t-7 -79q0 -69 29.5 -112t92.5 -43q43 0 78.5 19t64 51t49 73t34.5 84t20.5 86t6.5 78z" />
    <glyph glyph-name="R" unicode="R" horiz-adv-x="589" 
d="M348 633q58 0 97 -8t68 -29q50 -38 50 -114q0 -50 -18.5 -92t-50.5 -71q-23 -20 -56 -35t-71 -22l69 -184q8 -21 17 -29t26 -8q11 0 25 5t25 11l-11 -49q-11 -8 -27 -12.5t-31 -4.5q-33 0 -52 13.5t-33 51.5l-74 198q-6 -1 -15 -1h-18h-87l-55 -253h-68l124 582
q-27 0 -46.5 -3.5t-34.5 -9t-27 -13t-24 -15.5l14 60q21 15 52.5 23.5t92.5 8.5h139zM494 482q0 57 -38.5 78.5t-107.5 21.5h-97l-59 -278h90q99 0 151 39q30 22 45.5 58t15.5 81z" />
    <glyph glyph-name="S" unicode="S" horiz-adv-x="459" 
d="M441 568q-29 11 -59.5 16.5t-58.5 5.5q-31 0 -59.5 -7t-51 -21.5t-36 -37.5t-13.5 -56q0 -23 8.5 -40t23 -31t34.5 -26t43 -24q25 -14 48.5 -28.5t42.5 -33t30.5 -43.5t11.5 -58q0 -50 -22 -86.5t-56.5 -60t-78 -35t-86.5 -11.5q-36 0 -79.5 10.5t-75.5 31.5l11 55
q32 -23 70.5 -34t73.5 -11q34 0 66 8t57 24.5t39.5 42.5t14.5 62q0 23 -9 40.5t-24.5 31t-35 25t-40.5 22.5q-24 13 -48 27.5t-43 33t-30.5 43.5t-11.5 58q0 45 19.5 79t51.5 56.5t73 34t83 11.5q32 0 65.5 -6.5t62.5 -17.5z" />
    <glyph glyph-name="T" unicode="T" horiz-adv-x="469" 
d="M256 582h-65q-53 0 -85 -12t-56 -30l14 60q20 15 54 24t91 9h310l-11 -51h-184l-124 -582h-68z" />
    <glyph glyph-name="U" unicode="U" horiz-adv-x="606" 
d="M152 231q-9 -41 -9 -74q0 -29 9 -50.5t26 -36.5q32 -29 93 -29q40 0 68 11.5t50 34.5q23 23 36 58t23 82l87 406h69l-82 -386q-14 -64 -30.5 -108.5t-45.5 -76.5t-74 -51.5t-108 -19.5q-88 0 -140 43q-23 20 -35.5 49.5t-12.5 71.5q0 17 4 45.5t10 57.5l52 243
q5 20 8.5 37.5t3.5 26.5q0 19 -24 19q-11 0 -27.5 -3.5t-33.5 -8.5l12 51q14 5 33 9t36 4q71 0 71 -62q0 -20 -10 -67z" />
    <glyph glyph-name="V" unicode="V" horiz-adv-x="526" 
d="M108 556q-2 17 -9 23.5t-18 6.5q-9 0 -21.5 -2.5t-26.5 -6.5l9 50q27 8 61 8q33 0 50 -15t21 -56l42 -476q35 53 75.5 123t79.5 144.5t73 147t56 130.5h66q-15 -44 -40.5 -100.5t-56.5 -118t-65.5 -123.5t-68.5 -118t-64.5 -101t-53.5 -72h-57z" />
    <glyph glyph-name="W" unicode="W" horiz-adv-x="859" 
d="M214 88q61 103 121.5 237t123.5 308h53l40 -546q35 55 73.5 125t75.5 144.5t69 146.5t54 130h65q-15 -43 -40 -100.5t-55 -120t-64 -126t-66.5 -119.5t-62 -100t-51.5 -67h-54l-34 479q-25 -66 -57.5 -138t-66.5 -137.5t-66.5 -119t-57.5 -84.5h-56l-42 556
q-2 17 -9.5 23.5t-18.5 6.5t-23.5 -2.5t-24.5 -6.5l10 50q16 5 31.5 6.5t29.5 1.5q33 0 50.5 -16t20.5 -55z" />
    <glyph glyph-name="X" unicode="X" horiz-adv-x="504" 
d="M469 633h71l-237 -309l79 -246q7 -20 14 -28.5t24 -8.5q11 0 24.5 4.5t26.5 11.5l-13 -49q-11 -8 -27 -12.5t-30 -4.5q-35 0 -52.5 15t-28.5 50l-69 209l-203 -265h-72l257 326l-73 220q-8 25 -17.5 32.5t-26.5 7.5q-9 0 -20.5 -2t-22.5 -5l12 47q10 4 25 6.5t33 2.5
q32 0 51 -14t32 -53l58 -182z" />
    <glyph glyph-name="Y" unicode="Y" horiz-adv-x="502" 
d="M154 0l48 227l-88 324q-5 20 -14 27.5t-23 7.5q-16 0 -38 -6l11 49q11 3 25.5 4.5t28.5 1.5q33 0 49 -14.5t27 -55.5l73 -279q30 34 66 83t69.5 98.5t60.5 94t38 71.5h65q-12 -26 -32 -61t-45 -74t-53 -79t-55.5 -76.5t-52.5 -67t-44 -49.5l-48 -226h-68z" />
    <glyph glyph-name="Z" unicode="Z" horiz-adv-x="471" 
d="M493 633q-2 -17 -10.5 -34t-29.5 -45l-380 -503h192q62 0 94 10.5t48 21.5l-14 -62q-26 -11 -57.5 -16t-70.5 -5h-281q2 19 11 36.5t24 37.5l383 508h-294l11 51h374z" />
    <glyph glyph-name="a" unicode="a" horiz-adv-x="521" 
d="M481 487l-76 -365q-5 -26 -8 -40.5t-3 -19.5q0 -17 19 -17q9 0 22 4.5t26 12.5l-11 -50q-11 -8 -28 -12.5t-31 -4.5q-61 0 -61 49q0 5 0.5 10t2.5 13q-25 -33 -59.5 -54.5t-81.5 -21.5q-72 0 -114 45t-42 123q0 64 24.5 124.5t66.5 107t98.5 75t120.5 28.5q24 0 49 -6
t44 -14zM406 433q-11 5 -26 8.5t-31 3.5q-56 0 -101.5 -26.5t-78 -68t-50.5 -91.5t-18 -96q0 -57 25.5 -89t73.5 -32q32 0 59 15.5t47 38.5q10 12 19 27t17 35t15.5 46.5t14.5 61.5z" />
    <glyph glyph-name="b" unicode="b" horiz-adv-x="510" 
d="M101 59q13 -8 39.5 -13.5t50.5 -5.5q51 0 91.5 23.5t68.5 63t43 91t15 107.5q0 57 -25.5 87t-66.5 30q-32 0 -59.5 -13.5t-46.5 -33.5q-25 -26 -42 -63.5t-29 -93.5zM178 420q26 32 62.5 53t85.5 21q66 0 105 -41q43 -46 43 -122q0 -64 -19 -125t-55 -109t-89 -77
t-121 -29q-44 0 -85.5 12t-71.5 31l113 531q9 39 9 54q0 11 -6.5 15.5t-16.5 4.5q-14 0 -27 -3t-25 -8l11 49q30 11 62 11q33 0 49 -13q17 -14 17 -43q0 -11 -2.5 -29t-7.5 -38z" />
    <glyph glyph-name="c" unicode="c" horiz-adv-x="460" 
d="M389 355q0 41 -20 64.5t-63 23.5q-48 0 -85.5 -25.5t-63.5 -65.5t-40 -89t-14 -95q0 -62 27 -90q15 -17 39.5 -26t53.5 -9q45 0 86.5 16.5t71.5 36.5l-13 -62q-26 -17 -66 -30t-89 -13q-83 0 -129 44.5t-46 129.5q0 55 18 113t53 106t86 79t116 31q63 0 100 -33.5
t37 -105.5h-59z" />
    <glyph glyph-name="d" unicode="d" horiz-adv-x="527" 
d="M413 433q-11 5 -27.5 8.5t-35.5 3.5q-55 0 -100.5 -26.5t-78.5 -68t-51.5 -91.5t-18.5 -97q0 -58 27.5 -89t74.5 -31q32 0 60.5 14t49.5 40q23 26 38 66.5t28 103.5zM410 683q11 3 23 4t20 1q29 0 45.5 -12.5t16.5 -41.5q0 -6 -2 -23.5t-7 -37.5l-96 -460
q-4 -18 -6.5 -31t-2.5 -20q0 -17 19 -17q9 0 22 4.5t26 12.5l-11 -50q-11 -8 -28.5 -12.5t-31.5 -4.5q-30 0 -45 13.5t-15 36.5q0 10 3 22q-26 -35 -62 -55.5t-87 -20.5q-76 0 -115.5 47t-39.5 125q0 61 24.5 120.5t67 106.5t99 75.5t120.5 28.5q23 0 43 -3.5t34 -8.5l17 79
q4 17 7 34t3 25q0 23 -22 23q-13 0 -31 -3z" />
    <glyph glyph-name="e" unicode="e" horiz-adv-x="473" 
d="M454 377q0 -36 -16 -69.5t-47 -59t-76 -40.5t-103 -15q-26 0 -55.5 4.5t-52.5 12.5q-3 -17 -3 -41q0 -60 30.5 -93t90.5 -33q46 0 87 15.5t75 37.5l-12 -60q-32 -21 -74 -33t-86 -12q-83 0 -129.5 44t-46.5 128q0 34 7.5 69t21 68t33 62.5t43.5 53.5q34 34 82 56t98 22
q60 0 96.5 -30t36.5 -87zM390 373q0 32 -19.5 51t-55.5 19q-25 0 -50 -9t-46 -24q-37 -26 -64 -67.5t-40 -87.5q22 -6 48.5 -10t47.5 -4q81 0 130 36t49 96z" />
    <glyph glyph-name="f" unicode="f" horiz-adv-x="298" 
d="M-110 -143q11 -2 26 -3.5t26 -1.5q40 0 59 21.5t30 75.5l100 486h-68l11 50h67l14 61q8 35 17.5 57.5t23.5 40.5q21 27 51 39.5t72 12.5q23 0 44.5 -5t33.5 -10l-9 -46q-14 5 -30 7.5t-35 2.5q-29 0 -45.5 -7t-27.5 -20q-10 -12 -18 -31t-16 -54l-11 -48h121l-11 -50
h-121l-101 -495q-14 -72 -48.5 -104t-95.5 -32q-15 0 -31.5 2t-27.5 6v45z" />
    <glyph glyph-name="g" unicode="g" horiz-adv-x="523" 
d="M497 487l-98 -464q-11 -54 -27 -92t-39 -65q-28 -32 -75 -55t-106 -23q-78 0 -122.5 32t-44.5 88q0 90 134 117q-33 15 -51.5 51.5t-18.5 81.5q0 64 24.5 125t67 107.5t100 75t123.5 28.5q28 0 53.5 -6.5t39.5 -14.5zM423 434q-8 5 -22.5 8t-34.5 3q-59 0 -105.5 -26
t-79 -66.5t-50 -91t-17.5 -99.5q0 -52 25 -82.5t73 -30.5q32 0 63 15t51 40q20 26 34 61t26 92zM347 68q-26 -31 -65 -48t-92 -24q-69 -9 -107 -26t-38 -57q0 -35 30.5 -54.5t75.5 -19.5t76.5 13.5t51.5 35.5q22 23 34.5 54.5t21.5 71.5z" />
    <glyph glyph-name="h" unicode="h" horiz-adv-x="546" 
d="M185 419q24 29 63 52t96 23t96 -31.5t39 -91.5q0 -24 -3.5 -44.5t-9.5 -49.5l-37 -174q-5 -21 -6.5 -31t-1.5 -14q0 -17 20 -17q9 0 21.5 4.5t25.5 12.5l-11 -50q-10 -8 -26.5 -12.5t-30.5 -4.5q-32 0 -47.5 16t-15.5 39q0 11 2 24t7 36l37 172q6 26 9.5 46.5t3.5 37.5
q0 35 -20.5 56.5t-62.5 21.5q-41 0 -73.5 -16.5t-52.5 -40.5q-20 -25 -33 -55.5t-23 -77.5l-54 -250h-63l112 530q8 34 12.5 55.5t4.5 33.5q0 20 -24 20q-13 0 -26 -3t-25 -8l11 49q30 11 63 11q36 0 51 -15q8 -8 11 -18.5t3 -21.5q0 -14 -3.5 -32.5t-8.5 -41.5z" />
    <glyph glyph-name="i" unicode="i" horiz-adv-x="250" 
d="M149 569l22 102q13 5 37 4t38 -8l-44 -98h-53zM60 477q13 5 29.5 8t30.5 3q37 0 52 -15t15 -43q0 -12 -3.5 -32.5t-7.5 -38.5l-50 -236q-5 -21 -8.5 -37.5t-3.5 -24.5q0 -20 20 -20q22 0 47 17l-11 -50q-11 -8 -26 -12.5t-29 -4.5q-32 0 -48.5 16.5t-16.5 42.5
q0 12 4.5 33t9.5 47l49 229q5 23 8 37.5t3 20.5q0 22 -24 22q-21 0 -51 -11z" />
    <glyph glyph-name="j" unicode="j" horiz-adv-x="240" 
d="M158 569l22 102q13 5 37 4t38 -8l-44 -98h-53zM117 38q-10 -45 -20 -80t-23 -61q-19 -38 -47 -64t-66 -45l-43 27q26 14 46 31.5t36 41.5t28.5 58t22.5 81l71 332q5 23 8 37.5t3 20.5q0 22 -24 22q-21 0 -51 -11l11 49q13 5 29.5 8t30.5 3q37 0 52 -15t15 -43
q0 -12 -3.5 -32.5t-7.5 -38.5z" />
    <glyph glyph-name="k" unicode="k" horiz-adv-x="529" 
d="M97 0h-63l115 543q5 26 9.5 46t4.5 29q0 21 -23 21q-10 0 -23 -2.5t-29 -8.5l11 49q30 11 63 11q36 0 51 -15q8 -8 11 -18.5t3 -23.5q0 -5 -1 -14t-3 -20l-43 -203q32 45 78 72.5t104 27.5q61 0 97 -32t36 -87q0 -33 -14 -63.5t-39.5 -54.5t-62.5 -40.5t-82 -20.5
q6 -6 12.5 -17t15.5 -29l40 -79q8 -17 15.5 -24.5t19.5 -7.5t24 5.5t23 13.5l-11 -50q-11 -8 -24 -12.5t-27 -4.5q-24 0 -40 11t-29 36l-59 116q-11 20 -24.5 30t-47.5 12l-13 43q16 -3 35 -5t39 -2q39 0 73 10.5t59 29t39 43t14 52.5q0 38 -21.5 57.5t-59.5 19.5
q-40 0 -73.5 -19t-60 -49t-44 -67.5t-25.5 -74.5z" />
    <glyph glyph-name="l" unicode="l" horiz-adv-x="247" 
d="M99 677q13 5 29.5 8t30.5 3q37 0 52 -15t15 -43q0 -12 -3.5 -32.5t-7.5 -38.5l-92 -436q-5 -21 -8.5 -37.5t-3.5 -24.5q0 -20 20 -20q22 0 47 17l-11 -50q-11 -8 -26 -12.5t-29 -4.5q-32 0 -48.5 16.5t-16.5 42.5q0 12 4.5 33t9.5 47l91 429q5 23 8 37.5t3 20.5
q0 22 -24 22q-21 0 -51 -11l11 49v0z" />
    <glyph glyph-name="m" unicode="m" horiz-adv-x="849" 
d="M187 435q0 -3 -0.5 -10t-2.5 -13q26 33 66.5 57.5t100.5 24.5q52 0 85 -24t44 -65q27 41 73 65t98 24q59 0 95.5 -30t36.5 -93q0 -20 -5 -48.5t-9 -47.5l-35 -164q-9 -39 -9 -53q0 -17 19 -17q9 0 22 4.5t25 12.5l-10 -50q-28 -17 -57 -17q-32 0 -47.5 16t-15.5 42
q0 8 2.5 25.5t7.5 40.5l36 163q6 27 9.5 48.5t3.5 39.5q0 32 -19 53t-62 21q-42 0 -72 -16.5t-50 -40.5q-23 -28 -36 -63.5t-24 -86.5l-50 -233h-63l56 261q9 41 13 64.5t4 39.5q0 33 -21.5 54t-61.5 21q-42 0 -72 -16.5t-50 -40.5q-23 -28 -35 -63.5t-23 -86.5l-50 -233
h-63l70 333q5 24 10.5 49.5t5.5 36.5q0 19 -23 19t-53 -11l10 49q31 11 62 11q17 0 29.5 -3t20.5 -11t11 -16t3 -22z" />
    <glyph glyph-name="n" unicode="n" horiz-adv-x="553" 
d="M104 0h-63l76 356q5 23 8 38t3 23q0 21 -25 21q-19 0 -52 -11l11 49q31 11 63 11q18 0 28.5 -3t19.5 -10q16 -13 16 -39q0 -5 -1 -12t-2 -12q23 31 64 57t99 26q60 0 98.5 -32t38.5 -95q0 -17 -4 -41t-10 -51l-36 -172q-5 -20 -6.5 -30t-1.5 -13q0 -19 20 -19
q9 0 21.5 4.5t25.5 12.5l-11 -50q-11 -8 -26 -12.5t-31 -4.5q-63 0 -63 59q0 9 2.5 23.5t6.5 32.5l37 172q5 23 9 46t4 37q0 37 -21.5 58t-63.5 21q-41 0 -72.5 -16.5t-51.5 -40.5q-20 -25 -33.5 -58.5t-26.5 -91.5z" />
    <glyph glyph-name="o" unicode="o" horiz-adv-x="511" 
d="M473 328q0 -35 -7 -71.5t-20 -71t-32 -66t-43 -56.5q-32 -33 -73.5 -52.5t-92.5 -19.5q-77 0 -122 44.5t-45 124.5q0 74 26 142t75 119q32 33 75.5 53t95.5 20q35 0 65 -11t51.5 -32t34 -52t12.5 -71zM408 323q0 56 -27 88t-79 32q-32 0 -60 -13.5t-50 -35.5
q-21 -21 -37.5 -48t-28 -57.5t-17.5 -62.5t-6 -63q0 -57 28.5 -89t79.5 -32q32 0 59 13.5t50 35.5q21 21 37.5 48t27.5 57.5t17 63t6 63.5z" />
    <glyph glyph-name="p" unicode="p" horiz-adv-x="514" 
d="M478 331q0 -63 -18.5 -124t-55.5 -109t-92 -77.5t-128 -29.5q-20 0 -42 3t-36 8l-43 -201h-63l125 589q-17 -9 -39.5 -24t-39.5 -28l14 66q19 14 41 26.5t37 20.5l22 104l66 16l-19 -94q18 6 45.5 11.5t53.5 5.5q80 0 124 -40q23 -20 35.5 -52t12.5 -71zM413 325
q0 60 -30 88.5t-87 28.5q-29 0 -56 -6t-44 -14l-79 -373q12 -4 32 -6.5t35 -2.5q52 0 94.5 23.5t72.5 62.5t46 90.5t16 108.5z" />
    <glyph glyph-name="q" unicode="q" horiz-adv-x="516" 
d="M490 487l-114 -543q-8 -38 -8 -57q0 -18 8 -34.5t27 -32.5l-54 -26q-22 17 -33.5 39.5t-11.5 48.5t12 79l24 106q-26 -34 -62 -55t-83 -21q-77 0 -118 46.5t-41 121.5q0 64 24.5 124.5t67 107t99.5 75t121 28.5q29 0 54.5 -5.5t45.5 -14.5zM415 433q-11 5 -27.5 8.5
t-36.5 3.5q-56 0 -102 -26.5t-79 -68t-51 -91.5t-18 -96q0 -61 28 -91t77 -30q32 0 60.5 15.5t48.5 38.5q10 12 19 26.5t17 34t15 46t15 63.5z" />
    <glyph glyph-name="r" unicode="r" horiz-adv-x="329" 
d="M189 436q0 -14 -3 -27q23 37 58 61t73 24q11 0 19 -1t13 -3l-13 -59q-7 2 -15.5 2.5t-14.5 0.5q-32 0 -55.5 -13t-42 -41t-33 -72.5t-28.5 -108.5l-43 -199h-63l80 373q8 35 8 46q0 19 -25 19q-24 0 -52 -11l11 49q30 11 65 11q33 0 47 -14q8 -8 11 -17t3 -20z" />
    <glyph glyph-name="s" unicode="s" horiz-adv-x="395" 
d="M368 423q-24 10 -52 16t-56 6q-59 0 -92 -21t-33 -58q0 -29 19.5 -47.5t64.5 -45.5q29 -17 51.5 -31t37.5 -29.5t23 -33.5t8 -43q0 -36 -16.5 -63.5t-43 -45.5t-60.5 -27t-69 -9q-41 0 -82.5 11t-69.5 28l11 52q30 -20 66.5 -31t71.5 -11q61 0 95 23t34 66q0 15 -5.5 27
t-16.5 23t-29 22.5t-42 25.5q-27 16 -48 30.5t-34.5 29.5t-20.5 32t-7 39q0 59 51 98q27 20 62.5 29t70.5 9q29 0 61.5 -5.5t58.5 -16.5z" />
    <glyph glyph-name="t" unicode="t" horiz-adv-x="328" 
d="M318 485l-10 -50h-116l-57 -270q-5 -25 -8 -41.5t-3 -28.5q0 -26 15 -39.5t42 -13.5q20 0 46 8.5t43 20.5l-11 -54q-17 -11 -42.5 -18.5t-50.5 -7.5q-49 0 -77.5 24.5t-28.5 70.5q0 12 3 30t8 43l58 276h-68l10 50h68l28 126l70 27l-34 -153h115z" />
    <glyph glyph-name="u" unicode="u" horiz-adv-x="543" 
d="M49 477q31 11 60 11q20 0 32.5 -4t20.5 -12q15 -15 15 -43q0 -16 -8 -51l-36 -171q-6 -27 -9.5 -47t-3.5 -39q0 -37 22.5 -56.5t61.5 -19.5q42 0 72 15t54 42t36.5 62t23.5 88l50 233h63l-81 -379q-7 -32 -7 -42q0 -19 20 -19q9 0 22 4.5t25 12.5l-10 -50
q-11 -8 -27.5 -12.5t-30.5 -4.5q-37 0 -51.5 20t-12.5 52q-27 -32 -66 -54t-92 -22q-57 0 -96 30.5t-39 92.5q0 20 3.5 42t10.5 54l36 173q6 25 6 35q0 21 -24 21q-20 0 -50 -11z" />
    <glyph glyph-name="v" unicode="v" horiz-adv-x="442" 
d="M193 74q25 36 54 87.5t57.5 108t52.5 113t39 102.5h62q-20 -62 -52 -132t-68.5 -137t-74 -124t-67.5 -92h-49l-60 406q-3 20 -9.5 26.5t-18.5 6.5q-18 0 -49 -11l11 49q13 5 30 8t30 3q34 0 49 -16t20 -57z" />
    <glyph glyph-name="w" unicode="w" horiz-adv-x="695" 
d="M187 82q24 37 50.5 87.5t51.5 105t46.5 109.5t35.5 101h52l45 -403q24 37 50 87.5t50.5 105t46 109.5t35.5 101h61q-20 -62 -49 -133t-62 -138.5t-67.5 -124t-64.5 -89.5h-47l-41 357q-16 -46 -40 -98t-51 -101.5t-54 -91t-49 -66.5h-48l-51 407q-2 18 -9 25t-18 7
q-19 0 -50 -11l11 49q30 11 60 11q35 0 49.5 -19t18.5 -54z" />
    <glyph glyph-name="x" unicode="x" horiz-adv-x="446" 
d="M125 406q-8 18 -15.5 26.5t-22.5 8.5q-11 0 -21 -3t-24 -8l11 47q10 4 24 7.5t30 3.5q26 0 45 -12.5t33 -50.5l53 -135l156 195h66l-201 -246l65 -164q8 -19 16 -28t22 -9q11 0 23.5 4t23.5 11l-9 -46q-11 -7 -27 -11.5t-32 -4.5q-30 0 -45.5 15.5t-29.5 50.5l-56 134
l-149 -191h-67l197 243z" />
    <glyph glyph-name="y" unicode="y" horiz-adv-x="527" 
d="M352 68q-30 -35 -71.5 -50.5t-93.5 -22.5q-69 -9 -103 -27t-34 -55q0 -35 31.5 -54.5t76.5 -19.5q38 0 71 12.5t53 34.5q11 11 19 23t15 26.5t12.5 32.5t10.5 41zM132 207q-6 -28 -9.5 -49.5t-3.5 -35.5q0 -36 23 -57t66 -21q37 0 69 17t52 41q23 28 37 67t23 83l49 233
h63l-97 -461q-22 -106 -65 -157q-28 -32 -75 -55.5t-107 -23.5q-78 0 -122.5 32.5t-44.5 88.5q0 46 34 73.5t85 39.5q-25 13 -39 38t-14 54q0 17 3.5 40.5t10.5 55.5l37 177q5 22 5 31q0 21 -23 21q-19 0 -51 -11l10 49q31 11 62 11q37 0 52 -17q8 -8 11 -19t3 -25
q0 -5 -2 -17t-5 -27z" />
    <glyph glyph-name="z" unicode="z" horiz-adv-x="425" 
d="M427 485q-3 -23 -11.5 -39.5t-26.5 -37.5l-304 -362h125q23 0 41 1t33 3t29.5 6t30.5 10l-12 -52q-24 -7 -54.5 -10.5t-73.5 -3.5h-202q3 23 14 43.5t36 49.5l290 342h-235l11 50h309z" />
    <glyph glyph-name="ampersand" unicode="&#x26;" horiz-adv-x="639" 
d="M496 325l-34 -161q-6 -29 -10 -49.5t-4 -32.5q0 -23 13 -32.5t35 -9.5q18 0 40.5 8.5t40.5 19.5l-12 -52q-17 -11 -39 -18t-46 -7q-45 0 -67 21.5t-23 59.5q-31 -35 -72.5 -58t-98.5 -23q-38 0 -70.5 10.5t-56 31t-37 51t-13.5 71.5q0 32 12 63.5t34.5 58t55 46.5
t73.5 29q-35 13 -56.5 42t-21.5 70q0 40 18 73t48 56.5t69 36t81 12.5q37 0 71 -7.5t62 -20.5l-10 -49q-24 13 -56.5 21t-64.5 8q-35 0 -63.5 -10.5t-49 -28t-31.5 -41t-11 -50.5q0 -45 33.5 -68t87.5 -23h286l-10 -48h-103zM336 325q-57 0 -97.5 -11.5t-69.5 -32.5
q-31 -22 -46 -55t-15 -70q0 -23 7.5 -44t22.5 -36.5t37.5 -24.5t52.5 -9q73 0 119.5 46.5t63.5 127.5l24 109h-99z" />
    <glyph glyph-name="at" unicode="@" horiz-adv-x="725" 
d="M691 402q0 -57 -13 -106.5t-37 -86.5t-58.5 -58.5t-76.5 -21.5q-34 0 -52.5 15t-23.5 39q-22 -26 -50 -42t-63 -16q-58 0 -87.5 36t-29.5 93q0 48 18.5 93.5t50 81t74 57t91.5 21.5q20 0 39 -4t34 -11l36 11l-48 -230q-5 -21 -9 -38.5t-4 -26.5q0 -34 35 -34
q25 0 45.5 18t35 49t22 71.5t7.5 85.5q0 50 -15.5 86.5t-42.5 60.5t-63 35.5t-76 11.5q-72 0 -132 -27.5t-102.5 -74t-66 -108t-23.5 -129.5q0 -48 16 -87.5t46 -67.5t73.5 -43t99.5 -15q66 0 131.5 16t125.5 45l-12 -55q-56 -27 -120.5 -41t-129.5 -14q-64 0 -117.5 16
t-92.5 48t-60.5 81t-21.5 115q0 78 28 149t79.5 125t123.5 86t159 32q52 0 99 -16.5t82 -47t55.5 -75.5t20.5 -102zM477 455q-16 7 -40 7q-41 0 -74 -19t-57 -49t-37 -66.5t-13 -70.5q0 -44 20 -64.5t52 -20.5q43 0 77 37q33 36 49 124z" />
    <glyph glyph-name="exclam" unicode="!" horiz-adv-x="261" 
d="M53 0l21 98q13 5 35 3.5t36 -7.5l-40 -94h-52zM98 180l71 456q5 2 14 3.5t17 1.5q15 0 29 -2t22 -7l-114 -452h-39z" />
    <glyph glyph-name="exclamdown" unicode="&#xa1;" horiz-adv-x="261" 
d="M212 492l-21 -98q-13 -5 -35 -3.5t-36 7.5l40 94h52zM167 312l-71 -456q-5 -2 -14 -3.5t-17 -1.5q-15 0 -29 2t-22 7l114 452h39z" />
    <glyph glyph-name="question" unicode="?" horiz-adv-x="397" 
d="M381 500q0 -46 -16 -81t-44.5 -60.5t-66.5 -41.5t-81 -23l-31 -120l-42 6l23 154q36 4 71 14t62 29t43.5 48.5t16.5 71.5q0 45 -26 70t-71 25q-40 0 -74.5 -19t-66.5 -54l-36 33q29 37 77.5 63.5t104.5 26.5q32 0 60.5 -9.5t50 -27.5t34 -44.5t12.5 -60.5zM59 0l21 98
q13 5 35 3.5t36 -7.5l-40 -94h-52z" />
    <glyph glyph-name="questiondown" unicode="&#xbf;" horiz-adv-x="397" 
d="M18 -9q0 46 16 81t44.5 60.5t66 41t81.5 23.5l31 120l42 -6l-23 -154q-36 -4 -71 -14t-62 -29t-43.5 -48.5t-16.5 -71.5q0 -45 26 -70t71 -25q40 0 74.5 19t66.5 54l36 -33q-29 -37 -77.5 -63.5t-104.5 -26.5q-32 0 -60.5 9.5t-50 27.5t-34 44.5t-12.5 60.5zM340 491
l-21 -98q-13 -5 -35 -3.5t-36 7.5l40 94h52z" />
    <glyph glyph-name="asterisk" unicode="*" horiz-adv-x="424" 
d="M411 537q0 -15 -11 -22t-25 -12l-114 -41l95 -42q12 -5 18 -9t6 -15q0 -13 -12.5 -27.5t-25.5 -14.5q-8 0 -14.5 4t-12.5 9l-73 69l-8 -111q-2 -23 -10 -34t-30 -11q-12 0 -20 5t-8 16q0 7 2 13t4 13l42 110l-101 -67q-12 -8 -20.5 -12t-14.5 -4q-11 0 -17.5 11.5
t-6.5 21.5q0 13 8.5 19.5t25.5 13.5l116 43l-97 40q-11 5 -17.5 9.5t-6.5 15.5q0 6 3.5 13.5t9 13.5t12 10.5t12.5 4.5q9 0 15 -4t14 -11l75 -67l6 109q2 25 10 35t28 10q11 0 20 -5t9 -16q0 -10 -5 -23l-41 -112l111 73q6 4 11.5 7t12.5 3q11 0 18 -10.5t7 -21.5z" />
    <glyph glyph-name="period" unicode="." horiz-adv-x="189" 
d="M32 0l22 103q7 3 17 4t20.5 0t20.5 -3t17 -5l-44 -99h-53z" />
    <glyph glyph-name="comma" unicode="," horiz-adv-x="189" 
d="M-16 -90l71 193q13 5 35.5 4t36.5 -8l-90 -189h-53z" />
    <glyph glyph-name="colon" unicode=":" horiz-adv-x="204" 
d="M30 0l22 103q7 3 17 4t20.5 0t20.5 -3t17 -5l-44 -99h-53zM97 290l22 103q7 3 17 4t20.5 0t20.5 -3t17 -5l-44 -99h-53z" />
    <glyph glyph-name="semicolon" unicode=";" horiz-adv-x="203" 
d="M96 290l22 103q7 3 17 4t20.5 0t20.5 -3t17 -5l-44 -99h-53zM-18 -90l71 193q13 5 35.5 4t36.5 -8l-90 -189h-53z" />
    <glyph glyph-name="ellipsis" unicode="&#x2026;" horiz-adv-x="545" 
d="M32 0l22 103q7 3 17 4t20.5 0t20.5 -3t17 -5l-44 -99h-53zM210 0l22 103q7 3 17 4t20.5 0t20.5 -3t17 -5l-44 -99h-53zM388 0l22 103q7 3 17 4t20.5 0t20.5 -3t17 -5l-44 -99h-53z" />
    <glyph glyph-name="periodcentered" unicode="&#xb7;" horiz-adv-x="189" 
d="M50 214l22 103q7 3 17 4t20.5 0t20.5 -3t17 -5l-44 -99h-53z" />
    <glyph glyph-name="uni22C5" unicode="&#x22c5;" horiz-adv-x="189" 
d="M50 214l22 103q7 3 17 4t20.5 0t20.5 -3t17 -5l-44 -99h-53z" />
    <glyph glyph-name="bullet" unicode="&#x2022;" horiz-adv-x="306" 
d="M251 334q0 -20 -8.5 -38t-22.5 -32t-32.5 -22.5t-38.5 -8.5q-29 0 -49 19t-20 48q0 20 8.5 38t23 32t33 22t38.5 8q29 0 48.5 -18.5t19.5 -47.5z" />
    <glyph glyph-name="slash" unicode="/" horiz-adv-x="289" 
d="M389 642l-347 -651h-64l348 651h63z" />
    <glyph glyph-name="parenleft" unicode="(" horiz-adv-x="291" 
d="M371 658q-57 -36 -97.5 -90.5t-69.5 -129.5q-12 -31 -26.5 -81.5t-26.5 -106.5t-20.5 -112t-8.5 -98q0 -59 16.5 -111t55.5 -92l-26 -27q-32 21 -53 49.5t-33 60.5t-17 65.5t-5 65.5q0 46 6.5 99.5t18.5 107t28 104.5t34 92q37 83 84.5 139.5t121.5 92.5z" />
    <glyph glyph-name="brokenbar" unicode="&#xa6;" horiz-adv-x="222" 
d="M245 749l-81 -384h-56l81 384h56zM115 136l-81 -383h-55l81 383h55z" />
    <glyph glyph-name="parenright" unicode=")" horiz-adv-x="288" 
d="M228 443q0 -39 -6.5 -91.5t-18 -107.5t-27.5 -108.5t-35 -94.5q-32 -72 -82.5 -133.5t-124.5 -98.5l-14 29q57 39 95.5 93.5t63.5 114.5q17 41 32.5 94t27.5 108.5t19 108.5t7 95q0 63 -15 115t-57 92l26 26q64 -45 86.5 -108.5t22.5 -133.5z" />
    <glyph glyph-name="bracketleft" unicode="[" horiz-adv-x="234" 
d="M300 684l-10 -51h-77l-162 -766h76l-11 -52h-139l184 869h139z" />
    <glyph glyph-name="backslash" unicode="\" horiz-adv-x="286" 
d="M198 -9h-61l-71 651h61z" />
    <glyph glyph-name="bracketright" unicode="]" horiz-adv-x="235" 
d="M258 684l-184 -869h-140l11 52h76l163 766h-76l11 51h139z" />
    <glyph glyph-name="braceleft" unicode="{" horiz-adv-x="293" 
d="M329 684l-7 -37h-20q-31 0 -46 -18t-20 -45q-6 -29 -10 -60.5t-7 -61.5t-6.5 -59.5t-8.5 -57.5q-9 -42 -30 -66.5t-59 -38.5q22 -9 34.5 -24.5t12.5 -43.5q0 -15 -3.5 -35.5t-9.5 -43t-13 -45.5t-14 -45l-27 -90q-5 -17 -6.5 -27.5t-1.5 -16.5q0 -36 40 -36h22l-8 -37
h-22q-45 0 -68.5 17.5t-23.5 59.5q0 9 1.5 21t4.5 23l47 201q5 20 9 38t4 26q0 20 -16.5 29.5t-38.5 15.5l5 28q38 6 56 21t24 45l23 122q5 24 11 59t13 65q13 61 43 89t91 28h25z" />
    <glyph glyph-name="bar" unicode="|" horiz-adv-x="223" 
d="M246 749l-212 -996h-55l211 996h56z" />
    <glyph glyph-name="braceright" unicode="}" horiz-adv-x="293" 
d="M-35 -204l7 37h20q31 0 46 18t20 45q6 29 10 60.5t7 61.5t6 59.5t9 57.5q8 42 29.5 66.5t59.5 38.5q-22 9 -34.5 24.5t-12.5 43.5q0 15 3.5 35.5t9.5 43t13 45.5t14 45l27 90q5 17 6.5 27.5t1.5 16.5q0 36 -40 36h-22l8 37h22q45 0 68.5 -17.5t23.5 -59.5q0 -9 -1.5 -21
t-4.5 -23l-47 -201q-5 -21 -9 -38.5t-4 -25.5q0 -20 16.5 -29.5t38.5 -15.5l-5 -28q-38 -6 -56 -21t-24 -45l-23 -122q-5 -24 -11.5 -59t-13.5 -65q-7 -31 -17 -53t-26 -36.5t-38 -21t-52 -6.5h-25z" />
    <glyph glyph-name="hyphen" unicode="-" horiz-adv-x="268" 
d="M242 266l-12 -55h-210l12 55h210z" />
    <glyph glyph-name="uni00AD" unicode="&#xad;" horiz-adv-x="268" 
d="M242 266l-12 -55h-210l12 55h210z" />
    <glyph glyph-name="endash" unicode="&#x2013;" horiz-adv-x="500" 
d="M504 303l-9 -47h-499l9 47h499z" />
    <glyph glyph-name="emdash" unicode="&#x2014;" horiz-adv-x="1000" 
d="M1004 303l-9 -47h-999l9 47h999z" />
    <glyph glyph-name="underscore" unicode="_" horiz-adv-x="504" 
d="M448 -45l-9 -48h-481l9 48h481z" />
    <glyph glyph-name="dagger" unicode="&#x2020;" horiz-adv-x="562" 
d="M563 396q0 -23 -9.5 -37t-32.5 -14q-6 0 -18.5 1t-29.5 3l-151 15l-96 -539q-5 -26 -13 -38.5t-34 -12.5q-14 0 -23.5 5.5t-9.5 20.5q0 6 1.5 14t3.5 13q33 134 67.5 268.5t66.5 268.5l-162 -16q-10 -1 -21 -2t-18 -1q-29 0 -29 26q0 22 11.5 35.5t34.5 13.5
q6 0 12.5 -0.5t13.5 -1.5l165 -18l22 192q3 29 12 39.5t35 10.5q13 0 23 -4.5t10 -20.5q0 -9 -4 -22.5t-9 -29.5l-51 -166l175 19q8 1 17.5 1.5t12.5 0.5q13 0 20.5 -5t7.5 -19z" />
    <glyph glyph-name="daggerdbl" unicode="&#x2021;" horiz-adv-x="561" 
d="M561 403q0 -23 -10 -37t-33 -14q-5 0 -12 0.5t-16 1.5l-169 17q-2 -11 -2.5 -23.5t-1.5 -23.5q-2 -29 -5 -57.5t-9 -55.5q-7 -27 -15.5 -53.5t-17.5 -52.5q-5 -13 -8 -25t-7 -26l175 18q8 1 15 1.5t9 0.5q13 0 22.5 -4.5t9.5 -19.5q0 -23 -10.5 -37t-34.5 -14q-5 0 -18 1
t-24 3l-153 16l-21 -187q-3 -28 -12 -39.5t-36 -11.5q-11 0 -21 3.5t-10 18.5q0 8 2 15t4 15l58 186l-147 -15q-17 -2 -33.5 -3.5t-23.5 -1.5q-14 0 -21 5.5t-7 20.5q0 22 10 35.5t34 13.5q12 0 36 -3l160 -17q2 12 2.5 23t1.5 23q2 28 5 57t9 56q6 28 14.5 55t17.5 54
q5 13 8 24.5t8 24.5l-155 -15q-17 -2 -28 -3t-18 -1q-30 0 -30 26q0 23 10.5 36t33.5 13q11 0 35 -3l161 -17l21 192q2 23 11.5 33t34.5 10q14 0 23 -4t9 -18q0 -8 -3 -20t-8 -26l-52 -167l175 18q9 1 17 1.5t10 0.5q13 0 21.5 -4.5t8.5 -19.5z" />
    <glyph glyph-name="section" unicode="&#xa7;" horiz-adv-x="505" 
d="M453 574q-18 6 -49.5 12.5t-60.5 6.5q-31 0 -54 -8.5t-38.5 -23t-23.5 -33t-8 -37.5q0 -18 7 -33t19 -27t27.5 -23t32.5 -22q21 -14 40.5 -27.5t34.5 -30t24 -37t9 -46.5q0 -36 -15 -65t-39 -50.5t-54.5 -35t-61.5 -19.5q21 -14 40.5 -28t33.5 -30.5t22.5 -36.5t8.5 -45
q0 -36 -15 -66t-40.5 -51t-59.5 -33t-72 -12q-35 0 -66.5 7t-51.5 15l10 49q23 -10 53 -16t56 -6q30 0 53 8.5t38.5 23.5t24 34.5t8.5 41.5q0 33 -26 56.5t-60 45.5q-20 13 -39 26.5t-35 31t-25.5 38.5t-9.5 49q0 35 15 63t39.5 49t55 34.5t62.5 18.5q-21 14 -40.5 28
t-34 30.5t-23 37t-8.5 47.5q0 36 14.5 65t40 49.5t60 31.5t73.5 11q32 0 62 -6t55 -16zM350 241q0 21 -10.5 38t-27.5 31q-78 -11 -118 -46.5t-40 -83.5q0 -23 11.5 -41.5t28.5 -31.5q78 10 117 45t39 89z" />
    <glyph glyph-name="paragraph" unicode="&#xb6;" horiz-adv-x="430" 
d="M470 633l-9 -45h-72l-173 -815h-53l172 815h-46l-173 -815h-52l126 593q-42 3 -71 32.5t-29 76.5q0 38 15 66t38 48q26 21 61.5 32.5t78.5 11.5h187z" />
    <glyph glyph-name="registered" unicode="&#xae;" horiz-adv-x="722" 
d="M702 400q0 -81 -27.5 -155t-79 -130.5t-124.5 -89.5t-164 -33q-56 0 -104.5 15t-84 45.5t-56 76t-20.5 105.5q0 82 29.5 156.5t83 130t126.5 88.5t160 33q55 0 103 -15.5t83 -45.5t55 -75.5t20 -105.5zM648 396q0 50 -15.5 87.5t-44 63t-68 38t-87.5 12.5q-75 0 -137 -29
t-106.5 -78.5t-69 -114.5t-24.5 -137q0 -51 15.5 -88.5t44 -62.5t68.5 -37.5t88 -12.5q75 0 136.5 29t106 78.5t69 114.5t24.5 137zM519 412q0 -52 -26.5 -85t-74.5 -45l28 -79q4 -11 8.5 -16t13.5 -5q5 0 13.5 2t16.5 7l-10 -43q-5 -5 -18 -8.5t-22 -3.5q-40 0 -53 39
l-34 99h-54l-30 -136h-56l66 311h-28l9 46h133q34 0 55 -5t35 -15q13 -9 20.5 -26t7.5 -37zM460 407q0 15 -5.5 23t-15.5 12.5t-22.5 5.5t-27.5 1h-46l-28 -129h51q44 0 69 22t25 65z" />
    <glyph glyph-name="copyright" unicode="&#xa9;" horiz-adv-x="722" 
d="M458 389q1 31 -12 46.5t-36 15.5q-31 0 -55 -19.5t-40 -48.5t-24.5 -63t-8.5 -63q0 -35 17.5 -53t49.5 -18q25 0 53.5 9t57.5 29l-12 -60q-26 -14 -54 -22t-53 -8q-121 0 -121 120q0 41 13 85t37.5 80t61 59.5t84.5 23.5q45 0 73.5 -29t22.5 -84h-54zM702 400
q0 -81 -27.5 -155t-79 -130.5t-124.5 -89.5t-164 -33q-56 0 -104.5 15t-84 45.5t-56 76t-20.5 105.5q0 82 29.5 156.5t83 130t126.5 88.5t160 33q55 0 103 -15.5t83 -45.5t55 -75.5t20 -105.5zM648 396q0 50 -15.5 87.5t-44 63t-68 38t-87.5 12.5q-75 0 -137 -29
t-106.5 -78.5t-69 -114.5t-24.5 -137q0 -51 15.5 -88.5t44 -62.5t68.5 -37.5t88 -12.5q75 0 136.5 29t106 78.5t69 114.5t24.5 137z" />
    <glyph glyph-name="trademark" unicode="&#x2122;" horiz-adv-x="664" 
d="M641 633l-73 -346h-46l48 229l-143 -229h-36l-51 229l-48 -229h-46l73 346h43l63 -276l170 276h46zM276 633l-8 -39h-100l-65 -307h-49l66 307h-100l8 39h248z" />
    <glyph glyph-name="quotedblleft" unicode="&#x201c;" horiz-adv-x="282" 
d="M198 644l-71 -192q-14 -5 -36 -3.5t-35 8.5l88 187h54zM323 644l-71 -192q-14 -5 -35.5 -3.5t-35.5 8.5l89 187h53z" />
    <glyph glyph-name="quotedblright" unicode="&#x201d;" horiz-adv-x="282" 
d="M183 445l71 192q14 5 36 3.5t35 -8.5l-88 -187h-54zM58 445l71 192q14 5 35.5 3.5t35.5 -8.5l-89 -187h-53z" />
    <glyph glyph-name="quoteleft" unicode="&#x2018;" horiz-adv-x="157" 
d="M198 644l-71 -192q-14 -5 -35.5 -3.5t-35.5 8.5l89 187h53z" />
    <glyph glyph-name="quoteright" unicode="&#x2019;" horiz-adv-x="157" 
d="M58 445l71 192q14 5 35.5 3.5t35.5 -8.5l-89 -187h-53z" />
    <glyph glyph-name="guillemotleft" unicode="&#xab;" horiz-adv-x="390" 
d="M191 221q-5 8 -7.5 11.5t-2.5 8.5q0 7 3.5 11.5t10.5 10.5l167 149l6 -49l-118 -121l67 -122l-26 -46zM232 363l-117 -121l67 -122l-27 -46l-99 147q-5 8 -7.5 11.5t-2.5 8.5q0 7 4 11.5t10 10.5l166 149z" />
    <glyph glyph-name="guillemotright" unicode="&#xbb;" horiz-adv-x="376" 
d="M203 265q5 -8 7.5 -11.5t2.5 -8.5q0 -7 -3.5 -11.5t-10.5 -10.5l-167 -149l-6 49l118 121l-67 122l26 46zM162 123l117 121l-67 122l27 46l99 -147q5 -8 7.5 -11.5t2.5 -8.5q0 -7 -4 -11.5t-10 -10.5l-166 -149z" />
    <glyph glyph-name="guilsinglleft" unicode="&#x2039;" horiz-adv-x="254" 
d="M232 363l-117 -121l67 -122l-27 -46l-99 147q-5 8 -7.5 11.5t-2.5 8.5q0 7 4 11.5t10 10.5l166 149z" />
    <glyph glyph-name="guilsinglright" unicode="&#x203a;" horiz-adv-x="254" 
d="M26 123l117 121l-67 122l27 46l99 -147q5 -8 7.5 -11.5t2.5 -8.5q0 -7 -4 -11.5t-10 -10.5l-166 -149z" />
    <glyph glyph-name="quotesinglbase" unicode="&#x201a;" horiz-adv-x="172" 
d="M-22 -135l71 192q14 5 35.5 3.5t35.5 -8.5l-89 -187h-53z" />
    <glyph glyph-name="quotedblbase" unicode="&#x201e;" horiz-adv-x="297" 
d="M103 -135l71 192q14 5 36 3.5t35 -8.5l-88 -187h-54zM-22 -135l71 192q14 5 35.5 3.5t35.5 -8.5l-89 -187h-53z" />
    <glyph glyph-name="ordfeminine" unicode="&#xaa;" horiz-adv-x="336" 
d="M323 639l-42 -207q-4 -17 -6.5 -30t-2.5 -20q0 -11 10 -11q11 0 28 11l-6 -32q-6 -5 -16 -8t-20 -3q-17 0 -28.5 10t-9.5 33q-17 -21 -39 -33.5t-50 -12.5q-48 0 -70.5 28t-22.5 74q0 39 15 75.5t40.5 65t60.5 46t75 17.5q16 0 31.5 -3.5t26.5 -8.5zM274 602
q-8 3 -16.5 5t-19.5 2q-33 0 -60.5 -16t-47 -40.5t-30 -54t-10.5 -57.5q0 -35 16.5 -53t43.5 -18q21 0 37.5 9.5t27.5 23.5q12 16 20.5 38t17.5 63z" />
    <glyph glyph-name="ordmasculine" unicode="&#xba;" horiz-adv-x="337" 
d="M316 540q0 -42 -16.5 -86t-46.5 -75q-20 -20 -45 -31.5t-57 -11.5q-49 0 -76 28t-27 79q0 43 16.5 84.5t45.5 70.5q20 20 47 32t59 12q43 0 71.5 -26t28.5 -76zM273 537q0 34 -16.5 52.5t-46.5 18.5q-21 0 -38 -8.5t-29 -21.5q-23 -26 -37.5 -61t-14.5 -73
q0 -32 16.5 -53t46.5 -21q20 0 36.5 8t28.5 21q26 26 40 63.5t14 74.5z" />
    <glyph glyph-name="zero" unicode="0" horiz-adv-x="505" 
d="M482 468q0 -37 -7 -86.5t-22 -102.5t-38 -104.5t-54.5 -92.5t-72.5 -66t-91 -25q-68 0 -105.5 48.5t-37.5 127.5q0 39 7.5 89t22.5 103t38 103.5t55 90.5t72.5 64.5t90.5 24.5q68 0 105 -46.5t37 -127.5zM417 467q0 66 -22.5 96t-60.5 30q-37 0 -67 -24t-54 -62
t-41.5 -86t-29.5 -95t-17.5 -89t-5.5 -69q0 -66 23.5 -97t61.5 -31q36 0 66 24t54 62.5t41.5 86t29 95t17 90t5.5 69.5z" />
    <glyph glyph-name="one" unicode="1" horiz-adv-x="360" 
d="M316 633l-124 -585h90l-9 -48h-257l9 48h103l109 511l-113 -56l-19 44l170 86h41z" />
    <glyph glyph-name="two" unicode="2" horiz-adv-x="466" 
d="M6 0l6 30q11 56 34.5 98t54.5 74t66 57.5t70 48.5q30 19 57.5 38.5t48.5 41t33.5 47t12.5 57.5q0 45 -25.5 73t-69.5 28q-51 0 -88 -28.5t-65 -77.5l-46 26q31 59 82 94t121 35q72 0 114 -40.5t42 -107.5q0 -41 -15.5 -72.5t-40.5 -58t-57 -49t-66 -44.5
q-31 -21 -62 -42.5t-57.5 -47.5t-47 -57.5t-29.5 -71.5h163q55 0 77 22.5t28 73.5h52q-4 -75 -42 -111t-104 -36h-247z" />
    <glyph glyph-name="three" unicode="3" horiz-adv-x="446" 
d="M426 503q0 -31 -10 -58.5t-27 -49t-40 -37.5t-49 -24q38 -13 63 -46t25 -78q0 -95 -66 -156q-32 -29 -77 -46t-99 -17q-89 0 -156 38l11 53q27 -19 64 -30t75 -11q86 0 136 48q22 21 34.5 50t12.5 67q0 48 -31.5 74t-95.5 27l10 51q36 1 65.5 13t49.5 31t31 44.5t11 54.5
q0 46 -27.5 69t-65.5 23q-47 0 -80.5 -25.5t-54.5 -67.5l-48 24q26 56 76 87t107 31q34 0 62.5 -9.5t49.5 -27t32.5 -43.5t11.5 -59z" />
    <glyph glyph-name="four" unicode="4" horiz-adv-x="489" 
d="M449 190l-12 -52h-81l-30 -138h-56l29 138h-264l-19 35l352 471l46 -29l-319 -425h215l33 154h56l-32 -154h82z" />
    <glyph glyph-name="five" unicode="5" horiz-adv-x="448" 
d="M432 633l-11 -51h-228l-41 -200h52q58 0 94 -11.5t57 -30.5q20 -19 30 -43t10 -65q0 -53 -18.5 -97.5t-52 -76.5t-80.5 -49.5t-103 -17.5q-34 0 -70 8.5t-65 26.5l11 49q24 -15 56 -24.5t65 -9.5q89 0 140.5 50.5t51.5 135.5q0 54 -29 78q-17 15 -44 20.5t-72 5.5h-99
l65 302h281z" />
    <glyph glyph-name="six" unicode="6" horiz-adv-x="500" 
d="M478 580q-18 6 -39.5 9.5t-35.5 3.5q-45 0 -83.5 -18.5t-70.5 -51t-56.5 -75.5t-40.5 -92q29 21 70 37.5t81 16.5q67 0 108 -38.5t41 -113.5q0 -53 -17 -101.5t-47 -85t-72 -58.5t-93 -22q-44 0 -75 16t-50.5 43.5t-28.5 63.5t-9 76q0 94 27 176.5t74 143.5t109.5 96.5
t133.5 35.5q23 0 46 -4t38 -9zM387 252q0 49 -24.5 77.5t-71.5 28.5q-44 0 -83.5 -18t-71.5 -45q-5 -22 -8 -50.5t-3 -54.5q0 -27 5 -54t17 -48.5t32 -35t50 -13.5q39 0 68.5 20.5t49.5 52t30 69t10 71.5z" />
    <glyph glyph-name="seven" unicode="7" horiz-adv-x="407" 
d="M105 0h-65l338 582h-305l11 51h350l17 -33z" />
    <glyph glyph-name="eight" unicode="8" horiz-adv-x="492" 
d="M472 519q0 -33 -11.5 -61t-31.5 -50.5t-47.5 -40t-58.5 -29.5q47 -30 77.5 -67t30.5 -90q0 -45 -17.5 -80t-46.5 -59.5t-67 -37.5t-79 -13q-39 0 -72.5 11t-58 31t-38.5 49t-14 64q0 38 14 69.5t38 56t55.5 43t66.5 29.5q-32 23 -57.5 54.5t-25.5 75.5q0 36 14 67.5
t39 55t60.5 36.5t77.5 13q29 0 56.5 -8t48.5 -24t34 -40t13 -55zM411 516q0 37 -27 60.5t-67 23.5q-58 0 -92.5 -33.5t-34.5 -84.5q0 -41 26 -69t64 -50q58 24 94.5 60.5t36.5 92.5zM366 178q0 42 -27.5 72.5t-84.5 62.5q-32 -10 -59.5 -25t-48 -35t-32.5 -46t-12 -57
q0 -53 35 -82t88 -29q30 0 56 10t44.5 28t29.5 43.5t11 57.5z" />
    <glyph glyph-name="nine" unicode="9" horiz-adv-x="502" 
d="M472 445q0 -94 -28 -177t-75 -144.5t-109.5 -97t-132.5 -35.5q-24 0 -46 4t-37 9l10 49q17 -6 38 -9.5t37 -3.5q45 0 83 18t69.5 49t55.5 73.5t41 91.5q-29 -21 -67.5 -35t-78.5 -14q-69 0 -110.5 39t-41.5 111q0 53 16.5 101.5t47 86t72.5 59.5t93 22q43 0 74 -15.5
t50.5 -42.5t29 -63t9.5 -76zM407 443q0 27 -4.5 54t-16 48.5t-31.5 35t-51 13.5q-39 0 -68.5 -21t-50 -52.5t-30.5 -69.5t-10 -72q0 -49 24 -76.5t72 -27.5q44 0 83.5 18t71.5 45q5 22 8 50.5t3 54.5z" />
    <glyph glyph-name="dollar" unicode="$" horiz-adv-x="469" 
d="M444 567q-23 10 -49.5 16.5t-54.5 8.5l-54 -252q24 -14 46.5 -28t40 -32t28 -41t10.5 -54q0 -81 -54 -130q-26 -25 -63.5 -41t-80.5 -21l-22 -100h-51l20 98q-38 2 -77.5 12.5t-68.5 29.5l11 55q30 -21 68.5 -34t76.5 -13l57 262q-26 14 -49.5 29t-41.5 33t-28.5 41.5
t-10.5 53.5q0 36 14 67.5t40.5 55.5t63.5 39.5t84 18.5q5 23 10 48.5t10 48.5h52l-20 -97q28 -2 56.5 -8.5t48.5 -14.5zM288 589q-56 -8 -91 -38t-35 -83q0 -35 20.5 -59.5t56.5 -43.5zM346 178q0 33 -18.5 58t-53.5 44l-50 -237q56 11 89 47t33 88z" />
    <glyph glyph-name="cent" unicode="&#xa2;" horiz-adv-x="472" 
d="M398 356q0 38 -17 61t-54 26l-86 -399q42 2 81 18t68 35l-13 -62q-25 -16 -63 -28.5t-84 -14.5l-21 -99h-50l22 103q-64 10 -99 53.5t-35 116.5q0 51 16 105.5t46.5 101t75 79t102.5 40.5l22 101h50l-21 -99q54 -5 86.5 -38.5t32.5 -99.5h-59zM112 169q0 -62 27 -90
q19 -22 53 -31l84 391q-39 -10 -69.5 -38t-51.5 -66t-32 -81.5t-11 -84.5z" />
    <glyph glyph-name="Euro" unicode="&#x20ac;" horiz-adv-x="502" 
d="M82 287q2 10 3.5 19t3.5 17h-63l9 52h67q16 52 42 100.5t61 85.5t78.5 59t95.5 22q71 0 113.5 -42.5t38.5 -126.5h-55q2 58 -25 87.5t-74 29.5q-38 0 -70.5 -18t-58.5 -47.5t-46 -68.5t-33 -81h172l-10 -52h-177q-2 -8 -3.5 -17t-3.5 -19h178l-10 -52h-175
q-1 -8 -1.5 -18t-0.5 -18q0 -71 30.5 -112.5t95.5 -41.5q45 0 90.5 16t81.5 44l-13 -65q-35 -23 -79 -36t-83 -13q-91 0 -138.5 51.5t-47.5 154.5v18.5t1 19.5h-66l9 52h63z" />
    <glyph glyph-name="sterling" unicode="&#xa3;" horiz-adv-x="504" 
d="M455 481q-6 47 -37 78t-83 31q-64 0 -103.5 -40t-39.5 -108q0 -23 6 -48.5t14 -56.5h201l-10 -46h-179q5 -20 8 -39t3 -37q0 -54 -25 -93t-72 -71h302l-11 -51h-387l9 43q25 12 46.5 29t38 38.5t26 46.5t9.5 54q0 18 -4 39t-9 41h-103l9 46h81q-7 26 -12.5 52.5
t-5.5 51.5q0 47 16 84.5t44.5 63.5t67 39.5t83.5 13.5q69 0 118.5 -40t57.5 -116z" />
    <glyph glyph-name="yen" unicode="&#xa5;" horiz-adv-x="506" 
d="M564 633l-267 -386h136l-10 -50h-147l-8 -39h147l-11 -50h-147l-23 -108h-68l23 108h-138l11 50h136l9 39h-137l11 50h128l-105 386h70l69 -253q8 -32 13.5 -57t7.5 -41q8 15 21.5 37t33.5 51l181 263h64z" />
    <glyph glyph-name="numbersign" unicode="#" horiz-adv-x="508" 
d="M493 424l-12 -54h-99l-22 -106h99l-12 -54h-99l-44 -210h-53l44 210h-103l-44 -210h-53l44 210h-99l12 54h99l22 106h-99l12 54h98l45 209h53l-44 -209h102l45 209h53l-44 -209h99zM329 370h-103l-22 -106h103z" />
    <glyph glyph-name="percent" unicode="%" horiz-adv-x="802" 
d="M621 642l-356 -650h-57l356 650h57zM388 514q0 -43 -12.5 -87t-36.5 -80t-58.5 -59t-77.5 -23q-54 0 -83.5 35.5t-29.5 93.5q0 44 13 88.5t37 80t59 57.5t79 22q54 0 82 -35t28 -93zM331 513q0 37 -13.5 60t-47.5 23q-28 0 -50.5 -19.5t-39 -49t-25.5 -65t-9 -67.5
q0 -37 14.5 -61t47.5 -24q29 0 52 19.5t38.5 49.5t24 66t8.5 68zM742 240q0 -43 -12.5 -87t-36.5 -80t-58.5 -59t-77.5 -23q-54 0 -83.5 35.5t-29.5 93.5q0 44 13 88.5t37 80t59 57.5t79 22q54 0 82 -35t28 -93zM685 239q0 37 -13.5 60t-47.5 23q-28 0 -50.5 -19.5t-39 -49
t-25.5 -65t-9 -67.5q0 -37 14.5 -61t47.5 -24q29 0 52 19.5t38.5 49.5t24 66t8.5 68z" />
    <glyph glyph-name="perthousand" unicode="&#x2030;" horiz-adv-x="1131" 
d="M621 642l-356 -650h-57l356 650h57zM388 514q0 -43 -12.5 -87t-36.5 -80t-58.5 -59t-77.5 -23q-54 0 -83.5 35.5t-29.5 93.5q0 44 13 88.5t37 80t59 57.5t79 22q54 0 82 -35t28 -93zM331 513q0 37 -13.5 60t-47.5 23q-28 0 -50.5 -19.5t-39 -49t-25.5 -65t-9 -67.5
q0 -37 14.5 -61t47.5 -24q29 0 52 19.5t38.5 49.5t24 66t8.5 68zM742 240q0 -43 -12.5 -87t-36.5 -80t-58.5 -59t-77.5 -23q-54 0 -83.5 35.5t-29.5 93.5q0 44 13 88.5t37 80t59 57.5t79 22q54 0 82 -35t28 -93zM685 239q0 37 -13.5 60t-47.5 23q-28 0 -50.5 -19.5t-39 -49
t-25.5 -65t-9 -67.5q0 -37 14.5 -61t47.5 -24q29 0 52 19.5t38.5 49.5t24 66t8.5 68zM1071 240q0 -43 -12.5 -87t-36.5 -80t-58.5 -59t-77.5 -23q-54 0 -83.5 35.5t-29.5 93.5q0 44 13 88.5t37 80t59 57.5t79 22q54 0 82 -35t28 -93zM1014 239q0 37 -13.5 60t-47.5 23
q-28 0 -50.5 -19.5t-39 -49t-25.5 -65t-9 -67.5q0 -37 14.5 -61t47.5 -24q29 0 52 19.5t38.5 49.5t24 66t8.5 68z" />
    <glyph glyph-name="plus" unicode="+" horiz-adv-x="437" 
d="M378 346l-12 -52h-120l-24 -119h-52l25 119h-120l11 52h120l25 119h51l-24 -119h120z" />
    <glyph glyph-name="minus" unicode="&#x2212;" horiz-adv-x="437" 
d="M378 346l-12 -52h-291l11 52h292z" />
    <glyph glyph-name="multiply" unicode="&#xd7;" horiz-adv-x="437" 
d="M371 404l-103 -85l67 -85l-42 -36l-67 87l-103 -87l-29 38l102 85l-66 85l42 35l67 -86l103 86z" />
    <glyph glyph-name="less" unicode="&#x3c;" horiz-adv-x="438" 
d="M402 463l-12 -59l-240 -86l203 -84l-11 -54l-267 119l9 43z" />
    <glyph glyph-name="divide" unicode="&#xf7;" horiz-adv-x="438" 
d="M297 445q0 -19 -15 -34t-35 -15q-14 0 -24 9.5t-10 24.5q0 19 15.5 33.5t34.5 14.5q14 0 24 -9.5t10 -23.5zM383 346l-12 -52h-292l12 52h292zM247 211q0 -19 -14.5 -34t-34.5 -15q-14 0 -24.5 9.5t-10.5 24.5q0 19 16 33.5t35 14.5q14 0 23.5 -9.5t9.5 -23.5z" />
    <glyph glyph-name="equal" unicode="=" horiz-adv-x="436" 
d="M396 419l-10 -52h-292l11 52h291zM366 273l-11 -52h-291l11 52h291z" />
    <glyph glyph-name="logicalnot" unicode="&#xac;" horiz-adv-x="438" 
d="M392 419l-41 -198h-53l31 146h-240l11 52h292z" />
    <glyph glyph-name="greater" unicode="&#x3e;" horiz-adv-x="436" 
d="M388 342l-9 -44l-316 -118l12 59l240 83l-204 86l11 54z" />
    <glyph glyph-name="notequal" unicode="&#x2260;" horiz-adv-x="435" 
d="M398 419l-10 -52h-102l-50 -94h132l-12 -52h-148l-42 -79h-56l41 79h-85l12 52h101l49 94h-131l11 52h147l43 80h57l-42 -80h85z" />
    <glyph glyph-name="approxequal" unicode="&#x2248;" horiz-adv-x="438" 
d="M406 421q-23 -42 -51 -61.5t-58 -19.5q-21 0 -34.5 7t-27.5 19q-9 8 -18.5 14t-20.5 6q-17 0 -36.5 -11t-39.5 -35l-18 16q46 81 112 81q20 0 33.5 -8t25.5 -19q9 -8 19.5 -14t23.5 -6q19 0 36 11t37 36zM378 289q-23 -42 -51 -61.5t-58 -19.5q-21 0 -34.5 7t-27.5 19
q-9 8 -18.5 14t-20.5 6q-17 0 -36.5 -11t-39.5 -35l-18 16q46 81 112 81q20 0 33.5 -8t25.5 -19q9 -8 19.5 -14t23.5 -6q19 0 36 11t37 36z" />
    <glyph glyph-name="plusminus" unicode="&#xb1;" horiz-adv-x="437" 
d="M384 346l-12 -52h-120l-24 -119h-52l25 119h-120l11 52h120l25 119h51l-24 -119h120zM322 52l-12 -52h-291l11 52h292z" />
    <glyph glyph-name="lessequal" unicode="&#x2264;" horiz-adv-x="436" 
d="M326 52l-12 -52h-291l11 52h292zM413 463l-12 -59l-240 -86l203 -84l-11 -54l-267 119l9 43z" />
    <glyph glyph-name="greaterequal" unicode="&#x2265;" horiz-adv-x="435" 
d="M331 52l-12 -52h-291l11 52h292zM391 342l-9 -44l-316 -118l12 59l240 83l-204 86l11 54z" />
    <glyph glyph-name="asciicircum" unicode="^" horiz-adv-x="441" 
d="M409 432h-61l-58 156l-128 -156h-71l160 190q10 11 16.5 15.5t17.5 4.5h22q11 0 15.5 -4t9.5 -15z" />
    <glyph glyph-name="asciitilde" unicode="~" horiz-adv-x="438" 
d="M430 296q-70 -114 -151 -114q-27 0 -45 11t-35 28q-14 14 -27.5 24.5t-35.5 10.5q-23 0 -46.5 -19.5t-55.5 -54.5l-26 23q38 60 73.5 87.5t76.5 27.5q32 0 49 -12t36 -30q14 -13 27 -22.5t30 -9.5q23 0 48 19.5t57 54.5z" />
    <glyph glyph-name="lozenge" unicode="&#x25ca;" horiz-adv-x="564" 
d="M557 315l-325 -317l-193 319l325 318zM482 317q-34 58 -66.5 115t-65.5 116l-236 -233l136 -230z" />
    <glyph glyph-name="degree" unicode="&#xb0;" horiz-adv-x="403" 
d="M403 522q0 -38 -14 -73t-38.5 -62.5t-59 -44t-75.5 -16.5q-55 0 -88.5 32.5t-33.5 88.5q0 38 14 73t38.5 62t59 43.5t75.5 16.5q55 0 88.5 -32t33.5 -88zM346 518q0 36 -18 57t-55 21q-27 0 -49.5 -12.5t-38.5 -32.5t-25 -46.5t-9 -53.5q0 -35 18.5 -57.5t54.5 -22.5
q28 0 51 13t38.5 34t24 47.5t8.5 52.5z" />
    <glyph glyph-name="quotesingle" unicode="'" horiz-adv-x="134" 
d="M118 445h-30l21 198q13 5 35.5 4t36.5 -8z" />
    <glyph glyph-name="quotedbl" unicode="&#x22;" horiz-adv-x="249" 
d="M118 445h-30l21 198q13 5 35.5 4t36.5 -8zM233 445h-30l21 198q13 5 35.5 4t36.5 -8z" />
    <glyph glyph-name="radical" unicode="&#x221a;" horiz-adv-x="505" 
d="M639 714l-12 -53h-42l-378 -661h-70l-39 351h-44l11 50h100l36 -313l358 626h80z" />
    <glyph glyph-name="currency" unicode="&#xa4;" horiz-adv-x="514" 
d="M243 177q22 0 41.5 9.5t34.5 24.5q29 30 45.5 74.5t16.5 86.5q0 41 -19 63t-54 22q-23 0 -42 -9.5t-34 -24.5q-30 -30 -46 -74.5t-16 -86.5q0 -41 19 -63t54 -22zM239 134q-29 0 -51 7.5t-38 25.5l-52 -56h-68l94 98q-4 11 -5.5 24.5t-1.5 28.5q0 40 13.5 82.5t40.5 78.5
l-52 100h65l28 -57q21 15 46.5 24.5t53.5 9.5q26 0 49 -7.5t40 -25.5l52 56h67l-94 -98q8 -22 8 -53q0 -40 -13.5 -82.5t-40.5 -78.5l51 -100h-65l-27 57q-20 -15 -46 -24.5t-54 -9.5z" />
    <glyph glyph-name="infinity" unicode="&#x221e;" horiz-adv-x="639" 
d="M628 362q0 -39 -12.5 -78.5t-36 -71t-57.5 -51t-78 -19.5q-26 0 -46 8.5t-35 23t-26 34t-20 40.5q-16 -20 -34.5 -39.5t-39.5 -34.5t-45 -24t-52 -9q-55 0 -82.5 34.5t-27.5 86.5q0 39 12.5 78t36.5 70t58 50.5t78 19.5q51 0 80 -29.5t48 -71.5q16 20 34 38.5t39 32.5
t44.5 22t51.5 8q55 0 82.5 -32t27.5 -86zM582 353q0 29 -14.5 51t-46.5 22q-25 0 -46.5 -10t-40 -25t-34.5 -34t-30 -37l3 -10q7 -22 15.5 -42.5t19.5 -36t25 -24.5t32 -9q29 0 51 14.5t36.5 37t22 50t7.5 53.5zM292 317q-6 16 -13.5 35t-18 35t-25 26.5t-33.5 10.5
q-29 0 -51 -14t-37.5 -36t-23.5 -49t-8 -52q0 -29 14.5 -53t45.5 -24q25 0 47 10.5t41 27t35 36.5t30 38z" />
    <glyph glyph-name="mu" unicode="&#x3bc;" horiz-adv-x="548" 
d="M513 485l-80 -375q-2 -10 -5 -23.5t-3 -21.5t4.5 -14t14.5 -6q22 0 48 17l-10 -50q-11 -8 -27.5 -12.5t-30.5 -4.5q-33 0 -50 18.5t-14 53.5q-12 -15 -28 -28.5t-35.5 -24t-41.5 -17t-44 -6.5q-40 0 -65.5 12.5t-40.5 33.5q-6 -29 -13 -62t-14 -67t-14 -66.5t-13 -61.5
h-64l152 705h63l-59 -278q-7 -32 -10 -51.5t-3 -33.5q0 -38 24.5 -57.5t64.5 -19.5q42 0 70 16t49 39q23 26 37 62t25 90l50 233h63z" />
    <glyph glyph-name="partialdiff" unicode="&#x2202;" horiz-adv-x="503" 
d="M482 425q0 -37 -4.5 -73t-12.5 -71q-13 -57 -35 -109.5t-55 -92.5t-78 -64t-105 -24q-73 0 -116.5 40t-43.5 115q0 52 18 98t51 79.5t79 53t102 19.5q34 0 67 -7.5t62 -22.5q3 30 3 61q0 37 -6.5 67.5t-22.5 53t-43 35t-68 12.5q-24 0 -54.5 -5t-54.5 -13l12 48
q29 8 56 12.5t55 4.5q53 0 90 -15.5t60 -44t33.5 -68.5t10.5 -89zM196 40q49 0 85 27t61 68t39.5 89.5t22.5 90.5q-25 15 -55.5 23.5t-59.5 8.5q-44 0 -79.5 -15t-60 -41.5t-37.5 -62.5t-13 -79q0 -47 24.5 -78t72.5 -31z" />
    <glyph glyph-name="summation" unicode="&#x2211;" horiz-adv-x="579" 
d="M605 633l-11 -53h-379l255 -350l-431 -404h456l-22 -53h-523l11 54l420 396l-263 362l10 48h477z" />
    <glyph glyph-name="product" unicode="&#x220f;" horiz-adv-x="632" 
d="M684 633l-13 -57h-100l-170 -797h-65l170 797h-233l-170 -797h-65l170 797h-99l13 57h562z" />
    <glyph glyph-name="pi" unicode="&#x3c0;" horiz-adv-x="524" 
d="M538 485l-13 -57h-84l-91 -428h-66l91 428h-153l-92 -428h-66l92 428h-83l13 57h452z" />
    <glyph glyph-name="integral" unicode="&#x222b;" horiz-adv-x="509" 
d="M512 640q-13 3 -31 6t-36 3q-39 0 -62.5 -27.5t-37.5 -90.5l-130 -615q-16 -74 -52.5 -104t-96.5 -30q-23 0 -44 4t-35 9l10 43q14 -4 33.5 -6.5t36.5 -2.5q36 0 56.5 24t28.5 65l131 624q17 83 58 118.5t103 35.5q21 0 42.5 -4t35.5 -9z" />
    <glyph glyph-name="Omega" unicode="&#x3a9;" horiz-adv-x="645" 
d="M614 427q0 -55 -15.5 -109.5t-43 -104t-67 -91t-87.5 -71.5h119l-11 -51h-204l8 40q49 30 91 71.5t72.5 91.5t48 106t17.5 114q0 36 -8 66t-25.5 51.5t-44.5 34t-64 12.5q-60 0 -106 -30t-77.5 -77t-48 -104.5t-16.5 -111.5q0 -30 7 -61.5t20 -61t31.5 -56t41.5 -45.5
l-9 -40h-202l10 51h122q-20 18 -37 43t-30 53.5t-20 58t-7 57.5q0 72 23 140t65.5 121.5t103.5 85.5t137 32q97 0 151.5 -57t54.5 -158z" />
    <glyph glyph-name="uni0394" unicode="&#x394;" horiz-adv-x="646" 
d="M537 40l-9 -40h-505l8 40l344 593h64zM469 55l-80 493l-283 -493h363z" />
    <glyph glyph-name="litre" unicode="&#x2113;" horiz-adv-x="244" 
d="M99 677q13 5 29.5 8t30.5 3q37 0 52 -15t15 -43q0 -12 -3.5 -32.5t-7.5 -38.5l-92 -436q-5 -21 -8.5 -37.5t-3.5 -24.5q0 -20 20 -20q22 0 47 17l-11 -50q-11 -8 -26 -12.5t-29 -4.5q-32 0 -48.5 16.5t-16.5 42.5q0 12 4.5 33t9.5 47l91 429q5 23 8 37.5t3 20.5
q0 22 -24 22q-21 0 -51 -11l11 49v0z" />
    <glyph glyph-name="estimated" unicode="&#x212e;" horiz-adv-x="824" 
d="M187 309q-4 0 -4 -5v-178q0 -10 8 -21q42 -43 99.5 -69t123.5 -26q70 0 130 29t102 79h53q-50 -58 -124 -92.5t-162 -34.5q-75 0 -141 25.5t-115.5 69.5t-78 103t-28.5 127t28.5 127.5t78 103.5t115.5 69.5t141 25.5t140.5 -25.5t114.5 -69.5t77.5 -103.5t28.5 -127.5v-7
h-587zM641 510q0 13 -9 22q-42 42 -98.5 66.5t-119.5 24.5q-66 0 -122.5 -25.5t-99.5 -68.5q-9 -9 -9 -23v-175q0 -5 4 -5h450q4 0 4 5v179z" />
    <glyph glyph-name="numero" unicode="&#x2116;" horiz-adv-x="978" 
d="M782 259q31 0 56 17.5t42 44.5t26.5 59t9.5 61q0 44 -20 68.5t-55 24.5q-31 0 -56 -17.5t-42 -44.5t-26.5 -59t-9.5 -61q0 -44 20 -68.5t55 -24.5zM778 208q-63 0 -97 40.5t-34 101.5q0 40 13.5 82t39 76t62 55.5t83.5 21.5q64 0 97.5 -40.5t33.5 -101.5
q0 -41 -13.5 -82.5t-39 -75.5t-62 -55.5t-83.5 -21.5zM621 637l-134 -633h-49l-193 430q-11 25 -21 48.5t-18 43.5q-5 -32 -10.5 -59.5t-11.5 -56.5l-86 -406h-60l108 512q4 18 6.5 31.5t2.5 20.5q0 8 -4 14.5t-15 6.5q-12 0 -29 -3t-31 -8l11 51q15 5 32.5 7.5t33.5 2.5
q19 0 33.5 -3.5t26.5 -13t22.5 -26t22.5 -41.5l151 -332q14 -30 23.5 -55t17.5 -48l110 517h61z" />
    <glyph glyph-name="fraction" unicode="&#x2044;" horiz-adv-x="249" 
d="M342 642l-348 -651h-52l347 651h53z" />
    <glyph glyph-name="onesuperior" unicode="&#xb9;" horiz-adv-x="329" 
d="M279 642l-74 -351h63l-8 -42h-186l7 42h73l60 289l-69 -31l-16 40l115 53h35z" />
    <glyph glyph-name="twosuperior" unicode="&#xb2;" horiz-adv-x="328" 
d="M193 292q41 0 58.5 10.5t22.5 43.5h40q-3 -51 -29.5 -74t-74.5 -23h-156l5 27q5 29 17.5 52.5t29.5 43t37.5 35.5t43.5 30q20 13 37.5 25t31 25t21 28t7.5 34q0 23 -13.5 39.5t-36.5 16.5q-28 0 -49.5 -16.5t-40.5 -48.5l-37 22q20 40 53 63t78 23t71.5 -26t26.5 -69
q0 -25 -9 -45t-24 -37.5t-34.5 -31.5t-39.5 -27t-38 -25t-33 -26t-26.5 -30.5t-17.5 -38.5h79z" />
    <glyph glyph-name="threesuperior" unicode="&#xb3;" horiz-adv-x="307" 
d="M321 552q0 -34 -20 -60.5t-53 -40.5q24 -10 36.5 -29.5t12.5 -45.5q0 -33 -12.5 -58.5t-33.5 -43t-48.5 -27t-57.5 -9.5q-56 0 -99 26l8 47q46 -30 92 -30q44 0 71.5 23.5t27.5 66.5q0 27 -18 41.5t-60 15.5l8 44q47 0 70.5 23t23.5 55q0 23 -14 36t-35 13q-51 0 -79 -58
l-39 21q38 80 123 80q40 0 68 -23.5t28 -66.5z" />
    <glyph glyph-name="onehalf" unicode="&#xbd;" horiz-adv-x="734" 
d="M271 642l-74 -351h53l-8 -42h-168l7 42h65l60 289l-62 -28l-16 40l108 50h35zM527 43q41 0 58.5 10.5t22.5 43.5h40q-3 -51 -29.5 -74t-74.5 -23h-156l5 27q5 29 17.5 52.5t29.5 43t37.5 35.5t43.5 30q20 13 37.5 25t31 25t21 28t7.5 34q0 23 -13.5 39.5t-36.5 16.5
q-28 0 -49.5 -16.5t-40.5 -48.5l-37 22q20 40 53 63t78 23t71.5 -26t26.5 -69q0 -25 -9 -45t-24 -37.5t-34.5 -31.5t-39.5 -27t-38 -25t-33 -26t-26.5 -30.5t-17.5 -38.5h79zM567 642l-348 -651h-52l347 651h53z" />
    <glyph glyph-name="onequarter" unicode="&#xbc;" horiz-adv-x="738" 
d="M658 126l-10 -43h-45l-17 -83h-50l17 83h-166l-13 28l219 290l39 -21l-190 -254h120l15 72h50l-15 -72h46zM271 642l-74 -351h53l-8 -42h-168l7 42h65l60 289l-62 -28l-16 40l108 50h35zM567 642l-348 -651h-52l347 651h53z" />
    <glyph glyph-name="threequarters" unicode="&#xbe;" horiz-adv-x="741" 
d="M590 642l-348 -651h-52l348 651h52zM666 126l-10 -43h-45l-17 -83h-50l17 83h-166l-13 28l219 290l39 -21l-190 -254h120l15 72h50l-15 -72h46zM339 552q0 -34 -20 -60.5t-53 -40.5q24 -10 36.5 -29.5t12.5 -45.5q0 -33 -12.5 -58.5t-33.5 -43t-48.5 -27t-57.5 -9.5
q-56 0 -99 26l8 47q46 -30 92 -30q44 0 71.5 23.5t27.5 66.5q0 27 -18 41.5t-60 15.5l8 44q47 0 70.5 23t23.5 55q0 23 -14 36t-35 13q-51 0 -79 -58l-39 21q38 80 123 80q40 0 68 -23.5t28 -66.5z" />
    <glyph glyph-name="grave" unicode="`" 
d="M237 534q-22 24 -48 40.5t-58 16.5q-17 0 -39 -8q-5 8 -7 16t-2 14q0 20 14.5 33t37.5 13q20 0 38.5 -9.5t34.5 -24.5t28 -33t20 -34z" />
    <glyph glyph-name="acute" unicode="&#xb4;" 
d="M269 629q0 -11 -7.5 -24.5t-15.5 -21.5q-10 5 -20 6.5t-18 1.5q-34 0 -67 -17.5t-62 -39.5l-11 25q15 16 34 33.5t41 32.5t44 24.5t43 9.5q17 0 28 -6.5t11 -23.5z" />
    <glyph glyph-name="dieresis" unicode="&#xa8;" 
d="M145 618q0 -23 -17 -40.5t-42 -17.5q-17 0 -28.5 10t-11.5 28q0 23 17 41.5t43 18.5q17 0 28 -11.5t11 -28.5zM301 618q0 -23 -17 -40.5t-42 -17.5q-17 0 -28.5 10t-11.5 28q0 23 17 41.5t43 18.5q17 0 28 -11.5t11 -28.5z" />
    <glyph glyph-name="circumflex" unicode="&#x2c6;" 
d="M289 541h-59l-41 74l-74 -74h-65l100 100q11 11 17 14.5t17 3.5h21q9 0 14.5 -3.5t12.5 -15.5z" />
    <glyph glyph-name="tilde" unicode="&#x2dc;" 
d="M298 646q-11 -41 -33.5 -65.5t-56.5 -24.5q-17 0 -29 6.5t-25 15.5q-8 5 -16.5 10t-17.5 5q-11 0 -21.5 -8.5t-19.5 -28.5h-33q11 41 33.5 65.5t55.5 24.5q17 0 29.5 -6.5t23.5 -14.5q8 -5 15.5 -10.5t19.5 -5.5q11 0 21 8.5t21 28.5h33z" />
    <glyph glyph-name="macron" unicode="&#xaf;" 
d="M283 635l-11 -58h-214l12 58h213z" />
    <glyph glyph-name="breve" unicode="&#x2d8;" 
d="M293 650q-15 -57 -49.5 -82.5t-78.5 -25.5q-40 0 -64.5 24t-24.5 61q0 8 0.5 13t1.5 10h42q2 -28 16 -42.5t38 -14.5q48 0 75 57h44z" />
    <glyph glyph-name="dotaccent" unicode="&#x2d9;" 
d="M241 620q0 -27 -21.5 -48.5t-51.5 -21.5q-20 0 -33 13.5t-13 33.5q0 14 5.5 27t15.5 22.5t22.5 15.5t27.5 6q20 0 34 -13.5t14 -34.5z" />
    <glyph glyph-name="ring" unicode="&#x2da;" 
d="M258 640q0 -21 -8.5 -38.5t-22.5 -31t-32.5 -21t-38.5 -7.5q-28 0 -48.5 17.5t-20.5 47.5q0 21 8.5 38.5t22.5 30.5t33 20.5t39 7.5q28 0 48 -17t20 -47zM214 634q0 15 -8 24t-23 9q-23 0 -37.5 -15.5t-14.5 -36.5q0 -14 8.5 -24.5t23.5 -10.5q23 0 37 16t14 38z" />
    <glyph glyph-name="cedilla" unicode="&#xb8;" 
d="M150 -89q0 -23 -13 -38t-33 -23.5t-43.5 -12t-44.5 -3.5l-1 32q10 0 24.5 1.5t27 5t21.5 9t9 14.5q0 8 -10.5 12t-24.5 8q-26 8 -35.5 14t-9.5 18q0 20 20.5 41t50.5 46l36 -13q-24 -15 -38 -28.5t-14 -21.5q0 -6 7 -8.5t26 -8.5q20 -6 32.5 -14.5t12.5 -29.5z" />
    <glyph glyph-name="hungarumlaut" unicode="&#x2dd;" 
d="M178 629q0 -11 -7.5 -24.5t-15.5 -21.5q-8 3 -16.5 5.5t-15.5 2.5q-29 0 -55 -17t-49 -39l-10 24q16 19 32 37.5t32 32t32.5 22t33.5 8.5q14 0 26.5 -6.5t12.5 -23.5zM336 629q0 -11 -7.5 -24.5t-15.5 -21.5q-8 3 -16.5 5.5t-15.5 2.5q-29 0 -55 -17t-49 -39l-10 24
q16 19 32 37.5t32 32t32.5 22t33.5 8.5q14 0 26.5 -6.5t12.5 -23.5z" />
    <glyph glyph-name="ogonek" unicode="&#x2db;" 
d="M168 17q-38 -14 -63.5 -41.5t-25.5 -61.5q0 -28 23 -41.5t51 -18.5l-18 -29q-20 1 -39.5 5.5t-35 14.5t-25.5 25t-10 36q0 24 9.5 45.5t26 38.5t37.5 29t45 19z" />
    <glyph glyph-name="caron" unicode="&#x2c7;" 
d="M300 666l-99 -100q-11 -11 -17.5 -14.5t-17.5 -3.5h-21q-9 0 -14 4t-12 15l-57 99h61l41 -73l73 73h63z" />
    <glyph glyph-name="commaaccent" unicode="&#xf6c3;" 
d="M28 -188l53 143q12 5 34 3.5t35 -6.5l-70 -140h-52z" />
    <glyph glyph-name="grave.cap" 
d="M297 679q-22 24 -48 40.5t-58 16.5q-17 0 -39 -8q-5 8 -7 16t-2 14q0 20 14.5 33t37.5 13q20 0 38.5 -9.5t34.5 -24.5t28 -33t20 -34z" />
    <glyph glyph-name="acute.cap" 
d="M329 775q0 -11 -7.5 -24.5t-15.5 -21.5q-10 5 -20 6.5t-18 1.5q-34 0 -67 -17.5t-62 -39.5l-11 25q15 16 34 33.5t41 32.5t44 24.5t43 9.5q17 0 28 -6.5t11 -23.5z" />
    <glyph glyph-name="dieresis.cap" 
d="M205 768q0 -23 -17 -40.5t-42 -17.5q-17 0 -28.5 10t-11.5 28q0 23 17 41.5t43 18.5q17 0 28 -11.5t11 -28.5zM361 768q0 -23 -17 -40.5t-42 -17.5q-17 0 -28.5 10t-11.5 28q0 23 17 41.5t43 18.5q17 0 28 -11.5t11 -28.5z" />
    <glyph glyph-name="circumflex.cap" 
d="M349 691h-59l-41 74l-74 -74h-65l100 100q11 11 17 14.5t17 3.5h21q9 0 14.5 -3.5t12.5 -15.5z" />
    <glyph glyph-name="tilde.cap" 
d="M358 796q-11 -41 -33.5 -65.5t-56.5 -24.5q-17 0 -29 6.5t-25 15.5q-8 5 -16.5 10t-17.5 5q-11 0 -21.5 -8.5t-19.5 -28.5h-33q11 41 33.5 65.5t55.5 24.5q17 0 29.5 -6.5t23.5 -14.5q8 -5 15.5 -10.5t19.5 -5.5q11 0 21 8.5t21 28.5h33z" />
    <glyph glyph-name="macron.cap" 
d="M342 779l-11 -58h-214l12 58h213z" />
    <glyph glyph-name="breve.cap" 
d="M353 800q-15 -57 -49.5 -82.5t-78.5 -25.5q-40 0 -64.5 24t-24.5 61q0 8 0.5 13t1.5 10h42q2 -28 16 -42.5t38 -14.5q48 0 75 57h44z" />
    <glyph glyph-name="dotaccent.cap" 
d="M301 770q0 -14 -6 -26.5t-16 -22t-23.5 -15.5t-27.5 -6q-20 0 -33 13.5t-13 33.5q0 14 5.5 27t15.5 22.5t22.5 15.5t27.5 6q20 0 34 -13.5t14 -34.5z" />
    <glyph glyph-name="ring.cap" 
d="M318 787q0 -21 -8.5 -38.5t-22.5 -31t-32.5 -21t-38.5 -7.5q-28 0 -48.5 17.5t-20.5 47.5q0 21 8.5 38.5t22.5 30.5t33 20.5t39 7.5q28 0 48 -17t20 -47zM274 781q0 15 -8 24t-23 9q-23 0 -37.5 -15.5t-14.5 -36.5q0 -14 8.5 -24.5t23.5 -10.5q23 0 37 16t14 38z" />
    <glyph glyph-name="hungarumlaut.cap" 
d="M238 779q0 -11 -7.5 -24.5t-15.5 -21.5q-8 3 -16.5 5.5t-15.5 2.5q-29 0 -55 -17t-49 -39l-10 24q16 19 32 37.5t32 32t32.5 22t33.5 8.5q14 0 26.5 -6.5t12.5 -23.5zM396 779q0 -11 -7.5 -24.5t-15.5 -21.5q-8 3 -16.5 5.5t-15.5 2.5q-29 0 -55 -17t-49 -39l-10 24
q16 19 32 37.5t32 32t32.5 22t33.5 8.5q14 0 26.5 -6.5t12.5 -23.5z" />
    <glyph glyph-name="caron.cap" 
d="M360 816l-99 -100q-11 -11 -18 -14.5t-18 -3.5h-20q-9 0 -14 4t-12 15l-57 99h61l41 -73l73 73h63z" />
    <glyph glyph-name="Agrave" unicode="&#xc0;" horiz-adv-x="528" 
d="M204 623q16 5 36.5 8.5t39.5 3.5q47 0 72 -25q13 -14 20 -34t13 -56l81 -520h-69l-21 151h-262l-83 -151h-65l299 545q6 11 9 17t3 12q0 10 -18 10q-25 0 -64 -11zM369 201l-47 333l-181 -333h228zM392 679q-22 24 -48 40.5t-58 16.5q-17 0 -39 -8q-5 8 -7 16t-2 14
q0 20 14.5 33t37.5 13q20 0 38.5 -9.5t34.5 -24.5t28 -33t20 -34z" />
    <glyph glyph-name="Aacute" unicode="&#xc1;" horiz-adv-x="528" 
d="M204 623q16 5 36.5 8.5t39.5 3.5q47 0 72 -25q13 -14 20 -34t13 -56l81 -520h-69l-21 151h-262l-83 -151h-65l299 545q6 11 9 17t3 12q0 10 -18 10q-25 0 -64 -11zM369 201l-47 333l-181 -333h228zM425 775q0 -11 -7.5 -24.5t-15.5 -21.5q-10 5 -20 6.5t-18 1.5
q-34 0 -67 -17.5t-62 -39.5l-11 25q15 16 34 33.5t41 32.5t44 24.5t43 9.5q17 0 28 -6.5t11 -23.5z" />
    <glyph glyph-name="Acircumflex" unicode="&#xc2;" horiz-adv-x="528" 
d="M204 623q16 5 36.5 8.5t39.5 3.5q47 0 72 -25q13 -14 20 -34t13 -56l81 -520h-69l-21 151h-262l-83 -151h-65l299 545q6 11 9 17t3 12q0 10 -18 10q-25 0 -64 -11zM369 201l-47 333l-181 -333h228zM446 691h-59l-41 74l-74 -74h-65l100 100q11 11 17 14.5t17 3.5h21
q9 0 14.5 -3.5t12.5 -15.5z" />
    <glyph glyph-name="Atilde" unicode="&#xc3;" horiz-adv-x="528" 
d="M204 623q16 5 36.5 8.5t39.5 3.5q47 0 72 -25q13 -14 20 -34t13 -56l81 -520h-69l-21 151h-262l-83 -151h-65l299 545q6 11 9 17t3 12q0 10 -18 10q-25 0 -64 -11zM369 201l-47 333l-181 -333h228zM449 796q-11 -41 -33.5 -65.5t-56.5 -24.5q-17 0 -29 6.5t-25 15.5
q-8 5 -16.5 10t-17.5 5q-11 0 -21.5 -8.5t-19.5 -28.5h-33q11 41 33.5 65.5t55.5 24.5q17 0 29.5 -6.5t23.5 -14.5q8 -5 15.5 -10.5t19.5 -5.5q11 0 21 8.5t21 28.5h33z" />
    <glyph glyph-name="Adieresis" unicode="&#xc4;" horiz-adv-x="528" 
d="M204 623q16 5 36.5 8.5t39.5 3.5q47 0 72 -25q13 -14 20 -34t13 -56l81 -520h-69l-21 151h-262l-83 -151h-65l299 545q6 11 9 17t3 12q0 10 -18 10q-25 0 -64 -11zM369 201l-47 333l-181 -333h228zM295 768q0 -23 -17 -40.5t-42 -17.5q-17 0 -28.5 10t-11.5 28
q0 23 17 41.5t43 18.5q17 0 28 -11.5t11 -28.5zM451 768q0 -23 -17 -40.5t-42 -17.5q-17 0 -28.5 10t-11.5 28q0 23 17 41.5t43 18.5q17 0 28 -11.5t11 -28.5z" />
    <glyph glyph-name="Amacron" unicode="&#x100;" horiz-adv-x="528" 
d="M204 623q16 5 36.5 8.5t39.5 3.5q47 0 72 -25q13 -14 20 -34t13 -56l81 -520h-69l-21 151h-262l-83 -151h-65l299 545q6 11 9 17t3 12q0 10 -18 10q-25 0 -64 -11zM369 201l-47 333l-181 -333h228zM432 779l-11 -58h-214l12 58h213z" />
    <glyph glyph-name="Abreve" unicode="&#x102;" horiz-adv-x="528" 
d="M204 623q16 5 36.5 8.5t39.5 3.5q47 0 72 -25q13 -14 20 -34t13 -56l81 -520h-69l-21 151h-262l-83 -151h-65l299 545q6 11 9 17t3 12q0 10 -18 10q-25 0 -64 -11zM369 201l-47 333l-181 -333h228zM444 800q-15 -57 -49.5 -82.5t-78.5 -25.5q-40 0 -64.5 24t-24.5 61
q0 8 0.5 13t1.5 10h42q2 -28 16 -42.5t38 -14.5q48 0 75 57h44z" />
    <glyph glyph-name="Acaron" unicode="&#x1cd;" horiz-adv-x="528" 
d="M204 623q16 5 36.5 8.5t39.5 3.5q47 0 72 -25q13 -14 20 -34t13 -56l81 -520h-69l-21 151h-262l-83 -151h-65l299 545q6 11 9 17t3 12q0 10 -18 10q-25 0 -64 -11zM369 201l-47 333l-181 -333h228zM480 816l-99 -100q-11 -11 -18 -14.5t-18 -3.5h-20q-9 0 -14 4t-12 15
l-57 99h61l41 -73l73 73h63z" />
    <glyph glyph-name="Aring" unicode="&#xc5;" horiz-adv-x="528" 
d="M204 623q16 5 36.5 8.5t39.5 3.5q47 0 72 -25q13 -14 20 -34t13 -56l81 -520h-69l-21 151h-262l-83 -151h-65l299 545q6 11 9 17t3 12q0 10 -18 10q-25 0 -64 -11zM369 201l-47 333l-181 -333h228zM440 787q0 -21 -8.5 -38.5t-22.5 -31t-32.5 -21t-38.5 -7.5
q-28 0 -48.5 17.5t-20.5 47.5q0 21 8.5 38.5t22.5 30.5t33 20.5t39 7.5q28 0 48 -17t20 -47zM396 781q0 15 -8 24t-23 9q-23 0 -37.5 -15.5t-14.5 -36.5q0 -14 8.5 -24.5t23.5 -10.5q23 0 37 16t14 38z" />
    <glyph glyph-name="Aringacute" unicode="&#x1fa;" horiz-adv-x="528" 
d="M204 623q16 5 36.5 8.5t39.5 3.5q47 0 72 -25q13 -14 20 -34t13 -56l81 -520h-69l-21 151h-262l-83 -151h-65l299 545q6 11 9 17t3 12q0 10 -18 10q-25 0 -64 -11zM369 201l-47 333l-181 -333h228zM435 764q0 -21 -8.5 -38.5t-22.5 -31t-32.5 -21t-38.5 -7.5
q-28 0 -48.5 17.5t-20.5 47.5q0 21 8.5 38.5t22.5 30.5t33 20.5t39 7.5q28 0 48 -17t20 -47zM391 758q0 15 -8 24t-23 9q-23 0 -37.5 -15.5t-14.5 -36.5q0 -14 8.5 -24.5t23.5 -10.5q23 0 37 16t14 38zM501 930q0 -11 -7.5 -24.5t-15.5 -21.5q-10 5 -20 6.5t-18 1.5
q-34 0 -67 -17.5t-62 -39.5l-11 25q15 16 34 33.5t41 32.5t44 24.5t43 9.5q17 0 28 -6.5t11 -23.5z" />
    <glyph glyph-name="Aogonek" unicode="&#x104;" horiz-adv-x="529" 
d="M204 623q16 5 36.5 8.5t39.5 3.5q47 0 72 -25q13 -14 20 -34t13 -56l81 -520h-10q-17 0 -31 -7.5t-24.5 -20t-16.5 -27.5t-6 -30q0 -29 21 -42.5t53 -18.5l-18 -29q-51 5 -80.5 25t-29.5 59q0 35 20 63.5t50 46.5l-18 132h-262l-83 -151h-65l299 545q6 11 9 17t3 12
q0 10 -18 10q-25 0 -64 -11zM369 201l-47 333l-181 -333h228z" />
    <glyph glyph-name="AE" unicode="&#xc6;" horiz-adv-x="812" 
d="M375 582q-28 0 -48.5 -3.5t-36 -9t-28 -13t-23.5 -15.5l14 60q20 15 52 23.5t93 8.5h438l-11 -51h-279l-50 -235h228l-12 -51h-227l-52 -245h301l-10 -51h-370l33 152h-237l-118 -152h-75l460 582h-42zM475 568l-284 -366h206z" />
    <glyph glyph-name="AEacute" unicode="&#x1fc;" horiz-adv-x="812" 
d="M375 582q-28 0 -48.5 -3.5t-36 -9t-28 -13t-23.5 -15.5l14 60q20 15 52 23.5t93 8.5h438l-11 -51h-279l-50 -235h228l-12 -51h-227l-52 -245h301l-10 -51h-370l33 152h-237l-118 -152h-75l460 582h-42zM475 568l-284 -366h206zM736 775q0 -11 -7.5 -24.5t-15.5 -21.5
q-10 5 -20 6.5t-18 1.5q-34 0 -67 -17.5t-62 -39.5l-11 25q15 16 34 33.5t41 32.5t44 24.5t43 9.5q17 0 28 -6.5t11 -23.5z" />
    <glyph glyph-name="Cacute" unicode="&#x106;" horiz-adv-x="551" 
d="M557 473h-61q0 58 -29 87.5t-81 29.5q-67 0 -117 -40t-83 -99t-49 -125.5t-16 -120.5q0 -84 37 -122t109 -38q51 0 97.5 16t86.5 44l-14 -65q-38 -23 -84.5 -36t-92.5 -13q-104 0 -156.5 52t-52.5 155q0 74 22 153t65 143.5t106.5 106t146.5 41.5q77 0 121.5 -41
t44.5 -119v-9zM496 775q0 -11 -7.5 -24.5t-15.5 -21.5q-10 5 -20 6.5t-18 1.5q-34 0 -67 -17.5t-62 -39.5l-11 25q15 16 34 33.5t41 32.5t44 24.5t43 9.5q17 0 28 -6.5t11 -23.5z" />
    <glyph glyph-name="Ccedilla" unicode="&#xc7;" horiz-adv-x="551" 
d="M315 -89q0 -23 -13.5 -38t-33.5 -23.5t-43.5 -12t-44.5 -3.5v32q10 0 24.5 1.5t27 5t21.5 9t9 14.5q0 8 -9.5 11.5t-25.5 8.5q-26 8 -35.5 14t-9.5 18q0 11 7 23t19 24q-157 24 -157 203q0 74 22 153t65 143.5t106.5 106t146.5 41.5q77 0 121.5 -41t44.5 -119v-9h-61
q0 58 -29 87.5t-81 29.5q-67 0 -117 -40t-83 -99t-49 -125.5t-16 -120.5q0 -84 37 -122t109 -38q51 0 97.5 16t86.5 44l-14 -65q-38 -23 -84.5 -36t-92.5 -13h-12q-11 -11 -11 -19q0 -6 7 -8.5t26 -8.5q20 -6 32.5 -14.5t12.5 -29.5z" />
    <glyph glyph-name="Ccircumflex" unicode="&#x108;" horiz-adv-x="551" 
d="M557 473h-61q0 58 -29 87.5t-81 29.5q-67 0 -117 -40t-83 -99t-49 -125.5t-16 -120.5q0 -84 37 -122t109 -38q51 0 97.5 16t86.5 44l-14 -65q-38 -23 -84.5 -36t-92.5 -13q-104 0 -156.5 52t-52.5 155q0 74 22 153t65 143.5t106.5 106t146.5 41.5q77 0 121.5 -41
t44.5 -119v-9zM521 691h-59l-41 74l-74 -74h-65l100 100q11 11 17 14.5t17 3.5h21q9 0 14.5 -3.5t12.5 -15.5z" />
    <glyph glyph-name="Ccaron" unicode="&#x10c;" horiz-adv-x="551" 
d="M557 473h-61q0 58 -29 87.5t-81 29.5q-67 0 -117 -40t-83 -99t-49 -125.5t-16 -120.5q0 -84 37 -122t109 -38q51 0 97.5 16t86.5 44l-14 -65q-38 -23 -84.5 -36t-92.5 -13q-104 0 -156.5 52t-52.5 155q0 74 22 153t65 143.5t106.5 106t146.5 41.5q77 0 121.5 -41
t44.5 -119v-9zM535 816l-99 -100q-11 -11 -18 -14.5t-18 -3.5h-20q-9 0 -14 4t-12 15l-57 99h61l41 -73l73 73h63z" />
    <glyph glyph-name="Cdotaccent" unicode="&#x10a;" horiz-adv-x="551" 
d="M557 473h-61q0 58 -29 87.5t-81 29.5q-67 0 -117 -40t-83 -99t-49 -125.5t-16 -120.5q0 -84 37 -122t109 -38q51 0 97.5 16t86.5 44l-14 -65q-38 -23 -84.5 -36t-92.5 -13q-104 0 -156.5 52t-52.5 155q0 74 22 153t65 143.5t106.5 106t146.5 41.5q77 0 121.5 -41
t44.5 -119v-9zM478 770q0 -14 -6 -26.5t-16 -22t-23.5 -15.5t-27.5 -6q-20 0 -33 13.5t-13 33.5q0 14 5.5 27t15.5 22.5t22.5 15.5t27.5 6q20 0 34 -13.5t14 -34.5z" />
    <glyph glyph-name="Dcaron" unicode="&#x10e;" horiz-adv-x="618" 
d="M300 633q62 0 116.5 -7.5t94.5 -30t63 -64.5t23 -110q0 -47 -9.5 -100.5t-29.5 -104.5t-51 -95t-73 -71q-45 -28 -100 -39t-118 -11h-158l124 582q-27 0 -46.5 -3.5t-34.5 -9t-27 -13t-24 -15.5l14 60q21 17 52.5 24.5t92.5 7.5h91zM526 420q0 44 -13 75t-36 48
q-28 21 -69.5 30t-107.5 9h-50l-113 -531h73q61 0 109.5 11t83.5 38q32 24 55.5 63.5t38.5 84.5t22 90.5t7 81.5zM519 816l-99 -100q-11 -11 -18 -14.5t-18 -3.5h-20q-9 0 -14 4t-12 15l-57 99h61l41 -73l73 73h63z" />
    <glyph glyph-name="Dcroat" unicode="&#x110;" horiz-adv-x="618" 
d="M300 633q62 0 116.5 -7.5t94.5 -30t63 -64.5t23 -110q0 -47 -9.5 -100.5t-29.5 -104.5t-51 -95t-73 -71q-45 -28 -100 -39t-118 -11h-158l64 302h-78l11 52h78l49 228q-27 0 -46.5 -3.5t-34.5 -9t-27 -13t-24 -15.5l14 60q21 17 52.5 24.5t92.5 7.5h91zM526 420
q0 44 -13 75t-36 48q-28 21 -69.5 30t-107.5 9h-50l-49 -228h98l-10 -52h-99l-53 -251h73q61 0 109.5 11t83.5 38q32 24 55.5 63.5t38.5 84.5t22 90.5t7 81.5z" />
    <glyph glyph-name="Eth" unicode="&#xd0;" horiz-adv-x="618" 
d="M300 633q62 0 116.5 -7.5t94.5 -30t63 -64.5t23 -110q0 -47 -9.5 -100.5t-29.5 -104.5t-51 -95t-73 -71q-45 -28 -100 -39t-118 -11h-158l64 302h-78l11 52h78l49 228q-27 0 -46.5 -3.5t-34.5 -9t-27 -13t-24 -15.5l14 60q21 17 52.5 24.5t92.5 7.5h91zM526 420
q0 44 -13 75t-36 48q-28 21 -69.5 30t-107.5 9h-50l-49 -228h98l-10 -52h-99l-53 -251h73q61 0 109.5 11t83.5 38q32 24 55.5 63.5t38.5 84.5t22 90.5t7 81.5z" />
    <glyph glyph-name="Egrave" unicode="&#xc8;" horiz-adv-x="518" 
d="M540 633l-11 -51h-279l-50 -235h228l-12 -51h-227l-52 -245h301l-10 -51h-370l124 582q-27 0 -46.5 -3.5t-34.5 -9t-27 -13t-24 -15.5l14 60q20 15 52 23.5t93 8.5h331zM410 679q-22 24 -48 40.5t-58 16.5q-17 0 -39 -8q-5 8 -7 16t-2 14q0 20 14.5 33t37.5 13
q20 0 38.5 -9.5t34.5 -24.5t28 -33t20 -34z" />
    <glyph glyph-name="Eacute" unicode="&#xc9;" horiz-adv-x="518" 
d="M540 633l-11 -51h-279l-50 -235h228l-12 -51h-227l-52 -245h301l-10 -51h-370l124 582q-27 0 -46.5 -3.5t-34.5 -9t-27 -13t-24 -15.5l14 60q20 15 52 23.5t93 8.5h331zM460 775q0 -11 -7.5 -24.5t-15.5 -21.5q-10 5 -20 6.5t-18 1.5q-34 0 -67 -17.5t-62 -39.5l-11 25
q15 16 34 33.5t41 32.5t44 24.5t43 9.5q17 0 28 -6.5t11 -23.5z" />
    <glyph glyph-name="Ecircumflex" unicode="&#xca;" horiz-adv-x="518" 
d="M540 633l-11 -51h-279l-50 -235h228l-12 -51h-227l-52 -245h301l-10 -51h-370l124 582q-27 0 -46.5 -3.5t-34.5 -9t-27 -13t-24 -15.5l14 60q20 15 52 23.5t93 8.5h331zM473 691h-59l-41 74l-74 -74h-65l100 100q11 11 17 14.5t17 3.5h21q9 0 14.5 -3.5t12.5 -15.5z" />
    <glyph glyph-name="Ecaron" unicode="&#x11a;" horiz-adv-x="518" 
d="M540 633l-11 -51h-279l-50 -235h228l-12 -51h-227l-52 -245h301l-10 -51h-370l124 582q-27 0 -46.5 -3.5t-34.5 -9t-27 -13t-24 -15.5l14 60q20 15 52 23.5t93 8.5h331zM481 816l-99 -100q-11 -11 -18 -14.5t-18 -3.5h-20q-9 0 -14 4t-12 15l-57 99h61l41 -73l73 73h63z
" />
    <glyph glyph-name="Edieresis" unicode="&#xcb;" horiz-adv-x="518" 
d="M540 633l-11 -51h-279l-50 -235h228l-12 -51h-227l-52 -245h301l-10 -51h-370l124 582q-27 0 -46.5 -3.5t-34.5 -9t-27 -13t-24 -15.5l14 60q20 15 52 23.5t93 8.5h331zM331 768q0 -23 -17 -40.5t-42 -17.5q-17 0 -28.5 10t-11.5 28q0 23 17 41.5t43 18.5q17 0 28 -11.5
t11 -28.5zM487 768q0 -23 -17 -40.5t-42 -17.5q-17 0 -28.5 10t-11.5 28q0 23 17 41.5t43 18.5q17 0 28 -11.5t11 -28.5z" />
    <glyph glyph-name="Emacron" unicode="&#x112;" horiz-adv-x="518" 
d="M540 633l-11 -51h-279l-50 -235h228l-12 -51h-227l-52 -245h301l-10 -51h-370l124 582q-27 0 -46.5 -3.5t-34.5 -9t-27 -13t-24 -15.5l14 60q20 15 52 23.5t93 8.5h331zM473 779l-11 -58h-214l12 58h213z" />
    <glyph glyph-name="Ebreve" unicode="&#x114;" horiz-adv-x="518" 
d="M540 633l-11 -51h-279l-50 -235h228l-12 -51h-227l-52 -245h301l-10 -51h-370l124 582q-27 0 -46.5 -3.5t-34.5 -9t-27 -13t-24 -15.5l14 60q20 15 52 23.5t93 8.5h331zM469 800q-15 -57 -49.5 -82.5t-78.5 -25.5q-40 0 -64.5 24t-24.5 61q0 8 0.5 13t1.5 10h42
q2 -28 16 -42.5t38 -14.5q48 0 75 57h44z" />
    <glyph glyph-name="Edotaccent" unicode="&#x116;" horiz-adv-x="518" 
d="M540 633l-11 -51h-279l-50 -235h228l-12 -51h-227l-52 -245h301l-10 -51h-370l124 582q-27 0 -46.5 -3.5t-34.5 -9t-27 -13t-24 -15.5l14 60q20 15 52 23.5t93 8.5h331zM421 770q0 -14 -6 -26.5t-16 -22t-23.5 -15.5t-27.5 -6q-20 0 -33 13.5t-13 33.5q0 14 5.5 27
t15.5 22.5t22.5 15.5t27.5 6q20 0 34 -13.5t14 -34.5z" />
    <glyph glyph-name="Eogonek" unicode="&#x118;" horiz-adv-x="518" 
d="M540 633l-11 -51h-279l-50 -235h228l-12 -51h-227l-52 -245h301l-10 -51h-104q-25 -16 -40 -38t-15 -48q0 -28 23 -41.5t51 -18.5l-18 -29q-20 1 -39.5 5.5t-35 14.5t-25.5 25t-10 36q0 29 12.5 52.5t33.5 41.5h-203l124 582q-27 0 -46.5 -3.5t-34.5 -9t-27 -13
t-24 -15.5l14 60q20 15 52 23.5t93 8.5h331z" />
    <glyph glyph-name="Gcircumflex" unicode="&#x11c;" horiz-adv-x="562" 
d="M554 471h-61q0 57 -29 87.5t-81 30.5q-43 0 -79.5 -18t-62.5 -46q-29 -30 -51.5 -69.5t-37.5 -83t-23 -88.5t-8 -86q0 -71 32 -112.5t109 -41.5q38 0 75.5 13t62.5 32l29 136h-90l9 47h156l-58 -272h-49l1 37q-28 -19 -68 -32.5t-83 -13.5q-99 0 -147.5 54.5t-48.5 149.5
q0 47 9 97t27 98.5t44.5 92t61.5 78.5q37 35 86 58t109 23q35 0 65 -10t52.5 -30.5t35.5 -50.5t13 -70v-10zM516 691h-59l-41 74l-74 -74h-65l100 100q11 11 17 14.5t17 3.5h21q9 0 14.5 -3.5t12.5 -15.5z" />
    <glyph glyph-name="Gbreve" unicode="&#x11e;" horiz-adv-x="562" 
d="M554 471h-61q0 57 -29 87.5t-81 30.5q-43 0 -79.5 -18t-62.5 -46q-29 -30 -51.5 -69.5t-37.5 -83t-23 -88.5t-8 -86q0 -71 32 -112.5t109 -41.5q38 0 75.5 13t62.5 32l29 136h-90l9 47h156l-58 -272h-49l1 37q-28 -19 -68 -32.5t-83 -13.5q-99 0 -147.5 54.5t-48.5 149.5
q0 47 9 97t27 98.5t44.5 92t61.5 78.5q37 35 86 58t109 23q35 0 65 -10t52.5 -30.5t35.5 -50.5t13 -70v-10zM526 800q-15 -57 -49.5 -82.5t-78.5 -25.5q-40 0 -64.5 24t-24.5 61q0 8 0.5 13t1.5 10h42q2 -28 16 -42.5t38 -14.5q48 0 75 57h44z" />
    <glyph glyph-name="Gdotaccent" unicode="&#x120;" horiz-adv-x="562" 
d="M554 471h-61q0 57 -29 87.5t-81 30.5q-43 0 -79.5 -18t-62.5 -46q-29 -30 -51.5 -69.5t-37.5 -83t-23 -88.5t-8 -86q0 -71 32 -112.5t109 -41.5q38 0 75.5 13t62.5 32l29 136h-90l9 47h156l-58 -272h-49l1 37q-28 -19 -68 -32.5t-83 -13.5q-99 0 -147.5 54.5t-48.5 149.5
q0 47 9 97t27 98.5t44.5 92t61.5 78.5q37 35 86 58t109 23q35 0 65 -10t52.5 -30.5t35.5 -50.5t13 -70v-10zM464 770q0 -14 -6 -26.5t-16 -22t-23.5 -15.5t-27.5 -6q-20 0 -33 13.5t-13 33.5q0 14 5.5 27t15.5 22.5t22.5 15.5t27.5 6q20 0 34 -13.5t14 -34.5z" />
    <glyph glyph-name="Gcommaaccent" unicode="&#x122;" horiz-adv-x="562" 
d="M554 471h-61q0 57 -29 87.5t-81 30.5q-43 0 -79.5 -18t-62.5 -46q-29 -30 -51.5 -69.5t-37.5 -83t-23 -88.5t-8 -86q0 -71 32 -112.5t109 -41.5q38 0 75.5 13t62.5 32l29 136h-90l9 47h156l-58 -272h-49l1 37q-28 -19 -68 -32.5t-83 -13.5q-99 0 -147.5 54.5t-48.5 149.5
q0 47 9 97t27 98.5t44.5 92t61.5 78.5q37 35 86 58t109 23q35 0 65 -10t52.5 -30.5t35.5 -50.5t13 -70v-10zM156 -188l53 143q12 5 34 3.5t35 -6.5l-70 -140h-52z" />
    <glyph glyph-name="Hcircumflex" unicode="&#x124;" horiz-adv-x="599" 
d="M147 514q4 17 6.5 31t2.5 22q0 17 -25 17q-11 0 -27 -3.5t-33 -8.5l12 51q14 5 32.5 9t36.5 4q38 0 55.5 -13.5t17.5 -41.5q0 -10 -3 -29.5t-7 -37.5l-36 -170h295l61 289h68l-134 -633h-68l61 288h-295l-61 -288h-68zM499 691h-59l-41 74l-74 -74h-65l100 100
q11 11 17 14.5t17 3.5h21q9 0 14.5 -3.5t12.5 -15.5z" />
    <glyph glyph-name="Hbar" unicode="&#x126;" horiz-adv-x="599" 
d="M133 448h-75l11 52h75l3 14q4 17 6.5 31t2.5 22q0 17 -25 17q-11 0 -27 -3.5t-33 -8.5l12 51q14 5 32.5 9t36.5 4q38 0 55.5 -13.5t17.5 -41.5q0 -10 -2.5 -28t-7.5 -39l-3 -14h295l28 133h68l-28 -133h74l-11 -52h-74l-95 -448h-68l61 288h-295l-61 -288h-68zM474 344
l22 104h-295l-22 -104h295z" />
    <glyph glyph-name="Igrave" unicode="&#xcc;" horiz-adv-x="275" 
d="M-5 46h67l115 541h-66l8 46h202l-9 -46h-67l-115 -541q32 2 52.5 6t33.5 12l-12 -53q-19 -6 -48 -8.5t-80 -2.5h-90zM298 679q-22 24 -48 40.5t-58 16.5q-17 0 -39 -8q-5 8 -7 16t-2 14q0 20 14.5 33t37.5 13q20 0 38.5 -9.5t34.5 -24.5t28 -33t20 -34z" />
    <glyph glyph-name="Iacute" unicode="&#xcd;" horiz-adv-x="275" 
d="M-5 46h67l115 541h-66l8 46h202l-9 -46h-67l-115 -541q32 2 52.5 6t33.5 12l-12 -53q-19 -6 -48 -8.5t-80 -2.5h-90zM347 775q0 -11 -7.5 -24.5t-15.5 -21.5q-10 5 -20 6.5t-18 1.5q-34 0 -67 -17.5t-62 -39.5l-11 25q15 16 34 33.5t41 32.5t44 24.5t43 9.5q17 0 28 -6.5
t11 -23.5z" />
    <glyph glyph-name="Icircumflex" unicode="&#xce;" horiz-adv-x="275" 
d="M-5 46h67l115 541h-66l8 46h202l-9 -46h-67l-115 -541q32 2 52.5 6t33.5 12l-12 -53q-19 -6 -48 -8.5t-80 -2.5h-90zM349 691h-59l-41 74l-74 -74h-65l100 100q11 11 17 14.5t17 3.5h21q9 0 14.5 -3.5t12.5 -15.5z" />
    <glyph glyph-name="Itilde" unicode="&#x128;" horiz-adv-x="275" 
d="M-5 46h67l115 541h-66l8 46h202l-9 -46h-67l-115 -541q32 2 52.5 6t33.5 12l-12 -53q-19 -6 -48 -8.5t-80 -2.5h-90zM370 796q-11 -41 -33.5 -65.5t-56.5 -24.5q-17 0 -29 6.5t-25 15.5q-8 5 -16.5 10t-17.5 5q-11 0 -21.5 -8.5t-19.5 -28.5h-33q11 41 33.5 65.5
t55.5 24.5q17 0 29.5 -6.5t23.5 -14.5q8 -5 15.5 -10.5t19.5 -5.5q11 0 21 8.5t21 28.5h33z" />
    <glyph glyph-name="Idieresis" unicode="&#xcf;" horiz-adv-x="275" 
d="M-5 46h67l115 541h-66l8 46h202l-9 -46h-67l-115 -541q32 2 52.5 6t33.5 12l-12 -53q-19 -6 -48 -8.5t-80 -2.5h-90zM216 768q0 -23 -17 -40.5t-42 -17.5q-17 0 -28.5 10t-11.5 28q0 23 17 41.5t43 18.5q17 0 28 -11.5t11 -28.5zM372 768q0 -23 -17 -40.5t-42 -17.5
q-17 0 -28.5 10t-11.5 28q0 23 17 41.5t43 18.5q17 0 28 -11.5t11 -28.5z" />
    <glyph glyph-name="Imacron" unicode="&#x12a;" horiz-adv-x="275" 
d="M-5 46h67l115 541h-66l8 46h202l-9 -46h-67l-115 -541q32 2 52.5 6t33.5 12l-12 -53q-19 -6 -48 -8.5t-80 -2.5h-90zM356 779l-11 -58h-214l12 58h213z" />
    <glyph glyph-name="Ibreve" unicode="&#x12c;" horiz-adv-x="275" 
d="M-5 46h67l115 541h-66l8 46h202l-9 -46h-67l-115 -541q32 2 52.5 6t33.5 12l-12 -53q-19 -6 -48 -8.5t-80 -2.5h-90zM361 800q-15 -57 -49.5 -82.5t-78.5 -25.5q-40 0 -64.5 24t-24.5 61q0 8 0.5 13t1.5 10h42q2 -28 16 -42.5t38 -14.5q48 0 75 57h44z" />
    <glyph glyph-name="Idotaccent" unicode="&#x130;" horiz-adv-x="275" 
d="M-5 46h67l115 541h-66l8 46h202l-9 -46h-67l-115 -541q32 2 52.5 6t33.5 12l-12 -53q-19 -6 -48 -8.5t-80 -2.5h-90zM306 770q0 -14 -6 -26.5t-16 -22t-23.5 -15.5t-27.5 -6q-20 0 -33 13.5t-13 33.5q0 14 5.5 27t15.5 22.5t22.5 15.5t27.5 6q20 0 34 -13.5t14 -34.5z
" />
    <glyph glyph-name="Iogonek" unicode="&#x12e;" horiz-adv-x="269" 
d="M-5 46h67l115 541h-66l8 46h202l-9 -46h-67l-115 -541q32 2 52.5 6t33.5 12l-12 -53q-12 -5 -25 -6q-22 -2 -38 -11.5t-26.5 -22.5t-16 -28.5t-5.5 -28.5q0 -28 23 -41.5t51 -18.5l-18 -29q-20 1 -39.5 5.5t-35 14.5t-25.5 25t-10 36q0 29 12.5 52.5t33.5 41.5h-99z" />
    <glyph glyph-name="IJ" unicode="&#x132;" horiz-adv-x="649" 
d="M-5 46h67l115 541h-66l8 46h202l-9 -46h-67l-115 -541q32 2 52.5 6t33.5 12l-12 -53q-19 -6 -48 -8.5t-80 -2.5h-90zM553 177q-9 -42 -23.5 -76.5t-34.5 -56.5q-23 -26 -56.5 -39.5t-75.5 -13.5q-29 0 -59 6.5t-49 17.5l11 51q22 -11 45 -17.5t46 -6.5q30 0 51 8.5
t35.5 25t24 42t17.5 60.5l86 404h-41q-29 0 -50.5 -3t-37.5 -8.5t-28.5 -13t-24.5 -16.5l14 60q20 16 52 24t93 8h101z" />
    <glyph glyph-name="Jcircumflex" unicode="&#x134;" horiz-adv-x="374" 
d="M278 177q-9 -42 -23.5 -76.5t-34.5 -56.5q-23 -26 -56.5 -39.5t-75.5 -13.5q-29 0 -59 6.5t-49 17.5l11 51q22 -11 45 -17.5t46 -6.5q30 0 51 8.5t35.5 25t24 42t17.5 60.5l86 404h-41q-29 0 -50.5 -3t-37.5 -8.5t-28.5 -13t-24.5 -16.5l14 60q20 16 52 24t93 8h101z
M385 691h-59l-41 74l-74 -74h-65l100 100q11 11 17 14.5t17 3.5h21q9 0 14.5 -3.5t12.5 -15.5z" />
    <glyph glyph-name="Kcommaaccent" unicode="&#x136;" horiz-adv-x="522" 
d="M551 633l-242 -314l91 -241q8 -20 17 -28.5t26 -8.5q11 0 24.5 4.5t25.5 11.5l-11 -49q-11 -8 -26.5 -12.5t-31.5 -4.5q-35 0 -54 16.5t-31 48.5l-89 235h-86l-62 -291h-69l136 633h68l-61 -289h88l219 289h68zM138 -188l53 143q12 5 34 3.5t35 -6.5l-70 -140h-52z" />
    <glyph glyph-name="Lacute" unicode="&#x139;" horiz-adv-x="443" 
d="M395 51l-10 -51h-352l134 633h68l-123 -582h283zM338 775q0 -11 -7.5 -24.5t-15.5 -21.5q-10 5 -20 6.5t-18 1.5q-34 0 -67 -17.5t-62 -39.5l-11 25q15 16 34 33.5t41 32.5t44 24.5t43 9.5q17 0 28 -6.5t11 -23.5z" />
    <glyph glyph-name="Lcaron" unicode="&#x13d;" horiz-adv-x="443" 
d="M395 51l-10 -51h-352l134 633h68l-123 -582h283zM251 501l53 143q12 5 34 3.5t35 -6.5l-70 -140h-52z" />
    <glyph glyph-name="Lcommaaccent" unicode="&#x13b;" horiz-adv-x="443" 
d="M395 51l-10 -51h-352l134 633h68l-123 -582h283zM123 -188l53 143q12 5 34 3.5t35 -6.5l-70 -140h-52z" />
    <glyph glyph-name="Lslash" unicode="&#x141;" horiz-adv-x="443" 
d="M395 51l-10 -51h-352l61 289l-89 -30l15 63l88 32l59 279h68l-54 -255l154 56l-15 -64l-152 -55l-56 -264h283z" />
    <glyph glyph-name="Ldot" unicode="&#x13f;" horiz-adv-x="443" 
d="M410 345q0 -14 -6.5 -26.5t-17 -22.5t-24 -15.5t-26.5 -5.5q-20 0 -33 13.5t-13 33.5q0 13 6 26t16 22.5t22.5 15.5t26.5 6q20 0 34.5 -13.5t14.5 -33.5zM395 51l-10 -51h-352l134 633h68l-123 -582h283z" />
    <glyph glyph-name="Nacute" unicode="&#x143;" horiz-adv-x="625" 
d="M621 633l-134 -633h-49l-193 430q-11 25 -21 48.5t-18 43.5q-5 -32 -10.5 -59.5t-11.5 -56.5l-86 -406h-60l108 512q4 18 6.5 31.5t2.5 20.5q0 8 -4 14.5t-15 6.5q-12 0 -29 -3t-31 -8l11 51q15 5 32.5 7.5t33.5 2.5q19 0 33.5 -3.5t26.5 -13t22.5 -26t22.5 -41.5
l151 -332q14 -30 23.5 -55t17.5 -48l110 517h61zM518 775q0 -11 -7.5 -24.5t-15.5 -21.5q-10 5 -20 6.5t-18 1.5q-34 0 -67 -17.5t-62 -39.5l-11 25q15 16 34 33.5t41 32.5t44 24.5t43 9.5q17 0 28 -6.5t11 -23.5z" />
    <glyph glyph-name="Ncaron" unicode="&#x147;" horiz-adv-x="625" 
d="M621 633l-134 -633h-49l-193 430q-11 25 -21 48.5t-18 43.5q-5 -32 -10.5 -59.5t-11.5 -56.5l-86 -406h-60l108 512q4 18 6.5 31.5t2.5 20.5q0 8 -4 14.5t-15 6.5q-12 0 -29 -3t-31 -8l11 51q15 5 32.5 7.5t33.5 2.5q19 0 33.5 -3.5t26.5 -13t22.5 -26t22.5 -41.5
l151 -332q14 -30 23.5 -55t17.5 -48l110 517h61zM532 816l-99 -100q-11 -11 -18 -14.5t-18 -3.5h-20q-9 0 -14 4t-12 15l-57 99h61l41 -73l73 73h63z" />
    <glyph glyph-name="Ntilde" unicode="&#xd1;" horiz-adv-x="625" 
d="M621 633l-134 -633h-49l-193 430q-11 25 -21 48.5t-18 43.5q-5 -32 -10.5 -59.5t-11.5 -56.5l-86 -406h-60l108 512q4 18 6.5 31.5t2.5 20.5q0 8 -4 14.5t-15 6.5q-12 0 -29 -3t-31 -8l11 51q15 5 32.5 7.5t33.5 2.5q19 0 33.5 -3.5t26.5 -13t22.5 -26t22.5 -41.5
l151 -332q14 -30 23.5 -55t17.5 -48l110 517h61zM533 796q-11 -41 -33.5 -65.5t-56.5 -24.5q-17 0 -29 6.5t-25 15.5q-8 5 -16.5 10t-17.5 5q-11 0 -21.5 -8.5t-19.5 -28.5h-33q11 41 33.5 65.5t55.5 24.5q17 0 29.5 -6.5t23.5 -14.5q8 -5 15.5 -10.5t19.5 -5.5q11 0 21 8.5
t21 28.5h33z" />
    <glyph glyph-name="Ncommaaccent" unicode="&#x145;" horiz-adv-x="625" 
d="M621 633l-134 -633h-49l-193 430q-11 25 -21 48.5t-18 43.5q-5 -32 -10.5 -59.5t-11.5 -56.5l-86 -406h-60l108 512q4 18 6.5 31.5t2.5 20.5q0 8 -4 14.5t-15 6.5q-12 0 -29 -3t-31 -8l11 51q15 5 32.5 7.5t33.5 2.5q19 0 33.5 -3.5t26.5 -13t22.5 -26t22.5 -41.5
l151 -332q14 -30 23.5 -55t17.5 -48l110 517h61zM179 -188l53 143q12 5 34 3.5t35 -6.5l-70 -140h-52z" />
    <glyph glyph-name="Eng" unicode="&#x14a;" horiz-adv-x="624" 
d="M245 430q-11 25 -21 48.5t-18 43.5q-5 -32 -10.5 -59.5t-11.5 -56.5l-86 -406h-60l108 512q4 18 6.5 31.5t2.5 20.5q0 8 -4 14.5t-15 6.5q-12 0 -29 -3t-31 -8l11 51q15 5 32.5 7.5t33.5 2.5q19 0 33.5 -3.5t26.5 -13t22.5 -26t22.5 -41.5l151 -332q14 -30 23.5 -55
t17.5 -48l110 517h61l-111 -521q-13 -62 -24.5 -99.5t-22.5 -60.5q-37 -73 -110 -109l-41 28q48 29 75.5 63.5t41.5 86.5z" />
    <glyph glyph-name="Ograve" unicode="&#xd2;" horiz-adv-x="587" 
d="M566 438q0 -46 -9.5 -96.5t-28 -100t-46 -95t-64 -80t-81 -55t-97.5 -20.5q-97 0 -143 56.5t-46 149.5q0 48 9.5 100t28 101.5t46.5 93.5t64.5 77.5t81.5 53t99 19.5q48 0 83 -15t58 -42t34 -64.5t11 -82.5zM496 435q0 30 -6 57.5t-20.5 49t-37 34.5t-55.5 13
q-43 0 -79 -19t-64.5 -50t-49.5 -72t-35 -84t-21 -86t-7 -79q0 -69 29.5 -112t92.5 -43q43 0 78.5 19t64 51t49 73t34.5 84t20.5 86t6.5 78zM481 679q-22 24 -48 40.5t-58 16.5q-17 0 -39 -8q-5 8 -7 16t-2 14q0 20 14.5 33t37.5 13q20 0 38.5 -9.5t34.5 -24.5t28 -33
t20 -34z" />
    <glyph glyph-name="Oacute" unicode="&#xd3;" horiz-adv-x="587" 
d="M566 438q0 -46 -9.5 -96.5t-28 -100t-46 -95t-64 -80t-81 -55t-97.5 -20.5q-97 0 -143 56.5t-46 149.5q0 48 9.5 100t28 101.5t46.5 93.5t64.5 77.5t81.5 53t99 19.5q48 0 83 -15t58 -42t34 -64.5t11 -82.5zM496 435q0 30 -6 57.5t-20.5 49t-37 34.5t-55.5 13
q-43 0 -79 -19t-64.5 -50t-49.5 -72t-35 -84t-21 -86t-7 -79q0 -69 29.5 -112t92.5 -43q43 0 78.5 19t64 51t49 73t34.5 84t20.5 86t6.5 78zM510 775q0 -11 -7.5 -24.5t-15.5 -21.5q-10 5 -20 6.5t-18 1.5q-34 0 -67 -17.5t-62 -39.5l-11 25q15 16 34 33.5t41 32.5t44 24.5
t43 9.5q17 0 28 -6.5t11 -23.5z" />
    <glyph glyph-name="Ocircumflex" unicode="&#xd4;" horiz-adv-x="587" 
d="M566 438q0 -46 -9.5 -96.5t-28 -100t-46 -95t-64 -80t-81 -55t-97.5 -20.5q-97 0 -143 56.5t-46 149.5q0 48 9.5 100t28 101.5t46.5 93.5t64.5 77.5t81.5 53t99 19.5q48 0 83 -15t58 -42t34 -64.5t11 -82.5zM496 435q0 30 -6 57.5t-20.5 49t-37 34.5t-55.5 13
q-43 0 -79 -19t-64.5 -50t-49.5 -72t-35 -84t-21 -86t-7 -79q0 -69 29.5 -112t92.5 -43q43 0 78.5 19t64 51t49 73t34.5 84t20.5 86t6.5 78zM519 691h-59l-41 74l-74 -74h-65l100 100q11 11 17 14.5t17 3.5h21q9 0 14.5 -3.5t12.5 -15.5z" />
    <glyph glyph-name="Otilde" unicode="&#xd5;" horiz-adv-x="587" 
d="M566 438q0 -46 -9.5 -96.5t-28 -100t-46 -95t-64 -80t-81 -55t-97.5 -20.5q-97 0 -143 56.5t-46 149.5q0 48 9.5 100t28 101.5t46.5 93.5t64.5 77.5t81.5 53t99 19.5q48 0 83 -15t58 -42t34 -64.5t11 -82.5zM496 435q0 30 -6 57.5t-20.5 49t-37 34.5t-55.5 13
q-43 0 -79 -19t-64.5 -50t-49.5 -72t-35 -84t-21 -86t-7 -79q0 -69 29.5 -112t92.5 -43q43 0 78.5 19t64 51t49 73t34.5 84t20.5 86t6.5 78zM539 796q-11 -41 -33.5 -65.5t-56.5 -24.5q-17 0 -29 6.5t-25 15.5q-8 5 -16.5 10t-17.5 5q-11 0 -21.5 -8.5t-19.5 -28.5h-33
q11 41 33.5 65.5t55.5 24.5q17 0 29.5 -6.5t23.5 -14.5q8 -5 15.5 -10.5t19.5 -5.5q11 0 21 8.5t21 28.5h33z" />
    <glyph glyph-name="Odieresis" unicode="&#xd6;" horiz-adv-x="587" 
d="M566 438q0 -46 -9.5 -96.5t-28 -100t-46 -95t-64 -80t-81 -55t-97.5 -20.5q-97 0 -143 56.5t-46 149.5q0 48 9.5 100t28 101.5t46.5 93.5t64.5 77.5t81.5 53t99 19.5q48 0 83 -15t58 -42t34 -64.5t11 -82.5zM496 435q0 30 -6 57.5t-20.5 49t-37 34.5t-55.5 13
q-43 0 -79 -19t-64.5 -50t-49.5 -72t-35 -84t-21 -86t-7 -79q0 -69 29.5 -112t92.5 -43q43 0 78.5 19t64 51t49 73t34.5 84t20.5 86t6.5 78zM380 768q0 -23 -17 -40.5t-42 -17.5q-17 0 -28.5 10t-11.5 28q0 23 17 41.5t43 18.5q17 0 28 -11.5t11 -28.5zM536 768
q0 -23 -17 -40.5t-42 -17.5q-17 0 -28.5 10t-11.5 28q0 23 17 41.5t43 18.5q17 0 28 -11.5t11 -28.5z" />
    <glyph glyph-name="Omacron" unicode="&#x14c;" horiz-adv-x="587" 
d="M566 438q0 -46 -9.5 -96.5t-28 -100t-46 -95t-64 -80t-81 -55t-97.5 -20.5q-97 0 -143 56.5t-46 149.5q0 48 9.5 100t28 101.5t46.5 93.5t64.5 77.5t81.5 53t99 19.5q48 0 83 -15t58 -42t34 -64.5t11 -82.5zM496 435q0 30 -6 57.5t-20.5 49t-37 34.5t-55.5 13
q-43 0 -79 -19t-64.5 -50t-49.5 -72t-35 -84t-21 -86t-7 -79q0 -69 29.5 -112t92.5 -43q43 0 78.5 19t64 51t49 73t34.5 84t20.5 86t6.5 78zM511 779l-11 -58h-214l12 58h213z" />
    <glyph glyph-name="Obreve" unicode="&#x14e;" horiz-adv-x="587" 
d="M566 438q0 -46 -9.5 -96.5t-28 -100t-46 -95t-64 -80t-81 -55t-97.5 -20.5q-97 0 -143 56.5t-46 149.5q0 48 9.5 100t28 101.5t46.5 93.5t64.5 77.5t81.5 53t99 19.5q48 0 83 -15t58 -42t34 -64.5t11 -82.5zM496 435q0 30 -6 57.5t-20.5 49t-37 34.5t-55.5 13
q-43 0 -79 -19t-64.5 -50t-49.5 -72t-35 -84t-21 -86t-7 -79q0 -69 29.5 -112t92.5 -43q43 0 78.5 19t64 51t49 73t34.5 84t20.5 86t6.5 78zM529 800q-15 -57 -49.5 -82.5t-78.5 -25.5q-40 0 -64.5 24t-24.5 61q0 8 0.5 13t1.5 10h42q2 -28 16 -42.5t38 -14.5q48 0 75 57h44
z" />
    <glyph glyph-name="Ohungarumlaut" unicode="&#x150;" horiz-adv-x="587" 
d="M566 438q0 -46 -9.5 -96.5t-28 -100t-46 -95t-64 -80t-81 -55t-97.5 -20.5q-97 0 -143 56.5t-46 149.5q0 48 9.5 100t28 101.5t46.5 93.5t64.5 77.5t81.5 53t99 19.5q48 0 83 -15t58 -42t34 -64.5t11 -82.5zM496 435q0 30 -6 57.5t-20.5 49t-37 34.5t-55.5 13
q-43 0 -79 -19t-64.5 -50t-49.5 -72t-35 -84t-21 -86t-7 -79q0 -69 29.5 -112t92.5 -43q43 0 78.5 19t64 51t49 73t34.5 84t20.5 86t6.5 78zM441 779q0 -11 -7.5 -24.5t-15.5 -21.5q-8 3 -16.5 5.5t-15.5 2.5q-29 0 -55 -17t-49 -39l-10 24q16 19 32 37.5t32 32t32.5 22
t33.5 8.5q14 0 26.5 -6.5t12.5 -23.5zM599 779q0 -11 -7.5 -24.5t-15.5 -21.5q-8 3 -16.5 5.5t-15.5 2.5q-29 0 -55 -17t-49 -39l-10 24q16 19 32 37.5t32 32t32.5 22t33.5 8.5q14 0 26.5 -6.5t12.5 -23.5z" />
    <glyph glyph-name="Oslash" unicode="&#xd8;" horiz-adv-x="587" 
d="M566 438q0 -46 -9.5 -96.5t-28 -100t-46 -95t-64 -80t-81 -55t-97.5 -20.5q-32 0 -58 6.5t-46 17.5l-57 -83h-62l79 116q-23 27 -34 64.5t-11 84.5q0 48 9.5 100t28 101.5t46.5 93.5t64.5 77.5t81.5 53t99 19.5q60 0 102 -25l57 84h62l-80 -118q45 -54 45 -145zM121 199
q0 -26 4 -48.5t12 -40.5l310 456q-13 11 -30.5 17t-39.5 6q-43 0 -79 -19t-64.5 -50t-49.5 -72t-35 -84t-21 -86t-7 -79zM496 435q0 23 -4 45.5t-12 41.5l-310 -456q30 -22 73 -22t78.5 19t64 51t49 73t34.5 84t20.5 86t6.5 78z" />
    <glyph glyph-name="Oslashacute" unicode="&#x1fe;" horiz-adv-x="587" 
d="M566 438q0 -46 -9.5 -96.5t-28 -100t-46 -95t-64 -80t-81 -55t-97.5 -20.5q-32 0 -58 6.5t-46 17.5l-57 -83h-62l79 116q-23 27 -34 64.5t-11 84.5q0 48 9.5 100t28 101.5t46.5 93.5t64.5 77.5t81.5 53t99 19.5q60 0 102 -25l57 84h62l-80 -118q45 -54 45 -145zM121 199
q0 -26 4 -48.5t12 -40.5l310 456q-13 11 -30.5 17t-39.5 6q-43 0 -79 -19t-64.5 -50t-49.5 -72t-35 -84t-21 -86t-7 -79zM496 435q0 23 -4 45.5t-12 41.5l-310 -456q30 -22 73 -22t78.5 19t64 51t49 73t34.5 84t20.5 86t6.5 78zM492 775q0 -11 -7.5 -24.5t-15.5 -21.5
q-10 5 -20 6.5t-18 1.5q-34 0 -67 -17.5t-62 -39.5l-11 25q15 16 34 33.5t41 32.5t44 24.5t43 9.5q17 0 28 -6.5t11 -23.5z" />
    <glyph glyph-name="OE" unicode="&#x152;" horiz-adv-x="825" 
d="M847 633l-11 -51h-279l-50 -235h228l-12 -51h-227l-52 -245h301l-10 -51h-318q-26 0 -46.5 -1.5t-42.5 -3.5q-20 -2 -42.5 -3t-42.5 -1q-51 0 -87.5 15t-60 42t-34 64.5t-10.5 82.5q0 39 7 83t20.5 88t34 85.5t48.5 76.5q42 52 101.5 83t134.5 31q16 0 33 -1.5t37 -3.5
t41.5 -3t42.5 -1h296zM470 493q3 16 6 29t3 22q0 10 -3 16t-10 12q-11 9 -33.5 13t-48.5 4q-45 0 -82 -18t-66 -48.5t-50.5 -70.5t-36 -83.5t-21.5 -87.5t-7 -83q0 -30 6.5 -57.5t22 -49t40.5 -34.5t63 -13q39 0 60 3t40 13q29 16 39 67z" />
    <glyph glyph-name="Thorn" unicode="&#xde;" horiz-adv-x="506" 
d="M518 363q0 -51 -20.5 -96.5t-51.5 -74.5q-75 -69 -217 -69h-101q-7 -29 -14 -61.5t-13 -61.5h-68l135 633h69l-24 -112h93q58 0 98.5 -9.5t69.5 -33.5q23 -20 33.5 -48.5t10.5 -66.5zM449 359q0 33 -10.5 54.5t-29.5 34t-46 17.5t-60 5h-101l-62 -296h91q62 0 98.5 12.5
t62.5 35.5q29 26 43 63t14 74z" />
    <glyph glyph-name="Racute" unicode="&#x154;" horiz-adv-x="589" 
d="M348 633q58 0 97 -8t68 -29q50 -38 50 -114q0 -50 -18.5 -92t-50.5 -71q-23 -20 -56 -35t-71 -22l69 -184q8 -21 17 -29t26 -8q11 0 25 5t25 11l-11 -49q-11 -8 -27 -12.5t-31 -4.5q-33 0 -52 13.5t-33 51.5l-74 198q-6 -1 -15 -1h-18h-87l-55 -253h-68l124 582
q-27 0 -46.5 -3.5t-34.5 -9t-27 -13t-24 -15.5l14 60q21 15 52.5 23.5t92.5 8.5h139zM494 482q0 57 -38.5 78.5t-107.5 21.5h-97l-59 -278h90q99 0 151 39q30 22 45.5 58t15.5 81zM480 775q0 -11 -7.5 -24.5t-15.5 -21.5q-10 5 -20 6.5t-18 1.5q-34 0 -67 -17.5t-62 -39.5
l-11 25q15 16 34 33.5t41 32.5t44 24.5t43 9.5q17 0 28 -6.5t11 -23.5z" />
    <glyph glyph-name="Rcaron" unicode="&#x158;" horiz-adv-x="589" 
d="M348 633q58 0 97 -8t68 -29q50 -38 50 -114q0 -50 -18.5 -92t-50.5 -71q-23 -20 -56 -35t-71 -22l69 -184q8 -21 17 -29t26 -8q11 0 25 5t25 11l-11 -49q-11 -8 -27 -12.5t-31 -4.5q-33 0 -52 13.5t-33 51.5l-74 198q-6 -1 -15 -1h-18h-87l-55 -253h-68l124 582
q-27 0 -46.5 -3.5t-34.5 -9t-27 -13t-24 -15.5l14 60q21 15 52.5 23.5t92.5 8.5h139zM494 482q0 57 -38.5 78.5t-107.5 21.5h-97l-59 -278h90q99 0 151 39q30 22 45.5 58t15.5 81zM506 816l-99 -100q-11 -11 -18 -14.5t-18 -3.5h-20q-9 0 -14 4t-12 15l-57 99h61l41 -73
l73 73h63z" />
    <glyph glyph-name="Rcommaaccent" unicode="&#x156;" horiz-adv-x="589" 
d="M348 633q58 0 97 -8t68 -29q50 -38 50 -114q0 -50 -18.5 -92t-50.5 -71q-23 -20 -56 -35t-71 -22l69 -184q8 -21 17 -29t26 -8q11 0 25 5t25 11l-11 -49q-11 -8 -27 -12.5t-31 -4.5q-33 0 -52 13.5t-33 51.5l-74 198q-6 -1 -15 -1h-18h-87l-55 -253h-68l124 582
q-27 0 -46.5 -3.5t-34.5 -9t-27 -13t-24 -15.5l14 60q21 15 52.5 23.5t92.5 8.5h139zM494 482q0 57 -38.5 78.5t-107.5 21.5h-97l-59 -278h90q99 0 151 39q30 22 45.5 58t15.5 81zM175 -188l53 143q12 5 34 3.5t35 -6.5l-70 -140h-52z" />
    <glyph glyph-name="Sacute" unicode="&#x15a;" horiz-adv-x="459" 
d="M441 568q-29 11 -59.5 16.5t-58.5 5.5q-31 0 -59.5 -7t-51 -21.5t-36 -37.5t-13.5 -56q0 -23 8.5 -40t23 -31t34.5 -26t43 -24q25 -14 48.5 -28.5t42.5 -33t30.5 -43.5t11.5 -58q0 -50 -22 -86.5t-56.5 -60t-78 -35t-86.5 -11.5q-36 0 -79.5 10.5t-75.5 31.5l11 55
q32 -23 70.5 -34t73.5 -11q34 0 66 8t57 24.5t39.5 42.5t14.5 62q0 23 -9 40.5t-24.5 31t-35 25t-40.5 22.5q-24 13 -48 27.5t-43 33t-30.5 43.5t-11.5 58q0 45 19.5 79t51.5 56.5t73 34t83 11.5q32 0 65.5 -6.5t62.5 -17.5zM431 775q0 -11 -7.5 -24.5t-15.5 -21.5
q-10 5 -20 6.5t-18 1.5q-34 0 -67 -17.5t-62 -39.5l-11 25q15 16 34 33.5t41 32.5t44 24.5t43 9.5q17 0 28 -6.5t11 -23.5z" />
    <glyph glyph-name="Scircumflex" unicode="&#x15c;" horiz-adv-x="459" 
d="M441 568q-29 11 -59.5 16.5t-58.5 5.5q-31 0 -59.5 -7t-51 -21.5t-36 -37.5t-13.5 -56q0 -23 8.5 -40t23 -31t34.5 -26t43 -24q25 -14 48.5 -28.5t42.5 -33t30.5 -43.5t11.5 -58q0 -50 -22 -86.5t-56.5 -60t-78 -35t-86.5 -11.5q-36 0 -79.5 10.5t-75.5 31.5l11 55
q32 -23 70.5 -34t73.5 -11q34 0 66 8t57 24.5t39.5 42.5t14.5 62q0 23 -9 40.5t-24.5 31t-35 25t-40.5 22.5q-24 13 -48 27.5t-43 33t-30.5 43.5t-11.5 58q0 45 19.5 79t51.5 56.5t73 34t83 11.5q32 0 65.5 -6.5t62.5 -17.5zM450 691h-59l-41 74l-74 -74h-65l100 100
q11 11 17 14.5t17 3.5h21q9 0 14.5 -3.5t12.5 -15.5z" />
    <glyph glyph-name="Scaron" unicode="&#x160;" horiz-adv-x="459" 
d="M441 568q-29 11 -59.5 16.5t-58.5 5.5q-31 0 -59.5 -7t-51 -21.5t-36 -37.5t-13.5 -56q0 -23 8.5 -40t23 -31t34.5 -26t43 -24q25 -14 48.5 -28.5t42.5 -33t30.5 -43.5t11.5 -58q0 -50 -22 -86.5t-56.5 -60t-78 -35t-86.5 -11.5q-36 0 -79.5 10.5t-75.5 31.5l11 55
q32 -23 70.5 -34t73.5 -11q34 0 66 8t57 24.5t39.5 42.5t14.5 62q0 23 -9 40.5t-24.5 31t-35 25t-40.5 22.5q-24 13 -48 27.5t-43 33t-30.5 43.5t-11.5 58q0 45 19.5 79t51.5 56.5t73 34t83 11.5q32 0 65.5 -6.5t62.5 -17.5zM470 816l-99 -100q-11 -11 -18 -14.5t-18 -3.5
h-20q-9 0 -14 4t-12 15l-57 99h61l41 -73l73 73h63z" />
    <glyph glyph-name="Scedilla" unicode="&#x15e;" horiz-adv-x="459" 
d="M245 -89q0 -23 -13.5 -38t-33.5 -23.5t-43.5 -12t-44.5 -3.5v32q10 0 24.5 1.5t27 5t21.5 9t9 14.5q0 8 -10.5 12t-24.5 8q-26 8 -35.5 14t-9.5 18q0 11 6 22t17 22q-32 3 -67 13.5t-61 27.5l11 55q32 -23 70.5 -34t73.5 -11q34 0 66 8t57 24.5t39.5 42.5t14.5 62
q0 23 -9 40.5t-24.5 31t-35 25t-40.5 22.5q-24 13 -48 27.5t-43 33t-30.5 43.5t-11.5 58q0 45 19.5 79t51.5 56.5t73 34t83 11.5q32 0 65.5 -6.5t62.5 -17.5l-11 -50q-29 11 -59.5 16.5t-58.5 5.5q-31 0 -59.5 -7t-51 -21.5t-36 -37.5t-13.5 -56q0 -23 8.5 -40t23 -31
t34.5 -26t43 -24q25 -14 48.5 -28.5t42.5 -33t30.5 -43.5t11.5 -58q0 -48 -20 -83t-52 -58.5t-72.5 -36t-81.5 -14.5q-12 -12 -12 -20q0 -6 7 -8.5t26 -8.5q20 -6 32.5 -14.5t12.5 -29.5z" />
    <glyph glyph-name="Scommaaccent" unicode="&#x218;" horiz-adv-x="459" 
d="M441 568q-29 11 -59.5 16.5t-58.5 5.5q-31 0 -59.5 -7t-51 -21.5t-36 -37.5t-13.5 -56q0 -23 8.5 -40t23 -31t34.5 -26t43 -24q25 -14 48.5 -28.5t42.5 -33t30.5 -43.5t11.5 -58q0 -50 -22 -86.5t-56.5 -60t-78 -35t-86.5 -11.5q-36 0 -79.5 10.5t-75.5 31.5l11 55
q32 -23 70.5 -34t73.5 -11q34 0 66 8t57 24.5t39.5 42.5t14.5 62q0 23 -9 40.5t-24.5 31t-35 25t-40.5 22.5q-24 13 -48 27.5t-43 33t-30.5 43.5t-11.5 58q0 45 19.5 79t51.5 56.5t73 34t83 11.5q32 0 65.5 -6.5t62.5 -17.5zM91 -188l53 143q12 5 34 3.5t35 -6.5l-70 -140
h-52z" />
    <glyph glyph-name="Tcaron" unicode="&#x164;" horiz-adv-x="464" 
d="M256 582h-65q-53 0 -85 -12t-56 -30l14 60q20 15 54 24t91 9h310l-11 -51h-184l-124 -582h-68zM450 816l-99 -100q-11 -11 -18 -14.5t-18 -3.5h-20q-9 0 -14 4t-12 15l-57 99h61l41 -73l73 73h63z" />
    <glyph glyph-name="Tcommaaccent" unicode="&#x162;" horiz-adv-x="464" 
d="M256 582h-65q-53 0 -85 -12t-56 -30l14 60q20 15 54 24t91 9h310l-11 -51h-184l-124 -582h-68zM73 -188l53 143q12 5 34 3.5t35 -6.5l-70 -140h-52z" />
    <glyph glyph-name="uni021A" unicode="&#x21a;" horiz-adv-x="464" 
d="M256 582h-65q-53 0 -85 -12t-56 -30l14 60q20 15 54 24t91 9h310l-11 -51h-184l-124 -582h-68zM73 -188l53 143q12 5 34 3.5t35 -6.5l-70 -140h-52z" />
    <glyph glyph-name="Tbar" unicode="&#x166;" horiz-adv-x="464" 
d="M204 341h-124l10 51h125l41 190h-65q-53 0 -85 -12t-56 -30l14 60q20 15 54 24t91 9h310l-11 -51h-184l-41 -190h127l-10 -51h-128l-72 -341h-68z" />
    <glyph glyph-name="Ugrave" unicode="&#xd9;" horiz-adv-x="606" 
d="M152 231q-9 -41 -9 -74q0 -29 9 -50.5t26 -36.5q32 -29 93 -29q40 0 68 11.5t50 34.5q23 23 36 58t23 82l87 406h69l-82 -386q-14 -64 -30.5 -108.5t-45.5 -76.5t-74 -51.5t-108 -19.5q-88 0 -140 43q-23 20 -35.5 49.5t-12.5 71.5q0 17 4 45.5t10 57.5l52 243
q5 20 8.5 37.5t3.5 26.5q0 19 -24 19q-11 0 -27.5 -3.5t-33.5 -8.5l12 51q14 5 33 9t36 4q71 0 71 -62q0 -20 -10 -67zM431 679q-22 24 -48 40.5t-58 16.5q-17 0 -39 -8q-5 8 -7 16t-2 14q0 20 14.5 33t37.5 13q20 0 38.5 -9.5t34.5 -24.5t28 -33t20 -34z" />
    <glyph glyph-name="Uacute" unicode="&#xda;" horiz-adv-x="606" 
d="M152 231q-9 -41 -9 -74q0 -29 9 -50.5t26 -36.5q32 -29 93 -29q40 0 68 11.5t50 34.5q23 23 36 58t23 82l87 406h69l-82 -386q-14 -64 -30.5 -108.5t-45.5 -76.5t-74 -51.5t-108 -19.5q-88 0 -140 43q-23 20 -35.5 49.5t-12.5 71.5q0 17 4 45.5t10 57.5l52 243
q5 20 8.5 37.5t3.5 26.5q0 19 -24 19q-11 0 -27.5 -3.5t-33.5 -8.5l12 51q14 5 33 9t36 4q71 0 71 -62q0 -20 -10 -67zM490 775q0 -11 -7.5 -24.5t-15.5 -21.5q-10 5 -20 6.5t-18 1.5q-34 0 -67 -17.5t-62 -39.5l-11 25q15 16 34 33.5t41 32.5t44 24.5t43 9.5q17 0 28 -6.5
t11 -23.5z" />
    <glyph glyph-name="Ucircumflex" unicode="&#xdb;" horiz-adv-x="606" 
d="M152 231q-9 -41 -9 -74q0 -29 9 -50.5t26 -36.5q32 -29 93 -29q40 0 68 11.5t50 34.5q23 23 36 58t23 82l87 406h69l-82 -386q-14 -64 -30.5 -108.5t-45.5 -76.5t-74 -51.5t-108 -19.5q-88 0 -140 43q-23 20 -35.5 49.5t-12.5 71.5q0 17 4 45.5t10 57.5l52 243
q5 20 8.5 37.5t3.5 26.5q0 19 -24 19q-11 0 -27.5 -3.5t-33.5 -8.5l12 51q14 5 33 9t36 4q71 0 71 -62q0 -20 -10 -67zM497 691h-59l-41 74l-74 -74h-65l100 100q11 11 17 14.5t17 3.5h21q9 0 14.5 -3.5t12.5 -15.5z" />
    <glyph glyph-name="Utilde" unicode="&#x168;" horiz-adv-x="606" 
d="M152 231q-9 -41 -9 -74q0 -29 9 -50.5t26 -36.5q32 -29 93 -29q40 0 68 11.5t50 34.5q23 23 36 58t23 82l87 406h69l-82 -386q-14 -64 -30.5 -108.5t-45.5 -76.5t-74 -51.5t-108 -19.5q-88 0 -140 43q-23 20 -35.5 49.5t-12.5 71.5q0 17 4 45.5t10 57.5l52 243
q5 20 8.5 37.5t3.5 26.5q0 19 -24 19q-11 0 -27.5 -3.5t-33.5 -8.5l12 51q14 5 33 9t36 4q71 0 71 -62q0 -20 -10 -67zM513 796q-11 -41 -33.5 -65.5t-56.5 -24.5q-17 0 -29 6.5t-25 15.5q-8 5 -16.5 10t-17.5 5q-11 0 -21.5 -8.5t-19.5 -28.5h-33q11 41 33.5 65.5
t55.5 24.5q17 0 29.5 -6.5t23.5 -14.5q8 -5 15.5 -10.5t19.5 -5.5q11 0 21 8.5t21 28.5h33z" />
    <glyph glyph-name="Udieresis" unicode="&#xdc;" horiz-adv-x="606" 
d="M152 231q-9 -41 -9 -74q0 -29 9 -50.5t26 -36.5q32 -29 93 -29q40 0 68 11.5t50 34.5q23 23 36 58t23 82l87 406h69l-82 -386q-14 -64 -30.5 -108.5t-45.5 -76.5t-74 -51.5t-108 -19.5q-88 0 -140 43q-23 20 -35.5 49.5t-12.5 71.5q0 17 4 45.5t10 57.5l52 243
q5 20 8.5 37.5t3.5 26.5q0 19 -24 19q-11 0 -27.5 -3.5t-33.5 -8.5l12 51q14 5 33 9t36 4q71 0 71 -62q0 -20 -10 -67zM365 768q0 -23 -17 -40.5t-42 -17.5q-17 0 -28.5 10t-11.5 28q0 23 17 41.5t43 18.5q17 0 28 -11.5t11 -28.5zM521 768q0 -23 -17 -40.5t-42 -17.5
q-17 0 -28.5 10t-11.5 28q0 23 17 41.5t43 18.5q17 0 28 -11.5t11 -28.5z" />
    <glyph glyph-name="Umacron" unicode="&#x16a;" horiz-adv-x="606" 
d="M152 231q-9 -41 -9 -74q0 -29 9 -50.5t26 -36.5q32 -29 93 -29q40 0 68 11.5t50 34.5q23 23 36 58t23 82l87 406h69l-82 -386q-14 -64 -30.5 -108.5t-45.5 -76.5t-74 -51.5t-108 -19.5q-88 0 -140 43q-23 20 -35.5 49.5t-12.5 71.5q0 17 4 45.5t10 57.5l52 243
q5 20 8.5 37.5t3.5 26.5q0 19 -24 19q-11 0 -27.5 -3.5t-33.5 -8.5l12 51q14 5 33 9t36 4q71 0 71 -62q0 -20 -10 -67zM496 779l-11 -58h-214l12 58h213z" />
    <glyph glyph-name="Ubreve" unicode="&#x16c;" horiz-adv-x="606" 
d="M152 231q-9 -41 -9 -74q0 -29 9 -50.5t26 -36.5q32 -29 93 -29q40 0 68 11.5t50 34.5q23 23 36 58t23 82l87 406h69l-82 -386q-14 -64 -30.5 -108.5t-45.5 -76.5t-74 -51.5t-108 -19.5q-88 0 -140 43q-23 20 -35.5 49.5t-12.5 71.5q0 17 4 45.5t10 57.5l52 243
q5 20 8.5 37.5t3.5 26.5q0 19 -24 19q-11 0 -27.5 -3.5t-33.5 -8.5l12 51q14 5 33 9t36 4q71 0 71 -62q0 -20 -10 -67zM503 800q-15 -57 -49.5 -82.5t-78.5 -25.5q-40 0 -64.5 24t-24.5 61q0 8 0.5 13t1.5 10h42q2 -28 16 -42.5t38 -14.5q48 0 75 57h44z" />
    <glyph glyph-name="Uring" unicode="&#x16e;" horiz-adv-x="606" 
d="M152 231q-9 -41 -9 -74q0 -29 9 -50.5t26 -36.5q32 -29 93 -29q40 0 68 11.5t50 34.5q23 23 36 58t23 82l87 406h69l-82 -386q-14 -64 -30.5 -108.5t-45.5 -76.5t-74 -51.5t-108 -19.5q-88 0 -140 43q-23 20 -35.5 49.5t-12.5 71.5q0 17 4 45.5t10 57.5l52 243
q5 20 8.5 37.5t3.5 26.5q0 19 -24 19q-11 0 -27.5 -3.5t-33.5 -8.5l12 51q14 5 33 9t36 4q71 0 71 -62q0 -20 -10 -67zM473 787q0 -21 -8.5 -38.5t-22.5 -31t-32.5 -21t-38.5 -7.5q-28 0 -48.5 17.5t-20.5 47.5q0 21 8.5 38.5t22.5 30.5t33 20.5t39 7.5q28 0 48 -17t20 -47z
M429 781q0 15 -8 24t-23 9q-23 0 -37.5 -15.5t-14.5 -36.5q0 -14 8.5 -24.5t23.5 -10.5q23 0 37 16t14 38z" />
    <glyph glyph-name="Uhungarumlaut" unicode="&#x170;" horiz-adv-x="606" 
d="M152 231q-9 -41 -9 -74q0 -29 9 -50.5t26 -36.5q32 -29 93 -29q40 0 68 11.5t50 34.5q23 23 36 58t23 82l87 406h69l-82 -386q-14 -64 -30.5 -108.5t-45.5 -76.5t-74 -51.5t-108 -19.5q-88 0 -140 43q-23 20 -35.5 49.5t-12.5 71.5q0 17 4 45.5t10 57.5l52 243
q5 20 8.5 37.5t3.5 26.5q0 19 -24 19q-11 0 -27.5 -3.5t-33.5 -8.5l12 51q14 5 33 9t36 4q71 0 71 -62q0 -20 -10 -67zM415 779q0 -11 -7.5 -24.5t-15.5 -21.5q-8 3 -16.5 5.5t-15.5 2.5q-29 0 -55 -17t-49 -39l-10 24q16 19 32 37.5t32 32t32.5 22t33.5 8.5q14 0 26.5 -6.5
t12.5 -23.5zM573 779q0 -11 -7.5 -24.5t-15.5 -21.5q-8 3 -16.5 5.5t-15.5 2.5q-29 0 -55 -17t-49 -39l-10 24q16 19 32 37.5t32 32t32.5 22t33.5 8.5q14 0 26.5 -6.5t12.5 -23.5z" />
    <glyph glyph-name="Uogonek" unicode="&#x172;" horiz-adv-x="601" 
d="M152 231q-9 -41 -9 -74q0 -29 9 -50.5t26 -36.5q32 -29 93 -29q40 0 68 11.5t50 34.5q23 23 36 58t23 82l87 406h69l-82 -386q-14 -64 -30.5 -108.5t-45.5 -76.5q-13 -14 -28 -25.5t-32 -19.5q-39 -20 -64 -44.5t-25 -58.5q0 -28 23 -41.5t51 -18.5l-18 -29
q-20 1 -39.5 5.5t-35 14.5t-25.5 25t-10 36q0 26 11.5 47.5t31.5 38.5q-5 0 -11 -0.5t-11 -0.5q-88 0 -140 43q-23 20 -35.5 49.5t-12.5 71.5q0 17 4 45.5t10 57.5l52 243q5 20 8.5 37.5t3.5 26.5q0 19 -24 19q-11 0 -27.5 -3.5t-33.5 -8.5l12 51q14 5 33 9t36 4
q71 0 71 -62q0 -20 -10 -67z" />
    <glyph glyph-name="Wgrave" unicode="&#x1e80;" horiz-adv-x="859" 
d="M214 88q61 103 121.5 237t123.5 308h53l40 -546q35 55 73.5 125t75.5 144.5t69 146.5t54 130h65q-15 -43 -40 -100.5t-55 -120t-64 -126t-66.5 -119.5t-62 -100t-51.5 -67h-54l-34 479q-25 -66 -57.5 -138t-66.5 -137.5t-66.5 -119t-57.5 -84.5h-56l-42 556
q-2 17 -9.5 23.5t-18.5 6.5t-23.5 -2.5t-24.5 -6.5l10 50q16 5 31.5 6.5t29.5 1.5q33 0 50.5 -16t20.5 -55zM566 679q-22 24 -48 40.5t-58 16.5q-17 0 -39 -8q-5 8 -7 16t-2 14q0 20 14.5 33t37.5 13q20 0 38.5 -9.5t34.5 -24.5t28 -33t20 -34z" />
    <glyph glyph-name="Wacute" unicode="&#x1e82;" horiz-adv-x="859" 
d="M214 88q61 103 121.5 237t123.5 308h53l40 -546q35 55 73.5 125t75.5 144.5t69 146.5t54 130h65q-15 -43 -40 -100.5t-55 -120t-64 -126t-66.5 -119.5t-62 -100t-51.5 -67h-54l-34 479q-25 -66 -57.5 -138t-66.5 -137.5t-66.5 -119t-57.5 -84.5h-56l-42 556
q-2 17 -9.5 23.5t-18.5 6.5t-23.5 -2.5t-24.5 -6.5l10 50q16 5 31.5 6.5t29.5 1.5q33 0 50.5 -16t20.5 -55zM614 775q0 -11 -7.5 -24.5t-15.5 -21.5q-10 5 -20 6.5t-18 1.5q-34 0 -67 -17.5t-62 -39.5l-11 25q15 16 34 33.5t41 32.5t44 24.5t43 9.5q17 0 28 -6.5t11 -23.5z
" />
    <glyph glyph-name="Wcircumflex" unicode="&#x174;" horiz-adv-x="859" 
d="M214 88q61 103 121.5 237t123.5 308h53l40 -546q35 55 73.5 125t75.5 144.5t69 146.5t54 130h65q-15 -43 -40 -100.5t-55 -120t-64 -126t-66.5 -119.5t-62 -100t-51.5 -67h-54l-34 479q-25 -66 -57.5 -138t-66.5 -137.5t-66.5 -119t-57.5 -84.5h-56l-42 556
q-2 17 -9.5 23.5t-18.5 6.5t-23.5 -2.5t-24.5 -6.5l10 50q16 5 31.5 6.5t29.5 1.5q33 0 50.5 -16t20.5 -55zM613 691h-59l-41 74l-74 -74h-65l100 100q11 11 17 14.5t17 3.5h21q9 0 14.5 -3.5t12.5 -15.5z" />
    <glyph glyph-name="Wdieresis" unicode="&#x1e84;" horiz-adv-x="859" 
d="M214 88q61 103 121.5 237t123.5 308h53l40 -546q35 55 73.5 125t75.5 144.5t69 146.5t54 130h65q-15 -43 -40 -100.5t-55 -120t-64 -126t-66.5 -119.5t-62 -100t-51.5 -67h-54l-34 479q-25 -66 -57.5 -138t-66.5 -137.5t-66.5 -119t-57.5 -84.5h-56l-42 556
q-2 17 -9.5 23.5t-18.5 6.5t-23.5 -2.5t-24.5 -6.5l10 50q16 5 31.5 6.5t29.5 1.5q33 0 50.5 -16t20.5 -55zM482 768q0 -23 -17 -40.5t-42 -17.5q-17 0 -28.5 10t-11.5 28q0 23 17 41.5t43 18.5q17 0 28 -11.5t11 -28.5zM638 768q0 -23 -17 -40.5t-42 -17.5q-17 0 -28.5 10
t-11.5 28q0 23 17 41.5t43 18.5q17 0 28 -11.5t11 -28.5z" />
    <glyph glyph-name="Ygrave" unicode="&#x1ef2;" horiz-adv-x="496" 
d="M154 0l48 227l-88 324q-5 20 -14 27.5t-23 7.5q-16 0 -38 -6l11 49q11 3 25.5 4.5t28.5 1.5q33 0 49 -14.5t27 -55.5l73 -279q30 34 66 83t69.5 98.5t60.5 94t38 71.5h65q-12 -26 -32 -61t-45 -74t-53 -79t-55.5 -76.5t-52.5 -67t-44 -49.5l-48 -226h-68zM384 679
q-22 24 -48 40.5t-58 16.5q-17 0 -39 -8q-5 8 -7 16t-2 14q0 20 14.5 33t37.5 13q20 0 38.5 -9.5t34.5 -24.5t28 -33t20 -34z" />
    <glyph glyph-name="Yacute" unicode="&#xdd;" horiz-adv-x="496" 
d="M154 0l48 227l-88 324q-5 20 -14 27.5t-23 7.5q-16 0 -38 -6l11 49q11 3 25.5 4.5t28.5 1.5q33 0 49 -14.5t27 -55.5l73 -279q30 34 66 83t69.5 98.5t60.5 94t38 71.5h65q-12 -26 -32 -61t-45 -74t-53 -79t-55.5 -76.5t-52.5 -67t-44 -49.5l-48 -226h-68zM442 775
q0 -11 -7.5 -24.5t-15.5 -21.5q-10 5 -20 6.5t-18 1.5q-34 0 -67 -17.5t-62 -39.5l-11 25q15 16 34 33.5t41 32.5t44 24.5t43 9.5q17 0 28 -6.5t11 -23.5z" />
    <glyph glyph-name="Ycircumflex" unicode="&#x176;" horiz-adv-x="496" 
d="M154 0l48 227l-88 324q-5 20 -14 27.5t-23 7.5q-16 0 -38 -6l11 49q11 3 25.5 4.5t28.5 1.5q33 0 49 -14.5t27 -55.5l73 -279q30 34 66 83t69.5 98.5t60.5 94t38 71.5h65q-12 -26 -32 -61t-45 -74t-53 -79t-55.5 -76.5t-52.5 -67t-44 -49.5l-48 -226h-68zM453 691h-59
l-41 74l-74 -74h-65l100 100q11 11 17 14.5t17 3.5h21q9 0 14.5 -3.5t12.5 -15.5z" />
    <glyph glyph-name="Ydieresis" unicode="&#x178;" horiz-adv-x="496" 
d="M154 0l48 227l-88 324q-5 20 -14 27.5t-23 7.5q-16 0 -38 -6l11 49q11 3 25.5 4.5t28.5 1.5q33 0 49 -14.5t27 -55.5l73 -279q30 34 66 83t69.5 98.5t60.5 94t38 71.5h65q-12 -26 -32 -61t-45 -74t-53 -79t-55.5 -76.5t-52.5 -67t-44 -49.5l-48 -226h-68zM312 768
q0 -23 -17 -40.5t-42 -17.5q-17 0 -28.5 10t-11.5 28q0 23 17 41.5t43 18.5q17 0 28 -11.5t11 -28.5zM468 768q0 -23 -17 -40.5t-42 -17.5q-17 0 -28.5 10t-11.5 28q0 23 17 41.5t43 18.5q17 0 28 -11.5t11 -28.5z" />
    <glyph glyph-name="Zacute" unicode="&#x179;" horiz-adv-x="471" 
d="M493 633q-2 -17 -10.5 -34t-29.5 -45l-380 -503h192q62 0 94 10.5t48 21.5l-14 -62q-26 -11 -57.5 -16t-70.5 -5h-281q2 19 11 36.5t24 37.5l383 508h-294l11 51h374zM428 775q0 -11 -7.5 -24.5t-15.5 -21.5q-10 5 -20 6.5t-18 1.5q-34 0 -67 -17.5t-62 -39.5l-11 25
q15 16 34 33.5t41 32.5t44 24.5t43 9.5q17 0 28 -6.5t11 -23.5z" />
    <glyph glyph-name="Zcaron" unicode="&#x17d;" horiz-adv-x="471" 
d="M493 633q-2 -17 -10.5 -34t-29.5 -45l-380 -503h192q62 0 94 10.5t48 21.5l-14 -62q-26 -11 -57.5 -16t-70.5 -5h-281q2 19 11 36.5t24 37.5l383 508h-294l11 51h374zM464 816l-99 -100q-11 -11 -18 -14.5t-18 -3.5h-20q-9 0 -14 4t-12 15l-57 99h61l41 -73l73 73h63z
" />
    <glyph glyph-name="Zdotaccent" unicode="&#x17b;" horiz-adv-x="471" 
d="M493 633q-2 -17 -10.5 -34t-29.5 -45l-380 -503h192q62 0 94 10.5t48 21.5l-14 -62q-26 -11 -57.5 -16t-70.5 -5h-281q2 19 11 36.5t24 37.5l383 508h-294l11 51h374zM393 770q0 -14 -6 -26.5t-16 -22t-23.5 -15.5t-27.5 -6q-20 0 -33 13.5t-13 33.5q0 14 5.5 27
t15.5 22.5t22.5 15.5t27.5 6q20 0 34 -13.5t14 -34.5z" />
    <glyph glyph-name="agrave" unicode="&#xe0;" horiz-adv-x="521" 
d="M481 487l-76 -365q-5 -26 -8 -40.5t-3 -19.5q0 -17 19 -17q9 0 22 4.5t26 12.5l-11 -50q-11 -8 -28 -12.5t-31 -4.5q-61 0 -61 49q0 5 0.5 10t2.5 13q-25 -33 -59.5 -54.5t-81.5 -21.5q-72 0 -114 45t-42 123q0 64 24.5 124.5t66.5 107t98.5 75t120.5 28.5q24 0 49 -6
t44 -14zM406 433q-11 5 -26 8.5t-31 3.5q-56 0 -101.5 -26.5t-78 -68t-50.5 -91.5t-18 -96q0 -57 25.5 -89t73.5 -32q32 0 59 15.5t47 38.5q10 12 19 27t17 35t15.5 46.5t14.5 61.5zM436 534q-22 24 -48 40.5t-58 16.5q-17 0 -39 -8q-5 8 -7 16t-2 14q0 20 14.5 33t37.5 13
q20 0 38.5 -9.5t34.5 -24.5t28 -33t20 -34z" />
    <glyph glyph-name="aacute" unicode="&#xe1;" horiz-adv-x="521" 
d="M481 487l-76 -365q-5 -26 -8 -40.5t-3 -19.5q0 -17 19 -17q9 0 22 4.5t26 12.5l-11 -50q-11 -8 -28 -12.5t-31 -4.5q-61 0 -61 49q0 5 0.5 10t2.5 13q-25 -33 -59.5 -54.5t-81.5 -21.5q-72 0 -114 45t-42 123q0 64 24.5 124.5t66.5 107t98.5 75t120.5 28.5q24 0 49 -6
t44 -14zM406 433q-11 5 -26 8.5t-31 3.5q-56 0 -101.5 -26.5t-78 -68t-50.5 -91.5t-18 -96q0 -57 25.5 -89t73.5 -32q32 0 59 15.5t47 38.5q10 12 19 27t17 35t15.5 46.5t14.5 61.5zM459 629q0 -11 -7.5 -24.5t-15.5 -21.5q-10 5 -20 6.5t-18 1.5q-34 0 -67 -17.5t-62 -39.5
l-11 25q15 16 34 33.5t41 32.5t44 24.5t43 9.5q17 0 28 -6.5t11 -23.5z" />
    <glyph glyph-name="acircumflex" unicode="&#xe2;" horiz-adv-x="521" 
d="M481 487l-76 -365q-5 -26 -8 -40.5t-3 -19.5q0 -17 19 -17q9 0 22 4.5t26 12.5l-11 -50q-11 -8 -28 -12.5t-31 -4.5q-61 0 -61 49q0 5 0.5 10t2.5 13q-25 -33 -59.5 -54.5t-81.5 -21.5q-72 0 -114 45t-42 123q0 64 24.5 124.5t66.5 107t98.5 75t120.5 28.5q24 0 49 -6
t44 -14zM406 433q-11 5 -26 8.5t-31 3.5q-56 0 -101.5 -26.5t-78 -68t-50.5 -91.5t-18 -96q0 -57 25.5 -89t73.5 -32q32 0 59 15.5t47 38.5q10 12 19 27t17 35t15.5 46.5t14.5 61.5zM479 541h-59l-41 74l-74 -74h-65l100 100q11 11 17 14.5t17 3.5h21q9 0 14.5 -3.5
t12.5 -15.5z" />
    <glyph glyph-name="atilde" unicode="&#xe3;" horiz-adv-x="521" 
d="M481 487l-76 -365q-5 -26 -8 -40.5t-3 -19.5q0 -17 19 -17q9 0 22 4.5t26 12.5l-11 -50q-11 -8 -28 -12.5t-31 -4.5q-61 0 -61 49q0 5 0.5 10t2.5 13q-25 -33 -59.5 -54.5t-81.5 -21.5q-72 0 -114 45t-42 123q0 64 24.5 124.5t66.5 107t98.5 75t120.5 28.5q24 0 49 -6
t44 -14zM406 433q-11 5 -26 8.5t-31 3.5q-56 0 -101.5 -26.5t-78 -68t-50.5 -91.5t-18 -96q0 -57 25.5 -89t73.5 -32q32 0 59 15.5t47 38.5q10 12 19 27t17 35t15.5 46.5t14.5 61.5zM493 646q-11 -41 -33.5 -65.5t-56.5 -24.5q-17 0 -29 6.5t-25 15.5q-8 5 -16.5 10t-17.5 5
q-11 0 -21.5 -8.5t-19.5 -28.5h-33q11 41 33.5 65.5t55.5 24.5q17 0 29.5 -6.5t23.5 -14.5q8 -5 15.5 -10.5t19.5 -5.5q11 0 21 8.5t21 28.5h33z" />
    <glyph glyph-name="adieresis" unicode="&#xe4;" horiz-adv-x="521" 
d="M481 487l-76 -365q-5 -26 -8 -40.5t-3 -19.5q0 -17 19 -17q9 0 22 4.5t26 12.5l-11 -50q-11 -8 -28 -12.5t-31 -4.5q-61 0 -61 49q0 5 0.5 10t2.5 13q-25 -33 -59.5 -54.5t-81.5 -21.5q-72 0 -114 45t-42 123q0 64 24.5 124.5t66.5 107t98.5 75t120.5 28.5q24 0 49 -6
t44 -14zM406 433q-11 5 -26 8.5t-31 3.5q-56 0 -101.5 -26.5t-78 -68t-50.5 -91.5t-18 -96q0 -57 25.5 -89t73.5 -32q32 0 59 15.5t47 38.5q10 12 19 27t17 35t15.5 46.5t14.5 61.5zM340 618q0 -23 -17 -40.5t-42 -17.5q-17 0 -28.5 10t-11.5 28q0 23 17 41.5t43 18.5
q17 0 28 -11.5t11 -28.5zM496 618q0 -23 -17 -40.5t-42 -17.5q-17 0 -28.5 10t-11.5 28q0 23 17 41.5t43 18.5q17 0 28 -11.5t11 -28.5z" />
    <glyph glyph-name="amacron" unicode="&#x101;" horiz-adv-x="521" 
d="M481 487l-76 -365q-5 -26 -8 -40.5t-3 -19.5q0 -17 19 -17q9 0 22 4.5t26 12.5l-11 -50q-11 -8 -28 -12.5t-31 -4.5q-61 0 -61 49q0 5 0.5 10t2.5 13q-25 -33 -59.5 -54.5t-81.5 -21.5q-72 0 -114 45t-42 123q0 64 24.5 124.5t66.5 107t98.5 75t120.5 28.5q24 0 49 -6
t44 -14zM406 433q-11 5 -26 8.5t-31 3.5q-56 0 -101.5 -26.5t-78 -68t-50.5 -91.5t-18 -96q0 -57 25.5 -89t73.5 -32q32 0 59 15.5t47 38.5q10 12 19 27t17 35t15.5 46.5t14.5 61.5zM493 635l-11 -58h-214l12 58h213z" />
    <glyph glyph-name="abreve" unicode="&#x103;" horiz-adv-x="521" 
d="M481 487l-76 -365q-5 -26 -8 -40.5t-3 -19.5q0 -17 19 -17q9 0 22 4.5t26 12.5l-11 -50q-11 -8 -28 -12.5t-31 -4.5q-61 0 -61 49q0 5 0.5 10t2.5 13q-25 -33 -59.5 -54.5t-81.5 -21.5q-72 0 -114 45t-42 123q0 64 24.5 124.5t66.5 107t98.5 75t120.5 28.5q24 0 49 -6
t44 -14zM406 433q-11 5 -26 8.5t-31 3.5q-56 0 -101.5 -26.5t-78 -68t-50.5 -91.5t-18 -96q0 -57 25.5 -89t73.5 -32q32 0 59 15.5t47 38.5q10 12 19 27t17 35t15.5 46.5t14.5 61.5zM480 650q-15 -57 -49.5 -82.5t-78.5 -25.5q-40 0 -64.5 24t-24.5 61q0 8 0.5 13t1.5 10h42
q2 -28 16 -42.5t38 -14.5q48 0 75 57h44z" />
    <glyph glyph-name="acaron" unicode="&#x1ce;" horiz-adv-x="521" 
d="M481 487l-76 -365q-5 -26 -8 -40.5t-3 -19.5q0 -17 19 -17q9 0 22 4.5t26 12.5l-11 -50q-11 -8 -28 -12.5t-31 -4.5q-61 0 -61 49q0 5 0.5 10t2.5 13q-25 -33 -59.5 -54.5t-81.5 -21.5q-72 0 -114 45t-42 123q0 64 24.5 124.5t66.5 107t98.5 75t120.5 28.5q24 0 49 -6
t44 -14zM406 433q-11 5 -26 8.5t-31 3.5q-56 0 -101.5 -26.5t-78 -68t-50.5 -91.5t-18 -96q0 -57 25.5 -89t73.5 -32q32 0 59 15.5t47 38.5q10 12 19 27t17 35t15.5 46.5t14.5 61.5zM503 666l-99 -100q-11 -11 -17.5 -14.5t-17.5 -3.5h-21q-9 0 -14 4t-12 15l-57 99h61
l41 -73l73 73h63z" />
    <glyph glyph-name="aring" unicode="&#xe5;" horiz-adv-x="521" 
d="M481 487l-76 -365q-5 -26 -8 -40.5t-3 -19.5q0 -17 19 -17q9 0 22 4.5t26 12.5l-11 -50q-11 -8 -28 -12.5t-31 -4.5q-61 0 -61 49q0 5 0.5 10t2.5 13q-25 -33 -59.5 -54.5t-81.5 -21.5q-72 0 -114 45t-42 123q0 64 24.5 124.5t66.5 107t98.5 75t120.5 28.5q24 0 49 -6
t44 -14zM406 433q-11 5 -26 8.5t-31 3.5q-56 0 -101.5 -26.5t-78 -68t-50.5 -91.5t-18 -96q0 -57 25.5 -89t73.5 -32q32 0 59 15.5t47 38.5q10 12 19 27t17 35t15.5 46.5t14.5 61.5zM456 640q0 -21 -8.5 -38.5t-22.5 -31t-32.5 -21t-38.5 -7.5q-28 0 -48.5 17.5t-20.5 47.5
q0 21 8.5 38.5t22.5 30.5t33 20.5t39 7.5q28 0 48 -17t20 -47zM412 634q0 15 -8 24t-23 9q-23 0 -37.5 -15.5t-14.5 -36.5q0 -14 8.5 -24.5t23.5 -10.5q23 0 37 16t14 38z" />
    <glyph glyph-name="aringacute" unicode="&#x1fb;" horiz-adv-x="521" 
d="M481 487l-76 -365q-5 -26 -8 -40.5t-3 -19.5q0 -17 19 -17q9 0 22 4.5t26 12.5l-11 -50q-11 -8 -28 -12.5t-31 -4.5q-61 0 -61 49q0 5 0.5 10t2.5 13q-25 -33 -59.5 -54.5t-81.5 -21.5q-72 0 -114 45t-42 123q0 64 24.5 124.5t66.5 107t98.5 75t120.5 28.5q24 0 49 -6
t44 -14zM406 433q-11 5 -26 8.5t-31 3.5q-56 0 -101.5 -26.5t-78 -68t-50.5 -91.5t-18 -96q0 -57 25.5 -89t73.5 -32q32 0 59 15.5t47 38.5q10 12 19 27t17 35t15.5 46.5t14.5 61.5zM454 634q0 -21 -8.5 -38.5t-22.5 -31t-32.5 -21t-38.5 -7.5q-28 0 -48.5 17.5t-20.5 47.5
q0 21 8.5 38.5t22.5 30.5t33 20.5t39 7.5q28 0 48 -17t20 -47zM410 628q0 15 -8 24t-23 9q-23 0 -37.5 -15.5t-14.5 -36.5q0 -14 8.5 -24.5t23.5 -10.5q23 0 37 16t14 38zM496 803q0 -11 -7.5 -24.5t-15.5 -21.5q-10 5 -20 6.5t-18 1.5q-34 0 -67 -17.5t-62 -39.5l-11 25
q15 16 34 33.5t41 32.5t44 24.5t43 9.5q17 0 28 -6.5t11 -23.5z" />
    <glyph glyph-name="aogonek" unicode="&#x105;" horiz-adv-x="521" 
d="M481 487l-76 -365q-5 -26 -8 -40.5t-3 -19.5q0 -17 19 -17q9 0 22 4.5t26 12.5l-11 -50q-23 -14 -43 -34.5t-20 -58.5q0 -32 23 -46t51 -19l-18 -29q-20 1 -39.5 5.5t-35 14.5t-25.5 25t-10 36q0 28 12 50.5t33 39.5q-48 4 -48 48q0 5 0.5 10t2.5 13q-25 -33 -59.5 -54.5
t-81.5 -21.5q-72 0 -114 45t-42 123q0 64 24.5 124.5t66.5 107t98.5 75t120.5 28.5q24 0 49 -6t44 -14zM406 433q-11 5 -26 8.5t-31 3.5q-56 0 -101.5 -26.5t-78 -68t-50.5 -91.5t-18 -96q0 -57 25.5 -89t73.5 -32q32 0 59 15.5t47 38.5q10 12 19 27t17 35t15.5 46.5
t14.5 61.5z" />
    <glyph glyph-name="ae" unicode="&#xe6;" horiz-adv-x="954" 
d="M481 487l-36 -171q23 -11 46 -21t45 -19q14 40 35.5 75.5t50.5 64.5q35 33 82.5 55.5t97.5 22.5q60 0 96.5 -30t36.5 -87q0 -36 -16 -69.5t-47 -59t-76 -40.5t-103 -15q-26 0 -55.5 4.5t-52.5 12.5q-3 -17 -3 -41q0 -60 30.5 -93t90.5 -33q46 0 87 15.5t75 37.5l-12 -60
q-32 -21 -74 -33t-86 -12q-83 0 -129.5 44t-46.5 128q0 35 7 66q-24 10 -48.5 20.5t-40.5 18.5l-30 -146q-5 -26 -8 -40.5t-3 -19.5q0 -17 19 -17q9 0 22 4.5t26 12.5l-11 -50q-11 -8 -28 -12.5t-31 -4.5q-61 0 -61 49q0 5 0.5 10t2.5 13q-25 -33 -59.5 -54.5t-81.5 -21.5
q-72 0 -114 45t-42 123q0 64 24.5 124.5t66.5 107t98.5 75t120.5 28.5q24 0 49 -6t44 -14zM406 433q-11 5 -26 8.5t-31 3.5q-56 0 -101.5 -26.5t-78 -68t-50.5 -91.5t-18 -96q0 -57 25.5 -89t73.5 -32q32 0 59 15.5t47 38.5q10 12 19 27t17 35t15.5 46.5t14.5 61.5zM871 373
q0 32 -19.5 51t-55.5 19q-25 0 -50 -9t-46 -24q-37 -26 -64 -67.5t-40 -87.5q22 -6 48.5 -10t47.5 -4q81 0 130 36t49 96z" />
    <glyph glyph-name="aeacute" unicode="&#x1fd;" horiz-adv-x="954" 
d="M481 487l-36 -171q23 -11 46 -21t45 -19q14 40 35.5 75.5t50.5 64.5q35 33 82.5 55.5t97.5 22.5q60 0 96.5 -30t36.5 -87q0 -36 -16 -69.5t-47 -59t-76 -40.5t-103 -15q-26 0 -55.5 4.5t-52.5 12.5q-3 -17 -3 -41q0 -60 30.5 -93t90.5 -33q46 0 87 15.5t75 37.5l-12 -60
q-32 -21 -74 -33t-86 -12q-83 0 -129.5 44t-46.5 128q0 35 7 66q-24 10 -48.5 20.5t-40.5 18.5l-30 -146q-5 -26 -8 -40.5t-3 -19.5q0 -17 19 -17q9 0 22 4.5t26 12.5l-11 -50q-11 -8 -28 -12.5t-31 -4.5q-61 0 -61 49q0 5 0.5 10t2.5 13q-25 -33 -59.5 -54.5t-81.5 -21.5
q-72 0 -114 45t-42 123q0 64 24.5 124.5t66.5 107t98.5 75t120.5 28.5q24 0 49 -6t44 -14zM406 433q-11 5 -26 8.5t-31 3.5q-56 0 -101.5 -26.5t-78 -68t-50.5 -91.5t-18 -96q0 -57 25.5 -89t73.5 -32q32 0 59 15.5t47 38.5q10 12 19 27t17 35t15.5 46.5t14.5 61.5zM871 373
q0 32 -19.5 51t-55.5 19q-25 0 -50 -9t-46 -24q-37 -26 -64 -67.5t-40 -87.5q22 -6 48.5 -10t47.5 -4q81 0 130 36t49 96zM684 629q0 -11 -7.5 -24.5t-15.5 -21.5q-10 5 -20 6.5t-18 1.5q-34 0 -67 -17.5t-62 -39.5l-11 25q15 16 34 33.5t41 32.5t44 24.5t43 9.5
q17 0 28 -6.5t11 -23.5z" />
    <glyph glyph-name="cacute" unicode="&#x107;" horiz-adv-x="460" 
d="M389 355q0 41 -20 64.5t-63 23.5q-48 0 -85.5 -25.5t-63.5 -65.5t-40 -89t-14 -95q0 -62 27 -90q15 -17 39.5 -26t53.5 -9q45 0 86.5 16.5t71.5 36.5l-13 -62q-26 -17 -66 -30t-89 -13q-83 0 -129 44.5t-46 129.5q0 55 18 113t53 106t86 79t116 31q63 0 100 -33.5
t37 -105.5h-59zM423 629q0 -11 -7.5 -24.5t-15.5 -21.5q-10 5 -20 6.5t-18 1.5q-34 0 -67 -17.5t-62 -39.5l-11 25q15 16 34 33.5t41 32.5t44 24.5t43 9.5q17 0 28 -6.5t11 -23.5z" />
    <glyph glyph-name="ccedilla" unicode="&#xe7;" horiz-adv-x="460" 
d="M268 -89q0 -23 -13.5 -38t-33.5 -23.5t-43.5 -12t-44.5 -3.5v32q10 0 24.5 1.5t27 5t21.5 9t9 14.5q0 8 -10.5 12t-24.5 8q-26 8 -35.5 14t-9.5 18q0 21 27 48q-60 13 -92 55.5t-32 113.5q0 55 18 113t53 106t86 79t116 31q63 0 100 -33.5t37 -105.5h-59q0 41 -20 64.5
t-63 23.5q-48 0 -85.5 -25.5t-63.5 -65.5t-40 -89t-14 -95q0 -62 27 -90q15 -17 39.5 -26t53.5 -9q45 0 86.5 16.5t71.5 36.5l-13 -62q-26 -17 -66 -30t-89 -13h-12q-11 -11 -11 -19q0 -6 7 -8.5t26 -8.5q20 -6 32.5 -14.5t12.5 -29.5z" />
    <glyph glyph-name="ccircumflex" unicode="&#x109;" horiz-adv-x="460" 
d="M389 355q0 41 -20 64.5t-63 23.5q-48 0 -85.5 -25.5t-63.5 -65.5t-40 -89t-14 -95q0 -62 27 -90q15 -17 39.5 -26t53.5 -9q45 0 86.5 16.5t71.5 36.5l-13 -62q-26 -17 -66 -30t-89 -13q-83 0 -129 44.5t-46 129.5q0 55 18 113t53 106t86 79t116 31q63 0 100 -33.5
t37 -105.5h-59zM436 541h-59l-41 74l-74 -74h-65l100 100q11 11 17 14.5t17 3.5h21q9 0 14.5 -3.5t12.5 -15.5z" />
    <glyph glyph-name="ccaron" unicode="&#x10d;" horiz-adv-x="460" 
d="M389 355q0 41 -20 64.5t-63 23.5q-48 0 -85.5 -25.5t-63.5 -65.5t-40 -89t-14 -95q0 -62 27 -90q15 -17 39.5 -26t53.5 -9q45 0 86.5 16.5t71.5 36.5l-13 -62q-26 -17 -66 -30t-89 -13q-83 0 -129 44.5t-46 129.5q0 55 18 113t53 106t86 79t116 31q63 0 100 -33.5
t37 -105.5h-59zM461 666l-99 -100q-11 -11 -17.5 -14.5t-17.5 -3.5h-21q-9 0 -14 4t-12 15l-57 99h61l41 -73l73 73h63z" />
    <glyph glyph-name="cdotaccent" unicode="&#x10b;" horiz-adv-x="460" 
d="M389 355q0 41 -20 64.5t-63 23.5q-48 0 -85.5 -25.5t-63.5 -65.5t-40 -89t-14 -95q0 -62 27 -90q15 -17 39.5 -26t53.5 -9q45 0 86.5 16.5t71.5 36.5l-13 -62q-26 -17 -66 -30t-89 -13q-83 0 -129 44.5t-46 129.5q0 55 18 113t53 106t86 79t116 31q63 0 100 -33.5
t37 -105.5h-59zM396 620q0 -27 -21.5 -48.5t-51.5 -21.5q-20 0 -33 13.5t-13 33.5q0 14 5.5 27t15.5 22.5t22.5 15.5t27.5 6q20 0 34 -13.5t14 -34.5z" />
    <glyph glyph-name="dcaron" unicode="&#x10f;" horiz-adv-x="590" 
d="M413 433q-11 5 -27.5 8.5t-35.5 3.5q-55 0 -100.5 -26.5t-78.5 -68t-51.5 -91.5t-18.5 -97q0 -58 27.5 -89t74.5 -31q32 0 60.5 14t49.5 40q23 26 38 66.5t28 103.5zM410 683q11 3 23 4t20 1q29 0 45.5 -12.5t16.5 -41.5q0 -6 -2 -23.5t-7 -37.5l-96 -460
q-4 -18 -6.5 -31t-2.5 -20q0 -17 19 -17q9 0 22 4.5t26 12.5l-11 -50q-11 -8 -28.5 -12.5t-31.5 -4.5q-30 0 -45 13.5t-15 36.5q0 10 3 22q-26 -35 -62 -55.5t-87 -20.5q-76 0 -115.5 47t-39.5 125q0 61 24.5 120.5t67 106.5t99 75.5t120.5 28.5q23 0 43 -3.5t34 -8.5l17 79
q4 17 7 34t3 25q0 23 -22 23q-13 0 -31 -3zM538 527l53 143q12 5 34 3.5t35 -6.5l-70 -140h-52z" />
    <glyph glyph-name="dcroat" unicode="&#x111;" horiz-adv-x="527" 
d="M410 683q11 3 23 4t20 1q29 0 45.5 -12.5t16.5 -41.5q0 -3 -0.5 -10t-2.5 -15h63l-10 -50h-62l-93 -446q-4 -18 -6.5 -31t-2.5 -20q0 -17 19 -17q9 0 22 4.5t26 12.5l-11 -50q-11 -8 -28.5 -12.5t-31.5 -4.5q-30 0 -45 13.5t-15 36.5q0 10 3 22q-26 -35 -62 -55.5
t-87 -20.5q-76 0 -115.5 47t-39.5 125q0 61 24.5 120.5t67 106.5t99 75.5t120.5 28.5q23 0 43 -3.5t34 -8.5l16 77h-160l10 50h160q2 10 2 13q0 12 -6.5 16.5t-17.5 4.5q-12 0 -30 -3zM413 433q-11 5 -27.5 8.5t-35.5 3.5q-55 0 -100.5 -26.5t-78.5 -68t-51.5 -91.5
t-18.5 -97q0 -58 27.5 -89t74.5 -31q32 0 60.5 14t49.5 40q23 26 38 66.5t28 103.5z" />
    <glyph glyph-name="eth" unicode="&#xf0;" horiz-adv-x="493" 
d="M462 413q0 -45 -6.5 -94t-20.5 -96t-36 -89t-53 -74t-72 -50.5t-92 -18.5q-35 0 -65 11t-51.5 32t-33.5 50.5t-12 66.5q0 52 18.5 98t51.5 81t78 55.5t99 20.5q36 0 71 -9.5t58 -22.5q1 13 1 23.5v23.5q0 37 -9.5 76.5t-38.5 65.5l-40 -63l-33 19l42 66q-11 5 -26.5 6.5
t-29.5 1.5q-15 0 -33.5 -2.5t-33.5 -7.5l-9 48q14 5 37 8t47 3q21 0 40.5 -2t36.5 -9l40 62l33 -19l-39 -62q24 -15 40 -38t25 -50t12.5 -55.5t3.5 -55.5zM187 40q54 0 90 29.5t59.5 73t35.5 93t17 88.5q-23 14 -55 23t-60 9q-44 0 -78.5 -16t-59.5 -43.5t-38 -64.5t-13 -79
q0 -48 25.5 -80.5t76.5 -32.5z" />
    <glyph glyph-name="egrave" unicode="&#xe8;" horiz-adv-x="473" 
d="M454 377q0 -36 -16 -69.5t-47 -59t-76 -40.5t-103 -15q-26 0 -55.5 4.5t-52.5 12.5q-3 -17 -3 -41q0 -60 30.5 -93t90.5 -33q46 0 87 15.5t75 37.5l-12 -60q-32 -21 -74 -33t-86 -12q-83 0 -129.5 44t-46.5 128q0 34 7.5 69t21 68t33 62.5t43.5 53.5q34 34 82 56t98 22
q60 0 96.5 -30t36.5 -87zM390 373q0 32 -19.5 51t-55.5 19q-25 0 -50 -9t-46 -24q-37 -26 -64 -67.5t-40 -87.5q22 -6 48.5 -10t47.5 -4q81 0 130 36t49 96zM406 534q-22 24 -48 40.5t-58 16.5q-17 0 -39 -8q-5 8 -7 16t-2 14q0 20 14.5 33t37.5 13q20 0 38.5 -9.5
t34.5 -24.5t28 -33t20 -34z" />
    <glyph glyph-name="eacute" unicode="&#xe9;" horiz-adv-x="473" 
d="M454 377q0 -36 -16 -69.5t-47 -59t-76 -40.5t-103 -15q-26 0 -55.5 4.5t-52.5 12.5q-3 -17 -3 -41q0 -60 30.5 -93t90.5 -33q46 0 87 15.5t75 37.5l-12 -60q-32 -21 -74 -33t-86 -12q-83 0 -129.5 44t-46.5 128q0 34 7.5 69t21 68t33 62.5t43.5 53.5q34 34 82 56t98 22
q60 0 96.5 -30t36.5 -87zM390 373q0 32 -19.5 51t-55.5 19q-25 0 -50 -9t-46 -24q-37 -26 -64 -67.5t-40 -87.5q22 -6 48.5 -10t47.5 -4q81 0 130 36t49 96zM437 629q0 -11 -7.5 -24.5t-15.5 -21.5q-10 5 -20 6.5t-18 1.5q-34 0 -67 -17.5t-62 -39.5l-11 25q15 16 34 33.5
t41 32.5t44 24.5t43 9.5q17 0 28 -6.5t11 -23.5z" />
    <glyph glyph-name="ecircumflex" unicode="&#xea;" horiz-adv-x="473" 
d="M454 377q0 -36 -16 -69.5t-47 -59t-76 -40.5t-103 -15q-26 0 -55.5 4.5t-52.5 12.5q-3 -17 -3 -41q0 -60 30.5 -93t90.5 -33q46 0 87 15.5t75 37.5l-12 -60q-32 -21 -74 -33t-86 -12q-83 0 -129.5 44t-46.5 128q0 34 7.5 69t21 68t33 62.5t43.5 53.5q34 34 82 56t98 22
q60 0 96.5 -30t36.5 -87zM390 373q0 32 -19.5 51t-55.5 19q-25 0 -50 -9t-46 -24q-37 -26 -64 -67.5t-40 -87.5q22 -6 48.5 -10t47.5 -4q81 0 130 36t49 96zM456 541h-59l-41 74l-74 -74h-65l100 100q11 11 17 14.5t17 3.5h21q9 0 14.5 -3.5t12.5 -15.5z" />
    <glyph glyph-name="ecaron" unicode="&#x11b;" horiz-adv-x="473" 
d="M454 377q0 -36 -16 -69.5t-47 -59t-76 -40.5t-103 -15q-26 0 -55.5 4.5t-52.5 12.5q-3 -17 -3 -41q0 -60 30.5 -93t90.5 -33q46 0 87 15.5t75 37.5l-12 -60q-32 -21 -74 -33t-86 -12q-83 0 -129.5 44t-46.5 128q0 34 7.5 69t21 68t33 62.5t43.5 53.5q34 34 82 56t98 22
q60 0 96.5 -30t36.5 -87zM390 373q0 32 -19.5 51t-55.5 19q-25 0 -50 -9t-46 -24q-37 -26 -64 -67.5t-40 -87.5q22 -6 48.5 -10t47.5 -4q81 0 130 36t49 96zM468 666l-99 -100q-11 -11 -17.5 -14.5t-17.5 -3.5h-21q-9 0 -14 4t-12 15l-57 99h61l41 -73l73 73h63z" />
    <glyph glyph-name="edieresis" unicode="&#xeb;" horiz-adv-x="473" 
d="M454 377q0 -36 -16 -69.5t-47 -59t-76 -40.5t-103 -15q-26 0 -55.5 4.5t-52.5 12.5q-3 -17 -3 -41q0 -60 30.5 -93t90.5 -33q46 0 87 15.5t75 37.5l-12 -60q-32 -21 -74 -33t-86 -12q-83 0 -129.5 44t-46.5 128q0 34 7.5 69t21 68t33 62.5t43.5 53.5q34 34 82 56t98 22
q60 0 96.5 -30t36.5 -87zM390 373q0 32 -19.5 51t-55.5 19q-25 0 -50 -9t-46 -24q-37 -26 -64 -67.5t-40 -87.5q22 -6 48.5 -10t47.5 -4q81 0 130 36t49 96zM313 618q0 -23 -17 -40.5t-42 -17.5q-17 0 -28.5 10t-11.5 28q0 23 17 41.5t43 18.5q17 0 28 -11.5t11 -28.5z
M469 618q0 -23 -17 -40.5t-42 -17.5q-17 0 -28.5 10t-11.5 28q0 23 17 41.5t43 18.5q17 0 28 -11.5t11 -28.5z" />
    <glyph glyph-name="emacron" unicode="&#x113;" horiz-adv-x="473" 
d="M454 377q0 -36 -16 -69.5t-47 -59t-76 -40.5t-103 -15q-26 0 -55.5 4.5t-52.5 12.5q-3 -17 -3 -41q0 -60 30.5 -93t90.5 -33q46 0 87 15.5t75 37.5l-12 -60q-32 -21 -74 -33t-86 -12q-83 0 -129.5 44t-46.5 128q0 34 7.5 69t21 68t33 62.5t43.5 53.5q34 34 82 56t98 22
q60 0 96.5 -30t36.5 -87zM390 373q0 32 -19.5 51t-55.5 19q-25 0 -50 -9t-46 -24q-37 -26 -64 -67.5t-40 -87.5q22 -6 48.5 -10t47.5 -4q81 0 130 36t49 96zM457 635l-11 -58h-214l12 58h213z" />
    <glyph glyph-name="ebreve" unicode="&#x115;" horiz-adv-x="473" 
d="M454 377q0 -36 -16 -69.5t-47 -59t-76 -40.5t-103 -15q-26 0 -55.5 4.5t-52.5 12.5q-3 -17 -3 -41q0 -60 30.5 -93t90.5 -33q46 0 87 15.5t75 37.5l-12 -60q-32 -21 -74 -33t-86 -12q-83 0 -129.5 44t-46.5 128q0 34 7.5 69t21 68t33 62.5t43.5 53.5q34 34 82 56t98 22
q60 0 96.5 -30t36.5 -87zM390 373q0 32 -19.5 51t-55.5 19q-25 0 -50 -9t-46 -24q-37 -26 -64 -67.5t-40 -87.5q22 -6 48.5 -10t47.5 -4q81 0 130 36t49 96zM454 650q-15 -57 -49.5 -82.5t-78.5 -25.5q-40 0 -64.5 24t-24.5 61q0 8 0.5 13t1.5 10h42q2 -28 16 -42.5
t38 -14.5q48 0 75 57h44z" />
    <glyph glyph-name="edotaccent" unicode="&#x117;" horiz-adv-x="473" 
d="M454 377q0 -36 -16 -69.5t-47 -59t-76 -40.5t-103 -15q-26 0 -55.5 4.5t-52.5 12.5q-3 -17 -3 -41q0 -60 30.5 -93t90.5 -33q46 0 87 15.5t75 37.5l-12 -60q-32 -21 -74 -33t-86 -12q-83 0 -129.5 44t-46.5 128q0 34 7.5 69t21 68t33 62.5t43.5 53.5q34 34 82 56t98 22
q60 0 96.5 -30t36.5 -87zM390 373q0 32 -19.5 51t-55.5 19q-25 0 -50 -9t-46 -24q-37 -26 -64 -67.5t-40 -87.5q22 -6 48.5 -10t47.5 -4q81 0 130 36t49 96zM405 620q0 -27 -21.5 -48.5t-51.5 -21.5q-20 0 -33 13.5t-13 33.5q0 14 5.5 27t15.5 22.5t22.5 15.5t27.5 6
q20 0 34 -13.5t14 -34.5z" />
    <glyph glyph-name="eogonek" unicode="&#x119;" horiz-adv-x="473" 
d="M454 377q0 -36 -16 -69.5t-47 -59t-76 -40.5t-103 -15q-26 0 -55.5 4.5t-52.5 12.5q-3 -17 -3 -41q0 -60 30.5 -93t90.5 -33q46 0 87 15.5t75 37.5l-12 -60q-8 -5 -16.5 -10t-22.5 -11q-39 -18 -57 -44t-18 -54q0 -30 23 -44t51 -19l-18 -29q-20 1 -39.5 6t-35 15
t-25.5 25.5t-10 36.5q0 26 10.5 47t27.5 38q-8 -1 -15 -1.5t-15 -0.5q-83 0 -129.5 44t-46.5 128q0 34 7.5 69t21 68t33 62.5t43.5 53.5q34 34 82 56t98 22q60 0 96.5 -30t36.5 -87zM390 373q0 32 -19.5 51t-55.5 19q-25 0 -50 -9t-46 -24q-37 -26 -64 -67.5t-40 -87.5
q22 -6 48.5 -10t47.5 -4q81 0 130 36t49 96z" />
    <glyph glyph-name="gcircumflex" unicode="&#x11d;" horiz-adv-x="523" 
d="M497 487l-98 -464q-11 -54 -27 -92t-39 -65q-28 -32 -75 -55t-106 -23q-78 0 -122.5 32t-44.5 88q0 90 134 117q-33 15 -51.5 51.5t-18.5 81.5q0 64 24.5 125t67 107.5t100 75t123.5 28.5q28 0 53.5 -6.5t39.5 -14.5zM423 434q-8 5 -22.5 8t-34.5 3q-59 0 -105.5 -26
t-79 -66.5t-50 -91t-17.5 -99.5q0 -52 25 -82.5t73 -30.5q32 0 63 15t51 40q20 26 34 61t26 92zM347 68q-26 -31 -65 -48t-92 -24q-69 -9 -107 -26t-38 -57q0 -35 30.5 -54.5t75.5 -19.5t76.5 13.5t51.5 35.5q22 23 34.5 54.5t21.5 71.5zM488 541h-59l-41 74l-74 -74h-65
l100 100q11 11 17 14.5t17 3.5h21q9 0 14.5 -3.5t12.5 -15.5z" />
    <glyph glyph-name="gbreve" unicode="&#x11f;" horiz-adv-x="523" 
d="M497 487l-98 -464q-11 -54 -27 -92t-39 -65q-28 -32 -75 -55t-106 -23q-78 0 -122.5 32t-44.5 88q0 90 134 117q-33 15 -51.5 51.5t-18.5 81.5q0 64 24.5 125t67 107.5t100 75t123.5 28.5q28 0 53.5 -6.5t39.5 -14.5zM423 434q-8 5 -22.5 8t-34.5 3q-59 0 -105.5 -26
t-79 -66.5t-50 -91t-17.5 -99.5q0 -52 25 -82.5t73 -30.5q32 0 63 15t51 40q20 26 34 61t26 92zM347 68q-26 -31 -65 -48t-92 -24q-69 -9 -107 -26t-38 -57q0 -35 30.5 -54.5t75.5 -19.5t76.5 13.5t51.5 35.5q22 23 34.5 54.5t21.5 71.5zM497 650q-15 -57 -49.5 -82.5
t-78.5 -25.5q-40 0 -64.5 24t-24.5 61q0 8 0.5 13t1.5 10h42q2 -28 16 -42.5t38 -14.5q48 0 75 57h44z" />
    <glyph glyph-name="gdotaccent" unicode="&#x121;" horiz-adv-x="523" 
d="M497 487l-98 -464q-11 -54 -27 -92t-39 -65q-28 -32 -75 -55t-106 -23q-78 0 -122.5 32t-44.5 88q0 90 134 117q-33 15 -51.5 51.5t-18.5 81.5q0 64 24.5 125t67 107.5t100 75t123.5 28.5q28 0 53.5 -6.5t39.5 -14.5zM423 434q-8 5 -22.5 8t-34.5 3q-59 0 -105.5 -26
t-79 -66.5t-50 -91t-17.5 -99.5q0 -52 25 -82.5t73 -30.5q32 0 63 15t51 40q20 26 34 61t26 92zM347 68q-26 -31 -65 -48t-92 -24q-69 -9 -107 -26t-38 -57q0 -35 30.5 -54.5t75.5 -19.5t76.5 13.5t51.5 35.5q22 23 34.5 54.5t21.5 71.5zM442 620q0 -27 -21.5 -48.5
t-51.5 -21.5q-20 0 -33 13.5t-13 33.5q0 14 5.5 27t15.5 22.5t22.5 15.5t27.5 6q20 0 34 -13.5t14 -34.5z" />
    <glyph glyph-name="gcommaaccent" unicode="&#x123;" horiz-adv-x="523" 
d="M497 487l-98 -464q-11 -54 -27 -92t-39 -65q-28 -32 -75 -55t-106 -23q-78 0 -122.5 32t-44.5 88q0 90 134 117q-33 15 -51.5 51.5t-18.5 81.5q0 64 24.5 125t67 107.5t100 75t123.5 28.5q28 0 53.5 -6.5t39.5 -14.5zM423 434q-8 5 -22.5 8t-34.5 3q-59 0 -105.5 -26
t-79 -66.5t-50 -91t-17.5 -99.5q0 -52 25 -82.5t73 -30.5q32 0 63 15t51 40q20 26 34 61t26 92zM347 68q-26 -31 -65 -48t-92 -24q-69 -9 -107 -26t-38 -57q0 -35 30.5 -54.5t75.5 -19.5t76.5 13.5t51.5 35.5q22 23 34.5 54.5t21.5 71.5zM448.973 690.958l-52.9971 -142.991
q-11.999 -5 -33.998 -3.5q-21.998 1.5 -34.9971 6.5l69.9951 139.991h51.9971z" />
    <glyph glyph-name="hcircumflex" unicode="&#x125;" horiz-adv-x="543" 
d="M185 419q24 29 63 52t96 23t96 -31.5t39 -91.5q0 -24 -3.5 -44.5t-9.5 -49.5l-37 -174q-5 -21 -6.5 -31t-1.5 -14q0 -17 20 -17q9 0 21.5 4.5t25.5 12.5l-11 -50q-10 -8 -26.5 -12.5t-30.5 -4.5q-32 0 -47.5 16t-15.5 39q0 11 2 24t7 36l37 172q6 26 9.5 46.5t3.5 37.5
q0 35 -20.5 56.5t-62.5 21.5q-41 0 -73.5 -16.5t-52.5 -40.5q-20 -25 -33 -55.5t-23 -77.5l-54 -250h-63l112 530q8 34 12.5 55.5t4.5 33.5q0 20 -24 20q-13 0 -26 -3t-25 -8l11 49q30 11 63 11q36 0 51 -15q8 -8 11 -18.5t3 -21.5q0 -14 -3.5 -32.5t-8.5 -41.5zM341 717
h-59l-41 74l-74 -74h-65l100 100q11 11 17 14.5t17 3.5h21q9 0 14.5 -3.5t12.5 -15.5z" />
    <glyph glyph-name="hbar" unicode="&#x127;" horiz-adv-x="543" 
d="M212 548l-27 -129q24 29 63 52t96 23t96 -31.5t39 -91.5q0 -24 -3.5 -45t-9.5 -49l-37 -174q-5 -21 -6.5 -31t-1.5 -14q0 -17 20 -17q9 0 21.5 4.5t25.5 12.5l-11 -50q-10 -8 -26.5 -12.5t-30.5 -4.5q-32 0 -47.5 16t-15.5 39q0 11 2 24t7 36l37 172q6 26 9.5 46.5
t3.5 37.5q0 35 -20.5 56.5t-62.5 21.5q-41 0 -73.5 -16.5t-52.5 -40.5q-20 -25 -33 -55.5t-23 -77.5l-54 -250h-63l116 548h-64l10 50h65q1 6 1.5 11t0.5 10q0 20 -24 20q-13 0 -26 -3t-25 -8l11 49q30 11 63 11q36 0 51 -15q8 -8 11 -18.5t3 -21.5q0 -8 -1 -16.5t-3 -18.5
h146l-10 -50h-147z" />
    <glyph glyph-name="dotlessi" unicode="&#x131;" horiz-adv-x="250" 
d="M60 477q13 5 29.5 8t30.5 3q37 0 52 -15t15 -43q0 -12 -3.5 -32.5t-7.5 -38.5l-50 -236q-5 -21 -8.5 -37.5t-3.5 -24.5q0 -20 20 -20q22 0 47 17l-11 -50q-11 -8 -26 -12.5t-29 -4.5q-32 0 -48.5 16.5t-16.5 42.5q0 12 4.5 33t9.5 47l49 229q5 23 8 37.5t3 20.5
q0 22 -24 22q-21 0 -51 -11l11 49v0z" />
    <glyph glyph-name="igrave" unicode="&#xec;" horiz-adv-x="250" 
d="M60 477q13 5 29.5 8t30.5 3q37 0 52 -15t15 -43q0 -12 -3.5 -32.5t-7.5 -38.5l-50 -236q-5 -21 -8.5 -37.5t-3.5 -24.5q0 -20 20 -20q22 0 47 17l-11 -50q-11 -8 -26 -12.5t-29 -4.5q-32 0 -48.5 16.5t-16.5 42.5q0 12 4.5 33t9.5 47l49 229q5 23 8 37.5t3 20.5
q0 22 -24 22q-21 0 -51 -11l11 49v0zM239 534q-22 24 -48 40.5t-58 16.5q-17 0 -39 -8q-5 8 -7 16t-2 14q0 20 14.5 33t37.5 13q20 0 38.5 -9.5t34.5 -24.5t28 -33t20 -34z" />
    <glyph glyph-name="iacute" unicode="&#xed;" horiz-adv-x="250" 
d="M60 477q13 5 29.5 8t30.5 3q37 0 52 -15t15 -43q0 -12 -3.5 -32.5t-7.5 -38.5l-50 -236q-5 -21 -8.5 -37.5t-3.5 -24.5q0 -20 20 -20q22 0 47 17l-11 -50q-11 -8 -26 -12.5t-29 -4.5q-32 0 -48.5 16.5t-16.5 42.5q0 12 4.5 33t9.5 47l49 229q5 23 8 37.5t3 20.5
q0 22 -24 22q-21 0 -51 -11l11 49v0zM263 629q0 -11 -7.5 -24.5t-15.5 -21.5q-10 5 -20 6.5t-18 1.5q-34 0 -67 -17.5t-62 -39.5l-11 25q15 16 34 33.5t41 32.5t44 24.5t43 9.5q17 0 28 -6.5t11 -23.5z" />
    <glyph glyph-name="icircumflex" unicode="&#xee;" horiz-adv-x="250" 
d="M60 477q13 5 29.5 8t30.5 3q37 0 52 -15t15 -43q0 -12 -3.5 -32.5t-7.5 -38.5l-50 -236q-5 -21 -8.5 -37.5t-3.5 -24.5q0 -20 20 -20q22 0 47 17l-11 -50q-11 -8 -26 -12.5t-29 -4.5q-32 0 -48.5 16.5t-16.5 42.5q0 12 4.5 33t9.5 47l49 229q5 23 8 37.5t3 20.5
q0 22 -24 22q-21 0 -51 -11l11 49v0zM283 541h-59l-41 74l-74 -74h-65l100 100q11 11 17 14.5t17 3.5h21q9 0 14.5 -3.5t12.5 -15.5z" />
    <glyph glyph-name="itilde" unicode="&#x129;" horiz-adv-x="250" 
d="M60 477q13 5 29.5 8t30.5 3q37 0 52 -15t15 -43q0 -12 -3.5 -32.5t-7.5 -38.5l-50 -236q-5 -21 -8.5 -37.5t-3.5 -24.5q0 -20 20 -20q22 0 47 17l-11 -50q-11 -8 -26 -12.5t-29 -4.5q-32 0 -48.5 16.5t-16.5 42.5q0 12 4.5 33t9.5 47l49 229q5 23 8 37.5t3 20.5
q0 22 -24 22q-21 0 -51 -11l11 49v0zM296 646q-11 -41 -33.5 -65.5t-56.5 -24.5q-17 0 -29 6.5t-25 15.5q-8 5 -16.5 10t-17.5 5q-11 0 -21.5 -8.5t-19.5 -28.5h-33q11 41 33.5 65.5t55.5 24.5q17 0 29.5 -6.5t23.5 -14.5q8 -5 15.5 -10.5t19.5 -5.5q11 0 21 8.5t21 28.5h33
z" />
    <glyph glyph-name="idieresis" unicode="&#xef;" horiz-adv-x="250" 
d="M60 477q13 5 29.5 8t30.5 3q37 0 52 -15t15 -43q0 -12 -3.5 -32.5t-7.5 -38.5l-50 -236q-5 -21 -8.5 -37.5t-3.5 -24.5q0 -20 20 -20q22 0 47 17l-11 -50q-11 -8 -26 -12.5t-29 -4.5q-32 0 -48.5 16.5t-16.5 42.5q0 12 4.5 33t9.5 47l49 229q5 23 8 37.5t3 20.5
q0 22 -24 22q-21 0 -51 -11l11 49v0zM140 618q0 -23 -17 -40.5t-42 -17.5q-17 0 -28.5 10t-11.5 28q0 23 17 41.5t43 18.5q17 0 28 -11.5t11 -28.5zM296 618q0 -23 -17 -40.5t-42 -17.5q-17 0 -28.5 10t-11.5 28q0 23 17 41.5t43 18.5q17 0 28 -11.5t11 -28.5z" />
    <glyph glyph-name="imacron" unicode="&#x12b;" horiz-adv-x="250" 
d="M60 477q13 5 29.5 8t30.5 3q37 0 52 -15t15 -43q0 -12 -3.5 -32.5t-7.5 -38.5l-50 -236q-5 -21 -8.5 -37.5t-3.5 -24.5q0 -20 20 -20q22 0 47 17l-11 -50q-11 -8 -26 -12.5t-29 -4.5q-32 0 -48.5 16.5t-16.5 42.5q0 12 4.5 33t9.5 47l49 229q5 23 8 37.5t3 20.5
q0 22 -24 22q-21 0 -51 -11l11 49v0zM283 635l-11 -58h-214l12 58h213z" />
    <glyph glyph-name="ibreve" unicode="&#x12d;" horiz-adv-x="251" 
d="M289 643q-16 -56 -49 -81.5t-77 -25.5q-39 0 -64.5 22t-25.5 59q0 8 0.5 14.5t1.5 11.5h44q2 -28 12.5 -42.5t37.5 -14.5t44.5 14.5t30.5 42.5h45zM119 89q-2 -11 -3 -19t-1 -12q0 -17 19 -17q9 0 22 4.5t25 12.5l-10 -50q-11 -8 -27 -12.5t-30 -4.5q-32 0 -47.5 16.5
t-15.5 42.5q0 5 1.5 16.5t3.5 21.5q15 73 32 150t31 150q5 22 5 30q0 21 -20 21q-10 0 -23 -3t-31 -8l10 49q31 11 60 11q35 0 53 -18q15 -17 15 -43q0 -10 -4 -30z" />
    <glyph glyph-name="iogonek" unicode="&#x12f;" horiz-adv-x="250" 
d="M60 477q13 5 29.5 8t30.5 3q37 0 52 -15t15 -43q0 -12 -3.5 -32.5t-7.5 -38.5l-50 -236q-5 -21 -8.5 -37.5t-3.5 -24.5q0 -20 20 -20q22 0 47 17l-11 -50q-29 -15 -46.5 -39t-17.5 -59q0 -28 21.5 -41.5t49.5 -18.5l-18 -29q-20 1 -39 5.5t-34 14.5t-24.5 25t-9.5 36
q0 26 14.5 49.5t37.5 39.5q-27 4 -40.5 20t-13.5 39q0 12 4.5 33t9.5 47l49 229q5 23 8 37.5t3 20.5q0 22 -24 22q-21 0 -51 -11zM149 569l22 102q13 5 37 4t38 -8l-44 -98h-53z" />
    <glyph glyph-name="ij" unicode="&#x133;" horiz-adv-x="490" 
d="M149 569l22 102q13 5 37 4t38 -8l-44 -98h-53zM60 477q13 5 29.5 8t30.5 3q37 0 52 -15t15 -43q0 -12 -3.5 -32.5t-7.5 -38.5l-50 -236q-5 -21 -8.5 -37.5t-3.5 -24.5q0 -20 20 -20q22 0 47 17l-11 -50q-11 -8 -26 -12.5t-29 -4.5q-32 0 -48.5 16.5t-16.5 42.5
q0 12 4.5 33t9.5 47l49 229q5 23 8 37.5t3 20.5q0 22 -24 22q-21 0 -51 -11zM408 569l22 102q13 5 37 4t38 -8l-44 -98h-53zM367 38q-10 -45 -20 -80t-23 -61q-19 -38 -47 -64t-66 -45l-43 27q26 14 46 31.5t36 41.5t28.5 58t22.5 81l71 332q5 23 8 37.5t3 20.5q0 22 -24 22
q-21 0 -51 -11l11 49q13 5 29.5 8t30.5 3q37 0 52 -15t15 -43q0 -12 -3.5 -32.5t-7.5 -38.5z" />
    <glyph glyph-name="jcircumflex" unicode="&#x135;" horiz-adv-x="240" 
d="M117 38q-10 -45 -20 -80t-23 -61q-19 -38 -47 -64t-66 -45l-43 27q26 14 46 31.5t36 41.5t28.5 58t22.5 81l71 332q5 23 8 37.5t3 20.5q0 22 -24 22q-21 0 -51 -11l11 49q13 5 29.5 8t30.5 3q37 0 52 -15t15 -43q0 -12 -3.5 -32.5t-7.5 -38.5zM284 541h-59l-41 74
l-74 -74h-65l100 100q11 11 17 14.5t17 3.5h21q9 0 14.5 -3.5t12.5 -15.5z" />
    <glyph glyph-name="kcommaaccent" unicode="&#x137;" horiz-adv-x="529" 
d="M97 0h-63l115 543q5 26 9.5 46t4.5 29q0 21 -23 21q-10 0 -23 -2.5t-29 -8.5l11 49q30 11 63 11q36 0 51 -15q8 -8 11 -18.5t3 -23.5q0 -5 -1 -14t-3 -20l-43 -203q32 45 78 72.5t104 27.5q61 0 97 -32t36 -87q0 -33 -14 -63.5t-39.5 -54.5t-62.5 -40.5t-82 -20.5
q6 -6 12.5 -17t15.5 -29l40 -79q8 -17 15.5 -24.5t19.5 -7.5t24 5.5t23 13.5l-11 -50q-11 -8 -24 -12.5t-27 -4.5q-24 0 -40 11t-29 36l-59 116q-11 20 -24.5 30t-47.5 12l-13 43q16 -3 35 -5t39 -2q39 0 73 10.5t59 29t39 43t14 52.5q0 38 -21.5 57.5t-59.5 19.5
q-40 0 -73.5 -19t-60 -49t-44 -67.5t-25.5 -74.5zM132 -188l53 143q12 5 34 3.5t35 -6.5l-70 -140h-52z" />
    <glyph glyph-name="kgreenlandic" unicode="&#x138;" horiz-adv-x="537" 
d="M105 0h-63l72 343q5 26 9.5 46t4.5 29q0 21 -23 21q-10 0 -23 -2.5t-29 -8.5l11 49q30 11 63 11q36 0 51 -15q8 -8 11 -18.5t3 -23.5q0 -5 -1.5 -16t-4.5 -23q32 46 79 74t105 28q61 0 97 -32t36 -87q0 -33 -14 -63.5t-39.5 -54.5t-62.5 -40.5t-82 -20.5q6 -6 12.5 -17
t15.5 -29l40 -79q8 -17 15.5 -24.5t19.5 -7.5t24 5.5t23 13.5l-11 -50q-11 -8 -24 -12.5t-27 -4.5q-24 0 -40 11t-29 36l-59 116q-11 20 -24.5 30t-47.5 12l-13 43q16 -3 35 -5t39 -2q39 0 73 10.5t59 29t39 43t14 52.5q0 38 -21.5 57.5t-59.5 19.5q-40 0 -73.5 -19t-60 -49
t-44 -67.5t-25.5 -74.5z" />
    <glyph glyph-name="lacute" unicode="&#x13a;" horiz-adv-x="246" 
d="M99 677q13 5 29.5 8t30.5 3q37 0 52 -15t15 -43q0 -12 -3.5 -32.5t-7.5 -38.5l-92 -436q-5 -21 -8.5 -37.5t-3.5 -24.5q0 -20 20 -20q22 0 47 17l-11 -50q-11 -8 -26 -12.5t-29 -4.5q-32 0 -48.5 16.5t-16.5 42.5q0 12 4.5 33t9.5 47l91 429q5 23 8 37.5t3 20.5
q0 22 -24 22q-21 0 -51 -11l11 49v0zM314 806q0 -11 -7.5 -24.5t-15.5 -21.5q-10 5 -20 6.5t-18 1.5q-34 0 -67 -17.5t-62 -39.5l-11 25q15 16 34 33.5t41 32.5t44 24.5t43 9.5q17 0 28 -6.5t11 -23.5z" />
    <glyph glyph-name="lcaron" unicode="&#x13e;" horiz-adv-x="296" 
d="M99 677q13 5 29.5 8t30.5 3q37 0 52 -15t15 -43q0 -12 -3.5 -32.5t-7.5 -38.5l-92 -436q-5 -21 -8.5 -37.5t-3.5 -24.5q0 -20 20 -20q22 0 47 17l-11 -50q-11 -8 -26 -12.5t-29 -4.5q-32 0 -48.5 16.5t-16.5 42.5q0 12 4.5 33t9.5 47l91 429q5 23 8 37.5t3 20.5
q0 22 -24 22q-21 0 -51 -11l11 49v0zM245 527l53 143q12 5 34 3.5t35 -6.5l-70 -140h-52z" />
    <glyph glyph-name="lcommaaccent" unicode="&#x13c;" horiz-adv-x="239" 
d="M99 677q13 5 29.5 8t30.5 3q37 0 52 -15t15 -43q0 -12 -3.5 -32.5t-7.5 -38.5l-92 -436q-5 -21 -8.5 -37.5t-3.5 -24.5q0 -20 20 -20q22 0 47 17l-11 -50q-11 -8 -26 -12.5t-29 -4.5q-32 0 -48.5 16.5t-16.5 42.5q0 12 4.5 33t9.5 47l91 429q5 23 8 37.5t3 20.5
q0 22 -24 22q-21 0 -51 -11l11 49v0zM7 -188l53 143q12 5 34 3.5t35 -6.5l-70 -140h-52z" />
    <glyph glyph-name="lslash" unicode="&#x142;" horiz-adv-x="246" 
d="M99 677q13 5 29.5 8t30.5 3q37 0 52 -15t15 -43q0 -12 -3.5 -32.5t-7.5 -38.5l-25 -117l101 46l-11 -62l-103 -47l-54 -256q-5 -21 -8.5 -37.5t-3.5 -24.5q0 -20 20 -20q22 0 47 17l-11 -50q-11 -8 -26 -12.5t-29 -4.5q-32 0 -48.5 16.5t-16.5 42.5q0 12 4.5 33t9.5 47
l46 217l-96 -43l12 62l97 44l32 149q5 23 8 37.5t3 20.5q0 22 -24 22q-21 0 -51 -11l11 49v0z" />
    <glyph glyph-name="ldot" unicode="&#x140;" horiz-adv-x="302" 
d="M345 346q0 -15 -6 -27.5t-16.5 -22t-23.5 -15t-26 -5.5q-20 0 -33.5 14t-13.5 34q0 13 6 26t15.5 22.5t22.5 15.5t27 6q20 0 34 -13.5t14 -34.5zM99 677q13 5 29.5 8t30.5 3q37 0 52 -15t15 -43q0 -12 -3.5 -32.5t-7.5 -38.5l-92 -436q-5 -21 -8.5 -37.5t-3.5 -24.5
q0 -20 20 -20q22 0 47 17l-11 -50q-11 -8 -26 -12.5t-29 -4.5q-32 0 -48.5 16.5t-16.5 42.5q0 12 4.5 33t9.5 47l91 429q5 23 8 37.5t3 20.5q0 22 -24 22q-21 0 -51 -11l11 49v0z" />
    <glyph glyph-name="nacute" unicode="&#x144;" horiz-adv-x="553" 
d="M104 0h-63l76 356q5 23 8 38t3 23q0 21 -25 21q-19 0 -52 -11l11 49q31 11 63 11q18 0 28.5 -3t19.5 -10q16 -13 16 -39q0 -5 -1 -12t-2 -12q23 31 64 57t99 26q60 0 98.5 -32t38.5 -95q0 -17 -4 -41t-10 -51l-36 -172q-5 -20 -6.5 -30t-1.5 -13q0 -19 20 -19
q9 0 21.5 4.5t25.5 12.5l-11 -50q-11 -8 -26 -12.5t-31 -4.5q-63 0 -63 59q0 9 2.5 23.5t6.5 32.5l37 172q5 23 9 46t4 37q0 37 -21.5 58t-63.5 21q-41 0 -72.5 -16.5t-51.5 -40.5q-20 -25 -33.5 -58.5t-26.5 -91.5zM449 629q0 -11 -7.5 -24.5t-15.5 -21.5q-10 5 -20 6.5
t-18 1.5q-34 0 -67 -17.5t-62 -39.5l-11 25q15 16 34 33.5t41 32.5t44 24.5t43 9.5q17 0 28 -6.5t11 -23.5z" />
    <glyph glyph-name="ncaron" unicode="&#x148;" horiz-adv-x="553" 
d="M104 0h-63l76 356q5 23 8 38t3 23q0 21 -25 21q-19 0 -52 -11l11 49q31 11 63 11q18 0 28.5 -3t19.5 -10q16 -13 16 -39q0 -5 -1 -12t-2 -12q23 31 64 57t99 26q60 0 98.5 -32t38.5 -95q0 -17 -4 -41t-10 -51l-36 -172q-5 -20 -6.5 -30t-1.5 -13q0 -19 20 -19
q9 0 21.5 4.5t25.5 12.5l-11 -50q-11 -8 -26 -12.5t-31 -4.5q-63 0 -63 59q0 9 2.5 23.5t6.5 32.5l37 172q5 23 9 46t4 37q0 37 -21.5 58t-63.5 21q-41 0 -72.5 -16.5t-51.5 -40.5q-20 -25 -33.5 -58.5t-26.5 -91.5zM482 666l-99 -100q-11 -11 -17.5 -14.5t-17.5 -3.5h-21
q-9 0 -14 4t-12 15l-57 99h61l41 -73l73 73h63z" />
    <glyph glyph-name="ntilde" unicode="&#xf1;" horiz-adv-x="553" 
d="M104 0h-63l76 356q5 23 8 38t3 23q0 21 -25 21q-19 0 -52 -11l11 49q31 11 63 11q18 0 28.5 -3t19.5 -10q16 -13 16 -39q0 -5 -1 -12t-2 -12q23 31 64 57t99 26q60 0 98.5 -32t38.5 -95q0 -17 -4 -41t-10 -51l-36 -172q-5 -20 -6.5 -30t-1.5 -13q0 -19 20 -19
q9 0 21.5 4.5t25.5 12.5l-11 -50q-11 -8 -26 -12.5t-31 -4.5q-63 0 -63 59q0 9 2.5 23.5t6.5 32.5l37 172q5 23 9 46t4 37q0 37 -21.5 58t-63.5 21q-41 0 -72.5 -16.5t-51.5 -40.5q-20 -25 -33.5 -58.5t-26.5 -91.5zM476 646q-11 -41 -33.5 -65.5t-56.5 -24.5q-17 0 -29 6.5
t-25 15.5q-8 5 -16.5 10t-17.5 5q-11 0 -21.5 -8.5t-19.5 -28.5h-33q11 41 33.5 65.5t55.5 24.5q17 0 29.5 -6.5t23.5 -14.5q8 -5 15.5 -10.5t19.5 -5.5q11 0 21 8.5t21 28.5h33z" />
    <glyph glyph-name="ncommaaccent" unicode="&#x146;" horiz-adv-x="553" 
d="M104 0h-63l76 356q5 23 8 38t3 23q0 21 -25 21q-19 0 -52 -11l11 49q31 11 63 11q18 0 28.5 -3t19.5 -10q16 -13 16 -39q0 -5 -1 -12t-2 -12q23 31 64 57t99 26q60 0 98.5 -32t38.5 -95q0 -17 -4 -41t-10 -51l-36 -172q-5 -20 -6.5 -30t-1.5 -13q0 -19 20 -19
q9 0 21.5 4.5t25.5 12.5l-11 -50q-11 -8 -26 -12.5t-31 -4.5q-63 0 -63 59q0 9 2.5 23.5t6.5 32.5l37 172q5 23 9 46t4 37q0 37 -21.5 58t-63.5 21q-41 0 -72.5 -16.5t-51.5 -40.5q-20 -25 -33.5 -58.5t-26.5 -91.5zM158 -188l53 143q12 5 34 3.5t35 -6.5l-70 -140h-52z" />
    <glyph glyph-name="napostrophe" unicode="&#x149;" horiz-adv-x="658" 
d="M209 0h-63l76 356q5 23 8 38t3 23q0 21 -25 21q-19 0 -52 -11l11 49q31 11 63 11q18 0 28.5 -3t19.5 -10q16 -13 16 -39q0 -5 -1 -12t-2 -12q23 31 64 57t99 26q60 0 98.5 -32t38.5 -95q0 -17 -4 -41t-10 -51l-36 -172q-5 -20 -6.5 -30t-1.5 -13q0 -19 20 -19
q9 0 21.5 4.5t25.5 12.5l-11 -50q-11 -8 -26 -12.5t-31 -4.5q-63 0 -63 59q0 9 2.5 23.5t6.5 32.5l37 172q5 23 9 46t4 37q0 37 -21.5 58t-63.5 21q-41 0 -72.5 -16.5t-51.5 -40.5q-20 -25 -33.5 -58.5t-26.5 -91.5zM58 445l71 192q14 5 35.5 3.5t35.5 -8.5l-89 -187h-53z
" />
    <glyph glyph-name="eng" unicode="&#x14b;" horiz-adv-x="553" 
d="M432 86q-10 -44 -19.5 -77.5t-22.5 -58.5q-37 -71 -111 -106l-41 27q57 35 85.5 85t43.5 122l43 200q5 23 9 46t4 37q0 37 -21.5 58t-63.5 21q-41 0 -72.5 -16.5t-51.5 -40.5q-20 -25 -33.5 -58.5t-26.5 -91.5l-50 -233h-63l76 356q5 23 8 38t3 23q0 21 -25 21
q-19 0 -52 -11l11 49q31 11 63 11q18 0 28.5 -3t19.5 -10q16 -13 16 -39q0 -5 -1 -12t-2 -12q23 31 64 57t99 26q60 0 98.5 -32t38.5 -95q0 -17 -4 -41t-10 -51z" />
    <glyph glyph-name="ograve" unicode="&#xf2;" horiz-adv-x="510" 
d="M473 328q0 -35 -7 -71.5t-20 -71t-32 -66t-43 -56.5q-32 -33 -73.5 -52.5t-92.5 -19.5q-77 0 -122 44.5t-45 124.5q0 74 26 142t75 119q32 33 75.5 53t95.5 20q35 0 65 -11t51.5 -32t34 -52t12.5 -71zM408 323q0 56 -27 88t-79 32q-32 0 -60 -13.5t-50 -35.5
q-21 -21 -37.5 -48t-28 -57.5t-17.5 -62.5t-6 -63q0 -57 28.5 -89t79.5 -32q32 0 59 13.5t50 35.5q21 21 37.5 48t27.5 57.5t17 63t6 63.5zM408 534q-22 24 -48 40.5t-58 16.5q-17 0 -39 -8q-5 8 -7 16t-2 14q0 20 14.5 33t37.5 13q20 0 38.5 -9.5t34.5 -24.5t28 -33t20 -34
z" />
    <glyph glyph-name="oacute" unicode="&#xf3;" horiz-adv-x="510" 
d="M473 328q0 -35 -7 -71.5t-20 -71t-32 -66t-43 -56.5q-32 -33 -73.5 -52.5t-92.5 -19.5q-77 0 -122 44.5t-45 124.5q0 74 26 142t75 119q32 33 75.5 53t95.5 20q35 0 65 -11t51.5 -32t34 -52t12.5 -71zM408 323q0 56 -27 88t-79 32q-32 0 -60 -13.5t-50 -35.5
q-21 -21 -37.5 -48t-28 -57.5t-17.5 -62.5t-6 -63q0 -57 28.5 -89t79.5 -32q32 0 59 13.5t50 35.5q21 21 37.5 48t27.5 57.5t17 63t6 63.5zM425 629q0 -11 -7.5 -24.5t-15.5 -21.5q-10 5 -20 6.5t-18 1.5q-34 0 -67 -17.5t-62 -39.5l-11 25q15 16 34 33.5t41 32.5t44 24.5
t43 9.5q17 0 28 -6.5t11 -23.5z" />
    <glyph glyph-name="ocircumflex" unicode="&#xf4;" horiz-adv-x="510" 
d="M473 328q0 -35 -7 -71.5t-20 -71t-32 -66t-43 -56.5q-32 -33 -73.5 -52.5t-92.5 -19.5q-77 0 -122 44.5t-45 124.5q0 74 26 142t75 119q32 33 75.5 53t95.5 20q35 0 65 -11t51.5 -32t34 -52t12.5 -71zM408 323q0 56 -27 88t-79 32q-32 0 -60 -13.5t-50 -35.5
q-21 -21 -37.5 -48t-28 -57.5t-17.5 -62.5t-6 -63q0 -57 28.5 -89t79.5 -32q32 0 59 13.5t50 35.5q21 21 37.5 48t27.5 57.5t17 63t6 63.5zM446 541h-59l-41 74l-74 -74h-65l100 100q11 11 17 14.5t17 3.5h21q9 0 14.5 -3.5t12.5 -15.5z" />
    <glyph glyph-name="otilde" unicode="&#xf5;" horiz-adv-x="510" 
d="M473 328q0 -35 -7 -71.5t-20 -71t-32 -66t-43 -56.5q-32 -33 -73.5 -52.5t-92.5 -19.5q-77 0 -122 44.5t-45 124.5q0 74 26 142t75 119q32 33 75.5 53t95.5 20q35 0 65 -11t51.5 -32t34 -52t12.5 -71zM408 323q0 56 -27 88t-79 32q-32 0 -60 -13.5t-50 -35.5
q-21 -21 -37.5 -48t-28 -57.5t-17.5 -62.5t-6 -63q0 -57 28.5 -89t79.5 -32q32 0 59 13.5t50 35.5q21 21 37.5 48t27.5 57.5t17 63t6 63.5zM457 646q-11 -41 -33.5 -65.5t-56.5 -24.5q-17 0 -29 6.5t-25 15.5q-8 5 -16.5 10t-17.5 5q-11 0 -21.5 -8.5t-19.5 -28.5h-33
q11 41 33.5 65.5t55.5 24.5q17 0 29.5 -6.5t23.5 -14.5q8 -5 15.5 -10.5t19.5 -5.5q11 0 21 8.5t21 28.5h33z" />
    <glyph glyph-name="odieresis" unicode="&#xf6;" horiz-adv-x="510" 
d="M473 328q0 -35 -7 -71.5t-20 -71t-32 -66t-43 -56.5q-32 -33 -73.5 -52.5t-92.5 -19.5q-77 0 -122 44.5t-45 124.5q0 74 26 142t75 119q32 33 75.5 53t95.5 20q35 0 65 -11t51.5 -32t34 -52t12.5 -71zM408 323q0 56 -27 88t-79 32q-32 0 -60 -13.5t-50 -35.5
q-21 -21 -37.5 -48t-28 -57.5t-17.5 -62.5t-6 -63q0 -57 28.5 -89t79.5 -32q32 0 59 13.5t50 35.5q21 21 37.5 48t27.5 57.5t17 63t6 63.5zM303 618q0 -23 -17 -40.5t-42 -17.5q-17 0 -28.5 10t-11.5 28q0 23 17 41.5t43 18.5q17 0 28 -11.5t11 -28.5zM459 618
q0 -23 -17 -40.5t-42 -17.5q-17 0 -28.5 10t-11.5 28q0 23 17 41.5t43 18.5q17 0 28 -11.5t11 -28.5z" />
    <glyph glyph-name="omacron" unicode="&#x14d;" horiz-adv-x="510" 
d="M473 328q0 -35 -7 -71.5t-20 -71t-32 -66t-43 -56.5q-32 -33 -73.5 -52.5t-92.5 -19.5q-77 0 -122 44.5t-45 124.5q0 74 26 142t75 119q32 33 75.5 53t95.5 20q35 0 65 -11t51.5 -32t34 -52t12.5 -71zM408 323q0 56 -27 88t-79 32q-32 0 -60 -13.5t-50 -35.5
q-21 -21 -37.5 -48t-28 -57.5t-17.5 -62.5t-6 -63q0 -57 28.5 -89t79.5 -32q32 0 59 13.5t50 35.5q21 21 37.5 48t27.5 57.5t17 63t6 63.5zM442 635l-11 -58h-214l12 58h213z" />
    <glyph glyph-name="obreve" unicode="&#x14f;" horiz-adv-x="510" 
d="M473 328q0 -35 -7 -71.5t-20 -71t-32 -66t-43 -56.5q-32 -33 -73.5 -52.5t-92.5 -19.5q-77 0 -122 44.5t-45 124.5q0 74 26 142t75 119q32 33 75.5 53t95.5 20q35 0 65 -11t51.5 -32t34 -52t12.5 -71zM408 323q0 56 -27 88t-79 32q-32 0 -60 -13.5t-50 -35.5
q-21 -21 -37.5 -48t-28 -57.5t-17.5 -62.5t-6 -63q0 -57 28.5 -89t79.5 -32q32 0 59 13.5t50 35.5q21 21 37.5 48t27.5 57.5t17 63t6 63.5zM451 650q-15 -57 -49.5 -82.5t-78.5 -25.5q-40 0 -64.5 24t-24.5 61q0 8 0.5 13t1.5 10h42q2 -28 16 -42.5t38 -14.5q48 0 75 57h44z
" />
    <glyph glyph-name="ohungarumlaut" unicode="&#x151;" horiz-adv-x="510" 
d="M473 328q0 -35 -7 -71.5t-20 -71t-32 -66t-43 -56.5q-32 -33 -73.5 -52.5t-92.5 -19.5q-77 0 -122 44.5t-45 124.5q0 74 26 142t75 119q32 33 75.5 53t95.5 20q35 0 65 -11t51.5 -32t34 -52t12.5 -71zM408 323q0 56 -27 88t-79 32q-32 0 -60 -13.5t-50 -35.5
q-21 -21 -37.5 -48t-28 -57.5t-17.5 -62.5t-6 -63q0 -57 28.5 -89t79.5 -32q32 0 59 13.5t50 35.5q21 21 37.5 48t27.5 57.5t17 63t6 63.5zM357 629q0 -11 -7.5 -24.5t-15.5 -21.5q-8 3 -16.5 5.5t-15.5 2.5q-29 0 -55 -17t-49 -39l-10 24q16 19 32 37.5t32 32t32.5 22
t33.5 8.5q14 0 26.5 -6.5t12.5 -23.5zM515 629q0 -11 -7.5 -24.5t-15.5 -21.5q-8 3 -16.5 5.5t-15.5 2.5q-29 0 -55 -17t-49 -39l-10 24q16 19 32 37.5t32 32t32.5 22t33.5 8.5q14 0 26.5 -6.5t12.5 -23.5z" />
    <glyph glyph-name="oslash" unicode="&#xf8;" horiz-adv-x="510" 
d="M473 328q0 -35 -7 -71.5t-20 -71t-32 -66t-43 -56.5q-32 -33 -73.5 -52.5t-92.5 -19.5q-23 0 -42.5 4t-36.5 11l-49 -74h-57l67 100q-49 44 -49 128q0 74 26 142t75 119q32 33 75.5 53t95.5 20q42 0 75 -15l46 69h57l-64 -95q23 -21 36 -52t13 -73zM408 323q0 45 -19 77
l-231 -347q24 -11 53 -11q32 0 59 13.5t50 35.5q21 21 37.5 48t27.5 57.5t17 63t6 63.5zM103 163q0 -46 20 -77l230 346q-22 11 -51 11q-32 0 -60 -13.5t-50 -35.5q-21 -21 -37.5 -48t-28 -57.5t-17.5 -62.5t-6 -63z" />
    <glyph glyph-name="oslashacute" unicode="&#x1ff;" horiz-adv-x="510" 
d="M473 328q0 -35 -7 -71.5t-20 -71t-32 -66t-43 -56.5q-32 -33 -73.5 -52.5t-92.5 -19.5q-23 0 -42.5 4t-36.5 11l-49 -74h-57l67 100q-49 44 -49 128q0 74 26 142t75 119q32 33 75.5 53t95.5 20q42 0 75 -15l46 69h57l-64 -95q23 -21 36 -52t13 -73zM408 323q0 45 -19 77
l-231 -347q24 -11 53 -11q32 0 59 13.5t50 35.5q21 21 37.5 48t27.5 57.5t17 63t6 63.5zM103 163q0 -46 20 -77l230 346q-22 11 -51 11q-32 0 -60 -13.5t-50 -35.5q-21 -21 -37.5 -48t-28 -57.5t-17.5 -62.5t-6 -63zM419 629q0 -11 -7.5 -24.5t-15.5 -21.5q-10 5 -20 6.5
t-18 1.5q-34 0 -67 -17.5t-62 -39.5l-11 25q15 16 34 33.5t41 32.5t44 24.5t43 9.5q17 0 28 -6.5t11 -23.5z" />
    <glyph glyph-name="oe" unicode="&#x153;" horiz-adv-x="958" 
d="M473 328v-9t-1 -13q16 -8 35 -16t33 -13q14 40 35.5 75.5t50.5 63.5q34 34 82 56t98 22q60 0 96.5 -30t36.5 -87q0 -36 -16 -69.5t-47 -59t-76 -40.5t-103 -15q-26 0 -55.5 4.5t-52.5 12.5q-3 -17 -3 -41q0 -60 30.5 -93t90.5 -33q46 0 87 15.5t75 37.5l-12 -60
q-32 -21 -74 -33t-86 -12q-83 0 -129.5 44t-46.5 128q0 33 6 66q-14 5 -30.5 12t-30.5 13q-11 -54 -35 -104t-60 -87q-32 -33 -73.5 -52.5t-92.5 -19.5q-77 0 -122 44.5t-45 124.5q0 74 26 142t75 119q32 33 75.5 53t95.5 20q35 0 65 -11t51.5 -32t34 -52t12.5 -71zM408 323
q0 56 -27 88t-79 32q-32 0 -60 -13.5t-50 -35.5q-21 -21 -37.5 -48t-28 -57.5t-17.5 -62.5t-6 -63q0 -57 28.5 -89t79.5 -32q32 0 59 13.5t50 35.5q21 21 37.5 48t27.5 57.5t17 63t6 63.5zM875 373q0 32 -19.5 51t-55.5 19q-25 0 -50 -9t-46 -24q-37 -26 -64 -67.5
t-40 -87.5q22 -6 48.5 -10t47.5 -4q81 0 130 36t49 96z" />
    <glyph glyph-name="thorn" unicode="&#xfe;" horiz-adv-x="519" 
d="M497 328q0 -55 -15.5 -114.5t-46 -109t-77 -81.5t-109.5 -32q-50 0 -80.5 22t-43.5 51l-57 -263h-63l188 882h63l-56 -261q23 31 61.5 51.5t87.5 20.5q72 0 110 -46t38 -120zM432 326q0 24 -6 45.5t-18 37.5t-31 25.5t-45 9.5q-57 0 -101 -42.5t-61 -123.5l-15 -71
q-8 -40 -8 -70q0 -44 29.5 -70t71.5 -26q50 0 85 29t57 72t32 93t10 91z" />
    <glyph glyph-name="racute" unicode="&#x155;" horiz-adv-x="324" 
d="M189 436q0 -14 -3 -27q23 37 58 61t73 24q11 0 19 -1t13 -3l-13 -59q-7 2 -15.5 2.5t-14.5 0.5q-32 0 -55.5 -13t-42 -41t-33 -72.5t-28.5 -108.5l-43 -199h-63l80 373q8 35 8 46q0 19 -25 19q-24 0 -52 -11l11 49q30 11 65 11q33 0 47 -14q8 -8 11 -17t3 -20zM348 629
q0 -11 -7.5 -24.5t-15.5 -21.5q-10 5 -20 6.5t-18 1.5q-34 0 -67 -17.5t-62 -39.5l-11 25q15 16 34 33.5t41 32.5t44 24.5t43 9.5q17 0 28 -6.5t11 -23.5z" />
    <glyph glyph-name="rcaron" unicode="&#x159;" horiz-adv-x="324" 
d="M189 436q0 -14 -3 -27q23 37 58 61t73 24q11 0 19 -1t13 -3l-13 -59q-7 2 -15.5 2.5t-14.5 0.5q-32 0 -55.5 -13t-42 -41t-33 -72.5t-28.5 -108.5l-43 -199h-63l80 373q8 35 8 46q0 19 -25 19q-24 0 -52 -11l11 49q30 11 65 11q33 0 47 -14q8 -8 11 -17t3 -20zM377 666
l-99 -100q-11 -11 -17.5 -14.5t-17.5 -3.5h-21q-9 0 -14 4t-12 15l-57 99h61l41 -73l73 73h63z" />
    <glyph glyph-name="rcommaaccent" unicode="&#x157;" horiz-adv-x="324" 
d="M189 436q0 -14 -3 -27q23 37 58 61t73 24q11 0 19 -1t13 -3l-13 -59q-7 2 -15.5 2.5t-14.5 0.5q-32 0 -55.5 -13t-42 -41t-33 -72.5t-28.5 -108.5l-43 -199h-63l80 373q8 35 8 46q0 19 -25 19q-24 0 -52 -11l11 49q30 11 65 11q33 0 47 -14q8 -8 11 -17t3 -20zM-24 -188
l53 143q12 5 34 3.5t35 -6.5l-70 -140h-52z" />
    <glyph glyph-name="sacute" unicode="&#x15b;" horiz-adv-x="392" 
d="M368 423q-24 10 -52 16t-56 6q-59 0 -92 -21t-33 -58q0 -29 19.5 -47.5t64.5 -45.5q29 -17 51.5 -31t37.5 -29.5t23 -33.5t8 -43q0 -36 -16.5 -63.5t-43 -45.5t-60.5 -27t-69 -9q-41 0 -82.5 11t-69.5 28l11 52q30 -20 66.5 -31t71.5 -11q61 0 95 23t34 66q0 15 -5.5 27
t-16.5 23t-29 22.5t-42 25.5q-27 16 -48 30.5t-34.5 29.5t-20.5 32t-7 39q0 59 51 98q27 20 62.5 29t70.5 9q29 0 61.5 -5.5t58.5 -16.5zM374 629q0 -11 -7.5 -24.5t-15.5 -21.5q-10 5 -20 6.5t-18 1.5q-34 0 -67 -17.5t-62 -39.5l-11 25q15 16 34 33.5t41 32.5t44 24.5
t43 9.5q17 0 28 -6.5t11 -23.5z" />
    <glyph glyph-name="scircumflex" unicode="&#x15d;" horiz-adv-x="392" 
d="M368 423q-24 10 -52 16t-56 6q-59 0 -92 -21t-33 -58q0 -29 19.5 -47.5t64.5 -45.5q29 -17 51.5 -31t37.5 -29.5t23 -33.5t8 -43q0 -36 -16.5 -63.5t-43 -45.5t-60.5 -27t-69 -9q-41 0 -82.5 11t-69.5 28l11 52q30 -20 66.5 -31t71.5 -11q61 0 95 23t34 66q0 15 -5.5 27
t-16.5 23t-29 22.5t-42 25.5q-27 16 -48 30.5t-34.5 29.5t-20.5 32t-7 39q0 59 51 98q27 20 62.5 29t70.5 9q29 0 61.5 -5.5t58.5 -16.5zM385 541h-59l-41 74l-74 -74h-65l100 100q11 11 17 14.5t17 3.5h21q9 0 14.5 -3.5t12.5 -15.5z" />
    <glyph glyph-name="scaron" unicode="&#x161;" horiz-adv-x="392" 
d="M368 423q-24 10 -52 16t-56 6q-59 0 -92 -21t-33 -58q0 -29 19.5 -47.5t64.5 -45.5q29 -17 51.5 -31t37.5 -29.5t23 -33.5t8 -43q0 -36 -16.5 -63.5t-43 -45.5t-60.5 -27t-69 -9q-41 0 -82.5 11t-69.5 28l11 52q30 -20 66.5 -31t71.5 -11q61 0 95 23t34 66q0 15 -5.5 27
t-16.5 23t-29 22.5t-42 25.5q-27 16 -48 30.5t-34.5 29.5t-20.5 32t-7 39q0 59 51 98q27 20 62.5 29t70.5 9q29 0 61.5 -5.5t58.5 -16.5zM397 666l-99 -100q-11 -11 -17.5 -14.5t-17.5 -3.5h-21q-9 0 -14 4t-12 15l-57 99h61l41 -73l73 73h63z" />
    <glyph glyph-name="scedilla" unicode="&#x15f;" horiz-adv-x="392" 
d="M223 -89q0 -23 -13.5 -38t-33.5 -23.5t-43.5 -12t-44.5 -3.5v32q10 0 24.5 1.5t27 5t21.5 9t9 14.5q0 8 -10.5 12t-24.5 8q-26 8 -35.5 14t-9.5 18q0 20 24 46q-32 4 -63 13t-53 23l11 52q30 -20 66.5 -31t71.5 -11q61 0 95 23t34 66q0 15 -5.5 27t-16.5 23t-29 22.5
t-42 25.5q-27 16 -48 30.5t-34.5 29.5t-20.5 32t-7 39q0 59 51 98q27 20 62.5 29t70.5 9q29 0 61.5 -5.5t58.5 -16.5l-9 -49q-24 10 -52 16t-56 6q-59 0 -92 -21t-33 -58q0 -29 19.5 -47.5t64.5 -45.5q29 -17 51.5 -31t37.5 -29.5t23 -33.5t8 -43q0 -36 -15.5 -62.5
t-41.5 -44.5t-59 -27.5t-67 -10.5q-11 -11 -11 -19q0 -6 7 -8.5t26 -8.5q20 -6 32.5 -14.5t12.5 -29.5z" />
    <glyph glyph-name="scommaaccent" unicode="&#x219;" horiz-adv-x="392" 
d="M368 423q-24 10 -52 16t-56 6q-59 0 -92 -21t-33 -58q0 -29 19.5 -47.5t64.5 -45.5q29 -17 51.5 -31t37.5 -29.5t23 -33.5t8 -43q0 -36 -16.5 -63.5t-43 -45.5t-60.5 -27t-69 -9q-41 0 -82.5 11t-69.5 28l11 52q30 -20 66.5 -31t71.5 -11q61 0 95 23t34 66q0 15 -5.5 27
t-16.5 23t-29 22.5t-42 25.5q-27 16 -48 30.5t-34.5 29.5t-20.5 32t-7 39q0 59 51 98q27 20 62.5 29t70.5 9q29 0 61.5 -5.5t58.5 -16.5zM53 -188l53 143q12 5 34 3.5t35 -6.5l-70 -140h-52z" />
    <glyph glyph-name="germandbls" unicode="&#xdf;" horiz-adv-x="539" 
d="M93 -60q-6 -30 -16.5 -55t-28 -43t-43 -28t-61.5 -10q-11 0 -27 2t-27 6v45q12 -2 24 -3.5t20 -1.5q25 0 41.5 5.5t27 17.5t17 30t11.5 44l100 486h-68l11 50h67l4 19q20 94 70 143t145 49q31 0 60 -7.5t51 -23.5t35 -39.5t13 -56.5t-12 -55.5t-32 -39t-46 -28.5t-55 -22
q-19 -7 -36 -13.5t-30.5 -15.5t-21.5 -21t-8 -29q0 -27 25.5 -46.5t63.5 -36.5q22 -11 43.5 -22.5t37.5 -26t26 -32.5t10 -41q0 -41 -18 -69.5t-46 -46t-62 -25.5t-65 -8q-45 0 -84.5 11t-66.5 28l11 52q30 -19 65.5 -30.5t67.5 -11.5q66 0 99.5 25.5t33.5 67.5
q0 30 -23.5 46.5t-65.5 37.5q-26 13 -47 25t-35.5 26t-22.5 31.5t-8 40.5q0 26 10.5 45.5t27.5 34.5t40 26t49 20q21 7 41 15.5t36.5 20.5t26.5 28t10 37q0 20 -9 35t-23.5 24.5t-33 14.5t-37.5 5q-36 0 -61.5 -12t-43 -33.5t-28.5 -53t-19 -70.5z" />
    <glyph glyph-name="tcaron" unicode="&#x165;" horiz-adv-x="328" 
d="M318 485l-10 -50h-116l-57 -270q-5 -25 -8 -41.5t-3 -28.5q0 -26 15 -39.5t42 -13.5q20 0 46 8.5t43 20.5l-11 -54q-17 -11 -42.5 -18.5t-50.5 -7.5q-49 0 -77.5 24.5t-28.5 70.5q0 12 3 30t8 43l58 276h-68l10 50h68l28 126l70 27l-34 -153h115zM263 548l53 143
q12 5 34 3.5t35 -6.5l-70 -140h-52z" />
    <glyph glyph-name="tcommaaccent" unicode="&#x163;" horiz-adv-x="324" 
d="M66 -188l53 143q12 5 34 3.5t35 -6.5l-70 -140h-52zM318 485l-10 -50h-116l-57 -270q-5 -25 -8 -41.5t-3 -28.5q0 -26 15 -39.5t42 -13.5q20 0 46 8.5t43 20.5l-11 -54q-17 -11 -42.5 -18.5t-50.5 -7.5q-49 0 -77.5 24.5t-28.5 70.5q0 12 3 30t8 43l58 276h-68l10 50h68
l28 126l70 27l-34 -153h115z" />
    <glyph glyph-name="uni021B" unicode="&#x21b;" horiz-adv-x="324" 
d="M66 -188l53 143q12 5 34 3.5t35 -6.5l-70 -140h-52zM318 485l-10 -50h-116l-57 -270q-5 -25 -8 -41.5t-3 -28.5q0 -26 15 -39.5t42 -13.5q20 0 46 8.5t43 20.5l-11 -54q-17 -11 -42.5 -18.5t-50.5 -7.5q-49 0 -77.5 24.5t-28.5 70.5q0 12 3 30t8 43l58 276h-68l10 50h68
l28 126l70 27l-34 -153h115z" />
    <glyph glyph-name="tbar" unicode="&#x167;" horiz-adv-x="325" 
d="M319 485l-10 -50h-116l-29 -137h96l-11 -50h-96l-17 -83q-5 -26 -8 -42t-3 -28q0 -26 15 -39.5t42 -13.5q20 0 46 8.5t43 20.5l-11 -54q-17 -11 -42.5 -18.5t-50.5 -7.5q-49 0 -77.5 24.5t-28.5 70.5q0 12 3 30t8 43l18 89h-55l11 50h55l29 137h-68l10 50h68l28 126
l70 27l-34 -153h115z" />
    <glyph glyph-name="ugrave" unicode="&#xf9;" horiz-adv-x="543" 
d="M49 477q31 11 60 11q20 0 32.5 -4t20.5 -12q15 -15 15 -43q0 -16 -8 -51l-36 -171q-6 -27 -9.5 -47t-3.5 -39q0 -37 22.5 -56.5t61.5 -19.5q42 0 72 15t54 42t36.5 62t23.5 88l50 233h63l-81 -379q-7 -32 -7 -42q0 -19 20 -19q9 0 22 4.5t25 12.5l-10 -50
q-11 -8 -27.5 -12.5t-30.5 -4.5q-37 0 -51.5 20t-12.5 52q-27 -32 -66 -54t-92 -22q-57 0 -96 30.5t-39 92.5q0 20 3.5 42t10.5 54l36 173q6 25 6 35q0 21 -24 21q-20 0 -50 -11zM372 534q-22 24 -48 40.5t-58 16.5q-17 0 -39 -8q-5 8 -7 16t-2 14q0 20 14.5 33t37.5 13
q20 0 38.5 -9.5t34.5 -24.5t28 -33t20 -34z" />
    <glyph glyph-name="uacute" unicode="&#xfa;" horiz-adv-x="543" 
d="M49 477q31 11 60 11q20 0 32.5 -4t20.5 -12q15 -15 15 -43q0 -16 -8 -51l-36 -171q-6 -27 -9.5 -47t-3.5 -39q0 -37 22.5 -56.5t61.5 -19.5q42 0 72 15t54 42t36.5 62t23.5 88l50 233h63l-81 -379q-7 -32 -7 -42q0 -19 20 -19q9 0 22 4.5t25 12.5l-10 -50
q-11 -8 -27.5 -12.5t-30.5 -4.5q-37 0 -51.5 20t-12.5 52q-27 -32 -66 -54t-92 -22q-57 0 -96 30.5t-39 92.5q0 20 3.5 42t10.5 54l36 173q6 25 6 35q0 21 -24 21q-20 0 -50 -11zM433 629q0 -11 -7.5 -24.5t-15.5 -21.5q-10 5 -20 6.5t-18 1.5q-34 0 -67 -17.5t-62 -39.5
l-11 25q15 16 34 33.5t41 32.5t44 24.5t43 9.5q17 0 28 -6.5t11 -23.5z" />
    <glyph glyph-name="ucircumflex" unicode="&#xfb;" horiz-adv-x="543" 
d="M49 477q31 11 60 11q20 0 32.5 -4t20.5 -12q15 -15 15 -43q0 -16 -8 -51l-36 -171q-6 -27 -9.5 -47t-3.5 -39q0 -37 22.5 -56.5t61.5 -19.5q42 0 72 15t54 42t36.5 62t23.5 88l50 233h63l-81 -379q-7 -32 -7 -42q0 -19 20 -19q9 0 22 4.5t25 12.5l-10 -50
q-11 -8 -27.5 -12.5t-30.5 -4.5q-37 0 -51.5 20t-12.5 52q-27 -32 -66 -54t-92 -22q-57 0 -96 30.5t-39 92.5q0 20 3.5 42t10.5 54l36 173q6 25 6 35q0 21 -24 21q-20 0 -50 -11zM446 541h-59l-41 74l-74 -74h-65l100 100q11 11 17 14.5t17 3.5h21q9 0 14.5 -3.5t12.5 -15.5
z" />
    <glyph glyph-name="utilde" unicode="&#x169;" horiz-adv-x="543" 
d="M49 477q31 11 60 11q20 0 32.5 -4t20.5 -12q15 -15 15 -43q0 -16 -8 -51l-36 -171q-6 -27 -9.5 -47t-3.5 -39q0 -37 22.5 -56.5t61.5 -19.5q42 0 72 15t54 42t36.5 62t23.5 88l50 233h63l-81 -379q-7 -32 -7 -42q0 -19 20 -19q9 0 22 4.5t25 12.5l-10 -50
q-11 -8 -27.5 -12.5t-30.5 -4.5q-37 0 -51.5 20t-12.5 52q-27 -32 -66 -54t-92 -22q-57 0 -96 30.5t-39 92.5q0 20 3.5 42t10.5 54l36 173q6 25 6 35q0 21 -24 21q-20 0 -50 -11zM466 646q-11 -41 -33.5 -65.5t-56.5 -24.5q-17 0 -29 6.5t-25 15.5q-8 5 -16.5 10t-17.5 5
q-11 0 -21.5 -8.5t-19.5 -28.5h-33q11 41 33.5 65.5t55.5 24.5q17 0 29.5 -6.5t23.5 -14.5q8 -5 15.5 -10.5t19.5 -5.5q11 0 21 8.5t21 28.5h33z" />
    <glyph glyph-name="udieresis" unicode="&#xfc;" horiz-adv-x="543" 
d="M49 477q31 11 60 11q20 0 32.5 -4t20.5 -12q15 -15 15 -43q0 -16 -8 -51l-36 -171q-6 -27 -9.5 -47t-3.5 -39q0 -37 22.5 -56.5t61.5 -19.5q42 0 72 15t54 42t36.5 62t23.5 88l50 233h63l-81 -379q-7 -32 -7 -42q0 -19 20 -19q9 0 22 4.5t25 12.5l-10 -50
q-11 -8 -27.5 -12.5t-30.5 -4.5q-37 0 -51.5 20t-12.5 52q-27 -32 -66 -54t-92 -22q-57 0 -96 30.5t-39 92.5q0 20 3.5 42t10.5 54l36 173q6 25 6 35q0 21 -24 21q-20 0 -50 -11zM303 618q0 -23 -17 -40.5t-42 -17.5q-17 0 -28.5 10t-11.5 28q0 23 17 41.5t43 18.5
q17 0 28 -11.5t11 -28.5zM459 618q0 -23 -17 -40.5t-42 -17.5q-17 0 -28.5 10t-11.5 28q0 23 17 41.5t43 18.5q17 0 28 -11.5t11 -28.5z" />
    <glyph glyph-name="umacron" unicode="&#x16b;" horiz-adv-x="543" 
d="M49 477q31 11 60 11q20 0 32.5 -4t20.5 -12q15 -15 15 -43q0 -16 -8 -51l-36 -171q-6 -27 -9.5 -47t-3.5 -39q0 -37 22.5 -56.5t61.5 -19.5q42 0 72 15t54 42t36.5 62t23.5 88l50 233h63l-81 -379q-7 -32 -7 -42q0 -19 20 -19q9 0 22 4.5t25 12.5l-10 -50
q-11 -8 -27.5 -12.5t-30.5 -4.5q-37 0 -51.5 20t-12.5 52q-27 -32 -66 -54t-92 -22q-57 0 -96 30.5t-39 92.5q0 20 3.5 42t10.5 54l36 173q6 25 6 35q0 21 -24 21q-20 0 -50 -11zM448 635l-11 -58h-214l12 58h213z" />
    <glyph glyph-name="ubreve" unicode="&#x16d;" horiz-adv-x="543" 
d="M49 477q31 11 60 11q20 0 32.5 -4t20.5 -12q15 -15 15 -43q0 -16 -8 -51l-36 -171q-6 -27 -9.5 -47t-3.5 -39q0 -37 22.5 -56.5t61.5 -19.5q42 0 72 15t54 42t36.5 62t23.5 88l50 233h63l-81 -379q-7 -32 -7 -42q0 -19 20 -19q9 0 22 4.5t25 12.5l-10 -50
q-11 -8 -27.5 -12.5t-30.5 -4.5q-37 0 -51.5 20t-12.5 52q-27 -32 -66 -54t-92 -22q-57 0 -96 30.5t-39 92.5q0 20 3.5 42t10.5 54l36 173q6 25 6 35q0 21 -24 21q-20 0 -50 -11zM450 650q-15 -57 -49.5 -82.5t-78.5 -25.5q-40 0 -64.5 24t-24.5 61q0 8 0.5 13t1.5 10h42
q2 -28 16 -42.5t38 -14.5q48 0 75 57h44z" />
    <glyph glyph-name="uring" unicode="&#x16f;" horiz-adv-x="543" 
d="M49 477q31 11 60 11q20 0 32.5 -4t20.5 -12q15 -15 15 -43q0 -16 -8 -51l-36 -171q-6 -27 -9.5 -47t-3.5 -39q0 -37 22.5 -56.5t61.5 -19.5q42 0 72 15t54 42t36.5 62t23.5 88l50 233h63l-81 -379q-7 -32 -7 -42q0 -19 20 -19q9 0 22 4.5t25 12.5l-10 -50
q-11 -8 -27.5 -12.5t-30.5 -4.5q-37 0 -51.5 20t-12.5 52q-27 -32 -66 -54t-92 -22q-57 0 -96 30.5t-39 92.5q0 20 3.5 42t10.5 54l36 173q6 25 6 35q0 21 -24 21q-20 0 -50 -11zM415 640q0 -21 -8.5 -38.5t-22.5 -31t-32.5 -21t-38.5 -7.5q-28 0 -48.5 17.5t-20.5 47.5
q0 21 8.5 38.5t22.5 30.5t33 20.5t39 7.5q28 0 48 -17t20 -47zM371 634q0 15 -8 24t-23 9q-23 0 -37.5 -15.5t-14.5 -36.5q0 -14 8.5 -24.5t23.5 -10.5q23 0 37 16t14 38z" />
    <glyph glyph-name="uhungarumlaut" unicode="&#x171;" horiz-adv-x="543" 
d="M49 477q31 11 60 11q20 0 32.5 -4t20.5 -12q15 -15 15 -43q0 -16 -8 -51l-36 -171q-6 -27 -9.5 -47t-3.5 -39q0 -37 22.5 -56.5t61.5 -19.5q42 0 72 15t54 42t36.5 62t23.5 88l50 233h63l-81 -379q-7 -32 -7 -42q0 -19 20 -19q9 0 22 4.5t25 12.5l-10 -50
q-11 -8 -27.5 -12.5t-30.5 -4.5q-37 0 -51.5 20t-12.5 52q-27 -32 -66 -54t-92 -22q-57 0 -96 30.5t-39 92.5q0 20 3.5 42t10.5 54l36 173q6 25 6 35q0 21 -24 21q-20 0 -50 -11zM363 629q0 -11 -7.5 -24.5t-15.5 -21.5q-8 3 -16.5 5.5t-15.5 2.5q-29 0 -55 -17t-49 -39
l-10 24q16 19 32 37.5t32 32t32.5 22t33.5 8.5q14 0 26.5 -6.5t12.5 -23.5zM521 629q0 -11 -7.5 -24.5t-15.5 -21.5q-8 3 -16.5 5.5t-15.5 2.5q-29 0 -55 -17t-49 -39l-10 24q16 19 32 37.5t32 32t32.5 22t33.5 8.5q14 0 26.5 -6.5t12.5 -23.5z" />
    <glyph glyph-name="uogonek" unicode="&#x173;" horiz-adv-x="540" 
d="M49 477q31 11 60 11q20 0 32.5 -4t20.5 -12q15 -15 15 -43q0 -16 -8 -51l-36 -171q-6 -27 -9.5 -47t-3.5 -39q0 -37 22.5 -56.5t61.5 -19.5q42 0 72 15t54 42t36.5 62t23.5 88l50 233h63l-81 -379q-3 -14 -5 -24.5t-2 -17.5q0 -19 20 -19q9 0 22 4.5t25 12.5l-10 -50
l-5 -3q-33 -23 -45.5 -46t-12.5 -46q0 -30 23 -44t51 -19l-18 -29q-20 1 -39.5 5.5t-35 14.5t-25.5 25t-10 36q0 54 45 90q-29 4 -40.5 23t-9.5 48q-27 -32 -66 -54t-92 -22q-57 0 -96 30.5t-39 92.5q0 20 3.5 42t10.5 54l36 173q6 25 6 35q0 21 -24 21q-20 0 -50 -11z" />
    <glyph glyph-name="wgrave" unicode="&#x1e81;" horiz-adv-x="695" 
d="M187 82q24 37 50.5 87.5t51.5 105t46.5 109.5t35.5 101h52l45 -403q24 37 50 87.5t50.5 105t46 109.5t35.5 101h61q-20 -62 -49 -133t-62 -138.5t-67.5 -124t-64.5 -89.5h-47l-41 357q-16 -46 -40 -98t-51 -101.5t-54 -91t-49 -66.5h-48l-51 407q-2 18 -9 25t-18 7
q-19 0 -50 -11l11 49q30 11 60 11q35 0 49.5 -19t18.5 -54zM463 534q-22 24 -48 40.5t-58 16.5q-17 0 -39 -8q-5 8 -7 16t-2 14q0 20 14.5 33t37.5 13q20 0 38.5 -9.5t34.5 -24.5t28 -33t20 -34z" />
    <glyph glyph-name="wacute" unicode="&#x1e83;" horiz-adv-x="695" 
d="M187 82q24 37 50.5 87.5t51.5 105t46.5 109.5t35.5 101h52l45 -403q24 37 50 87.5t50.5 105t46 109.5t35.5 101h61q-20 -62 -49 -133t-62 -138.5t-67.5 -124t-64.5 -89.5h-47l-41 357q-16 -46 -40 -98t-51 -101.5t-54 -91t-49 -66.5h-48l-51 407q-2 18 -9 25t-18 7
q-19 0 -50 -11l11 49q30 11 60 11q35 0 49.5 -19t18.5 -54zM530 629q0 -11 -7.5 -24.5t-15.5 -21.5q-10 5 -20 6.5t-18 1.5q-34 0 -67 -17.5t-62 -39.5l-11 25q15 16 34 33.5t41 32.5t44 24.5t43 9.5q17 0 28 -6.5t11 -23.5z" />
    <glyph glyph-name="wcircumflex" unicode="&#x175;" horiz-adv-x="695" 
d="M187 82q24 37 50.5 87.5t51.5 105t46.5 109.5t35.5 101h52l45 -403q24 37 50 87.5t50.5 105t46 109.5t35.5 101h61q-20 -62 -49 -133t-62 -138.5t-67.5 -124t-64.5 -89.5h-47l-41 357q-16 -46 -40 -98t-51 -101.5t-54 -91t-49 -66.5h-48l-51 407q-2 18 -9 25t-18 7
q-19 0 -50 -11l11 49q30 11 60 11q35 0 49.5 -19t18.5 -54zM516 541h-59l-41 74l-74 -74h-65l100 100q11 11 17 14.5t17 3.5h21q9 0 14.5 -3.5t12.5 -15.5z" />
    <glyph glyph-name="wdieresis" unicode="&#x1e85;" horiz-adv-x="695" 
d="M187 82q24 37 50.5 87.5t51.5 105t46.5 109.5t35.5 101h52l45 -403q24 37 50 87.5t50.5 105t46 109.5t35.5 101h61q-20 -62 -49 -133t-62 -138.5t-67.5 -124t-64.5 -89.5h-47l-41 357q-16 -46 -40 -98t-51 -101.5t-54 -91t-49 -66.5h-48l-51 407q-2 18 -9 25t-18 7
q-19 0 -50 -11l11 49q30 11 60 11q35 0 49.5 -19t18.5 -54zM385 618q0 -23 -17 -40.5t-42 -17.5q-17 0 -28.5 10t-11.5 28q0 23 17 41.5t43 18.5q17 0 28 -11.5t11 -28.5zM541 618q0 -23 -17 -40.5t-42 -17.5q-17 0 -28.5 10t-11.5 28q0 23 17 41.5t43 18.5q17 0 28 -11.5
t11 -28.5z" />
    <glyph glyph-name="ygrave" unicode="&#x1ef3;" horiz-adv-x="527" 
d="M352 68q-30 -35 -71.5 -50.5t-93.5 -22.5q-69 -9 -103 -27t-34 -55q0 -35 31.5 -54.5t76.5 -19.5q38 0 71 12.5t53 34.5q11 11 19 23t15 26.5t12.5 32.5t10.5 41zM132 207q-6 -28 -9.5 -49.5t-3.5 -35.5q0 -36 23 -57t66 -21q37 0 69 17t52 41q23 28 37 67t23 83l49 233
h63l-97 -461q-22 -106 -65 -157q-28 -32 -75 -55.5t-107 -23.5q-78 0 -122.5 32.5t-44.5 88.5q0 46 34 73.5t85 39.5q-25 13 -39 38t-14 54q0 17 3.5 40.5t10.5 55.5l37 177q5 22 5 31q0 21 -23 21q-19 0 -51 -11l10 49q31 11 62 11q37 0 52 -17q8 -8 11 -19t3 -25
q0 -5 -2 -17t-5 -27zM360 534q-22 24 -48 40.5t-58 16.5q-17 0 -39 -8q-5 8 -7 16t-2 14q0 20 14.5 33t37.5 13q20 0 38.5 -9.5t34.5 -24.5t28 -33t20 -34z" />
    <glyph glyph-name="yacute" unicode="&#xfd;" horiz-adv-x="527" 
d="M352 68q-30 -35 -71.5 -50.5t-93.5 -22.5q-69 -9 -103 -27t-34 -55q0 -35 31.5 -54.5t76.5 -19.5q38 0 71 12.5t53 34.5q11 11 19 23t15 26.5t12.5 32.5t10.5 41zM132 207q-6 -28 -9.5 -49.5t-3.5 -35.5q0 -36 23 -57t66 -21q37 0 69 17t52 41q23 28 37 67t23 83l49 233
h63l-97 -461q-22 -106 -65 -157q-28 -32 -75 -55.5t-107 -23.5q-78 0 -122.5 32.5t-44.5 88.5q0 46 34 73.5t85 39.5q-25 13 -39 38t-14 54q0 17 3.5 40.5t10.5 55.5l37 177q5 22 5 31q0 21 -23 21q-19 0 -51 -11l10 49q31 11 62 11q37 0 52 -17q8 -8 11 -19t3 -25
q0 -5 -2 -17t-5 -27zM429 629q0 -11 -7.5 -24.5t-15.5 -21.5q-10 5 -20 6.5t-18 1.5q-34 0 -67 -17.5t-62 -39.5l-11 25q15 16 34 33.5t41 32.5t44 24.5t43 9.5q17 0 28 -6.5t11 -23.5z" />
    <glyph glyph-name="ycircumflex" unicode="&#x177;" horiz-adv-x="527" 
d="M352 68q-30 -35 -71.5 -50.5t-93.5 -22.5q-69 -9 -103 -27t-34 -55q0 -35 31.5 -54.5t76.5 -19.5q38 0 71 12.5t53 34.5q11 11 19 23t15 26.5t12.5 32.5t10.5 41zM132 207q-6 -28 -9.5 -49.5t-3.5 -35.5q0 -36 23 -57t66 -21q37 0 69 17t52 41q23 28 37 67t23 83l49 233
h63l-97 -461q-22 -106 -65 -157q-28 -32 -75 -55.5t-107 -23.5q-78 0 -122.5 32.5t-44.5 88.5q0 46 34 73.5t85 39.5q-25 13 -39 38t-14 54q0 17 3.5 40.5t10.5 55.5l37 177q5 22 5 31q0 21 -23 21q-19 0 -51 -11l10 49q31 11 62 11q37 0 52 -17q8 -8 11 -19t3 -25
q0 -5 -2 -17t-5 -27zM428 541h-59l-41 74l-74 -74h-65l100 100q11 11 17 14.5t17 3.5h21q9 0 14.5 -3.5t12.5 -15.5z" />
    <glyph glyph-name="ydieresis" unicode="&#xff;" horiz-adv-x="527" 
d="M352 68q-30 -35 -71.5 -50.5t-93.5 -22.5q-69 -9 -103 -27t-34 -55q0 -35 31.5 -54.5t76.5 -19.5q38 0 71 12.5t53 34.5q11 11 19 23t15 26.5t12.5 32.5t10.5 41zM132 207q-6 -28 -9.5 -49.5t-3.5 -35.5q0 -36 23 -57t66 -21q37 0 69 17t52 41q23 28 37 67t23 83l49 233
h63l-97 -461q-22 -106 -65 -157q-28 -32 -75 -55.5t-107 -23.5q-78 0 -122.5 32.5t-44.5 88.5q0 46 34 73.5t85 39.5q-25 13 -39 38t-14 54q0 17 3.5 40.5t10.5 55.5l37 177q5 22 5 31q0 21 -23 21q-19 0 -51 -11l10 49q31 11 62 11q37 0 52 -17q8 -8 11 -19t3 -25
q0 -5 -2 -17t-5 -27zM285 618q0 -23 -17 -40.5t-42 -17.5q-17 0 -28.5 10t-11.5 28q0 23 17 41.5t43 18.5q17 0 28 -11.5t11 -28.5zM441 618q0 -23 -17 -40.5t-42 -17.5q-17 0 -28.5 10t-11.5 28q0 23 17 41.5t43 18.5q17 0 28 -11.5t11 -28.5z" />
    <glyph glyph-name="zacute" unicode="&#x17a;" horiz-adv-x="422" 
d="M427 485q-3 -23 -11.5 -39.5t-26.5 -37.5l-304 -362h125q23 0 41 1t33 3t29.5 6t30.5 10l-12 -52q-24 -7 -54.5 -10.5t-73.5 -3.5h-202q3 23 14 43.5t36 49.5l290 342h-235l11 50h309zM387 629q0 -11 -7.5 -24.5t-15.5 -21.5q-10 5 -20 6.5t-18 1.5q-34 0 -67 -17.5
t-62 -39.5l-11 25q15 16 34 33.5t41 32.5t44 24.5t43 9.5q17 0 28 -6.5t11 -23.5z" />
    <glyph glyph-name="zcaron" unicode="&#x17e;" horiz-adv-x="422" 
d="M427 485q-3 -23 -11.5 -39.5t-26.5 -37.5l-304 -362h125q23 0 41 1t33 3t29.5 6t30.5 10l-12 -52q-24 -7 -54.5 -10.5t-73.5 -3.5h-202q3 23 14 43.5t36 49.5l290 342h-235l11 50h309zM417 666l-99 -100q-11 -11 -17.5 -14.5t-17.5 -3.5h-21q-9 0 -14 4t-12 15l-57 99h61
l41 -73l73 73h63z" />
    <glyph glyph-name="zdotaccent" unicode="&#x17c;" horiz-adv-x="419" 
d="M427 485q-3 -23 -11.5 -39.5t-26.5 -37.5l-304 -362h125q23 0 41 1t33 3t29.5 6t30.5 10l-12 -52q-24 -7 -54.5 -10.5t-73.5 -3.5h-202q3 23 14 43.5t36 49.5l290 342h-235l11 50h309zM353 620q0 -27 -21.5 -48.5t-51.5 -21.5q-20 0 -33 13.5t-13 33.5q0 14 5.5 27
t15.5 22.5t22.5 15.5t27.5 6q20 0 34 -13.5t14 -34.5z" />
    <glyph glyph-name="apple" unicode="&#xf8ff;" horiz-adv-x="500" 
d="M441 193h-257v68h187v56h-187v193h257v-70h-186v-53h186v-194zM441 564h-309v-494h68v-70h-138v633h379v-69z" />
    <glyph glyph-name="f_j" horiz-adv-x="527" 
d="M404 38q-10 -45 -20 -80t-23 -61q-19 -38 -47 -64t-66 -45l-43 27q26 14 46 31.5t36 41.5t28.5 58t22.5 81l70 328q5 21 8 35.5t3 22.5q0 22 -24 22h-201l-101 -495q-14 -72 -48.5 -104t-95.5 -32q-15 0 -31.5 2t-27.5 6v45q11 -2 26 -3.5t26 -1.5q40 0 59 21.5t30 75.5
l100 486h-68l11 50h67l14 61q8 35 17.5 57.5t23.5 40.5q21 27 51 39.5t72 12.5q23 0 44.5 -5t33.5 -10l-9 -46q-14 5 -30 7.5t-35 2.5q-29 0 -45.5 -7t-27.5 -20q-10 -12 -18 -31t-16 -54l-11 -48h207q36 0 55 -14q17 -13 17 -42q0 -12 -4.5 -34t-8.5 -40zM445 569l22 102
q13 5 37 4t38 -8l-44 -98h-53z" />
    <glyph glyph-name="f_f_j" horiz-adv-x="821" 
d="M698 38q-10 -45 -20 -80t-23 -61q-19 -38 -47 -64t-66 -45l-43 27q26 14 46 31.5t36 41.5t28.5 58t22.5 81l70 328q5 20 8 35t3 23q0 22 -24 22h-201l-92 -451q-14 -72 -48.5 -104t-95.5 -32q-15 0 -31.5 2t-27.5 6v45q11 -2 26 -3.5t26 -1.5q40 0 59 21.5t30 75.5
l91 442h-231l-101 -495q-14 -72 -48.5 -104t-95.5 -32q-15 0 -31.5 2t-27.5 6v45q11 -2 26 -3.5t26 -1.5q40 0 59 21.5t30 75.5l100 486h-68l11 50h67l10 47q8 35 17.5 57.5t23.5 40.5q21 27 51 39.5t72 12.5q23 0 44.5 -5t33.5 -10l-9 -46q-14 5 -30 7.5t-35 2.5
q-29 0 -45.5 -7t-27.5 -20q-10 -12 -18 -31t-16 -54l-7 -34h230l14 61q8 35 17.5 57.5t23.5 40.5q21 27 51 39.5t72 12.5q23 0 44.5 -5t33.5 -10l-9 -46q-14 5 -30 7.5t-35 2.5q-29 0 -45.5 -7t-27.5 -20q-10 -12 -18 -31t-16 -54l-11 -48h207q36 0 55 -14q17 -13 17 -42
q0 -12 -4.5 -34t-8.5 -40zM739 569l22 102q13 5 37 4t38 -8l-44 -98h-53z" />
    <glyph glyph-name="f_b" horiz-adv-x="810" 
d="M478 420q26 32 62.5 53t85.5 21q66 0 105 -41q43 -46 43 -122q0 -64 -19 -125t-55 -109t-89 -77t-121 -29q-44 0 -85.5 12t-71.5 31l111 522q5 25 9 43.5t4 27.5q0 10 -16 13q-11 2 -27 3.5t-41 1.5q-40 0 -66.5 -7.5t-45.5 -22.5t-28.5 -35.5t-16.5 -49.5l-11 -45h121
l-11 -50h-121l-101 -495q-14 -72 -48.5 -104t-95.5 -32q-15 0 -31.5 2t-27.5 6v45q11 -2 26 -3.5t26 -1.5q40 0 59 21.5t30 75.5l100 486h-68l11 50h67l12 53q9 40 25 68.5t43 48.5q25 18 61.5 29.5t94.5 11.5q46 0 75.5 -5.5t43.5 -12.5t20 -17.5t6 -23.5q0 -11 -4.5 -32
l-10.5 -49zM401 59q13 -8 39.5 -13.5t50.5 -5.5q51 0 91.5 23.5t68.5 63t43 91t15 107.5q0 57 -25.5 87t-66.5 30q-32 0 -59.5 -13.5t-46.5 -33.5q-25 -26 -42 -63.5t-29 -93.5z" />
    <glyph glyph-name="f_f_b" horiz-adv-x="1104" 
d="M435 485q9 37 9 60q0 40 -20.5 62t-74.5 22q-111 0 -138 -118l-6 -26h230zM772 420q26 32 62.5 53t85.5 21q66 0 105 -41q43 -46 43 -122q0 -64 -19 -125t-55 -109t-89 -77t-121 -29q-44 0 -85.5 12t-71.5 31l111 522q6 27 9.5 44.5t3.5 26.5q0 10 -16 13q-11 2 -27 3.5
t-41 1.5q-40 0 -65 -6.5t-44 -21.5t-29.5 -35t-18.5 -52l-11 -45h121l-11 -50h-121l-92 -451q-14 -72 -48.5 -104t-95.5 -32q-15 0 -31.5 2t-27.5 6v45q11 -2 26 -3.5t26 -1.5q40 0 59 21.5t30 75.5l91 442h-231l-101 -495q-14 -72 -48.5 -104t-95.5 -32q-15 0 -31.5 2
t-27.5 6v45q11 -2 26 -3.5t26 -1.5q40 0 59 21.5t30 75.5l100 486h-68l11 50h67l9 41q8 35 23 62t36 45q26 22 61 34t79 12q58 0 92 -20.5t45 -50.5q23 42 69 65t116 23q46 0 75.5 -5.5t43.5 -12.5t20 -17.5t6 -23.5q0 -11 -4.5 -32l-10.5 -49zM695 59q13 -8 39.5 -13.5
t50.5 -5.5q51 0 91.5 23.5t68.5 63t43 91t15 107.5q0 57 -25.5 87t-66.5 30q-32 0 -59.5 -13.5t-46.5 -33.5q-25 -26 -42 -63.5t-29 -93.5z" />
    <glyph glyph-name="f_h" horiz-adv-x="839" 
d="M478 419q24 29 63 52t96 23t96 -31.5t39 -91.5q0 -24 -3.5 -44.5t-9.5 -49.5l-37 -174q-5 -21 -6.5 -31t-1.5 -14q0 -17 20 -17q9 0 21.5 4.5t25.5 12.5l-11 -50q-10 -8 -26.5 -12.5t-30.5 -4.5q-32 0 -47.5 16t-15.5 39q0 11 2 24t7 36l37 172q7 30 10 48.5t3 35.5
q0 35 -20.5 56.5t-62.5 21.5q-41 0 -73.5 -16.5t-52.5 -40.5q-20 -25 -33 -55.5t-23 -77.5l-54 -250h-63l117 556q5 25 9 43.5t4 27.5q0 10 -16 13q-11 2 -27 3.5t-41 1.5q-40 0 -66.5 -7.5t-45.5 -22.5t-28.5 -35.5t-16.5 -49.5l-11 -45h121l-11 -50h-121l-101 -495
q-14 -72 -48.5 -104t-95.5 -32q-15 0 -31.5 2t-27.5 6v45q11 -2 26 -3.5t26 -1.5q40 0 59 21.5t30 75.5l100 486h-68l11 50h67l12 53q9 40 25 68.5t43 48.5q25 18 61.5 29.5t94.5 11.5q46 0 75.5 -5.5t43.5 -12.5t20 -17.5t6 -23.5q0 -11 -4.5 -35.5t-10.5 -50.5z" />
    <glyph glyph-name="f_f_h" horiz-adv-x="1133" 
d="M435 485q9 37 9 60q0 40 -20.5 62t-74.5 22q-111 0 -138 -118l-6 -26h230zM738 555q6 27 9.5 45t3.5 27q0 10 -16 13q-11 2 -27 3.5t-41 1.5q-40 0 -65 -6.5t-44 -21.5t-29.5 -35t-18.5 -52l-11 -45h121l-11 -50h-121l-92 -451q-14 -72 -48.5 -104t-95.5 -32
q-15 0 -31.5 2t-27.5 6v45q11 -2 26 -3.5t26 -1.5q40 0 59 21.5t30 75.5l91 442h-231l-101 -495q-14 -72 -48.5 -104t-95.5 -32q-15 0 -31.5 2t-27.5 6v45q11 -2 26 -3.5t26 -1.5q40 0 59 21.5t30 75.5l100 486h-68l11 50h67l9 41q8 35 23 62t36 45q26 22 61 34t79 12
q58 0 92 -20.5t45 -50.5q23 42 69 65t116 23q46 0 75.5 -5.5t43.5 -12.5t20 -17.5t6 -23.5q0 -11 -4 -31t-10 -47l-30 -140q24 29 63 52t96 23t96 -31.5t39 -91.5q0 -24 -3.5 -45t-9.5 -49l-37 -174q-5 -21 -6.5 -31t-1.5 -14q0 -17 20 -17q9 0 21.5 4.5t25.5 12.5l-11 -50
q-10 -8 -26.5 -12.5t-30.5 -4.5q-32 0 -47.5 16t-15.5 39q0 11 2 24t7 36l37 172q6 29 9.5 48t3.5 36q0 35 -20.5 56.5t-62.5 21.5q-41 0 -73.5 -16.5t-52.5 -40.5q-20 -25 -33 -55.5t-23 -77.5l-54 -250h-63z" />
    <glyph glyph-name="f_k" horiz-adv-x="822" 
d="M473 394q32 45 78 72.5t104 27.5q61 0 97 -32t36 -87q0 -33 -14 -63.5t-39.5 -54.5t-62.5 -40.5t-82 -20.5q6 -6 12.5 -17t15.5 -29l40 -79q8 -17 15.5 -24.5t19.5 -7.5t24 5.5t23 13.5l-11 -50q-11 -8 -24 -12.5t-27 -4.5q-24 0 -40 11t-29 36l-59 116q-11 20 -24.5 30
t-47.5 12l-13 43q16 -3 35 -5t39 -2q39 0 73 10.5t59 29t39 43t14 52.5q0 38 -21.5 57.5t-59.5 19.5q-40 0 -73.5 -19t-60 -49t-44 -67.5t-25.5 -74.5l-50 -234h-63l117 553q6 28 9.5 46.5t3.5 27.5q0 10 -16 13q-11 2 -27 3.5t-41 1.5q-40 0 -66.5 -7.5t-45.5 -22.5
t-28.5 -35.5t-16.5 -49.5l-11 -45h121l-11 -50h-121l-101 -495q-14 -72 -48.5 -104t-95.5 -32q-15 0 -31.5 2t-27.5 6v45q11 -2 26 -3.5t26 -1.5q40 0 59 21.5t30 75.5l100 486h-68l11 50h67l12 53q9 40 25 68.5t43 48.5q25 18 61.5 29.5t94.5 11.5q46 0 75.5 -5.5
t43.5 -12.5t20 -17t6 -24q0 -11 -5 -33.5t-10 -47.5z" />
    <glyph glyph-name="f_f_k" horiz-adv-x="1116" 
d="M435 485q9 37 9 60q0 40 -20.5 62t-74.5 22q-111 0 -138 -118l-6 -26h230zM767 394q32 45 78 72.5t104 27.5q61 0 97 -32t36 -87q0 -33 -14 -63.5t-39.5 -54.5t-62.5 -40.5t-82 -20.5q6 -6 12.5 -17t15.5 -29l40 -79q8 -17 15.5 -24.5t19.5 -7.5t24 5.5t23 13.5l-11 -50
q-11 -8 -24 -12.5t-27 -4.5q-24 0 -40 11t-29 36l-59 116q-11 20 -24.5 30t-47.5 12l-13 43q16 -3 35 -5t39 -2q39 0 73 10.5t59 29t39 43t14 52.5q0 38 -21.5 57.5t-59.5 19.5q-40 0 -73.5 -19t-60 -49t-44 -67.5t-25.5 -74.5l-50 -234h-63l117 556q5 26 9 44t4 27
q0 10 -16 13q-11 2 -27 3.5t-41 1.5q-40 0 -65 -6.5t-44 -21.5t-29.5 -35t-18.5 -52l-11 -45h121l-11 -50h-121l-92 -451q-14 -72 -48.5 -104t-95.5 -32q-15 0 -31.5 2t-27.5 6v45q11 -2 26 -3.5t26 -1.5q40 0 59 21.5t30 75.5l91 442h-231l-101 -495q-14 -72 -48.5 -104
t-95.5 -32q-15 0 -31.5 2t-27.5 6v45q11 -2 26 -3.5t26 -1.5q40 0 59 21.5t30 75.5l100 486h-68l11 50h67l9 41q8 35 23 62t36 45q26 22 61 34t79 12q58 0 92 -20.5t45 -50.5q23 42 69 65t116 23q46 0 75.5 -5.5t43.5 -12.5t20 -17.5t6 -23.5q0 -11 -3.5 -30.5t-10.5 -50.5z
" />
    <glyph glyph-name="f_t" horiz-adv-x="616" 
d="M427 485l15 66q8 35 11 52t3 23q0 10 -12 13q-10 2 -26.5 4t-44.5 2q-39 0 -66 -6t-45 -20q-20 -16 -29.5 -38t-15.5 -46l-12 -50h222zM194 435l-101 -495q-14 -72 -48.5 -104t-95.5 -32q-15 0 -31.5 2t-27.5 6v45q11 -2 26 -3.5t26 -1.5q40 0 59 21.5t30 75.5l100 486
h-68l11 50h68l14 61q8 37 23 64t42 47q25 18 61.5 28.5t95.5 10.5q42 0 69.5 -4.5t38.5 -9.5q20 -8 27.5 -19.5t7.5 -26.5q0 -11 -4 -30t-13 -61l-13 -60h115l-10 -50h-116l-57 -270q-5 -25 -8 -41t-3 -29q0 -53 57 -53q20 0 46 8.5t43 20.5l-11 -54q-17 -11 -42.5 -18.5
t-50.5 -7.5q-50 0 -78 24t-28 67q0 15 3 33.5t8 43.5l58 276h-223z" />
    <glyph glyph-name="f_f_t" horiz-adv-x="910" 
d="M450 546q8 35 23 63t42 48q25 18 61.5 28.5t95.5 10.5q42 0 69.5 -4.5t38.5 -9.5q20 -8 27.5 -19.5t7.5 -26.5q0 -11 -4 -30t-13 -61l-13 -60h115l-10 -50h-116l-57 -270q-5 -25 -8 -41t-3 -29q0 -53 57 -53q20 0 46 8.5t43 20.5l-11 -54q-17 -11 -42.5 -18.5t-50.5 -7.5
q-50 0 -78 24t-28 67q0 15 3 33.5t8 43.5l58 276h-223l-92 -451q-14 -72 -48.5 -104t-95.5 -32q-15 0 -31.5 2t-27.5 6v45q11 -2 26 -3.5t26 -1.5q40 0 59 21.5t30 75.5l91 442h-231l-101 -495q-14 -72 -48.5 -104t-95.5 -32q-15 0 -31.5 2t-27.5 6v45q11 -2 26 -3.5
t26 -1.5q40 0 59 21.5t30 75.5l100 486h-68l11 50h67l10 47q8 35 17.5 57.5t23.5 40.5q21 27 51 39.5t72 12.5q23 0 44.5 -5t33.5 -10l-9 -46q-14 5 -30 7.5t-35 2.5q-29 0 -45.5 -7t-27.5 -20q-10 -12 -18 -31t-16 -54l-7 -34h231zM721 485l15 66q8 35 11 52t3 23
q0 10 -12 13q-10 2 -26.5 4t-44.5 2q-39 0 -66 -6t-45 -20q-20 -16 -29.5 -38t-15.5 -46l-12 -50h222z" />
    <glyph glyph-name="t_t" horiz-adv-x="636" 
d="M192 435l-57 -270q-5 -25 -8 -41t-3 -29q0 -26 15 -39.5t42 -13.5q20 0 46 8.5t43 20.5l-11 -54q-17 -11 -42.5 -18.5t-50.5 -7.5q-49 0 -77.5 24.5t-28.5 70.5q0 12 3 30t8 43l58 276h-68l10 50h68l28 126l70 27l-34 -153h244l28 126l70 27l-34 -153h115l-10 -50h-116
l-57 -270q-5 -26 -8 -41.5t-3 -28.5q0 -26 15 -39.5t42 -13.5q20 0 46 8.5t43 20.5l-11 -54q-17 -11 -42.5 -18.5t-50.5 -7.5q-49 0 -77.5 24.5t-28.5 70.5q0 12 3 30t8 43l58 276h-245z" />
    <glyph glyph-name="c_t" horiz-adv-x="783" 
d="M389 355q0 41 -20 64.5t-63 23.5q-48 0 -85.5 -25.5t-63.5 -65.5t-40 -89t-14 -95q0 -62 27 -90q15 -17 39.5 -26t53.5 -9q45 0 86.5 16.5t71.5 36.5l-13 -62q-26 -17 -66 -30t-89 -13q-83 0 -129 44.5t-46 129.5q0 55 18 113t53 106t86 79t116 31q15 0 27 -3
q-7 12 -11 28t-4 33q0 64 57.5 104t167.5 40q68 0 103 -15q21 -10 28 -23t7 -30q0 -14 -4 -31.5t-12 -54.5l-12 -57h115l-10 -50h-116l-57 -270q-5 -25 -8 -41t-3 -29q0 -26 15 -39.5t42 -13.5q20 0 46 8.5t43 20.5l-11 -54q-17 -11 -42.5 -18.5t-50.5 -7.5
q-49 0 -77.5 24.5t-28.5 70.5q0 12 3 30t8 43l58 276h-68l10 50h68l12 54l10 48t5 32q0 7 -3.5 12.5t-16.5 8.5q-8 2 -25 3.5t-38 1.5q-44 0 -74 -8t-48.5 -22t-27 -32.5t-8.5 -39.5q0 -27 9 -48t26 -39q18 -20 25.5 -45.5t7.5 -55.5h-59z" />
    <glyph glyph-name="s_t" unicode="&#xfb06;" horiz-adv-x="737" 
d="M334 543q0 -24 10.5 -42t24.5 -35t24 -34t10 -40q0 -15 -3 -30h-60q4 13 4 26q0 26 -20 41.5t-65 15.5q-59 0 -91.5 -21t-32.5 -58q0 -29 19.5 -47.5t64.5 -45.5q29 -17 51.5 -31t37.5 -29.5t23 -33.5t8 -43q0 -36 -16.5 -63.5t-43 -45.5t-60.5 -27t-69 -9
q-41 0 -82.5 11t-69.5 28l11 52q30 -20 66.5 -31t71.5 -11q61 0 95 23t34 66q0 15 -5.5 27t-16.5 23t-29 22.5t-42 25.5q-27 16 -48 30.5t-34.5 29.5t-20.5 32t-7 39q0 59 51 98q27 20 62.5 29t70.5 9q27 0 41 -5q-22 26 -22 66q0 62 58 101.5t168 39.5q68 0 103 -15
q21 -10 28 -23t7 -30q0 -14 -4 -31.5t-12 -54.5l-12 -57h115l-10 -50h-116l-57 -270q-5 -26 -8 -41.5t-3 -28.5q0 -26 15 -39.5t42 -13.5q20 0 46 8.5t43 20.5l-11 -54q-17 -11 -42.5 -18.5t-50.5 -7.5q-49 0 -77.5 24.5t-28.5 70.5q0 12 3 30t8 43l58 276h-68l10 50h68
l12 54l10 48t5 32q0 7 -3.5 12.5t-16.5 8.5q-8 2 -25 3.5t-38 1.5q-44 0 -74 -8t-48.5 -22t-27 -32.5t-8.5 -39.5z" />
    <glyph glyph-name="s_p" horiz-adv-x="908" 
d="M807 325q0 60 -30 88.5t-87 28.5q-29 0 -56 -6t-44 -14l-79 -373q12 -4 32 -6.5t35 -2.5q52 0 94.5 23.5t72.5 62.5t46 90.5t16 108.5zM486 645q-44 0 -73 -8t-46.5 -22t-25 -32.5t-7.5 -39.5q0 -24 10.5 -42t24.5 -35t24 -34t10 -40q0 -15 -3 -30h-60q4 13 4 26
q0 26 -20 41.5t-65 15.5q-59 0 -91.5 -21t-32.5 -58q0 -29 19.5 -47.5t64.5 -45.5q29 -17 51.5 -31t37.5 -29.5t23 -33.5t8 -43q0 -36 -16.5 -63.5t-43 -45.5t-60.5 -27t-69 -9q-41 0 -82.5 11t-69.5 28l11 52q30 -20 66.5 -31t71.5 -11q61 0 95 23t34 66q0 15 -5.5 27
t-16.5 23t-29 22.5t-42 25.5q-27 16 -48 30.5t-34.5 29.5t-20.5 32t-7 39q0 59 51 98q27 20 62.5 29t70.5 9q27 0 41 -5q-22 26 -22 66q0 62 54.5 101.5t164.5 39.5q33 0 59.5 -5t41.5 -11q22 -9 28.5 -19.5t6.5 -27.5q0 -14 -7.5 -48.5t-15.5 -69.5l-8 -38q18 6 46 11.5
t54 5.5q80 0 124 -40q23 -20 35.5 -52t12.5 -71q0 -63 -18.5 -124t-55.5 -109t-92 -77.5t-128 -29.5q-20 0 -42 3t-36 8l-43 -201h-63l156 738q6 30 10.5 51t4.5 29q0 7 -3.5 12t-16.5 8q-8 2 -23 4t-36 2z" />
    <glyph glyph-name="i_p" horiz-adv-x="758" 
d="M383 642q-12 2 -29 3.5t-36.5 2t-40 1t-39.5 0.5l-36 -80h-53q-2 40 8.5 65t34 39.5t59.5 20t86 5.5q35 0 64.5 -5.5t43.5 -12.5q21 -10 28 -22.5t7 -29.5q0 -14 -5 -42t-13 -59l-12 -51q18 6 46 11.5t54 5.5q80 0 124 -40q23 -20 35.5 -52t12.5 -71q0 -63 -18.5 -124
t-55.5 -109t-92 -77.5t-128 -29.5q-20 0 -42 3t-36 8l-43 -201h-63l124 588q-17 -9 -39.5 -23.5t-39.5 -27.5l14 66q19 14 41 26t37 20l19 89q6 27 9.5 46.5t3.5 27.5q0 13 -8 20t-22 9zM657 325q0 60 -30 88.5t-87 28.5q-29 0 -56 -6t-44 -14l-79 -373q12 -4 32 -6.5
t35 -2.5q52 0 94.5 23.5t72.5 62.5t46 90.5t16 108.5zM60 477q13 5 29.5 8t30.5 3q37 0 52 -15t15 -43q0 -12 -3.5 -32.5t-7.5 -38.5l-50 -236q-5 -21 -8.5 -37.5t-3.5 -24.5q0 -20 20 -20q22 0 47 17l-11 -50q-11 -8 -26 -12.5t-29 -4.5q-32 0 -48.5 16.5t-16.5 42.5
q0 12 4.5 33t9.5 47l49 229q5 23 8 37.5t3 20.5q0 22 -24 22q-21 0 -51 -11z" />
    <glyph glyph-name="i_t" horiz-adv-x="582" 
d="M457 485h115l-10 -50h-116l-57 -270q-5 -26 -8 -41.5t-3 -28.5q0 -26 15 -39.5t42 -13.5q20 0 46 8.5t43 20.5l-11 -54q-17 -11 -42.5 -18.5t-50.5 -7.5q-49 0 -77.5 24.5t-28.5 70.5q0 12 3 30t8 43l58 276h-68l10 50h68l12 54q5 24 9 45t4 29q0 13 -8.5 20t-22.5 9
q-12 2 -29 3.5t-37 2.5t-41.5 1.5t-41.5 0.5l-36 -81h-53q-2 40 8.5 65t34 39.5t59.5 20t86 5.5q35 0 67 -5.5t46 -12.5q21 -10 28 -22.5t7 -29.5q0 -14 -5.5 -43.5t-12.5 -57.5zM60 477q13 5 29.5 8t30.5 3q37 0 52 -15t15 -43q0 -12 -3.5 -32.5t-7.5 -38.5l-50 -236
q-5 -21 -8.5 -37.5t-3.5 -24.5q0 -20 20 -20q22 0 47 17l-11 -50q-11 -8 -26 -12.5t-29 -4.5q-32 0 -48.5 16.5t-16.5 42.5q0 12 4.5 33t9.5 47l49 229q5 23 8 37.5t3 20.5q0 22 -24 22q-21 0 -51 -11z" />
    <glyph glyph-name="t_v" horiz-adv-x="720" 
d="M351 485q38 0 57 -16.5t24 -57.5l39 -337q25 36 54 87.5t57.5 108t52.5 113t39 102.5h62q-20 -62 -52 -132t-68.5 -137t-74 -124t-67.5 -92h-49l-56 404q-2 17 -9 24t-24 7h-144l-57 -270q-5 -25 -8 -41t-3 -29q0 -26 15 -39.5t42 -13.5q20 0 46 8.5t43 20.5l-11 -54
q-17 -11 -42.5 -18.5t-50.5 -7.5q-49 0 -77.5 24.5t-28.5 70.5q0 12 3 30t8 43l58 276h-68l10 50h68l28 126l70 27l-34 -153h148z" />
    <glyph glyph-name="t_w" horiz-adv-x="975" 
d="M351 485q39 0 56 -16t22 -57l38 -330q24 37 50.5 87.5t51.5 105t46.5 109.5t35.5 101h52l45 -403q24 37 50 87.5t50.5 105t46 109.5t35.5 101h61q-20 -62 -49 -133t-62 -138.5t-67.5 -124t-64.5 -89.5h-47l-41 357q-16 -46 -40 -98t-51 -101.5t-54 -91t-49 -66.5h-48
l-51 403q-2 18 -9 25t-21 7h-145l-57 -270q-5 -25 -8 -41t-3 -29q0 -26 15 -39.5t42 -13.5q20 0 46 8.5t43 20.5l-11 -54q-17 -11 -42.5 -18.5t-50.5 -7.5q-49 0 -77.5 24.5t-28.5 70.5q0 12 3 30t8 43l58 276h-68l10 50h68l28 126l70 27l-34 -153h148z" />
    <glyph glyph-name="c_k" horiz-adv-x="987" 
d="M638 394q32 45 78 72.5t104 27.5q61 0 97 -32t36 -87q0 -33 -14 -63.5t-39.5 -54.5t-62.5 -40.5t-82 -20.5q6 -6 12.5 -17t15.5 -29l40 -79q8 -17 15.5 -24.5t19.5 -7.5t24 5.5t23 13.5l-11 -50q-11 -8 -24 -12.5t-27 -4.5q-24 0 -40 11t-29 36l-59 116q-11 20 -24.5 30
t-47.5 12l-13 43q16 -3 35 -5t39 -2q39 0 73 10.5t59 29t39 43t14 52.5q0 38 -21.5 57.5t-59.5 19.5q-40 0 -73.5 -19t-60 -49t-44 -67.5t-25.5 -74.5l-50 -234h-63l114 537q7 32 11 53t4 29q0 7 -3.5 12.5t-16.5 8.5q-8 2 -25 3.5t-38 1.5q-44 0 -74 -8t-48.5 -22
t-27 -32.5t-8.5 -39.5q0 -27 9 -48t26 -39q18 -20 25.5 -45.5t7.5 -55.5h-59q0 41 -20 64.5t-63 23.5q-48 0 -85.5 -25.5t-63.5 -65.5t-40 -89t-14 -95q0 -62 27 -90q15 -17 39.5 -26t53.5 -9q45 0 86.5 16.5t71.5 36.5l-13 -62q-26 -17 -66 -30t-89 -13q-83 0 -129 44.5
t-46 129.5q0 55 18 113t53 106t86 79t116 31q15 0 27 -3q-7 12 -11 28t-4 33q0 64 57.5 104t167.5 40q68 0 103 -15q21 -10 28 -21t7 -28q0 -14 -5.5 -42t-13.5 -61z" />
    <glyph glyph-name="s_k" horiz-adv-x="931" 
d="M550 539q7 33 11 52.5t4 27.5q0 7 -3.5 12t-16.5 8q-8 2 -23 4t-36 2q-44 0 -73 -8t-46.5 -22t-25 -32.5t-7.5 -39.5q0 -24 10.5 -42t24.5 -35t24 -34t10 -40q0 -15 -3 -30h-60q4 13 4 26q0 26 -20 41.5t-65 15.5q-59 0 -91.5 -21t-32.5 -58q0 -29 19.5 -47.5t64.5 -45.5
q29 -17 51.5 -31t37.5 -29.5t23 -33.5t8 -43q0 -36 -16.5 -63.5t-43 -45.5t-60.5 -27t-69 -9q-41 0 -82.5 11t-69.5 28l11 52q30 -20 66.5 -31t71.5 -11q61 0 95 23t34 66q0 15 -5.5 27t-16.5 23t-29 22.5t-42 25.5q-27 16 -48 30.5t-34.5 29.5t-20.5 32t-7 39q0 59 51 98
q27 20 62.5 29t70.5 9q27 0 41 -5q-22 26 -22 66q0 62 54.5 101.5t164.5 39.5q33 0 59.5 -5t41.5 -11q22 -9 28.5 -19.5t6.5 -27.5q0 -14 -7.5 -47t-15.5 -71l-26 -121q32 45 78 72.5t104 27.5q61 0 97 -32t36 -87q0 -33 -14 -63.5t-39.5 -54.5t-62.5 -40.5t-82 -20.5
q6 -6 12.5 -17t15.5 -29l40 -79q8 -17 15.5 -24.5t19.5 -7.5t24 5.5t23 13.5l-11 -50q-11 -8 -24 -12.5t-27 -4.5q-24 0 -40 11t-29 36l-59 116q-11 20 -24.5 30t-47.5 12l-13 43q16 -3 35 -5t39 -2q39 0 73 10.5t59 29t39 43t14 52.5q0 38 -21.5 57.5t-59.5 19.5
q-40 0 -73.5 -19t-60 -49t-44 -67.5t-25.5 -74.5l-50 -234h-63z" />
    <glyph glyph-name="t_s" horiz-adv-x="720" 
d="M585 445q-60 0 -92.5 -21t-32.5 -58q0 -12 3.5 -22.5t13 -21t25.5 -22.5t41 -27q31 -18 53.5 -33t37.5 -31t22.5 -34t7.5 -42q0 -30 -12 -55.5t-34 -45t-53.5 -30.5t-70.5 -11q-56 0 -94 20t-62 47q-33 -28 -77.5 -47.5t-89.5 -19.5q-54 0 -82.5 24.5t-28.5 70.5
q0 12 2 25t4 24l63 300h-68l10 50h68l28 126l70 27l-34 -153h115l-10 -50h-116l-63 -299q-5 -25 -5 -41q0 -53 59 -53q26 0 59 12t68 44q-6 12 -10.5 26.5t-8.5 29.5l52 13q18 -65 58 -95.5t91 -30.5q30 0 51 7.5t33.5 20t18.5 28t6 31.5q0 17 -6 29.5t-18.5 23.5t-31 22.5
t-43.5 26.5q-24 15 -43.5 28.5t-33 28t-20.5 32t-7 40.5q0 58 51 97q27 20 62.5 29t70.5 9q28 0 61 -5.5t59 -16.5l-9 -49q-24 10 -52.5 16t-55.5 6z" />
    <glyph glyph-name="c_t_s" horiz-adv-x="1175" 
d="M658 485h115l-10 -50h-116l-63 -299q-5 -25 -5 -41q0 -53 59 -53q26 0 59 12t68 44q-6 12 -10.5 26.5t-8.5 29.5l52 13q18 -65 58 -95.5t91 -30.5q30 0 51 7.5t33.5 20t18.5 28t6 31.5q0 17 -6 29.5t-18.5 23.5t-31 22.5t-43.5 26.5q-24 15 -43.5 28.5t-33 28t-20.5 32
t-7 40.5q0 58 51 97q27 20 62.5 29t70.5 9q28 0 61 -5.5t59 -16.5l-9 -49q-24 10 -52.5 16t-55.5 6q-60 0 -92.5 -21t-32.5 -58q0 -12 3.5 -22.5t13 -21t25.5 -22.5t41 -27q31 -18 53.5 -33t37.5 -31t22.5 -34t7.5 -42q0 -30 -12 -55.5t-34 -45t-53.5 -30.5t-70.5 -11
q-56 0 -94 20t-62 47q-33 -28 -77.5 -47.5t-89.5 -19.5q-54 0 -82.5 24.5t-28.5 70.5q0 12 2 25t4 24l63 300h-68l10 50h68l12 54l10 48t5 32q0 7 -3.5 12.5t-16.5 8.5q-8 2 -25 3.5t-38 1.5q-44 0 -74 -8t-48.5 -22t-27 -32.5t-8.5 -39.5q0 -27 9 -48t26 -39
q18 -20 25.5 -45.5t7.5 -55.5h-59q0 41 -20 64.5t-63 23.5q-48 0 -85.5 -25.5t-63.5 -65.5t-40 -89t-14 -95q0 -62 27 -90q15 -17 39.5 -26t53.5 -9q45 0 86.5 16.5t71.5 36.5l-13 -62q-26 -17 -66 -30t-89 -13q-83 0 -129 44.5t-46 129.5q0 55 18 113t53 106t86 79t116 31
q15 0 27 -3q-7 12 -11 28t-4 33q0 64 57.5 104t167.5 40q68 0 103 -15q21 -10 28 -23t7 -30q0 -14 -4 -31.5t-12 -54.5z" />
    <glyph glyph-name="i_t_t" horiz-adv-x="890" 
d="M701 485l28 126l70 27l-34 -153h115l-10 -50h-116l-57 -270q-5 -24 -8 -40.5t-3 -29.5q0 -26 15 -39.5t42 -13.5q20 0 46 8.5t43 20.5l-11 -54q-17 -11 -42.5 -18.5t-50.5 -7.5q-49 0 -77.5 24.5t-28.5 70.5q0 12 3 30t8 43l58 276h-245l-57 -270q-5 -25 -8 -41t-3 -29
q0 -26 15 -39.5t42 -13.5q20 0 46 8.5t43 20.5l-11 -54q-17 -11 -42.5 -18.5t-50.5 -7.5q-49 0 -77.5 24.5t-28.5 70.5q0 12 3 30t8 43l58 276h-68l10 50h68l12 54q5 24 9 45t4 29q0 13 -8.5 20t-22.5 9q-12 2 -29 3.5t-37 2.5t-41.5 1.5t-41.5 0.5l-36 -81h-53
q-2 40 8.5 65t34 39.5t59.5 20t86 5.5q35 0 67 -5.5t46 -12.5q21 -10 28 -22.5t7 -29.5q0 -14 -5.5 -43.5t-12.5 -57.5l-10 -43h244zM60 477q13 5 29.5 8t30.5 3q37 0 52 -15t15 -43q0 -12 -3.5 -32.5t-7.5 -38.5l-50 -236q-5 -23 -8.5 -39t-3.5 -23q0 -20 20 -20
q22 0 47 17l-11 -50q-11 -8 -26 -12.5t-29 -4.5q-32 0 -48.5 16.5t-16.5 42.5q0 12 4 32.5t10 47.5l49 229q5 23 8 37.5t3 20.5q0 22 -24 22q-21 0 -51 -11z" />
    <glyph glyph-name="i_t_s" horiz-adv-x="974" 
d="M572 485l-10 -50h-116l-63 -299q-5 -25 -5 -41q0 -53 59 -53q26 0 59 12t68 44q-6 12 -10.5 26.5t-8.5 29.5l52 13q18 -65 58 -95.5t91 -30.5q30 0 51 7.5t33.5 20t18.5 28t6 31.5q0 17 -6 29.5t-18.5 23.5t-31 22.5t-43.5 26.5q-24 15 -43.5 28.5t-33 28t-20.5 32
t-7 40.5q0 58 51 97q27 20 62.5 29t70.5 9q28 0 61 -5.5t59 -16.5l-9 -49q-24 10 -52.5 16t-55.5 6q-60 0 -92.5 -21t-32.5 -58q0 -12 3.5 -22.5t13 -21t25.5 -22.5t41 -27q31 -18 53.5 -33t37.5 -31t22.5 -34t7.5 -42q0 -30 -12 -55.5t-34 -45t-53.5 -30.5t-70.5 -11
q-56 0 -94 20t-62 47q-33 -28 -77.5 -47.5t-89.5 -19.5q-54 0 -82.5 24.5t-28.5 70.5q0 12 2 25t4 24l63 300h-68l10 50h68l12 54q5 24 9 45t4 29q0 13 -8.5 20t-22.5 9q-12 2 -29 3.5t-37 2.5t-41.5 1.5t-41.5 0.5l-36 -81h-53q-2 40 8.5 65t34 39.5t59.5 20t86 5.5
q35 0 67 -5.5t46 -12.5q21 -10 28 -22.5t7 -29.5q0 -14 -5.5 -39.5t-12.5 -58.5l-10 -46h115zM60 477q13 5 29.5 8t30.5 3q37 0 52 -15t15 -43q0 -12 -3.5 -32.5t-7.5 -38.5l-50 -236q-5 -24 -8.5 -39t-3.5 -23q0 -20 20 -20q22 0 47 17l-11 -50q-11 -8 -26 -12.5t-29 -4.5
q-32 0 -48.5 16.5t-16.5 42.5q0 12 4 33t10 47l49 229q5 23 8 37.5t3 20.5q0 22 -24 22q-21 0 -51 -11z" />
    <glyph glyph-name="s_h" horiz-adv-x="949" 
d="M588 419q24 29 63 52t96 23t96 -31.5t39 -91.5q0 -24 -3.5 -44.5t-9.5 -49.5l-37 -174q-5 -21 -6.5 -31t-1.5 -14q0 -17 20 -17q9 0 21.5 4.5t25.5 12.5l-11 -50q-10 -8 -26.5 -12.5t-30.5 -4.5q-32 0 -47.5 16t-15.5 39q0 11 2 24t7 36l37 172q6 26 9.5 46.5t3.5 37.5
q0 35 -20.5 56.5t-62.5 21.5q-41 0 -73.5 -16.5t-52.5 -40.5q-20 -25 -33 -55.5t-23 -77.5l-54 -250h-63l109 520q9 42 14 66.5t5 32.5q0 7 -3.5 12t-16.5 8q-8 2 -23 4t-36 2q-44 0 -73 -8t-46.5 -22t-25 -32.5t-7.5 -39.5q0 -24 10.5 -42t24.5 -35t24 -34t10 -40
q0 -15 -3 -30h-60q4 13 4 26q0 26 -20 41.5t-65 15.5q-59 0 -91.5 -21t-32.5 -58q0 -29 19.5 -47.5t64.5 -45.5q29 -17 51.5 -31t37.5 -29.5t23 -33.5t8 -43q0 -36 -16.5 -63.5t-43 -45.5t-60.5 -27t-69 -9q-41 0 -82.5 11t-69.5 28l11 52q30 -20 66.5 -31t71.5 -11
q61 0 95 23t34 66q0 15 -5.5 27t-16.5 23t-29 22.5t-42 25.5q-27 16 -48 30.5t-34.5 29.5t-20.5 32t-7 39q0 59 51 98q27 20 62.5 29t70.5 9q27 0 41 -5q-22 26 -22 66q0 62 54.5 101.5t164.5 39.5q33 0 59.5 -5t41.5 -11q22 -9 28.5 -19.5t6.5 -27.5q0 -14 -8 -48t-16 -75z
" />
    <glyph glyph-name="s_t_s" horiz-adv-x="1129" 
d="M601 435l-63 -299q-5 -25 -5 -41q0 -53 59 -53q26 0 59 12t68 44q-6 12 -10.5 26.5t-8.5 29.5l52 13q18 -65 58 -95.5t91 -30.5q30 0 51 7.5t33.5 20t18.5 28t6 31.5q0 17 -6 29.5t-18.5 23.5t-31 22.5t-43.5 26.5q-24 15 -43.5 28.5t-33 28t-20.5 32t-7 40.5q0 58 51 97
q27 20 62.5 29t70.5 9q28 0 61 -5.5t59 -16.5l-9 -49q-24 10 -52.5 16t-55.5 6q-60 0 -92.5 -21t-32.5 -58q0 -12 3.5 -22.5t13 -21t25.5 -22.5t41 -27q31 -18 53.5 -33t37.5 -31t22.5 -34t7.5 -42q0 -30 -12 -55.5t-34 -45t-53.5 -30.5t-70.5 -11q-56 0 -94 20t-62 47
q-33 -28 -77.5 -47.5t-89.5 -19.5q-54 0 -82.5 24.5t-28.5 70.5q0 12 2 25t4 24l63 300h-68l10 50h68l12 54l10 48t5 32q0 7 -3.5 12.5t-16.5 8.5q-8 2 -25 3.5t-38 1.5q-44 0 -74 -8t-48.5 -22t-27 -32.5t-8.5 -39.5q0 -24 10.5 -42t24.5 -35t24 -34t10 -40q0 -15 -3 -30
h-60q4 13 4 26q0 26 -20 41.5t-65 15.5q-59 0 -91.5 -21t-32.5 -58q0 -29 19.5 -47.5t64.5 -45.5q29 -17 51.5 -31t37.5 -29.5t23 -33.5t8 -43q0 -36 -16.5 -63.5t-43 -45.5t-60.5 -27t-69 -9q-41 0 -82.5 11t-69.5 28l11 52q30 -20 66.5 -31t71.5 -11q61 0 95 23t34 66
q0 15 -5.5 27t-16.5 23t-29 22.5t-42 25.5q-27 16 -48 30.5t-34.5 29.5t-20.5 32t-7 39q0 59 51 98q27 20 62.5 29t70.5 9q27 0 41 -5q-22 26 -22 66q0 62 58 101.5t168 39.5q68 0 103 -15q21 -10 28 -23t7 -30q0 -14 -4 -31.5t-12 -54.5l-12 -57h115l-10 -50h-116z" />
    <glyph glyph-name="c_h" horiz-adv-x="1005" 
d="M643 419q24 29 63.5 52t96.5 23t96 -31.5t39 -91.5q0 -24 -3.5 -44.5t-9.5 -49.5l-37 -174q-5 -21 -6.5 -31t-1.5 -14q0 -17 20 -17q9 0 21.5 4.5t25.5 12.5l-11 -50q-10 -8 -26.5 -12.5t-30.5 -4.5q-32 0 -47.5 16t-15.5 39q0 11 2 24t7 36l37 172q7 31 10 49t3 35
q0 35 -20.5 56.5t-62.5 21.5q-41 0 -73.5 -16.5t-52.5 -40.5q-20 -25 -33 -55.5t-23 -77.5l-54 -250h-63l113 537q15 69 15 82q0 7 -3.5 12.5t-16.5 8.5q-8 2 -25 3.5t-38 1.5q-44 0 -74 -8t-48.5 -22t-27 -32.5t-8.5 -39.5q0 -27 9 -48t26 -39q18 -20 25.5 -45.5t7.5 -55.5
h-59q0 41 -20 64.5t-63 23.5q-48 0 -85.5 -25.5t-63.5 -65.5t-40 -89t-14 -95q0 -62 27 -90q15 -17 39.5 -26t53.5 -9q45 0 86.5 16.5t71.5 36.5l-13 -62q-26 -17 -66 -30t-89 -13q-83 0 -129 44.5t-46 129.5q0 55 18 113t53 106t86 79t116 31q15 0 27 -3q-7 12 -11 28
t-4 33q0 64 57.5 104t167.5 40q68 0 103 -15q21 -10 28 -21t7 -28q0 -14 -5.5 -41.5t-13.5 -60.5z" />
    <glyph glyph-name="f_t_s" horiz-adv-x="1008" 
d="M427 485l15 66q8 35 11 52t3 23q0 10 -12 13q-10 2 -26.5 4t-44.5 2q-39 0 -66 -6t-45 -20q-20 -16 -29.5 -38t-15.5 -46l-12 -50h222zM417 136q-5 -25 -5 -41q0 -53 59 -53q26 0 59 12t68 44q-6 12 -10.5 26.5t-8.5 29.5l52 13q18 -65 58 -95.5t91 -30.5q30 0 51 7.5
t33.5 20t18.5 28t6 31.5q0 17 -6 29.5t-18.5 23.5t-31 22.5t-43.5 26.5q-24 15 -43.5 28.5t-33 28t-20.5 32t-7 40.5q0 58 51 97q27 20 62.5 29t70.5 9q28 0 61 -5.5t59 -16.5l-9 -49q-24 10 -52.5 16t-55.5 6q-60 0 -92.5 -21t-32.5 -58q0 -12 3.5 -22.5t13 -21t25.5 -22.5
t41 -27q31 -18 53.5 -33t37.5 -31t22.5 -34t7.5 -42q0 -30 -12 -55.5t-34 -45t-53.5 -30.5t-70.5 -11q-56 0 -94 20t-62 47q-33 -28 -77.5 -47.5t-89.5 -19.5q-54 0 -82.5 24.5t-28.5 70.5q0 12 2 25t4 24l63 300h-223l-101 -495q-14 -72 -48.5 -104t-95.5 -32
q-15 0 -31.5 2t-27.5 6v45q11 -2 26 -3.5t26 -1.5q40 0 59 21.5t30 75.5l100 486h-68l11 50h68l14 61q8 37 23 64t42 47q25 18 61.5 28.5t95.5 10.5q42 0 69.5 -4.5t38.5 -9.5q20 -8 27.5 -19.5t7.5 -26.5q0 -11 -4 -30t-13 -61l-13 -60h115l-10 -50h-116z" />
    <glyph glyph-name="zero.oprop" horiz-adv-x="511" 
d="M473 328q0 -35 -7 -71.5t-20 -71t-32 -66t-43 -56.5q-32 -33 -74.5 -52.5t-94.5 -19.5q-36 0 -66 10.5t-51.5 31.5t-34 52t-12.5 72q0 35 7 71.5t20 71t32.5 66t43.5 56.5q32 33 74.5 52.5t94.5 19.5q35 0 65 -11t51.5 -32t34 -52t12.5 -71zM408 323q0 56 -27.5 88
t-79.5 32q-32 0 -59.5 -13.5t-49.5 -35.5q-21 -21 -37.5 -48t-28 -57.5t-17.5 -63t-6 -63.5q0 -56 28 -88t80 -32q32 0 59 13.5t50 35.5q21 21 37.5 48t27.5 57.5t17 63t6 63.5z" />
    <glyph glyph-name="one.oprop" horiz-adv-x="369" 
d="M293 0h-294l11 48h122l79 373l-111 -57l-17 46l165 84h42l-95 -446h109z" />
    <glyph glyph-name="two.oprop" horiz-adv-x="453" 
d="M6 0l8 35q8 37 26 64t43.5 48.5t57.5 40.5t69 39q40 22 67 39.5t43.5 34t24 33.5t7.5 38q0 32 -20.5 52.5t-62.5 20.5q-47 0 -80.5 -24.5t-56.5 -69.5l-48 22q29 58 78 89.5t109 31.5q74 0 110 -35t36 -83q0 -33 -13.5 -59.5t-37 -48.5t-55 -41.5t-66.5 -38.5
q-42 -23 -71.5 -41.5t-49 -34.5t-30.5 -31.5t-16 -32.5h164q51 0 72 19t28 67h53q-5 -72 -42 -103t-103 -31h-244z" />
    <glyph glyph-name="three.oprop" horiz-adv-x="427" 
d="M392 355q0 -31 -10 -58.5t-27 -49t-40 -37.5t-49 -24q38 -13 63 -46t25 -78q0 -95 -66 -156q-32 -29 -77 -46t-99 -17q-89 0 -156 38l11 53q27 -19 64 -30t75 -11q86 0 136 48q22 21 34.5 50t12.5 67q0 48 -31.5 74t-95.5 27l10 51q36 1 65.5 13t49.5 31t31 44.5t11 54.5
q0 46 -27.5 69t-65.5 23q-47 0 -80.5 -25.5t-54.5 -67.5l-48 24q26 56 76 87t107 31q34 0 62.5 -9.5t49.5 -27t32.5 -43.5t11.5 -59z" />
    <glyph glyph-name="four.oprop" horiz-adv-x="489" 
d="M406 50l-12 -52h-81l-30 -138h-56l29 138h-264l-19 35l352 471l46 -29l-319 -425h215l24 113h56l-23 -113h82z" />
    <glyph glyph-name="five.oprop" horiz-adv-x="427" 
d="M405 485l-11 -51h-228l-41 -200h52q58 0 94 -11.5t57 -30.5q20 -19 30 -43t10 -65q0 -53 -18.5 -97.5t-52 -76.5t-80.5 -49.5t-103 -17.5q-34 0 -70 8.5t-65 26.5l11 49q24 -15 56 -24.5t65 -9.5q89 0 140.5 50.5t51.5 135.5q0 54 -29 78q-17 15 -44 20.5t-72 5.5h-99
l65 302h281z" />
    </font>
</defs>
</svg>
