<?xml version="1.0" standalone="no"?>
<!DOCTYPE svg PUBLIC "-//W3C//DTD SVG 1.1//EN" "http://www.w3.org/Graphics/SVG/1.1/DTD/svg11.dtd" >
<svg xmlns="http://www.w3.org/2000/svg">
<metadata>
Copyright (c) 2014 by Fontsmith Ltd. All rights reserved.
</metadata>
<defs>
<font id="GFFoundersWebSans-Light" horiz-adv-x="495" >
  <font-face 
    font-family="GF Founders Web Sans Light"
    font-weight="300"
    font-stretch="normal"
    units-per-em="1000"
    panose-1="2 0 5 6 3 0 0 2 0 4"
    ascent="750"
    descent="-250"
    x-height="485"
    cap-height="633"
    bbox="-53 -247 1032 965"
    underline-thickness="20"
    underline-position="-113"
    unicode-range="U+000D-FB04"
  />
<missing-glyph horiz-adv-x="654" 
d="M104 633h446v-633h-446v633zM168 41h318l-159 240zM328 351q40 63 79 121t79 121h-318zM508 81v471l-156 -237zM147 552v-471q40 60 79 118t78 118z" />
    <glyph glyph-name="fi" unicode="fi" horiz-adv-x="532" 
d="M440 70q0 -20 6.5 -29t23.5 -9q13 0 27 7l-2 -36q-12 -6 -31 -6q-28 0 -45.5 15.5t-17.5 47.5v390h-241v-450h-39v450h-75v35h75v91q0 55 28.5 86t88.5 31q20 0 38.5 -3.5t34.5 -8.5v-36q-39 12 -69 12q-45 0 -63.5 -19.5t-18.5 -67.5v-85h280v-415zM386 615
q0 14 10 24.5t24 10.5t24.5 -10.5t10.5 -24.5t-10.5 -24t-24.5 -10t-24 10t-10 24z" />
    <glyph glyph-name="fl" unicode="fl" horiz-adv-x="532" 
d="M311 645q-39 12 -69 12q-45 0 -63.5 -19.5t-18.5 -67.5v-85h124v-35h-124v-450h-39v450h-75v35h75v91q0 55 28.5 86t88.5 31q20 0 38.5 -3.5t34.5 -8.5v-36zM495 3q-12 -6 -31 -6q-28 0 -45.5 15.5t-17.5 47.5v621h39v-611q0 -20 6.5 -29t23.5 -9q13 0 27 7z" />
    <glyph glyph-name="f_f" unicode="ff" horiz-adv-x="593" 
d="M591 645q-39 12 -69 12q-45 0 -63.5 -19.5t-18.5 -67.5v-85h124v-35h-124v-450h-39v450h-241v-450h-39v450h-75v35h75v91q0 55 28.5 86t88.5 31q20 0 38.5 -3.5t34.5 -8.5v-36q-39 12 -69 12q-45 0 -63.5 -19.5t-18.5 -67.5v-85h241v91q0 55 28.5 86t88.5 31
q20 0 38.5 -3.5t34.5 -8.5v-36z" />
    <glyph glyph-name="f_f_i" unicode="ffi" horiz-adv-x="812" 
d="M311 645q-39 12 -69 12q-45 0 -63.5 -19.5t-18.5 -67.5v-85h241v91q0 55 28.5 86t88.5 31q20 0 38.5 -3.5t34.5 -8.5v-36q-39 12 -69 12q-45 0 -63.5 -19.5t-18.5 -67.5v-85h280v-415q0 -20 6.5 -29t23.5 -9q13 0 27 7l-2 -36q-12 -6 -31 -6q-28 0 -45.5 15.5t-17.5 47.5
v390h-241v-450h-39v450h-241v-450h-39v450h-75v35h75v91q0 55 28.5 86t88.5 31q20 0 38.5 -3.5t34.5 -8.5v-36zM666 615q0 14 10 24.5t24 10.5t24.5 -10.5t10.5 -24.5t-10.5 -24t-24.5 -10t-24 10t-10 24z" />
    <glyph glyph-name="f_f_l" unicode="ffl" horiz-adv-x="812" 
d="M591 645q-39 12 -69 12q-45 0 -63.5 -19.5t-18.5 -67.5v-85h124v-35h-124v-450h-39v450h-241v-450h-39v450h-75v35h75v91q0 55 28.5 86t88.5 31q20 0 38.5 -3.5t34.5 -8.5v-36q-39 12 -69 12q-45 0 -63.5 -19.5t-18.5 -67.5v-85h241v91q0 55 28.5 86t88.5 31
q20 0 38.5 -3.5t34.5 -8.5v-36zM775 3q-12 -6 -31 -6q-28 0 -45.5 15.5t-17.5 47.5v621h39v-611q0 -20 6.5 -29t23.5 -9q13 0 27 7z" />
    <glyph glyph-name=".notdef" horiz-adv-x="654" 
d="M104 633h446v-633h-446v633zM168 41h318l-159 240zM328 351q40 63 79 121t79 121h-318zM508 81v471l-156 -237zM147 552v-471q40 60 79 118t78 118z" />
    <glyph glyph-name=".null" horiz-adv-x="0" 
 />
    <glyph glyph-name=".null" horiz-adv-x="0" 
 />
    <glyph glyph-name="nonmarkingreturn" unicode="&#xd;" horiz-adv-x="210" 
 />
    <glyph glyph-name="space" unicode=" " horiz-adv-x="210" 
 />
    <glyph glyph-name="nonbreakingspace" unicode="&#xa0;" horiz-adv-x="210" 
 />
    <glyph glyph-name="A" unicode="A" horiz-adv-x="562" 
d="M419 156h-284l-53 -156h-46l219 633h29l242 -633h-48zM149 196h255l-135 355z" />
    <glyph glyph-name="B" unicode="B" horiz-adv-x="541" 
d="M489 176q0 -46 -14.5 -78t-36.5 -52q-26 -24 -64 -35t-93 -11h-189v633h150q36 0 73.5 -5.5t65.5 -20.5q29 -15 50 -46t21 -85q0 -56 -22.5 -90.5t-63.5 -51.5q25 -5 47.5 -17.5t39 -32t26.5 -46.5t10 -62zM407 473q0 38 -11.5 62t-32.5 37t-51 17.5t-66 4.5h-111v-247
h120q33 0 60.5 5t48 19t32 38.5t11.5 63.5zM441 177q0 40 -11.5 65.5t-33 40t-52.5 20t-69 5.5h-140v-268h137q36 0 66.5 5t53.5 20t36 42t13 70z" />
    <glyph glyph-name="C" unicode="C" horiz-adv-x="524" 
d="M435 510q-17 50 -48 71.5t-88 21.5q-97 0 -144 -72t-47 -224q0 -56 8 -106t30 -87.5t62 -60t104 -22.5q35 0 74 8.5t78 28.5l-2 -43q-30 -16 -67 -25t-82 -9q-74 0 -123 26t-78 70t-40.5 102t-11.5 123q0 158 60 244t179 86q66 0 111 -29t62 -93z" />
    <glyph glyph-name="D" unicode="D" horiz-adv-x="595" 
d="M535 316q0 -80 -15.5 -139t-49.5 -98.5t-89.5 -59t-134.5 -19.5h-154v633h114q79 0 140 -12.5t103 -47t64 -96.5t22 -161zM488 316q0 87 -18 141.5t-53 85t-86 41t-117 10.5h-79v-554h111q69 0 115.5 17.5t74.5 52.5t40 86.5t12 119.5z" />
    <glyph glyph-name="E" unicode="E" 
d="M443 40l-8 -40h-343v633h328v-39h-285v-252h232v-39h-232v-263h308z" />
    <glyph glyph-name="F" unicode="F" horiz-adv-x="465" 
d="M421 594h-286v-252h233v-39h-233v-303h-43v633h329v-39z" />
    <glyph glyph-name="G" unicode="G" horiz-adv-x="577" 
d="M497 0h-29l-11 40q-28 -21 -68 -35t-88 -14q-52 0 -96 17.5t-76.5 56.5t-50.5 100t-18 148q0 162 62.5 245.5t180.5 83.5q78 0 123.5 -36t66.5 -93l-35 -11q-23 52 -58.5 76.5t-93.5 24.5q-54 0 -91.5 -19.5t-61.5 -57t-34.5 -91t-10.5 -120.5q0 -64 9.5 -116t32.5 -89.5
t60 -58t93 -20.5q88 0 151 52v151h-102v38h145v-272z" />
    <glyph glyph-name="H" unicode="H" horiz-adv-x="600" 
d="M508 0h-43v297h-330v-297h-43v633h43v-296h330v296h43v-633z" />
    <glyph glyph-name="I" unicode="I" horiz-adv-x="243" 
d="M100 0v633h43v-633h-43z" />
    <glyph glyph-name="J" unicode="J" horiz-adv-x="373" 
d="M285 177q0 -36 -3.5 -69.5t-18.5 -60t-45.5 -42t-83.5 -15.5q-54 0 -94 16l3 39q26 -9 49 -12.5t41 -3.5q33 0 54 8.5t33.5 26t17 44.5t4.5 65v459h43v-455z" />
    <glyph glyph-name="K" unicode="K" horiz-adv-x="545" 
d="M510 3q-8 -5 -17 -6.5t-20 -1.5q-23 0 -39.5 11.5t-34.5 43.5l-142 248h-122v-298h-43v633h43v-295h121l162 295h48l-174 -314l144 -249q14 -23 22.5 -29t20.5 -6q9 0 17 2t15 4z" />
    <glyph glyph-name="L" unicode="L" horiz-adv-x="469" 
d="M427 40l-8 -40h-327v633h43v-593h292z" />
    <glyph glyph-name="M" unicode="M" horiz-adv-x="747" 
d="M612 0v532l-218 -532h-39l-220 532v-532h-43v633h44l239 -577l236 577h44v-633h-43z" />
    <glyph glyph-name="N" unicode="N" horiz-adv-x="619" 
d="M527 0h-33l-361 552v-552h-41v633h34l360 -551v551h41v-633z" />
    <glyph glyph-name="O" unicode="O" horiz-adv-x="590" 
d="M295 31q101 0 144.5 74.5t43.5 207.5q0 68 -10.5 121.5t-33.5 91t-58.5 57t-85.5 19.5t-85.5 -19.5t-58 -57t-33 -91t-10.5 -121.5q0 -133 43 -207.5t144 -74.5zM295 -9q-110 0 -172.5 81.5t-62.5 243.5t62.5 244t172.5 82t172.5 -82t62.5 -244t-62.5 -243.5
t-172.5 -81.5z" />
    <glyph glyph-name="P" unicode="P" horiz-adv-x="536" 
d="M488 438q0 -107 -61.5 -155t-177.5 -48h-114v-235h-43v633h161q114 0 174.5 -44.5t60.5 -150.5zM441 435q0 42 -9.5 72t-32.5 49.5t-61 28.5t-94 9h-109v-319h105q57 0 95.5 9t62 28.5t33.5 50t10 72.5z" />
    <glyph glyph-name="Q" unicode="Q" horiz-adv-x="590" 
d="M286 -9q-7 -13 -9.5 -24t-2.5 -24q0 -36 19.5 -49.5t51.5 -13.5t64 11.5t59 30.5l-2 -41q-24 -16 -55.5 -28t-67.5 -12q-48 0 -79 23t-31 72q0 32 14 60q-89 16 -138 96.5t-49 223.5q0 162 62.5 244t172.5 82t172.5 -82t62.5 -243q0 -162 -63.5 -244t-171.5 -82h-9z
M295 31q101 0 144.5 74.5t43.5 207.5q0 68 -10.5 121.5t-33.5 91t-58.5 57t-85.5 19.5t-85.5 -19.5t-58 -57t-33 -91t-10.5 -121.5q0 -133 43 -207.5t144 -74.5z" />
    <glyph glyph-name="R" unicode="R" horiz-adv-x="562" 
d="M509 3q-5 -3 -14 -5.5t-22 -2.5q-29 0 -44.5 15.5t-31.5 44.5l-110 205h-152v-260h-43v633h164q42 0 82 -8.5t71.5 -29t51 -55.5t19.5 -88q0 -70 -35 -119t-112 -68l103 -194q12 -22 20.5 -29t22.5 -7q8 0 16 2t15 4zM432 452q0 81 -46 111.5t-137 30.5h-114v-295h128
q47 0 79 11t52 31t29 48t9 63z" />
    <glyph glyph-name="S" unicode="S" horiz-adv-x="474" 
d="M426 161q0 -42 -15.5 -74t-42.5 -53.5t-64 -32t-80 -10.5q-35 0 -75.5 7t-76.5 21l1 46q42 -19 80.5 -26.5t69.5 -7.5q33 0 62 7.5t50 23t33.5 39t12.5 56.5q0 27 -10 47.5t-28.5 37.5t-44.5 31.5t-59 29.5q-38 18 -69.5 34.5t-53.5 36t-34 44.5t-12 60q0 40 14 71
t38.5 51.5t58.5 31t75 10.5q32 0 64.5 -5.5t65.5 -16.5l-1 -42q-34 11 -67 17.5t-65 6.5q-67 0 -102.5 -30t-35.5 -88q0 -27 8.5 -46.5t26.5 -34.5t44.5 -29t62.5 -30q42 -20 74 -38t53 -39t31.5 -46.5t10.5 -59.5z" />
    <glyph glyph-name="T" unicode="T" horiz-adv-x="471" 
d="M445 594h-188v-594h-43v594h-188v39h419v-39z" />
    <glyph glyph-name="U" unicode="U" horiz-adv-x="587" 
d="M503 222q0 -52 -7.5 -89.5t-27.5 -66.5q-26 -38 -70.5 -56.5t-101.5 -18.5q-54 0 -98.5 15.5t-70.5 44.5q-23 28 -33 69t-10 93v420h43v-409q0 -47 6.5 -81t22.5 -57q23 -32 61 -43.5t80 -11.5q48 0 80.5 13.5t52.5 42.5q15 23 23 54.5t8 83.5v408h42v-411z" />
    <glyph glyph-name="V" unicode="V" horiz-adv-x="526" 
d="M490 633l-213 -633h-33l-208 633h48l177 -553l182 553h47z" />
    <glyph glyph-name="W" unicode="W" horiz-adv-x="827" 
d="M779 633l-178 -633h-50l-137 516l-138 -516h-50l-178 633h45l158 -578l139 522h48l138 -522l157 578h46z" />
    <glyph glyph-name="X" unicode="X" horiz-adv-x="531" 
d="M130 633l139 -267l146 267h47l-170 -304l137 -258q11 -21 20 -28.5t23 -7.5q8 0 16 2t15 4l-1 -38q-5 -3 -14 -5.5t-22 -2.5q-27 0 -43 14t-33 46l-124 230l-160 -285h-48l186 323l-164 310h50z" />
    <glyph glyph-name="Y" unicode="Y" horiz-adv-x="527" 
d="M285 0h-43v222l-200 411h49l173 -363q42 88 87 181t87 182h47l-200 -411v-222z" />
    <glyph glyph-name="Z" unicode="Z" horiz-adv-x="502" 
d="M438 40l-8 -40h-366v30l314 564h-290v39h342v-29l-314 -564h322z" />
    <glyph glyph-name="a" unicode="a" horiz-adv-x="486" 
d="M399 70q0 -20 6.5 -29t23.5 -9q13 0 27 7l-2 -36q-12 -6 -32 -6q-27 0 -44.5 16t-17.5 51v4q-16 -29 -53.5 -53t-94.5 -24q-34 0 -62.5 10t-49.5 29.5t-32.5 48t-11.5 66.5q0 42 14.5 72t40 49.5t61 28.5t77.5 9q28 0 56.5 -3.5t54.5 -9.5v45q0 65 -32.5 93.5t-95.5 28.5
q-32 0 -67.5 -7t-68.5 -20l-1 38q32 11 67 18t71 7q79 0 122.5 -36.5t43.5 -122.5v-265zM360 257q-26 6 -56.5 9t-53.5 3q-34 0 -62 -6t-48.5 -20.5t-32 -38t-11.5 -58.5q0 -58 30.5 -88.5t85.5 -30.5q36 0 63.5 12.5t46.5 33.5t28.5 49t9.5 60v75z" />
    <glyph glyph-name="b" unicode="b" horiz-adv-x="510" 
d="M456 245q0 -54 -13 -100.5t-40.5 -80.5t-72 -53.5t-107.5 -19.5q-36 0 -68.5 6.5t-70.5 22.5v661h39v-263q22 36 59 56t83 20q53 0 89.5 -21t59 -55.5t32.5 -79.5t10 -93zM414 247q0 42 -7.5 80t-25.5 67.5t-46.5 46.5t-70.5 17q-63 0 -102 -40.5t-39 -121.5v-250
q23 -10 52 -14.5t53 -4.5q51 0 86.5 16.5t57.5 46t32 70t10 87.5z" />
    <glyph glyph-name="c" unicode="c" horiz-adv-x="446" 
d="M370 363q-18 50 -44.5 72.5t-77.5 22.5q-75 0 -113.5 -57t-38.5 -157q0 -47 9.5 -86.5t29 -68t50 -44.5t72.5 -16q37 0 69.5 11.5t60.5 30.5l-1 -42q-24 -14 -55.5 -26t-73.5 -12q-97 0 -150 66t-53 185q0 57 13 103.5t37.5 79.5t60.5 51t83 18q66 0 103.5 -33t54.5 -88z
" />
    <glyph glyph-name="d" unicode="d" horiz-adv-x="520" 
d="M394 430q-56 28 -115 28q-86 0 -134.5 -57t-48.5 -168q0 -95 38 -150.5t115 -55.5q38 0 65.5 13.5t45 35.5t26 51t8.5 61v242zM394 68q-16 -30 -52 -53.5t-94 -23.5q-95 0 -144.5 64.5t-49.5 176.5q0 121 56.5 191.5t165.5 70.5q36 0 65 -7.5t53 -18.5v213h39v-611
q0 -20 6.5 -29t23.5 -9q13 0 27 7l-2 -36q-12 -6 -32 -6q-27 0 -44.5 16t-17.5 51v4z" />
    <glyph glyph-name="e" unicode="e" horiz-adv-x="478" 
d="M428 273q0 -23 -5 -35.5t-28 -12.5h-300q5 -100 48 -148t125 -48q35 0 70 10t70 34l-1 -42q-27 -17 -61.5 -28.5t-79.5 -11.5q-53 0 -93 17.5t-66.5 50t-39.5 78.5t-13 103q0 63 15 110.5t41.5 79.5t62.5 48t77 16q42 0 75.5 -16.5t56 -45.5t34.5 -69.5t12 -89.5z
M388 276q0 37 -8 70t-25 58t-43 39.5t-62 14.5q-72 0 -112 -53.5t-43 -144.5h282q8 0 9.5 4t1.5 12z" />
    <glyph glyph-name="f" unicode="f" horiz-adv-x="313" 
d="M311 645q-39 12 -69 12q-45 0 -63.5 -19.5t-18.5 -67.5v-85h124v-35h-124v-450h-39v450h-75v35h75v91q0 55 28.5 86t88.5 31q20 0 38.5 -3.5t34.5 -8.5v-36z" />
    <glyph glyph-name="g" unicode="g" horiz-adv-x="521" 
d="M437 28q0 -60 -6 -100t-29 -71q-21 -29 -58 -47.5t-100 -18.5q-77 0 -144 29v41q38 -17 74.5 -25.5t68.5 -8.5q51 0 81 14t47 37q19 25 23 63.5t4 79.5v54q-21 -32 -56 -53.5t-93 -21.5q-49 0 -85.5 16.5t-61 47.5t-36.5 73.5t-12 95.5q0 61 16.5 109t47 82t74.5 52
t99 18q38 0 73 -8t73 -23v-435zM398 437q-20 9 -48 15t-60 6q-91 0 -142.5 -59t-51.5 -165q0 -43 9 -79.5t27.5 -63t47.5 -41.5t70 -15q37 0 65 13t46.5 35t27.5 51t9 61v242z" />
    <glyph glyph-name="h" unicode="h" horiz-adv-x="521" 
d="M441 0h-39v317q0 63 -30 102t-100 39q-72 0 -110.5 -41t-38.5 -119v-298h-39v681h39v-263q22 35 58.5 55.5t91.5 20.5q83 0 125.5 -45.5t42.5 -131.5v-317z" />
    <glyph glyph-name="i" unicode="i" horiz-adv-x="219" 
d="M127 70q0 -20 6.5 -29t23.5 -9q13 0 27 7l-2 -36q-12 -6 -31 -6q-28 0 -45.5 15.5t-17.5 47.5v425h39v-415zM73 615q0 14 10 24.5t24 10.5t24.5 -10.5t10.5 -24.5t-10.5 -24t-24.5 -10t-24 10t-10 24z" />
    <glyph glyph-name="j" unicode="j" horiz-adv-x="211" 
d="M5 -166q30 0 46 9t24 27.5t9.5 46t1.5 64.5v504h39v-506q0 -38 -2 -70.5t-13.5 -57.5t-35.5 -39t-67 -14q-16 0 -31.5 2t-28.5 7l1 37q14 -5 29 -7.5t28 -2.5zM71 615q0 14 10 24.5t24 10.5t24.5 -10.5t10.5 -24.5t-10.5 -24t-24.5 -10t-24 10t-10 24z" />
    <glyph glyph-name="k" unicode="k" horiz-adv-x="467" 
d="M448 3q-9 -4 -17 -5t-15 -1q-28 0 -45 13.5t-32 39.5l-118 206h-98v-256h-39v681h39v-390h97l146 194h44l-158 -209l121 -208q12 -20 23 -28t25 -8q6 0 13.5 2t14.5 4z" />
    <glyph glyph-name="l" unicode="l" horiz-adv-x="215" 
d="M178 3q-12 -6 -31 -6q-28 0 -45.5 15.5t-17.5 47.5v621h39v-611q0 -20 6.5 -29t23.5 -9q13 0 27 7z" />
    <glyph glyph-name="m" unicode="m" horiz-adv-x="819" 
d="M739 0h-39v317q0 63 -29 102t-98 39q-67 0 -104 -37t-37 -102v-319h-39v323q0 61 -29 98t-98 37q-71 0 -107 -41t-36 -119v-298h-39v485h29l6 -72q21 38 56 59.5t92 21.5q58 0 95.5 -24t55.5 -67q39 91 154 91q83 0 125 -45.5t42 -131.5v-317z" />
    <glyph glyph-name="n" unicode="n" horiz-adv-x="521" 
d="M441 0h-39v317q0 63 -30 102t-100 39q-72 0 -110.5 -41t-38.5 -119v-298h-39v485h29l6 -72q22 38 59.5 59.5t94.5 21.5q83 0 125.5 -45.5t42.5 -131.5v-317z" />
    <glyph glyph-name="o" unicode="o" horiz-adv-x="508" 
d="M254 27q34 0 63 12.5t50 38.5t33 66.5t12 97.5q0 56 -12 97t-33 67.5t-50 39t-63 12.5q-70 0 -114 -52t-44 -164q0 -113 44 -164t114 -51zM254 -9q-45 0 -81.5 16.5t-63 48.5t-41 79t-14.5 107t14.5 107t41 79.5t63 49t81.5 16.5t81.5 -16.5t63 -49t41 -79.5t14.5 -107
t-14.5 -107t-41 -79t-63 -48.5t-81.5 -16.5z" />
    <glyph glyph-name="p" unicode="p" horiz-adv-x="510" 
d="M456 247q0 -57 -13 -104t-41.5 -80.5t-72.5 -52.5t-107 -19q-29 0 -54 4t-45 11v-202h-39v681h29l6 -72q22 39 60 60t89 21q46 0 81 -18t59 -50.5t36 -78t12 -100.5zM414 249q0 103 -39.5 156t-111.5 53q-66 0 -103 -42.5t-37 -117.5v-255q25 -8 52.5 -12t52.5 -4
q51 0 86.5 16.5t57.5 46t32 70t10 89.5z" />
    <glyph glyph-name="q" unicode="q" horiz-adv-x="523" 
d="M437 -61q0 -30 1.5 -51t4.5 -36t7.5 -26.5t10.5 -22.5l-39 -8q-13 21 -18.5 48t-5.5 67v157q-20 -32 -56 -54t-93 -22q-49 0 -85.5 18t-61 49.5t-36.5 75t-12 95.5q0 61 16 110t46.5 83.5t75 53t100.5 18.5q38 0 72.5 -8t72.5 -23v-524zM398 437q-20 9 -47.5 15t-59.5 6
q-94 0 -144.5 -60.5t-50.5 -167.5q0 -43 9 -80t27.5 -64.5t48 -43t70.5 -15.5q37 0 64.5 13t46 34.5t27.5 50.5t9 61v251z" />
    <glyph glyph-name="r" unicode="r" horiz-adv-x="314" 
d="M280 453q-5 1 -13.5 1.5t-15.5 0.5q-66 0 -97 -44.5t-31 -120.5v-290h-39v485h29l7 -82q35 91 131 91q8 0 16 -0.5t13 -1.5v-39z" />
    <glyph glyph-name="s" unicode="s" horiz-adv-x="416" 
d="M362 126q0 -63 -43.5 -99t-119.5 -36q-33 0 -68.5 6.5t-68.5 19.5l5 37q70 -27 131 -27q63 0 93.5 27.5t30.5 71.5q0 21 -7.5 36t-22.5 27t-37.5 23t-52.5 24q-29 13 -54 25.5t-43 28.5t-28 36t-10 47q0 30 12.5 52.5t34 38t50.5 23t62 7.5q52 0 105 -17v-34
q-29 8 -55 11.5t-49 3.5q-57 0 -89 -22t-32 -64q0 -35 27 -55t87 -46q32 -14 58 -26.5t45 -28.5t29 -37.5t10 -52.5z" />
    <glyph glyph-name="t" unicode="t" horiz-adv-x="324" 
d="M289 7q-40 -16 -76 -16q-23 0 -44.5 8t-37.5 27q-13 16 -18.5 38t-5.5 57v329h-75v35h75v134l39 16v-150h124v-35h-124v-317q0 -34 3 -52t11 -29t20.5 -18t36.5 -7q29 0 73 18z" />
    <glyph glyph-name="u" unicode="u" horiz-adv-x="532" 
d="M441 70q0 -20 6.5 -29t23.5 -9q13 0 27 7l-2 -36q-12 -6 -32 -6q-27 0 -44.5 16t-17.5 51v4q-19 -30 -59.5 -53.5t-99.5 -23.5q-35 0 -64.5 9t-50.5 29t-32.5 51t-11.5 75v330h39v-328q0 -71 32.5 -99.5t88.5 -28.5q39 0 68.5 11.5t49.5 32t30 48t10 59.5v305h39v-415z
" />
    <glyph glyph-name="v" unicode="v" horiz-adv-x="435" 
d="M189 140q8 -21 15 -43.5t14 -45.5q7 22 14.5 44.5t15.5 44.5l129 345h40l-182 -485h-35l-182 485h42z" />
    <glyph glyph-name="w" unicode="w" horiz-adv-x="675" 
d="M475 53l132 432h40l-150 -485h-47l-112 389l-111 -389h-47l-152 485h43l133 -432l111 389h48z" />
    <glyph glyph-name="x" unicode="x" horiz-adv-x="441" 
d="M95 485l125 -203l134 203h43l-157 -234l118 -189q11 -17 20 -23.5t22 -6.5q6 0 13.5 2t13.5 4l-1 -35q-6 -3 -15 -4.5t-18 -1.5q-23 0 -36 11t-27 33l-113 180l-145 -221h-44l169 252l-146 233h44z" />
    <glyph glyph-name="y" unicode="y" horiz-adv-x="525" 
d="M441 28q0 -60 -6 -100t-29 -71q-21 -29 -58 -47.5t-100 -18.5q-77 0 -144 29v41q38 -17 74.5 -25.5t68.5 -8.5q51 0 81 14t47 37q19 25 23 63.5t4 79.5v47q-23 -32 -61.5 -54.5t-97.5 -22.5q-35 0 -64.5 9t-50.5 29t-32.5 51t-11.5 75v330h39v-328q0 -71 32.5 -99.5
t88.5 -28.5q39 0 68.5 11.5t49.5 32t30 48t10 59.5v305h39v-457z" />
    <glyph glyph-name="z" unicode="z" horiz-adv-x="405" 
d="M361 36l-3 -36h-310v35l265 415h-249v35h291v-35l-264 -414h270z" />
    <glyph glyph-name="ampersand" unicode="&#x26;" horiz-adv-x="671" 
d="M620 4q-13 -7 -30.5 -10t-34.5 -3q-41 0 -72 22.5t-35 78.5q-20 -44 -68 -72.5t-115 -28.5q-46 0 -81.5 13.5t-60 38t-37 59t-12.5 75.5q0 31 8 60t24.5 53t41.5 41.5t59 24.5q-39 14 -62.5 44.5t-23.5 85.5q0 71 43.5 113t128.5 42q34 0 67.5 -7t58.5 -18l-1 -38
q-29 11 -61 18t-64 7q-66 0 -98.5 -29t-32.5 -84q0 -35 11.5 -58t32.5 -37.5t49 -20.5t61 -6h277v-37h-108v-202q0 -21 2.5 -39.5t10.5 -32t23 -21t41 -7.5q30 0 59 12zM444 331h-128q-39 0 -74.5 -4.5t-63 -20t-44 -45.5t-16.5 -82q0 -75 38.5 -112.5t112.5 -37.5
q49 0 82.5 16.5t54 45t29.5 67.5t9 83v90z" />
    <glyph glyph-name="at" unicode="@" horiz-adv-x="754" 
d="M682 345q0 -44 -9 -83.5t-27 -69t-44.5 -47t-60.5 -17.5q-29 0 -50 13.5t-26 38.5q-11 -17 -40 -34.5t-66 -17.5q-51 0 -82 32t-31 86q0 57 34.5 87.5t104.5 30.5q17 0 35.5 -1.5t38.5 -5.5v27q0 83 -87 83q-23 0 -47 -5.5t-50 -14.5l-1 36q23 9 46.5 14.5t52.5 5.5
q56 0 89.5 -26.5t33.5 -88.5v-176q0 -23 12.5 -36.5t35.5 -13.5q24 0 42.5 14t32 38.5t20.5 58t7 71.5q0 61 -18.5 109.5t-52 82.5t-82 52t-108.5 18q-66 0 -117 -21.5t-86 -60.5t-53.5 -93t-18.5 -119q0 -70 21 -123t59 -89t91.5 -54.5t119.5 -18.5t131 17.5t116 44.5
l-2 -40q-18 -9 -44.5 -19.5t-59 -19t-69.5 -14t-76 -5.5q-72 0 -132 20.5t-103 60.5t-66.5 100t-23.5 138q0 81 25 143t68 104t100.5 63.5t123.5 21.5q65 0 119 -21t92.5 -60t60 -94t21.5 -122zM459 322q-20 4 -39 5.5t-35 1.5q-52 0 -76 -20t-24 -63q0 -38 19 -60t61 -22
q45 0 69.5 26.5t24.5 80.5v51z" />
    <glyph glyph-name="exclam" unicode="!" horiz-adv-x="270" 
d="M148 179h-28l-15 427q-2 36 29 36t30 -36zM100 31q0 14 10.5 24.5t24.5 10.5t24.5 -10.5t10.5 -24.5t-10.5 -24.5t-24.5 -10.5t-24.5 10.5t-10.5 24.5z" />
    <glyph glyph-name="exclamdown" unicode="&#xa1;" horiz-adv-x="270" 
d="M121.992 310.981h27.999l14.999 -426.975q2 -35.9971 -28.998 -35.9971q-30.999 0 -29.999 35.9971zM169.989 458.972q0 -13.999 -10.499 -24.498t-24.498 -10.499q-14 0 -24.499 10.499t-10.499 24.498t10.499 24.499q10.499 10.499 24.499 10.499
q13.999 0 24.498 -10.499q10.499 -10.5 10.499 -24.499z" />
    <glyph glyph-name="question" unicode="?" horiz-adv-x="448" 
d="M386 463q0 -74 -44 -114.5t-122 -50.5l-5 -119h-28l-4 149q79 6 119 41t40 95t-36 99t-101 39q-46 0 -79 -25t-50 -82l-36 10q15 61 55 99t111 38q42 0 75.5 -14t57 -38t35.5 -57t12 -70zM167 31q0 14 10.5 24.5t24.5 10.5t24.5 -10.5t10.5 -24.5t-10.5 -24.5
t-24.5 -10.5t-24.5 10.5t-10.5 24.5z" />
    <glyph glyph-name="questiondown" unicode="&#xbf;" horiz-adv-x="448" 
d="M61.9961 26.998q0 73.9961 43.9971 114.493q43.998 40.498 121.993 50.4971l4.99902 118.993h27.999l3.99902 -148.991q-78.9951 -6 -118.992 -40.998q-39.998 -34.9971 -39.998 -94.9941q0 -59.9961 35.998 -98.9932q35.998 -38.998 100.994 -38.998
q45.9971 0 78.9951 24.998q32.998 24.999 49.9971 81.9951l35.9971 -9.99902q-14.999 -60.9961 -54.9961 -98.9941q-39.998 -37.9971 -110.993 -37.9971q-41.9971 0 -75.4951 13.999t-56.9971 37.9971q-23.498 23.999 -35.498 56.9971q-11.999 32.998 -11.999 69.9951z
M280.982 458.972q0 -13.999 -10.499 -24.498t-24.498 -10.499t-24.499 10.499q-10.499 10.499 -10.499 24.498t10.499 24.499q10.5 10.499 24.499 10.499t24.498 -10.499q10.499 -10.5 10.499 -24.499z" />
    <glyph glyph-name="asterisk" unicode="*" horiz-adv-x="421" 
d="M350 405q11 -5 15.5 -10.5t4.5 -12.5q0 -8 -5.5 -15t-13.5 -7t-21 9l-112 79l12 -137q3 -31 -20 -31t-20 31l12 137l-112 -79q-13 -9 -21 -9t-13.5 7t-5.5 15q0 7 4.5 12.5t15.5 10.5l125 56l-125 57q-11 5 -15.5 9.5t-4.5 10.5q0 8 5 16.5t14 8.5t22 -9l111 -80l-12 137
q-3 31 20 31t20 -31l-12 -137l111 80q13 9 22 9t14.5 -8.5t5.5 -16.5q0 -11 -21 -20l-125 -57z" />
    <glyph glyph-name="period" unicode="." horiz-adv-x="209" 
d="M70 34q0 16 11 27t27 11t27 -11t11 -27t-11 -27t-27 -11t-27 11t-11 27z" />
    <glyph glyph-name="comma" unicode="," horiz-adv-x="225" 
d="M156 21q0 -30 -17.5 -65t-56.5 -64l-12 13q19 19 34 41.5t19 44.5q-23 4 -34 16t-11 27q0 18 11 28t27 10t28 -11.5t12 -39.5z" />
    <glyph glyph-name="colon" unicode=":" horiz-adv-x="216" 
d="M70 34q0 16 11 27t27 11t27 -11t11 -27t-11 -27t-27 -11t-27 11t-11 27zM70 330q0 16 11 27t27 11t27 -11t11 -27t-11 -27t-27 -11t-27 11t-11 27z" />
    <glyph glyph-name="semicolon" unicode=";" horiz-adv-x="225" 
d="M71 330q0 16 11 27t27 11t27 -11t11 -27t-11 -27t-27 -11t-27 11t-11 27zM156 25q0 -30 -17.5 -65t-56.5 -64l-12 13q19 19 34 41.5t19 44.5q-23 4 -34 16t-11 27q0 18 11 28t27 10t28 -11.5t12 -39.5z" />
    <glyph glyph-name="ellipsis" unicode="&#x2026;" horiz-adv-x="518" 
d="M70 34q0 16 11 27t27 11t27 -11t11 -27t-11 -27t-27 -11t-27 11t-11 27zM221 34q0 16 11 27t27 11t27 -11t11 -27t-11 -27t-27 -11t-27 11t-11 27zM372 34q0 16 11 27t27 11t27 -11t11 -27t-11 -27t-27 -11t-27 11t-11 27z" />
    <glyph glyph-name="periodcentered" unicode="&#xb7;" horiz-adv-x="216" 
d="M70 255q0 16 11 27t27 11t27 -11t11 -27t-11 -27t-27 -11t-27 11t-11 27z" />
    <glyph glyph-name="uni22C5" unicode="&#x22c5;" horiz-adv-x="216" 
d="M70 255q0 16 11 27t27 11t27 -11t11 -27t-11 -27t-27 -11t-27 11t-11 27z" />
    <glyph glyph-name="bullet" unicode="&#x2022;" horiz-adv-x="348" 
d="M90 317q0 36 25.5 61.5t61.5 25.5t61.5 -25.5t25.5 -61.5t-25.5 -61.5t-61.5 -25.5t-61.5 25.5t-25.5 61.5z" />
    <glyph glyph-name="slash" unicode="/" horiz-adv-x="283" 
d="M272 642l-211 -651h-41l211 651h41z" />
    <glyph glyph-name="parenleft" unicode="(" horiz-adv-x="277" 
d="M78 248q0 153 41.5 264t139.5 173l10 -14q-44 -35 -71.5 -77.5t-42.5 -94.5t-20.5 -114.5t-5.5 -136.5q0 -75 5.5 -137t20.5 -114t42.5 -94.5t71.5 -77.5l-10 -15q-98 62 -139.5 173t-41.5 265z" />
    <glyph glyph-name="brokenbar" unicode="&#xa6;" horiz-adv-x="221" 
d="M131 356h-41v393h41v-393zM131 -247h-41v393h41v-393z" />
    <glyph glyph-name="parenright" unicode=")" horiz-adv-x="277" 
d="M199 248q0 -154 -41.5 -265t-139.5 -173l-10 15q44 35 71.5 77.5t42.5 94.5t20.5 114t5.5 137q0 74 -5.5 136.5t-20.5 114.5t-42.5 94.5t-71.5 77.5l10 14q98 -62 139.5 -173t41.5 -264z" />
    <glyph glyph-name="bracketleft" unicode="[" horiz-adv-x="284" 
d="M238 -183h-128v866h128v-33h-87v-799h87v-34z" />
    <glyph glyph-name="backslash" unicode="\" horiz-adv-x="292" 
d="M61 642l211 -651h-41l-211 651h41z" />
    <glyph glyph-name="bracketright" unicode="]" horiz-adv-x="284" 
d="M46 -149h87v799h-87v33h128v-866h-128v34z" />
    <glyph glyph-name="braceleft" unicode="{" horiz-adv-x="299" 
d="M182 352q0 -45 -12 -71t-49 -40q37 -14 49 -40t12 -71q0 -27 -2.5 -60t-6.5 -64q-4 -29 -6.5 -59.5t-2.5 -49.5q0 -42 14 -58.5t52 -16.5h17v-23h-20q-31 0 -50.5 8t-31 24.5t-15.5 41.5t-4 58q0 15 0.5 44.5t1.5 63.5q1 33 1.5 63.5t0.5 46.5q0 19 -2 31.5t-8 21t-17 14
t-28 10.5l-17 5v20l17 5q18 5 28.5 10.5t16.5 13.5t8 20.5t2 32.5q0 16 -0.5 46.5t-1.5 63.5q-1 34 -1.5 63.5t-0.5 44.5q0 33 4 57.5t15.5 41t31 25t50.5 8.5h20v-23h-17q-38 0 -52 -16.5t-14 -58.5q0 -23 3 -51.5t6 -57.5q4 -31 6.5 -64t2.5 -60z" />
    <glyph glyph-name="bar" unicode="|" horiz-adv-x="221" 
d="M131 -247h-41v996h41v-996z" />
    <glyph glyph-name="braceright" unicode="}" horiz-adv-x="299" 
d="M117 352q0 27 2.5 60t6.5 64q3 29 6 57.5t3 51.5q0 42 -14 58.5t-52 16.5h-17v23h20q31 0 50.5 -8.5t30.5 -25t15.5 -41t4.5 -57.5q0 -15 -0.5 -44.5t-1.5 -63.5q-1 -33 -1.5 -63.5t-0.5 -46.5q0 -20 2 -32.5t8 -20.5t16.5 -13.5t28.5 -10.5l17 -5v-20l-17 -5
q-17 -5 -28 -10.5t-17 -14t-8 -21t-2 -31.5q0 -16 0.5 -46.5t1.5 -63.5q1 -34 1.5 -63.5t0.5 -44.5q0 -33 -4.5 -58t-15.5 -41.5t-30.5 -24.5t-50.5 -8h-20v23h17q38 0 52 16.5t14 58.5q0 19 -2.5 49.5t-6.5 59.5q-4 31 -6.5 64t-2.5 60q0 45 12 71t49 40q-37 14 -49 40
t-12 71z" />
    <glyph glyph-name="hyphen" unicode="-" horiz-adv-x="337" 
d="M277 217h-217v44h217v-44z" />
    <glyph glyph-name="uni00AD" unicode="&#xad;" horiz-adv-x="337" 
d="M277 217h-217v44h217v-44z" />
    <glyph glyph-name="endash" unicode="&#x2013;" horiz-adv-x="502" 
d="M492 258h-482v43h482v-43z" />
    <glyph glyph-name="emdash" unicode="&#x2014;" horiz-adv-x="996" 
d="M996 258h-996v43h996v-43z" />
    <glyph glyph-name="underscore" unicode="_" horiz-adv-x="503" 
d="M481 -88h-459v38h459v-38z" />
    <glyph glyph-name="dagger" unicode="&#x2020;" horiz-adv-x="534" 
d="M267 642q15 0 24 -8t9 -28q0 -18 -6 -65.5t-15 -125.5q12 1 37.5 4.5t52.5 6.5t49 5.5t28 2.5q20 0 28 -7.5t8 -24.5t-8 -24.5t-28 -7.5q-7 0 -29 2.5t-48 5.5t-51 6t-39 5q4 -119 8.5 -237t8.5 -237q2 -33 2.5 -57.5t0.5 -34.5q0 -26 -6.5 -36t-25.5 -10t-25.5 10
t-6.5 36q0 10 0.5 34.5t2.5 57.5q4 119 8.5 237t8.5 237q-12 -2 -36.5 -5t-51 -6t-49.5 -5.5t-30 -2.5q-20 0 -28 7.5t-8 24.5t8 24.5t28 7.5q6 0 26.5 -2t46 -5t51.5 -6.5t43 -5.5q-9 78 -15 125.5t-6 65.5q0 20 9 28t24 8z" />
    <glyph glyph-name="daggerdbl" unicode="&#x2021;" horiz-adv-x="534" 
d="M292 206q0 -45 -4 -90.5t-9 -85.5q8 1 32.5 4t52 6.5t51.5 6t31 2.5q20 0 28 -7.5t8 -24.5t-8 -24.5t-28 -7.5q-5 0 -29 2.5t-52 6t-53 6.5t-33 4q9 -78 15 -125.5t6 -65.5q0 -20 -9 -28t-24 -8t-24 8t-9 28q0 18 6 65.5t15 125.5q-8 -1 -33 -4t-53 -6.5t-51.5 -6
t-29.5 -2.5q-20 0 -28 7.5t-8 24.5t8 24.5t28 7.5q7 0 31 -2.5t51.5 -6t52 -6.5t32.5 -4q-5 40 -8.5 85.5t-3.5 90.5t3.5 90.5t8.5 85.5q-8 -1 -32.5 -4t-52 -6.5t-51.5 -6t-31 -2.5q-20 0 -28 7.5t-8 24.5t8 24.5t28 7.5q6 0 29.5 -2.5t51.5 -6t52.5 -6.5t33.5 -4
q-9 78 -15 125.5t-6 65.5q0 20 9 28t24 8t24 -8t9 -28q0 -18 -6 -65.5t-15 -125.5q5 1 30 4t53.5 6.5t53 6t30.5 2.5q20 0 28 -7.5t8 -24.5t-8 -24.5t-28 -7.5q-7 0 -32 2.5t-53.5 6t-53 6.5t-28.5 4q5 -40 9 -85.5t4 -90.5z" />
    <glyph glyph-name="section" unicode="&#xa7;" horiz-adv-x="532" 
d="M161 198q0 -45 22 -72.5t59 -47.5q66 16 101.5 51.5t35.5 89.5q0 45 -23.5 71.5t-55.5 45.5q-66 -12 -102.5 -46.5t-36.5 -91.5zM256 -224q-26 0 -55 4.5t-54 12.5l5 38q23 -9 52 -14.5t52 -5.5q60 0 90.5 27t30.5 68q0 31 -19 52.5t-47.5 39.5t-61.5 34.5t-61.5 38.5
t-47.5 51.5t-19 73.5q0 63 36 103t99 58q-30 16 -54.5 31t-42 31.5t-27 37.5t-9.5 49q0 60 41.5 98t119.5 38q26 0 54.5 -4.5t54.5 -12.5l-5 -38q-27 8 -53 13.5t-51 5.5q-63 0 -92 -27t-29 -72q0 -33 19 -54.5t47 -39t61.5 -33t61.5 -36t47 -49.5t19 -72
q0 -63 -38.5 -103.5t-101.5 -60.5q33 -17 58.5 -32.5t43 -32.5t27 -38.5t9.5 -49.5q0 -58 -41 -94t-119 -36z" />
    <glyph glyph-name="paragraph" unicode="&#xb6;" horiz-adv-x="427" 
d="M388 598h-61v-824h-35v824h-80v-824h-35v600q-26 1 -49.5 9.5t-41 24.5t-28 40t-10.5 56q0 33 11 57t30 40t44.5 24t55.5 8h199v-35z" />
    <glyph glyph-name="registered" unicode="&#xae;" horiz-adv-x="750" 
d="M375 26q64 0 115 19.5t87 56.5t55.5 91.5t19.5 123.5t-19.5 123.5t-55.5 91.5t-87 56.5t-115 19.5t-115.5 -19.5t-87.5 -56.5t-55.5 -91.5t-19.5 -123.5t19.5 -123.5t55.5 -91.5t87.5 -56.5t115.5 -19.5zM515 151q-11 -6 -21 -6q-17 0 -27.5 8.5t-21.5 26.5l-62 108h-78
v-142h-34v357h102q64 0 93.5 -28.5t29.5 -77.5q0 -38 -19.5 -66t-60.5 -39l58 -99q6 -11 12.5 -14t14.5 -3q2 0 7 1t10 3zM461 397q0 38 -22 55.5t-74 17.5h-60v-149h66q51 0 70.5 21t19.5 55zM375 -8q-72 0 -130 23t-99 66t-63.5 102.5t-22.5 133.5q0 73 22.5 133t63.5 103
t99 66t130 23q71 0 129 -23t99.5 -66t64 -103t22.5 -133q0 -74 -22.5 -133.5t-64 -102.5t-99.5 -66t-129 -23z" />
    <glyph glyph-name="copyright" unicode="&#xa9;" horiz-adv-x="750" 
d="M453 424q-18 52 -70 52t-77.5 -38t-25.5 -110q0 -27 4.5 -54.5t16.5 -49t33.5 -35t54.5 -13.5q23 0 47 7t44 16l-2 -34q-17 -10 -42.5 -16.5t-51.5 -6.5q-39 0 -66 16t-43.5 42t-23.5 59t-7 68q0 85 35 133.5t104 48.5q42 0 67.5 -21.5t33.5 -54.5zM375 26q64 0 115 19.5
t87 56.5t55.5 91.5t19.5 123.5t-19.5 123.5t-55.5 91.5t-87 56.5t-115 19.5t-115.5 -19.5t-87.5 -56.5t-55.5 -91.5t-19.5 -123.5t19.5 -123.5t55.5 -91.5t87.5 -56.5t115.5 -19.5zM375 -8q-72 0 -130 23t-99 66t-63.5 102.5t-22.5 133.5q0 73 22.5 133t63.5 103t99 66
t130 23q71 0 129 -23t99.5 -66t64 -103t22.5 -133q0 -74 -22.5 -133.5t-64 -102.5t-99.5 -66t-129 -23z" />
    <glyph glyph-name="trademark" unicode="&#x2122;" horiz-adv-x="712" 
d="M261 601h-99v-314h-34v314h-98v32h231v-32zM597 633h35v-346h-32v267l-113 -267h-28l-112 267v-267h-32v346h37l122 -291z" />
    <glyph glyph-name="quotedblleft" unicode="&#x201c;" horiz-adv-x="327" 
d="M58.9961 508.969q0 29.998 17.499 64.9961t56.4971 63.9961l11.999 -12.999q-18.999 -18.999 -33.998 -41.4971q-14.999 -22.499 -18.999 -44.498q22.999 -3.99902 33.998 -15.999q10.999 -11.999 10.999 -26.998q0 -17.999 -10.999 -27.998q-10.999 -10 -26.998 -10
t-27.998 11.5q-12 11.499 -12 39.4971zM180.989 508.969q0 29.998 17.499 64.9961q17.498 34.998 56.4961 63.9961l11.999 -12.999q-18.999 -18.999 -33.998 -41.4971q-14.999 -22.499 -18.998 -44.498q22.998 -3.99902 33.9971 -15.999q11 -11.999 11 -26.998
q0 -17.999 -11 -27.998q-10.999 -10 -26.998 -10t-27.998 11.5q-11.999 11.499 -11.999 39.4971z" />
    <glyph glyph-name="quotedblright" unicode="&#x201d;" horiz-adv-x="327" 
d="M146 594q0 -30 -17.5 -65t-56.5 -64l-12 13q19 19 34 41.5t19 44.5q-23 4 -34 16t-11 27q0 18 11 28t27 10t28 -11.5t12 -39.5zM268 594q0 -30 -17.5 -65t-56.5 -64l-12 13q19 19 34 41.5t19 44.5q-23 4 -34 16t-11 27q0 18 11 28t27 10t28 -11.5t12 -39.5z" />
    <glyph glyph-name="quoteleft" unicode="&#x2018;" horiz-adv-x="205" 
d="M58.9961 508.969q0 29.998 17.499 64.9961t56.4971 63.9961l11.999 -12.999q-18.999 -18.999 -33.998 -41.4971q-14.999 -22.499 -18.999 -44.498q22.999 -3.99902 33.998 -15.999q10.999 -11.999 10.999 -26.998q0 -17.999 -10.999 -27.998q-10.999 -10 -26.998 -10
t-27.998 11.5q-12 11.499 -12 39.4971z" />
    <glyph glyph-name="quoteright" unicode="&#x2019;" horiz-adv-x="205" 
d="M146 594q0 -30 -17.5 -65t-56.5 -64l-12 13q19 19 34 41.5t19 44.5q-23 4 -34 16t-11 27q0 18 11 28t27 10t28 -11.5t12 -39.5z" />
    <glyph glyph-name="guillemotleft" unicode="&#xab;" horiz-adv-x="439" 
d="M82 243q0 6 2.5 10t10.5 12l124 136l10 -30l-96 -128l96 -128l-10 -30l-126 138q-11 12 -11 20zM208 243q0 6 2.5 10t10.5 12l124 136l10 -30l-96 -128l96 -128l-10 -30l-126 138q-11 12 -11 20z" />
    <glyph glyph-name="guillemotright" unicode="&#xbb;" horiz-adv-x="439" 
d="M230.986 240.985q0 -6 -2.5 -9.99902q-2.5 -4 -10.5 -12l-123.992 -135.991l-9.99902 29.998l95.9941 127.992l-95.9941 127.992l9.99902 29.998l125.992 -137.991q11 -12 11 -19.999zM356.979 240.985q0 -6 -2.5 -9.99902q-2.5 -4 -10.5 -12l-123.992 -135.991
l-9.99902 29.998l95.9941 127.992l-95.9941 127.992l9.99902 29.998l125.992 -137.991q11 -12 11 -19.999z" />
    <glyph glyph-name="guilsinglleft" unicode="&#x2039;" horiz-adv-x="313" 
d="M82 243q0 6 2.5 10t10.5 12l124 136l10 -30l-96 -128l96 -128l-10 -30l-126 138q-11 12 -11 20z" />
    <glyph glyph-name="guilsinglright" unicode="&#x203a;" horiz-adv-x="313" 
d="M231 243q0 -8 -11 -20l-126 -138l-10 30l96 128l-96 128l10 30l124 -136q8 -8 10.5 -12t2.5 -10z" />
    <glyph glyph-name="quotesinglbase" unicode="&#x201a;" horiz-adv-x="205" 
d="M146 12q0 -30 -17.5 -65t-56.5 -64l-12 13q19 19 34 41.5t19 44.5q-23 4 -34 16t-11 27q0 18 11 28t27 10t28 -11.5t12 -39.5z" />
    <glyph glyph-name="quotedblbase" unicode="&#x201e;" horiz-adv-x="327" 
d="M146 12q0 -30 -17.5 -65t-56.5 -64l-12 13q19 19 34 41.5t19 44.5q-23 4 -34 16t-11 27q0 18 11 28t27 10t28 -11.5t12 -39.5zM268 12q0 -30 -17.5 -65t-56.5 -64l-12 13q19 19 34 41.5t19 44.5q-23 4 -34 16t-11 27q0 18 11 28t27 10t28 -11.5t12 -39.5z" />
    <glyph glyph-name="ordfeminine" unicode="&#xaa;" horiz-adv-x="350" 
d="M307 347q-11 -7 -25 -7t-25.5 9.5t-13.5 29.5q-9 -19 -30 -31t-53 -12q-45 0 -72.5 25t-27.5 73q0 26 9.5 44t25.5 29.5t36.5 16.5t42.5 5q34 0 68 -8v26q0 35 -18 50t-55 15q-18 0 -40 -4t-41 -11l-1 31q20 8 41 11t41 3q47 0 76 -21.5t29 -74.5v-150q0 -14 2.5 -21
t10.5 -7q4 0 9 1t12 6zM242 493q-15 3 -32 5t-31 2q-39 0 -63 -14.5t-24 -51.5q0 -32 18 -50.5t50 -18.5q43 0 62.5 29.5t19.5 68.5v30z" />
    <glyph glyph-name="ordmasculine" unicode="&#xba;" horiz-adv-x="366" 
d="M183 365q40 0 64.5 30t24.5 94q0 63 -24.5 93t-64.5 30q-39 0 -64 -30t-25 -93q0 -64 25 -94t64 -30zM183 336q-55 0 -89 38.5t-34 114.5t34 114.5t89 38.5q56 0 89.5 -38.5t33.5 -114.5t-33.5 -114.5t-89.5 -38.5z" />
    <glyph glyph-name="zero" unicode="0" horiz-adv-x="517" 
d="M258 27q74 0 108 68.5t34 220.5t-34 221t-108 69t-107.5 -69t-33.5 -221t33.5 -220.5t107.5 -68.5zM258 -9q-94 0 -141 82t-47 243t47 243.5t141 82.5q95 0 142 -82.5t47 -243.5t-47 -243t-142 -82z" />
    <glyph glyph-name="one" unicode="1" horiz-adv-x="343" 
d="M299 0h-237v36h104v546l-114 -67l-18 32l150 86h23v-597h92v-36z" />
    <glyph glyph-name="two" unicode="2" horiz-adv-x="466" 
d="M404 40l-8 -40h-318v29q0 55 13.5 95t35 70t48.5 53.5t54 44.5t50.5 40.5t40 41t26 47t9.5 58.5q0 54 -29.5 90.5t-94.5 36.5q-51 0 -83.5 -29.5t-49.5 -80.5l-38 11q20 65 64.5 100t109.5 35q37 0 67.5 -11.5t53 -33t35 -51.5t12.5 -67q0 -39 -13 -69.5t-34 -55.5
t-47 -46t-51 -40q-29 -23 -54.5 -45t-44.5 -48.5t-30 -59t-11 -75.5h287z" />
    <glyph glyph-name="three" unicode="3" horiz-adv-x="474" 
d="M414 180q0 -42 -14.5 -77t-41 -60t-64.5 -38.5t-86 -13.5q-36 0 -75.5 7.5t-65.5 22.5l2 41q32 -17 67 -26t68 -9q78 0 120.5 40.5t42.5 112.5q0 58 -33.5 94t-118.5 40v40q70 8 98.5 40.5t28.5 84.5q0 57 -28.5 92t-88.5 35q-53 0 -83.5 -29t-47.5 -74l-38 11
q22 65 66 96.5t103 31.5q37 0 67 -11.5t51.5 -32.5t33 -50.5t11.5 -65.5q0 -58 -27.5 -93.5t-69.5 -50.5q53 -14 88 -51.5t35 -106.5z" />
    <glyph glyph-name="four" unicode="4" horiz-adv-x="471" 
d="M443 146h-95v-146h-38v146h-273l-15 28l262 465l34 -20l-245 -434h237v132h38v-132h95v-39z" />
    <glyph glyph-name="five" unicode="5" horiz-adv-x="454" 
d="M404 193q0 -96 -54 -149t-155 -53q-35 0 -67.5 6t-57.5 17l2 40q27 -12 59 -19.5t63 -7.5q78 0 120.5 42.5t42.5 127.5q0 39 -11 66t-33 44t-56.5 24.5t-95.5 7.5h-80v294h277v-39h-237v-219h43q53 0 94.5 -5.5t73.5 -24.5q33 -20 52.5 -58.5t19.5 -93.5z" />
    <glyph glyph-name="six" unicode="6" horiz-adv-x="502" 
d="M70 285q0 57 9 120t34.5 115.5t70 87t116.5 34.5q24 0 50 -4.5t49 -13.5l-1 -38q-16 7 -42 13.5t-55 6.5q-49 0 -82 -23.5t-53.5 -61t-31.5 -84t-15 -92.5q26 26 65 43t88 17q46 0 78.5 -15t53.5 -41.5t30.5 -62.5t9.5 -78q0 -47 -11.5 -86.5t-34.5 -68.5t-57.5 -45.5
t-80.5 -16.5q-58 0 -95 25.5t-58 67.5t-29 94.5t-8 106.5zM269 366q-47 0 -83.5 -18t-68.5 -49q0 -57 6 -106.5t22 -86.5t44.5 -58t73.5 -21q37 0 63 14.5t42 39.5t23.5 58t7.5 70q0 33 -6 61.5t-21 50t-40 33.5t-63 12z" />
    <glyph glyph-name="seven" unicode="7" horiz-adv-x="432" 
d="M384 605l-221 -605h-46l221 594h-290v39h326z" />
    <glyph glyph-name="eight" unicode="8" horiz-adv-x="504" 
d="M446 158q0 -78 -49 -122.5t-134 -44.5q-46 0 -80 13t-56.5 36.5t-33.5 55t-11 68.5q0 69 34.5 113t91.5 64q-22 12 -41.5 25.5t-34.5 31.5t-23.5 41t-8.5 54q0 37 12.5 64.5t34 46.5t50.5 28.5t62 9.5q38 0 67 -11.5t48.5 -31.5t29.5 -46.5t10 -57.5q0 -61 -31 -97.5
t-79 -56.5q30 -15 56 -31.5t45 -37.5t30 -49t11 -65zM373 493q0 22 -6 42.5t-19.5 36t-36 25t-55.5 9.5q-56 0 -84 -28t-28 -82q0 -26 7 -45t22 -34.5t38 -29.5t56 -30q58 26 82 58.5t24 77.5zM403 159q0 33 -11 56.5t-32 42t-50.5 34t-65.5 31.5q-64 -22 -91.5 -63
t-27.5 -96q0 -66 36.5 -101.5t102.5 -35.5q36 0 62 10t43.5 28t25.5 42t8 52z" />
    <glyph glyph-name="nine" unicode="9" horiz-adv-x="502" 
d="M432 348q0 -57 -9 -120t-34.5 -115.5t-70 -87t-116.5 -34.5q-24 0 -50 4.5t-49 13.5l1 38q16 -7 42 -13.5t55 -6.5q49 0 82 23.5t53.5 61t31 84t15.5 92.5q-26 -26 -65 -43t-88 -17q-46 0 -78.5 15t-53.5 41.5t-30.5 62.5t-9.5 78q0 46 11.5 86t34.5 69t57.5 45.5
t80.5 16.5q58 0 95 -25.5t58 -67.5t29 -94.5t8 -106.5zM233 267q47 0 83.5 18t68.5 49q0 57 -6 106.5t-22 86.5t-44.5 58t-73.5 21q-37 0 -63 -14.5t-42 -39.5t-23.5 -58t-7.5 -70q0 -33 6 -61.5t21 -50t40 -33.5t63 -12z" />
    <glyph glyph-name="dollar" unicode="$" horiz-adv-x="474" 
d="M229 -107v99h-6q-35 0 -75 7t-76 21l1 46q42 -19 80.5 -26.5t69.5 -7.5h6v273q-38 18 -67.5 34.5t-50 35.5t-31 43.5t-10.5 59.5q0 75 44 115.5t115 47.5v97h36v-97q32 -1 63.5 -7t57.5 -14l-1 -42q-29 10 -60 16.5t-60 7.5v-260q40 -19 70 -37t50.5 -39t30.5 -47t10 -59
q0 -74 -44.5 -116t-116.5 -51v-100h-36zM385 157q0 49 -31.5 77.5t-88.5 55.5v-256q52 8 86 37.5t34 85.5zM111 485q0 -24 7.5 -42.5t22.5 -33t37 -27.5t51 -26v246q-56 -5 -87 -35t-31 -82z" />
    <glyph glyph-name="cent" unicode="&#xa2;" horiz-adv-x="446" 
d="M263 593v-99q57 -5 92 -36t51 -85l-36 -10q-18 47 -40.5 68.5t-66.5 26.5v-428q33 1 64.5 12t59.5 30l-1 -42q-23 -14 -52 -25t-71 -13v-99h-36v100q-83 10 -128 74.5t-45 175.5q0 109 45.5 175.5t127.5 74.5v100h36zM96 245q0 -86 31 -144t100 -70v426
q-64 -9 -97.5 -64.5t-33.5 -147.5z" />
    <glyph glyph-name="Euro" unicode="&#x20ac;" horiz-adv-x="513" 
d="M20 369h78q9 136 67 204.5t148 68.5q63 0 99.5 -31.5t58.5 -90.5l-37 -11q-18 47 -46 71t-75 24q-32 0 -60.5 -12.5t-51 -40t-37.5 -72.5t-19 -110h196v-39h-197v-51h197v-39h-194q3 -43 13.5 -81t31 -66.5t53 -45t80.5 -16.5q32 0 68.5 8t71.5 28l-2 -42
q-65 -34 -141 -34q-57 0 -97.5 20t-67 53.5t-40.5 79t-18 96.5h-79v39h76v51h-76v39z" />
    <glyph glyph-name="florin" unicode="&#x192;" horiz-adv-x="410" 
d="M171 -56q-4 -34 -13 -63.5t-25.5 -51t-42.5 -34t-63 -12.5q-20 0 -37.5 3t-31.5 8l2 36q16 -5 32 -8.5t32 -3.5q30 0 49.5 9.5t31 27t17 42t9.5 54.5l38 303h-121v37h126l23 186q4 33 13 63t25.5 52.5t42 36t63.5 13.5q20 0 37.5 -3.5t31.5 -8.5l-2 -38q-15 5 -31.5 9
t-32.5 4q-31 0 -50 -10.5t-30.5 -28.5t-17 -43t-9.5 -53l-23 -179h137v-37h-142z" />
    <glyph glyph-name="sterling" unicode="&#xa3;" horiz-adv-x="461" 
d="M441 40l-8 -40h-364v36q44 26 68 64t24 83q0 23 -8 48t-27 63h-104v39h83q-16 31 -27.5 63.5t-11.5 74.5q0 40 13.5 71.5t37 53.5t56 34t71.5 12q75 0 117.5 -38.5t56.5 -109.5l-36 -6q-14 60 -46.5 88t-89.5 28q-66 0 -100.5 -36.5t-34.5 -95.5q0 -38 12.5 -70t32.5 -69
h200v-39h-180q14 -26 21.5 -52.5t7.5 -58.5q0 -43 -16 -78.5t-58 -64.5h310z" />
    <glyph glyph-name="yen" unicode="&#xa5;" horiz-adv-x="543" 
d="M103 152h147v51h-147v38h138l-191 392h49l173 -367l174 367h47l-191 -392h137v-38h-146v-51h146v-39h-146v-113h-43v113h-147v39z" />
    <glyph glyph-name="numbersign" unicode="#" horiz-adv-x="531" 
d="M460 218h-97v-218h-37v218h-121v-218h-37v218h-97v38h97v125h-97v38h97v214h37v-214h121v214h37v-214h97v-38h-97v-125h97v-38zM326 256v125h-121v-125h121z" />
    <glyph glyph-name="percent" unicode="%" horiz-adv-x="802" 
d="M215 303q43 0 69 39.5t26 116.5q0 78 -26 117.5t-69 39.5t-69 -39.5t-26 -117.5q0 -77 26 -116.5t69 -39.5zM215 271q-30 0 -54 14t-41.5 38.5t-27 59t-9.5 76.5t9.5 77t27 60t41.5 38.5t54 13.5t54 -13.5t41.5 -38.5t27 -60t9.5 -77t-9.5 -76.5t-27 -59t-41.5 -38.5
t-54 -14zM587 23q43 0 69 39.5t26 116.5q0 78 -26 117.5t-69 39.5t-69 -39.5t-26 -117.5q0 -77 26 -116.5t69 -39.5zM587 -9q-30 0 -54 14t-41.5 38.5t-27 59t-9.5 76.5t9.5 77t27 60t41.5 38.5t54 13.5t54 -13.5t41.5 -38.5t27 -60t9.5 -77t-9.5 -76.5t-27 -59t-41.5 -38.5
t-54 -14zM527 642l-218 -651h-37l218 651h37z" />
    <glyph glyph-name="perthousand" unicode="&#x2030;" horiz-adv-x="1115" 
d="M527 642l-218 -650h-37l218 650h37zM587 23q43 0 69 39.5t26 116.5q0 78 -26 117.5t-69 39.5t-69 -39.5t-26 -117.5q0 -77 26 -116.5t69 -39.5zM587 -9q-30 0 -54 14t-41.5 38.5t-27 59t-9.5 76.5t9.5 77t27 60t41.5 38.5t54 13.5t54 -13.5t41.5 -38.5t27 -60t9.5 -77
t-9.5 -76.5t-27 -59t-41.5 -38.5t-54 -14zM900 23q43 0 69 39.5t26 116.5q0 78 -26 117.5t-69 39.5t-69 -39.5t-26 -117.5q0 -77 26 -116.5t69 -39.5zM900 -9q-30 0 -54 14t-41.5 38.5t-27 59t-9.5 76.5t9.5 77t27 60t41.5 38.5t54 13.5t54 -13.5t41.5 -38.5t27 -60t9.5 -77
t-9.5 -76.5t-27 -59t-41.5 -38.5t-54 -14zM215 303q43 0 69 39.5t26 116.5q0 78 -26 117.5t-69 39.5t-69 -39.5t-26 -117.5q0 -77 26 -116.5t69 -39.5zM215 271q-30 0 -54 14t-41.5 38.5t-27 59t-9.5 76.5t9.5 77t27 60t41.5 38.5t54 13.5t54 -13.5t41.5 -38.5t27 -60
t9.5 -77t-9.5 -76.5t-27 -59t-41.5 -38.5t-54 -14z" />
    <glyph glyph-name="plus" unicode="+" 
d="M387 304h-124v-129h-31v129h-124v32h124v129h31v-129h124v-32z" />
    <glyph glyph-name="minus" unicode="&#x2212;" 
d="M387 336v-32h-279v32h279z" />
    <glyph glyph-name="multiply" unicode="&#xd7;" 
d="M223 323l-89 89l25 24l88 -88l90 88l25 -24l-90 -89l90 -90l-25 -25l-90 90l-88 -90l-25 25z" />
    <glyph glyph-name="less" unicode="&#x3c;" 
d="M387 230v-41l-279 112v38l279 114v-41l-227 -92z" />
    <glyph glyph-name="divide" unicode="&#xf7;" 
d="M387 336v-32h-279v32h279zM210 203q0 16 11 27t27 11t27 -11t11 -27t-11 -27t-27 -11t-27 11t-11 27zM210 437q0 16 11 27t27 11t27 -11t11 -27t-11 -27t-27 -11t-27 11t-11 27z" />
    <glyph glyph-name="equal" unicode="=" 
d="M387 411v-32h-279v32h279zM387 261v-32h-279v32h279z" />
    <glyph glyph-name="logicalnot" unicode="&#xac;" 
d="M387 221h-31v166h-248v32h279v-198z" />
    <glyph glyph-name="greater" unicode="&#x3e;" 
d="M335 320l-227 92v41l279 -114v-38l-279 -112v41z" />
    <glyph glyph-name="notequal" unicode="&#x2260;" 
d="M258 411l30 88h34l-30 -88h95v-32h-105l-38 -118h143v-32h-152l-28 -87h-34l28 87h-93v32h102l38 118h-140v32h150z" />
    <glyph glyph-name="approxequal" unicode="&#x2248;" 
d="M301 346q-18 0 -31.5 7.5t-26 17t-25 17t-28.5 7.5q-18 0 -35.5 -12.5t-33.5 -35.5l-12 8q16 41 38.5 60t47.5 19q18 0 32 -8t27 -17t25.5 -17t27.5 -8q17 0 34.5 12t32.5 35l12 -8q-17 -44 -40 -60.5t-45 -16.5zM301 213q-18 0 -31.5 7.5t-26 17t-25 17t-28.5 7.5
q-18 0 -35.5 -12.5t-33.5 -35.5l-12 8q16 41 38.5 60t47.5 19q18 0 32 -8t27 -17t25.5 -17t27.5 -8q17 0 34.5 12t32.5 35l12 -8q-17 -44 -40 -60.5t-45 -16.5z" />
    <glyph glyph-name="plusminus" unicode="&#xb1;" 
d="M387 302h-124v-129h-31v129h-124v32h124v129h31v-129h124v-32zM387 32v-32h-279v32h279z" />
    <glyph glyph-name="lessequal" unicode="&#x2264;" 
d="M387 228v-41l-279 112v38l279 114v-41l-227 -92zM387 32v-32h-279v32h279z" />
    <glyph glyph-name="greaterequal" unicode="&#x2265;" 
d="M335 318l-227 92v41l279 -114v-38l-279 -112v41zM387 32v-32h-279v32h279z" />
    <glyph glyph-name="asciicircum" unicode="^" 
d="M250 642q8 0 11.5 -3t8.5 -11l120 -196h-40l-103 172l-102 -172h-40l120 196q5 8 8.5 11t11.5 3h5z" />
    <glyph glyph-name="asciitilde" unicode="~" 
d="M324 188q-26 0 -46 11.5t-38 26t-35.5 26t-38.5 11.5q-30 0 -50.5 -17t-42.5 -53l-16 10q19 56 49 83.5t67 27.5q27 0 47.5 -11.5t39 -26t36 -26t38.5 -11.5q27 0 48.5 20.5t39.5 49.5l16 -11q-19 -56 -49 -83t-65 -27z" />
    <glyph glyph-name="lozenge" unicode="&#x25ca;" horiz-adv-x="598" 
d="M498 316l-199 249l-199 -249l199 -250zM47 316l252 311l252 -311l-252 -311z" />
    <glyph glyph-name="degree" unicode="&#xb0;" horiz-adv-x="451" 
d="M226 359q27 0 47 10t33 27t19 39.5t6 48.5q0 25 -6 47.5t-19 39.5t-33 27t-47 10t-47 -10t-33 -27t-19.5 -39.5t-6.5 -47.5q0 -26 6.5 -48.5t19.5 -39.5t33 -27t47 -10zM226 326q-32 0 -58.5 12t-46 33t-30.5 50t-11 63t11 63t30.5 50t46 33t58.5 12q31 0 58 -12t46 -33
t30 -50t11 -63t-11 -63t-30 -50t-46 -33t-58 -12z" />
    <glyph glyph-name="quotesingle" unicode="'" horiz-adv-x="201" 
d="M92 439q-6 45 -10 81q-4 31 -7 57.5t-3 30.5q0 18 8 26t20 8q13 0 21 -8t8 -26q0 -3 -0.5 -9t-3 -23t-6.5 -49l-11 -88h-16z" />
    <glyph glyph-name="quotedbl" unicode="&#x22;" horiz-adv-x="318" 
d="M92 439q-6 45 -10 81q-4 31 -7 57.5t-3 30.5q0 18 8 26t20 8q13 0 21 -8t8 -26q0 -3 -0.5 -9t-3 -23t-6.5 -49l-11 -88h-16zM209 439q-6 45 -10 81q-4 31 -7 57.5t-3 30.5q0 18 8 26t20 8q13 0 21 -8t8 -26q0 -3 -0.5 -9t-3 -23t-6.5 -49l-11 -88h-16z" />
    <glyph glyph-name="radical" unicode="&#x221a;" horiz-adv-x="530" 
d="M508 673h-44l-221 -673h-53l-116 358h-49v38h82l111 -344l217 661h73v-40z" />
    <glyph glyph-name="currency" unicode="&#xa4;" horiz-adv-x="537" 
d="M412 317q0 -31 -6.5 -59.5t-20.5 -52.5l72 -94h-44l-50 66q-17 -18 -41 -29t-54 -11q-29 0 -53.5 11t-41.5 29l-49 -66h-44l72 94q-15 24 -21 52.5t-6 59.5q0 30 6 58.5t21 52.5l-71 95h43l49 -67q17 18 41 29.5t54 11.5q31 0 55 -11t40 -29l50 66h43l-71 -95
q14 -24 20.5 -52.5t6.5 -58.5zM165 317q0 -75 28 -108.5t75 -33.5q48 0 76 33.5t28 108.5t-28 108.5t-76 33.5q-47 0 -75 -33.5t-28 -108.5z" />
    <glyph glyph-name="infinity" unicode="&#x221e;" horiz-adv-x="711" 
d="M639 310q0 -34 -8 -63.5t-24 -51.5t-41 -35t-58 -13q-26 0 -46.5 8t-38.5 24t-34.5 38.5t-34.5 51.5q-16 -27 -32 -49.5t-34 -39.5t-39.5 -26.5t-47.5 -9.5q-31 0 -55 13t-40.5 35.5t-25 53t-8.5 65.5t8.5 65.5t25.5 52.5t42 34.5t58 12.5q25 0 45 -7.5t38 -22.5t35 -37
t35 -50q15 25 31 46t34 37t39.5 25t47.5 9q30 0 54 -12.5t40.5 -34.5t25 -52.5t8.5 -66.5zM612 313q0 57 -25.5 88.5t-71.5 31.5q-42 0 -71 -28.5t-61 -87.5q19 -34 35 -58t31 -39t31 -22t36 -7q42 0 69 31t27 91zM192 188q24 0 44 11t36 29t29.5 40.5t25.5 45.5
q-15 26 -28.5 48t-28.5 37.5t-33 24.5t-42 9q-26 0 -44 -10t-29 -27t-16.5 -39t-5.5 -47q0 -56 24.5 -89t67.5 -33z" />
    <glyph glyph-name="mu" unicode="&#x3bc;" horiz-adv-x="530" 
d="M86 -217v702h39v-328q0 -71 32.5 -99.5t88.5 -28.5q39 0 68.5 11.5t49.5 32t30 48t10 59.5v305h39v-415q0 -20 6.5 -29t23.5 -9q13 0 27 7l-2 -36q-12 -6 -32 -6q-27 0 -44.5 16t-17.5 51v4q-18 -29 -57 -53t-95 -24q-42 0 -75.5 10.5t-51.5 36.5v-255h-39z" />
    <glyph glyph-name="uni00B5" unicode="&#xb5;" horiz-adv-x="530" 
d="M86 -217v702h39v-328q0 -71 32.5 -99.5t88.5 -28.5q39 0 68.5 11.5t49.5 32t30 48t10 59.5v305h39v-415q0 -20 6.5 -29t23.5 -9q13 0 27 7l-2 -36q-12 -6 -32 -6q-27 0 -44.5 16t-17.5 51v4q-18 -29 -57 -53t-95 -24q-42 0 -75.5 10.5t-51.5 36.5v-255h-39z" />
    <glyph glyph-name="partialdiff" unicode="&#x2202;" horiz-adv-x="530" 
d="M466 291q0 -66 -11.5 -121t-36 -94.5t-64 -62t-94.5 -22.5q-45 0 -79.5 14.5t-58.5 41t-36 63t-12 80.5q0 52 15.5 89.5t42 62.5t63 37t78.5 12q46 0 83 -11.5t64 -25.5q-5 77 -25 128t-54 83q-22 21 -49.5 31t-65.5 10q-24 0 -51 -3.5t-53 -9.5v35q54 14 105 14
q43 0 79 -12t65 -38q42 -40 68.5 -116t26.5 -185zM422 315q-31 18 -68 28.5t-75 10.5q-78 0 -120 -44t-42 -119q0 -35 9 -64.5t27 -51t44.5 -34t61.5 -12.5q43 0 74 19t50.5 53.5t29 84t9.5 109.5v20z" />
    <glyph glyph-name="summation" unicode="&#x2211;" horiz-adv-x="531" 
d="M509 -186l-8 -40h-435v40l283 410l-287 369v40h400v-39h-335l281 -365l-286 -415h387z" />
    <glyph glyph-name="product" unicode="&#x220f;" horiz-adv-x="634" 
d="M592 594h-106v-811h-43v811h-252v-811h-43v811h-106v39h550v-39z" />
    <glyph glyph-name="pi" unicode="&#x3c0;" horiz-adv-x="571" 
d="M505 450h-79v-450h-39v450h-203v-450h-39v450h-79v35h439v-35z" />
    <glyph glyph-name="integral" unicode="&#x222b;" horiz-adv-x="531" 
d="M104 -173q18 -5 36 -7t31 -2q39 0 57 20.5t18 73.5v656q0 69 30 97t81 28q17 0 35.5 -2.5t34.5 -7.5v-35q-18 5 -36 7t-31 2q-39 0 -57 -20.5t-18 -73.5v-656q0 -69 -30 -97t-81 -28q-17 0 -35 2.5t-35 7.5v35z" />
    <glyph glyph-name="Omega" unicode="&#x3a9;" horiz-adv-x="700" 
d="M350 602q-48 0 -85.5 -18t-63.5 -52t-39.5 -81.5t-13.5 -106.5q0 -62 14 -110t37.5 -85.5t53.5 -66t62 -50.5v-32h-192v40h129q-26 17 -53 44.5t-49 66t-36 87.5t-14 110q0 64 18 118t50.5 93t78.5 61t103 22t103 -22t78.5 -61t50.5 -93t18 -118q0 -59 -14 -108
t-36 -87.5t-49 -66.5t-53 -46h129v-40h-193v32q32 22 62 50.5t53.5 66t38 85.5t14.5 110q0 59 -14 106.5t-40 81.5t-63.5 52t-84.5 18z" />
    <glyph glyph-name="Ohm" unicode="&#x2126;" horiz-adv-x="700" 
d="M350 602q-48 0 -85.5 -18t-63.5 -52t-39.5 -81.5t-13.5 -106.5q0 -62 14 -110t37.5 -85.5t53.5 -66t62 -50.5v-32h-192v40h129q-26 17 -53 44.5t-49 66t-36 87.5t-14 110q0 64 18 118t50.5 93t78.5 61t103 22t103 -22t78.5 -61t50.5 -93t18 -118q0 -59 -14 -108
t-36 -87.5t-49 -66.5t-53 -46h129v-40h-193v32q32 22 62 50.5t53.5 66t38 85.5t14.5 110q0 59 -14 106.5t-40 81.5t-63.5 52t-84.5 18z" />
    <glyph glyph-name="uni0394" unicode="&#x394;" horiz-adv-x="574" 
d="M524 0h-474v34l212 599h51l211 -599v-34zM478 40l-192 546l-191 -546h383z" />
    <glyph glyph-name="Delta" unicode="&#x2206;" horiz-adv-x="574" 
d="M524 0h-474v34l212 599h51l211 -599v-34zM478 40l-192 546l-191 -546h383z" />
    <glyph glyph-name="litre" unicode="&#x2113;" horiz-adv-x="210" 
d="M178 3q-12 -6 -31 -6q-28 0 -45.5 15.5t-17.5 47.5v621h39v-611q0 -20 6.5 -29t23.5 -9q13 0 27 7z" />
    <glyph glyph-name="estimated" unicode="&#x212e;" horiz-adv-x="823" 
d="M189 305v-177q0 -8 7 -18v1q41 -42 97 -67.5t120 -25.5q69 0 127.5 28.5t100.5 77.5h63q-52 -61 -128 -97t-164 -36q-75 0 -140.5 25.5t-115 69.5t-78 103t-28.5 127t28.5 127.5t78 103.5t115 69.5t140.5 25.5t140.5 -25.5t114.5 -69.5t77.5 -103.5t28.5 -127.5v-11h-584
zM634 508q0 10 -8 18q-42 41 -96.5 65t-116.5 24q-64 0 -119 -25t-97 -67q-8 -8 -8 -19v-174h445v178z" />
    <glyph glyph-name="numero" unicode="&#x2116;" horiz-adv-x="932" 
d="M765 243q46 0 75.5 37.5t29.5 115.5q0 79 -29.5 116.5t-75.5 37.5t-75.5 -37.5t-29.5 -116.5q0 -78 29.5 -115.5t75.5 -37.5zM765 208q-64 0 -105.5 49t-41.5 140q0 90 41.5 139.5t105.5 49.5t105.5 -49.5t41.5 -139.5q0 -91 -41.5 -140t-105.5 -49zM527 4h-33l-361 552
v-552h-41v633h34l360 -551v551h41v-633z" />
    <glyph glyph-name="fraction" unicode="&#x2044;" horiz-adv-x="233" 
d="M244 642l-218 -651h-37l218 651h37z" />
    <glyph glyph-name="onesuperior" unicode="&#xb9;" horiz-adv-x="368" 
d="M273 249h-158v35h64v314l-66 -38l-18 31l91 51h30v-358h57v-35z" />
    <glyph glyph-name="twosuperior" unicode="&#xb2;" horiz-adv-x="368" 
d="M299 285l-5 -36h-207v21q0 42 12.5 71.5t31.5 50.5t41 37t41 32t31.5 34.5t12.5 44.5q0 35 -19.5 52.5t-51.5 17.5q-27 0 -45.5 -14.5t-30.5 -52.5l-35 10q25 95 114 95q53 0 80 -30.5t27 -75.5q0 -30 -12.5 -52.5t-31.5 -40.5t-41 -34.5t-41 -35t-31.5 -41t-12.5 -53.5
h173z" />
    <glyph glyph-name="threesuperior" unicode="&#xb3;" horiz-adv-x="368" 
d="M310 365q0 -51 -34 -84t-100 -33q-25 0 -50 6t-43 16l2 40q51 -26 94 -26q45 0 68.5 23t23.5 58t-24.5 54t-70.5 21v38q44 2 60.5 23.5t16.5 46.5q0 28 -16.5 45t-49.5 17q-28 0 -46 -14.5t-30 -48.5l-35 10q14 48 44.5 69.5t67.5 21.5q50 0 77.5 -29.5t27.5 -73.5
q0 -29 -15 -52.5t-45 -30.5q40 -8 58.5 -34t18.5 -63z" />
    <glyph glyph-name="onehalf" unicode="&#xbd;" horiz-adv-x="781" 
d="M530 642l-218 -651h-37l218 651h37zM273 249h-158v35h64v314l-66 -38l-18 31l91 51h30v-358h57v-35zM712 36l-5 -36h-207v21q0 42 12.5 71.5t31.5 50.5t41 37t41 32t31.5 34.5t12.5 44.5q0 35 -19.5 52.5t-51.5 17.5q-27 0 -45.5 -14.5t-30.5 -52.5l-35 10q25 95 114 95
q53 0 80 -30.5t27 -75.5q0 -30 -12.5 -52.5t-31.5 -40.5t-41 -34.5t-41 -35t-31.5 -41t-12.5 -53.5h173z" />
    <glyph glyph-name="onequarter" unicode="&#xbc;" horiz-adv-x="781" 
d="M713 84h-53v-84h-36v84h-170l-18 24l163 293l32 -17l-147 -266h140v78h36v-78h53v-34zM530 642l-218 -651h-37l218 651h37zM273 249h-158v35h64v314l-66 -38l-18 31l91 51h30v-358h57v-35z" />
    <glyph glyph-name="threequarters" unicode="&#xbe;" horiz-adv-x="781" 
d="M713 84h-53v-84h-36v84h-170l-18 24l163 293l32 -17l-147 -266h140v78h36v-78h53v-34zM530 642l-218 -651h-37l218 651h37zM310 373q0 -51 -34 -84t-100 -33q-25 0 -50 6t-43 16l2 40q51 -26 94 -26q45 0 68.5 23t23.5 58t-24.5 54t-70.5 21v38q44 2 60.5 23.5t16.5 46.5
q0 28 -16.5 45t-49.5 17q-28 0 -46 -14.5t-30 -48.5l-35 10q14 48 44.5 69.5t67.5 21.5q50 0 77.5 -29.5t27.5 -73.5q0 -29 -15 -52.5t-45 -30.5q40 -8 58.5 -34t18.5 -63z" />
    <glyph glyph-name="grave" unicode="`" horiz-adv-x="254" 
d="M209 544q-38 29 -63.5 40.5t-51.5 11.5q-19 0 -39 -5q-10 13 -10 27q0 15 11 25.5t30 10.5q16 0 34 -8.5t36 -22t34 -31.5t28 -36z" />
    <glyph glyph-name="acute" unicode="&#xb4;" horiz-adv-x="254" 
d="M47 556q12 18 28 36t34 31.5t36 22t34 8.5q19 0 30 -10.5t11 -25.5q0 -14 -10 -27q-20 5 -39 5q-26 0 -51.5 -11.5t-63.5 -40.5z" />
    <glyph glyph-name="dieresis" unicode="&#xa8;" horiz-adv-x="254" 
d="M97 609q0 -20 -11.5 -30.5t-28.5 -10.5t-28 10.5t-11 30.5t11 31t28 11t28.5 -11t11.5 -31zM242 609q0 -20 -11.5 -30.5t-28.5 -10.5t-28 10.5t-11 30.5t11 31t28 11t28.5 -11t11.5 -31z" />
    <glyph glyph-name="circumflex" unicode="&#x2c6;" horiz-adv-x="254" 
d="M132 623l-62 -76h-45l80 97q5 7 11 10.5t15 3.5h8q11 0 16 -3t11 -11l80 -97h-46l-62 76h-6z" />
    <glyph glyph-name="tilde" unicode="&#x2dc;" horiz-adv-x="254" 
d="M182 603q13 0 22 8.5t17 29.5h17q-5 -35 -20.5 -57t-41.5 -22q-15 0 -27 6t-23.5 12.5t-23.5 12.5t-26 6q-13 0 -22 -8t-17 -29h-16q5 35 20.5 57t41.5 22q13 0 24.5 -6t23 -13t24 -13t27.5 -6z" />
    <glyph glyph-name="macron" unicode="&#xaf;" horiz-adv-x="254" 
d="M227 610h-193v41h193v-41z" />
    <glyph glyph-name="breve" unicode="&#x2d8;" horiz-adv-x="254" 
d="M130 546q-38 0 -65.5 25.5t-31.5 75.5h23q8 -29 24.5 -43.5t49.5 -14.5q34 0 50 14.5t24 43.5h23q-4 -50 -31 -75.5t-66 -25.5z" />
    <glyph glyph-name="dotaccent" unicode="&#x2d9;" horiz-adv-x="254" 
d="M175 609q0 -22 -13 -33.5t-31 -11.5q-17 0 -30 11.5t-13 33.5q0 23 13 34.5t30 11.5q18 0 31 -11.5t13 -34.5z" />
    <glyph glyph-name="ring" unicode="&#x2da;" horiz-adv-x="254" 
d="M130 573q20 0 31.5 13t11.5 33q0 21 -11.5 34t-31.5 13t-31.5 -12.5t-11.5 -34.5q0 -21 11.5 -33.5t31.5 -12.5zM130 543q-30 0 -53 21t-23 55q0 35 23 55.5t53 20.5q31 0 53.5 -21t22.5 -55q0 -33 -22.5 -54.5t-53.5 -21.5z" />
    <glyph glyph-name="cedilla" unicode="&#xb8;" horiz-adv-x="254" 
d="M126 15q-12 -15 -18.5 -24.5t-6.5 -16.5t5.5 -10.5t20.5 -7.5t27 -7.5t21 -9.5t14 -14.5t5 -21.5q0 -28 -28 -45t-79 -17l-5 23q14 0 28 2t25 5.5t18 9t7 13.5q0 10 -12.5 16t-38.5 13q-15 4 -28 12t-13 25q0 14 9 28.5t24 32.5z" />
    <glyph glyph-name="hungarumlaut" unicode="&#x2dd;" horiz-adv-x="254" 
d="M-16 556q21 41 46.5 69.5t59.5 28.5q21 0 30.5 -11t9.5 -25q0 -16 -11 -29q-12 7 -32 7t-40.5 -11.5t-49.5 -40.5zM129 556q21 41 46.5 69.5t59.5 28.5q21 0 30.5 -11t9.5 -25q0 -16 -11 -29q-12 7 -32 7t-40.5 -11.5t-49.5 -40.5z" />
    <glyph glyph-name="ogonek" unicode="&#x2db;" horiz-adv-x="254" 
d="M191 -167q-59 5 -91 29.5t-32 67.5q0 32 18.5 54.5t51.5 43.5l17 -23q-26 -18 -36 -35t-10 -39q0 -35 23.5 -53t67.5 -24z" />
    <glyph glyph-name="caron" unicode="&#x2c7;" horiz-adv-x="254" 
d="M139 582l62 76h45l-80 -97q-5 -7 -11 -10.5t-15 -3.5h-8q-11 0 -16 3t-11 11l-80 97h46l62 -76h6z" />
    <glyph glyph-name="commaaccent" unicode="&#xf6c3;" horiz-adv-x="254" 
d="M172 -89q0 -26 -16.5 -58.5t-51.5 -58.5l-12 14q17 16 29 36.5t14 40.5q-17 4 -26 15t-9 24q0 17 9.5 26.5t24.5 9.5t26.5 -11.5t11.5 -37.5z" />
    <glyph glyph-name="Agrave" unicode="&#xc0;" horiz-adv-x="562" 
d="M419 156h-284l-53 -156h-46l219 633h29l242 -633h-48zM149 196h255l-135 355zM347 684q-38 29 -63.5 40.5t-51.5 11.5q-19 0 -39 -5q-10 13 -10 27q0 15 11 25.5t30 10.5q16 0 34 -8.5t36 -22t34 -31.5t28 -36z" />
    <glyph glyph-name="Aacute" unicode="&#xc1;" horiz-adv-x="562" 
d="M419 156h-284l-53 -156h-46l219 633h29l242 -633h-48zM149 196h255l-135 355zM184 696q12 18 28 36t34 31.5t36 22t34 8.5q19 0 30 -10.5t11 -25.5q0 -14 -10 -27q-20 5 -39 5q-26 0 -51.5 -11.5t-63.5 -40.5z" />
    <glyph glyph-name="Acircumflex" unicode="&#xc2;" horiz-adv-x="562" 
d="M419 156h-284l-53 -156h-46l219 633h29l242 -633h-48zM149 196h255l-135 355zM270 764l-62 -76h-45l80 97q5 7 11 10.5t15 3.5h8q11 0 16 -3t11 -11l80 -97h-46l-62 76h-6z" />
    <glyph glyph-name="Atilde" unicode="&#xc3;" horiz-adv-x="562" 
d="M419 156h-284l-53 -156h-46l219 633h29l242 -633h-48zM149 196h255l-135 355zM321 748q13 0 22 8.5t17 29.5h17q-5 -35 -20.5 -57t-41.5 -22q-15 0 -27 6t-23.5 12.5t-23.5 12.5t-26 6q-13 0 -22 -8t-17 -29h-16q5 35 20.5 57t41.5 22q13 0 24.5 -6t23 -13t24 -13
t27.5 -6z" />
    <glyph glyph-name="Adieresis" unicode="&#xc4;" horiz-adv-x="562" 
d="M419 156h-284l-53 -156h-46l219 633h29l242 -633h-48zM149 196h255l-135 355zM236 746q0 -20 -11.5 -30.5t-28.5 -10.5t-28 10.5t-11 30.5t11 31t28 11t28.5 -11t11.5 -31zM381 746q0 -20 -11.5 -30.5t-28.5 -10.5t-28 10.5t-11 30.5t11 31t28 11t28.5 -11t11.5 -31z" />
    <glyph glyph-name="Amacron" unicode="&#x100;" horiz-adv-x="562" 
d="M419 156h-284l-53 -156h-46l219 633h29l242 -633h-48zM149 196h255l-135 355zM366 714h-193v41h193v-41z" />
    <glyph glyph-name="Abreve" unicode="&#x102;" horiz-adv-x="562" 
d="M419 156h-284l-53 -156h-46l219 633h29l242 -633h-48zM149 196h255l-135 355zM269 682q-38 0 -65.5 25.5t-31.5 75.5h23q8 -29 24.5 -43.5t49.5 -14.5q34 0 50 14.5t24 43.5h23q-4 -50 -31 -75.5t-66 -25.5z" />
    <glyph glyph-name="Acaron" unicode="&#x1cd;" horiz-adv-x="562" 
d="M419 156h-284l-53 -156h-46l219 633h29l242 -633h-48zM149 196h255l-135 355zM277 723l62 76h45l-80 -97q-5 -7 -11 -10.5t-15 -3.5h-8q-11 0 -16 3t-11 11l-80 97h46l62 -76h6z" />
    <glyph glyph-name="Aring" unicode="&#xc5;" horiz-adv-x="562" 
d="M419 156h-284l-53 -156h-46l219 633h29l242 -633h-48zM149 196h255l-135 355zM269 715q20 0 31.5 13t11.5 33q0 21 -11.5 34t-31.5 13t-31.5 -12.5t-11.5 -34.5q0 -21 11.5 -33.5t31.5 -12.5zM269 685q-30 0 -53 21t-23 55q0 35 23 55.5t53 20.5q31 0 53.5 -21t22.5 -55
q0 -33 -22.5 -54.5t-53.5 -21.5z" />
    <glyph glyph-name="Aringacute" unicode="&#x1fa;" horiz-adv-x="562" 
d="M419 156h-284l-53 -156h-46l219 633h29l242 -633h-48zM149 196h255l-135 355zM269 715q20 0 31.5 13t11.5 33q0 21 -11.5 34t-31.5 13t-31.5 -12.5t-11.5 -34.5q0 -21 11.5 -33.5t31.5 -12.5zM269 685q-30 0 -53 21t-23 55q0 35 23 55.5t53 20.5q31 0 53.5 -21t22.5 -55
q0 -33 -22.5 -54.5t-53.5 -21.5zM184 867q12 18 28 36t34 31.5t36 22t34 8.5q19 0 30 -10.5t11 -25.5q0 -14 -10 -27q-20 5 -39 5q-26 0 -51.5 -11.5t-63.5 -40.5z" />
    <glyph glyph-name="Aogonek" unicode="&#x104;" horiz-adv-x="562" 
d="M533 -167q-61 5 -92 31.5t-31 68.5q0 32 17.5 55t43.5 31l-52 137h-284l-53 -156h-46l219 633h29l242 -633h-18q-27 0 -42 -17.5t-15 -48.5q0 -35 21.5 -54t69.5 -26zM149 196h255l-135 355z" />
    <glyph glyph-name="AE" unicode="&#xc6;" horiz-adv-x="813" 
d="M761 40l-8 -40h-343v156h-245l-89 -156h-50l366 633h346v-39h-285v-252h232v-39h-232v-263h308zM187 196h223v389z" />
    <glyph glyph-name="AEacute" unicode="&#x1fc;" horiz-adv-x="813" 
d="M761 40l-8 -40h-343v156h-245l-89 -156h-50l366 633h346v-39h-285v-252h232v-39h-232v-263h308zM187 196h223v389zM500 696q12 18 28 36t34 31.5t36 22t34 8.5q19 0 30 -10.5t11 -25.5q0 -14 -10 -27q-20 5 -39 5q-26 0 -51.5 -11.5t-63.5 -40.5z" />
    <glyph glyph-name="Cacute" unicode="&#x106;" horiz-adv-x="524" 
d="M435 510q-17 50 -48 71.5t-88 21.5q-97 0 -144 -72t-47 -224q0 -56 8 -106t30 -87.5t62 -60t104 -22.5q35 0 74 8.5t78 28.5l-2 -43q-30 -16 -67 -25t-82 -9q-74 0 -123 26t-78 70t-40.5 102t-11.5 123q0 158 60 244t179 86q66 0 111 -29t62 -93zM203 696q12 18 28 36
t34 31.5t36 22t34 8.5q19 0 30 -10.5t11 -25.5q0 -14 -10 -27q-20 5 -39 5q-26 0 -51.5 -11.5t-63.5 -40.5z" />
    <glyph glyph-name="Ccedilla" unicode="&#xc7;" horiz-adv-x="524" 
d="M435 510q-17 50 -48 71.5t-88 21.5q-97 0 -144 -72t-47 -224q0 -56 8 -106t30 -87.5t62 -60t104 -22.5q35 0 74 8.5t78 28.5l-2 -43q-30 -16 -67 -25t-82 -9h-17q-5 -2 -9.5 -7t-4.5 -10q0 -7 5.5 -10.5t20.5 -7.5t27 -7.5t21 -9.5t14 -14.5t5 -21.5q0 -28 -28 -45
t-79 -17l-5 23q14 0 28 2t25 5.5t18 9t7 13.5q0 10 -12.5 16t-38.5 13q-15 4 -28 12t-13 25q0 8 4 18t9 17q-58 9 -97 38t-62 71t-33 95t-10 112q0 158 60 244.5t179 86.5q66 0 111 -29t62 -93z" />
    <glyph glyph-name="Ccircumflex" unicode="&#x108;" horiz-adv-x="524" 
d="M435 510q-17 50 -48 71.5t-88 21.5q-97 0 -144 -72t-47 -224q0 -56 8 -106t30 -87.5t62 -60t104 -22.5q35 0 74 8.5t78 28.5l-2 -43q-30 -16 -67 -25t-82 -9q-74 0 -123 26t-78 70t-40.5 102t-11.5 123q0 158 60 244t179 86q66 0 111 -29t62 -93zM296 764l-62 -76h-45
l80 97q5 7 11 10.5t15 3.5h8q11 0 16 -3t11 -11l80 -97h-46l-62 76h-6z" />
    <glyph glyph-name="Ccaron" unicode="&#x10c;" horiz-adv-x="524" 
d="M435 510q-17 50 -48 71.5t-88 21.5q-97 0 -144 -72t-47 -224q0 -56 8 -106t30 -87.5t62 -60t104 -22.5q35 0 74 8.5t78 28.5l-2 -43q-30 -16 -67 -25t-82 -9q-74 0 -123 26t-78 70t-40.5 102t-11.5 123q0 158 60 244t179 86q66 0 111 -29t62 -93zM302 723l62 76h45
l-80 -97q-5 -7 -11 -10.5t-15 -3.5h-8q-11 0 -16 3t-11 11l-80 97h46l62 -76h6z" />
    <glyph glyph-name="Cdotaccent" unicode="&#x10a;" horiz-adv-x="524" 
d="M435 510q-17 50 -48 71.5t-88 21.5q-97 0 -144 -72t-47 -224q0 -56 8 -106t30 -87.5t62 -60t104 -22.5q35 0 74 8.5t78 28.5l-2 -43q-30 -16 -67 -25t-82 -9q-74 0 -123 26t-78 70t-40.5 102t-11.5 123q0 158 60 244t179 86q66 0 111 -29t62 -93zM338 751
q0 -22 -13 -33.5t-31 -11.5q-17 0 -30 11.5t-13 33.5q0 23 13 34.5t30 11.5q18 0 31 -11.5t13 -34.5z" />
    <glyph glyph-name="Dcaron" unicode="&#x10e;" horiz-adv-x="595" 
d="M535 316q0 -80 -15.5 -139t-49.5 -98.5t-89.5 -59t-134.5 -19.5h-154v633h114q79 0 140 -12.5t103 -47t64 -96.5t22 -161zM488 316q0 87 -18 141.5t-53 85t-86 41t-117 10.5h-79v-554h111q69 0 115.5 17.5t74.5 52.5t40 86.5t12 119.5zM293 723l62 76h45l-80 -97
q-5 -7 -11 -10.5t-15 -3.5h-8q-11 0 -16 3t-11 11l-80 97h46l62 -76h6z" />
    <glyph glyph-name="Dcroat" unicode="&#x110;" horiz-adv-x="604" 
d="M30 334h71v299h114q78 0 139.5 -12.5t103.5 -47t64 -96.5t22 -161q0 -80 -15.5 -139t-49.5 -98.5t-89.5 -59t-134.5 -19.5h-154v296h-71v38zM497 316q0 87 -18 141.5t-53 84.5t-86 40.5t-117 10.5h-79v-259h113v-38h-113v-256h111q69 0 115 17.5t74.5 52.5t40.5 86.5
t12 119.5z" />
    <glyph glyph-name="Eth" unicode="&#xd0;" horiz-adv-x="604" 
d="M30 334h71v299h114q78 0 139.5 -12.5t103.5 -47t64 -96.5t22 -161q0 -80 -15.5 -139t-49.5 -98.5t-89.5 -59t-134.5 -19.5h-154v296h-71v38zM497 316q0 87 -18 141.5t-53 84.5t-86 40.5t-117 10.5h-79v-259h113v-38h-113v-256h111q69 0 115 17.5t74.5 52.5t40.5 86.5
t12 119.5z" />
    <glyph glyph-name="Egrave" unicode="&#xc8;" 
d="M443 40l-8 -40h-343v633h328v-39h-285v-252h232v-39h-232v-263h308zM328 684q-38 29 -63.5 40.5t-51.5 11.5q-19 0 -39 -5q-10 13 -10 27q0 15 11 25.5t30 10.5q16 0 34 -8.5t36 -22t34 -31.5t28 -36z" />
    <glyph glyph-name="Eacute" unicode="&#xc9;" 
d="M443 40l-8 -40h-343v633h328v-39h-285v-252h232v-39h-232v-263h308zM186 696q12 18 28 36t34 31.5t36 22t34 8.5q19 0 30 -10.5t11 -25.5q0 -14 -10 -27q-20 5 -39 5q-26 0 -51.5 -11.5t-63.5 -40.5z" />
    <glyph glyph-name="Ecircumflex" unicode="&#xca;" 
d="M443 40l-8 -40h-343v633h328v-39h-285v-252h232v-39h-232v-263h308zM266 764l-62 -76h-45l80 97q5 7 11 10.5t15 3.5h8q11 0 16 -3t11 -11l80 -97h-46l-62 76h-6z" />
    <glyph glyph-name="Ecaron" unicode="&#x11a;" 
d="M443 40l-8 -40h-343v633h328v-39h-285v-252h232v-39h-232v-263h308zM272 723l62 76h45l-80 -97q-5 -7 -11 -10.5t-15 -3.5h-8q-11 0 -16 3t-11 11l-80 97h46l62 -76h6z" />
    <glyph glyph-name="Edieresis" unicode="&#xcb;" 
d="M443 40l-8 -40h-343v633h328v-39h-285v-252h232v-39h-232v-263h308zM228 746q0 -20 -11.5 -30.5t-28.5 -10.5t-28 10.5t-11 30.5t11 31t28 11t28.5 -11t11.5 -31zM373 746q0 -20 -11.5 -30.5t-28.5 -10.5t-28 10.5t-11 30.5t11 31t28 11t28.5 -11t11.5 -31z" />
    <glyph glyph-name="Emacron" unicode="&#x112;" 
d="M443 40l-8 -40h-343v633h328v-39h-285v-252h232v-39h-232v-263h308zM356 714h-193v41h193v-41z" />
    <glyph glyph-name="Ebreve" unicode="&#x114;" 
d="M443 40l-8 -40h-343v633h328v-39h-285v-252h232v-39h-232v-263h308zM267 682q-38 0 -65.5 25.5t-31.5 75.5h23q8 -29 24.5 -43.5t49.5 -14.5q34 0 50 14.5t24 43.5h23q-4 -50 -31 -75.5t-66 -25.5z" />
    <glyph glyph-name="Edotaccent" unicode="&#x116;" 
d="M443 40l-8 -40h-343v633h328v-39h-285v-252h232v-39h-232v-263h308zM305 751q0 -22 -13 -33.5t-31 -11.5q-17 0 -30 11.5t-13 33.5q0 23 13 34.5t30 11.5q18 0 31 -11.5t13 -34.5z" />
    <glyph glyph-name="Eogonek" unicode="&#x118;" 
d="M443 40l-8 -40h-48q-31 0 -49.5 -19.5t-18.5 -49.5q0 -35 23.5 -53t67.5 -24l-9 -21q-59 5 -91 29.5t-32 67.5q0 25 11 43.5t28 26.5h-225v633h328v-39h-285v-252h232v-39h-232v-263h308z" />
    <glyph glyph-name="Gcircumflex" unicode="&#x11c;" horiz-adv-x="577" 
d="M497 0h-29l-11 40q-28 -21 -68 -35t-88 -14q-52 0 -96 17.5t-76.5 56.5t-50.5 100t-18 148q0 162 62.5 245.5t180.5 83.5q78 0 123.5 -36t66.5 -93l-35 -11q-23 52 -58.5 76.5t-93.5 24.5q-54 0 -91.5 -19.5t-61.5 -57t-34.5 -91t-10.5 -120.5q0 -64 9.5 -116t32.5 -89.5
t60 -58t93 -20.5q88 0 151 52v151h-102v38h145v-272zM299 764l-62 -76h-45l80 97q5 7 11 10.5t15 3.5h8q11 0 16 -3t11 -11l80 -97h-46l-62 76h-6z" />
    <glyph glyph-name="Gbreve" unicode="&#x11e;" horiz-adv-x="577" 
d="M497 0h-29l-11 40q-28 -21 -68 -35t-88 -14q-52 0 -96 17.5t-76.5 56.5t-50.5 100t-18 148q0 162 62.5 245.5t180.5 83.5q78 0 123.5 -36t66.5 -93l-35 -11q-23 52 -58.5 76.5t-93.5 24.5q-54 0 -91.5 -19.5t-61.5 -57t-34.5 -91t-10.5 -120.5q0 -64 9.5 -116t32.5 -89.5
t60 -58t93 -20.5q88 0 151 52v151h-102v38h145v-272zM298 682q-38 0 -65.5 25.5t-31.5 75.5h23q8 -29 24.5 -43.5t49.5 -14.5q34 0 50 14.5t24 43.5h23q-4 -50 -31 -75.5t-66 -25.5z" />
    <glyph glyph-name="Gdotaccent" unicode="&#x120;" horiz-adv-x="577" 
d="M497 0h-29l-11 40q-28 -21 -68 -35t-88 -14q-52 0 -96 17.5t-76.5 56.5t-50.5 100t-18 148q0 162 62.5 245.5t180.5 83.5q78 0 123.5 -36t66.5 -93l-35 -11q-23 52 -58.5 76.5t-93.5 24.5q-54 0 -91.5 -19.5t-61.5 -57t-34.5 -91t-10.5 -120.5q0 -64 9.5 -116t32.5 -89.5
t60 -58t93 -20.5q88 0 151 52v151h-102v38h145v-272zM344 751q0 -22 -13 -33.5t-31 -11.5q-17 0 -30 11.5t-13 33.5q0 23 13 34.5t30 11.5q18 0 31 -11.5t13 -34.5z" />
    <glyph glyph-name="Gcommaaccent" unicode="&#x122;" horiz-adv-x="577" 
d="M497 0h-29l-11 40q-28 -21 -68 -35t-88 -14q-52 0 -96 17.5t-76.5 56.5t-50.5 100t-18 148q0 162 62.5 245.5t180.5 83.5q78 0 123.5 -36t66.5 -93l-35 -11q-23 52 -58.5 76.5t-93.5 24.5q-54 0 -91.5 -19.5t-61.5 -57t-34.5 -91t-10.5 -120.5q0 -64 9.5 -116t32.5 -89.5
t60 -58t93 -20.5q88 0 151 52v151h-102v38h145v-272zM345 -89q0 -26 -16.5 -58.5t-51.5 -58.5l-12 14q17 16 29 36.5t14 40.5q-17 4 -26 15t-9 24q0 17 9.5 26.5t24.5 9.5t26.5 -11.5t11.5 -37.5z" />
    <glyph glyph-name="Hcircumflex" unicode="&#x124;" horiz-adv-x="600" 
d="M508 0h-43v297h-330v-297h-43v633h43v-296h330v296h43v-633zM301 764l-62 -76h-45l80 97q5 7 11 10.5t15 3.5h8q11 0 16 -3t11 -11l80 -97h-46l-62 76h-6z" />
    <glyph glyph-name="Hbar" unicode="&#x126;" horiz-adv-x="620" 
d="M518 504h66v-38h-66v-466h-43v297h-330v-297h-43v466h-66v38h66v129h43v-129h330v129h43v-129zM475 337v129h-330v-129h330z" />
    <glyph glyph-name="Igrave" unicode="&#xcc;" horiz-adv-x="243" 
d="M100 0v633h43v-633h-43zM181 684q-38 29 -63.5 40.5t-51.5 11.5q-19 0 -39 -5q-10 13 -10 27q0 15 11 25.5t30 10.5q16 0 34 -8.5t36 -22t34 -31.5t28 -36z" />
    <glyph glyph-name="Iacute" unicode="&#xcd;" horiz-adv-x="243" 
d="M100 0v633h43v-633h-43zM54 696q12 18 28 36t34 31.5t36 22t34 8.5q19 0 30 -10.5t11 -25.5q0 -14 -10 -27q-20 5 -39 5q-26 0 -51.5 -11.5t-63.5 -40.5z" />
    <glyph glyph-name="Icircumflex" unicode="&#xce;" horiz-adv-x="243" 
d="M100 0v633h43v-633h-43zM121 764l-62 -76h-45l80 97q5 7 11 10.5t15 3.5h8q11 0 16 -3t11 -11l80 -97h-46l-62 76h-6z" />
    <glyph glyph-name="Itilde" unicode="&#x128;" horiz-adv-x="243" 
d="M100 0v633h43v-633h-43zM174 748q13 0 22 8.5t17 29.5h17q-5 -35 -20.5 -57t-41.5 -22q-15 0 -27 6t-23.5 12.5t-23.5 12.5t-26 6q-13 0 -22 -8t-17 -29h-16q5 35 20.5 57t41.5 22q13 0 24.5 -6t23 -13t24 -13t27.5 -6z" />
    <glyph glyph-name="Idieresis" unicode="&#xcf;" horiz-adv-x="243" 
d="M100 0v633h43v-633h-43zM88 746q0 -20 -11.5 -30.5t-28.5 -10.5t-28 10.5t-11 30.5t11 31t28 11t28.5 -11t11.5 -31zM233 746q0 -20 -11.5 -30.5t-28.5 -10.5t-28 10.5t-11 30.5t11 31t28 11t28.5 -11t11.5 -31z" />
    <glyph glyph-name="Imacron" unicode="&#x12a;" horiz-adv-x="243" 
d="M100 0v633h43v-633h-43zM218 714h-193v41h193v-41z" />
    <glyph glyph-name="Ibreve" unicode="&#x12c;" horiz-adv-x="243" 
d="M100 0v633h43v-633h-43zM121 682q-38 0 -65.5 25.5t-31.5 75.5h23q8 -29 24.5 -43.5t49.5 -14.5q34 0 50 14.5t24 43.5h23q-4 -50 -31 -75.5t-66 -25.5z" />
    <glyph glyph-name="Idotaccent" unicode="&#x130;" horiz-adv-x="243" 
d="M100 0v633h43v-633h-43zM165 751q0 -22 -13 -33.5t-31 -11.5q-17 0 -30 11.5t-13 33.5q0 23 13 34.5t30 11.5q18 0 31 -11.5t13 -34.5z" />
    <glyph glyph-name="Iogonek" unicode="&#x12e;" horiz-adv-x="236" 
d="M143 0q-46 -20 -46 -69q0 -35 23.5 -53t67.5 -24l-9 -21q-59 5 -91 29.5t-32 67.5q0 26 12.5 46t31.5 29v628h43v-633v0z" />
    <glyph glyph-name="IJ" unicode="&#x132;" horiz-adv-x="612" 
d="M100 0v633h43v-633h-43zM524 177q0 -36 -3.5 -69.5t-18.5 -60t-45.5 -42t-83.5 -15.5q-54 0 -94 16l3 39q26 -9 49 -12.5t41 -3.5q33 0 54 8.5t33.5 26t17 44.5t4.5 65v459h43v-455z" />
    <glyph glyph-name="Jcircumflex" unicode="&#x134;" horiz-adv-x="373" 
d="M285 177q0 -36 -3.5 -69.5t-18.5 -60t-45.5 -42t-83.5 -15.5q-54 0 -94 16l3 39q26 -9 49 -12.5t41 -3.5q33 0 54 8.5t33.5 26t17 44.5t4.5 65v459h43v-455zM266 764l-62 -76h-45l80 97q5 7 11 10.5t15 3.5h8q11 0 16 -3t11 -11l80 -97h-46l-62 76h-6z" />
    <glyph glyph-name="Kcommaaccent" unicode="&#x136;" horiz-adv-x="545" 
d="M510 3q-8 -5 -17 -6.5t-20 -1.5q-23 0 -39.5 11.5t-34.5 43.5l-142 248h-122v-298h-43v633h43v-295h121l162 295h48l-174 -314l144 -249q14 -23 22.5 -29t20.5 -6q9 0 17 2t15 4zM308 -89q0 -26 -16.5 -58.5t-51.5 -58.5l-12 14q17 16 29 36.5t14 40.5q-17 4 -26 15
t-9 24q0 17 9.5 26.5t24.5 9.5t26.5 -11.5t11.5 -37.5z" />
    <glyph glyph-name="Lacute" unicode="&#x139;" horiz-adv-x="469" 
d="M427 40l-8 -40h-327v633h43v-593h292zM66 696q12 18 28 36t34 31.5t36 22t34 8.5q19 0 30 -10.5t11 -25.5q0 -14 -10 -27q-20 5 -39 5q-26 0 -51.5 -11.5t-63.5 -40.5z" />
    <glyph glyph-name="Lcaron" unicode="&#x13d;" horiz-adv-x="469" 
d="M427 40l-8 -40h-327v633h43v-593h292zM299 598q0 -26 -16.5 -58.5t-51.5 -58.5l-12 14q17 16 29 36.5t14 40.5q-17 4 -26 15t-9 24q0 17 9.5 26.5t24.5 9.5t26.5 -11.5t11.5 -37.5z" />
    <glyph glyph-name="Lcommaaccent" unicode="&#x13b;" horiz-adv-x="469" 
d="M427 40l-8 -40h-327v633h43v-593h292zM305 -89q0 -26 -16.5 -58.5t-51.5 -58.5l-12 14q17 16 29 36.5t14 40.5q-17 4 -26 15t-9 24q0 17 9.5 26.5t24.5 9.5t26.5 -11.5t11.5 -37.5z" />
    <glyph glyph-name="Lslash" unicode="&#x141;" horiz-adv-x="491" 
d="M449 40l-8 -40h-328v293l-99 -38v40l99 39v299h44v-284q31 12 64 25t65 25v-41l-129 -50v-268h292z" />
    <glyph glyph-name="Ldot" unicode="&#x13f;" horiz-adv-x="469" 
d="M427 40l-8 -40h-327v633h43v-593h292zM392 338q0 -22 -13 -33.5t-31 -11.5q-17 0 -30 11.5t-13 33.5q0 23 13 34.5t30 11.5q18 0 31 -11.5t13 -34.5z" />
    <glyph glyph-name="Nacute" unicode="&#x143;" horiz-adv-x="619" 
d="M527 0h-33l-361 552v-552h-41v633h34l360 -551v551h41v-633zM240 696q12 18 28 36t34 31.5t36 22t34 8.5q19 0 30 -10.5t11 -25.5q0 -14 -10 -27q-20 5 -39 5q-26 0 -51.5 -11.5t-63.5 -40.5z" />
    <glyph glyph-name="Ncaron" unicode="&#x147;" horiz-adv-x="619" 
d="M527 0h-33l-361 552v-552h-41v633h34l360 -551v551h41v-633zM321 723l62 76h45l-80 -97q-5 -7 -11 -10.5t-15 -3.5h-8q-11 0 -16 3t-11 11l-80 97h46l62 -76h6z" />
    <glyph glyph-name="Ntilde" unicode="&#xd1;" horiz-adv-x="619" 
d="M527 0h-33l-361 552v-552h-41v633h34l360 -551v551h41v-633zM366 748q13 0 22 8.5t17 29.5h17q-5 -35 -20.5 -57t-41.5 -22q-15 0 -27 6t-23.5 12.5t-23.5 12.5t-26 6q-13 0 -22 -8t-17 -29h-16q5 35 20.5 57t41.5 22q13 0 24.5 -6t23 -13t24 -13t27.5 -6z" />
    <glyph glyph-name="Ncommaaccent" unicode="&#x145;" horiz-adv-x="619" 
d="M527 0h-33l-361 552v-552h-41v633h34l360 -551v551h41v-633zM349 -89q0 -26 -16.5 -58.5t-51.5 -58.5l-12 14q17 16 29 36.5t14 40.5q-17 4 -26 15t-9 24q0 17 9.5 26.5t24.5 9.5t26.5 -11.5t11.5 -37.5z" />
    <glyph glyph-name="Eng" unicode="&#x14a;" horiz-adv-x="619" 
d="M527 4q0 -32 -3.5 -56t-11.5 -43q-14 -26 -40 -42t-67 -16q-14 0 -30 2t-30 7l1 36q17 -5 30.5 -7t26.5 -2q30 0 46 11t24 28q7 16 9.5 40.5t3.5 50.5l-353 539v-552h-41v633h34l360 -551v551h41v-629z" />
    <glyph glyph-name="Ograve" unicode="&#xd2;" horiz-adv-x="590" 
d="M295 31q101 0 144.5 74.5t43.5 207.5q0 68 -10.5 121.5t-33.5 91t-58.5 57t-85.5 19.5t-85.5 -19.5t-58 -57t-33 -91t-10.5 -121.5q0 -133 43 -207.5t144 -74.5zM295 -9q-110 0 -172.5 81.5t-62.5 243.5t62.5 244t172.5 82t172.5 -82t62.5 -244t-62.5 -243.5
t-172.5 -81.5zM377 684q-38 29 -63.5 40.5t-51.5 11.5q-19 0 -39 -5q-10 13 -10 27q0 15 11 25.5t30 10.5q16 0 34 -8.5t36 -22t34 -31.5t28 -36z" />
    <glyph glyph-name="Oacute" unicode="&#xd3;" horiz-adv-x="590" 
d="M295 31q101 0 144.5 74.5t43.5 207.5q0 68 -10.5 121.5t-33.5 91t-58.5 57t-85.5 19.5t-85.5 -19.5t-58 -57t-33 -91t-10.5 -121.5q0 -133 43 -207.5t144 -74.5zM295 -9q-110 0 -172.5 81.5t-62.5 243.5t62.5 244t172.5 82t172.5 -82t62.5 -244t-62.5 -243.5
t-172.5 -81.5zM215 696q12 18 28 36t34 31.5t36 22t34 8.5q19 0 30 -10.5t11 -25.5q0 -14 -10 -27q-20 5 -39 5q-26 0 -51.5 -11.5t-63.5 -40.5z" />
    <glyph glyph-name="Ocircumflex" unicode="&#xd4;" horiz-adv-x="590" 
d="M295 31q101 0 144.5 74.5t43.5 207.5q0 68 -10.5 121.5t-33.5 91t-58.5 57t-85.5 19.5t-85.5 -19.5t-58 -57t-33 -91t-10.5 -121.5q0 -133 43 -207.5t144 -74.5zM295 -9q-110 0 -172.5 81.5t-62.5 243.5t62.5 244t172.5 82t172.5 -82t62.5 -244t-62.5 -243.5
t-172.5 -81.5zM299 764l-62 -76h-45l80 97q5 7 11 10.5t15 3.5h8q11 0 16 -3t11 -11l80 -97h-46l-62 76h-6z" />
    <glyph glyph-name="Otilde" unicode="&#xd5;" horiz-adv-x="590" 
d="M295 31q101 0 144.5 74.5t43.5 207.5q0 68 -10.5 121.5t-33.5 91t-58.5 57t-85.5 19.5t-85.5 -19.5t-58 -57t-33 -91t-10.5 -121.5q0 -133 43 -207.5t144 -74.5zM295 -9q-110 0 -172.5 81.5t-62.5 243.5t62.5 244t172.5 82t172.5 -82t62.5 -244t-62.5 -243.5
t-172.5 -81.5zM352 748q13 0 22 8.5t17 29.5h17q-5 -35 -20.5 -57t-41.5 -22q-15 0 -27 6t-23.5 12.5t-23.5 12.5t-26 6q-13 0 -22 -8t-17 -29h-16q5 35 20.5 57t41.5 22q13 0 24.5 -6t23 -13t24 -13t27.5 -6z" />
    <glyph glyph-name="Odieresis" unicode="&#xd6;" horiz-adv-x="590" 
d="M295 31q101 0 144.5 74.5t43.5 207.5q0 68 -10.5 121.5t-33.5 91t-58.5 57t-85.5 19.5t-85.5 -19.5t-58 -57t-33 -91t-10.5 -121.5q0 -133 43 -207.5t144 -74.5zM295 -9q-110 0 -172.5 81.5t-62.5 243.5t62.5 244t172.5 82t172.5 -82t62.5 -244t-62.5 -243.5
t-172.5 -81.5zM266 746q0 -20 -11.5 -30.5t-28.5 -10.5t-28 10.5t-11 30.5t11 31t28 11t28.5 -11t11.5 -31zM411 746q0 -20 -11.5 -30.5t-28.5 -10.5t-28 10.5t-11 30.5t11 31t28 11t28.5 -11t11.5 -31z" />
    <glyph glyph-name="Omacron" unicode="&#x14c;" horiz-adv-x="590" 
d="M295 31q101 0 144.5 74.5t43.5 207.5q0 68 -10.5 121.5t-33.5 91t-58.5 57t-85.5 19.5t-85.5 -19.5t-58 -57t-33 -91t-10.5 -121.5q0 -133 43 -207.5t144 -74.5zM295 -9q-110 0 -172.5 81.5t-62.5 243.5t62.5 244t172.5 82t172.5 -82t62.5 -244t-62.5 -243.5
t-172.5 -81.5zM396 714h-193v41h193v-41z" />
    <glyph glyph-name="Obreve" unicode="&#x14e;" horiz-adv-x="590" 
d="M295 31q101 0 144.5 74.5t43.5 207.5q0 68 -10.5 121.5t-33.5 91t-58.5 57t-85.5 19.5t-85.5 -19.5t-58 -57t-33 -91t-10.5 -121.5q0 -133 43 -207.5t144 -74.5zM295 -9q-110 0 -172.5 81.5t-62.5 243.5t62.5 244t172.5 82t172.5 -82t62.5 -244t-62.5 -243.5
t-172.5 -81.5zM302 682q-38 0 -65.5 25.5t-31.5 75.5h23q8 -29 24.5 -43.5t49.5 -14.5q34 0 50 14.5t24 43.5h23q-4 -50 -31 -75.5t-66 -25.5z" />
    <glyph glyph-name="Ohungarumlaut" unicode="&#x150;" horiz-adv-x="590" 
d="M295 31q101 0 144.5 74.5t43.5 207.5q0 68 -10.5 121.5t-33.5 91t-58.5 57t-85.5 19.5t-85.5 -19.5t-58 -57t-33 -91t-10.5 -121.5q0 -133 43 -207.5t144 -74.5zM295 -9q-110 0 -172.5 81.5t-62.5 243.5t62.5 244t172.5 82t172.5 -82t62.5 -244t-62.5 -243.5
t-172.5 -81.5zM192 697q21 41 46.5 69.5t59.5 28.5q21 0 30.5 -11t9.5 -25q0 -16 -11 -29q-12 7 -32 7t-40.5 -11.5t-49.5 -40.5zM337 697q21 41 46.5 69.5t59.5 28.5q21 0 30.5 -11t9.5 -25q0 -16 -11 -29q-12 7 -32 7t-40.5 -11.5t-49.5 -40.5z" />
    <glyph glyph-name="Oslash" unicode="&#xd8;" horiz-adv-x="590" 
d="M295 -9q-65 0 -112 28l-40 -87h-47l51 113q-42 40 -64.5 107t-22.5 164q0 162 62.5 244t172.5 82q63 0 112 -28l38 87h47l-51 -112q44 -39 66.5 -107t22.5 -166q0 -162 -62.5 -243.5t-172.5 -81.5zM295 31q101 0 144.5 74.5t43.5 207.5q0 79 -14.5 138t-46.5 96
l-224 -492q20 -11 43.5 -17.5t53.5 -6.5zM107 313q0 -77 14 -134.5t45 -93.5q57 125 112 246.5t112 246.5q-20 11 -43 17.5t-53 6.5q-99 0 -143 -76.5t-44 -212.5z" />
    <glyph glyph-name="Oslashacute" unicode="&#x1fe;" horiz-adv-x="590" 
d="M295 -9q-65 0 -112 28l-40 -87h-47l51 113q-42 40 -64.5 107t-22.5 164q0 162 62.5 244t172.5 82q63 0 112 -28l38 87h47l-51 -112q44 -39 66.5 -107t22.5 -166q0 -162 -62.5 -243.5t-172.5 -81.5zM295 31q101 0 144.5 74.5t43.5 207.5q0 79 -14.5 138t-46.5 96
l-224 -492q20 -11 43.5 -17.5t53.5 -6.5zM107 313q0 -77 14 -134.5t45 -93.5q57 125 112 246.5t112 246.5q-20 11 -43 17.5t-53 6.5q-99 0 -143 -76.5t-44 -212.5zM224 696q12 18 28 36t34 31.5t36 22t34 8.5q19 0 30 -10.5t11 -25.5q0 -14 -10 -27q-20 5 -39 5
q-26 0 -51.5 -11.5t-63.5 -40.5z" />
    <glyph glyph-name="OE" unicode="&#x152;" horiz-adv-x="844" 
d="M321 31q70 0 97 23.5t27 69.5v385q0 46 -27 69.5t-97 23.5q-57 0 -97.5 -16.5t-66 -51.5t-37.5 -89t-12 -129q0 -74 12 -128t37.5 -89t66 -51.5t97.5 -16.5zM310 -9q-118 0 -184 81.5t-66 243.5t66 244t184 82q31 0 65 -4.5t79 -4.5h315v-39h-281v-252h228v-39h-228v-263
h304l-8 -40h-330q-46 0 -79 -4.5t-65 -4.5z" />
    <glyph glyph-name="Thorn" unicode="&#xde;" horiz-adv-x="531" 
d="M488 329q0 -107 -61.5 -155t-177.5 -48h-114v-126h-43v633h43v-109h118q114 0 174.5 -44.5t60.5 -150.5zM441 326q0 42 -9.5 72t-32.5 49.5t-61 28.5t-94 9h-109v-319h105q57 0 95.5 9t62 28.5t33.5 50t10 72.5z" />
    <glyph glyph-name="Racute" unicode="&#x154;" horiz-adv-x="562" 
d="M509 3q-5 -3 -14 -5.5t-22 -2.5q-29 0 -44.5 15.5t-31.5 44.5l-110 205h-152v-260h-43v633h164q42 0 82 -8.5t71.5 -29t51 -55.5t19.5 -88q0 -70 -35 -119t-112 -68l103 -194q12 -22 20.5 -29t22.5 -7q8 0 16 2t15 4zM432 452q0 81 -46 111.5t-137 30.5h-114v-295h128
q47 0 79 11t52 31t29 48t9 63zM202 696q12 18 28 36t34 31.5t36 22t34 8.5q19 0 30 -10.5t11 -25.5q0 -14 -10 -27q-20 5 -39 5q-26 0 -51.5 -11.5t-63.5 -40.5z" />
    <glyph glyph-name="Rcaron" unicode="&#x158;" horiz-adv-x="562" 
d="M509 3q-5 -3 -14 -5.5t-22 -2.5q-29 0 -44.5 15.5t-31.5 44.5l-110 205h-152v-260h-43v633h164q42 0 82 -8.5t71.5 -29t51 -55.5t19.5 -88q0 -70 -35 -119t-112 -68l103 -194q12 -22 20.5 -29t22.5 -7q8 0 16 2t15 4zM432 452q0 81 -46 111.5t-137 30.5h-114v-295h128
q47 0 79 11t52 31t29 48t9 63zM275 723l62 76h45l-80 -97q-5 -7 -11 -10.5t-15 -3.5h-8q-11 0 -16 3t-11 11l-80 97h46l62 -76h6z" />
    <glyph glyph-name="Rcommaaccent" unicode="&#x156;" horiz-adv-x="562" 
d="M509 3q-5 -3 -14 -5.5t-22 -2.5q-29 0 -44.5 15.5t-31.5 44.5l-110 205h-152v-260h-43v633h164q42 0 82 -8.5t71.5 -29t51 -55.5t19.5 -88q0 -70 -35 -119t-112 -68l103 -194q12 -22 20.5 -29t22.5 -7q8 0 16 2t15 4zM432 452q0 81 -46 111.5t-137 30.5h-114v-295h128
q47 0 79 11t52 31t29 48t9 63zM310 -89q0 -26 -16.5 -58.5t-51.5 -58.5l-12 14q17 16 29 36.5t14 40.5q-17 4 -26 15t-9 24q0 17 9.5 26.5t24.5 9.5t26.5 -11.5t11.5 -37.5z" />
    <glyph glyph-name="Sacute" unicode="&#x15a;" horiz-adv-x="474" 
d="M426 161q0 -42 -15.5 -74t-42.5 -53.5t-64 -32t-80 -10.5q-35 0 -75.5 7t-76.5 21l1 46q42 -19 80.5 -26.5t69.5 -7.5q33 0 62 7.5t50 23t33.5 39t12.5 56.5q0 27 -10 47.5t-28.5 37.5t-44.5 31.5t-59 29.5q-38 18 -69.5 34.5t-53.5 36t-34 44.5t-12 60q0 40 14 71
t38.5 51.5t58.5 31t75 10.5q32 0 64.5 -5.5t65.5 -16.5l-1 -42q-34 11 -67 17.5t-65 6.5q-67 0 -102.5 -30t-35.5 -88q0 -27 8.5 -46.5t26.5 -34.5t44.5 -29t62.5 -30q42 -20 74 -38t53 -39t31.5 -46.5t10.5 -59.5zM169 696q12 18 28 36t34 31.5t36 22t34 8.5q19 0 30 -10.5
t11 -25.5q0 -14 -10 -27q-20 5 -39 5q-26 0 -51.5 -11.5t-63.5 -40.5z" />
    <glyph glyph-name="Scircumflex" unicode="&#x15c;" horiz-adv-x="474" 
d="M426 161q0 -42 -15.5 -74t-42.5 -53.5t-64 -32t-80 -10.5q-35 0 -75.5 7t-76.5 21l1 46q42 -19 80.5 -26.5t69.5 -7.5q33 0 62 7.5t50 23t33.5 39t12.5 56.5q0 27 -10 47.5t-28.5 37.5t-44.5 31.5t-59 29.5q-38 18 -69.5 34.5t-53.5 36t-34 44.5t-12 60q0 40 14 71
t38.5 51.5t58.5 31t75 10.5q32 0 64.5 -5.5t65.5 -16.5l-1 -42q-34 11 -67 17.5t-65 6.5q-67 0 -102.5 -30t-35.5 -88q0 -27 8.5 -46.5t26.5 -34.5t44.5 -29t62.5 -30q42 -20 74 -38t53 -39t31.5 -46.5t10.5 -59.5zM254 764l-62 -76h-45l80 97q5 7 11 10.5t15 3.5h8
q11 0 16 -3t11 -11l80 -97h-46l-62 76h-6z" />
    <glyph glyph-name="Scaron" unicode="&#x160;" horiz-adv-x="474" 
d="M426 161q0 -42 -15.5 -74t-42.5 -53.5t-64 -32t-80 -10.5q-35 0 -75.5 7t-76.5 21l1 46q42 -19 80.5 -26.5t69.5 -7.5q33 0 62 7.5t50 23t33.5 39t12.5 56.5q0 27 -10 47.5t-28.5 37.5t-44.5 31.5t-59 29.5q-38 18 -69.5 34.5t-53.5 36t-34 44.5t-12 60q0 40 14 71
t38.5 51.5t58.5 31t75 10.5q32 0 64.5 -5.5t65.5 -16.5l-1 -42q-34 11 -67 17.5t-65 6.5q-67 0 -102.5 -30t-35.5 -88q0 -27 8.5 -46.5t26.5 -34.5t44.5 -29t62.5 -30q42 -20 74 -38t53 -39t31.5 -46.5t10.5 -59.5zM259 723l62 76h45l-80 -97q-5 -7 -11 -10.5t-15 -3.5h-8
q-11 0 -16 3t-11 11l-80 97h46l62 -76h6z" />
    <glyph glyph-name="Scedilla" unicode="&#x15e;" horiz-adv-x="474" 
d="M426 161q0 -41 -14.5 -71.5t-39.5 -51.5t-59 -32.5t-74 -13.5q-2 -4 -3.5 -9.5t-1.5 -8.5q0 -7 5.5 -11t20.5 -7q15 -4 27 -7.5t21 -9.5t14 -14.5t5 -21.5q0 -28 -28 -45t-79 -17l-5 23q13 0 27 1.5t25 5t18.5 9t7.5 14.5q0 11 -12 16t-38 13q-17 5 -29.5 12.5
t-12.5 24.5q0 7 3.5 15t8.5 16q-35 2 -72 8t-69 20l1 46q42 -19 80.5 -26.5t69.5 -7.5q33 0 62 7.5t50 23t33.5 39t12.5 56.5q0 27 -10 47.5t-28.5 37.5t-44.5 31.5t-59 29.5q-38 18 -69.5 34.5t-53.5 36t-34 44.5t-12 60q0 40 14 71t38.5 51.5t58.5 31t75 10.5
q32 0 64.5 -5.5t65.5 -16.5l-1 -42q-34 11 -67 17.5t-65 6.5q-67 0 -102.5 -30t-35.5 -88q0 -28 8.5 -47t26.5 -34.5t44.5 -29t62.5 -29.5q42 -20 74 -38t53 -39t31.5 -46.5t10.5 -59.5z" />
    <glyph glyph-name="Scommaaccent" unicode="&#x218;" horiz-adv-x="474" 
d="M426 161q0 -42 -15.5 -74t-42.5 -53.5t-64 -32t-80 -10.5q-35 0 -75.5 7t-76.5 21l1 46q42 -19 80.5 -26.5t69.5 -7.5q33 0 62 7.5t50 23t33.5 39t12.5 56.5q0 27 -10 47.5t-28.5 37.5t-44.5 31.5t-59 29.5q-38 18 -69.5 34.5t-53.5 36t-34 44.5t-12 60q0 40 14 71
t38.5 51.5t58.5 31t75 10.5q32 0 64.5 -5.5t65.5 -16.5l-1 -42q-34 11 -67 17.5t-65 6.5q-67 0 -102.5 -30t-35.5 -88q0 -27 8.5 -46.5t26.5 -34.5t44.5 -29t62.5 -30q42 -20 74 -38t53 -39t31.5 -46.5t10.5 -59.5zM289 -89q0 -26 -16.5 -58.5t-51.5 -58.5l-12 14
q17 16 29 36.5t14 40.5q-17 4 -26 15t-9 24q0 17 9.5 26.5t24.5 9.5t26.5 -11.5t11.5 -37.5z" />
    <glyph glyph-name="Tcaron" unicode="&#x164;" horiz-adv-x="471" 
d="M445 594h-188v-594h-43v594h-188v39h419v-39zM245 723l62 76h45l-80 -97q-5 -7 -11 -10.5t-15 -3.5h-8q-11 0 -16 3t-11 11l-80 97h46l62 -76h6z" />
    <glyph glyph-name="Tcommaaccent" unicode="&#x162;" horiz-adv-x="471" 
d="M445 594h-188v-594h-43v594h-188v39h419v-39zM278 -89q0 -26 -16.5 -58.5t-51.5 -58.5l-12 14q17 16 29 36.5t14 40.5q-17 4 -26 15t-9 24q0 17 9.5 26.5t24.5 9.5t26.5 -11.5t11.5 -37.5z" />
    <glyph glyph-name="uni021A" unicode="&#x21a;" horiz-adv-x="471" 
d="M445 594h-188v-594h-43v594h-188v39h419v-39zM278 -89q0 -26 -16.5 -58.5t-51.5 -58.5l-12 14q17 16 29 36.5t14 40.5q-17 4 -26 15t-9 24q0 17 9.5 26.5t24.5 9.5t26.5 -11.5t11.5 -37.5z" />
    <glyph glyph-name="Tbar" unicode="&#x166;" horiz-adv-x="471" 
d="M445 594h-188v-260h101v-38h-101v-296h-43v296h-101v38h101v260h-188v39h419v-39z" />
    <glyph glyph-name="Ugrave" unicode="&#xd9;" horiz-adv-x="587" 
d="M503 222q0 -52 -7.5 -89.5t-27.5 -66.5q-26 -38 -70.5 -56.5t-101.5 -18.5q-54 0 -98.5 15.5t-70.5 44.5q-23 28 -33 69t-10 93v420h43v-409q0 -47 6.5 -81t22.5 -57q23 -32 61 -43.5t80 -11.5q48 0 80.5 13.5t52.5 42.5q15 23 23 54.5t8 83.5v408h42v-411zM371 684
q-38 29 -63.5 40.5t-51.5 11.5q-19 0 -39 -5q-10 13 -10 27q0 15 11 25.5t30 10.5q16 0 34 -8.5t36 -22t34 -31.5t28 -36z" />
    <glyph glyph-name="Uacute" unicode="&#xda;" horiz-adv-x="587" 
d="M503 222q0 -52 -7.5 -89.5t-27.5 -66.5q-26 -38 -70.5 -56.5t-101.5 -18.5q-54 0 -98.5 15.5t-70.5 44.5q-23 28 -33 69t-10 93v420h43v-409q0 -47 6.5 -81t22.5 -57q23 -32 61 -43.5t80 -11.5q48 0 80.5 13.5t52.5 42.5q15 23 23 54.5t8 83.5v408h42v-411zM212 696
q12 18 28 36t34 31.5t36 22t34 8.5q19 0 30 -10.5t11 -25.5q0 -14 -10 -27q-20 5 -39 5q-26 0 -51.5 -11.5t-63.5 -40.5z" />
    <glyph glyph-name="Ucircumflex" unicode="&#xdb;" horiz-adv-x="587" 
d="M503 222q0 -52 -7.5 -89.5t-27.5 -66.5q-26 -38 -70.5 -56.5t-101.5 -18.5q-54 0 -98.5 15.5t-70.5 44.5q-23 28 -33 69t-10 93v420h43v-409q0 -47 6.5 -81t22.5 -57q23 -32 61 -43.5t80 -11.5q48 0 80.5 13.5t52.5 42.5q15 23 23 54.5t8 83.5v408h42v-411zM294 764
l-62 -76h-45l80 97q5 7 11 10.5t15 3.5h8q11 0 16 -3t11 -11l80 -97h-46l-62 76h-6z" />
    <glyph glyph-name="Utilde" unicode="&#x168;" horiz-adv-x="587" 
d="M503 222q0 -52 -7.5 -89.5t-27.5 -66.5q-26 -38 -70.5 -56.5t-101.5 -18.5q-54 0 -98.5 15.5t-70.5 44.5q-23 28 -33 69t-10 93v420h43v-409q0 -47 6.5 -81t22.5 -57q23 -32 61 -43.5t80 -11.5q48 0 80.5 13.5t52.5 42.5q15 23 23 54.5t8 83.5v408h42v-411zM350 748
q13 0 22 8.5t17 29.5h17q-5 -35 -20.5 -57t-41.5 -22q-15 0 -27 6t-23.5 12.5t-23.5 12.5t-26 6q-13 0 -22 -8t-17 -29h-16q5 35 20.5 57t41.5 22q13 0 24.5 -6t23 -13t24 -13t27.5 -6z" />
    <glyph glyph-name="Udieresis" unicode="&#xdc;" horiz-adv-x="587" 
d="M503 222q0 -52 -7.5 -89.5t-27.5 -66.5q-26 -38 -70.5 -56.5t-101.5 -18.5q-54 0 -98.5 15.5t-70.5 44.5q-23 28 -33 69t-10 93v420h43v-409q0 -47 6.5 -81t22.5 -57q23 -32 61 -43.5t80 -11.5q48 0 80.5 13.5t52.5 42.5q15 23 23 54.5t8 83.5v408h42v-411zM264 746
q0 -20 -11.5 -30.5t-28.5 -10.5t-28 10.5t-11 30.5t11 31t28 11t28.5 -11t11.5 -31zM409 746q0 -20 -11.5 -30.5t-28.5 -10.5t-28 10.5t-11 30.5t11 31t28 11t28.5 -11t11.5 -31z" />
    <glyph glyph-name="Umacron" unicode="&#x16a;" horiz-adv-x="587" 
d="M503 222q0 -52 -7.5 -89.5t-27.5 -66.5q-26 -38 -70.5 -56.5t-101.5 -18.5q-54 0 -98.5 15.5t-70.5 44.5q-23 28 -33 69t-10 93v420h43v-409q0 -47 6.5 -81t22.5 -57q23 -32 61 -43.5t80 -11.5q48 0 80.5 13.5t52.5 42.5q15 23 23 54.5t8 83.5v408h42v-411zM394 714h-193
v41h193v-41z" />
    <glyph glyph-name="Ubreve" unicode="&#x16c;" horiz-adv-x="587" 
d="M503 222q0 -52 -7.5 -89.5t-27.5 -66.5q-26 -38 -70.5 -56.5t-101.5 -18.5q-54 0 -98.5 15.5t-70.5 44.5q-23 28 -33 69t-10 93v420h43v-409q0 -47 6.5 -81t22.5 -57q23 -32 61 -43.5t80 -11.5q48 0 80.5 13.5t52.5 42.5q15 23 23 54.5t8 83.5v408h42v-411zM297 682
q-38 0 -65.5 25.5t-31.5 75.5h23q8 -29 24.5 -43.5t49.5 -14.5q34 0 50 14.5t24 43.5h23q-4 -50 -31 -75.5t-66 -25.5z" />
    <glyph glyph-name="Uring" unicode="&#x16e;" horiz-adv-x="587" 
d="M503 222q0 -52 -7.5 -89.5t-27.5 -66.5q-26 -38 -70.5 -56.5t-101.5 -18.5q-54 0 -98.5 15.5t-70.5 44.5q-23 28 -33 69t-10 93v420h43v-409q0 -47 6.5 -81t22.5 -57q23 -32 61 -43.5t80 -11.5q48 0 80.5 13.5t52.5 42.5q15 23 23 54.5t8 83.5v408h42v-411zM297 715
q20 0 31.5 13t11.5 33q0 21 -11.5 34t-31.5 13t-31.5 -12.5t-11.5 -34.5q0 -21 11.5 -33.5t31.5 -12.5zM297 685q-30 0 -53 21t-23 55q0 35 23 55.5t53 20.5q31 0 53.5 -21t22.5 -55q0 -33 -22.5 -54.5t-53.5 -21.5z" />
    <glyph glyph-name="Uhungarumlaut" unicode="&#x170;" horiz-adv-x="587" 
d="M503 222q0 -52 -7.5 -89.5t-27.5 -66.5q-26 -38 -70.5 -56.5t-101.5 -18.5q-54 0 -98.5 15.5t-70.5 44.5q-23 28 -33 69t-10 93v420h43v-409q0 -47 6.5 -81t22.5 -57q23 -32 61 -43.5t80 -11.5q48 0 80.5 13.5t52.5 42.5q15 23 23 54.5t8 83.5v408h42v-411zM201 697
q21 41 46.5 69.5t59.5 28.5q21 0 30.5 -11t9.5 -25q0 -16 -11 -29q-12 7 -32 7t-40.5 -11.5t-49.5 -40.5zM346 697q21 41 46.5 69.5t59.5 28.5q21 0 30.5 -11t9.5 -25q0 -16 -11 -29q-12 7 -32 7t-40.5 -11.5t-49.5 -40.5z" />
    <glyph glyph-name="Uogonek" unicode="&#x172;" horiz-adv-x="587" 
d="M503 222q0 -52 -7.5 -89.5t-27.5 -66.5q-12 -17 -24.5 -28t-29.5 -22q-25 -17 -40.5 -35t-15.5 -50q0 -35 23.5 -53t67.5 -24l-9 -21q-59 5 -91 29.5t-32 67.5q0 41 30 66q-11 -3 -24.5 -4t-27.5 -1q-58 0 -101.5 17t-66.5 43q-23 28 -33 69t-10 93v420h43v-409
q0 -47 6.5 -81t22.5 -57q23 -32 61 -43.5t80 -11.5q48 0 80.5 13.5t52.5 42.5q15 23 23 54.5t8 83.5v408h42v-411z" />
    <glyph glyph-name="Wgrave" unicode="&#x1e80;" horiz-adv-x="827" 
d="M779 633l-178 -633h-50l-137 516l-138 -516h-50l-178 633h45l158 -578l139 522h48l138 -522l157 578h46zM494 684q-38 29 -63.5 40.5t-51.5 11.5q-19 0 -39 -5q-10 13 -10 27q0 15 11 25.5t30 10.5q16 0 34 -8.5t36 -22t34 -31.5t28 -36z" />
    <glyph glyph-name="Wacute" unicode="&#x1e82;" horiz-adv-x="827" 
d="M779 633l-178 -633h-50l-137 516l-138 -516h-50l-178 633h45l158 -578l139 522h48l138 -522l157 578h46zM331 696q12 18 28 36t34 31.5t36 22t34 8.5q19 0 30 -10.5t11 -25.5q0 -14 -10 -27q-20 5 -39 5q-26 0 -51.5 -11.5t-63.5 -40.5z" />
    <glyph glyph-name="Wcircumflex" unicode="&#x174;" horiz-adv-x="827" 
d="M779 633l-178 -633h-50l-137 516l-138 -516h-50l-178 633h45l158 -578l139 522h48l138 -522l157 578h46zM415 764l-62 -76h-45l80 97q5 7 11 10.5t15 3.5h8q11 0 16 -3t11 -11l80 -97h-46l-62 76h-6z" />
    <glyph glyph-name="Wdieresis" unicode="&#x1e84;" horiz-adv-x="827" 
d="M779 633l-178 -633h-50l-137 516l-138 -516h-50l-178 633h45l158 -578l139 522h48l138 -522l157 578h46zM381 746q0 -20 -11.5 -30.5t-28.5 -10.5t-28 10.5t-11 30.5t11 31t28 11t28.5 -11t11.5 -31zM526 746q0 -20 -11.5 -30.5t-28.5 -10.5t-28 10.5t-11 30.5t11 31
t28 11t28.5 -11t11.5 -31z" />
    <glyph glyph-name="Ygrave" unicode="&#x1ef2;" horiz-adv-x="527" 
d="M285 0h-43v222l-200 411h49l173 -363q42 88 87 181t87 182h47l-200 -411v-222zM341 684q-38 29 -63.5 40.5t-51.5 11.5q-19 0 -39 -5q-10 13 -10 27q0 15 11 25.5t30 10.5q16 0 34 -8.5t36 -22t34 -31.5t28 -36z" />
    <glyph glyph-name="Yacute" unicode="&#xdd;" horiz-adv-x="527" 
d="M285 0h-43v222l-200 411h49l173 -363q42 88 87 181t87 182h47l-200 -411v-222zM178 696q12 18 28 36t34 31.5t36 22t34 8.5q19 0 30 -10.5t11 -25.5q0 -14 -10 -27q-20 5 -39 5q-26 0 -51.5 -11.5t-63.5 -40.5z" />
    <glyph glyph-name="Ycircumflex" unicode="&#x176;" horiz-adv-x="527" 
d="M285 0h-43v222l-200 411h49l173 -363q42 88 87 181t87 182h47l-200 -411v-222zM261 764l-62 -76h-45l80 97q5 7 11 10.5t15 3.5h8q11 0 16 -3t11 -11l80 -97h-46l-62 76h-6z" />
    <glyph glyph-name="Ydieresis" unicode="&#x178;" horiz-adv-x="527" 
d="M285 0h-43v222l-200 411h49l173 -363q42 88 87 181t87 182h47l-200 -411v-222zM231 746q0 -20 -11.5 -30.5t-28.5 -10.5t-28 10.5t-11 30.5t11 31t28 11t28.5 -11t11.5 -31zM376 746q0 -20 -11.5 -30.5t-28.5 -10.5t-28 10.5t-11 30.5t11 31t28 11t28.5 -11t11.5 -31z
" />
    <glyph glyph-name="Zacute" unicode="&#x179;" horiz-adv-x="502" 
d="M438 40l-8 -40h-366v30l314 564h-290v39h342v-29l-314 -564h322zM183 696q12 18 28 36t34 31.5t36 22t34 8.5q19 0 30 -10.5t11 -25.5q0 -14 -10 -27q-20 5 -39 5q-26 0 -51.5 -11.5t-63.5 -40.5z" />
    <glyph glyph-name="Zcaron" unicode="&#x17d;" horiz-adv-x="502" 
d="M438 40l-8 -40h-366v30l314 564h-290v39h342v-29l-314 -564h322zM264 723l62 76h45l-80 -97q-5 -7 -11 -10.5t-15 -3.5h-8q-11 0 -16 3t-11 11l-80 97h46l62 -76h6z" />
    <glyph glyph-name="Zdotaccent" unicode="&#x17b;" horiz-adv-x="502" 
d="M438 40l-8 -40h-366v30l314 564h-290v39h342v-29l-314 -564h322zM302 751q0 -22 -13 -33.5t-31 -11.5q-17 0 -30 11.5t-13 33.5q0 23 13 34.5t30 11.5q18 0 31 -11.5t13 -34.5z" />
    <glyph glyph-name="agrave" unicode="&#xe0;" horiz-adv-x="486" 
d="M399 70q0 -20 6.5 -29t23.5 -9q13 0 27 7l-2 -36q-12 -6 -32 -6q-27 0 -44.5 16t-17.5 51v4q-16 -29 -53.5 -53t-94.5 -24q-34 0 -62.5 10t-49.5 29.5t-32.5 48t-11.5 66.5q0 42 14.5 72t40 49.5t61 28.5t77.5 9q28 0 56.5 -3.5t54.5 -9.5v45q0 65 -32.5 93.5t-95.5 28.5
q-32 0 -67.5 -7t-68.5 -20l-1 38q32 11 67 18t71 7q79 0 122.5 -36.5t43.5 -122.5v-265zM360 257q-26 6 -56.5 9t-53.5 3q-34 0 -62 -6t-48.5 -20.5t-32 -38t-11.5 -58.5q0 -58 30.5 -88.5t85.5 -30.5q36 0 63.5 12.5t46.5 33.5t28.5 49t9.5 60v75zM323 539
q-38 29 -63.5 40.5t-51.5 11.5q-19 0 -39 -5q-10 13 -10 27q0 15 11 25.5t30 10.5q16 0 34 -8.5t36 -22t34 -31.5t28 -36z" />
    <glyph glyph-name="aacute" unicode="&#xe1;" horiz-adv-x="486" 
d="M399 70q0 -20 6.5 -29t23.5 -9q13 0 27 7l-2 -36q-12 -6 -32 -6q-27 0 -44.5 16t-17.5 51v4q-16 -29 -53.5 -53t-94.5 -24q-34 0 -62.5 10t-49.5 29.5t-32.5 48t-11.5 66.5q0 42 14.5 72t40 49.5t61 28.5t77.5 9q28 0 56.5 -3.5t54.5 -9.5v45q0 65 -32.5 93.5t-95.5 28.5
q-32 0 -67.5 -7t-68.5 -20l-1 38q32 11 67 18t71 7q79 0 122.5 -36.5t43.5 -122.5v-265zM360 257q-26 6 -56.5 9t-53.5 3q-34 0 -62 -6t-48.5 -20.5t-32 -38t-11.5 -58.5q0 -58 30.5 -88.5t85.5 -30.5q36 0 63.5 12.5t46.5 33.5t28.5 49t9.5 60v75zM162 551q12 18 28 36
t34 31.5t36 22t34 8.5q19 0 30 -10.5t11 -25.5q0 -14 -10 -27q-20 5 -39 5q-26 0 -51.5 -11.5t-63.5 -40.5z" />
    <glyph glyph-name="acircumflex" unicode="&#xe2;" horiz-adv-x="486" 
d="M399 70q0 -20 6.5 -29t23.5 -9q13 0 27 7l-2 -36q-12 -6 -32 -6q-27 0 -44.5 16t-17.5 51v4q-16 -29 -53.5 -53t-94.5 -24q-34 0 -62.5 10t-49.5 29.5t-32.5 48t-11.5 66.5q0 42 14.5 72t40 49.5t61 28.5t77.5 9q28 0 56.5 -3.5t54.5 -9.5v45q0 65 -32.5 93.5t-95.5 28.5
q-32 0 -67.5 -7t-68.5 -20l-1 38q32 11 67 18t71 7q79 0 122.5 -36.5t43.5 -122.5v-265zM360 257q-26 6 -56.5 9t-53.5 3q-34 0 -62 -6t-48.5 -20.5t-32 -38t-11.5 -58.5q0 -58 30.5 -88.5t85.5 -30.5q36 0 63.5 12.5t46.5 33.5t28.5 49t9.5 60v75zM247 623l-62 -76h-45
l80 97q5 7 11 10.5t15 3.5h8q11 0 16 -3t11 -11l80 -97h-46l-62 76h-6z" />
    <glyph glyph-name="atilde" unicode="&#xe3;" horiz-adv-x="486" 
d="M399 70q0 -20 6.5 -29t23.5 -9q13 0 27 7l-2 -36q-12 -6 -32 -6q-27 0 -44.5 16t-17.5 51v4q-16 -29 -53.5 -53t-94.5 -24q-34 0 -62.5 10t-49.5 29.5t-32.5 48t-11.5 66.5q0 42 14.5 72t40 49.5t61 28.5t77.5 9q28 0 56.5 -3.5t54.5 -9.5v45q0 65 -32.5 93.5t-95.5 28.5
q-32 0 -67.5 -7t-68.5 -20l-1 38q32 11 67 18t71 7q79 0 122.5 -36.5t43.5 -122.5v-265zM360 257q-26 6 -56.5 9t-53.5 3q-34 0 -62 -6t-48.5 -20.5t-32 -38t-11.5 -58.5q0 -58 30.5 -88.5t85.5 -30.5q36 0 63.5 12.5t46.5 33.5t28.5 49t9.5 60v75zM297 603q13 0 22 8.5
t17 29.5h17q-5 -35 -20.5 -57t-41.5 -22q-15 0 -27 6t-23.5 12.5t-23.5 12.5t-26 6q-13 0 -22 -8t-17 -29h-16q5 35 20.5 57t41.5 22q13 0 24.5 -6t23 -13t24 -13t27.5 -6z" />
    <glyph glyph-name="adieresis" unicode="&#xe4;" horiz-adv-x="486" 
d="M399 70q0 -20 6.5 -29t23.5 -9q13 0 27 7l-2 -36q-12 -6 -32 -6q-27 0 -44.5 16t-17.5 51v4q-16 -29 -53.5 -53t-94.5 -24q-34 0 -62.5 10t-49.5 29.5t-32.5 48t-11.5 66.5q0 42 14.5 72t40 49.5t61 28.5t77.5 9q28 0 56.5 -3.5t54.5 -9.5v45q0 65 -32.5 93.5t-95.5 28.5
q-32 0 -67.5 -7t-68.5 -20l-1 38q32 11 67 18t71 7q79 0 122.5 -36.5t43.5 -122.5v-265zM360 257q-26 6 -56.5 9t-53.5 3q-34 0 -62 -6t-48.5 -20.5t-32 -38t-11.5 -58.5q0 -58 30.5 -88.5t85.5 -30.5q36 0 63.5 12.5t46.5 33.5t28.5 49t9.5 60v75zM211 601
q0 -20 -11.5 -30.5t-28.5 -10.5t-28 10.5t-11 30.5t11 31t28 11t28.5 -11t11.5 -31zM356 601q0 -20 -11.5 -30.5t-28.5 -10.5t-28 10.5t-11 30.5t11 31t28 11t28.5 -11t11.5 -31z" />
    <glyph glyph-name="amacron" unicode="&#x101;" horiz-adv-x="486" 
d="M399 70q0 -20 6.5 -29t23.5 -9q13 0 27 7l-2 -36q-12 -6 -32 -6q-27 0 -44.5 16t-17.5 51v4q-16 -29 -53.5 -53t-94.5 -24q-34 0 -62.5 10t-49.5 29.5t-32.5 48t-11.5 66.5q0 42 14.5 72t40 49.5t61 28.5t77.5 9q28 0 56.5 -3.5t54.5 -9.5v45q0 65 -32.5 93.5t-95.5 28.5
q-32 0 -67.5 -7t-68.5 -20l-1 38q32 11 67 18t71 7q79 0 122.5 -36.5t43.5 -122.5v-265zM360 257q-26 6 -56.5 9t-53.5 3q-34 0 -62 -6t-48.5 -20.5t-32 -38t-11.5 -58.5q0 -58 30.5 -88.5t85.5 -30.5q36 0 63.5 12.5t46.5 33.5t28.5 49t9.5 60v75zM337 580h-193v41h193v-41
z" />
    <glyph glyph-name="abreve" unicode="&#x103;" horiz-adv-x="486" 
d="M399 70q0 -20 6.5 -29t23.5 -9q13 0 27 7l-2 -36q-12 -6 -32 -6q-27 0 -44.5 16t-17.5 51v4q-16 -29 -53.5 -53t-94.5 -24q-34 0 -62.5 10t-49.5 29.5t-32.5 48t-11.5 66.5q0 42 14.5 72t40 49.5t61 28.5t77.5 9q28 0 56.5 -3.5t54.5 -9.5v45q0 65 -32.5 93.5t-95.5 28.5
q-32 0 -67.5 -7t-68.5 -20l-1 38q32 11 67 18t71 7q79 0 122.5 -36.5t43.5 -122.5v-265zM360 257q-26 6 -56.5 9t-53.5 3q-34 0 -62 -6t-48.5 -20.5t-32 -38t-11.5 -58.5q0 -58 30.5 -88.5t85.5 -30.5q36 0 63.5 12.5t46.5 33.5t28.5 49t9.5 60v75zM245 546
q-38 0 -65.5 25.5t-31.5 75.5h23q8 -29 24.5 -43.5t49.5 -14.5q34 0 50 14.5t24 43.5h23q-4 -50 -31 -75.5t-66 -25.5z" />
    <glyph glyph-name="acaron" unicode="&#x1ce;" horiz-adv-x="486" 
d="M399 70q0 -20 6.5 -29t23.5 -9q13 0 27 7l-2 -36q-12 -6 -32 -6q-27 0 -44.5 16t-17.5 51v4q-16 -29 -53.5 -53t-94.5 -24q-34 0 -62.5 10t-49.5 29.5t-32.5 48t-11.5 66.5q0 42 14.5 72t40 49.5t61 28.5t77.5 9q28 0 56.5 -3.5t54.5 -9.5v45q0 65 -32.5 93.5t-95.5 28.5
q-32 0 -67.5 -7t-68.5 -20l-1 38q32 11 67 18t71 7q79 0 122.5 -36.5t43.5 -122.5v-265zM360 257q-26 6 -56.5 9t-53.5 3q-34 0 -62 -6t-48.5 -20.5t-32 -38t-11.5 -58.5q0 -58 30.5 -88.5t85.5 -30.5q36 0 63.5 12.5t46.5 33.5t28.5 49t9.5 60v75zM256 582l62 76h45
l-80 -97q-5 -7 -11 -10.5t-15 -3.5h-8q-11 0 -16 3t-11 11l-80 97h46l62 -76h6z" />
    <glyph glyph-name="aring" unicode="&#xe5;" horiz-adv-x="486" 
d="M399 70q0 -20 6.5 -29t23.5 -9q13 0 27 7l-2 -36q-12 -6 -32 -6q-27 0 -44.5 16t-17.5 51v4q-16 -29 -53.5 -53t-94.5 -24q-34 0 -62.5 10t-49.5 29.5t-32.5 48t-11.5 66.5q0 42 14.5 72t40 49.5t61 28.5t77.5 9q28 0 56.5 -3.5t54.5 -9.5v45q0 65 -32.5 93.5t-95.5 28.5
q-32 0 -67.5 -7t-68.5 -20l-1 38q32 11 67 18t71 7q79 0 122.5 -36.5t43.5 -122.5v-265zM360 257q-26 6 -56.5 9t-53.5 3q-34 0 -62 -6t-48.5 -20.5t-32 -38t-11.5 -58.5q0 -58 30.5 -88.5t85.5 -30.5q36 0 63.5 12.5t46.5 33.5t28.5 49t9.5 60v75zM245 573q20 0 31.5 13
t11.5 33q0 21 -11.5 34t-31.5 13t-31.5 -12.5t-11.5 -34.5q0 -21 11.5 -33.5t31.5 -12.5zM245 543q-30 0 -53 21t-23 55q0 35 23 55.5t53 20.5q31 0 53.5 -21t22.5 -55q0 -33 -22.5 -54.5t-53.5 -21.5z" />
    <glyph glyph-name="aringacute" unicode="&#x1fb;" horiz-adv-x="486" 
d="M399 70q0 -20 6.5 -29t23.5 -9q13 0 27 7l-2 -36q-12 -6 -32 -6q-27 0 -44.5 16t-17.5 51v4q-16 -29 -53.5 -53t-94.5 -24q-34 0 -62.5 10t-49.5 29.5t-32.5 48t-11.5 66.5q0 42 14.5 72t40 49.5t61 28.5t77.5 9q28 0 56.5 -3.5t54.5 -9.5v45q0 65 -32.5 93.5t-95.5 28.5
q-32 0 -67.5 -7t-68.5 -20l-1 38q32 11 67 18t71 7q79 0 122.5 -36.5t43.5 -122.5v-265zM360 257q-26 6 -56.5 9t-53.5 3q-34 0 -62 -6t-48.5 -20.5t-32 -38t-11.5 -58.5q0 -58 30.5 -88.5t85.5 -30.5q36 0 63.5 12.5t46.5 33.5t28.5 49t9.5 60v75zM245 573q20 0 31.5 13
t11.5 33q0 21 -11.5 34t-31.5 13t-31.5 -12.5t-11.5 -34.5q0 -21 11.5 -33.5t31.5 -12.5zM245 543q-30 0 -53 21t-23 55q0 35 23 55.5t53 20.5q31 0 53.5 -21t22.5 -55q0 -33 -22.5 -54.5t-53.5 -21.5zM162 733q12 18 28 36t34 31.5t36 22t34 8.5q19 0 30 -10.5t11 -25.5
q0 -14 -10 -27q-20 5 -39 5q-26 0 -51.5 -11.5t-63.5 -40.5z" />
    <glyph glyph-name="aogonek" unicode="&#x105;" horiz-adv-x="486" 
d="M491 -167q-59 5 -91 29.5t-32 67.5q0 23 10 41t24 29q-22 5 -32 22.5t-10 41.5v4q-16 -29 -53.5 -53t-94.5 -24q-34 0 -62.5 10t-49.5 29.5t-32.5 48t-11.5 66.5q0 42 14.5 72t40 49.5t61 28.5t77.5 9q29 0 57 -3.5t54 -9.5v45q0 65 -32.5 93.5t-95.5 28.5
q-32 0 -67.5 -7t-68.5 -20l-1 38q32 11 67 18t71 7q79 0 122.5 -36.5t43.5 -122.5v-265q0 -20 6.5 -29t23.5 -9q13 0 27 7l-2 -35q-25 -18 -35 -34t-10 -39q0 -35 23.5 -53t67.5 -24zM360 257q-26 6 -56.5 9t-53.5 3q-34 0 -62 -6t-48.5 -20.5t-32 -38t-11.5 -58.5
q0 -58 30.5 -88.5t85.5 -30.5q36 0 63.5 12.5t46.5 33.5t28.5 49t9.5 60v75z" />
    <glyph glyph-name="ae" unicode="&#xe6;" horiz-adv-x="781" 
d="M233 494q60 0 102 -23.5t57 -75.5q23 48 65.5 73.5t95.5 25.5q42 0 75.5 -16.5t56 -45.5t34.5 -69.5t12 -89.5q0 -23 -5 -35.5t-28 -12.5h-300q5 -100 48 -148t125 -48q35 0 70 10t70 34l-1 -42q-27 -17 -61.5 -28.5t-79.5 -11.5q-70 0 -116.5 30t-70.5 84
q-21 -55 -64.5 -84.5t-105.5 -29.5q-34 0 -62.5 10t-49.5 29.5t-32.5 48t-11.5 66.5q0 42 14.5 72t40 49.5t61 28.5t77.5 9q29 0 57 -3.5t54 -9.5v45q0 65 -32.5 93.5t-95.5 28.5q-32 0 -67.5 -7t-68.5 -20l-1 38q32 11 67 18t71 7zM360 257q-26 6 -56.5 9t-53.5 3
q-34 0 -62 -6t-48.5 -20.5t-32 -38t-11.5 -58.5q0 -58 30.5 -88.5t85.5 -30.5q36 0 63.5 12.5t46.5 33.5t28.5 49t9.5 60v75zM691 276q0 37 -8 70t-25 58t-43 39.5t-62 14.5q-72 0 -112 -53.5t-43 -144.5h282q8 0 9.5 4t1.5 12z" />
    <glyph glyph-name="aeacute" unicode="&#x1fd;" horiz-adv-x="781" 
d="M233 494q60 0 102 -23.5t57 -75.5q23 48 65.5 73.5t95.5 25.5q42 0 75.5 -16.5t56 -45.5t34.5 -69.5t12 -89.5q0 -23 -5 -35.5t-28 -12.5h-300q5 -100 48 -148t125 -48q35 0 70 10t70 34l-1 -42q-27 -17 -61.5 -28.5t-79.5 -11.5q-70 0 -116.5 30t-70.5 84
q-21 -55 -64.5 -84.5t-105.5 -29.5q-34 0 -62.5 10t-49.5 29.5t-32.5 48t-11.5 66.5q0 42 14.5 72t40 49.5t61 28.5t77.5 9q29 0 57 -3.5t54 -9.5v45q0 65 -32.5 93.5t-95.5 28.5q-32 0 -67.5 -7t-68.5 -20l-1 38q32 11 67 18t71 7zM360 257q-26 6 -56.5 9t-53.5 3
q-34 0 -62 -6t-48.5 -20.5t-32 -38t-11.5 -58.5q0 -58 30.5 -88.5t85.5 -30.5q36 0 63.5 12.5t46.5 33.5t28.5 49t9.5 60v75zM691 276q0 37 -8 70t-25 58t-43 39.5t-62 14.5q-72 0 -112 -53.5t-43 -144.5h282q8 0 9.5 4t1.5 12zM337 556q12 18 28 36t34 31.5t36 22t34 8.5
q19 0 30 -10.5t11 -25.5q0 -14 -10 -27q-20 5 -39 5q-26 0 -51.5 -11.5t-63.5 -40.5z" />
    <glyph glyph-name="cacute" unicode="&#x107;" horiz-adv-x="446" 
d="M370 363q-18 50 -44.5 72.5t-77.5 22.5q-75 0 -113.5 -57t-38.5 -157q0 -47 9.5 -86.5t29 -68t50 -44.5t72.5 -16q37 0 69.5 11.5t60.5 30.5l-1 -42q-24 -14 -55.5 -26t-73.5 -12q-97 0 -150 66t-53 185q0 57 13 103.5t37.5 79.5t60.5 51t83 18q66 0 103.5 -33t54.5 -88z
M164 556q12 18 28 36t34 31.5t36 22t34 8.5q19 0 30 -10.5t11 -25.5q0 -14 -10 -27q-20 5 -39 5q-26 0 -51.5 -11.5t-63.5 -40.5z" />
    <glyph glyph-name="ccedilla" unicode="&#xe7;" horiz-adv-x="446" 
d="M248 494q66 0 103.5 -33t54.5 -88l-36 -10q-18 50 -44.5 72.5t-77.5 22.5q-75 0 -113.5 -57t-38.5 -157q0 -47 9.5 -86.5t29 -68t50 -44.5t72.5 -16q37 0 69.5 11.5t60.5 30.5l-1 -42q-24 -14 -55.5 -26t-73.5 -12h-13q-15 -8 -15 -18q0 -6 5.5 -9.5t20.5 -7.5t27 -7.5
t21 -9.5t14 -14.5t5 -21.5q0 -28 -28 -45t-79 -17l-5 23q14 0 28 2t25 5.5t18 9t7 13.5q0 10 -12.5 16t-38.5 13q-15 4 -28 12t-13 25t14 36q-75 14 -115.5 78t-40.5 168q0 57 13 103.5t37.5 79.5t60.5 51t83 18z" />
    <glyph glyph-name="ccircumflex" unicode="&#x109;" horiz-adv-x="446" 
d="M370 363q-18 50 -44.5 72.5t-77.5 22.5q-75 0 -113.5 -57t-38.5 -157q0 -47 9.5 -86.5t29 -68t50 -44.5t72.5 -16q37 0 69.5 11.5t60.5 30.5l-1 -42q-24 -14 -55.5 -26t-73.5 -12q-97 0 -150 66t-53 185q0 57 13 103.5t37.5 79.5t60.5 51t83 18q66 0 103.5 -33t54.5 -88z
M248 623l-62 -76h-45l80 97q5 7 11 10.5t15 3.5h8q11 0 16 -3t11 -11l80 -97h-46l-62 76h-6z" />
    <glyph glyph-name="ccaron" unicode="&#x10d;" horiz-adv-x="446" 
d="M370 363q-18 50 -44.5 72.5t-77.5 22.5q-75 0 -113.5 -57t-38.5 -157q0 -47 9.5 -86.5t29 -68t50 -44.5t72.5 -16q37 0 69.5 11.5t60.5 30.5l-1 -42q-24 -14 -55.5 -26t-73.5 -12q-97 0 -150 66t-53 185q0 57 13 103.5t37.5 79.5t60.5 51t83 18q66 0 103.5 -33t54.5 -88z
M253 582l62 76h45l-80 -97q-5 -7 -11 -10.5t-15 -3.5h-8q-11 0 -16 3t-11 11l-80 97h46l62 -76h6z" />
    <glyph glyph-name="cdotaccent" unicode="&#x10b;" horiz-adv-x="446" 
d="M370 363q-18 50 -44.5 72.5t-77.5 22.5q-75 0 -113.5 -57t-38.5 -157q0 -47 9.5 -86.5t29 -68t50 -44.5t72.5 -16q37 0 69.5 11.5t60.5 30.5l-1 -42q-24 -14 -55.5 -26t-73.5 -12q-97 0 -150 66t-53 185q0 57 13 103.5t37.5 79.5t60.5 51t83 18q66 0 103.5 -33t54.5 -88z
M289 609q0 -22 -13 -33.5t-31 -11.5q-17 0 -30 11.5t-13 33.5q0 23 13 34.5t30 11.5q18 0 31 -11.5t13 -34.5z" />
    <glyph glyph-name="dcaron" unicode="&#x10f;" horiz-adv-x="520" 
d="M394 430q-56 28 -115 28q-86 0 -134.5 -57t-48.5 -168q0 -95 38 -150.5t115 -55.5q38 0 65.5 13.5t45 35.5t26 51t8.5 61v242zM394 68q-16 -30 -52 -53.5t-94 -23.5q-95 0 -144.5 64.5t-49.5 176.5q0 121 56.5 191.5t165.5 70.5q36 0 65 -7.5t53 -18.5v213h39v-611
q0 -20 6.5 -29t23.5 -9q13 0 27 7l-2 -36q-12 -6 -32 -6q-27 0 -44.5 16t-17.5 51v4zM569 640q0 -26 -16.5 -58.5t-51.5 -58.5l-12 14q17 16 29 36.5t14 40.5q-17 4 -26 15t-9 24q0 17 9.5 26.5t24.5 9.5t26.5 -11.5t11.5 -37.5z" />
    <glyph glyph-name="dcroat" unicode="&#x111;" horiz-adv-x="520" 
d="M486 562h-53v-492q0 -20 6.5 -29t23.5 -9q13 0 27 7l-2 -36q-12 -6 -32 -6q-27 0 -44.5 16t-17.5 51v4q-16 -30 -52 -53.5t-94 -23.5q-95 0 -144.5 64.5t-49.5 176.5q0 121 56.5 191.5t165.5 70.5q36 0 65 -7.5t53 -18.5v94h-161v35h161v84h39v-84h53v-35zM394 430
q-56 28 -115 28q-86 0 -134.5 -57t-48.5 -168q0 -95 38 -150.5t115 -55.5q38 0 65.5 13.5t45 35.5t26 51t8.5 61v242z" />
    <glyph glyph-name="eth" unicode="&#xf0;" horiz-adv-x="501" 
d="M255 401q78 0 147 -36q-3 37 -10 63t-19 51q-15 29 -33.5 53.5t-46.5 41.5q-8 -17 -16 -35.5t-15 -34.5l-34 12l33 72q-37 14 -86 17l5 32q29 -1 51.5 -4.5t44.5 -11.5l27 61l34 -13l-30 -64q32 -20 57.5 -46.5t42.5 -60.5q40 -78 40 -205q0 -59 -10 -113.5t-34 -96.5
t-62.5 -67t-95.5 -25q-42 0 -77.5 14.5t-60.5 41.5t-39 65.5t-14 86.5q0 94 52 148t149 54zM247 27q53 0 84 26t47.5 66.5t21.5 89.5t5 95v23q-32 17 -69.5 28t-77.5 11q-78 0 -120 -43.5t-42 -121.5t39.5 -126t111.5 -48z" />
    <glyph glyph-name="egrave" unicode="&#xe8;" horiz-adv-x="478" 
d="M428 273q0 -23 -5 -35.5t-28 -12.5h-300q5 -100 48 -148t125 -48q35 0 70 10t70 34l-1 -42q-27 -17 -61.5 -28.5t-79.5 -11.5q-53 0 -93 17.5t-66.5 50t-39.5 78.5t-13 103q0 63 15 110.5t41.5 79.5t62.5 48t77 16q42 0 75.5 -16.5t56 -45.5t34.5 -69.5t12 -89.5z
M388 276q0 37 -8 70t-25 58t-43 39.5t-62 14.5q-72 0 -112 -53.5t-43 -144.5h282q8 0 9.5 4t1.5 12zM325 544q-38 29 -63.5 40.5t-51.5 11.5q-19 0 -39 -5q-10 13 -10 27q0 15 11 25.5t30 10.5q16 0 34 -8.5t36 -22t34 -31.5t28 -36z" />
    <glyph glyph-name="eacute" unicode="&#xe9;" horiz-adv-x="478" 
d="M428 273q0 -23 -5 -35.5t-28 -12.5h-300q5 -100 48 -148t125 -48q35 0 70 10t70 34l-1 -42q-27 -17 -61.5 -28.5t-79.5 -11.5q-53 0 -93 17.5t-66.5 50t-39.5 78.5t-13 103q0 63 15 110.5t41.5 79.5t62.5 48t77 16q42 0 75.5 -16.5t56 -45.5t34.5 -69.5t12 -89.5z
M388 276q0 37 -8 70t-25 58t-43 39.5t-62 14.5q-72 0 -112 -53.5t-43 -144.5h282q8 0 9.5 4t1.5 12zM169 556q12 18 28 36t34 31.5t36 22t34 8.5q19 0 30 -10.5t11 -25.5q0 -14 -10 -27q-20 5 -39 5q-26 0 -51.5 -11.5t-63.5 -40.5z" />
    <glyph glyph-name="ecircumflex" unicode="&#xea;" horiz-adv-x="478" 
d="M428 273q0 -23 -5 -35.5t-28 -12.5h-300q5 -100 48 -148t125 -48q35 0 70 10t70 34l-1 -42q-27 -17 -61.5 -28.5t-79.5 -11.5q-53 0 -93 17.5t-66.5 50t-39.5 78.5t-13 103q0 63 15 110.5t41.5 79.5t62.5 48t77 16q42 0 75.5 -16.5t56 -45.5t34.5 -69.5t12 -89.5z
M388 276q0 37 -8 70t-25 58t-43 39.5t-62 14.5q-72 0 -112 -53.5t-43 -144.5h282q8 0 9.5 4t1.5 12zM253 623l-62 -76h-45l80 97q5 7 11 10.5t15 3.5h8q11 0 16 -3t11 -11l80 -97h-46l-62 76h-6z" />
    <glyph glyph-name="ecaron" unicode="&#x11b;" horiz-adv-x="478" 
d="M428 273q0 -23 -5 -35.5t-28 -12.5h-300q5 -100 48 -148t125 -48q35 0 70 10t70 34l-1 -42q-27 -17 -61.5 -28.5t-79.5 -11.5q-53 0 -93 17.5t-66.5 50t-39.5 78.5t-13 103q0 63 15 110.5t41.5 79.5t62.5 48t77 16q42 0 75.5 -16.5t56 -45.5t34.5 -69.5t12 -89.5z
M388 276q0 37 -8 70t-25 58t-43 39.5t-62 14.5q-72 0 -112 -53.5t-43 -144.5h282q8 0 9.5 4t1.5 12zM258 582l62 76h45l-80 -97q-5 -7 -11 -10.5t-15 -3.5h-8q-11 0 -16 3t-11 11l-80 97h46l62 -76h6z" />
    <glyph glyph-name="edieresis" unicode="&#xeb;" horiz-adv-x="478" 
d="M428 273q0 -23 -5 -35.5t-28 -12.5h-300q5 -100 48 -148t125 -48q35 0 70 10t70 34l-1 -42q-27 -17 -61.5 -28.5t-79.5 -11.5q-53 0 -93 17.5t-66.5 50t-39.5 78.5t-13 103q0 63 15 110.5t41.5 79.5t62.5 48t77 16q42 0 75.5 -16.5t56 -45.5t34.5 -69.5t12 -89.5z
M388 276q0 37 -8 70t-25 58t-43 39.5t-62 14.5q-72 0 -112 -53.5t-43 -144.5h282q8 0 9.5 4t1.5 12zM218 609q0 -20 -11.5 -30.5t-28.5 -10.5t-28 10.5t-11 30.5t11 31t28 11t28.5 -11t11.5 -31zM363 609q0 -20 -11.5 -30.5t-28.5 -10.5t-28 10.5t-11 30.5t11 31t28 11
t28.5 -11t11.5 -31z" />
    <glyph glyph-name="emacron" unicode="&#x113;" horiz-adv-x="478" 
d="M428 273q0 -23 -5 -35.5t-28 -12.5h-300q5 -100 48 -148t125 -48q35 0 70 10t70 34l-1 -42q-27 -17 -61.5 -28.5t-79.5 -11.5q-53 0 -93 17.5t-66.5 50t-39.5 78.5t-13 103q0 63 15 110.5t41.5 79.5t62.5 48t77 16q42 0 75.5 -16.5t56 -45.5t34.5 -69.5t12 -89.5z
M388 276q0 37 -8 70t-25 58t-43 39.5t-62 14.5q-72 0 -112 -53.5t-43 -144.5h282q8 0 9.5 4t1.5 12zM346 594h-193v41h193v-41z" />
    <glyph glyph-name="ebreve" unicode="&#x115;" horiz-adv-x="478" 
d="M428 273q0 -23 -5 -35.5t-28 -12.5h-300q5 -100 48 -148t125 -48q35 0 70 10t70 34l-1 -42q-27 -17 -61.5 -28.5t-79.5 -11.5q-53 0 -93 17.5t-66.5 50t-39.5 78.5t-13 103q0 63 15 110.5t41.5 79.5t62.5 48t77 16q42 0 75.5 -16.5t56 -45.5t34.5 -69.5t12 -89.5z
M388 276q0 37 -8 70t-25 58t-43 39.5t-62 14.5q-72 0 -112 -53.5t-43 -144.5h282q8 0 9.5 4t1.5 12zM255 546q-38 0 -65.5 25.5t-31.5 75.5h23q8 -29 24.5 -43.5t49.5 -14.5q34 0 50 14.5t24 43.5h23q-4 -50 -31 -75.5t-66 -25.5z" />
    <glyph glyph-name="edotaccent" unicode="&#x117;" horiz-adv-x="478" 
d="M428 273q0 -23 -5 -35.5t-28 -12.5h-300q5 -100 48 -148t125 -48q35 0 70 10t70 34l-1 -42q-27 -17 -61.5 -28.5t-79.5 -11.5q-53 0 -93 17.5t-66.5 50t-39.5 78.5t-13 103q0 63 15 110.5t41.5 79.5t62.5 48t77 16q42 0 75.5 -16.5t56 -45.5t34.5 -69.5t12 -89.5z
M388 276q0 37 -8 70t-25 58t-43 39.5t-62 14.5q-72 0 -112 -53.5t-43 -144.5h282q8 0 9.5 4t1.5 12zM296 609q0 -22 -13 -33.5t-31 -11.5q-17 0 -30 11.5t-13 33.5q0 23 13 34.5t30 11.5q18 0 31 -11.5t13 -34.5z" />
    <glyph glyph-name="eogonek" unicode="&#x119;" horiz-adv-x="478" 
d="M428 273q0 -23 -5 -35.5t-28 -12.5h-300q5 -100 48 -148t125 -48q35 0 70 10t70 34l-1 -42q-20 -12 -36 -19t-34 -12q-22 -7 -35.5 -22t-13.5 -47q0 -35 23.5 -53t67.5 -24l-9 -21q-59 5 -91 29.5t-32 67.5q0 24 8.5 39t17.5 22h-7q-54 0 -93.5 17.5t-66 50t-39.5 78.5
t-13 103q0 63 15 110.5t41.5 79.5t62.5 48t77 16q42 0 75.5 -16.5t56 -45.5t34.5 -69.5t12 -89.5zM388 276q0 37 -8 70t-25 58t-43 39.5t-62 14.5q-72 0 -112 -53.5t-43 -144.5h282q8 0 9.5 4t1.5 12z" />
    <glyph glyph-name="gcircumflex" unicode="&#x11d;" horiz-adv-x="521" 
d="M437 28q0 -60 -6 -100t-29 -71q-21 -29 -58 -47.5t-100 -18.5q-77 0 -144 29v41q38 -17 74.5 -25.5t68.5 -8.5q51 0 81 14t47 37q19 25 23 63.5t4 79.5v54q-21 -32 -56 -53.5t-93 -21.5q-49 0 -85.5 16.5t-61 47.5t-36.5 73.5t-12 95.5q0 61 16.5 109t47 82t74.5 52
t99 18q38 0 73 -8t73 -23v-435zM398 437q-20 9 -48 15t-60 6q-91 0 -142.5 -59t-51.5 -165q0 -43 9 -79.5t27.5 -63t47.5 -41.5t70 -15q37 0 65 13t46.5 35t27.5 51t9 61v242zM280 623l-62 -76h-45l80 97q5 7 11 10.5t15 3.5h8q11 0 16 -3t11 -11l80 -97h-46l-62 76h-6z" />
    <glyph glyph-name="gbreve" unicode="&#x11f;" horiz-adv-x="521" 
d="M437 28q0 -60 -6 -100t-29 -71q-21 -29 -58 -47.5t-100 -18.5q-77 0 -144 29v41q38 -17 74.5 -25.5t68.5 -8.5q51 0 81 14t47 37q19 25 23 63.5t4 79.5v54q-21 -32 -56 -53.5t-93 -21.5q-49 0 -85.5 16.5t-61 47.5t-36.5 73.5t-12 95.5q0 61 16.5 109t47 82t74.5 52
t99 18q38 0 73 -8t73 -23v-435zM398 437q-20 9 -48 15t-60 6q-91 0 -142.5 -59t-51.5 -165q0 -43 9 -79.5t27.5 -63t47.5 -41.5t70 -15q37 0 65 13t46.5 35t27.5 51t9 61v242zM279 546q-38 0 -65.5 25.5t-31.5 75.5h23q8 -29 24.5 -43.5t49.5 -14.5q34 0 50 14.5t24 43.5h23
q-4 -50 -31 -75.5t-66 -25.5z" />
    <glyph glyph-name="gdotaccent" unicode="&#x121;" horiz-adv-x="521" 
d="M437 28q0 -60 -6 -100t-29 -71q-21 -29 -58 -47.5t-100 -18.5q-77 0 -144 29v41q38 -17 74.5 -25.5t68.5 -8.5q51 0 81 14t47 37q19 25 23 63.5t4 79.5v54q-21 -32 -56 -53.5t-93 -21.5q-49 0 -85.5 16.5t-61 47.5t-36.5 73.5t-12 95.5q0 61 16.5 109t47 82t74.5 52
t99 18q38 0 73 -8t73 -23v-435zM398 437q-20 9 -48 15t-60 6q-91 0 -142.5 -59t-51.5 -165q0 -43 9 -79.5t27.5 -63t47.5 -41.5t70 -15q37 0 65 13t46.5 35t27.5 51t9 61v242zM325 603q0 -22 -13 -33.5t-31 -11.5q-17 0 -30 11.5t-13 33.5q0 23 13 34.5t30 11.5
q18 0 31 -11.5t13 -34.5z" />
    <glyph glyph-name="gcommaaccent" unicode="&#x123;" horiz-adv-x="521" 
d="M437 28q0 -60 -6 -100t-29 -71q-21 -29 -58 -47.5t-100 -18.5q-77 0 -144 29v41q38 -17 74.5 -25.5t68.5 -8.5q51 0 81 14t47 37q19 25 23 63.5t4 79.5v54q-21 -32 -56 -53.5t-93 -21.5q-49 0 -85.5 16.5t-61 47.5t-36.5 73.5t-12 95.5q0 61 16.5 109t47 82t74.5 52
t99 18q38 0 73 -8t73 -23v-435zM398 437q-20 9 -48 15t-60 6q-91 0 -142.5 -59t-51.5 -165q0 -43 9 -79.5t27.5 -63t47.5 -41.5t70 -15q37 0 65 13t46.5 35t27.5 51t9 61v242zM232.985 588.964q0 25.999 16.499 58.4971t51.4971 58.4961l11.999 -13.999
q-16.998 -15.999 -28.998 -36.498q-11.999 -20.499 -13.999 -40.4971q16.999 -4 25.999 -15q8.99902 -10.999 8.99902 -23.998q0 -16.999 -9.49902 -26.498q-9.5 -9.5 -24.499 -9.5t-26.498 11.5q-11.5 11.499 -11.5 37.4971z" />
    <glyph glyph-name="hcircumflex" unicode="&#x125;" horiz-adv-x="521" 
d="M441 0h-39v317q0 63 -30 102t-100 39q-72 0 -110.5 -41t-38.5 -119v-298h-39v681h39v-263q22 35 58.5 55.5t91.5 20.5q83 0 125.5 -45.5t42.5 -131.5v-317zM104 802l-62 -76h-45l80 97q5 7 11 10.5t15 3.5h8q11 0 16 -3t11 -11l80 -97h-46l-62 76h-6z" />
    <glyph glyph-name="hbar" unicode="&#x127;" horiz-adv-x="521" 
d="M441 0h-39v317q0 63 -30 102t-100 39q-72 0 -110.5 -41t-38.5 -119v-298h-39v553h-64v35h64v93h39v-93h157v-35h-157v-135q22 35 58.5 55.5t91.5 20.5q83 0 125.5 -45.5t42.5 -131.5v-317z" />
    <glyph glyph-name="dotlessi" unicode="&#x131;" horiz-adv-x="219" 
d="M127 70q0 -20 6.5 -29t23.5 -9q13 0 27 7l-2 -36q-12 -6 -31 -6q-28 0 -45.5 15.5t-17.5 47.5v425h39v-415z" />
    <glyph glyph-name="igrave" unicode="&#xec;" horiz-adv-x="219" 
d="M127 70q0 -20 6.5 -29t23.5 -9q13 0 27 7l-2 -36q-12 -6 -31 -6q-28 0 -45.5 15.5t-17.5 47.5v425h39v-415zM169 539q-38 29 -63.5 40.5t-51.5 11.5q-19 0 -39 -5q-10 13 -10 27q0 15 11 25.5t30 10.5q16 0 34 -8.5t36 -22t34 -31.5t28 -36z" />
    <glyph glyph-name="iacute" unicode="&#xed;" horiz-adv-x="219" 
d="M127 70q0 -20 6.5 -29t23.5 -9q13 0 27 7l-2 -36q-12 -6 -31 -6q-28 0 -45.5 15.5t-17.5 47.5v425h39v-415zM39 551q12 18 28 36t34 31.5t36 22t34 8.5q19 0 30 -10.5t11 -25.5q0 -14 -10 -27q-20 5 -39 5q-26 0 -51.5 -11.5t-63.5 -40.5z" />
    <glyph glyph-name="icircumflex" unicode="&#xee;" horiz-adv-x="219" 
d="M127 70q0 -20 6.5 -29t23.5 -9q13 0 27 7l-2 -36q-12 -6 -31 -6q-28 0 -45.5 15.5t-17.5 47.5v425h39v-415zM103 623l-62 -76h-45l80 97q5 7 11 10.5t15 3.5h8q11 0 16 -3t11 -11l80 -97h-46l-62 76h-6z" />
    <glyph glyph-name="itilde" unicode="&#x129;" horiz-adv-x="219" 
d="M127 70q0 -20 6.5 -29t23.5 -9q13 0 27 7l-2 -36q-12 -6 -31 -6q-28 0 -45.5 15.5t-17.5 47.5v425h39v-415zM159 603q13 0 22 8.5t17 29.5h17q-5 -35 -20.5 -57t-41.5 -22q-15 0 -27 6t-23.5 12.5t-23.5 12.5t-26 6q-13 0 -22 -8t-17 -29h-16q5 35 20.5 57t41.5 22
q13 0 24.5 -6t23 -13t24 -13t27.5 -6z" />
    <glyph glyph-name="idieresis" unicode="&#xef;" horiz-adv-x="219" 
d="M127 70q0 -20 6.5 -29t23.5 -9q13 0 27 7l-2 -36q-12 -6 -31 -6q-28 0 -45.5 15.5t-17.5 47.5v425h39v-415zM74 601q0 -20 -11.5 -30.5t-28.5 -10.5t-28 10.5t-11 30.5t11 31t28 11t28.5 -11t11.5 -31zM219 601q0 -20 -11.5 -30.5t-28.5 -10.5t-28 10.5t-11 30.5t11 31
t28 11t28.5 -11t11.5 -31z" />
    <glyph glyph-name="imacron" unicode="&#x12b;" horiz-adv-x="219" 
d="M127 70q0 -20 6.5 -29t23.5 -9q13 0 27 7l-2 -36q-12 -6 -31 -6q-28 0 -45.5 15.5t-17.5 47.5v425h39v-415zM204 580h-193v41h193v-41z" />
    <glyph glyph-name="ibreve" unicode="&#x12d;" horiz-adv-x="219" 
d="M127 70q0 -20 6.5 -29t23.5 -9q13 0 27 7l-2 -36q-12 -6 -31 -6q-28 0 -45.5 15.5t-17.5 47.5v425h39v-415zM107 546q-38 0 -65.5 25.5t-31.5 75.5h23q8 -29 24.5 -43.5t49.5 -14.5q34 0 50 14.5t24 43.5h23q-4 -50 -31 -75.5t-66 -25.5z" />
    <glyph glyph-name="iogonek" unicode="&#x12f;" horiz-adv-x="219" 
d="M127 70q0 -20 6.5 -29t23.5 -9q13 0 27 7l-2 -31q-19 -18 -28 -36t-9 -41q0 -35 23.5 -53t67.5 -24l-9 -21q-59 5 -91 29.5t-32 67.5q0 23 9 40t23 28q-17 3 -32.5 16.5t-15.5 45.5v425h39v-415zM73 615q0 14 10 24.5t24 10.5t24.5 -10.5t10.5 -24.5t-10.5 -24t-24.5 -10
t-24 10t-10 24z" />
    <glyph glyph-name="jcircumflex" unicode="&#x135;" horiz-adv-x="211" 
d="M5 -166q30 0 46 9t24 27.5t9.5 46t1.5 64.5v504h39v-506q0 -38 -2 -70.5t-13.5 -57.5t-35.5 -39t-67 -14q-16 0 -31.5 2t-28.5 7l1 37q14 -5 29 -7.5t28 -2.5zM102 623l-62 -76h-45l80 97q5 7 11 10.5t15 3.5h8q11 0 16 -3t11 -11l80 -97h-46l-62 76h-6z" />
    <glyph glyph-name="kcommaaccent" unicode="&#x137;" horiz-adv-x="465" 
d="M448 3q-9 -4 -17 -5t-15 -1q-28 0 -45 13.5t-32 39.5l-118 206h-98v-256h-39v681h39v-390h97l146 194h44l-158 -209l121 -208q12 -20 23 -28t25 -8q6 0 13.5 2t14.5 4zM267 -89q0 -26 -16.5 -58.5t-51.5 -58.5l-12 14q17 16 29 36.5t14 40.5q-17 4 -26 15t-9 24
q0 17 9.5 26.5t24.5 9.5t26.5 -11.5t11.5 -37.5z" />
    <glyph glyph-name="kgreenlandic" unicode="&#x138;" horiz-adv-x="465" 
d="M448 3q-9 -4 -17 -5t-15 -1q-27 0 -43.5 13.5t-33.5 39.5l-118 186h-98v-236h-39v485h39v-214h98l139 214h45l-153 -229l121 -188q13 -20 25 -28t23 -8q5 0 13 2t15 4z" />
    <glyph glyph-name="lacute" unicode="&#x13a;" horiz-adv-x="215" 
d="M178 3q-12 -6 -31 -6q-28 0 -45.5 15.5t-17.5 47.5v621h39v-611q0 -20 6.5 -29t23.5 -9q13 0 27 7zM34 725q12 18 28 36t34 31.5t36 22t34 8.5q19 0 30 -10.5t11 -25.5q0 -14 -10 -27q-20 5 -39 5q-26 0 -51.5 -11.5t-63.5 -40.5z" />
    <glyph glyph-name="lcaron" unicode="&#x13e;" horiz-adv-x="228" 
d="M178 3q-12 -6 -31 -6q-28 0 -45.5 15.5t-17.5 47.5v621h39v-611q0 -20 6.5 -29t23.5 -9q13 0 27 7zM260 639q0 -26 -16.5 -58.5t-51.5 -58.5l-12 14q17 16 29 36.5t14 40.5q-17 4 -26 15t-9 24q0 17 9.5 26.5t24.5 9.5t26.5 -11.5t11.5 -37.5z" />
    <glyph glyph-name="lcommaaccent" unicode="&#x13c;" horiz-adv-x="215" 
d="M178 3q-12 -6 -31 -6q-28 0 -45.5 15.5t-17.5 47.5v621h39v-611q0 -20 6.5 -29t23.5 -9q13 0 27 7zM164 -89q0 -26 -16.5 -58.5t-51.5 -58.5l-12 14q17 16 29 36.5t14 40.5q-17 4 -26 15t-9 24q0 17 9.5 26.5t24.5 9.5t26.5 -11.5t11.5 -37.5z" />
    <glyph glyph-name="lslash" unicode="&#x142;" horiz-adv-x="264" 
d="M206 3q-12 -6 -31 -6q-28 0 -45.5 15.5t-17.5 47.5v267l-71 -40v41l71 39v314h39v-297l94 51v-41l-94 -52v-272q0 -20 6.5 -29t23.5 -9q13 0 27 7z" />
    <glyph glyph-name="longs" unicode="&#x17f;" horiz-adv-x="268" 
d="M311 645q-39 12 -69 12q-45 0 -63.5 -19.5t-18.5 -67.5v-570h-39v450h-75v35h75v91q0 55 28.5 86t88.5 31q20 0 38.5 -3.5t34.5 -8.5v-36z" />
    <glyph glyph-name="ldot" unicode="&#x140;" horiz-adv-x="309" 
d="M178 3q-12 -6 -31 -6q-28 0 -45.5 15.5t-17.5 47.5v621h39v-611q0 -20 6.5 -29t23.5 -9q13 0 27 7zM302 319q0 -22 -13 -33.5t-31 -11.5q-17 0 -30 11.5t-13 33.5q0 23 13 34.5t30 11.5q18 0 31 -11.5t13 -34.5z" />
    <glyph glyph-name="nacute" unicode="&#x144;" horiz-adv-x="521" 
d="M441 0h-39v317q0 63 -30 102t-100 39q-72 0 -110.5 -41t-38.5 -119v-298h-39v485h29l6 -72q22 38 59.5 59.5t94.5 21.5q83 0 125.5 -45.5t42.5 -131.5v-317zM185 556q12 18 28 36t34 31.5t36 22t34 8.5q19 0 30 -10.5t11 -25.5q0 -14 -10 -27q-20 5 -39 5
q-26 0 -51.5 -11.5t-63.5 -40.5z" />
    <glyph glyph-name="ncaron" unicode="&#x148;" horiz-adv-x="521" 
d="M441 0h-39v317q0 63 -30 102t-100 39q-72 0 -110.5 -41t-38.5 -119v-298h-39v485h29l6 -72q22 38 59.5 59.5t94.5 21.5q83 0 125.5 -45.5t42.5 -131.5v-317zM274 582l62 76h45l-80 -97q-5 -7 -11 -10.5t-15 -3.5h-8q-11 0 -16 3t-11 11l-80 97h46l62 -76h6z" />
    <glyph glyph-name="ntilde" unicode="&#xf1;" horiz-adv-x="521" 
d="M441 0h-39v317q0 63 -30 102t-100 39q-72 0 -110.5 -41t-38.5 -119v-298h-39v485h29l6 -72q22 38 59.5 59.5t94.5 21.5q83 0 125.5 -45.5t42.5 -131.5v-317zM318 603q13 0 22 8.5t17 29.5h17q-5 -35 -20.5 -57t-41.5 -22q-15 0 -27 6t-23.5 12.5t-23.5 12.5t-26 6
q-13 0 -22 -8t-17 -29h-16q5 35 20.5 57t41.5 22q13 0 24.5 -6t23 -13t24 -13t27.5 -6z" />
    <glyph glyph-name="ncommaaccent" unicode="&#x146;" horiz-adv-x="521" 
d="M441 0h-39v317q0 63 -30 102t-100 39q-72 0 -110.5 -41t-38.5 -119v-298h-39v485h29l6 -72q22 38 59.5 59.5t94.5 21.5q83 0 125.5 -45.5t42.5 -131.5v-317zM309 -89q0 -26 -16.5 -58.5t-51.5 -58.5l-12 14q17 16 29 36.5t14 40.5q-17 4 -26 15t-9 24q0 17 9.5 26.5
t24.5 9.5t26.5 -11.5t11.5 -37.5z" />
    <glyph glyph-name="napostrophe" unicode="&#x149;" horiz-adv-x="586" 
d="M506 0h-39v317q0 63 -30 102t-100 39q-72 0 -110.5 -41t-38.5 -119v-298h-39v485h29l6 -72q22 38 59.5 59.5t94.5 21.5q83 0 125.5 -45.5t42.5 -131.5v-317zM74 522q0 -26 -16.5 -58.5t-51.5 -58.5l-12 14q17 16 29 36.5t14 40.5q-17 4 -26 15t-9 24q0 17 9.5 26.5
t24.5 9.5t26.5 -11.5t11.5 -37.5z" />
    <glyph glyph-name="eng" unicode="&#x14b;" horiz-adv-x="521" 
d="M441 29q0 -38 -2 -70.5t-13.5 -57.5t-35.5 -39t-67 -14q-16 0 -31.5 2t-28.5 7l1 37q14 -5 29 -7.5t28 -2.5q30 0 46 9t24 27.5t9.5 46t1.5 64.5v286q0 63 -30 102t-100 39q-72 0 -110.5 -41t-38.5 -119v-298h-39v485h29l6 -72q22 38 59.5 59.5t94.5 21.5
q83 0 125.5 -45.5t42.5 -131.5v-288z" />
    <glyph glyph-name="ograve" unicode="&#xf2;" horiz-adv-x="508" 
d="M254 27q34 0 63 12.5t50 38.5t33 66.5t12 97.5q0 56 -12 97t-33 67.5t-50 39t-63 12.5q-70 0 -114 -52t-44 -164q0 -113 44 -164t114 -51zM254 -9q-45 0 -81.5 16.5t-63 48.5t-41 79t-14.5 107t14.5 107t41 79.5t63 49t81.5 16.5t81.5 -16.5t63 -49t41 -79.5t14.5 -107
t-14.5 -107t-41 -79t-63 -48.5t-81.5 -16.5zM334 539q-38 29 -63.5 40.5t-51.5 11.5q-19 0 -39 -5q-10 13 -10 27q0 15 11 25.5t30 10.5q16 0 34 -8.5t36 -22t34 -31.5t28 -36z" />
    <glyph glyph-name="oacute" unicode="&#xf3;" horiz-adv-x="508" 
d="M254 27q34 0 63 12.5t50 38.5t33 66.5t12 97.5q0 56 -12 97t-33 67.5t-50 39t-63 12.5q-70 0 -114 -52t-44 -164q0 -113 44 -164t114 -51zM254 -9q-45 0 -81.5 16.5t-63 48.5t-41 79t-14.5 107t14.5 107t41 79.5t63 49t81.5 16.5t81.5 -16.5t63 -49t41 -79.5t14.5 -107
t-14.5 -107t-41 -79t-63 -48.5t-81.5 -16.5zM171 551q12 18 28 36t34 31.5t36 22t34 8.5q19 0 30 -10.5t11 -25.5q0 -14 -10 -27q-20 5 -39 5q-26 0 -51.5 -11.5t-63.5 -40.5z" />
    <glyph glyph-name="ocircumflex" unicode="&#xf4;" horiz-adv-x="508" 
d="M254 27q34 0 63 12.5t50 38.5t33 66.5t12 97.5q0 56 -12 97t-33 67.5t-50 39t-63 12.5q-70 0 -114 -52t-44 -164q0 -113 44 -164t114 -51zM254 -9q-45 0 -81.5 16.5t-63 48.5t-41 79t-14.5 107t14.5 107t41 79.5t63 49t81.5 16.5t81.5 -16.5t63 -49t41 -79.5t14.5 -107
t-14.5 -107t-41 -79t-63 -48.5t-81.5 -16.5zM257 618l-62 -76h-45l80 97q5 7 11 10.5t15 3.5h8q11 0 16 -3t11 -11l80 -97h-46l-62 76h-6z" />
    <glyph glyph-name="otilde" unicode="&#xf5;" horiz-adv-x="508" 
d="M254 27q34 0 63 12.5t50 38.5t33 66.5t12 97.5q0 56 -12 97t-33 67.5t-50 39t-63 12.5q-70 0 -114 -52t-44 -164q0 -113 44 -164t114 -51zM254 -9q-45 0 -81.5 16.5t-63 48.5t-41 79t-14.5 107t14.5 107t41 79.5t63 49t81.5 16.5t81.5 -16.5t63 -49t41 -79.5t14.5 -107
t-14.5 -107t-41 -79t-63 -48.5t-81.5 -16.5zM308 603q13 0 22 8.5t17 29.5h17q-5 -35 -20.5 -57t-41.5 -22q-15 0 -27 6t-23.5 12.5t-23.5 12.5t-26 6q-13 0 -22 -8t-17 -29h-16q5 35 20.5 57t41.5 22q13 0 24.5 -6t23 -13t24 -13t27.5 -6z" />
    <glyph glyph-name="odieresis" unicode="&#xf6;" horiz-adv-x="508" 
d="M254 27q34 0 63 12.5t50 38.5t33 66.5t12 97.5q0 56 -12 97t-33 67.5t-50 39t-63 12.5q-70 0 -114 -52t-44 -164q0 -113 44 -164t114 -51zM254 -9q-45 0 -81.5 16.5t-63 48.5t-41 79t-14.5 107t14.5 107t41 79.5t63 49t81.5 16.5t81.5 -16.5t63 -49t41 -79.5t14.5 -107
t-14.5 -107t-41 -79t-63 -48.5t-81.5 -16.5zM223 601q0 -20 -11.5 -30.5t-28.5 -10.5t-28 10.5t-11 30.5t11 31t28 11t28.5 -11t11.5 -31zM368 601q0 -20 -11.5 -30.5t-28.5 -10.5t-28 10.5t-11 30.5t11 31t28 11t28.5 -11t11.5 -31z" />
    <glyph glyph-name="omacron" unicode="&#x14d;" horiz-adv-x="508" 
d="M254 27q34 0 63 12.5t50 38.5t33 66.5t12 97.5q0 56 -12 97t-33 67.5t-50 39t-63 12.5q-70 0 -114 -52t-44 -164q0 -113 44 -164t114 -51zM254 -9q-45 0 -81.5 16.5t-63 48.5t-41 79t-14.5 107t14.5 107t41 79.5t63 49t81.5 16.5t81.5 -16.5t63 -49t41 -79.5t14.5 -107
t-14.5 -107t-41 -79t-63 -48.5t-81.5 -16.5zM354 580h-193v41h193v-41z" />
    <glyph glyph-name="obreve" unicode="&#x14f;" horiz-adv-x="508" 
d="M254 27q34 0 63 12.5t50 38.5t33 66.5t12 97.5q0 56 -12 97t-33 67.5t-50 39t-63 12.5q-70 0 -114 -52t-44 -164q0 -113 44 -164t114 -51zM254 -9q-45 0 -81.5 16.5t-63 48.5t-41 79t-14.5 107t14.5 107t41 79.5t63 49t81.5 16.5t81.5 -16.5t63 -49t41 -79.5t14.5 -107
t-14.5 -107t-41 -79t-63 -48.5t-81.5 -16.5zM255 546q-38 0 -65.5 25.5t-31.5 75.5h23q8 -29 24.5 -43.5t49.5 -14.5q34 0 50 14.5t24 43.5h23q-4 -50 -31 -75.5t-66 -25.5z" />
    <glyph glyph-name="ohungarumlaut" unicode="&#x151;" horiz-adv-x="508" 
d="M254 27q34 0 63 12.5t50 38.5t33 66.5t12 97.5q0 56 -12 97t-33 67.5t-50 39t-63 12.5q-70 0 -114 -52t-44 -164q0 -113 44 -164t114 -51zM254 -9q-45 0 -81.5 16.5t-63 48.5t-41 79t-14.5 107t14.5 107t41 79.5t63 49t81.5 16.5t81.5 -16.5t63 -49t41 -79.5t14.5 -107
t-14.5 -107t-41 -79t-63 -48.5t-81.5 -16.5zM150 551q21 41 46.5 69.5t59.5 28.5q21 0 30.5 -11t9.5 -25q0 -16 -11 -29q-12 7 -32 7t-40.5 -11.5t-49.5 -40.5zM295 551q21 41 46.5 69.5t59.5 28.5q21 0 30.5 -11t9.5 -25q0 -16 -11 -29q-12 7 -32 7t-40.5 -11.5
t-49.5 -40.5z" />
    <glyph glyph-name="oslash" unicode="&#xf8;" horiz-adv-x="508" 
d="M255 -9q-26 0 -47 5t-40 14l-35 -78h-41l45 97q-39 30 -61 84t-22 129q0 60 14.5 107t41 79.5t63 49t81.5 16.5q24 0 47 -5t38 -13l33 72h41l-43 -92q40 -31 62 -85t22 -129q0 -60 -14.5 -106.5t-41 -79t-63 -49t-80.5 -16.5zM254 27q34 0 63 12.5t50 38.5t33 66.5
t12 96.5q0 66 -15.5 111t-41.5 68l-171 -378q31 -15 70 -15zM96 242q0 -66 15.5 -110t41.5 -68l171 378q-32 16 -70 16q-70 0 -114 -52t-44 -164z" />
    <glyph glyph-name="oslashacute" unicode="&#x1ff;" horiz-adv-x="508" 
d="M255 -9q-26 0 -47 5t-40 14l-35 -78h-41l45 97q-39 30 -61 84t-22 129q0 60 14.5 107t41 79.5t63 49t81.5 16.5q24 0 47 -5t38 -13l33 72h41l-43 -92q40 -31 62 -85t22 -129q0 -60 -14.5 -106.5t-41 -79t-63 -49t-80.5 -16.5zM254 27q34 0 63 12.5t50 38.5t33 66.5
t12 96.5q0 66 -15.5 111t-41.5 68l-171 -378q31 -15 70 -15zM96 242q0 -66 15.5 -110t41.5 -68l171 378q-32 16 -70 16q-70 0 -114 -52t-44 -164zM174 551q12 18 28 36t34 31.5t36 22t34 8.5q19 0 30 -10.5t11 -25.5q0 -14 -10 -27q-20 5 -39 5q-26 0 -51.5 -11.5
t-63.5 -40.5z" />
    <glyph glyph-name="oe" unicode="&#x153;" horiz-adv-x="835" 
d="M254 -9q-45 0 -81.5 16.5t-63 48.5t-41 79t-14.5 107t14.5 107t41 79.5t63 49t81.5 16.5q67 0 114 -36t63 -105q17 66 64 103.5t112 37.5q42 0 75.5 -16.5t56 -45.5t34.5 -69.5t12 -89.5q0 -23 -5 -35.5t-28 -12.5h-300q5 -100 48.5 -148t124.5 -48q35 0 70 10t70 34
l-1 -42q-27 -17 -61.5 -28.5t-79.5 -11.5q-75 0 -124.5 35t-67.5 100q-15 -64 -63 -99.5t-114 -35.5zM254 27q34 0 63 12.5t50 38.5t33 66.5t12 97.5q0 56 -12 97t-33 67.5t-50 39t-63 12.5q-70 0 -114 -52t-44 -164q0 -113 44 -164t114 -51zM745 276q0 37 -8 70t-25 58
t-43 39.5t-62 14.5q-72 0 -112 -53.5t-43 -144.5h282q8 0 9.5 4t1.5 12z" />
    <glyph glyph-name="thorn" unicode="&#xfe;" horiz-adv-x="508" 
d="M456 247q0 -57 -13 -104t-41.5 -80.5t-72.5 -52.5t-107 -19q-29 0 -54 4t-45 11v-202h-39v877h39v-262q46 75 145 75q46 0 81 -18t59 -50.5t36 -78t12 -100.5zM414 249q0 103 -39.5 156t-111.5 53q-66 0 -103 -42.5t-37 -117.5v-255q25 -8 52.5 -12t52.5 -4
q51 0 86.5 16.5t57.5 46t32 70t10 89.5z" />
    <glyph glyph-name="racute" unicode="&#x155;" horiz-adv-x="309" 
d="M280 453q-5 1 -13.5 1.5t-15.5 0.5q-66 0 -97 -44.5t-31 -120.5v-290h-39v485h29l7 -82q35 91 131 91q8 0 16 -0.5t13 -1.5v-39zM101 556q12 18 28 36t34 31.5t36 22t34 8.5q19 0 30 -10.5t11 -25.5q0 -14 -10 -27q-20 5 -39 5q-26 0 -51.5 -11.5t-63.5 -40.5z" />
    <glyph glyph-name="rcaron" unicode="&#x159;" horiz-adv-x="309" 
d="M280 453q-5 1 -13.5 1.5t-15.5 0.5q-66 0 -97 -44.5t-31 -120.5v-290h-39v485h29l7 -82q35 91 131 91q8 0 16 -0.5t13 -1.5v-39zM178 582l62 76h45l-80 -97q-5 -7 -11 -10.5t-15 -3.5h-8q-11 0 -16 3t-11 11l-80 97h46l62 -76h6z" />
    <glyph glyph-name="rcommaaccent" unicode="&#x157;" horiz-adv-x="309" 
d="M280 453q-5 1 -13.5 1.5t-15.5 0.5q-66 0 -97 -44.5t-31 -120.5v-290h-39v485h29l7 -82q35 91 131 91q8 0 16 -0.5t13 -1.5v-39zM144 -89q0 -26 -16.5 -58.5t-51.5 -58.5l-12 14q17 16 29 36.5t14 40.5q-17 4 -26 15t-9 24q0 17 9.5 26.5t24.5 9.5t26.5 -11.5t11.5 -37.5
z" />
    <glyph glyph-name="sacute" unicode="&#x15b;" horiz-adv-x="413" 
d="M362 126q0 -63 -43.5 -99t-119.5 -36q-33 0 -68.5 6.5t-68.5 19.5l5 37q70 -27 131 -27q63 0 93.5 27.5t30.5 71.5q0 21 -7.5 36t-22.5 27t-37.5 23t-52.5 24q-29 13 -54 25.5t-43 28.5t-28 36t-10 47q0 30 12.5 52.5t34 38t50.5 23t62 7.5q52 0 105 -17v-34
q-29 8 -55 11.5t-49 3.5q-57 0 -89 -22t-32 -64q0 -35 27 -55t87 -46q32 -14 58 -26.5t45 -28.5t29 -37.5t10 -52.5zM130 556q12 18 28 36t34 31.5t36 22t34 8.5q19 0 30 -10.5t11 -25.5q0 -14 -10 -27q-20 5 -39 5q-26 0 -51.5 -11.5t-63.5 -40.5z" />
    <glyph glyph-name="scircumflex" unicode="&#x15d;" horiz-adv-x="413" 
d="M362 126q0 -63 -43.5 -99t-119.5 -36q-33 0 -68.5 6.5t-68.5 19.5l5 37q70 -27 131 -27q63 0 93.5 27.5t30.5 71.5q0 21 -7.5 36t-22.5 27t-37.5 23t-52.5 24q-29 13 -54 25.5t-43 28.5t-28 36t-10 47q0 30 12.5 52.5t34 38t50.5 23t62 7.5q52 0 105 -17v-34
q-29 8 -55 11.5t-49 3.5q-57 0 -89 -22t-32 -64q0 -35 27 -55t87 -46q32 -14 58 -26.5t45 -28.5t29 -37.5t10 -52.5zM214 623l-62 -76h-45l80 97q5 7 11 10.5t15 3.5h8q11 0 16 -3t11 -11l80 -97h-46l-62 76h-6z" />
    <glyph glyph-name="scaron" unicode="&#x161;" horiz-adv-x="413" 
d="M362 126q0 -63 -43.5 -99t-119.5 -36q-33 0 -68.5 6.5t-68.5 19.5l5 37q70 -27 131 -27q63 0 93.5 27.5t30.5 71.5q0 21 -7.5 36t-22.5 27t-37.5 23t-52.5 24q-29 13 -54 25.5t-43 28.5t-28 36t-10 47q0 30 12.5 52.5t34 38t50.5 23t62 7.5q52 0 105 -17v-34
q-29 8 -55 11.5t-49 3.5q-57 0 -89 -22t-32 -64q0 -35 27 -55t87 -46q32 -14 58 -26.5t45 -28.5t29 -37.5t10 -52.5zM222 582l62 76h45l-80 -97q-5 -7 -11 -10.5t-15 -3.5h-8q-11 0 -16 3t-11 11l-80 97h46l62 -76h6z" />
    <glyph glyph-name="scedilla" unicode="&#x15f;" horiz-adv-x="413" 
d="M67 54q70 -27 131 -27q63 0 93.5 27.5t30.5 71.5q0 21 -7.5 36t-22.5 27t-37.5 23t-52.5 24q-29 13 -54 25.5t-43 28.5t-28 36t-10 47q0 30 12.5 52.5t34 38t50.5 23t62 7.5q52 0 105 -17v-34q-29 8 -55 11.5t-49 3.5q-57 0 -89 -22t-32 -64q0 -35 27 -55t87 -46
q32 -14 58 -26.5t45 -28.5t29 -37.5t10 -52.5q0 -63 -42 -96.5t-111 -38.5q-10 -8 -10 -17q0 -7 5.5 -10.5t20.5 -7.5t27 -7.5t21 -9.5t14 -14.5t5 -21.5q0 -28 -28 -45t-79 -17l-5 23q14 0 28 2t25 5.5t18 9t7 13.5q0 10 -12.5 16t-38.5 13q-15 4 -28 12t-13 25
q0 8 3.5 15.5t8.5 15.5q-29 2 -59.5 9t-56.5 17z" />
    <glyph glyph-name="scommaaccent" unicode="&#x219;" horiz-adv-x="413" 
d="M362 126q0 -63 -43.5 -99t-119.5 -36q-33 0 -68.5 6.5t-68.5 19.5l5 37q70 -27 131 -27q63 0 93.5 27.5t30.5 71.5q0 21 -7.5 36t-22.5 27t-37.5 23t-52.5 24q-29 13 -54 25.5t-43 28.5t-28 36t-10 47q0 30 12.5 52.5t34 38t50.5 23t62 7.5q52 0 105 -17v-34
q-29 8 -55 11.5t-49 3.5q-57 0 -89 -22t-32 -64q0 -35 27 -55t87 -46q32 -14 58 -26.5t45 -28.5t29 -37.5t10 -52.5zM254 -89q0 -26 -16.5 -58.5t-51.5 -58.5l-12 14q17 16 29 36.5t14 40.5q-17 4 -26 15t-9 24q0 17 9.5 26.5t24.5 9.5t26.5 -11.5t11.5 -37.5z" />
    <glyph glyph-name="germandbls" unicode="&#xdf;" horiz-adv-x="532" 
d="M482 126q0 -60 -41 -97.5t-124 -37.5q-35 0 -69 7t-64 18v40q36 -15 69.5 -22t62.5 -7q35 0 59 8t39 21.5t21.5 31.5t6.5 38q0 21 -7.5 36t-22.5 27t-37.5 23t-52.5 24q-29 13 -54 25.5t-43 28.5t-28 36t-10 47q0 30 12.5 52.5t34 38t50.5 23t62 7.5q10 0 24 -1t22 -3
q4 19 4 39q0 62 -33 95.5t-99 33.5q-35 0 -63.5 -10.5t-45.5 -32.5q-17 -21 -24.5 -53t-7.5 -72v-490h-39v498q0 92 37 136q21 26 56.5 42.5t86.5 16.5q45 0 76.5 -13t52 -35.5t29.5 -52t9 -61.5q0 -17 -2.5 -39t-6.5 -42q-17 4 -37 6t-38 2q-57 0 -89 -22t-32 -64
q0 -35 27 -55t87 -46q32 -14 58 -26.5t45 -28.5t29 -37.5t10 -52.5z" />
    <glyph glyph-name="tcaron" unicode="&#x165;" horiz-adv-x="324" 
d="M289 7q-40 -16 -76 -16q-23 0 -44.5 8t-37.5 27q-13 16 -18.5 38t-5.5 57v329h-75v35h75v134l39 16v-150h124v-35h-124v-317q0 -34 3 -52t11 -29t20.5 -18t36.5 -7q29 0 73 18zM299 658q0 -26 -16.5 -58.5t-51.5 -58.5l-12 14q17 16 29 36.5t14 40.5q-17 4 -26 15t-9 24
q0 17 9.5 26.5t24.5 9.5t26.5 -11.5t11.5 -37.5z" />
    <glyph glyph-name="tcommaaccent" unicode="&#x163;" horiz-adv-x="324" 
d="M289 7q-40 -16 -76 -16q-23 0 -44.5 8t-37.5 27q-13 16 -18.5 38t-5.5 57v329h-75v35h75v134l39 16v-150h124v-35h-124v-317q0 -34 3 -52t11 -29t20.5 -18t36.5 -7q29 0 73 18zM232 -89q0 -26 -16.5 -58.5t-51.5 -58.5l-12 14q17 16 29 36.5t14 40.5q-17 4 -26 15t-9 24
q0 17 9.5 26.5t24.5 9.5t26.5 -11.5t11.5 -37.5z" />
    <glyph glyph-name="uni021B" unicode="&#x21b;" horiz-adv-x="324" 
d="M289 7q-40 -16 -76 -16q-23 0 -44.5 8t-37.5 27q-13 16 -18.5 38t-5.5 57v329h-75v35h75v134l39 16v-150h124v-35h-124v-317q0 -34 3 -52t11 -29t20.5 -18t36.5 -7q29 0 73 18zM232 -89q0 -26 -16.5 -58.5t-51.5 -58.5l-12 14q17 16 29 36.5t14 40.5q-17 4 -26 15t-9 24
q0 17 9.5 26.5t24.5 9.5t26.5 -11.5t11.5 -37.5z" />
    <glyph glyph-name="tbar" unicode="&#x167;" horiz-adv-x="323" 
d="M44 299h62v151h-74v35h74v134l40 16v-150h124v-35h-124v-151h104v-35h-104v-131q0 -34 3 -52t11 -29q15 -25 57 -25q32 0 72 17l-1 -37q-38 -16 -75 -16q-23 0 -44 8t-38 27q-13 16 -19 38t-6 57v143h-62v35z" />
    <glyph glyph-name="ugrave" unicode="&#xf9;" horiz-adv-x="532" 
d="M441 70q0 -20 6.5 -29t23.5 -9q13 0 27 7l-2 -36q-12 -6 -32 -6q-27 0 -44.5 16t-17.5 51v4q-19 -30 -59.5 -53.5t-99.5 -23.5q-35 0 -64.5 9t-50.5 29t-32.5 51t-11.5 75v330h39v-328q0 -71 32.5 -99.5t88.5 -28.5q39 0 68.5 11.5t49.5 32t30 48t10 59.5v305h39v-415z
M343 539q-38 29 -63.5 40.5t-51.5 11.5q-19 0 -39 -5q-10 13 -10 27q0 15 11 25.5t30 10.5q16 0 34 -8.5t36 -22t34 -31.5t28 -36z" />
    <glyph glyph-name="uacute" unicode="&#xfa;" horiz-adv-x="532" 
d="M441 70q0 -20 6.5 -29t23.5 -9q13 0 27 7l-2 -36q-12 -6 -32 -6q-27 0 -44.5 16t-17.5 51v4q-19 -30 -59.5 -53.5t-99.5 -23.5q-35 0 -64.5 9t-50.5 29t-32.5 51t-11.5 75v330h39v-328q0 -71 32.5 -99.5t88.5 -28.5q39 0 68.5 11.5t49.5 32t30 48t10 59.5v305h39v-415z
M177 551q12 18 28 36t34 31.5t36 22t34 8.5q19 0 30 -10.5t11 -25.5q0 -14 -10 -27q-20 5 -39 5q-26 0 -51.5 -11.5t-63.5 -40.5z" />
    <glyph glyph-name="ucircumflex" unicode="&#xfb;" horiz-adv-x="532" 
d="M441 70q0 -20 6.5 -29t23.5 -9q13 0 27 7l-2 -36q-12 -6 -32 -6q-27 0 -44.5 16t-17.5 51v4q-19 -30 -59.5 -53.5t-99.5 -23.5q-35 0 -64.5 9t-50.5 29t-32.5 51t-11.5 75v330h39v-328q0 -71 32.5 -99.5t88.5 -28.5q39 0 68.5 11.5t49.5 32t30 48t10 59.5v305h39v-415z
M263 623l-62 -76h-45l80 97q5 7 11 10.5t15 3.5h8q11 0 16 -3t11 -11l80 -97h-46l-62 76h-6z" />
    <glyph glyph-name="utilde" unicode="&#x169;" horiz-adv-x="532" 
d="M441 70q0 -20 6.5 -29t23.5 -9q13 0 27 7l-2 -36q-12 -6 -32 -6q-27 0 -44.5 16t-17.5 51v4q-19 -30 -59.5 -53.5t-99.5 -23.5q-35 0 -64.5 9t-50.5 29t-32.5 51t-11.5 75v330h39v-328q0 -71 32.5 -99.5t88.5 -28.5q39 0 68.5 11.5t49.5 32t30 48t10 59.5v305h39v-415z
M315 603q13 0 22 8.5t17 29.5h17q-5 -35 -20.5 -57t-41.5 -22q-15 0 -27 6t-23.5 12.5t-23.5 12.5t-26 6q-13 0 -22 -8t-17 -29h-16q5 35 20.5 57t41.5 22q13 0 24.5 -6t23 -13t24 -13t27.5 -6z" />
    <glyph glyph-name="udieresis" unicode="&#xfc;" horiz-adv-x="532" 
d="M441 70q0 -20 6.5 -29t23.5 -9q13 0 27 7l-2 -36q-12 -6 -32 -6q-27 0 -44.5 16t-17.5 51v4q-19 -30 -59.5 -53.5t-99.5 -23.5q-35 0 -64.5 9t-50.5 29t-32.5 51t-11.5 75v330h39v-328q0 -71 32.5 -99.5t88.5 -28.5q39 0 68.5 11.5t49.5 32t30 48t10 59.5v305h39v-415z
M230 601q0 -20 -11.5 -30.5t-28.5 -10.5t-28 10.5t-11 30.5t11 31t28 11t28.5 -11t11.5 -31zM375 601q0 -20 -11.5 -30.5t-28.5 -10.5t-28 10.5t-11 30.5t11 31t28 11t28.5 -11t11.5 -31z" />
    <glyph glyph-name="umacron" unicode="&#x16b;" horiz-adv-x="532" 
d="M441 70q0 -20 6.5 -29t23.5 -9q13 0 27 7l-2 -36q-12 -6 -32 -6q-27 0 -44.5 16t-17.5 51v4q-19 -30 -59.5 -53.5t-99.5 -23.5q-35 0 -64.5 9t-50.5 29t-32.5 51t-11.5 75v330h39v-328q0 -71 32.5 -99.5t88.5 -28.5q39 0 68.5 11.5t49.5 32t30 48t10 59.5v305h39v-415z
M361 580h-193v41h193v-41z" />
    <glyph glyph-name="ubreve" unicode="&#x16d;" horiz-adv-x="532" 
d="M441 70q0 -20 6.5 -29t23.5 -9q13 0 27 7l-2 -36q-12 -6 -32 -6q-27 0 -44.5 16t-17.5 51v4q-19 -30 -59.5 -53.5t-99.5 -23.5q-35 0 -64.5 9t-50.5 29t-32.5 51t-11.5 75v330h39v-328q0 -71 32.5 -99.5t88.5 -28.5q39 0 68.5 11.5t49.5 32t30 48t10 59.5v305h39v-415z
M262 546q-38 0 -65.5 25.5t-31.5 75.5h23q8 -29 24.5 -43.5t49.5 -14.5q34 0 50 14.5t24 43.5h23q-4 -50 -31 -75.5t-66 -25.5z" />
    <glyph glyph-name="uring" unicode="&#x16f;" horiz-adv-x="532" 
d="M441 70q0 -20 6.5 -29t23.5 -9q13 0 27 7l-2 -36q-12 -6 -32 -6q-27 0 -44.5 16t-17.5 51v4q-19 -30 -59.5 -53.5t-99.5 -23.5q-35 0 -64.5 9t-50.5 29t-32.5 51t-11.5 75v330h39v-328q0 -71 32.5 -99.5t88.5 -28.5q39 0 68.5 11.5t49.5 32t30 48t10 59.5v305h39v-415z
M262 573q20 0 31.5 13t11.5 33q0 21 -11.5 34t-31.5 13t-31.5 -12.5t-11.5 -34.5q0 -21 11.5 -33.5t31.5 -12.5zM262 543q-30 0 -53 21t-23 55q0 35 23 55.5t53 20.5q31 0 53.5 -21t22.5 -55q0 -33 -22.5 -54.5t-53.5 -21.5z" />
    <glyph glyph-name="uhungarumlaut" unicode="&#x171;" horiz-adv-x="532" 
d="M441 70q0 -20 6.5 -29t23.5 -9q13 0 27 7l-2 -36q-12 -6 -32 -6q-27 0 -44.5 16t-17.5 51v4q-19 -30 -59.5 -53.5t-99.5 -23.5q-35 0 -64.5 9t-50.5 29t-32.5 51t-11.5 75v330h39v-328q0 -71 32.5 -99.5t88.5 -28.5q39 0 68.5 11.5t49.5 32t30 48t10 59.5v305h39v-415z
M158 556q21 41 46.5 69.5t59.5 28.5q21 0 30.5 -11t9.5 -25q0 -16 -11 -29q-12 7 -32 7t-40.5 -11.5t-49.5 -40.5zM303 556q21 41 46.5 69.5t59.5 28.5q21 0 30.5 -11t9.5 -25q0 -16 -11 -29q-12 7 -32 7t-40.5 -11.5t-49.5 -40.5z" />
    <glyph glyph-name="uogonek" unicode="&#x173;" horiz-adv-x="532" 
d="M441 70q0 -20 7 -29t24 -9q12 0 26 8l-2 -36q-24 -18 -31.5 -34t-7.5 -36q0 -36 21 -53.5t69 -24.5l-10 -23q-56 5 -88.5 27.5t-32.5 70.5q0 40 26 69q-17 5 -28.5 21.5t-11.5 42.5v2q-23 -30 -61.5 -52.5t-96.5 -22.5q-36 0 -65.5 9t-50.5 29t-32.5 51t-11.5 75v330h40
v-328q0 -71 32 -99.5t89 -28.5q39 0 68 11.5t49 32t30 48t10 59.5v305h39v-415z" />
    <glyph glyph-name="wgrave" unicode="&#x1e81;" horiz-adv-x="675" 
d="M475 53l132 432h40l-150 -485h-47l-112 389l-111 -389h-47l-152 485h43l133 -432l111 389h48zM419 539q-38 29 -63.5 40.5t-51.5 11.5q-19 0 -39 -5q-10 13 -10 27q0 15 11 25.5t30 10.5q16 0 34 -8.5t36 -22t34 -31.5t28 -36z" />
    <glyph glyph-name="wacute" unicode="&#x1e83;" horiz-adv-x="675" 
d="M475 53l132 432h40l-150 -485h-47l-112 389l-111 -389h-47l-152 485h43l133 -432l111 389h48zM257 551q12 18 28 36t34 31.5t36 22t34 8.5q19 0 30 -10.5t11 -25.5q0 -14 -10 -27q-20 5 -39 5q-26 0 -51.5 -11.5t-63.5 -40.5z" />
    <glyph glyph-name="wcircumflex" unicode="&#x175;" horiz-adv-x="675" 
d="M475 53l132 432h40l-150 -485h-47l-112 389l-111 -389h-47l-152 485h43l133 -432l111 389h48zM335 623l-62 -76h-45l80 97q5 7 11 10.5t15 3.5h8q11 0 16 -3t11 -11l80 -97h-46l-62 76h-6z" />
    <glyph glyph-name="wdieresis" unicode="&#x1e85;" horiz-adv-x="675" 
d="M475 53l132 432h40l-150 -485h-47l-112 389l-111 -389h-47l-152 485h43l133 -432l111 389h48zM307 601q0 -20 -11.5 -30.5t-28.5 -10.5t-28 10.5t-11 30.5t11 31t28 11t28.5 -11t11.5 -31zM452 601q0 -20 -11.5 -30.5t-28.5 -10.5t-28 10.5t-11 30.5t11 31t28 11
t28.5 -11t11.5 -31z" />
    <glyph glyph-name="ygrave" unicode="&#x1ef3;" horiz-adv-x="525" 
d="M441 28q0 -60 -6 -100t-29 -71q-21 -29 -58 -47.5t-100 -18.5q-77 0 -144 29v41q38 -17 74.5 -25.5t68.5 -8.5q51 0 81 14t47 37q19 25 23 63.5t4 79.5v47q-23 -32 -61.5 -54.5t-97.5 -22.5q-35 0 -64.5 9t-50.5 29t-32.5 51t-11.5 75v330h39v-328q0 -71 32.5 -99.5
t88.5 -28.5q39 0 68.5 11.5t49.5 32t30 48t10 59.5v305h39v-457zM340 539q-38 29 -63.5 40.5t-51.5 11.5q-19 0 -39 -5q-10 13 -10 27q0 15 11 25.5t30 10.5q16 0 34 -8.5t36 -22t34 -31.5t28 -36z" />
    <glyph glyph-name="yacute" unicode="&#xfd;" horiz-adv-x="525" 
d="M441 28q0 -60 -6 -100t-29 -71q-21 -29 -58 -47.5t-100 -18.5q-77 0 -144 29v41q38 -17 74.5 -25.5t68.5 -8.5q51 0 81 14t47 37q19 25 23 63.5t4 79.5v47q-23 -32 -61.5 -54.5t-97.5 -22.5q-35 0 -64.5 9t-50.5 29t-32.5 51t-11.5 75v330h39v-328q0 -71 32.5 -99.5
t88.5 -28.5q39 0 68.5 11.5t49.5 32t30 48t10 59.5v305h39v-457zM175 551q12 18 28 36t34 31.5t36 22t34 8.5q19 0 30 -10.5t11 -25.5q0 -14 -10 -27q-20 5 -39 5q-26 0 -51.5 -11.5t-63.5 -40.5z" />
    <glyph glyph-name="ycircumflex" unicode="&#x177;" horiz-adv-x="525" 
d="M441 28q0 -60 -6 -100t-29 -71q-21 -29 -58 -47.5t-100 -18.5q-77 0 -144 29v41q38 -17 74.5 -25.5t68.5 -8.5q51 0 81 14t47 37q19 25 23 63.5t4 79.5v47q-23 -32 -61.5 -54.5t-97.5 -22.5q-35 0 -64.5 9t-50.5 29t-32.5 51t-11.5 75v330h39v-328q0 -71 32.5 -99.5
t88.5 -28.5q39 0 68.5 11.5t49.5 32t30 48t10 59.5v305h39v-457zM259 623l-62 -76h-45l80 97q5 7 11 10.5t15 3.5h8q11 0 16 -3t11 -11l80 -97h-46l-62 76h-6z" />
    <glyph glyph-name="ydieresis" unicode="&#xff;" horiz-adv-x="525" 
d="M441 28q0 -60 -6 -100t-29 -71q-21 -29 -58 -47.5t-100 -18.5q-77 0 -144 29v41q38 -17 74.5 -25.5t68.5 -8.5q51 0 81 14t47 37q19 25 23 63.5t4 79.5v47q-23 -32 -61.5 -54.5t-97.5 -22.5q-35 0 -64.5 9t-50.5 29t-32.5 51t-11.5 75v330h39v-328q0 -71 32.5 -99.5
t88.5 -28.5q39 0 68.5 11.5t49.5 32t30 48t10 59.5v305h39v-457zM229 601q0 -20 -11.5 -30.5t-28.5 -10.5t-28 10.5t-11 30.5t11 31t28 11t28.5 -11t11.5 -31zM374 601q0 -20 -11.5 -30.5t-28.5 -10.5t-28 10.5t-11 30.5t11 31t28 11t28.5 -11t11.5 -31z" />
    <glyph glyph-name="zacute" unicode="&#x17a;" horiz-adv-x="405" 
d="M361 36l-3 -36h-310v35l265 415h-249v35h291v-35l-264 -414h270zM144 556q12 18 28 36t34 31.5t36 22t34 8.5q19 0 30 -10.5t11 -25.5q0 -14 -10 -27q-20 5 -39 5q-26 0 -51.5 -11.5t-63.5 -40.5z" />
    <glyph glyph-name="zcaron" unicode="&#x17e;" horiz-adv-x="405" 
d="M361 36l-3 -36h-310v35l265 415h-249v35h291v-35l-264 -414h270zM215 582l62 76h45l-80 -97q-5 -7 -11 -10.5t-15 -3.5h-8q-11 0 -16 3t-11 11l-80 97h46l62 -76h6z" />
    <glyph glyph-name="zdotaccent" unicode="&#x17c;" horiz-adv-x="405" 
d="M361 36l-3 -36h-310v35l265 415h-249v35h291v-35l-264 -414h270zM252 603q0 -22 -13 -33.5t-31 -11.5q-17 0 -30 11.5t-13 33.5q0 23 13 34.5t30 11.5q18 0 31 -11.5t13 -34.5z" />
    <glyph glyph-name="apple" unicode="&#xf8ff;" horiz-adv-x="500" 
d="M438 195h-252v61h189v65h-189v187h252v-62h-188v-62h188v-189zM438 571h-313v-508h69v-63h-132v633h376v-62z" />
    <glyph glyph-name="one.onum" horiz-adv-x="401" 
d="M347 0h-274v35h123v408l-114 -66l-18 31l149 86h24v-459h110v-35z" />
    <glyph glyph-name="two.onum" horiz-adv-x="449" 
d="M391 39l-8 -39h-311v29q0 36 12.5 63t34 49t50 40.5t60.5 37.5q30 18 51 33t34.5 30t20 31.5t6.5 37.5q0 48 -28 77.5t-85 29.5q-50 0 -81 -26.5t-49 -83.5l-38 11q17 64 62.5 99.5t108.5 35.5q36 0 65 -10.5t49.5 -29.5t31.5 -45.5t11 -57.5q0 -28 -9 -49t-26 -39
t-42 -35t-57 -37q-34 -21 -60 -38t-43 -34t-26 -36t-9 -44h275z" />
    <glyph glyph-name="three.onum" horiz-adv-x="474" 
d="M414 32q0 -42 -14.5 -77t-41 -60t-64.5 -38.5t-86 -13.5q-36 0 -75.5 7.5t-65.5 22.5l2 41q32 -17 67 -26t68 -9q78 0 120.5 40.5t42.5 112.5q0 58 -33.5 94t-118.5 40v40q70 8 98.5 40.5t28.5 84.5q0 57 -28.5 92t-88.5 35q-53 0 -83.5 -29t-47.5 -74l-38 11
q22 65 66 96.5t103 31.5q37 0 67 -11.5t51.5 -32.5t33 -50.5t11.5 -65.5q0 -58 -27.5 -93.5t-69.5 -50.5q53 -14 88 -51.5t35 -106.5z" />
    <glyph glyph-name="four.onum" horiz-adv-x="489" 
d="M451 2h-84v-140h-38v140h-282l-15 27l280 499l34 -19l-263 -469h246v138h38v-138h84v-38z" />
    <glyph glyph-name="five.onum" horiz-adv-x="454" 
d="M404 45q0 -96 -54 -149t-155 -53q-35 0 -67.5 6t-57.5 17l2 40q27 -12 59 -19.5t63 -7.5q78 0 120.5 42.5t42.5 127.5q0 39 -11 66t-33 44t-56.5 24.5t-95.5 7.5h-80v294h277v-39h-237v-219h43q53 0 94.5 -5.5t73.5 -24.5q33 -20 52.5 -58.5t19.5 -93.5z" />
    <glyph glyph-name="six.onum" horiz-adv-x="502" 
d="M70 285q0 57 9 120t34.5 115.5t70 87t116.5 34.5q24 0 50 -4.5t49 -13.5l-1 -38q-16 7 -42 13.5t-55 6.5q-49 0 -82 -23.5t-53.5 -61t-31.5 -84t-15 -92.5q26 26 65 43t88 17q46 0 78.5 -15t53.5 -41.5t30.5 -62.5t9.5 -78q0 -47 -11.5 -86.5t-34.5 -68.5t-57.5 -45.5
t-80.5 -16.5q-58 0 -95 25.5t-58 67.5t-29 94.5t-8 106.5zM269 366q-47 0 -83.5 -18t-68.5 -49q0 -57 6 -106.5t22 -86.5t44.5 -58t73.5 -21q37 0 63 14.5t42 39.5t23.5 58t7.5 70q0 33 -6 61.5t-21 50t-40 33.5t-63 12z" />
    <glyph glyph-name="seven.onum" horiz-adv-x="431" 
d="M363 457l-217 -595h-44l217 584h-291v39h325z" />
    <glyph glyph-name="eight.onum" horiz-adv-x="504" 
d="M446 158q0 -78 -49 -122.5t-134 -44.5q-46 0 -80 13t-56.5 36.5t-33.5 55t-11 68.5q0 69 34.5 113t91.5 64q-22 12 -41.5 25.5t-34.5 31.5t-23.5 41t-8.5 54q0 37 12.5 64.5t34 46.5t50.5 28.5t62 9.5q38 0 67 -11.5t48.5 -31.5t29.5 -46.5t10 -57.5q0 -61 -31 -97.5
t-79 -56.5q30 -15 56 -31.5t45 -37.5t30 -49t11 -65zM373 493q0 22 -6 42.5t-19.5 36t-36 25t-55.5 9.5q-56 0 -84 -28t-28 -82q0 -26 7 -45t22 -34.5t38 -29.5t56 -30q58 26 82 58.5t24 77.5zM403 159q0 33 -11 56.5t-32 42t-50.5 34t-65.5 31.5q-64 -22 -91.5 -63
t-27.5 -96q0 -66 36.5 -101.5t102.5 -35.5q36 0 62 10t43.5 28t25.5 42t8 52z" />
    <glyph glyph-name="nine.onum" horiz-adv-x="502" 
d="M432 200q0 -57 -9 -120t-34.5 -115.5t-70 -87t-116.5 -34.5q-24 0 -50 4.5t-49 13.5l1 38q16 -7 42 -13.5t55 -6.5q49 0 82 23.5t53.5 61t31 84t15.5 92.5q-26 -26 -65 -43t-88 -17q-46 0 -78.5 15t-53.5 41.5t-30.5 62.5t-9.5 78q0 46 11.5 86t34.5 69t57.5 45.5
t80.5 16.5q58 0 95 -25.5t58 -67.5t29 -94.5t8 -106.5zM233 119q47 0 83.5 18t68.5 49q0 57 -6 106.5t-22 86.5t-44.5 58t-73.5 21q-37 0 -63 -14.5t-42 -39.5t-23.5 -58t-7.5 -70q0 -33 6 -61.5t21 -50t40 -33.5t63 -12z" />
    <glyph glyph-name="zero.onum" horiz-adv-x="577" 
d="M289 458q-33 0 -64 -11.5t-55 -37t-38.5 -66.5t-14.5 -100t14.5 -100.5t38.5 -67t55 -37t64 -11.5t64 11.5t54.5 37t38 67t14.5 100.5t-14.5 100t-38 66.5t-54.5 37t-64 11.5zM289 -9q-47 0 -87.5 16t-69.5 48t-45.5 79t-16.5 109t16.5 109t45.5 78.5t69.5 47.5t87.5 16
t87 -16t69 -47.5t45.5 -78.5t16.5 -109t-16.5 -109t-45.5 -79t-69 -48t-87 -16z" />
    <glyph glyph-name="servicemark" unicode="&#x2120;" horiz-adv-x="726" 
d="M259 376q0 -27 -9 -45t-24 -29t-35 -15.5t-42 -4.5q-20 0 -43 3.5t-46 11.5l1 35q22 -8 44.5 -13t42.5 -5q34 0 55.5 13t21.5 45q0 22 -12 36t-30.5 24t-40 19t-40 21t-30.5 30t-12 46q0 45 31 67.5t77 22.5q15 0 33 -2.5t36 -7.5l-1 -33q-20 6 -36.5 8.5t-32.5 2.5
q-35 0 -54.5 -13t-19.5 -44q0 -21 12.5 -33.5t30.5 -22t40 -18t40 -21t30.5 -31t12.5 -47.5zM611 633h35v-346h-32v267l-113 -267h-28l-112 267v-267h-32v346h37l122 -291z" />
    <glyph glyph-name="ij" unicode="&#x133;" horiz-adv-x="420" 
d="M127 70q0 -20 6.5 -29t23.5 -9q13 0 27 7l-2 -36q-12 -6 -31 -6q-28 0 -45.5 15.5t-17.5 47.5v425h39v-415zM73 615q0 14 10 24.5t24 10.5t24.5 -10.5t10.5 -24.5t-10.5 -24t-24.5 -10t-24 10t-10 24zM214 -166q30 0 46 9t24 27.5t9.5 46t1.5 64.5v504h39v-506
q0 -38 -2 -70.5t-13.5 -57.5t-35.5 -39t-67 -14q-16 0 -31.5 2t-28.5 7l1 37q14 -5 29 -7.5t28 -2.5zM280 615q0 14 10 24.5t24 10.5t24.5 -10.5t10.5 -24.5t-10.5 -24t-24.5 -10t-24 10t-10 24z" />
    </font>
</defs>
</svg>
