<?xml version="1.0" standalone="no"?>
<!DOCTYPE svg PUBLIC "-//W3C//DTD SVG 1.1//EN" "http://www.w3.org/Graphics/SVG/1.1/DTD/svg11.dtd" >
<svg xmlns="http://www.w3.org/2000/svg">
<metadata>
Copyright (c) 2014 by Fontsmith Ltd. All rights reserved.
</metadata>
<defs>
<font id="GFModernWeb-Light" horiz-adv-x="673" >
  <font-face 
    font-family="GF Modern Web Light"
    font-weight="400"
    font-stretch="normal"
    units-per-em="1000"
    panose-1="2 0 5 3 4 0 0 2 0 4"
    ascent="750"
    descent="-250"
    x-height="672"
    cap-height="672"
    bbox="-140 -226 1199 1008"
    underline-thickness="50"
    underline-position="-50"
    unicode-range="U+000D-FB02"
  />
<missing-glyph horiz-adv-x="504" 
d="M14 672h476v-672h-476v672zM252 380l162 244h-324zM62 92l162 244l-162 244v-488zM280 336l162 -244v488zM252 292l-162 -244h324z" />
    <glyph glyph-name=".notdef" horiz-adv-x="504" 
d="M14 672h476v-672h-476v672zM252 380l162 244h-324zM62 92l162 244l-162 244v-488zM280 336l162 -244v488zM252 292l-162 -244h324z" />
    <glyph glyph-name=".null" horiz-adv-x="0" 
 />
    <glyph glyph-name=".null" horiz-adv-x="0" 
 />
    <glyph glyph-name="nonmarkingreturn" unicode="&#xd;" horiz-adv-x="240" 
 />
    <glyph glyph-name="space" unicode=" " horiz-adv-x="240" 
 />
    <glyph glyph-name="nonbreakingspace" unicode="&#xa0;" horiz-adv-x="240" 
 />
    <glyph glyph-name="A" unicode="A" 
d="M291 619q8 19 8 30t-4.5 16t-6.5 7h72l278 -672h-51l-82 200h-337l-82 -200h-51zM183 239h307l-153 374z" />
    <glyph glyph-name="B" unicode="B" 
d="M174 40h220q34 0 62.5 10.5t48.5 29t31.5 45t11.5 58.5q0 31 -11.5 57.5t-31.5 45t-48.5 29t-62.5 10.5h-220v-285zM174 363h205q32 0 58.5 10t46 27.5t30.5 42t11 54.5t-11 55t-30.5 43t-46 28t-58.5 10h-205v-270zM384 672q41 0 76 -12.5t60 -35.5t39 -54.5t14 -68.5
q0 -53 -29 -94t-80 -60q63 -16 98 -61t35 -107q0 -41 -15 -74t-41 -56t-62 -36t-79 -13h-274v607q0 48 -20 65h278z" />
    <glyph glyph-name="C" unicode="C" horiz-adv-x="662" 
d="M393 31q36 0 69.5 8t61 21.5t47.5 30t31 34.5v-71q-42 -31 -98.5 -48.5t-115.5 -17.5q-71 0 -130 25.5t-101.5 71.5t-66 110t-23.5 141t23.5 141t66 110t101.5 71.5t130 25.5q59 0 115 -17.5t97 -50.5v-70q-11 19 -31 36t-47 30.5t-60 21.5t-69 8q-62 0 -112.5 -22
t-87 -62.5t-56.5 -97t-20 -124.5t20 -124.5t56.5 -96.5t87 -62t112.5 -22z" />
    <glyph glyph-name="D" unicode="D" horiz-adv-x="737" 
d="M620 336q0 65 -21.5 119.5t-60 93.5t-92.5 60.5t-119 21.5h-152v-590h152q65 0 119 21.5t92.5 60.5t60 93.5t21.5 119.5zM332 672q75 0 137.5 -24.5t107 -68.5t69 -106t24.5 -137q0 -74 -24.5 -136t-69 -106.5t-107 -69t-137.5 -24.5h-206v607q0 48 -20 65h226z" />
    <glyph glyph-name="E" unicode="E" horiz-adv-x="621" 
d="M553 0h-427v607q0 48 -20 65h431v-41h-362v-267h330v-40h-330v-283h378v-41z" />
    <glyph glyph-name="F" unicode="F" horiz-adv-x="605" 
d="M537 672v-41h-362v-291h330v-41h-330v-299h-49v607q0 48 -20 65h431z" />
    <glyph glyph-name="G" unicode="G" horiz-adv-x="714" 
d="M631 41q-18 -10 -43 -19.5t-54.5 -17t-62.5 -12t-67 -4.5q-75 0 -137 25.5t-106.5 72t-69 110t-24.5 140.5q0 76 24 140t67.5 110.5t104 72t133.5 25.5q35 0 68.5 -6t62 -15t52 -20.5t38.5 -23.5v-70q-13 21 -35.5 38t-51.5 29t-62 19t-67 7q-63 0 -115.5 -22.5t-90 -63
t-58 -96.5t-20.5 -124t21 -124t59.5 -97t91.5 -63.5t118 -22.5q95 0 178 39v227h-171v39h237q-20 -17 -20 -65v-228z" />
    <glyph glyph-name="H" unicode="H" horiz-adv-x="794" 
d="M175 672v-308h441v308h49v-672h-49v324h-441v-324h-49v607q0 48 -20 65h69z" />
    <glyph glyph-name="I" unicode="I" horiz-adv-x="304" 
d="M175 672v-672h-49v607q0 48 -20 65h69z" />
    <glyph glyph-name="J" unicode="J" horiz-adv-x="462" 
d="M333 672v-509q0 -39 -13 -71t-36.5 -55t-56 -36t-71.5 -13q-32 0 -64 7.5t-54 18.5v57q15 -16 43.5 -28.5t65.5 -12.5q30 0 55 10t43.5 28t28.5 43t10 55v441q0 48 -20 65h69z" />
    <glyph glyph-name="K" unicode="K" horiz-adv-x="675" 
d="M174 672v-378l377 378h60l-313 -314l328 -358h-61l-301 327l-90 -89v-238h-48v607q0 48 -20 65h68z" />
    <glyph glyph-name="L" unicode="L" horiz-adv-x="552" 
d="M126 0v607q0 48 -20 65h69v-631h343v-41h-392z" />
    <glyph glyph-name="M" unicode="M" horiz-adv-x="882" 
d="M175 672l265 -358l264 358h49v-672h-46v603l-267 -364l-268 364v-603h-46v607q0 48 -20 65h69z" />
    <glyph glyph-name="N" unicode="N" horiz-adv-x="794" 
d="M175 672l444 -603v603h46v-672h-49l-444 603v-603h-46v607q0 48 -20 65h69z" />
    <glyph glyph-name="O" unicode="O" horiz-adv-x="779" 
d="M67 336q0 76 23.5 140t66.5 110.5t102.5 72t130.5 25.5t130 -25.5t102 -72t66.5 -110.5t23.5 -140q0 -77 -23.5 -140.5t-66.5 -110t-102 -72t-130 -25.5t-130.5 25.5t-102.5 72t-66.5 110t-23.5 140.5zM117 336q0 -67 20 -123.5t56.5 -97t86.5 -63.5t110 -23t110 23
t86 63.5t56 97t20 123.5t-20 123.5t-56 97t-86 63.5t-110 23t-110 -23t-86.5 -63.5t-56.5 -97t-20 -123.5z" />
    <glyph glyph-name="P" unicode="P" horiz-adv-x="638" 
d="M174 306h185q38 0 69.5 12t54.5 33.5t36 51.5t13 66t-13 65.5t-36 51t-54.5 33.5t-69.5 12h-185v-325zM364 672q48 0 87.5 -15t68.5 -42t45 -64t16 -82t-16 -82t-45 -64t-68.5 -42t-87.5 -15h-190v-266h-48v607q0 48 -20 65h258z" />
    <glyph glyph-name="Q" unicode="Q" horiz-adv-x="772" 
d="M67 336q0 76 23.5 140t66.5 110.5t102.5 72t130.5 25.5t130 -25.5t102 -72t66.5 -110.5t23.5 -140q0 -67 -19 -126.5t-54.5 -105.5t-86 -74.5t-113.5 -33.5q25 -3 50 -15t52 -25t57 -23.5t65 -10.5q26 0 47.5 7t37.5 18q-5 -8 -14.5 -18t-24.5 -19t-37 -15t-50 -6
q-42 0 -79.5 15t-73 33t-69.5 33t-70 15q-20 0 -40.5 -5.5t-40.5 -19.5q13 17 23 27.5t17 15.5q-51 15 -92 46t-70 74t-44.5 97t-15.5 116zM117 336q0 -67 20 -123.5t56.5 -97t86.5 -63.5t110 -23t110 23t86 63.5t56 97t20 123.5t-20 123.5t-56 97t-86 63.5t-110 23
t-110 -23t-86.5 -63.5t-56.5 -97t-20 -123.5z" />
    <glyph glyph-name="R" unicode="R" 
d="M174 322h186q36 0 66.5 11t52.5 31.5t34.5 49t12.5 63.5q0 34 -12.5 62.5t-34.5 48.5t-52.5 31.5t-66.5 11.5h-186v-309zM366 672q46 0 84 -14.5t65.5 -40.5t43 -61.5t15.5 -78.5q0 -39 -13 -72t-36 -58t-56 -40.5t-73 -19.5l204 -287h-56l-198 282h-172v-282h-48v607
q0 48 -20 65h260z" />
    <glyph glyph-name="S" unicode="S" horiz-adv-x="594" 
d="M294 29q42 0 76 10t58 27.5t37 42.5t13 55q0 39 -17.5 64.5t-46 43t-65 29t-75 23t-75 25t-65 34.5t-46 52t-17.5 77q0 38 16.5 70t46.5 54.5t71.5 35t91.5 12.5q59 0 108 -11t91 -32v-70q-6 12 -23.5 24.5t-43.5 23t-59 17.5t-70 7q-41 0 -74 -9.5t-56.5 -27
t-36.5 -41.5t-13 -53q0 -38 17.5 -63t46 -42t65 -28.5t74.5 -23t74.5 -25t65 -35t46 -53t17.5 -78.5q0 -39 -16.5 -71.5t-46.5 -56t-73 -36t-96 -12.5q-32 0 -64.5 4.5t-61.5 11.5t-53 15.5t-40 16.5v71q16 -21 43 -35.5t57.5 -24t62 -14t56.5 -4.5z" />
    <glyph glyph-name="T" unicode="T" horiz-adv-x="605" 
d="M99 631q-48 0 -65 -20v61h537v-41h-244v-631h-49v631h-179z" />
    <glyph glyph-name="U" unicode="U" horiz-adv-x="791" 
d="M165 672v-418q0 -50 17 -91t48 -71t72.5 -46.5t91.5 -16.5q49 0 91 16.5t72.5 46.5t47.5 71t17 91v418h49v-420q0 -58 -21 -106.5t-58 -83.5t-87.5 -54.5t-110.5 -19.5t-111 19.5t-88 54.5t-58 83.5t-21 106.5v355q0 48 -20 65h69z" />
    <glyph glyph-name="V" unicode="V" horiz-adv-x="670" 
d="M59 607q-7 17 -16.5 35t-27.5 30h69l250 -609l249 609h52l-278 -672h-47z" />
    <glyph glyph-name="W" unicode="W" horiz-adv-x="1010" 
d="M462 615q4 12 6 20t2 14q0 11 -4.5 16t-6.5 7h69l191 -609l192 609h50l-216 -672h-50l-191 609l-192 -609h-50l-195 607q-5 17 -13.5 35t-26.5 30h69l192 -609z" />
    <glyph glyph-name="X" unicode="X" horiz-adv-x="685" 
d="M94 630q-14 17 -24 27t-21 15h69l225 -295l224 295h56l-249 -328l261 -344h-57l-235 311l-236 -311h-57l261 344z" />
    <glyph glyph-name="Y" unicode="Y" horiz-adv-x="592" 
d="M52 628q-11 17 -20 27t-23 17h69l217 -332l216 332h56l-248 -377v-295h-49v295z" />
    <glyph glyph-name="Z" unicode="Z" horiz-adv-x="642" 
d="M574 0h-507v30l430 601h-418v41h483v-30l-429 -601h376q48 0 65 20v-61z" />
    <glyph glyph-name="ampersand" unicode="&#x26;" horiz-adv-x="642" 
d="M523 295q0 21 -11 28h57q0 -53 -14.5 -102.5t-41.5 -91.5l119 -129h-56l-93 100q-44 -54 -98 -83t-112 -29q-47 0 -87 14t-68.5 39.5t-44.5 60.5t-16 77q0 61 41.5 111t122.5 93q-41 42 -66.5 78.5t-25.5 81.5q0 31 11.5 57t32.5 44.5t50 29t64 10.5q33 0 60.5 -10
t47.5 -27.5t31 -41.5t11 -53q0 -25 -8 -47t-26 -43t-47 -42.5t-71 -45.5l198 -213q22 36 31 72t9 62zM102 182q0 -34 13 -62.5t36.5 -49t55 -32t69.5 -11.5q51 0 97.5 26.5t82.5 75.5l-211 228q-69 -39 -106 -81.5t-37 -93.5zM287 645q-51 0 -82.5 -28.5t-31.5 -74.5
q0 -37 24.5 -69.5t62.5 -70.5q73 40 103 73.5t30 73.5q0 42 -29.5 69t-76.5 27z" />
    <glyph glyph-name="at" unicode="@" horiz-adv-x="986" 
d="M67 336q0 98 32.5 180t90.5 141t138.5 92t176.5 33q90 0 166 -29.5t131 -82t86 -125t31 -159.5q0 -60 -13 -109t-37 -84.5t-57.5 -55t-73.5 -19.5q-43 0 -71 25t-33 65q-23 -42 -61.5 -66t-91.5 -24q-41 0 -75.5 16.5t-59.5 45.5t-39 69t-14 87q0 48 14 88t39 69t59.5 45
t75.5 16q51 0 88 -22.5t58 -63.5l5 76h40v-308q0 -36 18.5 -58t51.5 -22q30 0 55 16.5t43 46t27.5 71.5t9.5 93q0 79 -28 145.5t-77.5 113.5t-117.5 73.5t-149 26.5q-87 0 -160 -30t-125.5 -83.5t-81.5 -128t-29 -164.5q0 -89 29 -163.5t81.5 -128.5t125.5 -84t160 -30
q40 0 79 8t73.5 21.5t62.5 30.5t45 35v-60q-17 -11 -43.5 -24t-61 -24t-74 -18.5t-81.5 -7.5q-96 0 -176.5 33t-138.5 92t-90.5 140.5t-32.5 179.5zM340 336q0 -39 11 -71.5t31 -56.5t47.5 -37t60.5 -13q31 0 56 11t42.5 30t27 45.5t9.5 56.5v71q0 31 -9.5 57t-27 45
t-42.5 30t-56 11q-33 0 -60.5 -13t-47.5 -37t-31 -57t-11 -72z" />
    <glyph glyph-name="exclam" unicode="!" horiz-adv-x="282" 
d="M116 607q0 48 -20 65h69l-5 -471h-40zM102 28q0 16 10.5 27t26.5 11t27 -11t11 -27t-11 -26.5t-27 -10.5t-26.5 10.5t-10.5 26.5z" />
    <glyph glyph-name="exclamdown" unicode="&#xa1;" horiz-adv-x="281" 
d="M130.992 64.9961q0 -47.9971 19.999 -64.9961h-68.9961l5 470.972h39.9971zM144.991 643.961q0 -15.999 -10.499 -26.999q-10.5 -10.999 -26.499 -10.999t-26.998 10.999q-10.999 11 -10.999 26.999t10.999 26.498t26.998 10.499t26.499 -10.499
q10.499 -10.499 10.499 -26.498z" />
    <glyph glyph-name="question" unicode="?" horiz-adv-x="466" 
d="M194 201v11q0 31 12 56.5t30 47.5t39.5 42.5t39.5 42.5t30 47t12 56q0 30 -10.5 55.5t-29.5 44t-45 28.5t-57 10q-51 0 -95 -21t-70 -60v66q29 25 73.5 41t96.5 16q41 0 75 -13t58.5 -36.5t38 -55.5t13.5 -70q0 -36 -12.5 -64.5t-31 -53t-40.5 -45.5t-41 -42.5t-32 -44.5
t-14 -50v-8h-40zM176 28q0 16 10.5 27t26.5 11t27 -11t11 -27t-11 -26.5t-27 -10.5t-26.5 10.5t-10.5 26.5z" />
    <glyph glyph-name="questiondown" unicode="&#xbf;" horiz-adv-x="396" 
d="M254.984 470.972v-11q0 -30.998 -11.999 -56.4961q-11.999 -25.499 -29.998 -47.4971q-17.999 -21.999 -39.498 -42.498q-21.499 -20.498 -39.4971 -42.4971q-17.999 -21.999 -29.998 -46.9971q-12 -24.998 -12 -55.9961q0 -29.999 10.5 -55.4971
q10.499 -25.498 29.498 -43.9971t44.9971 -28.498q25.998 -10 56.9961 -10q50.9971 0 94.9941 20.999q43.998 20.999 69.9961 59.9961v-65.9961q-28.998 -24.998 -73.4951 -40.9971q-44.498 -15.999 -96.4941 -15.999q-40.998 0 -74.9961 12.999t-58.4961 36.498
q-24.498 23.498 -37.998 55.4961q-13.499 31.998 -13.499 69.9961q0 35.998 12.499 64.4961q12.5 28.498 30.999 52.9961q18.498 24.499 40.4971 45.498q21.999 20.998 40.9971 42.4971q18.999 21.499 31.998 44.4971q13 22.999 14 49.9971v8h39.9971zM272.983 643.961
q0 -15.999 -10.499 -26.999q-10.5 -10.999 -26.499 -10.999t-26.998 10.999q-10.999 11 -10.999 26.999t10.999 26.498t26.998 10.499t26.499 -10.499q10.499 -10.499 10.499 -26.498z" />
    <glyph glyph-name="asterisk" unicode="*" horiz-adv-x="502" 
d="M269 499l164 54l12 -35l-166 -54l102 -140l-29 -21l-101 141l-102 -141l-29 21l102 140l-165 54l12 35l164 -54v173h36v-173z" />
    <glyph glyph-name="period" unicode="." horiz-adv-x="264" 
d="M92 31q0 17 11.5 28.5t28.5 11.5t28.5 -11.5t11.5 -28.5t-11.5 -28.5t-28.5 -11.5t-28.5 11.5t-11.5 28.5z" />
    <glyph glyph-name="comma" unicode="," horiz-adv-x="262" 
d="M92 28q0 18 11 30.5t31 12.5q19 0 31.5 -14.5t12.5 -37.5q0 -17 -5.5 -34.5t-15 -32.5t-23.5 -25.5t-31 -11.5q8 4 14.5 13.5t10.5 20.5t6 23t2 22q-19 -3 -31.5 7t-12.5 27z" />
    <glyph glyph-name="colon" unicode=":" horiz-adv-x="282" 
d="M101 31q0 17 11.5 28.5t28.5 11.5t28.5 -11.5t11.5 -28.5t-11.5 -28.5t-28.5 -11.5t-28.5 11.5t-11.5 28.5zM101 451q0 17 11.5 28.5t28.5 11.5t28.5 -11.5t11.5 -28.5t-11.5 -28.5t-28.5 -11.5t-28.5 11.5t-11.5 28.5z" />
    <glyph glyph-name="semicolon" unicode=";" horiz-adv-x="281" 
d="M101 28q0 18 11 30.5t31 12.5q19 0 31.5 -14.5t12.5 -37.5q0 -17 -5.5 -34.5t-15 -32.5t-23.5 -25.5t-31 -11.5q8 4 14.5 13.5t10.5 20.5t6 23t2 22q-19 -3 -31.5 7t-12.5 27zM101 451q0 17 11.5 28.5t28.5 11.5t28.5 -11.5t11.5 -28.5t-11.5 -28.5t-28.5 -11.5
t-28.5 11.5t-11.5 28.5z" />
    <glyph glyph-name="ellipsis" unicode="&#x2026;" horiz-adv-x="1002" 
d="M141 31q0 17 11.5 28.5t28.5 11.5t28.5 -11.5t11.5 -28.5t-11.5 -28.5t-28.5 -11.5t-28.5 11.5t-11.5 28.5zM461 31q0 17 11.5 28.5t28.5 11.5t28.5 -11.5t11.5 -28.5t-11.5 -28.5t-28.5 -11.5t-28.5 11.5t-11.5 28.5zM781 31q0 17 11.5 28.5t28.5 11.5t28.5 -11.5
t11.5 -28.5t-11.5 -28.5t-28.5 -11.5t-28.5 11.5t-11.5 28.5z" />
    <glyph glyph-name="periodcentered" unicode="&#xb7;" horiz-adv-x="264" 
d="M92 344q0 17 11.5 28.5t28.5 11.5t28.5 -11.5t11.5 -28.5t-11.5 -28.5t-28.5 -11.5t-28.5 11.5t-11.5 28.5z" />
    <glyph glyph-name="uni22C5" unicode="&#x22c5;" horiz-adv-x="264" 
d="M92 344q0 17 11.5 28.5t28.5 11.5t28.5 -11.5t11.5 -28.5t-11.5 -28.5t-28.5 -11.5t-28.5 11.5t-11.5 28.5z" />
    <glyph glyph-name="bullet" unicode="&#x2022;" horiz-adv-x="514" 
d="M113 336q0 30 11 56t30.5 45.5t46 31t56.5 11.5t56 -11.5t45.5 -31t31 -45.5t11.5 -56t-11.5 -56.5t-31 -46t-45.5 -30.5t-56 -11t-56.5 11t-46 30.5t-30.5 46t-11 56.5z" />
    <glyph glyph-name="slash" unicode="/" horiz-adv-x="390" 
d="M327 760l40 -13l-304 -835l-40 13z" />
    <glyph glyph-name="parenleft" unicode="(" horiz-adv-x="351" 
d="M102 336q0 123 43 233t125 200l34 -25q-78 -83 -117.5 -187.5t-39.5 -220.5t39.5 -220.5t117.5 -187.5l-34 -25q-82 89 -125 199t-43 234z" />
    <glyph glyph-name="brokenbar" unicode="&#xa6;" horiz-adv-x="274" 
d="M158 791v-384h-42v384h42zM116 -169v384h42v-384h-42z" />
    <glyph glyph-name="parenright" unicode=")" horiz-adv-x="351" 
d="M248 336q0 -123 -42.5 -233t-124.5 -200l-35 25q78 83 117.5 187.5t39.5 220.5t-39.5 220.5t-117.5 187.5l35 25q82 -89 124.5 -199t42.5 -234z" />
    <glyph glyph-name="bracketleft" unicode="[" horiz-adv-x="356" 
d="M136 755h170v-41h-125v-756h125v-41h-170v838z" />
    <glyph glyph-name="backslash" unicode="\" horiz-adv-x="390" 
d="M23 747l40 13l304 -835l-40 -13z" />
    <glyph glyph-name="bracketright" unicode="]" horiz-adv-x="357" 
d="M219 -83h-170v41h125v756h-125v41h170v-838z" />
    <glyph glyph-name="braceleft" unicode="{" horiz-adv-x="343" 
d="M184 57q0 -20 3 -38.5t10.5 -32t19.5 -21.5t30 -8q20 0 32 6.5t14 8.5v-48q-4 -2 -16.5 -4.5t-29.5 -2.5q-29 0 -49.5 10.5t-33.5 28.5t-19.5 42t-6.5 52q0 43 7.5 86t7.5 85q0 41 -25 68t-66 27h-16v40h16q40 0 65.5 26.5t25.5 68.5q0 40 -7.5 84t-7.5 87q0 28 6.5 52
t19.5 42t33.5 28.5t49.5 10.5q17 0 29.5 -2.5t16.5 -4.5v-48q-2 2 -14 8.5t-32 6.5q-18 0 -30 -8t-19.5 -21.5t-10.5 -32t-3 -38.5q0 -39 6.5 -82t6.5 -85q0 -39 -18.5 -69.5t-54.5 -42.5q36 -12 54.5 -42.5t18.5 -69.5q0 -42 -6.5 -84.5t-6.5 -82.5z" />
    <glyph glyph-name="bar" unicode="|" horiz-adv-x="274" 
d="M116 791h42v-960h-42v960z" />
    <glyph glyph-name="braceright" unicode="}" horiz-adv-x="343" 
d="M159 57q0 40 -6.5 82.5t-6.5 84.5q0 39 18.5 69.5t54.5 42.5q-36 12 -54.5 42.5t-18.5 69.5q0 42 6.5 85t6.5 82q0 20 -3 38.5t-10.5 32t-19.5 21.5t-30 8q-20 0 -32 -6.5t-14 -8.5v48q4 2 16.5 4.5t29.5 2.5q28 0 49 -10.5t34 -28.5t19.5 -42t6.5 -52q0 -43 -7.5 -87
t-7.5 -84q0 -42 25.5 -68.5t65.5 -26.5h16v-40h-16q-41 0 -66 -27t-25 -68q0 -42 7.5 -85t7.5 -86q0 -28 -6.5 -52t-19.5 -42t-34 -28.5t-49 -10.5q-17 0 -29.5 2.5t-16.5 4.5v48q2 -2 14 -8.5t32 -6.5q18 0 30 8t19.5 21.5t10.5 32t3 38.5z" />
    <glyph glyph-name="hyphen" unicode="-" horiz-adv-x="330" 
d="M34 364h262v-39h-262v39z" />
    <glyph glyph-name="uni00AD" unicode="&#xad;" horiz-adv-x="329" 
d="M64 364h262v-39h-262v39z" />
    <glyph glyph-name="endash" unicode="&#x2013;" horiz-adv-x="490" 
d="M34 364h422v-39h-422v39z" />
    <glyph glyph-name="emdash" unicode="&#x2014;" horiz-adv-x="970" 
d="M34 364h902v-39h-902v39z" />
    <glyph glyph-name="underscore" unicode="_" horiz-adv-x="480" 
d="M0 -108h480v-40h-480v40z" />
    <glyph glyph-name="dagger" unicode="&#x2020;" horiz-adv-x="502" 
d="M270 672v-178h179v-39h-179v-455h-39v455h-178v39h178v113q0 48 -20 65h59z" />
    <glyph glyph-name="daggerdbl" unicode="&#x2021;" horiz-adv-x="502" 
d="M231 607q0 48 -20 65h59v-178h179v-39h-179v-238h179v-39h-179v-178h-39v178h-178v39h178v238h-178v39h178v113z" />
    <glyph glyph-name="section" unicode="&#xa7;" horiz-adv-x="540" 
d="M83 533q0 34 14 61.5t40 47.5t61.5 31t79.5 11q51 0 96.5 -11.5t77.5 -26.5v-70q-8 13 -24.5 25t-39.5 21.5t-50.5 15t-56.5 5.5q-69 0 -109.5 -30t-40.5 -80q0 -32 15 -53t39.5 -35t55.5 -24t63.5 -19.5t63.5 -21.5t55.5 -30.5t39.5 -46t15 -67.5q0 -43 -22.5 -76
t-64.5 -52q31 -19 51 -49t20 -76q0 -36 -14.5 -64.5t-40.5 -48.5t-63 -31t-82 -11q-27 0 -54.5 3.5t-53 9t-47.5 12.5t-37 15v71q15 -19 36.5 -32t47 -21.5t52.5 -12t53 -3.5q71 0 113 29.5t42 83.5q0 43 -25.5 67.5t-64.5 39.5t-83.5 27t-83.5 30.5t-64.5 49t-25.5 83.5
q0 43 23.5 76.5t68.5 50.5q-34 18 -55 48t-21 78zM115 282q0 -41 22.5 -65t56.5 -39t74.5 -25t76.5 -25q39 14 62 41.5t23 64.5q0 40 -21.5 64t-54 39t-71.5 25.5t-75 23.5q-43 -11 -68 -38.5t-25 -65.5z" />
    <glyph glyph-name="paragraph" unicode="&#xb6;" horiz-adv-x="596" 
d="M428 -160v790h-109v-356h-46q-47 0 -86.5 14.5t-68.5 41t-45 63t-16 80.5q0 43 16 80t45 63t68.5 41t86.5 15h217q-20 -17 -20 -65v-767h-42z" />
    <glyph glyph-name="registered" unicode="&#xae;" horiz-adv-x="848" 
d="M56 336q0 81 27 148.5t76 116.5t116.5 76t148.5 27t148.5 -27t116.5 -76t76 -116.5t27 -148.5t-27 -148.5t-76 -116.5t-116.5 -76t-148.5 -27t-148.5 27t-116.5 76t-76 116.5t-27 148.5zM96 337q0 -72 24.5 -132.5t68 -104t104 -68t132.5 -24.5t132 24.5t103.5 68t68 104
t24.5 132.5t-24.5 132t-68 103.5t-103.5 68t-132 24.5t-132.5 -24.5t-104 -68t-68 -103.5t-24.5 -132zM331 330h112q44 0 71 24.5t27 66.5q0 41 -27 66t-71 25h-112v-182zM447 544q28 0 52.5 -9t42 -25t27.5 -38.5t10 -49.5q0 -49 -30 -81.5t-78 -37.5l122 -175h-44
l-115 171h-103v-171h-37v351q0 48 -20 65h173z" />
    <glyph glyph-name="copyright" unicode="&#xa9;" horiz-adv-x="848" 
d="M56 336q0 81 27 148.5t76 116.5t116.5 76t148.5 27t148.5 -27t116.5 -76t76 -116.5t27 -148.5t-27 -148.5t-76 -116.5t-116.5 -76t-148.5 -27t-148.5 27t-116.5 76t-76 116.5t-27 148.5zM440 154q38 0 74 17t55 50v-60q-28 -19 -60.5 -30t-72.5 -11q-45 0 -82 16
t-64 44.5t-41.5 68t-14.5 87.5t14.5 87.5t41.5 68t64 44.5t82 16q40 0 71.5 -11t59.5 -30v-60q-19 33 -54 50t-73 17q-37 0 -67.5 -13.5t-52.5 -37.5t-34 -57.5t-12 -73.5q0 -41 12 -74.5t34 -57.5t52.5 -37t67.5 -13zM96 337q0 -72 24.5 -132.5t68 -104t104 -68
t132.5 -24.5t132 24.5t103.5 68t68 104t24.5 132.5t-24.5 132t-68 103.5t-103.5 68t-132 24.5t-132.5 -24.5t-104 -68t-68 -103.5t-24.5 -132z" />
    <glyph glyph-name="trademark" unicode="&#x2122;" horiz-adv-x="952" 
d="M509 672l157 -214l158 214h40v-416h-37v362l-161 -218l-161 218v-362h-36v351q0 48 -20 65h60zM218 639v-383h-39v383h-149v33h338v-48q-4 6 -11.5 9t-16.5 4.5t-17.5 1.5h-15.5h-89z" />
    <glyph glyph-name="quotedblleft" unicode="&#x201c;" horiz-adv-x="429" 
d="M337 568q0 -18 -11 -30.5t-31 -12.5q-19 0 -31.5 14.5t-12.5 37.5q0 16 5 34t15 33t24 25t31 12q-8 -5 -14.5 -14t-10.5 -20t-6 -23t-2 -22q19 3 31.5 -7t12.5 -27zM170 568q0 -18 -11 -30.5t-31 -12.5q-19 0 -31.5 14.5t-12.5 37.5q0 16 5 34t15 33t24 25t31 12
q-8 -5 -14.5 -14t-10.5 -20t-6 -23t-2 -22q19 3 31.5 -7t12.5 -27z" />
    <glyph glyph-name="quotedblright" unicode="&#x201d;" horiz-adv-x="429" 
d="M92 638q0 18 11 30.5t31 12.5q19 0 31.5 -14.5t12.5 -37.5q0 -17 -5.5 -34.5t-15 -32.5t-23.5 -25.5t-31 -11.5q8 4 14.5 13.5t10.5 20.5t6 23t2 22q-19 -3 -31.5 7t-12.5 27zM259 638q0 18 11 30.5t31 12.5q19 0 31.5 -14.5t12.5 -37.5q0 -17 -5.5 -34.5t-15 -32.5
t-23.5 -25.5t-31 -11.5q8 4 14.5 13.5t10.5 20.5t6 23t2 22q-19 -3 -31.5 7t-12.5 27z" />
    <glyph glyph-name="quoteleft" unicode="&#x2018;" horiz-adv-x="262" 
d="M170 568q0 -18 -11 -30.5t-31 -12.5q-19 0 -31.5 14.5t-12.5 37.5q0 16 5 34t15 33t24 25t31 12q-8 -5 -14.5 -14t-10.5 -20t-6 -23t-2 -22q19 3 31.5 -7t12.5 -27z" />
    <glyph glyph-name="quoteright" unicode="&#x2019;" horiz-adv-x="262" 
d="M92 638q0 18 11 30.5t31 12.5q19 0 31.5 -14.5t12.5 -37.5q0 -17 -5.5 -34.5t-15 -32.5t-23.5 -25.5t-31 -11.5q8 4 14.5 13.5t10.5 20.5t6 23t2 22q-19 -3 -31.5 7t-12.5 27z" />
    <glyph glyph-name="guillemotleft" unicode="&#xab;" horiz-adv-x="532" 
d="M36 344l208 232l29 -24l-178 -208l178 -207l-29 -24zM245 344l208 232l29 -24l-178 -208l178 -207l-29 -24z" />
    <glyph glyph-name="guillemotright" unicode="&#xbb;" horiz-adv-x="531" 
d="M78 113l-29 24l178 207l-178 208l29 24l208 -232zM287 113l-29 24l178 207l-178 208l29 24l208 -232z" />
    <glyph glyph-name="guilsinglleft" unicode="&#x2039;" horiz-adv-x="323" 
d="M36 344l208 232l29 -24l-178 -208l178 -207l-29 -24z" />
    <glyph glyph-name="guilsinglright" unicode="&#x203a;" horiz-adv-x="322" 
d="M78 113l-29 24l178 207l-178 208l29 24l208 -232z" />
    <glyph glyph-name="quotesinglbase" unicode="&#x201a;" horiz-adv-x="225" 
d="M92 28q0 18 11 30.5t31 12.5q19 0 31.5 -14.5t12.5 -37.5q0 -17 -5.5 -34.5t-15 -32.5t-23.5 -25.5t-31 -11.5q8 4 14.5 13.5t10.5 20.5t6 23t2 22q-19 -3 -31.5 7t-12.5 27z" />
    <glyph glyph-name="quotedblbase" unicode="&#x201e;" horiz-adv-x="439" 
d="M92 28q0 18 11 30.5t31 12.5q19 0 31.5 -14.5t12.5 -37.5q0 -17 -5.5 -34.5t-15 -32.5t-23.5 -25.5t-31 -11.5q8 4 14.5 13.5t10.5 20.5t6 23t2 22q-19 -3 -31.5 7t-12.5 27zM269 28q0 18 11 30.5t31 12.5q19 0 31.5 -14.5t12.5 -37.5q0 -17 -5.5 -34.5t-15 -32.5
t-23.5 -25.5t-31 -11.5q8 4 14.5 13.5t10.5 20.5t6 23t2 22q-19 -3 -31.5 7t-12.5 27z" />
    <glyph glyph-name="ordfeminine" unicode="&#xaa;" horiz-adv-x="387" 
d="M34 270h320v-31h-320v31zM47 439q0 50 39 77.5t107 27.5q18 0 37.5 -2.5t39.5 -6.5v35q0 37 -23.5 59t-61.5 22q-31 0 -60 -9.5t-52 -25.5v40q24 12 55 18.5t59 6.5q53 0 86.5 -30.5t33.5 -81.5v-163q0 -31 30 -31q11 0 21 5v-32q-10 -4 -29 -4q-26 0 -41 15.5t-16 42.5
q-18 -28 -47.5 -43t-66.5 -15q-48 0 -79.5 26.5t-31.5 68.5zM85 440q0 -29 23 -47.5t56 -18.5q46 0 76 28.5t30 73.5v33q-20 4 -39 6t-36 2q-52 0 -81 -19.5t-29 -57.5z" />
    <glyph glyph-name="ordmasculine" unicode="&#xba;" horiz-adv-x="416" 
d="M52 270h311v-31h-311v31zM49 513q0 37 12 68t33 53t50 34.5t64 12.5t64 -12.5t50 -34.5t33 -53t12 -68q0 -38 -12 -69t-33 -53t-50 -34.5t-64 -12.5t-64 12.5t-50 34.5t-33 53t-12 69zM88 513q0 -61 33 -98.5t87 -37.5q53 0 86.5 37.5t33.5 98.5q0 30 -9 55t-25 43
t-38 28t-48 10q-27 0 -49 -10t-37.5 -28t-24.5 -43t-9 -55z" />
    <glyph glyph-name="zero" unicode="0" horiz-adv-x="672" 
d="M86 336q0 79 18 143.5t50.5 110t78.5 70t103 24.5q56 0 102 -24.5t79 -70t51 -110t18 -143.5t-18 -143.5t-51 -110t-79 -70t-102 -24.5q-57 0 -103 24.5t-78.5 70t-50.5 110t-18 143.5zM134 336q0 -71 14.5 -127.5t40.5 -97t63.5 -62t83.5 -21.5t83 21.5t63 62t40.5 97
t14.5 127.5q0 70 -14.5 127t-40.5 97.5t-63 62t-83 21.5t-83.5 -21.5t-63.5 -62t-40.5 -97.5t-14.5 -127z" />
    <glyph glyph-name="one" unicode="1" horiz-adv-x="419" 
d="M232 622l-196 -114v46l203 118h40v-672h-47v622z" />
    <glyph glyph-name="two" unicode="2" horiz-adv-x="532" 
d="M388 41q48 0 65 20v-61h-419v32l278 278q43 42 64.5 87t21.5 90q0 34 -11.5 63t-32.5 49t-50.5 31.5t-64.5 11.5q-50 0 -101 -21t-86 -60v62q38 27 89 44t105 17q44 0 80.5 -14t63 -39.5t41 -61t14.5 -77.5q0 -53 -24 -104.5t-70 -97.5l-250 -249h287z" />
    <glyph glyph-name="three" unicode="3" horiz-adv-x="533" 
d="M246 -12q-27 0 -55.5 4t-55.5 11t-50 16.5t-39 20.5v62q15 -19 38.5 -32.5t50.5 -22.5t55 -13.5t53 -4.5q36 0 66.5 10.5t52.5 30t34 46.5t12 59q0 33 -14 60.5t-40 47.5t-62 31t-79 11h-36v38h36q40 0 73 10.5t57 29.5t37 45t13 57t-11 56.5t-30.5 43.5t-47 28t-60.5 10
q-57 0 -103.5 -15.5t-79.5 -53.5v62q37 25 85.5 36.5t97.5 11.5q41 0 77 -11.5t62.5 -33.5t42 -55t15.5 -75q0 -60 -36.5 -103.5t-97.5 -59.5q69 -18 109.5 -65t40.5 -110q0 -41 -15.5 -74.5t-43 -57.5t-66.5 -37.5t-86 -13.5z" />
    <glyph glyph-name="four" unicode="4" horiz-adv-x="578" 
d="M371 206v401l-286 -401h286zM371 167h-335v35l335 470h45v-466h46q48 0 65 20v-59h-111v-167h-65q20 17 20 65v102z" />
    <glyph glyph-name="five" unicode="5" horiz-adv-x="532" 
d="M133 631v-253q25 9 57.5 13t59.5 4q51 0 92 -14.5t69.5 -41t44 -64t15.5 -83.5q0 -45 -16 -82.5t-45.5 -64.5t-71 -42t-92.5 -15q-27 0 -54.5 4.5t-53 12t-47 17t-35.5 18.5v62q10 -14 30.5 -27t46 -23t54 -16.5t56.5 -6.5q83 0 132 45t49 119q0 76 -48.5 120.5
t-136.5 44.5q-35 0 -75 -7t-74 -23v344h357v-61q-17 20 -65 20h-249z" />
    <glyph glyph-name="six" unicode="6" horiz-adv-x="605" 
d="M86 292q0 94 17.5 167t51 123t83 76t114.5 26q52 0 89 -12t60 -26v-62q-19 24 -60 42t-88 18q-109 0 -166 -87.5t-55 -258.5q19 56 72 90.5t122 34.5q47 0 86 -15.5t66.5 -44t43 -67.5t15.5 -87q0 -47 -16.5 -87.5t-46 -70t-69 -46.5t-85.5 -17q-108 0 -171 77.5
t-63 226.5zM140 225q0 -44 13 -80t37 -62t57 -40.5t72 -14.5q36 0 68 14t55 38t36.5 57t13.5 71q0 39 -12.5 71.5t-35 55.5t-54.5 35.5t-71 12.5q-38 0 -70.5 -12t-56.5 -33.5t-38 -50.5t-14 -62z" />
    <glyph glyph-name="seven" unicode="7" horiz-adv-x="480" 
d="M88 631q-48 0 -65 -20v61h408v-32l-277 -640h-50l273 631h-289z" />
    <glyph glyph-name="eight" unicode="8" horiz-adv-x="604" 
d="M302 363q35 5 65 17t52 30.5t34.5 43t12.5 55.5q0 29 -12.5 54t-34.5 43t-52 28.5t-65 10.5t-65 -10.5t-52 -28.5t-34.5 -43t-12.5 -54q0 -31 12.5 -55.5t34.5 -43t52 -30.5t65 -17zM76 168q0 66 44 113t125 63q-33 7 -61 22t-48.5 37t-32 49.5t-11.5 59.5
q0 37 15.5 68.5t43.5 54.5t66.5 36t84.5 13t84.5 -13t66.5 -36t43.5 -54.5t15.5 -68.5q0 -32 -11.5 -59.5t-32 -49.5t-48.5 -37t-61 -22q81 -16 125 -63t44 -113q0 -40 -16.5 -73t-46.5 -57t-71.5 -37t-91.5 -13t-91.5 13t-71.5 37t-46.5 57t-16.5 73zM302 325
q-82 -12 -130 -51.5t-48 -102.5q0 -32 13 -58.5t36.5 -45.5t56.5 -29.5t72 -10.5t72 10.5t56.5 29.5t36.5 45.5t13 58.5q0 63 -48 102.5t-130 51.5z" />
    <glyph glyph-name="nine" unicode="9" horiz-adv-x="605" 
d="M519 380q0 -188 -68.5 -290t-197.5 -102q-52 0 -89 12t-60 26v62q19 -24 60 -42t88 -18q109 0 166 87.5t55 258.5q-19 -56 -72 -90.5t-122 -34.5q-47 0 -86 15.5t-67 44t-43 67.5t-15 87q0 47 16.5 87.5t46 70t69 46.5t85.5 17q108 0 171 -77.5t63 -226.5zM465 447
q0 43 -13 79.5t-37 62.5t-57 40.5t-72 14.5q-36 0 -68 -14t-55 -38t-36.5 -57t-13.5 -71q0 -39 12.5 -71.5t35 -55.5t54.5 -35.5t71 -12.5q37 0 70 12t57 33.5t38 50.5t14 62z" />
    <glyph glyph-name="dollar" unicode="$" horiz-adv-x="522" 
d="M259 76q69 0 111 30.5t42 83.5q0 43 -25.5 67t-63.5 39.5t-83 27t-83 30t-63.5 49t-25.5 83.5q0 63 47 103t126 45v166h42v-165q23 -2 45.5 -6t42.5 -10t36 -12.5t25 -11.5v-60q-10 10 -27 21t-38.5 19.5t-47.5 14t-54 5.5q-68 0 -108.5 -30t-40.5 -79q0 -43 25.5 -66
t63.5 -38t83 -26.5t83 -30t63.5 -50t25.5 -85.5q0 -66 -48 -107t-129 -45v-166h-42v165q-26 1 -52 5.5t-49 10.5t-41.5 13t-28.5 13v60q12 -11 31.5 -22t44.5 -20t54 -15t59 -6z" />
    <glyph glyph-name="cent" unicode="&#xa2;" horiz-adv-x="559" 
d="M333 -64h-42v149q-45 5 -82.5 25.5t-64.5 53.5t-42 76.5t-15 95.5t15 95.5t42 76.5t64.5 53.5t82.5 25.5v149h42v-148q40 -1 78.5 -14t63.5 -33v-60q-12 16 -30 28.5t-38 21.5t-41 13.5t-39 4.5q-42 0 -77.5 -15.5t-60.5 -44t-39 -67.5t-14 -86t14 -86t39 -67t60.5 -43.5
t77.5 -15.5q18 0 39.5 4.5t41.5 13.5t38.5 21.5t30.5 28.5v-62q-25 -20 -64.5 -33t-79.5 -14v-147z" />
    <glyph glyph-name="Euro" unicode="&#x20ac;" horiz-adv-x="572" 
d="M386 29q58 0 97.5 19.5t59.5 42.5v-61q-29 -20 -72.5 -31t-88.5 -11q-53 0 -97 19.5t-78.5 54.5t-57.5 83.5t-33 105.5h-81v40h77q-3 22 -3 45q0 17 1 32t3 30h-78v40h85q12 58 36.5 104t59 77.5t77 48t89.5 16.5q45 0 87.5 -11t71.5 -31v-60q-17 21 -56 41.5t-99 20.5
q-39 0 -74.5 -14.5t-64 -41t-49 -64.5t-29.5 -86h262v-40h-272q-3 -30 -3 -62q0 -26 3 -45h272v-40h-266q8 -50 28 -91t49 -70t65.5 -45t78.5 -16z" />
    <glyph glyph-name="florin" unicode="&#x192;" horiz-adv-x="608" 
d="M201 -12q-25 0 -48 5.5t-29 9.5v51q14 -11 33.5 -17.5t38.5 -6.5q33 0 54.5 20.5t21.5 54.5v278h-105v39h105v148q0 51 33 82.5t90 31.5q24 0 46.5 -5.5t28.5 -9.5v-50q-14 11 -33.5 17.5t-38.5 6.5q-33 0 -55 -21t-22 -55v-145h133v-39h-133v-281q0 -28 -9.5 -49
t-26 -35.5t-38.5 -22t-46 -7.5z" />
    <glyph glyph-name="sterling" unicode="&#xa3;" horiz-adv-x="584" 
d="M458 41q48 0 65 20v-61h-444v41h106v283h-90v40h90v146q0 39 14 71t38.5 55t59 35.5t76.5 12.5q34 0 67 -6.5t65 -20.5v-60q-20 25 -55 35.5t-70 10.5q-65 0 -105 -37.5t-40 -98.5v-143h198v-40h-198v-283h223z" />
    <glyph glyph-name="yen" unicode="&#xa5;" horiz-adv-x="582" 
d="M71 628q-11 17 -20 27t-23 17h68l194 -303l194 303h54l-209 -319h159v-40h-173v-107h173v-40h-173v-166h-50v166h-173v40h173v107h-173v40h159z" />
    <glyph glyph-name="numbersign" unicode="#" horiz-adv-x="650" 
d="M18 233h144l40 206h-137v39h144l38 198l39 -5l-37 -193h206l38 198l38 -5l-36 -193h137v-39h-144l-40 -206h137v-39h-144l-38 -198l-39 5l36 193h-205l-38 -198l-39 5l37 193h-137v39zM202 233h206l39 206h-205z" />
    <glyph glyph-name="percent" unicode="%" horiz-adv-x="882" 
d="M504 168q0 39 12 72t33 57t50.5 37.5t64.5 13.5t64 -13.5t50 -37.5t33 -57t12 -72q0 -40 -12 -73t-33 -57t-50 -37t-64 -13t-64.5 13t-50.5 37t-33 57t-12 73zM543 168q0 -66 33.5 -106.5t87.5 -40.5t87 40.5t33 106.5t-33 106.5t-87 40.5q-27 0 -49.5 -10.5t-38 -30
t-24.5 -46.5t-9 -60zM59 504q0 39 12 72t33 57t50 37.5t64 13.5t64.5 -13.5t50.5 -37.5t33 -57t12 -72q0 -40 -12 -73t-33 -57t-50.5 -37t-64.5 -13t-64 13t-50 37t-33 57t-12 73zM98 504q0 -66 33 -106.5t87 -40.5t87.5 40.5t33.5 106.5q0 33 -9 60t-24.5 46.5t-38 30
t-49.5 10.5q-54 0 -87 -40.5t-33 -106.5zM679 683l28 -22l-504 -672l-28 22z" />
    <glyph glyph-name="perthousand" unicode="&#x2030;" horiz-adv-x="1259" 
d="M881 168q0 39 12 72t33 57t50 37.5t64 13.5t64 -13.5t50 -37.5t33 -57t12 -72q0 -40 -12 -73t-33 -57t-50 -37t-64 -13t-64 13t-50 37t-33 57t-12 73zM919 168q0 -33 9 -60t25 -46.5t38 -30t49 -10.5t49 10.5t38 30t25 46.5t9 60q0 66 -33.5 106.5t-87.5 40.5
t-87.5 -40.5t-33.5 -106.5zM504 168q0 39 12 72t33 57t50.5 37.5t64.5 13.5t64 -13.5t50 -37.5t33 -57t12 -72q0 -40 -12 -73t-33 -57t-50 -37t-64 -13t-64.5 13t-50.5 37t-33 57t-12 73zM543 168q0 -66 33.5 -106.5t87.5 -40.5t87 40.5t33 106.5t-33 106.5t-87 40.5
q-27 0 -49.5 -10.5t-38 -30t-24.5 -46.5t-9 -60zM59 504q0 39 12 72t33 57t50 37.5t64 13.5t64.5 -13.5t50.5 -37.5t33 -57t12 -72q0 -40 -12 -73t-33 -57t-50.5 -37t-64.5 -13t-64 13t-50 37t-33 57t-12 73zM98 504q0 -66 33 -106.5t87 -40.5t87.5 40.5t33.5 106.5
q0 33 -9 60t-24.5 46.5t-38 30t-49.5 10.5q-54 0 -87 -40.5t-33 -106.5zM679 683l28 -22l-504 -672l-28 22z" />
    <glyph glyph-name="plus" unicode="+" horiz-adv-x="608" 
d="M74 309h209v209h42v-209h209v-42h-209v-209h-42v209h-209v42z" />
    <glyph glyph-name="minus" unicode="&#x2212;" horiz-adv-x="608" 
d="M74 309h460v-42h-460v42z" />
    <glyph glyph-name="multiply" unicode="&#xd7;" horiz-adv-x="608" 
d="M104 117l171 171l-171 171l29 29l171 -171l171 171l29 -29l-171 -171l171 -171l-29 -29l-171 171l-171 -171z" />
    <glyph glyph-name="less" unicode="&#x3c;" horiz-adv-x="608" 
d="M72 309l447 208l17 -40l-407 -189l407 -189l-17 -40l-447 208v42z" />
    <glyph glyph-name="divide" unicode="&#xf7;" horiz-adv-x="608" 
d="M74 308h460v-40h-460v40zM272 480q0 14 9 23t23 9t23 -8.5t9 -23.5q0 -14 -9 -23t-23 -9t-23 9t-9 23zM272 96q0 14 9 23t23 9t23 -9t9 -23t-9 -23t-23 -9t-23 9t-9 23z" />
    <glyph glyph-name="equal" unicode="=" horiz-adv-x="608" 
d="M74 411h460v-42h-460v42zM74 207h460v-42h-460v42z" />
    <glyph glyph-name="logicalnot" unicode="&#xac;" horiz-adv-x="608" 
d="M74 309h460v-251h-42v209h-418v42z" />
    <glyph glyph-name="greater" unicode="&#x3e;" horiz-adv-x="608" 
d="M536 267l-447 -208l-17 40l407 189l-407 189l17 40l447 -208v-42z" />
    <glyph glyph-name="notequal" unicode="&#x2260;" horiz-adv-x="608" 
d="M74 409h267l75 151l38 -19l-67 -132h147v-42h-168l-78 -158h246v-42h-267l-75 -150l-38 18l66 132h-146v42h167l79 158h-246v42z" />
    <glyph glyph-name="approxequal" unicode="&#x2248;" horiz-adv-x="608" 
d="M68 179q61 52 137 52q31 0 55 -7.5t46 -16.5t45 -16.5t52 -7.5q32 0 59 11t53 34l25 -34q-61 -53 -137 -53q-31 0 -55 7.5t-46 16.5t-45 16.5t-52 7.5q-63 0 -112 -45zM68 382q61 53 137 53q31 0 55 -7.5t46 -16.5t45 -16.5t52 -7.5q63 0 112 45l25 -35q-61 -52 -137 -52
q-31 0 -55 7.5t-46 16.5t-45 16.5t-52 7.5q-32 0 -59 -11t-53 -34z" />
    <glyph glyph-name="plusminus" unicode="&#xb1;" horiz-adv-x="608" 
d="M74 42h460v-42h-460v42zM74 377h209v209h42v-209h209v-42h-209v-209h-42v209h-209v42z" />
    <glyph glyph-name="lessequal" unicode="&#x2264;" horiz-adv-x="608" 
d="M72 42h460v-42h-460v42zM72 377l447 208l17 -39l-407 -190l407 -189l-17 -40l-447 208v42z" />
    <glyph glyph-name="greaterequal" unicode="&#x2265;" horiz-adv-x="608" 
d="M536 335l-447 -208l-17 40l407 189l-407 190l17 39l447 -208v-42zM76 42h460v-42h-460v42z" />
    <glyph glyph-name="asciicircum" unicode="^" horiz-adv-x="608" 
d="M325 672l208 -450l-40 -16l-189 409l-189 -409l-40 16l208 450h42z" />
    <glyph glyph-name="asciitilde" unicode="~" horiz-adv-x="608" 
d="M68 280q61 53 137 53q31 0 55 -7.5t46 -16.5t45 -16.5t52 -7.5q63 0 112 45l25 -34q-61 -53 -137 -53q-31 0 -55 7.5t-46 16.5t-45 16.5t-52 7.5q-63 0 -112 -45z" />
    <glyph glyph-name="lozenge" unicode="&#x25ca;" horiz-adv-x="608" 
d="M68 336l215 336h42l215 -336l-215 -336h-42zM119 336l185 -292l185 292l-185 290z" />
    <glyph glyph-name="degree" unicode="&#xb0;" horiz-adv-x="344" 
d="M60 569q0 49 31 80.5t81 31.5q49 0 80.5 -31.5t31.5 -80.5q0 -50 -31.5 -81t-80.5 -31q-50 0 -81 31t-31 81zM91 569q0 -36 22.5 -58.5t58.5 -22.5t58.5 22.5t22.5 58.5q0 35 -22.5 58t-58.5 23t-58.5 -23t-22.5 -58z" />
    <glyph glyph-name="quotesingle" unicode="'" horiz-adv-x="232" 
d="M92 672h47l-4 -206h-38z" />
    <glyph glyph-name="quotedbl" unicode="&#x22;" horiz-adv-x="406" 
d="M92 672h47l-4 -206h-38zM266 672h47l-4 -206h-38z" />
    <glyph glyph-name="radical" unicode="&#x221a;" horiz-adv-x="656" 
d="M360 -208h-50l-123 359l-170 -54l-12 40l209 67l120 -352l250 858l41 -11z" />
    <glyph glyph-name="currency" unicode="&#xa4;" horiz-adv-x="608" 
d="M82 143l81 82q-37 45 -37 111t37 111l-81 82l29 29l81 -82q44 38 112 38q67 0 111 -38l82 82l29 -29l-82 -82q38 -44 38 -111q0 -34 -10 -61.5t-28 -49.5l82 -82l-29 -29l-82 81q-45 -36 -111 -36t-111 36l-82 -81zM165 336q0 -30 10.5 -55.5t29 -44t44 -28.5t55.5 -10
t55.5 10t44 28.5t29 44t10.5 55.5t-10.5 55.5t-29 44t-44 29t-55.5 10.5t-55.5 -10.5t-44 -29t-29 -44t-10.5 -55.5z" />
    <glyph glyph-name="infinity" unicode="&#x221e;" horiz-adv-x="791" 
d="M49 288q0 40 11.5 73.5t32.5 58t51 38.5t67 14q30 0 55 -9t47 -27t42 -46t40 -66q40 76 82.5 112t101.5 36q37 0 67 -13.5t51 -38t32.5 -58.5t11.5 -74t-11.5 -73.5t-32.5 -58t-51 -38.5t-67 -14q-59 0 -101.5 36t-82.5 112q-20 -38 -40 -66t-42 -46t-47 -27t-55 -9
q-37 0 -67 13.5t-51 38t-32.5 58.5t-11.5 74zM94 288q0 -63 33 -103.5t89 -40.5q50 0 85 35.5t72 108.5q-37 73 -72 108.5t-85 35.5q-28 0 -50.5 -11t-38.5 -30t-24.5 -45.5t-8.5 -57.5zM697 288q0 63 -33 103.5t-90 40.5q-50 0 -85 -35.5t-71 -108.5q36 -73 71 -108.5
t85 -35.5q57 0 90 40.5t33 103.5z" />
    <glyph glyph-name="partialdiff" unicode="&#x2202;" horiz-adv-x="591" 
d="M59 251q0 53 16.5 98t46.5 77.5t70.5 50.5t88.5 18q65 0 114.5 -29.5t76.5 -85.5q-6 147 -58 221.5t-146 74.5q-53 0 -91 -18t-61 -41v60q42 21 80 30t75 9q60 0 106.5 -23.5t78.5 -73t49 -127t17 -186.5q0 -74 -16.5 -133t-47 -100t-73.5 -63t-96 -22q-50 0 -92.5 19.5
t-73 54t-47.5 83t-17 106.5zM106 249q0 -49 13.5 -89.5t38 -69.5t58 -45t74.5 -16q40 0 74 18t59 50.5t38.5 78t13.5 99.5q0 37 -13.5 70t-38.5 57t-59 38t-74 14q-41 0 -74.5 -15t-58 -42.5t-38 -65t-13.5 -82.5z" />
    <glyph glyph-name="summation" unicode="&#x2211;" horiz-adv-x="640" 
d="M542 -167q48 0 65 20v-61h-550v32l339 432l-323 416v32h518v-41h-452l305 -394v-26l-321 -410h419z" />
    <glyph glyph-name="product" unicode="&#x220f;" horiz-adv-x="812" 
d="M683 704v-912h-49v871h-459v-871h-49v847q0 48 -20 65h577z" />
    <glyph glyph-name="integral" unicode="&#x222b;" horiz-adv-x="427" 
d="M176 -179q38 0 61.5 31.5t23.5 81.5q0 67 -22.5 146.5t-49.5 162.5t-49.5 164.5t-22.5 151.5q0 34 9.5 63t26.5 50t40.5 32.5t51.5 11.5q37 0 66 -13v-50q-17 14 -33 18t-27 4q-38 0 -61.5 -31.5t-23.5 -81.5q0 -44 10.5 -95t26.5 -104.5t34.5 -109.5t34.5 -110.5
t26.5 -106.5t10.5 -99q0 -35 -9.5 -63.5t-26 -49.5t-40 -32.5t-51.5 -11.5q-37 0 -66 13v50q17 -14 33 -18t27 -4z" />
    <glyph glyph-name="Omega" unicode="&#x3a9;" horiz-adv-x="797" 
d="M265 41q-88 57 -133.5 138.5t-45.5 181.5q0 71 23 130.5t64 102t98.5 66.5t126.5 24t126.5 -24t99 -66.5t64.5 -102t23 -130.5q0 -100 -46 -181.5t-134 -138.5h132q48 0 65 20v-61h-263v35q96 60 146.5 140.5t50.5 183.5q0 63 -19.5 115t-54 89.5t-83.5 58.5t-107 21
t-106.5 -21t-83 -58.5t-54 -89.5t-19.5 -115q0 -103 50 -183.5t147 -140.5v-35h-264v61q17 -20 65 -20h132z" />
    <glyph glyph-name="litre" unicode="&#x2113;" horiz-adv-x="386" 
d="M352 569q0 -84 -54 -163t-151 -141v-143q0 -42 26 -67.5t68 -25.5q19 0 40 6.5t38 22.5v-54q-10 -5 -34 -10.5t-50 -5.5q-58 0 -95.5 36.5t-37.5 94.5v448q0 66 35 107.5t92 41.5q27 0 49.5 -11t39 -30.5t25.5 -46.5t9 -59zM313 565q0 48 -23 79t-60 31t-60 -30.5
t-23 -78.5v-255q78 54 122 119t44 135z" />
    <glyph glyph-name="estimated" unicode="&#x212e;" horiz-adv-x="994" 
d="M497 16q73 0 135.5 30t107.5 82h66q-53 -66 -133 -105t-176 -39q-80 0 -149.5 27.5t-122 75.5t-82.5 112t-30 137t30 137t82.5 112t122 75.5t149.5 27.5q79 0 149 -27.5t122.5 -75.5t82.5 -112t30 -137q0 -11 -1 -16h-623v-196q44 -51 106 -79.5t134 -28.5zM257 352h480
v196q-45 50 -106.5 79t-133.5 29t-134 -29t-106 -79v-196z" />
    <glyph glyph-name="numero" unicode="&#x2116;" horiz-adv-x="1184" 
d="M820 270h312v-31h-312v31zM817 513q0 37 12 68t33 53t50 34.5t64 12.5t64 -12.5t50 -34.5t33 -53t12 -68q0 -38 -12 -69t-33 -53t-50 -34.5t-64 -12.5t-64 12.5t-50 34.5t-33 53t-12 69zM856 513q0 -61 33.5 -98.5t86.5 -37.5t86.5 37.5t33.5 98.5q0 30 -9 55t-25 43
t-38 28t-48 10t-48 -10t-38 -28t-25 -43t-9 -55zM175 672l444 -603v603h46v-672h-49l-444 603v-603h-46v607q0 48 -20 65h69z" />
    <glyph glyph-name="fraction" unicode="&#x2044;" horiz-adv-x="252" 
d="M364 683l28 -22l-504 -672l-28 22z" />
    <glyph glyph-name="onesuperior" unicode="&#xb9;" horiz-adv-x="285" 
d="M33 562v37l125 73h32v-416h-38v376z" />
    <glyph glyph-name="twosuperior" unicode="&#xb2;" horiz-adv-x="353" 
d="M233 293q18 0 35 2t26 10v-45h-264v25l169 170q51 53 51 103q0 42 -25 67t-67 25q-28 0 -60 -13t-58 -42v46q20 20 54 31.5t69 11.5q56 0 90.5 -33.5t34.5 -87.5q0 -64 -58 -124l-145 -146h148z" />
    <glyph glyph-name="threesuperior" unicode="&#xb3;" horiz-adv-x="355" 
d="M164 252q-29 0 -61.5 7.5t-56.5 26.5v45q28 -26 60.5 -36t55.5 -10q44 0 70.5 23.5t26.5 61.5q0 39 -31.5 63.5t-82.5 24.5h-25v30h25q47 0 76 23t29 60q0 36 -24 58t-64 22q-23 0 -54 -10t-59 -36v45q22 17 53 25.5t62 8.5q57 0 90.5 -31t33.5 -79q0 -36 -21 -63
t-56 -37q39 -11 63 -40t24 -67q0 -54 -37.5 -84.5t-96.5 -30.5z" />
    <glyph glyph-name="onehalf" unicode="&#xbd;" horiz-adv-x="982" 
d="M102 562v37l125 73h32v-416h-38v376zM733 683l28 -22l-504 -672l-28 22zM842 37q18 0 35 2t26 10v-45h-264v25l169 170q51 53 51 103q0 42 -25 67t-67 25q-28 0 -60 -13t-58 -42v46q20 20 54 31.5t69 11.5q56 0 90.5 -33.5t34.5 -87.5q0 -64 -58 -124l-145 -146h148z" />
    <glyph glyph-name="onequarter" unicode="&#xbc;" horiz-adv-x="982" 
d="M831 100h-205v27l204 289h36v-285h7q14 0 33 1.5t28 10.5v-43h-68v-100h-50q11 9 13 25.5t2 39.5v35zM831 131v235l-166 -235h166zM102 562v37l125 73h32v-416h-38v376zM733 683l28 -22l-504 -672l-28 22z" />
    <glyph glyph-name="threequarters" unicode="&#xbe;" horiz-adv-x="982" 
d="M831 100h-205v27l204 289h36v-285h7q14 0 33 1.5t28 10.5v-43h-68v-100h-50q11 9 13 25.5t2 39.5v35zM831 131v235l-166 -235h166zM189 252q-29 0 -61.5 7.5t-56.5 26.5v45q28 -26 60.5 -36t55.5 -10q44 0 70.5 23.5t26.5 61.5q0 39 -31.5 63.5t-82.5 24.5h-25v30h25
q47 0 76 23t29 60q0 36 -24 58t-64 22q-23 0 -54 -10t-59 -36v45q22 17 53 25.5t62 8.5q57 0 90.5 -31t33.5 -79q0 -36 -21 -63t-56 -37q39 -11 63 -40t24 -67q0 -54 -37.5 -84.5t-96.5 -30.5zM733 683l28 -22l-504 -672l-28 22z" />
    <glyph glyph-name="grave" unicode="&#xe840;" horiz-adv-x="252" 
d="M175 780l-19 -28l-164 105l24 33z" />
    <glyph glyph-name="acute" unicode="&#xe841;" horiz-adv-x="254" 
d="M100 752l-20 28l160 110l24 -33z" />
    <glyph glyph-name="dieresis" unicode="&#xe845;" horiz-adv-x="244" 
d="M-14 826q0 16 10 25.5t26 9.5t25.5 -9.5t9.5 -25.5t-9.5 -25.5t-25.5 -9.5t-26 9.5t-10 25.5zM187 826q0 16 9.5 25.5t25.5 9.5t26 -9.5t10 -25.5t-10 -25.5t-26 -9.5t-25.5 9.5t-9.5 25.5z" />
    <glyph glyph-name="circumflex" unicode="&#xe842;" horiz-adv-x="246" 
d="M106 896h34l121 -118l-23 -25l-115 107l-115 -107l-23 25z" />
    <glyph glyph-name="tilde" unicode="&#xe844;" horiz-adv-x="246" 
d="M59 864q16 0 33 -6t33 -13.5t31 -13.5t28 -6q33 0 45 39l34 -11q-8 -29 -28 -46.5t-48 -17.5q-16 0 -33 6t-33 13t-31 13t-28 6q-34 0 -45 -38l-34 10q8 29 28 47t48 18z" />
    <glyph glyph-name="macron" unicode="&#xe846;" horiz-adv-x="246" 
d="M-19 844h284v-36h-284v36z" />
    <glyph glyph-name="breve" unicode="&#xe847;" horiz-adv-x="246" 
d="M20 880q2 -42 31 -68.5t72 -26.5t72 26.5t31 68.5h35q-2 -60 -41 -96t-97 -36t-97 36t-41 96h35z" />
    <glyph glyph-name="dotaccent" unicode="&#xe84a;" horiz-adv-x="268" 
d="M97 826q0 17 10 27t27 10t27 -10t10 -27t-10 -27t-27 -10t-27 10t-10 27z" />
    <glyph glyph-name="ring" unicode="&#xe848;" horiz-adv-x="248" 
d="M30 826q0 42 26 67t68 25t68 -25t26 -67q0 -41 -25 -66.5t-67 -25.5t-69 25.5t-27 66.5zM59 826q0 -29 19 -47t48 -18q28 0 45.5 18t17.5 47t-18 47t-47 18t-47 -18t-18 -47z" />
    <glyph glyph-name="cedilla" unicode="&#xb8;" horiz-adv-x="250" 
d="M140 -64q32 -3 53.5 -25t21.5 -52q0 -35 -28.5 -57t-72.5 -22q-20 0 -43 4t-36 11v43q6 -7 27.5 -16t47.5 -9q28 0 46.5 13.5t18.5 36.5q0 22 -19 35.5t-48 13.5h-9l16 88h36z" />
    <glyph glyph-name="hungarumlaut" unicode="&#xe849;" horiz-adv-x="258" 
d="M197 747l-26 25l138 142l29 -29zM19 747l-25 25l138 142l29 -29z" />
    <glyph glyph-name="ogonek" unicode="&#x2db;" horiz-adv-x="257" 
d="M145 0q-45 -35 -71.5 -68.5t-26.5 -66.5q0 -25 16 -38.5t38 -13.5q10 0 23.5 4t24.5 16v-43q-7 -4 -20.5 -7t-32.5 -3q-38 0 -62.5 20.5t-24.5 57.5q0 40 29.5 78.5t81.5 76.5z" />
    <glyph glyph-name="caron" unicode="&#xe843;" horiz-adv-x="246" 
d="M140 756h-34l-121 119l23 24l115 -106l115 106l23 -24z" />
    <glyph glyph-name="Agrave" unicode="&#xc0;" 
d="M391 780l-19 -28l-164 105l24 33zM291 619q8 19 8 30t-4.5 16t-6.5 7h72l278 -672h-51l-82 200h-337l-82 -200h-51zM183 239h307l-153 374z" />
    <glyph glyph-name="Aacute" unicode="&#xc1;" 
d="M305 752l-20 28l160 110l24 -33zM291 619q8 19 8 30t-4.5 16t-6.5 7h72l278 -672h-51l-82 200h-337l-82 -200h-51zM183 239h307l-153 374z" />
    <glyph glyph-name="Acircumflex" unicode="&#xc2;" 
d="M320 896h34l121 -118l-23 -25l-115 107l-115 -107l-23 25zM291 619q8 19 8 30t-4.5 16t-6.5 7h72l278 -672h-51l-82 200h-337l-82 -200h-51zM183 239h307l-153 374z" />
    <glyph glyph-name="Atilde" unicode="&#xc3;" 
d="M273 864q16 0 33 -6t33 -13.5t31 -13.5t28 -6q33 0 45 39l34 -11q-8 -29 -28 -46.5t-48 -17.5q-16 0 -33 6t-33 13t-31 13t-28 6q-34 0 -45 -38l-34 10q8 29 28 47t48 18zM291 619q8 19 8 30t-4.5 16t-6.5 7h72l278 -672h-51l-82 200h-337l-82 -200h-51zM183 239h307
l-153 374z" />
    <glyph glyph-name="Adieresis" unicode="&#xc4;" 
d="M210 826q0 16 10 25.5t26 9.5t25.5 -9.5t9.5 -25.5t-9.5 -25.5t-25.5 -9.5t-26 9.5t-10 25.5zM411 826q0 16 9.5 25.5t25.5 9.5t26 -9.5t10 -25.5t-10 -25.5t-26 -9.5t-25.5 9.5t-9.5 25.5zM291 619q8 19 8 30t-4.5 16t-6.5 7h72l278 -672h-51l-82 200h-337l-82 -200h-51
zM183 239h307l-153 374z" />
    <glyph glyph-name="Aring" unicode="&#xc5;" 
d="M243 826q0 42 26 67t68 25t68 -25t26 -67q0 -41 -25 -66.5t-67 -25.5t-69 25.5t-27 66.5zM272 826q0 -29 19 -47t48 -18q28 0 45.5 18t17.5 47t-18 47t-47 18t-47 -18t-18 -47zM291 619q8 19 8 30t-4.5 16t-6.5 7h72l278 -672h-51l-82 200h-337l-82 -200h-51zM183 239
h307l-153 374z" />
    <glyph glyph-name="AE" unicode="&#xc6;" horiz-adv-x="977" 
d="M220 239h262v388zM419 613q7 10 9.5 19.5t2.5 16.5q0 11 -4.5 16t-6.5 7h473v-41h-362v-267h330v-40h-330v-283h378v-41h-427v200h-285l-136 -200h-57z" />
    <glyph glyph-name="Ccedilla" unicode="&#xc7;" horiz-adv-x="662" 
d="M395 -64q32 -3 53.5 -25t21.5 -52q0 -35 -28.5 -57t-72.5 -22q-20 0 -43 4t-36 11v43q6 -7 27.5 -16t47.5 -9q28 0 46.5 13.5t18.5 36.5q0 22 -19 35.5t-48 13.5h-9l14 77q-67 3 -122.5 30t-95 72.5t-61.5 108t-22 136.5q0 77 23.5 141t66 110t101.5 71.5t130 25.5
q59 0 115 -17.5t97 -50.5v-70q-11 19 -31 36t-47 30.5t-60 21.5t-69 8q-62 0 -112.5 -22t-87 -62.5t-56.5 -97t-20 -124.5t20 -124.5t56.5 -96.5t87 -62t112.5 -22q36 0 69.5 8t61 21.5t47.5 30t31 34.5v-71q-38 -29 -90.5 -46.5t-107.5 -19.5z" />
    <glyph glyph-name="Eth" unicode="&#xd0;" horiz-adv-x="742" 
d="M337 672q75 0 137.5 -24.5t107 -68.5t69 -106t24.5 -137q0 -74 -24.5 -136t-69 -106.5t-107 -69t-137.5 -24.5h-206v324h-97v40h97v243q0 48 -20 65h226zM625 336q0 65 -21.5 119.5t-60 93.5t-92.5 60.5t-119 21.5h-152v-267h186v-40h-186v-283h152q65 0 119 21.5
t92.5 60.5t60 93.5t21.5 119.5z" />
    <glyph glyph-name="Egrave" unicode="&#xc8;" horiz-adv-x="621" 
d="M375 780l-19 -28l-164 105l24 33zM553 0h-427v607q0 48 -20 65h431v-41h-362v-267h330v-40h-330v-283h378v-41z" />
    <glyph glyph-name="Eacute" unicode="&#xc9;" horiz-adv-x="621" 
d="M289 752l-20 28l160 110l24 -33zM553 0h-427v607q0 48 -20 65h431v-41h-362v-267h330v-40h-330v-283h378v-41z" />
    <glyph glyph-name="Ecircumflex" unicode="&#xca;" horiz-adv-x="621" 
d="M304 896h34l121 -118l-23 -25l-115 107l-115 -107l-23 25zM553 0h-427v607q0 48 -20 65h431v-41h-362v-267h330v-40h-330v-283h378v-41z" />
    <glyph glyph-name="Edieresis" unicode="&#xcb;" horiz-adv-x="621" 
d="M185 826q0 16 10 25.5t26 9.5t25.5 -9.5t9.5 -25.5t-9.5 -25.5t-25.5 -9.5t-26 9.5t-10 25.5zM386 826q0 16 9.5 25.5t25.5 9.5t26 -9.5t10 -25.5t-10 -25.5t-26 -9.5t-25.5 9.5t-9.5 25.5zM553 0h-427v607q0 48 -20 65h431v-41h-362v-267h330v-40h-330v-283h378v-41z
" />
    <glyph glyph-name="Igrave" unicode="&#xcc;" horiz-adv-x="304" 
d="M205 780l-19 -28l-164 105l24 33zM175 672v-672h-49v607q0 48 -20 65h69z" />
    <glyph glyph-name="Iacute" unicode="&#xcd;" horiz-adv-x="304" 
d="M126 752l-20 28l160 110l24 -33zM175 672v-672h-49v607q0 48 -20 65h69z" />
    <glyph glyph-name="Icircumflex" unicode="&#xce;" horiz-adv-x="304" 
d="M135 896h34l121 -118l-23 -25l-115 107l-115 -107l-23 25zM176 672v-672h-49v607q0 48 -20 65h69z" />
    <glyph glyph-name="Idieresis" unicode="&#xcf;" horiz-adv-x="304" 
d="M16 826q0 16 10 25.5t26 9.5t25.5 -9.5t9.5 -25.5t-9.5 -25.5t-25.5 -9.5t-26 9.5t-10 25.5zM217 826q0 16 9.5 25.5t25.5 9.5t26 -9.5t10 -25.5t-10 -25.5t-26 -9.5t-25.5 9.5t-9.5 25.5zM176 672v-672h-49v607q0 48 -20 65h69z" />
    <glyph glyph-name="Lslash" unicode="&#x141;" horiz-adv-x="552" 
d="M175 672v-304l152 76l18 -32l-170 -85v-286h343v-41h-392v302l-85 -42l-17 32l102 51v264q0 48 -20 65h69z" />
    <glyph glyph-name="Ntilde" unicode="&#xd1;" horiz-adv-x="794" 
d="M332 864q16 0 33 -6t33 -13.5t31 -13.5t28 -6q33 0 45 39l34 -11q-8 -29 -28 -46.5t-48 -17.5q-16 0 -33 6t-33 13t-31 13t-28 6q-34 0 -45 -38l-34 10q8 29 28 47t48 18zM175 672l444 -603v603h46v-672h-49l-444 603v-603h-46v607q0 48 -20 65h69z" />
    <glyph glyph-name="Ograve" unicode="&#xd2;" horiz-adv-x="779" 
d="M444 780l-19 -28l-164 105l24 33zM67 336q0 76 23.5 140t66.5 110.5t102.5 72t130.5 25.5t130 -25.5t102 -72t66.5 -110.5t23.5 -140q0 -77 -23.5 -140.5t-66.5 -110t-102 -72t-130 -25.5t-130.5 25.5t-102.5 72t-66.5 110t-23.5 140.5zM117 336q0 -67 20 -123.5
t56.5 -97t86.5 -63.5t110 -23t110 23t86 63.5t56 97t20 123.5t-20 123.5t-56 97t-86 63.5t-110 23t-110 -23t-86.5 -63.5t-56.5 -97t-20 -123.5z" />
    <glyph glyph-name="Oacute" unicode="&#xd3;" horiz-adv-x="779" 
d="M358 752l-20 28l160 110l24 -33zM67 336q0 76 23.5 140t66.5 110.5t102.5 72t130.5 25.5t130 -25.5t102 -72t66.5 -110.5t23.5 -140q0 -77 -23.5 -140.5t-66.5 -110t-102 -72t-130 -25.5t-130.5 25.5t-102.5 72t-66.5 110t-23.5 140.5zM117 336q0 -67 20 -123.5t56.5 -97
t86.5 -63.5t110 -23t110 23t86 63.5t56 97t20 123.5t-20 123.5t-56 97t-86 63.5t-110 23t-110 -23t-86.5 -63.5t-56.5 -97t-20 -123.5z" />
    <glyph glyph-name="Ocircumflex" unicode="&#xd4;" horiz-adv-x="779" 
d="M373 896h34l121 -118l-23 -25l-115 107l-115 -107l-23 25zM67 336q0 76 23.5 140t66.5 110.5t102.5 72t130.5 25.5t130 -25.5t102 -72t66.5 -110.5t23.5 -140q0 -77 -23.5 -140.5t-66.5 -110t-102 -72t-130 -25.5t-130.5 25.5t-102.5 72t-66.5 110t-23.5 140.5zM117 336
q0 -67 20 -123.5t56.5 -97t86.5 -63.5t110 -23t110 23t86 63.5t56 97t20 123.5t-20 123.5t-56 97t-86 63.5t-110 23t-110 -23t-86.5 -63.5t-56.5 -97t-20 -123.5z" />
    <glyph glyph-name="Otilde" unicode="&#xd5;" horiz-adv-x="779" 
d="M326 864q16 0 33 -6t33 -13.5t31 -13.5t28 -6q33 0 45 39l34 -11q-8 -29 -28 -46.5t-48 -17.5q-16 0 -33 6t-33 13t-31 13t-28 6q-34 0 -45 -38l-34 10q8 29 28 47t48 18zM67 336q0 76 23.5 140t66.5 110.5t102.5 72t130.5 25.5t130 -25.5t102 -72t66.5 -110.5t23.5 -140
q0 -77 -23.5 -140.5t-66.5 -110t-102 -72t-130 -25.5t-130.5 25.5t-102.5 72t-66.5 110t-23.5 140.5zM117 336q0 -67 20 -123.5t56.5 -97t86.5 -63.5t110 -23t110 23t86 63.5t56 97t20 123.5t-20 123.5t-56 97t-86 63.5t-110 23t-110 -23t-86.5 -63.5t-56.5 -97t-20 -123.5z
" />
    <glyph glyph-name="Odieresis" unicode="&#xd6;" horiz-adv-x="779" 
d="M254 826q0 16 10 25.5t26 9.5t25.5 -9.5t9.5 -25.5t-9.5 -25.5t-25.5 -9.5t-26 9.5t-10 25.5zM455 826q0 16 9.5 25.5t25.5 9.5t26 -9.5t10 -25.5t-10 -25.5t-26 -9.5t-25.5 9.5t-9.5 25.5zM67 336q0 76 23.5 140t66.5 110.5t102.5 72t130.5 25.5t130 -25.5t102 -72
t66.5 -110.5t23.5 -140q0 -77 -23.5 -140.5t-66.5 -110t-102 -72t-130 -25.5t-130.5 25.5t-102.5 72t-66.5 110t-23.5 140.5zM117 336q0 -67 20 -123.5t56.5 -97t86.5 -63.5t110 -23t110 23t86 63.5t56 97t20 123.5t-20 123.5t-56 97t-86 63.5t-110 23t-110 -23t-86.5 -63.5
t-56.5 -97t-20 -123.5z" />
    <glyph glyph-name="Oslash" unicode="&#xd8;" horiz-adv-x="779" 
d="M67 336q0 76 23.5 140t66.5 110.5t102.5 72t130.5 25.5q56 0 106.5 -16.5t85.5 -45.5l48 65l28 -23l-49 -65q48 -45 75.5 -112.5t27.5 -150.5q0 -77 -23.5 -140.5t-66.5 -110t-102 -72t-130 -25.5q-57 0 -107 16.5t-86 45.5l-48 -65l-29 22l49 66q-48 48 -75 114t-27 149
zM117 336q0 -71 21.5 -128t58.5 -96l357 475q-35 27 -75.5 41.5t-88.5 14.5q-61 0 -111 -22.5t-86 -63.5t-56 -97.5t-20 -123.5zM662 336q0 71 -21.5 128t-59.5 97l-356 -475q32 -26 73.5 -41.5t91.5 -15.5q60 0 110 22.5t86 63.5t56 97t20 124z" />
    <glyph glyph-name="OE" unicode="&#x152;" horiz-adv-x="1028" 
d="M960 41v-41h-556q-75 0 -137.5 24.5t-106.5 68.5t-68.5 106t-24.5 137q0 74 24.5 136t68.5 106.5t106.5 69t137.5 24.5h540v-41h-362v-267h330v-40h-330v-283h378zM117 336q0 -65 21.5 -119.5t60 -93.5t92 -60.5t118.5 -21.5h124v590h-124q-65 0 -118.5 -21.5t-92 -60.5
t-60 -93.5t-21.5 -119.5z" />
    <glyph glyph-name="Thorn" unicode="&#xde;" horiz-adv-x="638" 
d="M174 181h185q38 0 69.5 12t54.5 33.5t36 51.5t13 66t-13 66t-36 51.5t-54.5 33.5t-69.5 12h-185v-326zM174 672v-125h190q48 0 87.5 -15t68.5 -42t45 -64t16 -82t-16 -82t-45 -64t-68.5 -42t-87.5 -15h-190v-141h-48v607q0 48 -20 65h68z" />
    <glyph glyph-name="Scaron" unicode="&#x160;" horiz-adv-x="594" 
d="M314 756h-34l-121 119l23 24l115 -106l115 106l23 -24zM294 29q42 0 76 10t58 27.5t37 42.5t13 55q0 39 -17.5 64.5t-46 43t-65 29t-75 23t-75 25t-65 34.5t-46 52t-17.5 77q0 38 16.5 70t46.5 54.5t71.5 35t91.5 12.5q59 0 108 -11t91 -32v-70q-6 12 -23.5 24.5
t-43.5 23t-59 17.5t-70 7q-41 0 -74 -9.5t-56.5 -27t-36.5 -41.5t-13 -53q0 -38 17.5 -63t46 -42t65 -28.5t74.5 -23t74.5 -25t65 -35t46 -53t17.5 -78.5q0 -39 -16.5 -71.5t-46.5 -56t-73 -36t-96 -12.5q-32 0 -64.5 4.5t-61.5 11.5t-53 15.5t-40 16.5v71q16 -21 43 -35.5
t57.5 -24t62 -14t56.5 -4.5z" />
    <glyph glyph-name="Ugrave" unicode="&#xd9;" horiz-adv-x="791" 
d="M448 780l-19 -28l-164 105l24 33zM165 672v-418q0 -50 17 -91t48 -71t72.5 -46.5t91.5 -16.5q49 0 91 16.5t72.5 46.5t47.5 71t17 91v418h49v-420q0 -58 -21 -106.5t-58 -83.5t-87.5 -54.5t-110.5 -19.5t-111 19.5t-88 54.5t-58 83.5t-21 106.5v355q0 48 -20 65h69z" />
    <glyph glyph-name="Uacute" unicode="&#xda;" horiz-adv-x="791" 
d="M362 752l-20 28l160 110l24 -33zM165 672v-418q0 -50 17 -91t48 -71t72.5 -46.5t91.5 -16.5q49 0 91 16.5t72.5 46.5t47.5 71t17 91v418h49v-420q0 -58 -21 -106.5t-58 -83.5t-87.5 -54.5t-110.5 -19.5t-111 19.5t-88 54.5t-58 83.5t-21 106.5v355q0 48 -20 65h69z" />
    <glyph glyph-name="Ucircumflex" unicode="&#xdb;" horiz-adv-x="791" 
d="M377 896h34l121 -118l-23 -25l-115 107l-115 -107l-23 25zM165 672v-418q0 -50 17 -91t48 -71t72.5 -46.5t91.5 -16.5q49 0 91 16.5t72.5 46.5t47.5 71t17 91v418h49v-420q0 -58 -21 -106.5t-58 -83.5t-87.5 -54.5t-110.5 -19.5t-111 19.5t-88 54.5t-58 83.5t-21 106.5
v355q0 48 -20 65h69z" />
    <glyph glyph-name="Udieresis" unicode="&#xdc;" horiz-adv-x="791" 
d="M258 826q0 16 10 25.5t26 9.5t25.5 -9.5t9.5 -25.5t-9.5 -25.5t-25.5 -9.5t-26 9.5t-10 25.5zM459 826q0 16 9.5 25.5t25.5 9.5t26 -9.5t10 -25.5t-10 -25.5t-26 -9.5t-25.5 9.5t-9.5 25.5zM165 672v-418q0 -50 17 -91t48 -71t72.5 -46.5t91.5 -16.5q49 0 91 16.5
t72.5 46.5t47.5 71t17 91v418h49v-420q0 -58 -21 -106.5t-58 -83.5t-87.5 -54.5t-110.5 -19.5t-111 19.5t-88 54.5t-58 83.5t-21 106.5v355q0 48 -20 65h69z" />
    <glyph glyph-name="Yacute" unicode="&#xdd;" horiz-adv-x="592" 
d="M263 752l-20 28l160 110l24 -33zM52 628q-11 17 -20 27t-23 17h69l217 -332l216 332h56l-248 -377v-295h-49v295z" />
    <glyph glyph-name="Ydieresis" unicode="&#x178;" horiz-adv-x="592" 
d="M159 826q0 16 10 25.5t26 9.5t25.5 -9.5t9.5 -25.5t-9.5 -25.5t-25.5 -9.5t-26 9.5t-10 25.5zM360 826q0 16 9.5 25.5t25.5 9.5t26 -9.5t10 -25.5t-10 -25.5t-26 -9.5t-25.5 9.5t-9.5 25.5zM52 628q-11 17 -20 27t-23 17h69l217 -332l216 332h56l-248 -377v-295h-49v295z
" />
    <glyph glyph-name="Zcaron" unicode="&#x17d;" horiz-adv-x="642" 
d="M338 756h-34l-121 119l23 24l115 -106l115 106l23 -24zM574 0h-507v30l430 601h-418v41h483v-30l-429 -601h376q48 0 65 20v-61z" />
    <glyph glyph-name="apple" unicode="&#xf8ff;" horiz-adv-x="627" 
d="M248 202v65h196v66h-196v195h261v-65h-196v-65h196v-196h-261zM183 594v-529h73v-65h-138v659h391v-65h-326z" />
    <glyph glyph-name="registered.alt" unicode="&#xec00;" horiz-adv-x="522" 
d="M37 464q0 49 16.5 90t46.5 71t71 46.5t90 16.5t90 -16.5t71 -46.5t46.5 -71t16.5 -90t-16.5 -90t-46.5 -71t-71 -46.5t-90 -16.5t-90 16.5t-71 46.5t-46.5 71t-16.5 90zM66 464q0 -43 14.5 -78.5t40.5 -61.5t61.5 -40.5t78.5 -14.5t78.5 14.5t61.5 40.5t40.5 61.5
t14.5 78.5t-14.5 78.5t-40.5 61.5t-61.5 40.5t-78.5 14.5t-78.5 -14.5t-61.5 -40.5t-40.5 -61.5t-14.5 -78.5zM210 463h61q24 0 39.5 14t15.5 36t-15.5 35.5t-39.5 13.5h-61v-99zM185 541q0 31 -13 43h101q35 0 57 -20t22 -51q0 -27 -16.5 -45.5t-44.5 -23.5l69 -100h-30
l-66 96h-54v-96h-25v197z" />
    <glyph glyph-name="uni2120" unicode="&#x2120;" horiz-adv-x="942" 
d="M56 571q0 48 38.5 78.5t101.5 30.5q38 0 72.5 -9t51.5 -17v-60q-18 26 -52 39.5t-70 13.5q-48 0 -76 -21.5t-28 -54.5q0 -30 18 -46t45.5 -26.5t59.5 -19t59.5 -22t45.5 -36t18 -61.5q0 -51 -39.5 -81.5t-104.5 -30.5q-32 0 -67 5t-70 21v60q13 -17 29.5 -27.5t35 -16
t36.5 -7.5t34 -2q49 0 78.5 21.5t29.5 57.5q0 30 -18 47t-45.5 27.5t-59.5 19t-59.5 22t-45.5 35.5t-18 60zM499 672l157 -214l158 214h40v-416h-37v362l-161 -218l-161 218v-362h-36v351q0 48 -20 65h60z" />
    <glyph glyph-name="commaaccent" unicode="&#xf6c3;" horiz-adv-x="264" 
d="M88 -113q0 18 11 30.5t31 12.5q19 0 31.5 -14.5t12.5 -37.5q0 -17 -5.5 -34.5t-15 -32.5t-23.5 -25.5t-31 -11.5q8 4 14.5 13.5t10.5 20.5t6 23t2 22q-19 -3 -31.5 7t-12.5 27z" />
    <glyph glyph-name="ringacute" unicode="&#xea03;" horiz-adv-x="246" 
d="M147 718q32 -7 51.5 -30t19.5 -57q0 -41 -25 -66t-67 -25t-69 25t-27 66q0 49 38 75l166 113l22 -32zM59 631q0 -29 19 -47.5t48 -18.5t46 18.5t17 47.5t-18 47t-47 18t-47 -18t-18 -47z" />
    <glyph glyph-name="mu" unicode="&#x3bc;" horiz-adv-x="615" 
d="M102 -208v691h48v-313q0 -32 10.5 -57.5t30 -44.5t45.5 -29t58 -10q36 0 66 13t52 36t34.5 56t12.5 72v277h48v-405q0 -23 13 -36t35 -13q7 0 15 1.5t16 5.5v-42q-5 -2 -15.5 -4t-23.5 -2q-38 0 -61.5 22t-23.5 60v21q-23 -48 -67.5 -75.5t-101.5 -27.5q-48 0 -85.5 18
t-57.5 54v-203q0 -48 20 -65h-68z" />
    <glyph glyph-name="uni0394" unicode="&#x394;" horiz-adv-x="677" 
d="M46 28l269 644h47l269 -644v-28h-585v28zM100 41h477l-238 572z" />
    <glyph glyph-name="zero.tnum" horiz-adv-x="608" 
d="M65 336q0 79 17 143.5t48 110t75 70t99 24.5t99 -24.5t75 -70t48 -110t17 -143.5q0 -80 -17 -144t-48 -109.5t-75 -70t-99 -24.5t-99 24.5t-75 70t-48 109.5t-17 144zM110 336q0 -70 14 -126.5t39.5 -96.5t61 -62t79.5 -22t79.5 22t61 62t39.5 96.5t14 126.5t-14 127
t-39.5 97t-61 61.5t-79.5 21.5t-79.5 -21.5t-61 -61.5t-39.5 -97t-14 -127z" />
    <glyph glyph-name="one.tnum" horiz-adv-x="608" 
d="M335 622l-196 -114v46l203 118h40v-672h-47v622z" />
    <glyph glyph-name="two.tnum" horiz-adv-x="608" 
d="M430 41q48 0 65 20v-61h-419v32l278 278q43 42 64.5 87t21.5 90q0 34 -11.5 63t-32.5 49t-50.5 31.5t-64.5 11.5q-50 0 -101 -21t-86 -60v62q38 27 89 44t105 17q44 0 80.5 -14t63 -39.5t41 -61t14.5 -77.5q0 -53 -24 -104.5t-70 -97.5l-250 -249h287z" />
    <glyph glyph-name="three.tnum" horiz-adv-x="608" 
d="M286 -12q-27 0 -55.5 4t-55.5 11t-50 16.5t-39 20.5v62q15 -19 38.5 -32.5t50.5 -22.5t55 -13.5t53 -4.5q36 0 66.5 10.5t52.5 30t34 46.5t12 59q0 33 -14 60.5t-40 47.5t-62 31t-79 11h-36v38h36q40 0 73 10.5t57 29.5t37 45t13 57t-11 56.5t-30.5 43.5t-47 28t-60.5 10
q-57 0 -103.5 -15.5t-79.5 -53.5v62q37 25 85.5 36.5t97.5 11.5q41 0 77 -11.5t62.5 -33.5t42 -55t15.5 -75q0 -60 -36.5 -103.5t-97.5 -59.5q69 -18 109.5 -65t40.5 -110q0 -41 -15.5 -74.5t-43 -57.5t-66.5 -37.5t-86 -13.5z" />
    <glyph glyph-name="four.tnum" horiz-adv-x="608" 
d="M387 206v401l-286 -401h286zM387 167h-335v35l335 470h45v-466h46q48 0 65 20v-59h-111v-167h-65q20 17 20 65v102z" />
    <glyph glyph-name="five.tnum" horiz-adv-x="608" 
d="M172 631v-253q25 9 57.5 13t59.5 4q51 0 92 -14.5t69.5 -41t44 -64t15.5 -83.5q0 -45 -16 -82.5t-45.5 -64.5t-71 -42t-92.5 -15q-27 0 -54.5 4.5t-53 12t-47 17t-35.5 18.5v62q10 -14 30.5 -27t46 -23t54 -16.5t56.5 -6.5q83 0 132 45t49 119q0 76 -48.5 120.5
t-136.5 44.5q-35 0 -75 -7t-74 -23v344h357v-61q-17 20 -65 20h-249z" />
    <glyph glyph-name="six.tnum" horiz-adv-x="608" 
d="M86 292q0 94 17.5 167t51 123t83 76t114.5 26q52 0 89 -12t60 -26v-62q-19 24 -60 42t-88 18q-109 0 -166 -87.5t-55 -258.5q19 56 72 90.5t122 34.5q47 0 86 -15.5t66.5 -44t43 -67.5t15.5 -87q0 -47 -16.5 -87.5t-46 -70t-69 -46.5t-85.5 -17q-108 0 -171 77.5
t-63 226.5zM140 225q0 -44 13 -80t37 -62t57 -40.5t72 -14.5q36 0 68 14t55 38t36.5 57t13.5 71q0 39 -12.5 71.5t-35 55.5t-54.5 35.5t-71 12.5q-38 0 -70.5 -12t-56.5 -33.5t-38 -50.5t-14 -62z" />
    <glyph glyph-name="seven.tnum" horiz-adv-x="608" 
d="M154 631q-48 0 -65 -20v61h408v-32l-277 -640h-50l273 631h-289z" />
    <glyph glyph-name="eight.tnum" horiz-adv-x="608" 
d="M304 363q35 5 65 17t52 30.5t34.5 43t12.5 55.5q0 29 -12.5 54t-34.5 43t-52 28.5t-65 10.5t-65 -10.5t-52 -28.5t-34.5 -43t-12.5 -54q0 -31 12.5 -55.5t34.5 -43t52 -30.5t65 -17zM78 168q0 66 44 113t125 63q-33 7 -61 22t-48.5 37t-32 49.5t-11.5 59.5
q0 37 15.5 68.5t43.5 54.5t66.5 36t84.5 13t84.5 -13t66.5 -36t43.5 -54.5t15.5 -68.5q0 -32 -11.5 -59.5t-32 -49.5t-48.5 -37t-61 -22q81 -16 125 -63t44 -113q0 -40 -16.5 -73t-46.5 -57t-71.5 -37t-91.5 -13t-91.5 13t-71.5 37t-46.5 57t-16.5 73zM304 325
q-82 -12 -130 -51.5t-48 -102.5q0 -32 13 -58.5t36.5 -45.5t56.5 -29.5t72 -10.5t72 10.5t56.5 29.5t36.5 45.5t13 58.5q0 63 -48 102.5t-130 51.5z" />
    <glyph glyph-name="nine.tnum" horiz-adv-x="608" 
d="M522 380q0 -188 -68.5 -290t-197.5 -102q-52 0 -89 12t-60 26v62q19 -24 60 -42t88 -18q109 0 166 87.5t55 258.5q-19 -56 -72 -90.5t-122 -34.5q-47 0 -86 15.5t-67 44t-43 67.5t-15 87q0 47 16.5 87.5t46 70t69 46.5t85.5 17q108 0 171 -77.5t63 -226.5zM468 447
q0 43 -13 79.5t-37 62.5t-57 40.5t-72 14.5q-36 0 -68 -14t-55 -38t-36.5 -57t-13.5 -71q0 -39 12.5 -71.5t35 -55.5t54.5 -35.5t71 -12.5q37 0 70 12t57 33.5t38 50.5t14 62z" />
    <glyph glyph-name="dollar.tnum" horiz-adv-x="608" 
d="M301 76q69 0 111 30.5t42 83.5q0 43 -25.5 67t-63.5 39.5t-83 27t-83 30t-63.5 49t-25.5 83.5q0 63 47 103t126 45v166h42v-165q23 -2 45.5 -6t42.5 -10t36 -12.5t25 -11.5v-60q-10 10 -27 21t-38.5 19.5t-47.5 14t-54 5.5q-68 0 -108.5 -30t-40.5 -79q0 -43 25.5 -66
t63.5 -38t83 -26.5t83 -30t63.5 -50t25.5 -85.5q0 -66 -48 -107t-129 -45v-166h-42v165q-26 1 -52 5.5t-49 10.5t-41.5 13t-28.5 13v60q12 -11 31.5 -22t44.5 -20t54 -15t59 -6z" />
    <glyph glyph-name="cent.tnum" horiz-adv-x="608" 
d="M358 -64h-42v149q-45 5 -82.5 25.5t-64.5 53.5t-42 76.5t-15 95.5t15 95.5t42 76.5t64.5 53.5t82.5 25.5v149h42v-148q40 -1 78.5 -14t63.5 -33v-60q-12 16 -30 28.5t-38 21.5t-41 13.5t-39 4.5q-42 0 -77.5 -15.5t-60.5 -44t-39 -67.5t-14 -86t14 -86t39 -67t60.5 -43.5
t77.5 -15.5q18 0 39.5 4.5t41.5 13.5t38.5 21.5t30.5 28.5v-62q-25 -20 -64.5 -33t-79.5 -14v-147z" />
    <glyph glyph-name="Euro.tnum" horiz-adv-x="608" 
d="M405 29q58 0 97.5 19.5t59.5 42.5v-61q-29 -20 -72.5 -31t-88.5 -11q-51 0 -95.5 19t-79 54t-58.5 84t-34 110h-80v34h77q-3 22 -3 47q0 17 1 32.5t3 30.5h-78v34h84q11 57 35 103.5t58 79t77 50.5t93 18q45 0 87.5 -11t71.5 -31v-60q-17 21 -56 41.5t-99 20.5
q-41 0 -77 -15t-64 -43t-48 -66.5t-29 -86.5h263v-34h-272q-3 -30 -3 -63q0 -13 0.5 -24.5t1.5 -22.5h273v-34h-267q8 -51 27.5 -93t48.5 -71.5t66 -45.5t80 -16z" />
    <glyph glyph-name="sterling.tnum" horiz-adv-x="608" 
d="M469 41q48 0 65 20v-61h-444v41h106v283h-90v40h90v146q0 39 14 71t38.5 55t59 35.5t76.5 12.5q34 0 67 -6.5t65 -20.5v-60q-20 25 -55 35.5t-70 10.5q-65 0 -105 -37.5t-40 -98.5v-143h198v-40h-198v-283h223z" />
    <glyph glyph-name="yen.tnum" horiz-adv-x="608" 
d="M85 628q-11 17 -20 27t-23 17h68l194 -303l194 303h54l-210 -321h160v-36h-173v-111h173v-36h-173v-168h-50v168h-173v36h173v111h-173v36h160z" />
    <glyph glyph-name="Amacron" unicode="&#x100;" 
d="M195 844h284v-36h-284v36zM291 619q8 19 8 30t-4.5 16t-6.5 7h72l278 -672h-51l-82 200h-337l-82 -200h-51zM183 239h307l-153 374z" />
    <glyph glyph-name="Abreve" unicode="&#x102;" 
d="M234 880q2 -42 31 -68.5t72 -26.5t72 26.5t31 68.5h35q-2 -60 -41 -96t-97 -36t-97 36t-41 96h35zM291 619q8 19 8 30t-4.5 16t-6.5 7h72l278 -672h-51l-82 200h-337l-82 -200h-51zM183 239h307l-153 374z" />
    <glyph glyph-name="Acaron" unicode="&#x1cd;" 
d="M354 756h-34l-121 119l23 24l115 -106l115 106l23 -24zM291 619q8 19 8 30t-4.5 16t-6.5 7h72l278 -672h-51l-82 200h-337l-82 -200h-51zM183 239h307l-153 374z" />
    <glyph glyph-name="Aringacute" unicode="&#x1fa;" 
d="M291 619q8 19 8 30t-4.5 16t-6.5 7h72l278 -672h-51l-82 200h-337l-82 -200h-51zM183 239h307l-153 374zM360 907q32 -7 51.5 -30t19.5 -57q0 -41 -25 -66t-67 -25t-69 25t-27 66q0 49 38 75l166 113l22 -32zM272 820q0 -29 19 -47.5t48 -18.5t46 18.5t17 47.5t-18 47
t-47 18t-47 -18t-18 -47z" />
    <glyph glyph-name="Aogonek" unicode="&#x104;" 
d="M183 239h307l-153 374zM638 0q-45 -35 -71.5 -68.5t-26.5 -66.5q0 -25 16 -38.5t38 -13.5q10 0 23.5 4t24.5 16v-43q-7 -4 -20.5 -7t-32.5 -3q-38 0 -62.5 20.5t-24.5 57.5t24 73t61 69l-82 200h-337l-82 -200h-51l256 619q8 19 8 30t-4.5 16t-6.5 7h72z" />
    <glyph glyph-name="AEacute" unicode="&#x1fc;" horiz-adv-x="977" 
d="M539 752l-20 28l160 110l24 -33zM220 239h262v388zM419 613q7 10 9.5 19.5t2.5 16.5q0 11 -4.5 16t-6.5 7h473v-41h-362v-267h330v-40h-330v-283h378v-41h-427v200h-285l-136 -200h-57z" />
    <glyph glyph-name="Cacute" unicode="&#x106;" horiz-adv-x="662" 
d="M347 752l-20 28l160 110l24 -33zM393 31q36 0 69.5 8t61 21.5t47.5 30t31 34.5v-71q-42 -31 -98.5 -48.5t-115.5 -17.5q-71 0 -130 25.5t-101.5 71.5t-66 110t-23.5 141t23.5 141t66 110t101.5 71.5t130 25.5q59 0 115 -17.5t97 -50.5v-70q-11 19 -31 36t-47 30.5
t-60 21.5t-69 8q-62 0 -112.5 -22t-87 -62.5t-56.5 -97t-20 -124.5t20 -124.5t56.5 -96.5t87 -62t112.5 -22z" />
    <glyph glyph-name="Ccircumflex" unicode="&#x108;" horiz-adv-x="662" 
d="M362 896h34l121 -118l-23 -25l-115 107l-115 -107l-23 25zM393 31q36 0 69.5 8t61 21.5t47.5 30t31 34.5v-71q-42 -31 -98.5 -48.5t-115.5 -17.5q-71 0 -130 25.5t-101.5 71.5t-66 110t-23.5 141t23.5 141t66 110t101.5 71.5t130 25.5q59 0 115 -17.5t97 -50.5v-70
q-11 19 -31 36t-47 30.5t-60 21.5t-69 8q-62 0 -112.5 -22t-87 -62.5t-56.5 -97t-20 -124.5t20 -124.5t56.5 -96.5t87 -62t112.5 -22z" />
    <glyph glyph-name="Ccaron" unicode="&#x10c;" horiz-adv-x="662" 
d="M396 756h-34l-121 119l23 24l115 -106l115 106l23 -24zM393 31q36 0 69.5 8t61 21.5t47.5 30t31 34.5v-71q-42 -31 -98.5 -48.5t-115.5 -17.5q-71 0 -130 25.5t-101.5 71.5t-66 110t-23.5 141t23.5 141t66 110t101.5 71.5t130 25.5q59 0 115 -17.5t97 -50.5v-70
q-11 19 -31 36t-47 30.5t-60 21.5t-69 8q-62 0 -112.5 -22t-87 -62.5t-56.5 -97t-20 -124.5t20 -124.5t56.5 -96.5t87 -62t112.5 -22z" />
    <glyph glyph-name="Cdotaccent" unicode="&#x10a;" horiz-adv-x="662" 
d="M342 826q0 17 10 27t27 10t27 -10t10 -27t-10 -27t-27 -10t-27 10t-10 27zM393 31q36 0 69.5 8t61 21.5t47.5 30t31 34.5v-71q-42 -31 -98.5 -48.5t-115.5 -17.5q-71 0 -130 25.5t-101.5 71.5t-66 110t-23.5 141t23.5 141t66 110t101.5 71.5t130 25.5q59 0 115 -17.5
t97 -50.5v-70q-11 19 -31 36t-47 30.5t-60 21.5t-69 8q-62 0 -112.5 -22t-87 -62.5t-56.5 -97t-20 -124.5t20 -124.5t56.5 -96.5t87 -62t112.5 -22z" />
    <glyph glyph-name="Dcaron" unicode="&#x10e;" horiz-adv-x="737" 
d="M373 756h-34l-121 119l23 24l115 -106l115 106l23 -24zM620 336q0 65 -21.5 119.5t-60 93.5t-92.5 60.5t-119 21.5h-152v-590h152q65 0 119 21.5t92.5 60.5t60 93.5t21.5 119.5zM332 672q75 0 137.5 -24.5t107 -68.5t69 -106t24.5 -137q0 -74 -24.5 -136t-69 -106.5
t-107 -69t-137.5 -24.5h-206v607q0 48 -20 65h226z" />
    <glyph glyph-name="Dcroat" unicode="&#x110;" horiz-adv-x="742" 
d="M337 672q75 0 137.5 -24.5t107 -68.5t69 -106t24.5 -137q0 -74 -24.5 -136t-69 -106.5t-107 -69t-137.5 -24.5h-206v324h-97v40h97v243q0 48 -20 65h226zM625 336q0 65 -21.5 119.5t-60 93.5t-92.5 60.5t-119 21.5h-152v-267h186v-40h-186v-283h152q65 0 119 21.5
t92.5 60.5t60 93.5t21.5 119.5z" />
    <glyph glyph-name="Ecaron" unicode="&#x11a;" horiz-adv-x="621" 
d="M338 756h-34l-121 119l23 24l115 -106l115 106l23 -24zM553 0h-427v607q0 48 -20 65h431v-41h-362v-267h330v-40h-330v-283h378v-41z" />
    <glyph glyph-name="Emacron" unicode="&#x112;" horiz-adv-x="621" 
d="M179 844h284v-36h-284v36zM553 0h-427v607q0 48 -20 65h431v-41h-362v-267h330v-40h-330v-283h378v-41z" />
    <glyph glyph-name="Ebreve" unicode="&#x114;" horiz-adv-x="621" 
d="M214 880q2 -42 31 -68.5t72 -26.5t72 26.5t31 68.5h35q-2 -60 -41 -96t-97 -36t-97 36t-41 96h35zM553 0h-427v607q0 48 -20 65h431v-41h-362v-267h330v-40h-330v-283h378v-41z" />
    <glyph glyph-name="Edotaccent" unicode="&#x116;" horiz-adv-x="621" 
d="M284 826q0 17 10 27t27 10t27 -10t10 -27t-10 -27t-27 -10t-27 10t-10 27zM553 0h-427v607q0 48 -20 65h431v-41h-362v-267h330v-40h-330v-283h378v-41z" />
    <glyph glyph-name="Eogonek" unicode="&#x118;" horiz-adv-x="621" 
d="M509 -187q10 0 23.5 4t24.5 16v-43q-7 -4 -20.5 -7t-32.5 -3q-38 0 -62.5 20.5t-24.5 57.5t24.5 72t68.5 70h-384v607q0 48 -20 65h431v-41h-362v-267h330v-40h-330v-283h378v-41q-45 -35 -71.5 -68.5t-26.5 -66.5q0 -25 16 -38.5t38 -13.5z" />
    <glyph glyph-name="Gcircumflex" unicode="&#x11c;" horiz-adv-x="714" 
d="M372 896h34l121 -118l-23 -25l-115 107l-115 -107l-23 25zM631 41q-18 -10 -43 -19.5t-54.5 -17t-62.5 -12t-67 -4.5q-75 0 -137 25.5t-106.5 72t-69 110t-24.5 140.5q0 76 24 140t67.5 110.5t104 72t133.5 25.5q35 0 68.5 -6t62 -15t52 -20.5t38.5 -23.5v-70
q-13 21 -35.5 38t-51.5 29t-62 19t-67 7q-63 0 -115.5 -22.5t-90 -63t-58 -96.5t-20.5 -124t21 -124t59.5 -97t91.5 -63.5t118 -22.5q95 0 178 39v227h-171v39h237q-20 -17 -20 -65v-228z" />
    <glyph glyph-name="Gbreve" unicode="&#x11e;" horiz-adv-x="714" 
d="M281 880q2 -42 31 -68.5t72 -26.5t72 26.5t31 68.5h35q-2 -60 -41 -96t-97 -36t-97 36t-41 96h35zM631 41q-18 -10 -43 -19.5t-54.5 -17t-62.5 -12t-67 -4.5q-75 0 -137 25.5t-106.5 72t-69 110t-24.5 140.5q0 76 24 140t67.5 110.5t104 72t133.5 25.5q35 0 68.5 -6
t62 -15t52 -20.5t38.5 -23.5v-70q-13 21 -35.5 38t-51.5 29t-62 19t-67 7q-63 0 -115.5 -22.5t-90 -63t-58 -96.5t-20.5 -124t21 -124t59.5 -97t91.5 -63.5t118 -22.5q95 0 178 39v227h-171v39h237q-20 -17 -20 -65v-228z" />
    <glyph glyph-name="Gdotaccent" unicode="&#x120;" horiz-adv-x="714" 
d="M352 826q0 17 10 27t27 10t27 -10t10 -27t-10 -27t-27 -10t-27 10t-10 27zM631 41q-18 -10 -43 -19.5t-54.5 -17t-62.5 -12t-67 -4.5q-75 0 -137 25.5t-106.5 72t-69 110t-24.5 140.5q0 76 24 140t67.5 110.5t104 72t133.5 25.5q35 0 68.5 -6t62 -15t52 -20.5t38.5 -23.5
v-70q-13 21 -35.5 38t-51.5 29t-62 19t-67 7q-63 0 -115.5 -22.5t-90 -63t-58 -96.5t-20.5 -124t21 -124t59.5 -97t91.5 -63.5t118 -22.5q95 0 178 39v227h-171v39h237q-20 -17 -20 -65v-228z" />
    <glyph glyph-name="Gcommaaccent" unicode="&#x122;" horiz-adv-x="714" 
d="M631 41q-18 -10 -43 -19.5t-54.5 -17t-62.5 -12t-67 -4.5q-75 0 -137 25.5t-106.5 72t-69 110t-24.5 140.5q0 76 24 140t67.5 110.5t104 72t133.5 25.5q35 0 68.5 -6t62 -15t52 -20.5t38.5 -23.5v-70q-13 21 -35.5 38t-51.5 29t-62 19t-67 7q-63 0 -115.5 -22.5t-90 -63
t-58 -96.5t-20.5 -124t21 -124t59.5 -97t91.5 -63.5t118 -22.5q95 0 178 39v227h-171v39h237q-20 -17 -20 -65v-228zM347 -113q0 18 11 30.5t31 12.5q19 0 31.5 -14.5t12.5 -37.5q0 -17 -5.5 -34.5t-15 -32.5t-23.5 -25.5t-31 -11.5q8 4 14.5 13.5t10.5 20.5t6 23t2 22
q-19 -3 -31.5 7t-12.5 27z" />
    <glyph glyph-name="Hcircumflex" unicode="&#x124;" horiz-adv-x="794" 
d="M379 896h34l121 -118l-23 -25l-115 107l-115 -107l-23 25zM175 672v-308h441v308h49v-672h-49v324h-441v-324h-49v607q0 48 -20 65h69z" />
    <glyph glyph-name="Hbar" unicode="&#x126;" horiz-adv-x="769" 
d="M605 364v168h-441v-168h441zM164 672v-103h441v103h49v-103h81v-37h-81v-532h-49v324h-441v-324h-49v532h-81v37h81v38q0 48 -20 65h69z" />
    <glyph glyph-name="Itilde" unicode="&#x128;" horiz-adv-x="304" 
d="M88 864q16 0 33 -6t33 -13.5t31 -13.5t28 -6q33 0 45 39l34 -11q-8 -29 -28 -46.5t-48 -17.5q-16 0 -33 6t-33 13t-31 13t-28 6q-34 0 -45 -38l-34 10q8 29 28 47t48 18zM175 672v-672h-49v607q0 48 -20 65h69z" />
    <glyph glyph-name="Imacron" unicode="&#x12a;" horiz-adv-x="304" 
d="M10 844h284v-36h-284v36zM175 672v-672h-49v607q0 48 -20 65h69z" />
    <glyph glyph-name="Ibreve" unicode="&#x12c;" horiz-adv-x="304" 
d="M49 880q2 -42 31 -68.5t72 -26.5t72 26.5t31 68.5h35q-2 -60 -41 -96t-97 -36t-97 36t-41 96h35zM175 672v-672h-49v607q0 48 -20 65h69z" />
    <glyph glyph-name="Idotaccent" unicode="&#x130;" horiz-adv-x="304" 
d="M114 826q0 17 10 27t27 10t27 -10t10 -27t-10 -27t-27 -10t-27 10t-10 27zM175 672v-672h-49v607q0 48 -20 65h69z" />
    <glyph glyph-name="Iogonek" unicode="&#x12e;" horiz-adv-x="304" 
d="M131 -187q10 0 23.5 4t24.5 16v-43q-7 -4 -20.5 -7t-32.5 -3q-38 0 -62.5 20.5t-24.5 57.5t22.5 72.5t64.5 69.5v607q0 48 -20 65h69v-672q-45 -35 -71.5 -68.5t-26.5 -66.5q0 -25 16 -38.5t38 -13.5z" />
    <glyph glyph-name="IJ" unicode="&#x132;" horiz-adv-x="742" 
d="M175 672v-672h-49v607q0 48 -20 65h69zM613 672v-509q0 -39 -13 -71t-36.5 -55t-56 -36t-71.5 -13q-32 0 -64 7.5t-54 18.5v57q15 -16 43.5 -28.5t65.5 -12.5q30 0 55 10t43.5 28t28.5 43t10 55v441q0 48 -20 65h69z" />
    <glyph glyph-name="Jcircumflex" unicode="&#x134;" horiz-adv-x="443" 
d="M291 896h34l121 -118l-23 -25l-115 107l-115 -107l-23 25zM333 672v-509q0 -39 -13 -71t-36.5 -55t-56 -36t-71.5 -13q-32 0 -64 7.5t-54 18.5v57q15 -16 43.5 -28.5t65.5 -12.5q30 0 55 10t43.5 28t28.5 43t10 55v441q0 48 -20 65h69z" />
    <glyph glyph-name="Kcommaaccent" unicode="&#x136;" horiz-adv-x="675" 
d="M174 672v-378l377 378h60l-313 -314l328 -358h-61l-301 327l-90 -89v-238h-48v607q0 48 -20 65h68zM308 -113q0 18 11 30.5t31 12.5q19 0 31.5 -14.5t12.5 -37.5q0 -17 -5.5 -34.5t-15 -32.5t-23.5 -25.5t-31 -11.5q8 4 14.5 13.5t10.5 20.5t6 23t2 22q-19 -3 -31.5 7
t-12.5 27z" />
    <glyph glyph-name="Lacute" unicode="&#x139;" horiz-adv-x="552" 
d="M120 752l-20 28l160 110l24 -33zM126 0v607q0 48 -20 65h69v-631h343v-41h-392z" />
    <glyph glyph-name="Lcaron" unicode="&#x13d;" horiz-adv-x="552" 
d="M306 520l-34 12l64 163l38 -14zM126 0v607q0 48 -20 65h69v-631h343v-41h-392z" />
    <glyph glyph-name="Lcommaaccent" unicode="&#x13b;" horiz-adv-x="552" 
d="M126 0v607q0 48 -20 65h69v-631h343v-41h-392zM271 -113q0 18 11 30.5t31 12.5q19 0 31.5 -14.5t12.5 -37.5q0 -17 -5.5 -34.5t-15 -32.5t-23.5 -25.5t-31 -11.5q8 4 14.5 13.5t10.5 20.5t6 23t2 22q-19 -3 -31.5 7t-12.5 27z" />
    <glyph glyph-name="Ldot" unicode="&#x13f;" horiz-adv-x="552" 
d="M387 353q0 17 10 27t27 10t27 -10t10 -27t-10 -27t-27 -10t-27 10t-10 27zM126 0v607q0 48 -20 65h69v-631h343v-41h-392z" />
    <glyph glyph-name="Nacute" unicode="&#x143;" horiz-adv-x="794" 
d="M364 752l-20 28l160 110l24 -33zM175 672l444 -603v603h46v-672h-49l-444 603v-603h-46v607q0 48 -20 65h69z" />
    <glyph glyph-name="Ncaron" unicode="&#x147;" horiz-adv-x="794" 
d="M413 756h-34l-121 119l23 24l115 -106l115 106l23 -24zM175 672l444 -603v603h46v-672h-49l-444 603v-603h-46v607q0 48 -20 65h69z" />
    <glyph glyph-name="Ncommaaccent" unicode="&#x145;" horiz-adv-x="794" 
d="M175 672l444 -603v603h46v-672h-49l-444 603v-603h-46v607q0 48 -20 65h69zM354 -113q0 18 11 30.5t31 12.5q19 0 31.5 -14.5t12.5 -37.5q0 -17 -5.5 -34.5t-15 -32.5t-23.5 -25.5t-31 -11.5q8 4 14.5 13.5t10.5 20.5t6 23t2 22q-19 -3 -31.5 7t-12.5 27z" />
    <glyph glyph-name="Eng" unicode="&#x14a;" horiz-adv-x="794" 
d="M480 -178q30 0 55 9.5t43.5 26.5t29 41t10.5 54v45l-446 605v-603h-46v607q0 48 -20 65h69l444 -603v603h46v-717q0 -39 -13 -71t-36.5 -55t-56 -36t-71.5 -13q-32 0 -64 7.5t-54 18.5v57q15 -16 44 -28.5t66 -12.5z" />
    <glyph glyph-name="Omacron" unicode="&#x14c;" horiz-adv-x="779" 
d="M248 844h284v-36h-284v36zM67 336q0 76 23.5 140t66.5 110.5t102.5 72t130.5 25.5t130 -25.5t102 -72t66.5 -110.5t23.5 -140q0 -77 -23.5 -140.5t-66.5 -110t-102 -72t-130 -25.5t-130.5 25.5t-102.5 72t-66.5 110t-23.5 140.5zM117 336q0 -67 20 -123.5t56.5 -97
t86.5 -63.5t110 -23t110 23t86 63.5t56 97t20 123.5t-20 123.5t-56 97t-86 63.5t-110 23t-110 -23t-86.5 -63.5t-56.5 -97t-20 -123.5z" />
    <glyph glyph-name="Obreve" unicode="&#x14e;" horiz-adv-x="779" 
d="M282 880q2 -42 31 -68.5t72 -26.5t72 26.5t31 68.5h35q-2 -60 -41 -96t-97 -36t-97 36t-41 96h35zM67 336q0 76 23.5 140t66.5 110.5t102.5 72t130.5 25.5t130 -25.5t102 -72t66.5 -110.5t23.5 -140q0 -77 -23.5 -140.5t-66.5 -110t-102 -72t-130 -25.5t-130.5 25.5
t-102.5 72t-66.5 110t-23.5 140.5zM117 336q0 -67 20 -123.5t56.5 -97t86.5 -63.5t110 -23t110 23t86 63.5t56 97t20 123.5t-20 123.5t-56 97t-86 63.5t-110 23t-110 -23t-86.5 -63.5t-56.5 -97t-20 -123.5z" />
    <glyph glyph-name="Ohungarumlaut" unicode="&#x150;" horiz-adv-x="779" 
d="M466 747l-26 25l138 142l29 -29zM288 747l-25 25l138 142l29 -29zM67 336q0 76 23.5 140t66.5 110.5t102.5 72t130.5 25.5t130 -25.5t102 -72t66.5 -110.5t23.5 -140q0 -77 -23.5 -140.5t-66.5 -110t-102 -72t-130 -25.5t-130.5 25.5t-102.5 72t-66.5 110t-23.5 140.5z
M117 336q0 -67 20 -123.5t56.5 -97t86.5 -63.5t110 -23t110 23t86 63.5t56 97t20 123.5t-20 123.5t-56 97t-86 63.5t-110 23t-110 -23t-86.5 -63.5t-56.5 -97t-20 -123.5z" />
    <glyph glyph-name="Oslashacute" unicode="&#x1fe;" horiz-adv-x="779" 
d="M358 752l-20 28l160 110l24 -33zM67 336q0 76 23.5 140t66.5 110.5t102.5 72t130.5 25.5q56 0 106.5 -16.5t85.5 -45.5l48 65l28 -23l-49 -65q48 -45 75.5 -112.5t27.5 -150.5q0 -77 -23.5 -140.5t-66.5 -110t-102 -72t-130 -25.5q-57 0 -107 16.5t-86 45.5l-48 -65
l-29 22l49 66q-48 48 -75 114t-27 149zM117 336q0 -71 21.5 -128t58.5 -96l357 475q-35 27 -75.5 41.5t-88.5 14.5q-61 0 -111 -22.5t-86 -63.5t-56 -97.5t-20 -123.5zM662 336q0 71 -21.5 128t-59.5 97l-356 -475q32 -26 73.5 -41.5t91.5 -15.5q60 0 110 22.5t86 63.5
t56 97t20 124z" />
    <glyph glyph-name="Racute" unicode="&#x154;" 
d="M315 752l-20 28l160 110l24 -33zM174 322h186q36 0 66.5 11t52.5 31.5t34.5 49t12.5 63.5q0 34 -12.5 62.5t-34.5 48.5t-52.5 31.5t-66.5 11.5h-186v-309zM366 672q46 0 84 -14.5t65.5 -40.5t43 -61.5t15.5 -78.5q0 -39 -13 -72t-36 -58t-56 -40.5t-73 -19.5l204 -287
h-56l-198 282h-172v-282h-48v607q0 48 -20 65h260z" />
    <glyph glyph-name="Rcaron" unicode="&#x158;" 
d="M364 756h-34l-121 119l23 24l115 -106l115 106l23 -24zM174 322h186q36 0 66.5 11t52.5 31.5t34.5 49t12.5 63.5q0 34 -12.5 62.5t-34.5 48.5t-52.5 31.5t-66.5 11.5h-186v-309zM366 672q46 0 84 -14.5t65.5 -40.5t43 -61.5t15.5 -78.5q0 -39 -13 -72t-36 -58t-56 -40.5
t-73 -19.5l204 -287h-56l-198 282h-172v-282h-48v607q0 48 -20 65h260z" />
    <glyph glyph-name="Rcommaaccent" unicode="&#x156;" 
d="M174 322h186q36 0 66.5 11t52.5 31.5t34.5 49t12.5 63.5q0 34 -12.5 62.5t-34.5 48.5t-52.5 31.5t-66.5 11.5h-186v-309zM366 672q46 0 84 -14.5t65.5 -40.5t43 -61.5t15.5 -78.5q0 -39 -13 -72t-36 -58t-56 -40.5t-73 -19.5l204 -287h-56l-198 282h-172v-282h-48v607
q0 48 -20 65h260zM305 -113q0 18 11 30.5t31 12.5q19 0 31.5 -14.5t12.5 -37.5q0 -17 -5.5 -34.5t-15 -32.5t-23.5 -25.5t-31 -11.5q8 4 14.5 13.5t10.5 20.5t6 23t2 22q-19 -3 -31.5 7t-12.5 27z" />
    <glyph glyph-name="Sacute" unicode="&#x15a;" horiz-adv-x="594" 
d="M265 752l-20 28l160 110l24 -33zM294 29q42 0 76 10t58 27.5t37 42.5t13 55q0 39 -17.5 64.5t-46 43t-65 29t-75 23t-75 25t-65 34.5t-46 52t-17.5 77q0 38 16.5 70t46.5 54.5t71.5 35t91.5 12.5q59 0 108 -11t91 -32v-70q-6 12 -23.5 24.5t-43.5 23t-59 17.5t-70 7
q-41 0 -74 -9.5t-56.5 -27t-36.5 -41.5t-13 -53q0 -38 17.5 -63t46 -42t65 -28.5t74.5 -23t74.5 -25t65 -35t46 -53t17.5 -78.5q0 -39 -16.5 -71.5t-46.5 -56t-73 -36t-96 -12.5q-32 0 -64.5 4.5t-61.5 11.5t-53 15.5t-40 16.5v71q16 -21 43 -35.5t57.5 -24t62 -14
t56.5 -4.5z" />
    <glyph glyph-name="Scircumflex" unicode="&#x15c;" horiz-adv-x="594" 
d="M280 896h34l121 -118l-23 -25l-115 107l-115 -107l-23 25zM294 29q42 0 76 10t58 27.5t37 42.5t13 55q0 39 -17.5 64.5t-46 43t-65 29t-75 23t-75 25t-65 34.5t-46 52t-17.5 77q0 38 16.5 70t46.5 54.5t71.5 35t91.5 12.5q59 0 108 -11t91 -32v-70q-6 12 -23.5 24.5
t-43.5 23t-59 17.5t-70 7q-41 0 -74 -9.5t-56.5 -27t-36.5 -41.5t-13 -53q0 -38 17.5 -63t46 -42t65 -28.5t74.5 -23t74.5 -25t65 -35t46 -53t17.5 -78.5q0 -39 -16.5 -71.5t-46.5 -56t-73 -36t-96 -12.5q-32 0 -64.5 4.5t-61.5 11.5t-53 15.5t-40 16.5v71q16 -21 43 -35.5
t57.5 -24t62 -14t56.5 -4.5z" />
    <glyph glyph-name="Scedilla" unicode="&#x15e;" horiz-adv-x="594" 
d="M312 -64q32 -3 53.5 -25t21.5 -52q0 -35 -28.5 -57t-72.5 -22q-20 0 -43 4t-36 11v43q6 -7 27.5 -16t47.5 -9q28 0 46.5 13.5t18.5 36.5q0 22 -19 35.5t-48 13.5h-9l14 76q-32 1 -63 5.5t-58.5 11.5t-50.5 15t-38 16v71q16 -21 43 -35.5t57.5 -24t62 -14t56.5 -4.5
q42 0 76 10t58 27.5t37 42.5t13 55q0 39 -17.5 64.5t-46 43t-65 29t-75 23t-75 25t-65 34.5t-46 52t-17.5 77q0 38 16.5 70t46.5 54.5t71.5 35t91.5 12.5q59 0 108 -11t91 -32v-70q-6 12 -23.5 24.5t-43.5 23t-59 17.5t-70 7q-41 0 -74 -9.5t-56.5 -27t-36.5 -41.5t-13 -53
q0 -38 17.5 -63t46 -42t65 -28.5t74.5 -23t74.5 -25t65 -35t46 -53t17.5 -78.5q0 -74 -55.5 -121t-149.5 -54z" />
    <glyph glyph-name="Scommaaccent" unicode="&#x218;" horiz-adv-x="594" 
d="M294 29q42 0 76 10t58 27.5t37 42.5t13 55q0 39 -17.5 64.5t-46 43t-65 29t-75 23t-75 25t-65 34.5t-46 52t-17.5 77q0 38 16.5 70t46.5 54.5t71.5 35t91.5 12.5q59 0 108 -11t91 -32v-70q-6 12 -23.5 24.5t-43.5 23t-59 17.5t-70 7q-41 0 -74 -9.5t-56.5 -27
t-36.5 -41.5t-13 -53q0 -38 17.5 -63t46 -42t65 -28.5t74.5 -23t74.5 -25t65 -35t46 -53t17.5 -78.5q0 -39 -16.5 -71.5t-46.5 -56t-73 -36t-96 -12.5q-32 0 -64.5 4.5t-61.5 11.5t-53 15.5t-40 16.5v71q16 -21 43 -35.5t57.5 -24t62 -14t56.5 -4.5zM255 -113q0 18 11 30.5
t31 12.5q19 0 31.5 -14.5t12.5 -37.5q0 -17 -5.5 -34.5t-15 -32.5t-23.5 -25.5t-31 -11.5q8 4 14.5 13.5t10.5 20.5t6 23t2 22q-19 -3 -31.5 7t-12.5 27z" />
    <glyph glyph-name="uni1E9E" unicode="&#x1e9e;" horiz-adv-x="786" 
d="M686 672v-30l-184 -251q47 -3 85.5 -19t65.5 -42t42 -62t15 -78q0 -44 -16 -81t-45 -64t-69 -42t-88 -15q-50 0 -98.5 12.5t-80.5 31.5v71q15 -20 36.5 -34t45.5 -23t48.5 -13t45.5 -4q38 0 69.5 12t54.5 33.5t36 51t13 64.5q0 36 -13.5 66.5t-38.5 52t-60 34t-77 12.5
h-20l-9 26l184 250h-454v-631h-48v607q0 48 -20 65h580z" />
    <glyph glyph-name="Tcaron" unicode="&#x164;" horiz-adv-x="605" 
d="M320 756h-34l-121 119l23 24l115 -106l115 106l23 -24zM99 631q-48 0 -65 -20v61h537v-41h-244v-631h-49v631h-179z" />
    <glyph glyph-name="Tcommaaccent" unicode="&#x162;" horiz-adv-x="605" 
d="M99 631q-48 0 -65 -20v61h537v-41h-244v-631h-49v631h-179zM260 -113q0 18 11 30.5t31 12.5q19 0 31.5 -14.5t12.5 -37.5q0 -17 -5.5 -34.5t-15 -32.5t-23.5 -25.5t-31 -11.5q8 4 14.5 13.5t10.5 20.5t6 23t2 22q-19 -3 -31.5 7t-12.5 27z" />
    <glyph glyph-name="uni021A" unicode="&#x21a;" horiz-adv-x="605" 
d="M99 631q-48 0 -65 -20v61h537v-41h-244v-631h-49v631h-179zM260 -113q0 18 11 30.5t31 12.5q19 0 31.5 -14.5t12.5 -37.5q0 -17 -5.5 -34.5t-15 -32.5t-23.5 -25.5t-31 -11.5q8 4 14.5 13.5t10.5 20.5t6 23t2 22q-19 -3 -31.5 7t-12.5 27z" />
    <glyph glyph-name="Tbar" unicode="&#x166;" horiz-adv-x="605" 
d="M327 631v-292h151v-39h-151v-300h-49v300h-151v39h151v292h-244v41h537v-61q-17 20 -65 20h-179z" />
    <glyph glyph-name="Utilde" unicode="&#x168;" horiz-adv-x="791" 
d="M330 864q16 0 33 -6t33 -13.5t31 -13.5t28 -6q33 0 45 39l34 -11q-8 -29 -28 -46.5t-48 -17.5q-16 0 -33 6t-33 13t-31 13t-28 6q-34 0 -45 -38l-34 10q8 29 28 47t48 18zM165 672v-418q0 -50 17 -91t48 -71t72.5 -46.5t91.5 -16.5q49 0 91 16.5t72.5 46.5t47.5 71t17 91
v418h49v-420q0 -58 -21 -106.5t-58 -83.5t-87.5 -54.5t-110.5 -19.5t-111 19.5t-88 54.5t-58 83.5t-21 106.5v355q0 48 -20 65h69z" />
    <glyph glyph-name="Umacron" unicode="&#x16a;" horiz-adv-x="791" 
d="M252 844h284v-36h-284v36zM165 672v-418q0 -50 17 -91t48 -71t72.5 -46.5t91.5 -16.5q49 0 91 16.5t72.5 46.5t47.5 71t17 91v418h49v-420q0 -58 -21 -106.5t-58 -83.5t-87.5 -54.5t-110.5 -19.5t-111 19.5t-88 54.5t-58 83.5t-21 106.5v355q0 48 -20 65h69z" />
    <glyph glyph-name="Ubreve" unicode="&#x16c;" horiz-adv-x="791" 
d="M286 880q2 -42 31 -68.5t72 -26.5t72 26.5t31 68.5h35q-2 -60 -41 -96t-97 -36t-97 36t-41 96h35zM165 672v-418q0 -50 17 -91t48 -71t72.5 -46.5t91.5 -16.5q49 0 91 16.5t72.5 46.5t47.5 71t17 91v418h49v-420q0 -58 -21 -106.5t-58 -83.5t-87.5 -54.5t-110.5 -19.5
t-111 19.5t-88 54.5t-58 83.5t-21 106.5v355q0 48 -20 65h69z" />
    <glyph glyph-name="Uring" unicode="&#x16e;" horiz-adv-x="791" 
d="M300 826q0 42 26 67t68 25t68 -25t26 -67q0 -41 -25 -66.5t-67 -25.5t-69 25.5t-27 66.5zM329 826q0 -29 19 -47t48 -18q28 0 45.5 18t17.5 47t-18 47t-47 18t-47 -18t-18 -47zM165 672v-418q0 -50 17 -91t48 -71t72.5 -46.5t91.5 -16.5q49 0 91 16.5t72.5 46.5t47.5 71
t17 91v418h49v-420q0 -58 -21 -106.5t-58 -83.5t-87.5 -54.5t-110.5 -19.5t-111 19.5t-88 54.5t-58 83.5t-21 106.5v355q0 48 -20 65h69z" />
    <glyph glyph-name="Uhungarumlaut" unicode="&#x170;" horiz-adv-x="791" 
d="M470 747l-26 25l138 142l29 -29zM292 747l-25 25l138 142l29 -29zM165 672v-418q0 -50 17 -91t48 -71t72.5 -46.5t91.5 -16.5q49 0 91 16.5t72.5 46.5t47.5 71t17 91v418h49v-420q0 -58 -21 -106.5t-58 -83.5t-87.5 -54.5t-110.5 -19.5t-111 19.5t-88 54.5t-58 83.5
t-21 106.5v355q0 48 -20 65h69z" />
    <glyph glyph-name="Uogonek" unicode="&#x172;" horiz-adv-x="791" 
d="M429 -187q10 0 23.5 4t24.5 16v-43q-7 -4 -20.5 -7t-32.5 -3q-38 0 -62.5 20.5t-24.5 57.5q0 69 97 133q-14 -2 -27 -2.5t-27 0.5q-56 1 -104 21.5t-83.5 55t-56 82t-20.5 104.5v355q0 48 -20 65h69v-418q0 -50 17 -91t48 -71t72.5 -46.5t91.5 -16.5q49 0 91 17t72.5 47
t47.5 71.5t17 89.5v418h49v-417q0 -45 -11 -81t-32 -66t-51.5 -55t-70.5 -48q-39 -23 -64.5 -42.5t-40.5 -37t-20.5 -32.5t-5.5 -28q0 -25 16 -38.5t38 -13.5z" />
    <glyph glyph-name="Wgrave" unicode="&#x1e80;" horiz-adv-x="1010" 
d="M558 780l-19 -28l-164 105l24 33zM462 615q4 12 6 20t2 14q0 11 -4.5 16t-6.5 7h69l191 -609l192 609h50l-216 -672h-50l-191 609l-192 -609h-50l-195 607q-5 17 -13.5 35t-26.5 30h69l192 -609z" />
    <glyph glyph-name="Wacute" unicode="&#x1e82;" horiz-adv-x="1010" 
d="M472 752l-20 28l160 110l24 -33zM462 615q4 12 6 20t2 14q0 11 -4.5 16t-6.5 7h69l191 -609l192 609h50l-216 -672h-50l-191 609l-192 -609h-50l-195 607q-5 17 -13.5 35t-26.5 30h69l192 -609z" />
    <glyph glyph-name="Wcircumflex" unicode="&#x174;" horiz-adv-x="1010" 
d="M487 896h34l121 -118l-23 -25l-115 107l-115 -107l-23 25zM462 615q4 12 6 20t2 14q0 11 -4.5 16t-6.5 7h69l191 -609l192 609h50l-216 -672h-50l-191 609l-192 -609h-50l-195 607q-5 17 -13.5 35t-26.5 30h69l192 -609z" />
    <glyph glyph-name="Wdieresis" unicode="&#x1e84;" horiz-adv-x="1010" 
d="M368 826q0 16 10 25.5t26 9.5t25.5 -9.5t9.5 -25.5t-9.5 -25.5t-25.5 -9.5t-26 9.5t-10 25.5zM569 826q0 16 9.5 25.5t25.5 9.5t26 -9.5t10 -25.5t-10 -25.5t-26 -9.5t-25.5 9.5t-9.5 25.5zM462 615q4 12 6 20t2 14q0 11 -4.5 16t-6.5 7h69l191 -609l192 609h50
l-216 -672h-50l-191 609l-192 -609h-50l-195 607q-5 17 -13.5 35t-26.5 30h69l192 -609z" />
    <glyph glyph-name="Ygrave" unicode="&#x1ef2;" horiz-adv-x="592" 
d="M349 780l-19 -28l-164 105l24 33zM52 628q-11 17 -20 27t-23 17h69l217 -332l216 332h56l-248 -377v-295h-49v295z" />
    <glyph glyph-name="Ycircumflex" unicode="&#x176;" horiz-adv-x="592" 
d="M278 896h34l121 -118l-23 -25l-115 107l-115 -107l-23 25zM52 628q-11 17 -20 27t-23 17h69l217 -332l216 332h56l-248 -377v-295h-49v295z" />
    <glyph glyph-name="Zacute" unicode="&#x179;" horiz-adv-x="642" 
d="M289 752l-20 28l160 110l24 -33zM574 0h-507v30l430 601h-418v41h483v-30l-429 -601h376q48 0 65 20v-61z" />
    <glyph glyph-name="Zdotaccent" unicode="&#x17b;" horiz-adv-x="642" 
d="M284 826q0 17 10 27t27 10t27 -10t10 -27t-10 -27t-27 -10t-27 10t-10 27zM574 0h-507v30l430 601h-418v41h483v-30l-429 -601h376q48 0 65 20v-61z" />
    <glyph glyph-name="a" unicode="a" 
d="M291 619q8 19 8 30t-4.5 16t-6.5 7h72l278 -672h-51l-82 200h-337l-82 -200h-51zM183 239h307l-153 374z" />
    <glyph glyph-name="b" unicode="b" 
d="M174 40h220q34 0 62.5 10.5t48.5 29t31.5 45t11.5 58.5q0 31 -11.5 57.5t-31.5 45t-48.5 29t-62.5 10.5h-220v-285zM174 363h205q32 0 58.5 10t46 27.5t30.5 42t11 54.5t-11 55t-30.5 43t-46 28t-58.5 10h-205v-270zM384 672q41 0 76 -12.5t60 -35.5t39 -54.5t14 -68.5
q0 -53 -29 -94t-80 -60q63 -16 98 -61t35 -107q0 -41 -15 -74t-41 -56t-62 -36t-79 -13h-274v607q0 48 -20 65h278z" />
    <glyph glyph-name="c" unicode="c" horiz-adv-x="662" 
d="M393 31q36 0 69.5 8t61 21.5t47.5 30t31 34.5v-71q-42 -31 -98.5 -48.5t-115.5 -17.5q-71 0 -130 25.5t-101.5 71.5t-66 110t-23.5 141t23.5 141t66 110t101.5 71.5t130 25.5q59 0 115 -17.5t97 -50.5v-70q-11 19 -31 36t-47 30.5t-60 21.5t-69 8q-62 0 -112.5 -22
t-87 -62.5t-56.5 -97t-20 -124.5t20 -124.5t56.5 -96.5t87 -62t112.5 -22z" />
    <glyph glyph-name="d" unicode="d" horiz-adv-x="737" 
d="M620 336q0 65 -21.5 119.5t-60 93.5t-92.5 60.5t-119 21.5h-152v-590h152q65 0 119 21.5t92.5 60.5t60 93.5t21.5 119.5zM332 672q75 0 137.5 -24.5t107 -68.5t69 -106t24.5 -137q0 -74 -24.5 -136t-69 -106.5t-107 -69t-137.5 -24.5h-206v607q0 48 -20 65h226z" />
    <glyph glyph-name="e" unicode="e" horiz-adv-x="621" 
d="M553 0h-427v607q0 48 -20 65h431v-41h-362v-267h330v-40h-330v-283h378v-41z" />
    <glyph glyph-name="f" unicode="f" horiz-adv-x="605" 
d="M537 672v-41h-362v-291h330v-41h-330v-299h-49v607q0 48 -20 65h431z" />
    <glyph glyph-name="g" unicode="g" horiz-adv-x="714" 
d="M631 41q-18 -10 -43 -19.5t-54.5 -17t-62.5 -12t-67 -4.5q-75 0 -137 25.5t-106.5 72t-69 110t-24.5 140.5q0 76 24 140t67.5 110.5t104 72t133.5 25.5q35 0 68.5 -6t62 -15t52 -20.5t38.5 -23.5v-70q-13 21 -35.5 38t-51.5 29t-62 19t-67 7q-63 0 -115.5 -22.5t-90 -63
t-58 -96.5t-20.5 -124t21 -124t59.5 -97t91.5 -63.5t118 -22.5q95 0 178 39v227h-171v39h237q-20 -17 -20 -65v-228z" />
    <glyph glyph-name="h" unicode="h" horiz-adv-x="794" 
d="M175 672v-308h441v308h49v-672h-49v324h-441v-324h-49v607q0 48 -20 65h69z" />
    <glyph glyph-name="i" unicode="i" horiz-adv-x="304" 
d="M175 672v-672h-49v607q0 48 -20 65h69z" />
    <glyph glyph-name="j" unicode="j" horiz-adv-x="462" 
d="M333 672v-509q0 -39 -13 -71t-36.5 -55t-56 -36t-71.5 -13q-32 0 -64 7.5t-54 18.5v57q15 -16 43.5 -28.5t65.5 -12.5q30 0 55 10t43.5 28t28.5 43t10 55v441q0 48 -20 65h69z" />
    <glyph glyph-name="k" unicode="k" horiz-adv-x="675" 
d="M174 672v-378l377 378h60l-313 -314l328 -358h-61l-301 327l-90 -89v-238h-48v607q0 48 -20 65h68z" />
    <glyph glyph-name="l" unicode="l" horiz-adv-x="552" 
d="M126 0v607q0 48 -20 65h69v-631h343v-41h-392z" />
    <glyph glyph-name="m" unicode="m" horiz-adv-x="882" 
d="M175 672l265 -358l264 358h49v-672h-46v603l-267 -364l-268 364v-603h-46v607q0 48 -20 65h69z" />
    <glyph glyph-name="n" unicode="n" horiz-adv-x="794" 
d="M175 672l444 -603v603h46v-672h-49l-444 603v-603h-46v607q0 48 -20 65h69z" />
    <glyph glyph-name="o" unicode="o" horiz-adv-x="779" 
d="M67 336q0 76 23.5 140t66.5 110.5t102.5 72t130.5 25.5t130 -25.5t102 -72t66.5 -110.5t23.5 -140q0 -77 -23.5 -140.5t-66.5 -110t-102 -72t-130 -25.5t-130.5 25.5t-102.5 72t-66.5 110t-23.5 140.5zM117 336q0 -67 20 -123.5t56.5 -97t86.5 -63.5t110 -23t110 23
t86 63.5t56 97t20 123.5t-20 123.5t-56 97t-86 63.5t-110 23t-110 -23t-86.5 -63.5t-56.5 -97t-20 -123.5z" />
    <glyph glyph-name="p" unicode="p" horiz-adv-x="638" 
d="M174 306h185q38 0 69.5 12t54.5 33.5t36 51.5t13 66t-13 65.5t-36 51t-54.5 33.5t-69.5 12h-185v-325zM364 672q48 0 87.5 -15t68.5 -42t45 -64t16 -82t-16 -82t-45 -64t-68.5 -42t-87.5 -15h-190v-266h-48v607q0 48 -20 65h258z" />
    <glyph glyph-name="q" unicode="q" horiz-adv-x="772" 
d="M67 336q0 76 23.5 140t66.5 110.5t102.5 72t130.5 25.5t130 -25.5t102 -72t66.5 -110.5t23.5 -140q0 -67 -19 -126.5t-54.5 -105.5t-86 -74.5t-113.5 -33.5q25 -3 50 -15t52 -25t57 -23.5t65 -10.5q26 0 47.5 7t37.5 18q-5 -8 -14.5 -18t-24.5 -19t-37 -15t-50 -6
q-42 0 -79.5 15t-73 33t-69.5 33t-70 15q-20 0 -40.5 -5.5t-40.5 -19.5q13 17 23 27.5t17 15.5q-51 15 -92 46t-70 74t-44.5 97t-15.5 116zM117 336q0 -67 20 -123.5t56.5 -97t86.5 -63.5t110 -23t110 23t86 63.5t56 97t20 123.5t-20 123.5t-56 97t-86 63.5t-110 23
t-110 -23t-86.5 -63.5t-56.5 -97t-20 -123.5z" />
    <glyph glyph-name="r" unicode="r" 
d="M174 322h186q36 0 66.5 11t52.5 31.5t34.5 49t12.5 63.5q0 34 -12.5 62.5t-34.5 48.5t-52.5 31.5t-66.5 11.5h-186v-309zM366 672q46 0 84 -14.5t65.5 -40.5t43 -61.5t15.5 -78.5q0 -39 -13 -72t-36 -58t-56 -40.5t-73 -19.5l204 -287h-56l-198 282h-172v-282h-48v607
q0 48 -20 65h260z" />
    <glyph glyph-name="s" unicode="s" horiz-adv-x="594" 
d="M294 29q42 0 76 10t58 27.5t37 42.5t13 55q0 39 -17.5 64.5t-46 43t-65 29t-75 23t-75 25t-65 34.5t-46 52t-17.5 77q0 38 16.5 70t46.5 54.5t71.5 35t91.5 12.5q59 0 108 -11t91 -32v-70q-6 12 -23.5 24.5t-43.5 23t-59 17.5t-70 7q-41 0 -74 -9.5t-56.5 -27
t-36.5 -41.5t-13 -53q0 -38 17.5 -63t46 -42t65 -28.5t74.5 -23t74.5 -25t65 -35t46 -53t17.5 -78.5q0 -39 -16.5 -71.5t-46.5 -56t-73 -36t-96 -12.5q-32 0 -64.5 4.5t-61.5 11.5t-53 15.5t-40 16.5v71q16 -21 43 -35.5t57.5 -24t62 -14t56.5 -4.5z" />
    <glyph glyph-name="t" unicode="t" horiz-adv-x="605" 
d="M99 631q-48 0 -65 -20v61h537v-41h-244v-631h-49v631h-179z" />
    <glyph glyph-name="u" unicode="u" horiz-adv-x="791" 
d="M165 672v-418q0 -50 17 -91t48 -71t72.5 -46.5t91.5 -16.5q49 0 91 16.5t72.5 46.5t47.5 71t17 91v418h49v-420q0 -58 -21 -106.5t-58 -83.5t-87.5 -54.5t-110.5 -19.5t-111 19.5t-88 54.5t-58 83.5t-21 106.5v355q0 48 -20 65h69z" />
    <glyph glyph-name="v" unicode="v" horiz-adv-x="670" 
d="M59 607q-7 17 -16.5 35t-27.5 30h69l250 -609l249 609h52l-278 -672h-47z" />
    <glyph glyph-name="w" unicode="w" horiz-adv-x="1010" 
d="M462 615q4 12 6 20t2 14q0 11 -4.5 16t-6.5 7h69l191 -609l192 609h50l-216 -672h-50l-191 609l-192 -609h-50l-195 607q-5 17 -13.5 35t-26.5 30h69l192 -609z" />
    <glyph glyph-name="x" unicode="x" horiz-adv-x="685" 
d="M94 630q-14 17 -24 27t-21 15h69l225 -295l224 295h56l-249 -328l261 -344h-57l-235 311l-236 -311h-57l261 344z" />
    <glyph glyph-name="y" unicode="y" horiz-adv-x="592" 
d="M52 628q-11 17 -20 27t-23 17h69l217 -332l216 332h56l-248 -377v-295h-49v295z" />
    <glyph glyph-name="z" unicode="z" horiz-adv-x="642" 
d="M574 0h-507v30l430 601h-418v41h483v-30l-429 -601h376q48 0 65 20v-61z" />
    <glyph glyph-name="agrave" unicode="&#xe0;" 
d="M391 780l-19 -28l-164 105l24 33zM291 619q8 19 8 30t-4.5 16t-6.5 7h72l278 -672h-51l-82 200h-337l-82 -200h-51zM183 239h307l-153 374z" />
    <glyph glyph-name="aacute" unicode="&#xe1;" 
d="M305 752l-20 28l160 110l24 -33zM291 619q8 19 8 30t-4.5 16t-6.5 7h72l278 -672h-51l-82 200h-337l-82 -200h-51zM183 239h307l-153 374z" />
    <glyph glyph-name="acircumflex" unicode="&#xe2;" 
d="M320 896h34l121 -118l-23 -25l-115 107l-115 -107l-23 25zM291 619q8 19 8 30t-4.5 16t-6.5 7h72l278 -672h-51l-82 200h-337l-82 -200h-51zM183 239h307l-153 374z" />
    <glyph glyph-name="atilde" unicode="&#xe3;" 
d="M273 864q16 0 33 -6t33 -13.5t31 -13.5t28 -6q33 0 45 39l34 -11q-8 -29 -28 -46.5t-48 -17.5q-16 0 -33 6t-33 13t-31 13t-28 6q-34 0 -45 -38l-34 10q8 29 28 47t48 18zM291 619q8 19 8 30t-4.5 16t-6.5 7h72l278 -672h-51l-82 200h-337l-82 -200h-51zM183 239h307
l-153 374z" />
    <glyph glyph-name="adieresis" unicode="&#xe4;" 
d="M210 826q0 16 10 25.5t26 9.5t25.5 -9.5t9.5 -25.5t-9.5 -25.5t-25.5 -9.5t-26 9.5t-10 25.5zM411 826q0 16 9.5 25.5t25.5 9.5t26 -9.5t10 -25.5t-10 -25.5t-26 -9.5t-25.5 9.5t-9.5 25.5zM291 619q8 19 8 30t-4.5 16t-6.5 7h72l278 -672h-51l-82 200h-337l-82 -200h-51
zM183 239h307l-153 374z" />
    <glyph glyph-name="amacron" unicode="&#x101;" 
d="M195 844h284v-36h-284v36zM291 619q8 19 8 30t-4.5 16t-6.5 7h72l278 -672h-51l-82 200h-337l-82 -200h-51zM183 239h307l-153 374z" />
    <glyph glyph-name="abreve" unicode="&#x103;" 
d="M234 880q2 -42 31 -68.5t72 -26.5t72 26.5t31 68.5h35q-2 -60 -41 -96t-97 -36t-97 36t-41 96h35zM291 619q8 19 8 30t-4.5 16t-6.5 7h72l278 -672h-51l-82 200h-337l-82 -200h-51zM183 239h307l-153 374z" />
    <glyph glyph-name="acaron" unicode="&#x1ce;" 
d="M354 756h-34l-121 119l23 24l115 -106l115 106l23 -24zM291 619q8 19 8 30t-4.5 16t-6.5 7h72l278 -672h-51l-82 200h-337l-82 -200h-51zM183 239h307l-153 374z" />
    <glyph glyph-name="aring" unicode="&#xe5;" 
d="M243 826q0 42 26 67t68 25t68 -25t26 -67q0 -41 -25 -66.5t-67 -25.5t-69 25.5t-27 66.5zM272 826q0 -29 19 -47t48 -18q28 0 45.5 18t17.5 47t-18 47t-47 18t-47 -18t-18 -47zM291 619q8 19 8 30t-4.5 16t-6.5 7h72l278 -672h-51l-82 200h-337l-82 -200h-51zM183 239
h307l-153 374z" />
    <glyph glyph-name="aringacute" unicode="&#x1fb;" 
d="M291 619q8 19 8 30t-4.5 16t-6.5 7h72l278 -672h-51l-82 200h-337l-82 -200h-51zM183 239h307l-153 374zM360 907q32 -7 51.5 -30t19.5 -57q0 -41 -25 -66t-67 -25t-69 25t-27 66q0 49 38 75l166 113l22 -32zM272 820q0 -29 19 -47.5t48 -18.5t46 18.5t17 47.5t-18 47
t-47 18t-47 -18t-18 -47z" />
    <glyph glyph-name="aogonek" unicode="&#x105;" 
d="M183 239h307l-153 374zM638 0q-45 -35 -71.5 -68.5t-26.5 -66.5q0 -25 16 -38.5t38 -13.5q10 0 23.5 4t24.5 16v-43q-7 -4 -20.5 -7t-32.5 -3q-38 0 -62.5 20.5t-24.5 57.5t24 73t61 69l-82 200h-337l-82 -200h-51l256 619q8 19 8 30t-4.5 16t-6.5 7h72z" />
    <glyph glyph-name="ae" unicode="&#xe6;" horiz-adv-x="977" 
d="M220 239h262v388zM419 613q7 10 9.5 19.5t2.5 16.5q0 11 -4.5 16t-6.5 7h473v-41h-362v-267h330v-40h-330v-283h378v-41h-427v200h-285l-136 -200h-57z" />
    <glyph glyph-name="aeacute" unicode="&#x1fd;" horiz-adv-x="977" 
d="M539 752l-20 28l160 110l24 -33zM220 239h262v388zM419 613q7 10 9.5 19.5t2.5 16.5q0 11 -4.5 16t-6.5 7h473v-41h-362v-267h330v-40h-330v-283h378v-41h-427v200h-285l-136 -200h-57z" />
    <glyph glyph-name="cacute" unicode="&#x107;" horiz-adv-x="662" 
d="M347 752l-20 28l160 110l24 -33zM393 31q36 0 69.5 8t61 21.5t47.5 30t31 34.5v-71q-42 -31 -98.5 -48.5t-115.5 -17.5q-71 0 -130 25.5t-101.5 71.5t-66 110t-23.5 141t23.5 141t66 110t101.5 71.5t130 25.5q59 0 115 -17.5t97 -50.5v-70q-11 19 -31 36t-47 30.5
t-60 21.5t-69 8q-62 0 -112.5 -22t-87 -62.5t-56.5 -97t-20 -124.5t20 -124.5t56.5 -96.5t87 -62t112.5 -22z" />
    <glyph glyph-name="ccedilla" unicode="&#xe7;" horiz-adv-x="662" 
d="M395 -64q32 -3 53.5 -25t21.5 -52q0 -35 -28.5 -57t-72.5 -22q-20 0 -43 4t-36 11v43q6 -7 27.5 -16t47.5 -9q28 0 46.5 13.5t18.5 36.5q0 22 -19 35.5t-48 13.5h-9l14 77q-67 3 -122.5 30t-95 72.5t-61.5 108t-22 136.5q0 77 23.5 141t66 110t101.5 71.5t130 25.5
q59 0 115 -17.5t97 -50.5v-70q-11 19 -31 36t-47 30.5t-60 21.5t-69 8q-62 0 -112.5 -22t-87 -62.5t-56.5 -97t-20 -124.5t20 -124.5t56.5 -96.5t87 -62t112.5 -22q36 0 69.5 8t61 21.5t47.5 30t31 34.5v-71q-38 -29 -90.5 -46.5t-107.5 -19.5z" />
    <glyph glyph-name="ccircumflex" unicode="&#x109;" horiz-adv-x="662" 
d="M362 896h34l121 -118l-23 -25l-115 107l-115 -107l-23 25zM393 31q36 0 69.5 8t61 21.5t47.5 30t31 34.5v-71q-42 -31 -98.5 -48.5t-115.5 -17.5q-71 0 -130 25.5t-101.5 71.5t-66 110t-23.5 141t23.5 141t66 110t101.5 71.5t130 25.5q59 0 115 -17.5t97 -50.5v-70
q-11 19 -31 36t-47 30.5t-60 21.5t-69 8q-62 0 -112.5 -22t-87 -62.5t-56.5 -97t-20 -124.5t20 -124.5t56.5 -96.5t87 -62t112.5 -22z" />
    <glyph glyph-name="ccaron" unicode="&#x10d;" horiz-adv-x="662" 
d="M396 756h-34l-121 119l23 24l115 -106l115 106l23 -24zM393 31q36 0 69.5 8t61 21.5t47.5 30t31 34.5v-71q-42 -31 -98.5 -48.5t-115.5 -17.5q-71 0 -130 25.5t-101.5 71.5t-66 110t-23.5 141t23.5 141t66 110t101.5 71.5t130 25.5q59 0 115 -17.5t97 -50.5v-70
q-11 19 -31 36t-47 30.5t-60 21.5t-69 8q-62 0 -112.5 -22t-87 -62.5t-56.5 -97t-20 -124.5t20 -124.5t56.5 -96.5t87 -62t112.5 -22z" />
    <glyph glyph-name="cdotaccent" unicode="&#x10b;" horiz-adv-x="662" 
d="M342 826q0 17 10 27t27 10t27 -10t10 -27t-10 -27t-27 -10t-27 10t-10 27zM393 31q36 0 69.5 8t61 21.5t47.5 30t31 34.5v-71q-42 -31 -98.5 -48.5t-115.5 -17.5q-71 0 -130 25.5t-101.5 71.5t-66 110t-23.5 141t23.5 141t66 110t101.5 71.5t130 25.5q59 0 115 -17.5
t97 -50.5v-70q-11 19 -31 36t-47 30.5t-60 21.5t-69 8q-62 0 -112.5 -22t-87 -62.5t-56.5 -97t-20 -124.5t20 -124.5t56.5 -96.5t87 -62t112.5 -22z" />
    <glyph glyph-name="dcaron" unicode="&#x10f;" horiz-adv-x="737" 
d="M373 756h-34l-121 119l23 24l115 -106l115 106l23 -24zM620 336q0 65 -21.5 119.5t-60 93.5t-92.5 60.5t-119 21.5h-152v-590h152q65 0 119 21.5t92.5 60.5t60 93.5t21.5 119.5zM332 672q75 0 137.5 -24.5t107 -68.5t69 -106t24.5 -137q0 -74 -24.5 -136t-69 -106.5
t-107 -69t-137.5 -24.5h-206v607q0 48 -20 65h226z" />
    <glyph glyph-name="dcroat" unicode="&#x111;" horiz-adv-x="742" 
d="M337 672q75 0 137.5 -24.5t107 -68.5t69 -106t24.5 -137q0 -74 -24.5 -136t-69 -106.5t-107 -69t-137.5 -24.5h-206v324h-97v40h97v243q0 48 -20 65h226zM625 336q0 65 -21.5 119.5t-60 93.5t-92.5 60.5t-119 21.5h-152v-267h186v-40h-186v-283h152q65 0 119 21.5
t92.5 60.5t60 93.5t21.5 119.5z" />
    <glyph glyph-name="eth" unicode="&#xf0;" horiz-adv-x="742" 
d="M337 672q75 0 137.5 -24.5t107 -68.5t69 -106t24.5 -137q0 -74 -24.5 -136t-69 -106.5t-107 -69t-137.5 -24.5h-206v324h-97v40h97v243q0 48 -20 65h226zM625 336q0 65 -21.5 119.5t-60 93.5t-92.5 60.5t-119 21.5h-152v-267h186v-40h-186v-283h152q65 0 119 21.5
t92.5 60.5t60 93.5t21.5 119.5z" />
    <glyph glyph-name="egrave" unicode="&#xe8;" horiz-adv-x="621" 
d="M375 780l-19 -28l-164 105l24 33zM553 0h-427v607q0 48 -20 65h431v-41h-362v-267h330v-40h-330v-283h378v-41z" />
    <glyph glyph-name="eacute" unicode="&#xe9;" horiz-adv-x="621" 
d="M289 752l-20 28l160 110l24 -33zM553 0h-427v607q0 48 -20 65h431v-41h-362v-267h330v-40h-330v-283h378v-41z" />
    <glyph glyph-name="ecircumflex" unicode="&#xea;" horiz-adv-x="621" 
d="M304 896h34l121 -118l-23 -25l-115 107l-115 -107l-23 25zM553 0h-427v607q0 48 -20 65h431v-41h-362v-267h330v-40h-330v-283h378v-41z" />
    <glyph glyph-name="ecaron" unicode="&#x11b;" horiz-adv-x="621" 
d="M338 756h-34l-121 119l23 24l115 -106l115 106l23 -24zM553 0h-427v607q0 48 -20 65h431v-41h-362v-267h330v-40h-330v-283h378v-41z" />
    <glyph glyph-name="edieresis" unicode="&#xeb;" horiz-adv-x="621" 
d="M185 826q0 16 10 25.5t26 9.5t25.5 -9.5t9.5 -25.5t-9.5 -25.5t-25.5 -9.5t-26 9.5t-10 25.5zM386 826q0 16 9.5 25.5t25.5 9.5t26 -9.5t10 -25.5t-10 -25.5t-26 -9.5t-25.5 9.5t-9.5 25.5zM553 0h-427v607q0 48 -20 65h431v-41h-362v-267h330v-40h-330v-283h378v-41z
" />
    <glyph glyph-name="emacron" unicode="&#x113;" horiz-adv-x="621" 
d="M179 844h284v-36h-284v36zM553 0h-427v607q0 48 -20 65h431v-41h-362v-267h330v-40h-330v-283h378v-41z" />
    <glyph glyph-name="ebreve" unicode="&#x115;" horiz-adv-x="621" 
d="M214 880q2 -42 31 -68.5t72 -26.5t72 26.5t31 68.5h35q-2 -60 -41 -96t-97 -36t-97 36t-41 96h35zM553 0h-427v607q0 48 -20 65h431v-41h-362v-267h330v-40h-330v-283h378v-41z" />
    <glyph glyph-name="edotaccent" unicode="&#x117;" horiz-adv-x="621" 
d="M284 826q0 17 10 27t27 10t27 -10t10 -27t-10 -27t-27 -10t-27 10t-10 27zM553 0h-427v607q0 48 -20 65h431v-41h-362v-267h330v-40h-330v-283h378v-41z" />
    <glyph glyph-name="eogonek" unicode="&#x119;" horiz-adv-x="621" 
d="M509 -187q10 0 23.5 4t24.5 16v-43q-7 -4 -20.5 -7t-32.5 -3q-38 0 -62.5 20.5t-24.5 57.5t24.5 72t68.5 70h-384v607q0 48 -20 65h431v-41h-362v-267h330v-40h-330v-283h378v-41q-45 -35 -71.5 -68.5t-26.5 -66.5q0 -25 16 -38.5t38 -13.5z" />
    <glyph glyph-name="gcircumflex" unicode="&#x11d;" horiz-adv-x="714" 
d="M372 896h34l121 -118l-23 -25l-115 107l-115 -107l-23 25zM631 41q-18 -10 -43 -19.5t-54.5 -17t-62.5 -12t-67 -4.5q-75 0 -137 25.5t-106.5 72t-69 110t-24.5 140.5q0 76 24 140t67.5 110.5t104 72t133.5 25.5q35 0 68.5 -6t62 -15t52 -20.5t38.5 -23.5v-70
q-13 21 -35.5 38t-51.5 29t-62 19t-67 7q-63 0 -115.5 -22.5t-90 -63t-58 -96.5t-20.5 -124t21 -124t59.5 -97t91.5 -63.5t118 -22.5q95 0 178 39v227h-171v39h237q-20 -17 -20 -65v-228z" />
    <glyph glyph-name="gbreve" unicode="&#x11f;" horiz-adv-x="714" 
d="M281 880q2 -42 31 -68.5t72 -26.5t72 26.5t31 68.5h35q-2 -60 -41 -96t-97 -36t-97 36t-41 96h35zM631 41q-18 -10 -43 -19.5t-54.5 -17t-62.5 -12t-67 -4.5q-75 0 -137 25.5t-106.5 72t-69 110t-24.5 140.5q0 76 24 140t67.5 110.5t104 72t133.5 25.5q35 0 68.5 -6
t62 -15t52 -20.5t38.5 -23.5v-70q-13 21 -35.5 38t-51.5 29t-62 19t-67 7q-63 0 -115.5 -22.5t-90 -63t-58 -96.5t-20.5 -124t21 -124t59.5 -97t91.5 -63.5t118 -22.5q95 0 178 39v227h-171v39h237q-20 -17 -20 -65v-228z" />
    <glyph glyph-name="gdotaccent" unicode="&#x121;" horiz-adv-x="714" 
d="M352 826q0 17 10 27t27 10t27 -10t10 -27t-10 -27t-27 -10t-27 10t-10 27zM631 41q-18 -10 -43 -19.5t-54.5 -17t-62.5 -12t-67 -4.5q-75 0 -137 25.5t-106.5 72t-69 110t-24.5 140.5q0 76 24 140t67.5 110.5t104 72t133.5 25.5q35 0 68.5 -6t62 -15t52 -20.5t38.5 -23.5
v-70q-13 21 -35.5 38t-51.5 29t-62 19t-67 7q-63 0 -115.5 -22.5t-90 -63t-58 -96.5t-20.5 -124t21 -124t59.5 -97t91.5 -63.5t118 -22.5q95 0 178 39v227h-171v39h237q-20 -17 -20 -65v-228z" />
    <glyph glyph-name="gcommaaccent" unicode="&#x123;" horiz-adv-x="714" 
d="M631 41q-18 -10 -43 -19.5t-54.5 -17t-62.5 -12t-67 -4.5q-75 0 -137 25.5t-106.5 72t-69 110t-24.5 140.5q0 76 24 140t67.5 110.5t104 72t133.5 25.5q35 0 68.5 -6t62 -15t52 -20.5t38.5 -23.5v-70q-13 21 -35.5 38t-51.5 29t-62 19t-67 7q-63 0 -115.5 -22.5t-90 -63
t-58 -96.5t-20.5 -124t21 -124t59.5 -97t91.5 -63.5t118 -22.5q95 0 178 39v227h-171v39h237q-20 -17 -20 -65v-228zM347 -113q0 18 11 30.5t31 12.5q19 0 31.5 -14.5t12.5 -37.5q0 -17 -5.5 -34.5t-15 -32.5t-23.5 -25.5t-31 -11.5q8 4 14.5 13.5t10.5 20.5t6 23t2 22
q-19 -3 -31.5 7t-12.5 27z" />
    <glyph glyph-name="hcircumflex" unicode="&#x125;" horiz-adv-x="794" 
d="M379 896h34l121 -118l-23 -25l-115 107l-115 -107l-23 25zM175 672v-308h441v308h49v-672h-49v324h-441v-324h-49v607q0 48 -20 65h69z" />
    <glyph glyph-name="hbar" unicode="&#x127;" horiz-adv-x="769" 
d="M605 364v168h-441v-168h441zM164 672v-103h441v103h49v-103h81v-37h-81v-532h-49v324h-441v-324h-49v532h-81v37h81v38q0 48 -20 65h69z" />
    <glyph glyph-name="dotlessi" unicode="&#x131;" horiz-adv-x="304" 
d="M175 672v-672h-49v607q0 48 -20 65h69z" />
    <glyph glyph-name="igrave" unicode="&#xec;" horiz-adv-x="304" 
d="M205 780l-19 -28l-164 105l24 33zM175 672v-672h-49v607q0 48 -20 65h69z" />
    <glyph glyph-name="iacute" unicode="&#xed;" horiz-adv-x="304" 
d="M126 752l-20 28l160 110l24 -33zM175 672v-672h-49v607q0 48 -20 65h69z" />
    <glyph glyph-name="icircumflex" unicode="&#xee;" horiz-adv-x="304" 
d="M135 896h34l121 -118l-23 -25l-115 107l-115 -107l-23 25zM176 672v-672h-49v607q0 48 -20 65h69z" />
    <glyph glyph-name="itilde" unicode="&#x129;" horiz-adv-x="304" 
d="M88 864q16 0 33 -6t33 -13.5t31 -13.5t28 -6q33 0 45 39l34 -11q-8 -29 -28 -46.5t-48 -17.5q-16 0 -33 6t-33 13t-31 13t-28 6q-34 0 -45 -38l-34 10q8 29 28 47t48 18zM175 672v-672h-49v607q0 48 -20 65h69z" />
    <glyph glyph-name="idieresis" unicode="&#xef;" horiz-adv-x="304" 
d="M16 826q0 16 10 25.5t26 9.5t25.5 -9.5t9.5 -25.5t-9.5 -25.5t-25.5 -9.5t-26 9.5t-10 25.5zM217 826q0 16 9.5 25.5t25.5 9.5t26 -9.5t10 -25.5t-10 -25.5t-26 -9.5t-25.5 9.5t-9.5 25.5zM176 672v-672h-49v607q0 48 -20 65h69z" />
    <glyph glyph-name="imacron" unicode="&#x12b;" horiz-adv-x="304" 
d="M10 844h284v-36h-284v36zM175 672v-672h-49v607q0 48 -20 65h69z" />
    <glyph glyph-name="ibreve" unicode="&#x12d;" horiz-adv-x="304" 
d="M49 880q2 -42 31 -68.5t72 -26.5t72 26.5t31 68.5h35q-2 -60 -41 -96t-97 -36t-97 36t-41 96h35zM175 672v-672h-49v607q0 48 -20 65h69z" />
    <glyph glyph-name="iogonek" unicode="&#x12f;" horiz-adv-x="304" 
d="M131 -187q10 0 23.5 4t24.5 16v-43q-7 -4 -20.5 -7t-32.5 -3q-38 0 -62.5 20.5t-24.5 57.5t22.5 72.5t64.5 69.5v607q0 48 -20 65h69v-672q-45 -35 -71.5 -68.5t-26.5 -66.5q0 -25 16 -38.5t38 -13.5z" />
    <glyph glyph-name="ij" unicode="&#x133;" horiz-adv-x="742" 
d="M175 672v-672h-49v607q0 48 -20 65h69zM613 672v-509q0 -39 -13 -71t-36.5 -55t-56 -36t-71.5 -13q-32 0 -64 7.5t-54 18.5v57q15 -16 43.5 -28.5t65.5 -12.5q30 0 55 10t43.5 28t28.5 43t10 55v441q0 48 -20 65h69z" />
    <glyph glyph-name="jcircumflex" unicode="&#x135;" horiz-adv-x="443" 
d="M291 896h34l121 -118l-23 -25l-115 107l-115 -107l-23 25zM333 672v-509q0 -39 -13 -71t-36.5 -55t-56 -36t-71.5 -13q-32 0 -64 7.5t-54 18.5v57q15 -16 43.5 -28.5t65.5 -12.5q30 0 55 10t43.5 28t28.5 43t10 55v441q0 48 -20 65h69z" />
    <glyph glyph-name="kcommaaccent" unicode="&#x137;" horiz-adv-x="675" 
d="M174 672v-378l377 378h60l-313 -314l328 -358h-61l-301 327l-90 -89v-238h-48v607q0 48 -20 65h68zM308 -113q0 18 11 30.5t31 12.5q19 0 31.5 -14.5t12.5 -37.5q0 -17 -5.5 -34.5t-15 -32.5t-23.5 -25.5t-31 -11.5q8 4 14.5 13.5t10.5 20.5t6 23t2 22q-19 -3 -31.5 7
t-12.5 27z" />
    <glyph glyph-name="kgreenlandic" unicode="&#x138;" horiz-adv-x="504" 
d="M14 672h476v-672h-476v672zM252 380l162 244h-324zM62 92l162 244l-162 244v-488zM280 336l162 -244v488zM252 292l-162 -244h324z" />
    <glyph glyph-name="lacute" unicode="&#x13a;" horiz-adv-x="552" 
d="M120 752l-20 28l160 110l24 -33zM126 0v607q0 48 -20 65h69v-631h343v-41h-392z" />
    <glyph glyph-name="lcaron" unicode="&#x13e;" horiz-adv-x="552" 
d="M306 520l-34 12l64 163l38 -14zM126 0v607q0 48 -20 65h69v-631h343v-41h-392z" />
    <glyph glyph-name="lcommaaccent" unicode="&#x13c;" horiz-adv-x="552" 
d="M126 0v607q0 48 -20 65h69v-631h343v-41h-392zM271 -113q0 18 11 30.5t31 12.5q19 0 31.5 -14.5t12.5 -37.5q0 -17 -5.5 -34.5t-15 -32.5t-23.5 -25.5t-31 -11.5q8 4 14.5 13.5t10.5 20.5t6 23t2 22q-19 -3 -31.5 7t-12.5 27z" />
    <glyph glyph-name="lslash" unicode="&#x142;" horiz-adv-x="552" 
d="M175 672v-304l152 76l18 -32l-170 -85v-286h343v-41h-392v302l-85 -42l-17 32l102 51v264q0 48 -20 65h69z" />
    <glyph glyph-name="longs" unicode="&#x17f;" horiz-adv-x="504" 
d="M14 672h476v-672h-476v672zM252 380l162 244h-324zM62 92l162 244l-162 244v-488zM280 336l162 -244v488zM252 292l-162 -244h324z" />
    <glyph glyph-name="ldot" unicode="&#x140;" horiz-adv-x="552" 
d="M387 353q0 17 10 27t27 10t27 -10t10 -27t-10 -27t-27 -10t-27 10t-10 27zM126 0v607q0 48 -20 65h69v-631h343v-41h-392z" />
    <glyph glyph-name="nacute" unicode="&#x144;" horiz-adv-x="794" 
d="M364 752l-20 28l160 110l24 -33zM175 672l444 -603v603h46v-672h-49l-444 603v-603h-46v607q0 48 -20 65h69z" />
    <glyph glyph-name="ncaron" unicode="&#x148;" horiz-adv-x="794" 
d="M413 756h-34l-121 119l23 24l115 -106l115 106l23 -24zM175 672l444 -603v603h46v-672h-49l-444 603v-603h-46v607q0 48 -20 65h69z" />
    <glyph glyph-name="ntilde" unicode="&#xf1;" horiz-adv-x="794" 
d="M332 864q16 0 33 -6t33 -13.5t31 -13.5t28 -6q33 0 45 39l34 -11q-8 -29 -28 -46.5t-48 -17.5q-16 0 -33 6t-33 13t-31 13t-28 6q-34 0 -45 -38l-34 10q8 29 28 47t48 18zM175 672l444 -603v603h46v-672h-49l-444 603v-603h-46v607q0 48 -20 65h69z" />
    <glyph glyph-name="ncommaaccent" unicode="&#x146;" horiz-adv-x="794" 
d="M175 672l444 -603v603h46v-672h-49l-444 603v-603h-46v607q0 48 -20 65h69zM354 -113q0 18 11 30.5t31 12.5q19 0 31.5 -14.5t12.5 -37.5q0 -17 -5.5 -34.5t-15 -32.5t-23.5 -25.5t-31 -11.5q8 4 14.5 13.5t10.5 20.5t6 23t2 22q-19 -3 -31.5 7t-12.5 27z" />
    <glyph glyph-name="napostrophe" unicode="&#x149;" horiz-adv-x="504" 
d="M14 672h476v-672h-476v672zM252 380l162 244h-324zM62 92l162 244l-162 244v-488zM280 336l162 -244v488zM252 292l-162 -244h324z" />
    <glyph glyph-name="eng" unicode="&#x14b;" horiz-adv-x="794" 
d="M480 -178q30 0 55 9.5t43.5 26.5t29 41t10.5 54v45l-446 605v-603h-46v607q0 48 -20 65h69l444 -603v603h46v-717q0 -39 -13 -71t-36.5 -55t-56 -36t-71.5 -13q-32 0 -64 7.5t-54 18.5v57q15 -16 44 -28.5t66 -12.5z" />
    <glyph glyph-name="ograve" unicode="&#xf2;" horiz-adv-x="779" 
d="M444 780l-19 -28l-164 105l24 33zM67 336q0 76 23.5 140t66.5 110.5t102.5 72t130.5 25.5t130 -25.5t102 -72t66.5 -110.5t23.5 -140q0 -77 -23.5 -140.5t-66.5 -110t-102 -72t-130 -25.5t-130.5 25.5t-102.5 72t-66.5 110t-23.5 140.5zM117 336q0 -67 20 -123.5
t56.5 -97t86.5 -63.5t110 -23t110 23t86 63.5t56 97t20 123.5t-20 123.5t-56 97t-86 63.5t-110 23t-110 -23t-86.5 -63.5t-56.5 -97t-20 -123.5z" />
    <glyph glyph-name="oacute" unicode="&#xf3;" horiz-adv-x="779" 
d="M358 752l-20 28l160 110l24 -33zM67 336q0 76 23.5 140t66.5 110.5t102.5 72t130.5 25.5t130 -25.5t102 -72t66.5 -110.5t23.5 -140q0 -77 -23.5 -140.5t-66.5 -110t-102 -72t-130 -25.5t-130.5 25.5t-102.5 72t-66.5 110t-23.5 140.5zM117 336q0 -67 20 -123.5t56.5 -97
t86.5 -63.5t110 -23t110 23t86 63.5t56 97t20 123.5t-20 123.5t-56 97t-86 63.5t-110 23t-110 -23t-86.5 -63.5t-56.5 -97t-20 -123.5z" />
    <glyph glyph-name="ocircumflex" unicode="&#xf4;" horiz-adv-x="779" 
d="M373 896h34l121 -118l-23 -25l-115 107l-115 -107l-23 25zM67 336q0 76 23.5 140t66.5 110.5t102.5 72t130.5 25.5t130 -25.5t102 -72t66.5 -110.5t23.5 -140q0 -77 -23.5 -140.5t-66.5 -110t-102 -72t-130 -25.5t-130.5 25.5t-102.5 72t-66.5 110t-23.5 140.5zM117 336
q0 -67 20 -123.5t56.5 -97t86.5 -63.5t110 -23t110 23t86 63.5t56 97t20 123.5t-20 123.5t-56 97t-86 63.5t-110 23t-110 -23t-86.5 -63.5t-56.5 -97t-20 -123.5z" />
    <glyph glyph-name="otilde" unicode="&#xf5;" horiz-adv-x="779" 
d="M326 864q16 0 33 -6t33 -13.5t31 -13.5t28 -6q33 0 45 39l34 -11q-8 -29 -28 -46.5t-48 -17.5q-16 0 -33 6t-33 13t-31 13t-28 6q-34 0 -45 -38l-34 10q8 29 28 47t48 18zM67 336q0 76 23.5 140t66.5 110.5t102.5 72t130.5 25.5t130 -25.5t102 -72t66.5 -110.5t23.5 -140
q0 -77 -23.5 -140.5t-66.5 -110t-102 -72t-130 -25.5t-130.5 25.5t-102.5 72t-66.5 110t-23.5 140.5zM117 336q0 -67 20 -123.5t56.5 -97t86.5 -63.5t110 -23t110 23t86 63.5t56 97t20 123.5t-20 123.5t-56 97t-86 63.5t-110 23t-110 -23t-86.5 -63.5t-56.5 -97t-20 -123.5z
" />
    <glyph glyph-name="odieresis" unicode="&#xf6;" horiz-adv-x="779" 
d="M254 826q0 16 10 25.5t26 9.5t25.5 -9.5t9.5 -25.5t-9.5 -25.5t-25.5 -9.5t-26 9.5t-10 25.5zM455 826q0 16 9.5 25.5t25.5 9.5t26 -9.5t10 -25.5t-10 -25.5t-26 -9.5t-25.5 9.5t-9.5 25.5zM67 336q0 76 23.5 140t66.5 110.5t102.5 72t130.5 25.5t130 -25.5t102 -72
t66.5 -110.5t23.5 -140q0 -77 -23.5 -140.5t-66.5 -110t-102 -72t-130 -25.5t-130.5 25.5t-102.5 72t-66.5 110t-23.5 140.5zM117 336q0 -67 20 -123.5t56.5 -97t86.5 -63.5t110 -23t110 23t86 63.5t56 97t20 123.5t-20 123.5t-56 97t-86 63.5t-110 23t-110 -23t-86.5 -63.5
t-56.5 -97t-20 -123.5z" />
    <glyph glyph-name="omacron" unicode="&#x14d;" horiz-adv-x="779" 
d="M248 844h284v-36h-284v36zM67 336q0 76 23.5 140t66.5 110.5t102.5 72t130.5 25.5t130 -25.5t102 -72t66.5 -110.5t23.5 -140q0 -77 -23.5 -140.5t-66.5 -110t-102 -72t-130 -25.5t-130.5 25.5t-102.5 72t-66.5 110t-23.5 140.5zM117 336q0 -67 20 -123.5t56.5 -97
t86.5 -63.5t110 -23t110 23t86 63.5t56 97t20 123.5t-20 123.5t-56 97t-86 63.5t-110 23t-110 -23t-86.5 -63.5t-56.5 -97t-20 -123.5z" />
    <glyph glyph-name="obreve" unicode="&#x14f;" horiz-adv-x="779" 
d="M282 880q2 -42 31 -68.5t72 -26.5t72 26.5t31 68.5h35q-2 -60 -41 -96t-97 -36t-97 36t-41 96h35zM67 336q0 76 23.5 140t66.5 110.5t102.5 72t130.5 25.5t130 -25.5t102 -72t66.5 -110.5t23.5 -140q0 -77 -23.5 -140.5t-66.5 -110t-102 -72t-130 -25.5t-130.5 25.5
t-102.5 72t-66.5 110t-23.5 140.5zM117 336q0 -67 20 -123.5t56.5 -97t86.5 -63.5t110 -23t110 23t86 63.5t56 97t20 123.5t-20 123.5t-56 97t-86 63.5t-110 23t-110 -23t-86.5 -63.5t-56.5 -97t-20 -123.5z" />
    <glyph glyph-name="ohungarumlaut" unicode="&#x151;" horiz-adv-x="779" 
d="M466 747l-26 25l138 142l29 -29zM288 747l-25 25l138 142l29 -29zM67 336q0 76 23.5 140t66.5 110.5t102.5 72t130.5 25.5t130 -25.5t102 -72t66.5 -110.5t23.5 -140q0 -77 -23.5 -140.5t-66.5 -110t-102 -72t-130 -25.5t-130.5 25.5t-102.5 72t-66.5 110t-23.5 140.5z
M117 336q0 -67 20 -123.5t56.5 -97t86.5 -63.5t110 -23t110 23t86 63.5t56 97t20 123.5t-20 123.5t-56 97t-86 63.5t-110 23t-110 -23t-86.5 -63.5t-56.5 -97t-20 -123.5z" />
    <glyph glyph-name="oslash" unicode="&#xf8;" horiz-adv-x="779" 
d="M67 336q0 76 23.5 140t66.5 110.5t102.5 72t130.5 25.5q56 0 106.5 -16.5t85.5 -45.5l48 65l28 -23l-49 -65q48 -45 75.5 -112.5t27.5 -150.5q0 -77 -23.5 -140.5t-66.5 -110t-102 -72t-130 -25.5q-57 0 -107 16.5t-86 45.5l-48 -65l-29 22l49 66q-48 48 -75 114t-27 149
zM117 336q0 -71 21.5 -128t58.5 -96l357 475q-35 27 -75.5 41.5t-88.5 14.5q-61 0 -111 -22.5t-86 -63.5t-56 -97.5t-20 -123.5zM662 336q0 71 -21.5 128t-59.5 97l-356 -475q32 -26 73.5 -41.5t91.5 -15.5q60 0 110 22.5t86 63.5t56 97t20 124z" />
    <glyph glyph-name="oslashacute" unicode="&#x1ff;" horiz-adv-x="779" 
d="M358 752l-20 28l160 110l24 -33zM67 336q0 76 23.5 140t66.5 110.5t102.5 72t130.5 25.5q56 0 106.5 -16.5t85.5 -45.5l48 65l28 -23l-49 -65q48 -45 75.5 -112.5t27.5 -150.5q0 -77 -23.5 -140.5t-66.5 -110t-102 -72t-130 -25.5q-57 0 -107 16.5t-86 45.5l-48 -65
l-29 22l49 66q-48 48 -75 114t-27 149zM117 336q0 -71 21.5 -128t58.5 -96l357 475q-35 27 -75.5 41.5t-88.5 14.5q-61 0 -111 -22.5t-86 -63.5t-56 -97.5t-20 -123.5zM662 336q0 71 -21.5 128t-59.5 97l-356 -475q32 -26 73.5 -41.5t91.5 -15.5q60 0 110 22.5t86 63.5
t56 97t20 124z" />
    <glyph glyph-name="oe" unicode="&#x153;" horiz-adv-x="1028" 
d="M960 41v-41h-556q-75 0 -137.5 24.5t-106.5 68.5t-68.5 106t-24.5 137q0 74 24.5 136t68.5 106.5t106.5 69t137.5 24.5h540v-41h-362v-267h330v-40h-330v-283h378zM117 336q0 -65 21.5 -119.5t60 -93.5t92 -60.5t118.5 -21.5h124v590h-124q-65 0 -118.5 -21.5t-92 -60.5
t-60 -93.5t-21.5 -119.5z" />
    <glyph glyph-name="thorn" unicode="&#xfe;" horiz-adv-x="638" 
d="M174 181h185q38 0 69.5 12t54.5 33.5t36 51.5t13 66t-13 66t-36 51.5t-54.5 33.5t-69.5 12h-185v-326zM174 672v-125h190q48 0 87.5 -15t68.5 -42t45 -64t16 -82t-16 -82t-45 -64t-68.5 -42t-87.5 -15h-190v-141h-48v607q0 48 -20 65h68z" />
    <glyph glyph-name="racute" unicode="&#x155;" 
d="M315 752l-20 28l160 110l24 -33zM174 322h186q36 0 66.5 11t52.5 31.5t34.5 49t12.5 63.5q0 34 -12.5 62.5t-34.5 48.5t-52.5 31.5t-66.5 11.5h-186v-309zM366 672q46 0 84 -14.5t65.5 -40.5t43 -61.5t15.5 -78.5q0 -39 -13 -72t-36 -58t-56 -40.5t-73 -19.5l204 -287
h-56l-198 282h-172v-282h-48v607q0 48 -20 65h260z" />
    <glyph glyph-name="rcaron" unicode="&#x159;" 
d="M364 756h-34l-121 119l23 24l115 -106l115 106l23 -24zM174 322h186q36 0 66.5 11t52.5 31.5t34.5 49t12.5 63.5q0 34 -12.5 62.5t-34.5 48.5t-52.5 31.5t-66.5 11.5h-186v-309zM366 672q46 0 84 -14.5t65.5 -40.5t43 -61.5t15.5 -78.5q0 -39 -13 -72t-36 -58t-56 -40.5
t-73 -19.5l204 -287h-56l-198 282h-172v-282h-48v607q0 48 -20 65h260z" />
    <glyph glyph-name="rcommaaccent" unicode="&#x157;" 
d="M174 322h186q36 0 66.5 11t52.5 31.5t34.5 49t12.5 63.5q0 34 -12.5 62.5t-34.5 48.5t-52.5 31.5t-66.5 11.5h-186v-309zM366 672q46 0 84 -14.5t65.5 -40.5t43 -61.5t15.5 -78.5q0 -39 -13 -72t-36 -58t-56 -40.5t-73 -19.5l204 -287h-56l-198 282h-172v-282h-48v607
q0 48 -20 65h260zM305 -113q0 18 11 30.5t31 12.5q19 0 31.5 -14.5t12.5 -37.5q0 -17 -5.5 -34.5t-15 -32.5t-23.5 -25.5t-31 -11.5q8 4 14.5 13.5t10.5 20.5t6 23t2 22q-19 -3 -31.5 7t-12.5 27z" />
    <glyph glyph-name="sacute" unicode="&#x15b;" horiz-adv-x="594" 
d="M265 752l-20 28l160 110l24 -33zM294 29q42 0 76 10t58 27.5t37 42.5t13 55q0 39 -17.5 64.5t-46 43t-65 29t-75 23t-75 25t-65 34.5t-46 52t-17.5 77q0 38 16.5 70t46.5 54.5t71.5 35t91.5 12.5q59 0 108 -11t91 -32v-70q-6 12 -23.5 24.5t-43.5 23t-59 17.5t-70 7
q-41 0 -74 -9.5t-56.5 -27t-36.5 -41.5t-13 -53q0 -38 17.5 -63t46 -42t65 -28.5t74.5 -23t74.5 -25t65 -35t46 -53t17.5 -78.5q0 -39 -16.5 -71.5t-46.5 -56t-73 -36t-96 -12.5q-32 0 -64.5 4.5t-61.5 11.5t-53 15.5t-40 16.5v71q16 -21 43 -35.5t57.5 -24t62 -14
t56.5 -4.5z" />
    <glyph glyph-name="scircumflex" unicode="&#x15d;" horiz-adv-x="594" 
d="M280 896h34l121 -118l-23 -25l-115 107l-115 -107l-23 25zM294 29q42 0 76 10t58 27.5t37 42.5t13 55q0 39 -17.5 64.5t-46 43t-65 29t-75 23t-75 25t-65 34.5t-46 52t-17.5 77q0 38 16.5 70t46.5 54.5t71.5 35t91.5 12.5q59 0 108 -11t91 -32v-70q-6 12 -23.5 24.5
t-43.5 23t-59 17.5t-70 7q-41 0 -74 -9.5t-56.5 -27t-36.5 -41.5t-13 -53q0 -38 17.5 -63t46 -42t65 -28.5t74.5 -23t74.5 -25t65 -35t46 -53t17.5 -78.5q0 -39 -16.5 -71.5t-46.5 -56t-73 -36t-96 -12.5q-32 0 -64.5 4.5t-61.5 11.5t-53 15.5t-40 16.5v71q16 -21 43 -35.5
t57.5 -24t62 -14t56.5 -4.5z" />
    <glyph glyph-name="scaron" unicode="&#x161;" horiz-adv-x="594" 
d="M314 756h-34l-121 119l23 24l115 -106l115 106l23 -24zM294 29q42 0 76 10t58 27.5t37 42.5t13 55q0 39 -17.5 64.5t-46 43t-65 29t-75 23t-75 25t-65 34.5t-46 52t-17.5 77q0 38 16.5 70t46.5 54.5t71.5 35t91.5 12.5q59 0 108 -11t91 -32v-70q-6 12 -23.5 24.5
t-43.5 23t-59 17.5t-70 7q-41 0 -74 -9.5t-56.5 -27t-36.5 -41.5t-13 -53q0 -38 17.5 -63t46 -42t65 -28.5t74.5 -23t74.5 -25t65 -35t46 -53t17.5 -78.5q0 -39 -16.5 -71.5t-46.5 -56t-73 -36t-96 -12.5q-32 0 -64.5 4.5t-61.5 11.5t-53 15.5t-40 16.5v71q16 -21 43 -35.5
t57.5 -24t62 -14t56.5 -4.5z" />
    <glyph glyph-name="scedilla" unicode="&#x15f;" horiz-adv-x="594" 
d="M312 -64q32 -3 53.5 -25t21.5 -52q0 -35 -28.5 -57t-72.5 -22q-20 0 -43 4t-36 11v43q6 -7 27.5 -16t47.5 -9q28 0 46.5 13.5t18.5 36.5q0 22 -19 35.5t-48 13.5h-9l14 76q-32 1 -63 5.5t-58.5 11.5t-50.5 15t-38 16v71q16 -21 43 -35.5t57.5 -24t62 -14t56.5 -4.5
q42 0 76 10t58 27.5t37 42.5t13 55q0 39 -17.5 64.5t-46 43t-65 29t-75 23t-75 25t-65 34.5t-46 52t-17.5 77q0 38 16.5 70t46.5 54.5t71.5 35t91.5 12.5q59 0 108 -11t91 -32v-70q-6 12 -23.5 24.5t-43.5 23t-59 17.5t-70 7q-41 0 -74 -9.5t-56.5 -27t-36.5 -41.5t-13 -53
q0 -38 17.5 -63t46 -42t65 -28.5t74.5 -23t74.5 -25t65 -35t46 -53t17.5 -78.5q0 -74 -55.5 -121t-149.5 -54z" />
    <glyph glyph-name="scommaaccent" unicode="&#x219;" horiz-adv-x="594" 
d="M294 29q42 0 76 10t58 27.5t37 42.5t13 55q0 39 -17.5 64.5t-46 43t-65 29t-75 23t-75 25t-65 34.5t-46 52t-17.5 77q0 38 16.5 70t46.5 54.5t71.5 35t91.5 12.5q59 0 108 -11t91 -32v-70q-6 12 -23.5 24.5t-43.5 23t-59 17.5t-70 7q-41 0 -74 -9.5t-56.5 -27
t-36.5 -41.5t-13 -53q0 -38 17.5 -63t46 -42t65 -28.5t74.5 -23t74.5 -25t65 -35t46 -53t17.5 -78.5q0 -39 -16.5 -71.5t-46.5 -56t-73 -36t-96 -12.5q-32 0 -64.5 4.5t-61.5 11.5t-53 15.5t-40 16.5v71q16 -21 43 -35.5t57.5 -24t62 -14t56.5 -4.5zM255 -113q0 18 11 30.5
t31 12.5q19 0 31.5 -14.5t12.5 -37.5q0 -17 -5.5 -34.5t-15 -32.5t-23.5 -25.5t-31 -11.5q8 4 14.5 13.5t10.5 20.5t6 23t2 22q-19 -3 -31.5 7t-12.5 27z" />
    <glyph glyph-name="germandbls" unicode="&#xdf;" horiz-adv-x="786" 
d="M686 672v-30l-184 -251q47 -3 85.5 -19t65.5 -42t42 -62t15 -78q0 -44 -16 -81t-45 -64t-69 -42t-88 -15q-50 0 -98.5 12.5t-80.5 31.5v71q15 -20 36.5 -34t45.5 -23t48.5 -13t45.5 -4q38 0 69.5 12t54.5 33.5t36 51t13 64.5q0 36 -13.5 66.5t-38.5 52t-60 34t-77 12.5
h-20l-9 26l184 250h-454v-631h-48v607q0 48 -20 65h580z" />
    <glyph glyph-name="tcaron" unicode="&#x165;" horiz-adv-x="605" 
d="M320 756h-34l-121 119l23 24l115 -106l115 106l23 -24zM99 631q-48 0 -65 -20v61h537v-41h-244v-631h-49v631h-179z" />
    <glyph glyph-name="tcommaaccent" unicode="&#x163;" horiz-adv-x="605" 
d="M99 631q-48 0 -65 -20v61h537v-41h-244v-631h-49v631h-179zM260 -113q0 18 11 30.5t31 12.5q19 0 31.5 -14.5t12.5 -37.5q0 -17 -5.5 -34.5t-15 -32.5t-23.5 -25.5t-31 -11.5q8 4 14.5 13.5t10.5 20.5t6 23t2 22q-19 -3 -31.5 7t-12.5 27z" />
    <glyph glyph-name="uni021B" unicode="&#x21b;" horiz-adv-x="605" 
d="M99 631q-48 0 -65 -20v61h537v-41h-244v-631h-49v631h-179zM260 -113q0 18 11 30.5t31 12.5q19 0 31.5 -14.5t12.5 -37.5q0 -17 -5.5 -34.5t-15 -32.5t-23.5 -25.5t-31 -11.5q8 4 14.5 13.5t10.5 20.5t6 23t2 22q-19 -3 -31.5 7t-12.5 27z" />
    <glyph glyph-name="tbar" unicode="&#x167;" horiz-adv-x="605" 
d="M327 631v-292h151v-39h-151v-300h-49v300h-151v39h151v292h-244v41h537v-61q-17 20 -65 20h-179z" />
    <glyph glyph-name="ugrave" unicode="&#xf9;" horiz-adv-x="791" 
d="M448 780l-19 -28l-164 105l24 33zM165 672v-418q0 -50 17 -91t48 -71t72.5 -46.5t91.5 -16.5q49 0 91 16.5t72.5 46.5t47.5 71t17 91v418h49v-420q0 -58 -21 -106.5t-58 -83.5t-87.5 -54.5t-110.5 -19.5t-111 19.5t-88 54.5t-58 83.5t-21 106.5v355q0 48 -20 65h69z" />
    <glyph glyph-name="uacute" unicode="&#xfa;" horiz-adv-x="791" 
d="M362 752l-20 28l160 110l24 -33zM165 672v-418q0 -50 17 -91t48 -71t72.5 -46.5t91.5 -16.5q49 0 91 16.5t72.5 46.5t47.5 71t17 91v418h49v-420q0 -58 -21 -106.5t-58 -83.5t-87.5 -54.5t-110.5 -19.5t-111 19.5t-88 54.5t-58 83.5t-21 106.5v355q0 48 -20 65h69z" />
    <glyph glyph-name="ucircumflex" unicode="&#xfb;" horiz-adv-x="791" 
d="M377 896h34l121 -118l-23 -25l-115 107l-115 -107l-23 25zM165 672v-418q0 -50 17 -91t48 -71t72.5 -46.5t91.5 -16.5q49 0 91 16.5t72.5 46.5t47.5 71t17 91v418h49v-420q0 -58 -21 -106.5t-58 -83.5t-87.5 -54.5t-110.5 -19.5t-111 19.5t-88 54.5t-58 83.5t-21 106.5
v355q0 48 -20 65h69z" />
    <glyph glyph-name="utilde" unicode="&#x169;" horiz-adv-x="791" 
d="M330 864q16 0 33 -6t33 -13.5t31 -13.5t28 -6q33 0 45 39l34 -11q-8 -29 -28 -46.5t-48 -17.5q-16 0 -33 6t-33 13t-31 13t-28 6q-34 0 -45 -38l-34 10q8 29 28 47t48 18zM165 672v-418q0 -50 17 -91t48 -71t72.5 -46.5t91.5 -16.5q49 0 91 16.5t72.5 46.5t47.5 71t17 91
v418h49v-420q0 -58 -21 -106.5t-58 -83.5t-87.5 -54.5t-110.5 -19.5t-111 19.5t-88 54.5t-58 83.5t-21 106.5v355q0 48 -20 65h69z" />
    <glyph glyph-name="udieresis" unicode="&#xfc;" horiz-adv-x="791" 
d="M258 826q0 16 10 25.5t26 9.5t25.5 -9.5t9.5 -25.5t-9.5 -25.5t-25.5 -9.5t-26 9.5t-10 25.5zM459 826q0 16 9.5 25.5t25.5 9.5t26 -9.5t10 -25.5t-10 -25.5t-26 -9.5t-25.5 9.5t-9.5 25.5zM165 672v-418q0 -50 17 -91t48 -71t72.5 -46.5t91.5 -16.5q49 0 91 16.5
t72.5 46.5t47.5 71t17 91v418h49v-420q0 -58 -21 -106.5t-58 -83.5t-87.5 -54.5t-110.5 -19.5t-111 19.5t-88 54.5t-58 83.5t-21 106.5v355q0 48 -20 65h69z" />
    <glyph glyph-name="umacron" unicode="&#x16b;" horiz-adv-x="791" 
d="M252 844h284v-36h-284v36zM165 672v-418q0 -50 17 -91t48 -71t72.5 -46.5t91.5 -16.5q49 0 91 16.5t72.5 46.5t47.5 71t17 91v418h49v-420q0 -58 -21 -106.5t-58 -83.5t-87.5 -54.5t-110.5 -19.5t-111 19.5t-88 54.5t-58 83.5t-21 106.5v355q0 48 -20 65h69z" />
    <glyph glyph-name="ubreve" unicode="&#x16d;" horiz-adv-x="791" 
d="M286 880q2 -42 31 -68.5t72 -26.5t72 26.5t31 68.5h35q-2 -60 -41 -96t-97 -36t-97 36t-41 96h35zM165 672v-418q0 -50 17 -91t48 -71t72.5 -46.5t91.5 -16.5q49 0 91 16.5t72.5 46.5t47.5 71t17 91v418h49v-420q0 -58 -21 -106.5t-58 -83.5t-87.5 -54.5t-110.5 -19.5
t-111 19.5t-88 54.5t-58 83.5t-21 106.5v355q0 48 -20 65h69z" />
    <glyph glyph-name="uring" unicode="&#x16f;" horiz-adv-x="791" 
d="M300 826q0 42 26 67t68 25t68 -25t26 -67q0 -41 -25 -66.5t-67 -25.5t-69 25.5t-27 66.5zM329 826q0 -29 19 -47t48 -18q28 0 45.5 18t17.5 47t-18 47t-47 18t-47 -18t-18 -47zM165 672v-418q0 -50 17 -91t48 -71t72.5 -46.5t91.5 -16.5q49 0 91 16.5t72.5 46.5t47.5 71
t17 91v418h49v-420q0 -58 -21 -106.5t-58 -83.5t-87.5 -54.5t-110.5 -19.5t-111 19.5t-88 54.5t-58 83.5t-21 106.5v355q0 48 -20 65h69z" />
    <glyph glyph-name="uhungarumlaut" unicode="&#x171;" horiz-adv-x="791" 
d="M470 747l-26 25l138 142l29 -29zM292 747l-25 25l138 142l29 -29zM165 672v-418q0 -50 17 -91t48 -71t72.5 -46.5t91.5 -16.5q49 0 91 16.5t72.5 46.5t47.5 71t17 91v418h49v-420q0 -58 -21 -106.5t-58 -83.5t-87.5 -54.5t-110.5 -19.5t-111 19.5t-88 54.5t-58 83.5
t-21 106.5v355q0 48 -20 65h69z" />
    <glyph glyph-name="uogonek" unicode="&#x173;" horiz-adv-x="791" 
d="M429 -187q10 0 23.5 4t24.5 16v-43q-7 -4 -20.5 -7t-32.5 -3q-38 0 -62.5 20.5t-24.5 57.5q0 69 97 133q-14 -2 -27 -2.5t-27 0.5q-56 1 -104 21.5t-83.5 55t-56 82t-20.5 104.5v355q0 48 -20 65h69v-418q0 -50 17 -91t48 -71t72.5 -46.5t91.5 -16.5q49 0 91 17t72.5 47
t47.5 71.5t17 89.5v418h49v-417q0 -45 -11 -81t-32 -66t-51.5 -55t-70.5 -48q-39 -23 -64.5 -42.5t-40.5 -37t-20.5 -32.5t-5.5 -28q0 -25 16 -38.5t38 -13.5z" />
    <glyph glyph-name="wgrave" unicode="&#x1e81;" horiz-adv-x="1010" 
d="M558 780l-19 -28l-164 105l24 33zM462 615q4 12 6 20t2 14q0 11 -4.5 16t-6.5 7h69l191 -609l192 609h50l-216 -672h-50l-191 609l-192 -609h-50l-195 607q-5 17 -13.5 35t-26.5 30h69l192 -609z" />
    <glyph glyph-name="wacute" unicode="&#x1e83;" horiz-adv-x="1010" 
d="M472 752l-20 28l160 110l24 -33zM462 615q4 12 6 20t2 14q0 11 -4.5 16t-6.5 7h69l191 -609l192 609h50l-216 -672h-50l-191 609l-192 -609h-50l-195 607q-5 17 -13.5 35t-26.5 30h69l192 -609z" />
    <glyph glyph-name="wcircumflex" unicode="&#x175;" horiz-adv-x="1010" 
d="M487 896h34l121 -118l-23 -25l-115 107l-115 -107l-23 25zM462 615q4 12 6 20t2 14q0 11 -4.5 16t-6.5 7h69l191 -609l192 609h50l-216 -672h-50l-191 609l-192 -609h-50l-195 607q-5 17 -13.5 35t-26.5 30h69l192 -609z" />
    <glyph glyph-name="wdieresis" unicode="&#x1e85;" horiz-adv-x="1010" 
d="M368 826q0 16 10 25.5t26 9.5t25.5 -9.5t9.5 -25.5t-9.5 -25.5t-25.5 -9.5t-26 9.5t-10 25.5zM569 826q0 16 9.5 25.5t25.5 9.5t26 -9.5t10 -25.5t-10 -25.5t-26 -9.5t-25.5 9.5t-9.5 25.5zM462 615q4 12 6 20t2 14q0 11 -4.5 16t-6.5 7h69l191 -609l192 609h50
l-216 -672h-50l-191 609l-192 -609h-50l-195 607q-5 17 -13.5 35t-26.5 30h69l192 -609z" />
    <glyph glyph-name="ygrave" unicode="&#x1ef3;" horiz-adv-x="592" 
d="M349 780l-19 -28l-164 105l24 33zM52 628q-11 17 -20 27t-23 17h69l217 -332l216 332h56l-248 -377v-295h-49v295z" />
    <glyph glyph-name="yacute" unicode="&#xfd;" horiz-adv-x="592" 
d="M263 752l-20 28l160 110l24 -33zM52 628q-11 17 -20 27t-23 17h69l217 -332l216 332h56l-248 -377v-295h-49v295z" />
    <glyph glyph-name="ycircumflex" unicode="&#x177;" horiz-adv-x="592" 
d="M278 896h34l121 -118l-23 -25l-115 107l-115 -107l-23 25zM52 628q-11 17 -20 27t-23 17h69l217 -332l216 332h56l-248 -377v-295h-49v295z" />
    <glyph glyph-name="ydieresis" unicode="&#xff;" horiz-adv-x="592" 
d="M159 826q0 16 10 25.5t26 9.5t25.5 -9.5t9.5 -25.5t-9.5 -25.5t-25.5 -9.5t-26 9.5t-10 25.5zM360 826q0 16 9.5 25.5t25.5 9.5t26 -9.5t10 -25.5t-10 -25.5t-26 -9.5t-25.5 9.5t-9.5 25.5zM52 628q-11 17 -20 27t-23 17h69l217 -332l216 332h56l-248 -377v-295h-49v295z
" />
    <glyph glyph-name="zacute" unicode="&#x17a;" horiz-adv-x="642" 
d="M289 752l-20 28l160 110l24 -33zM574 0h-507v30l430 601h-418v41h483v-30l-429 -601h376q48 0 65 20v-61z" />
    <glyph glyph-name="zcaron" unicode="&#x17e;" horiz-adv-x="642" 
d="M338 756h-34l-121 119l23 24l115 -106l115 106l23 -24zM574 0h-507v30l430 601h-418v41h483v-30l-429 -601h376q48 0 65 20v-61z" />
    <glyph glyph-name="zdotaccent" unicode="&#x17c;" horiz-adv-x="642" 
d="M284 826q0 17 10 27t27 10t27 -10t10 -27t-10 -27t-27 -10t-27 10t-10 27zM574 0h-507v30l430 601h-418v41h483v-30l-429 -601h376q48 0 65 20v-61z" />
    <glyph glyph-name="Delta" unicode="&#x2206;" horiz-adv-x="677" 
d="M46 28l269 644h47l269 -644v-28h-585v28zM100 41h477l-238 572z" />
    <glyph glyph-name="Ohm" unicode="&#x2126;" horiz-adv-x="797" 
d="M265 41q-88 57 -133.5 138.5t-45.5 181.5q0 71 23 130.5t64 102t98.5 66.5t126.5 24t126.5 -24t99 -66.5t64.5 -102t23 -130.5q0 -100 -46 -181.5t-134 -138.5h132q48 0 65 20v-61h-263v35q96 60 146.5 140.5t50.5 183.5q0 63 -19.5 115t-54 89.5t-83.5 58.5t-107 21
t-106.5 -21t-83 -58.5t-54 -89.5t-19.5 -115q0 -103 50 -183.5t147 -140.5v-35h-264v61q17 -20 65 -20h132z" />
    <glyph glyph-name="pi" unicode="&#x3c0;" horiz-adv-x="504" 
d="M14 672h476v-672h-476v672zM252 380l162 244h-324zM62 92l162 244l-162 244v-488zM280 336l162 -244v488zM252 292l-162 -244h324z" />
    <glyph glyph-name="fi" unicode="&#xfb01;" horiz-adv-x="504" 
d="M14 672h476v-672h-476v672zM252 380l162 244h-324zM62 92l162 244l-162 244v-488zM280 336l162 -244v488zM252 292l-162 -244h324z" />
    <glyph glyph-name="fl" unicode="&#xfb02;" horiz-adv-x="504" 
d="M14 672h476v-672h-476v672zM252 380l162 244h-324zM62 92l162 244l-162 244v-488zM280 336l162 -244v488zM252 292l-162 -244h324z" />
    <glyph glyph-name="uni00B5" unicode="&#xb5;" horiz-adv-x="615" 
d="M102 -208v691h48v-313q0 -32 10.5 -57.5t30 -44.5t45.5 -29t58 -10q36 0 66 13t52 36t34.5 56t12.5 72v277h48v-405q0 -23 13 -36t35 -13q7 0 15 1.5t16 5.5v-42q-5 -2 -15.5 -4t-23.5 -2q-38 0 -61.5 22t-23.5 60v21q-23 -48 -67.5 -75.5t-101.5 -27.5q-48 0 -85.5 18
t-57.5 54v-203q0 -48 20 -65h-68z" />
    </font>
</defs>
</svg>
