<?xml version="1.0" encoding="utf-8"?>
<!-- Generator: Adobe Illustrator 18.0.0, SVG Export Plug-In . SVG Version: 6.00 Build 0)  -->
<!DOCTYPE svg PUBLIC "-//W3C//DTD SVG 1.1//EN" "http://www.w3.org/Graphics/SVG/1.1/DTD/svg11.dtd">
<svg version="1.1" id="圖層_1" xmlns="http://www.w3.org/2000/svg" xmlns:xlink="http://www.w3.org/1999/xlink" x="0px" y="0px"
	 viewBox="0 0 72 72" enable-background="new 0 0 72 72" xml:space="preserve">
<g>
	<path d="M36,29.2c-5.6,0-10.2,4.6-10.2,10.2c0,5.6,4.6,10.2,10.2,10.2c5.6,0,10.2-4.6,10.2-10.2C46.2,33.8,41.6,29.2,36,29.2
		L36,29.2z M63.2,19H55c-1.1,0-2.3-0.9-2.7-1.9l-2.1-6.3c-0.4-1.1-1.6-1.9-2.7-1.9H24.4c-1.1,0-2.3,0.9-2.7,1.9l-2.1,6.3
		C19.3,18.1,18.1,19,17,19H8.8C5.1,19,2,22.1,2,25.8v30.6c0,3.7,3.1,6.8,6.8,6.8h54.4c3.7,0,6.8-3.1,6.8-6.8V25.8
		C70,22.1,66.9,19,63.2,19L63.2,19z M36,56.4c-9.4,0-17-7.6-17-17c0-9.4,7.6-17,17-17c9.4,0,17,7.6,17,17C53,48.8,45.4,56.4,36,56.4
		L36,56.4z M60.8,30.6c-1.3,0-2.4-1.1-2.4-2.4c0-1.3,1.1-2.4,2.4-2.4c1.3,0,2.4,1.1,2.4,2.4C63.2,29.5,62.1,30.6,60.8,30.6
		L60.8,30.6z M60.8,30.6"/>
</g>
</svg>
