<?xml version="1.0" encoding="utf-8"?>
<!-- Generator: Adobe Illustrator 18.0.0, SVG Export Plug-In . SVG Version: 6.00 Build 0)  -->
<!DOCTYPE svg PUBLIC "-//W3C//DTD SVG 1.1//EN" "http://www.w3.org/Graphics/SVG/1.1/DTD/svg11.dtd">
<svg version="1.1" id="圖層_1" xmlns="http://www.w3.org/2000/svg" xmlns:xlink="http://www.w3.org/1999/xlink" x="0px" y="0px"
	 viewBox="0 0 72 72" enable-background="new 0 0 72 72" xml:space="preserve">
<path fill-rule="evenodd" clip-rule="evenodd" d="M67.7,11.2c-2.4-1.7-5.8-1.1-7.4,1.3L36,47.2L11.7,12.5c-1.7-2.4-5-3-7.4-1.3
	c-2.4,1.7-3,5-1.3,7.4l28.6,40.9c0.8,1.1,2,1.9,3.3,2.1c0,0,0.1,0,0.1,0c0.2,0,0.5,0.1,0.7,0.1c0.1,0,0.3,0,0.4,0c0.1,0,0.3,0,0.4,0
	c0.2,0,0.5,0,0.7-0.1c0,0,0.1,0,0.1,0c1.3-0.3,2.4-1,3.3-2.1L69,18.6C70.7,16.2,70.1,12.9,67.7,11.2z"/>
</svg>
