<?xml version="1.0" encoding="utf-8"?>
<!-- Generator: Adobe Illustrator 18.0.0, SVG Export Plug-In . SVG Version: 6.00 Build 0)  -->
<!DOCTYPE svg PUBLIC "-//W3C//DTD SVG 1.1//EN" "http://www.w3.org/Graphics/SVG/1.1/DTD/svg11.dtd">
<svg version="1.1" id="圖層_1" xmlns="http://www.w3.org/2000/svg" xmlns:xlink="http://www.w3.org/1999/xlink" x="0px" y="0px"
	 viewBox="0 0 72 72" enable-background="new 0 0 72 72" xml:space="preserve">
<g>
	<path d="M66.1,23c-0.3,1.1-0.7,2.8-1.2,5.2H50.5l-3.4,16h15.3l-0.6,2.6c-0.2,0.9-0.4,1.7-0.6,2.6H45.9L41.7,70h-6.1l4.2-20.7H26.4
		L22.2,70h-6.1l4.2-20.7H5.9c0.2-0.9,0.4-1.8,0.6-2.6L7,44.1h14.6l3.4-16H9.6c0.2-0.9,0.4-1.7,0.5-2.6c0.2-0.8,0.4-1.7,0.6-2.6h15.1
		l4.5-21h6.1L32,23h13.4l4.5-21H56l-4.4,21H66.1z M31,28.1l-3.4,16H41l3.4-16H31z"/>
</g>
</svg>
