<?xml version="1.0" encoding="utf-8"?>
<!-- Generator: Adobe Illustrator 18.0.0, SVG Export Plug-In . SVG Version: 6.00 Build 0)  -->
<!DOCTYPE svg PUBLIC "-//W3C//DTD SVG 1.1//EN" "http://www.w3.org/Graphics/SVG/1.1/DTD/svg11.dtd">
<svg version="1.1" id="圖層_1" xmlns="http://www.w3.org/2000/svg" xmlns:xlink="http://www.w3.org/1999/xlink" x="0px" y="0px"
	 viewBox="0 0 72 72" enable-background="new 0 0 72 72" xml:space="preserve">
<g>
	<path d="M44.9,32.7c-4.3,0.2-5.9,0.7-7.7,2.2c-2.3,2.1-1.6,6.4-1.6,6.6c0.2,1.1-0.2,1.9-0.9,2.3c-0.3,0.1-0.6,0.1-0.9,0.1
		c-1.2,0-2.7-0.6-4.3-1.1c-1.5-0.5-3-1.1-4.4-1.3c-0.1,0-0.1-0.1-0.1-0.2c0-0.2,0-0.3,0-0.5c0-0.2-0.1-0.2-0.2-0.3
		c-0.6-0.1-1.1-0.2-1.6-0.2c-0.6,0-1.1,0.1-1.5,0.3c-0.2,0.1-0.2,0.2-0.2,0.4c0.2,0.6,0.3,1.6,1.3,1.5c0.6,0,0.9,0,1.1,0
		c4.6,0.8,9.2,3.8,11.3,7.7c1.9,3.4,2.6,6.9,1.1,10.9c0,0.1-0.1,0.1-0.1,0c-0.6-4.9-3.8-6.5-6-8.2c-1.8-1.4-3.5-2.4-3.4-5.1
		c0,0,0-0.1,0-0.1c-0.1-0.1-0.2-0.1-0.3,0c-2.2,2.8-2.2,5-0.9,6.8c0,0,0,0.1,0,0.1c-0.7-0.3-1.1-0.6-1.4-0.9
		c-0.4-0.4-0.8-0.7-1.7-0.7c-0.1,0-0.3,0-0.4,0c-5.8,0-10.9,3.8-12.8,6.1c-0.1,0.1-0.1,0.2-0.1,0.2c0,0.1,0.2,0.1,0.3,0
		c3.7-2.9,22.1-3.5,26.7,10.4c0,0.1,0.1,0.1,0.2,0.1c0.1,0,0.1-0.1,0.2-0.1c0.3-0.8,0.9-1.9,1.8-3.3c1.1-1.7,8.6-9.9-0.7-26.9
		c-0.6-1.2-0.6-1.6-0.5-1.8c0,0,0.1-0.1,0.2-0.1c0.2,0,0.5,0.1,0.9,0.2c0.4,0.1,0.8,0.3,1.1,0.2c3.6-0.2,5.6-4.6,5.6-4.6
		c0.2-0.4,0.2-0.6,0.1-0.7C45.2,32.8,45.1,32.7,44.9,32.7z"/>
	<path d="M62.5,15.3c-0.1,0-0.3,0.1-0.5,0.5c-0.5,0.7-1.9,2-2.9,2.8c0,0-0.1,0-0.1-0.1c0.4-1.1,0.4-2.3,0.4-3.2c0-0.6,0.1-1,0.2-1.3
		c0-0.1,0.1-0.2,0.2-0.4c0.7-1.5,2.6-6-1.4-11.2c0-0.1-0.4-0.5-0.6-0.4c-0.2,0.1,0.1,0.6,0.1,0.6c1.8,3.7,1.4,6.7,0.9,7.8
		c-0.2,0.4-0.4,0.5-0.4,0.5c0,0,0,0,0,0c-0.3,0-0.9-0.9-1.4-1.7c-0.3-0.5-0.6-1-0.9-1.3c-1.9-2.4-3.7-3.7-6.4-4.4
		c-0.2-0.1-1.2-0.4-1.4-0.1c-0.1,0.3,0.8,0.6,1.1,0.8c3,1.5,3.8,3,4.3,3.9c0,0,0.1,0.2-0.1,0.2c-0.8,0-2.1-0.3-3.7-0.6
		c-1.1-0.2-2.3-0.5-3.6-0.7c-0.1,0-0.6-0.1-0.7,0.1c-0.1,0.2,0.4,0.4,0.5,0.5C48,8.3,49.6,8.8,51,9.2c1.7,0.5,3,1,3.9,1.9
		c0.3,0.3,0.5,0.6,0.7,0.9c0.8,1.3,1.4,3.6,0.8,5.7c-0.4,1.5-1.5,2.7-3.1,3.6c-1.8,0.9-1.5-0.1-1.4-0.2c0.6-2.1,0.6-3.6,0.5-5.2
		c0-0.4-0.1-1.7-0.4-1.7c-0.3,0-0.4,1.2-0.4,1.5c-0.2,1.3-0.7,3.1-1.5,4.8c-0.7,1.4-1.4,2.8-2.8,3.5c-0.1,0.1-2.9,1.2-4.1,1.4
		c-0.1,0-0.7,0.3-0.4-0.7c0.4-1.1,1.2-3.3,0.6-7.1c0-0.1-0.2-1.2-0.5-1.2c-0.3,0-0.3,1.2-0.3,1.3c-0.1,1.4-0.3,2.4-0.5,3.3
		c-0.4,1.4-1.1,2.8-2.2,4.2c-0.4,0.5-2,2.8-3.5,2.8c-0.6,0-1.4-0.4-2-1.1c-0.9-0.9-2.2-3.1-2-7.3c0-0.2,0.1-0.7-0.1-0.7
		c-0.3,0-0.5,0.6-0.5,0.7c-1.7,4.7-0.1,7.9,0.5,9.1c0.1,0.2,0.1,0.3,0.2,0.4c0.1,0.4,0.1,0.7,0,1.1c-0.3,0.7-1.2,1.3-2,1.5
		c-0.4,0.1-0.7,0.2-0.9,0.3c-0.1,0-0.1-0.1-0.1-0.1c0.6-0.3,0.8-0.7,0.8-1c0-0.5-0.8-0.8-1.6-1.1c-0.6-0.2-1.1-0.5-1.3-0.7
		c-0.5-0.7-1-1.2-1.4-1.8c-1.5-1.7-2.6-3.1-2.7-5.9c0-0.4,0.1-1.2-0.1-1.2c-0.3,0-0.6,1-0.6,1.1C21.7,24,22.6,26,23,27.1
		c0,0.1,0.1,0.2,0.1,0.3c0.1,0.1,0.2,0.4-0.2,0.2c-1.7-0.6-2.9-1.9-3.5-3.6c-0.8-2.4-0.3-5-0.1-5.3c0.7-1.1,1.8-1.8,3.2-2.7
		c1.2-0.8,2.7-1.7,4.4-3.3c0.1-0.1,0.2-0.3,0.1-0.4c-0.3-0.3-1.5,0.5-2,0.7c-2.2,1-3.8,1.8-4.9,2.2C20,15.2,20.1,15,20.1,15
		c1.4-3.4,3.4-5.7,6.1-7.3c0,0,0.7-0.4,0.5-0.6c-0.1-0.2-1.5,0.3-1.7,0.4c-4.8,2.1-6.5,5.5-7.5,7.8c0,0-0.4,1.4-0.7,1
		c-1.3-1.3-2-3.9-0.1-7c0-0.1,0.2-0.3,0.1-0.4c-0.1-0.1-0.3,0-0.5,0.3c-1.8,1.6-2.1,4.2-1.9,5.5c0.2,2.2,1.3,3.5,1.9,4.2
		c0.2,0.2,0.4,0.4,0.4,0.8c-0.1,1.5-0.1,2.1-0.1,2.8c0,0.3-0.2,0.3-0.3,0.3c-1.8-0.6-2.6-2.2-2.5-4.9c0-0.2,0.1-0.9-0.2-0.9
		c-0.3,0-0.4,0.8-0.5,0.9c-0.4,1.4-0.8,2.9,0.2,5c0.8,1.5,2.1,2.2,3,2.7c0.5,0.3,1,0.5,1.1,0.8c1.8,3,5.5,4.4,8,5.3
		c1.1,0.4,2,0.7,2.2,1.1c0.1,0.1,0.1,0.2,0.1,0.3c-0.1,0.3-0.6,0.4-1,0.6c-0.3,0.1-0.5,0.2-0.7,0.3c-0.3,0.2-0.3,0.6-0.2,0.9
		c0,0.1,0,0.3,0,0.4c-0.2,0.4-2.7,1-3.5,1.2c-0.9,0.2-1,1.3-0.7,2c0,0,0,0,0,0c-0.2,0.2-0.6,0.6-0.3,1.2c0.1,0.1,0.2,0.4,0.3,0.5
		c0.1,0.1,0.1,0.1,0.3,0c0.2-0.1,0.7-0.2,1.2-0.2c1.3,0,1.9,0.2,1.9,0.2c0.1,0,0.1,0,0.2-0.1c0.3-0.3,0.1-1.3,0.1-1.3
		c0-0.2-0.1-0.3-0.3-0.3c-0.1,0-0.3,0.1-0.5,0.2c-0.1,0.1-0.2,0-0.3-0.1c-0.2-0.2-0.3-0.5-0.2-0.8c0-0.5,0.2-0.7,0.6-0.8
		c0.1,0,0.3,0.1,0.4,0.2c0,0,0.1,0.1,0.3,0.1c0.6-0.3,3.8-1.1,4.5-1.2c0.3,0,0.5-0.3,0.7-0.7c0.4-0.5,0.9-1.3,2.1-1.5
		c0.1,0,0.3,0,0.4,0c0.9,0,1.4,0.5,1.8,0.9c0.3,0.2,0.5,0.4,0.7,0.4c0,0-0.3,0,0,0c0.3,0,1.6-0.5,1.3-1.3c0,0-0.4-0.9,0-1.6
		c0.3-0.7,0.5-0.9,1.3-1.5c1-0.7,2.8-1.2,5.2-1.9c6.1-1.8,15.3-4.4,19.1-12.1C62.5,16,62.7,15.4,62.5,15.3z"/>
	<path d="M34.6,35.7c-0.1-0.3-0.8-1.3-1.8-1.3c-0.7,0-1.1,0.4-1.3,0.7c-0.1,0.1-0.2,0.3-0.5,0.4c-0.3,0.1-0.5,0.3-0.6,0.4
		c0,0,0,0.1,0,0.1c0.1,0.1,0.1,0.1,0.3,0.1c0,0,0.1,0,0.2,0c0.1,0,0.3,0,0.6-0.1c0.4,0,0.6,0.1,0.6,0.1c0,0,0.2,0.1,0.3,0.1
		c0.1,0,0.2,0,0.3-0.1c0.1-0.1,0.1-0.2,0.1-0.4c0-0.1,0-0.3,0.1-0.4c0,0,0.1-0.1,0.2-0.1c0.2,0,0.5,0.1,0.6,0.6
		c0,0.1,0.1,0.2,0.3,0.2c0.2,0,0.4-0.1,0.4-0.2C34.6,35.8,34.6,35.7,34.6,35.7z"/>
</g>
</svg>
