<?xml version="1.0" encoding="utf-8"?>
<!-- Generator: Adobe Illustrator 18.0.0, SVG Export Plug-In . SVG Version: 6.00 Build 0)  -->
<!DOCTYPE svg PUBLIC "-//W3C//DTD SVG 1.1//EN" "http://www.w3.org/Graphics/SVG/1.1/DTD/svg11.dtd">
<svg version="1.1" id="圖層_1" xmlns="http://www.w3.org/2000/svg" xmlns:xlink="http://www.w3.org/1999/xlink" x="0px" y="0px"
	 viewBox="0 0 445 72" enable-background="new 0 0 445 72" xml:space="preserve">
<g>
	<path d="M28.7,7.7c-3.2,6.7-6.3,12-9.1,15.7c-1.5,2.1-3.1,4-4.9,5.8H58c-1.2-1.3-2.3-2.7-3.2-4.2c-3.2-4.2-5.9-9.1-8-14.4H32.7V4
		h19.1c2.9,9.4,9.1,18.1,18.6,26.3l-4.5,6.6c-1.8-1.5-3.5-3-5-4.5c-0.6,17.9-1.6,28.4-3.1,31.6c-1.7,3.3-5.3,5-11.1,5
		c-4.7,0-8.1-0.1-10-0.3l-2-7.8c4,0.6,7.9,0.9,12,0.9c2.5,0,4-1.4,4.5-4.3c0.7-1.9,1-9.1,1.2-21.7h-17c-1.8,8.2-4.3,14.7-7.5,19.5
		c-4,5.5-9.7,10.3-17.5,14.7l-4.6-6c6.7-3.6,12-7.7,15.7-12.3c3.1-4,5.4-9.3,7-16H13.2v-5.1c-2.2,2.2-4.5,4.2-6.9,6.2l-4-6.9
		c4-2.6,7.9-6.4,11.6-11.4c2.9-3.8,5.7-8.7,8.5-14.9L28.7,7.7z"/>
	<path d="M136.6,37.4v6.3c-5.7,2.6-12.1,5-19.3,7.2h26.5v6.3h-27.4v6c-0.1,1.6-0.6,2.9-1.4,3.7c-1.2,1.3-2.7,2-4.3,2H97.4L96,62.6
		c3.3,0.1,6.8,0.3,10.6,0.3c1.5,0,2.3-0.6,2.3-1.8v-4H78.2v-6.3h30.6V48c4.7-1,9.7-2.5,14.9-4.3H82.6v-6.3H136.6z M114,8h29.5v6.3
		H78.5V8h27.4c-0.9-1.6-1.8-3.1-2.8-4.6l8.3-1.1C112.3,4,113.2,6,114,8z M136.6,17.7v16H84.8v-16H136.6z M129.2,23.4H92.3V28h36.9
		V23.4z"/>
	<path d="M173.3,4.9c-2,5.9-4,10.8-6,14.9v49.1h-6.6V30.3c-2,2.6-4.1,5.3-6.3,8l-2.3-8.1c3.1-3.8,5.8-7.8,8.2-11.9
		c2.3-3.7,4.7-9,7-16L173.3,4.9z M190.4,4c-1,2.5-1.9,4.8-2.9,6.9h30.9c-1.2,6.4-3.2,12.7-6,18.9l-6.9-2.1c1.9-2.9,3.5-6.4,4.8-10.5
		h-25.9c-3.1,6.1-6.4,11.2-9.8,15.2l-4.8-6c6-7.1,10.6-15,13.7-23.8L190.4,4z M187.9,32.3c-2.6,10-6.4,18.5-11.1,25.7l-6.3-4
		c5-7.2,8.5-14.9,10.5-23.2L187.9,32.3z M199.3,21.4v40.3c0,2.6-0.7,4.5-1.8,5.5c-1.2,1.1-3.2,1.7-6.1,1.7H181l-1.4-7.2
		c3.9,0.4,7.1,0.6,9.7,0.6c1.9,0,2.9-0.6,2.9-1.8V21.4H199.3z M219.4,56.6l-6.6,2.9c-3.1-10.2-6.4-19.3-10-27.2l6.6-2
		C213.1,38.5,216.4,47.3,219.4,56.6z"/>
	<path d="M249.1,3.4c-0.9,3.8-2.1,7.4-3.7,10.6H256v15.3c2.1-3.5,3.8-7,5-10.5c1.5-4.1,2.6-9.6,3.6-16.5l7.2,1.1
		c-0.7,4-1.3,7.4-2,10.3h22.5c0,25.8-0.4,41-1.2,45.7c-0.7,3.7-2,6.1-3.7,7.3c-2,1.5-5.9,2.2-11.3,2.2c-1.6,0-3.4-0.1-5.5-0.3
		l-1.1-7.2c2.1,0.4,4.3,0.6,6.6,0.6c4.6,0,7.2-1.5,7.8-4.6c0.9-3.8,1.5-16.2,1.6-37.1H268c-0.2,0.5-0.4,1-0.4,1.2
		c-1.6,5.3-4.3,10.9-8.1,16.8l-3.4-4.2V64h-6.3v-3.4h-13.4V66H230V14h9.1c1.5-3.5,2.7-7.4,3.5-11.5L249.1,3.4z M249.7,34.3V20h-13.4
		v14.3H249.7z M249.7,54.6V40h-13.4v14.6H249.7z M280,47.5l-6.9,4.5c-2-5.3-4.9-11.4-8.6-18.3l5.7-3.7
		C274.4,36.8,277.7,42.6,280,47.5z"/>
	<path d="M319.9,3.7c-0.6,1.3-1.2,2.6-1.9,3.7h17.3v6h-9.7c0.8,1.8,1.5,3.6,2.2,5.4l-7.2,0.6c-0.5-2.2-1.1-4.2-1.7-6h-5
		c-1.9,2.4-4,4.6-6.1,6.6l-6.3-4c5.4-4.2,9.2-8.8,11.4-13.7L319.9,3.7z M364.2,21.1v17.5h-24.9v5.7h27.2
		c-0.4,10.5-1.1,16.7-2.3,18.5c-1.2,1.8-3.7,2.6-7.7,2.6c-4.3,0-7.4-0.1-9.1-0.3l-1.8-6.9c3.6,0.6,7.2,0.9,10.9,0.9
		c1.3,0,2.2-0.4,2.5-1.5c0.3-0.7,0.5-3.1,0.7-7.4h-20.3v19.4h-7.1V50.6c-2.2,2.9-4.6,5.4-7.2,7.5c-4.4,3.4-10.8,6.6-19.1,10l-3.7-6
		c8.5-2.8,14.5-5.3,18.1-7.7c1.8-1.1,3.5-2.4,5.1-4h-19.8l2.3-17.7h24.3v-5.5h-26.4v-6H364.2z M332.2,38.6h-18.4l-0.9,5.7h19.3V38.6
		z M349.6,3.1c-0.7,1.5-1.3,3-2,4.3h22v6h-12.2c0.7,1.8,1.5,3.6,2.2,5.4l-7.2,0.6c-0.5-2.2-1.1-4.2-1.7-6h-6.7
		c-1.6,2.4-3.4,4.6-5.3,6.6l-6-3.7c4.9-4.4,8.3-9.1,10.2-14.3L349.6,3.1z M339.3,32.6h18.3v-5.5h-18.3V32.6z"/>
	<path d="M442.7,30v6.9h-63.8V30H442.7z"/>
</g>
</svg>
