<?xml version="1.0" encoding="utf-8"?>
<!-- Generator: Adobe Illustrator 18.0.0, SVG Export Plug-In . SVG Version: 6.00 Build 0)  -->
<!DOCTYPE svg PUBLIC "-//W3C//DTD SVG 1.1//EN" "http://www.w3.org/Graphics/SVG/1.1/DTD/svg11.dtd">
<svg version="1.1" id="圖層_1" xmlns="http://www.w3.org/2000/svg" xmlns:xlink="http://www.w3.org/1999/xlink" x="0px" y="0px"
	 viewBox="0 0 216 216" enable-background="new 0 0 216 216" xml:space="preserve">
<g>
	<path d="M167.1,147.2c-1.5,0-2.5-1.1-2.5-2.8c0-1.7,1-2.8,2.5-2.8c1.4,0,2.1,0.9,2.1,1l0.2,0.2v-1.2l-0.1-0.1
		c-0.6-0.5-1.4-0.7-2.2-0.7c-2,0-3.4,1.5-3.4,3.7c0,2.2,1.4,3.7,3.4,3.7c0.8,0,1.7-0.3,2.2-0.7l0.1-0.1v-1.2l-0.2,0.2
		C169.2,146.4,168.5,147.2,167.1,147.2z"/>
	<polygon points="181,142.1 181,143 183,141.9 183,147.9 183.8,147.9 183.8,140.9 183.2,140.9 	"/>
	<path d="M190.4,144.3c0.7-0.3,1.1-0.9,1.1-1.7c0-1.1-1-1.9-2.3-1.9c-1.3,0-2.3,0.8-2.3,1.9c0,0.7,0.4,1.3,1.1,1.7
		c-0.8,0.3-1.2,1-1.2,1.8c0,1.2,1,2,2.4,2c1.4,0,2.4-0.8,2.4-2C191.6,145.3,191.1,144.6,190.4,144.3z M189.1,147.3
		c-0.9,0-1.6-0.5-1.6-1.2c0-0.7,0.6-1.2,1.6-1.3c1,0.2,1.6,0.6,1.6,1.3C190.7,146.8,190.1,147.3,189.1,147.3z M189.1,141.5
		c0.8,0,1.4,0.5,1.4,1.2c0,0.6-0.5,1.1-1.4,1.2c-0.9-0.1-1.4-0.6-1.4-1.2C187.7,142,188.3,141.5,189.1,141.5z"/>
	<path d="M197.5,144.3c0.7-0.3,1.1-0.9,1.1-1.7c0-1.1-1-1.9-2.3-1.9c-1.3,0-2.3,0.8-2.3,1.9c0,0.7,0.4,1.3,1.1,1.7
		c-0.8,0.3-1.2,1-1.2,1.8c0,1.2,1,2,2.4,2c1.4,0,2.4-0.8,2.4-2C198.7,145.3,198.3,144.6,197.5,144.3z M196.3,147.3
		c-0.9,0-1.6-0.5-1.6-1.2c0-0.7,0.6-1.2,1.6-1.3c1,0.2,1.6,0.6,1.6,1.3C197.8,146.8,197.2,147.3,196.3,147.3z M196.3,141.5
		c0.8,0,1.4,0.5,1.4,1.2c0,0.6-0.5,1.1-1.4,1.2c-0.9-0.1-1.4-0.6-1.4-1.2C194.8,142,195.4,141.5,196.3,141.5z"/>
	<path d="M71.2,141.6v6.4h0.9v-3h3.3v-0.8h-3.3v-2.5h3.6v-0.8c0,0-4.6,0-4.7,0C71.1,140.9,71.2,141.2,71.2,141.6z"/>
	<path d="M79.3,140.9c0,0,0.2,0.1,0.2,0.3c0,0.2-0.1,0.3-0.1,0.3l-2.6,6.4h0.9l0.8-2h3.1l0.8,2h0.9l-2.9-7.1H79.3z M81.3,145.2h-2.5
		l1.2-3L81.3,145.2z"/>
	<path d="M88.9,144.3l-2.5-3.4l0,0h-1c0,0,0.3,0.1,0.3,0.8v6.3h0.8v-5.6l2.5,3.3l2.5-3.3v5.6h0.9v-7.1h-0.8L88.9,144.3z"/>
	<path d="M95.8,141.6v6.3h0.9v-7.1h-1.1C95.5,140.9,95.8,141,95.8,141.6z"/>
	<path d="M101.1,140.9h-1.1c0.2,0.1,0.3,0.4,0.3,0.7v6.3h4.3v-0.8h-3.4V140.9z"/>
	<path d="M107.8,144l-2-3.1c0,0-0.9,0-1.2,0c0.2,0.1,0.4,0.4,0.6,0.6l2.2,3.4v3.1h0.9v-3.1l2.6-4h-1L107.8,144z"/>
	<path d="M151,141.6v6.3h0.9v-7.1h-1.1C150.8,140.9,151,141,151,141.6z"/>
	<path d="M120.5,143c0-1.2-1-2.1-2.3-2.1h-2.8c0,0,0.3,0.1,0.3,0.8v6.3h0.9v-2.8h1.4l2,2.8h1l-2.1-2.9
		C119.8,144.8,120.5,144,120.5,143z M116.5,141.7h1.7c0.9,0,1.5,0.5,1.5,1.3c0,0.8-0.6,1.3-1.5,1.3h-1.7V141.7z"/>
	<path d="M128.2,145.2c0,1.2-0.9,2-2.1,2c-1.2,0-2.1-0.9-2.1-2v-4.4h-1.1c0,0,0.3,0.1,0.3,0.8v3.6c0,1.6,1.2,2.8,3,2.8
		c1.7,0,2.9-1.2,2.9-2.8v-4.4h-0.9V145.2z"/>
	<path d="M136.8,146.5l-4.1-5.6h-1c0,0,0.3,0.1,0.3,0.7v6.3h0.9v-5.6l4.1,5.6h0.8v-7.1h-0.9V146.5z"/>
	<path d="M160.4,146.5l-4.1-5.6h-1c0,0,0.3,0.1,0.3,0.7v6.3h0.9v-5.6l4.1,5.6h0.8v-7.1h-0.9V146.5z"/>
	<path d="M172.8,144.7h3.3v-0.8l-3.3,0v-2.3h3.6v-0.8h-4.7c0,0,0.3,0.1,0.3,0.8v6.3h4.6v-0.8h-3.8V144.7z"/>
	<path d="M200.3,140.9c0,0,0,1,0,1c0.1-0.1,0.2-0.2,0.8-0.2h2.7l-2.7,6.3h0.9l2.8-6.5v-0.6H200.3z"/>
	<path d="M145.9,144c-1-0.3-1.7-0.5-1.7-1.3c0-0.7,0.6-1.1,1.6-1.1c1.6,0,1.9,0.5,2.1,0.9c0-0.5,0-1.2,0-1.2l-0.1-0.1
		c-0.6-0.3-1.3-0.4-2.1-0.4c-1.4,0-2.4,0.8-2.4,1.9c0,1.4,1.2,1.8,2.3,2.1c0.9,0.3,1.8,0.5,1.8,1.4c0,0.7-0.7,1.1-1.6,1.1
		c-1.8,0-2.4-0.9-2.4-0.9v1.1l0.1,0.1c0.5,0.2,1.4,0.5,2.3,0.5c1.5,0,2.5-0.8,2.5-1.9C148.2,144.7,146.9,144.3,145.9,144z"/>
</g>
</svg>
