<?xml version="1.0" encoding="utf-8"?>
<!-- Generator: Adobe Illustrator 18.0.0, SVG Export Plug-In . SVG Version: 6.00 Build 0)  -->
<!DOCTYPE svg PUBLIC "-//W3C//DTD SVG 1.1//EN" "http://www.w3.org/Graphics/SVG/1.1/DTD/svg11.dtd">
<svg version="1.1" id="圖層_1" xmlns="http://www.w3.org/2000/svg" xmlns:xlink="http://www.w3.org/1999/xlink" x="0px" y="0px"
	 viewBox="0 0 216 216" enable-background="new 0 0 216 216" xml:space="preserve">
<g>
	<path d="M207.1,128.5c0.9,0,1.7,0.7,1.7,1.7c0,1-0.8,1.7-1.7,1.7c-0.9,0-1.7-0.7-1.7-1.7C205.4,129.3,206.2,128.5,207.1,128.5z
		 M207.1,131.7c0.8,0,1.4-0.6,1.4-1.5c0-0.8-0.6-1.5-1.4-1.5c-0.8,0-1.4,0.6-1.4,1.5C205.7,131.1,206.4,131.7,207.1,131.7z
		 M206.5,131.2h0.3v-0.9h0.3l0.5,0.9h0.3l-0.6-0.9c0.3,0,0.5-0.2,0.5-0.5c0-0.4-0.2-0.6-0.7-0.6h-0.7V131.2z M206.8,129.5h0.4
		c0.3,0,0.4,0.1,0.4,0.3c0,0.3-0.1,0.3-0.5,0.3h-0.3V129.5z"/>
	<path d="M78.3,119.6h7.8v0.1c-0.9,0.5-1.2,1.4-1.2,3.2v11.1h-0.1c-0.5-0.9-0.8-1.2-1.4-1.2c-0.4,0-0.8,0.2-1.3,0.4
		c-1.4,0.6-2.8,1-4.3,1c-6.5,0-9.9-5.2-9.9-15.1c0-5.6,1.3-10.1,3.6-13.1c1.6-2,4.1-3.3,6.9-3.3c1,0,1.9,0.2,3.3,0.6
		c0.9,0.3,1.1,0.3,1.5,0.3c0.7,0,1.1-0.4,1.2-0.7h0.1v10.2h-0.1c-1.2-5.2-2.9-8.1-5.5-8.1c-3.8,0-5.7,5.3-5.7,13.2
		c0,8,1.5,13.3,4.8,13.3c0.8,0,1.5-0.3,1.9-0.7c0.6-0.6,0.8-1.4,0.8-2.7v-3.9c0-3.6-0.6-4.3-2.3-4.6V119.6z"/>
	<path d="M94.3,133.7L94.3,133.7l-7.8,0.1v-0.1c1.3-0.2,1.9-1.4,1.9-3.3v-23.6c0-2.6-0.7-3.4-1.9-3.7V103h6v27.3
		C92.5,132.7,93,133.4,94.3,133.7z"/>
	<path d="M152.5,130.4V103h-6v0.1c1.3,0.3,1.9,1.1,1.9,3.3v8.1c-0.7-0.9-1.7-1.5-2.9-1.5c-3.5,0-6.2,3.8-6.2,11c0,6.7,2.4,10,5.9,10
		c1.3,0,2.5-0.7,3.3-1.8v1.5h5.8v-0.1C153,133.4,152.5,132.7,152.5,130.4z M148.3,130.2c-0.3,0.5-1.2,1.2-2.1,1.2
		c-1.5,0-2.5-1.5-2.5-8.4c0-4.6,0.9-7.3,2.8-7.3c0.7,0,1.3,0.4,1.7,1.2V130.2z"/>
	<path d="M170.5,108.2c0-1.4,1.2-2.6,2.6-2.6c1.4,0,2.6,1.2,2.6,2.6c0,1.4-1.2,2.6-2.6,2.6C171.7,110.8,170.5,109.6,170.5,108.2z
		 M171.3,117.2c0-2.3-0.7-3-1.9-3.3v-0.1h6v16.6c0,2.4,0.5,3.1,1.9,3.3v0.1h-13.7v-1.5c-0.8,1.1-2.1,1.8-3.3,1.8
		c-3.5,0-5.8-3.3-5.8-10c0-7.2,2.7-11,6.2-11c1.1,0,2.2,0.5,2.9,1.5v-8.1c0-2.3-0.7-3-1.9-3.3V103h6v27.2c0,1.2,0.2,2,0.5,2.5
		c0.3,0.5,0.8,0.8,1.4,0.8c0.5,0,1-0.2,1.4-0.8c0.3-0.5,0.5-1.3,0.5-2.5V117.2z M163.5,116.9c-0.4-0.7-1.1-1.2-1.7-1.2
		c-1.9,0-2.8,2.7-2.8,7.3c0,6.9,1,8.4,2.5,8.4c0.9,0,1.8-0.7,2.1-1.2V116.9z"/>
	<path d="M101.2,134.1c3.4,0,5.1-2.6,5.4-5.8l-0.1,0c-0.9,2.1-2.5,3.3-4,3.3c-2.5,0-3.8-2.6-3.8-7.5v-0.7h8.5v-0.2
		c0-6.1-2.4-9.8-6.2-9.8c-3.8,0-6.8,3.7-6.8,10C94.3,130.9,97.3,134.1,101.2,134.1z M101.1,115.2c1.3,0,1.9,2,1.9,6.4h-4.3
		C98.8,116.9,99.8,115.2,101.1,115.2z"/>
	<path d="M139.2,133.7L139.2,133.7l-7.5,0.1v-0.1c1.2-0.4,1.5-1,1.5-3.3v-12.8c0-0.9-0.2-1.5-0.6-2c-0.3-0.4-0.9-0.6-1.5-0.6
		c-0.6,0-1.2,0.2-1.5,0.6c-0.4,0.4-0.6,1-0.6,2v12.8c0,2.4,0.3,3,1.5,3.3v0.1l-14.8,0v-0.1c1.2-0.4,1.5-1,1.5-3.3v-11.8
		c0-1.4-0.4-2.1-1.3-2.1c-0.8,0-2,0.8-2.6,1.8v12.1c0,2.4,0.3,3,1.5,3.3v0.1h-7.5v-0.1c1.3-0.2,1.9-1,1.9-3.3v-13.2
		c0-2.3-0.7-3-1.9-3.4v-0.1h5.9v2.4c1.2-1.6,2.6-2.8,4.3-2.8c2.1,0,3.9,1.5,3.9,5.3v12.2c0,1,0.1,1.6,0.4,2c0.3,0.4,0.8,0.6,1.4,0.6
		c0.6,0,1.1-0.2,1.4-0.6c0.3-0.4,0.4-1,0.4-2l0-14c0-1.6-0.8-2.8-2.5-3v-0.1h2.5v-4.2c0-2.2,0.5-3.8,1.7-5c1.2-1.2,3-1.9,5-1.9
		c2.6,0,5.5,1.5,5.5,4.3c0,1.7-1,3.3-2.8,3.3c-1.2,0-2.2-1-2.2-2.2c0-1.1,0.9-1.7,0.9-2.5c0-0.8-0.7-1.4-1.7-1.4
		c-0.7,0-1.3,0.2-1.7,0.6c-0.5,0.5-0.7,1.1-0.7,2.2v6.8h8.2v16.6C137.4,132.6,137.9,133.5,139.2,133.7z"/>
	<path d="M204.8,133.7L204.8,133.7l-7.5,0.1v-0.1c1.2-0.4,1.5-1,1.5-3.3v-11.8c0-1.4-0.4-2.1-1.3-2.1c-0.8,0-2,0.8-2.7,1.8v12.1
		c0,2.4,0.3,3,1.5,3.3v0.1h-7.5v-0.1c1.3-0.2,1.9-1,1.9-3.3v-23.9c0-2.3-0.7-3-1.9-3.3V103h6v12.9c1.2-1.5,2.5-2.5,4.1-2.5
		c2.1,0,3.9,1.5,3.9,5.3v11.6C202.9,132.6,203.5,133.5,204.8,133.7z"/>
	<path d="M184,134.1c-3.8,0-6.7-3.4-6.7-10.2c0-6.4,3.1-10.5,7.2-10.5c2.7,0,4.6,1.9,4.6,4.5c0,1.7-0.9,2.8-2.4,2.8
		c-1.2,0-2.1-0.9-2.1-2.1c0-1.3,1.1-1.9,1.1-2.8c0-0.6-0.4-0.9-1.1-0.9c-0.8,0-1.6,0.7-2.1,2c-0.6,1.5-0.9,3.3-0.9,6.5
		c0,5.3,1.2,8.1,3.4,8.1c1.7,0,3.4-1.5,4-3.3l0.1,0.1C188.9,131.5,187.1,134.1,184,134.1z"/>
</g>
</svg>
