<?xml version="1.0" encoding="utf-8"?>
<!-- Generator: Adobe Illustrator 18.0.0, SVG Export Plug-In . SVG Version: 6.00 Build 0)  -->
<!DOCTYPE svg PUBLIC "-//W3C//DTD SVG 1.1//EN" "http://www.w3.org/Graphics/SVG/1.1/DTD/svg11.dtd">
<svg version="1.1" id="圖層_1" xmlns="http://www.w3.org/2000/svg" xmlns:xlink="http://www.w3.org/1999/xlink" x="0px" y="0px"
	 viewBox="0 0 216 216" enable-background="new 0 0 216 216" xml:space="preserve">
<g>
	<g>
		<path d="M48.5,104c-5.1,0.3-7.1,0.8-9.2,2.7c-2.8,2.5-1.9,7.7-1.9,7.9c0.2,1.4-0.2,2.3-1,2.7c-0.3,0.1-0.7,0.2-1.1,0.2
			c-1.4,0-3.2-0.7-5.1-1.4c-1.8-0.7-3.6-1.3-5.3-1.5c-0.1,0-0.1-0.1-0.1-0.2c0-0.2,0.1-0.4,0.1-0.5c0-0.2-0.2-0.3-0.2-0.3
			c-0.7-0.2-1.4-0.3-1.9-0.3c-0.7,0-1.3,0.1-1.8,0.4c-0.2,0.1-0.2,0.2-0.2,0.4c0.2,0.7,0.3,1.9,1.6,1.8c0.7-0.1,1.1-0.1,1.4,0
			c5.5,0.9,11,4.6,13.5,9.2c2.2,4.1,3.1,8.2,1.3,13.1c0,0.1-0.1,0.1-0.2,0c-0.8-5.9-4.6-7.8-7.1-9.8c-2.1-1.7-4.2-2.9-4-6.1
			c0-0.1,0-0.1-0.1-0.2c-0.1-0.1-0.3-0.1-0.4,0c-2.6,3.4-2.7,6.1-1.1,8.1c0,0,0,0.1,0,0.1c-0.9-0.4-1.3-0.8-1.7-1.1
			c-0.5-0.4-1-0.8-2-0.8c-0.2,0-0.3,0-0.5,0c-7,0-13.1,4.5-15.3,7.4C6,135.9,6,136,6,136.1c0.1,0.1,0.2,0.1,0.3,0
			c4.4-3.5,26.5-4.2,32.1,12.5c0,0.1,0.1,0.2,0.2,0.2c0.1,0,0.2-0.1,0.2-0.2c0.3-1,1.1-2.2,2.2-3.9c1.4-2,10.3-11.9-0.8-32.2
			c-0.7-1.4-0.7-2-0.6-2.1c0,0,0.1-0.1,0.3-0.1c0.3,0,0.6,0.1,1,0.3c0.5,0.2,0.9,0.3,1.3,0.3c4.4-0.2,6.7-5.5,6.7-5.5
			c0.2-0.4,0.2-0.7,0.1-0.9C48.9,104.1,48.8,104,48.5,104z"/>
		<path d="M69.6,83.2c-0.1,0-0.3,0.1-0.6,0.5c-0.6,0.8-2.3,2.4-3.5,3.4c-0.1,0-0.1,0-0.1-0.1c0.4-1.3,0.5-2.7,0.5-3.9
			c0-0.7,0.2-1.2,0.3-1.5c0-0.1,0.1-0.3,0.2-0.5c0.8-1.8,3.1-7.2-1.7-13.5c-0.1-0.1-0.5-0.6-0.7-0.5c-0.2,0.1,0.1,0.7,0.1,0.8
			c2.2,4.5,1.6,8,1,9.3c-0.2,0.5-0.4,0.6-0.5,0.6c0,0,0,0,0,0c-0.4,0-1.1-1.1-1.7-2c-0.4-0.6-0.7-1.2-1.1-1.6
			c-2.3-2.9-4.5-4.5-7.7-5.3c-0.3-0.1-1.5-0.4-1.6-0.1c-0.1,0.3,1,0.7,1.3,0.9c3.6,1.8,4.6,3.6,5.2,4.6c0,0,0.1,0.2-0.1,0.2
			c-1-0.1-2.5-0.3-4.4-0.8c-1.3-0.3-2.7-0.6-4.3-0.9c-0.1,0-0.8-0.1-0.9,0.1c-0.1,0.2,0.5,0.5,0.6,0.6c2.1,1.1,4,1.7,5.7,2.3
			c2,0.6,3.6,1.2,4.7,2.3c0.3,0.3,0.6,0.7,0.8,1c0.9,1.6,1.7,4.4,1,6.8c-0.5,1.8-1.8,3.3-3.7,4.3c-2.2,1.1-1.8-0.1-1.7-0.3
			c0.7-2.5,0.7-4.3,0.6-6.2c0-0.5-0.1-2.1-0.5-2.1c-0.3,0-0.5,1.4-0.5,1.8c-0.3,1.6-0.8,3.7-1.8,5.7c-0.8,1.7-1.7,3.4-3.4,4.2
			c-0.1,0.1-3.4,1.4-4.9,1.7c-0.1,0-0.8,0.3-0.4-0.8c0.5-1.3,1.4-4,0.7-8.5c0-0.1-0.2-1.5-0.6-1.4c-0.3,0.1-0.4,1.4-0.4,1.5
			c-0.2,1.6-0.4,2.9-0.6,3.9c-0.5,1.7-1.3,3.3-2.6,5c-0.4,0.6-2.4,3.3-4.2,3.3c-0.7,0-1.6-0.5-2.4-1.4c-1-1.1-2.7-3.7-2.4-8.7
			c0-0.3,0.1-0.8-0.2-0.9c-0.4-0.1-0.6,0.8-0.6,0.8c-2,5.6-0.1,9.4,0.7,10.9c0.1,0.2,0.2,0.3,0.2,0.4c0.2,0.4,0.2,0.9,0,1.3
			c-0.4,0.9-1.5,1.5-2.3,1.8c-0.4,0.2-0.8,0.3-1.1,0.3c-0.2,0-0.1-0.1-0.1-0.1c0.7-0.4,0.9-0.8,0.9-1.2c-0.1-0.6-0.9-1-1.9-1.4
			c-0.7-0.3-1.3-0.6-1.6-0.9c-0.6-0.8-1.2-1.5-1.7-2.1c-1.8-2.1-3.2-3.7-3.2-7.1c0-0.5,0.2-1.5-0.1-1.5c-0.4,0-0.7,1.1-0.8,1.3
			c-0.9,3.4,0.2,5.9,0.7,7.1c0,0.1,0.1,0.2,0.1,0.3c0.1,0.2,0.2,0.5-0.2,0.3c-2.1-0.8-3.5-2.2-4.2-4.4c-1-2.9-0.3-6-0.1-6.4
			c0.9-1.4,2.2-2.2,3.8-3.2c1.5-0.9,3.2-2.1,5.2-4c0.2-0.1,0.3-0.4,0.2-0.5c-0.3-0.3-1.8,0.6-2.4,0.9c-2.6,1.2-4.5,2.1-5.8,2.6
			c-0.3,0.1-0.2-0.1-0.2-0.2c1.7-4.1,4.1-6.9,7.3-8.8c0,0,0.8-0.4,0.7-0.7c-0.1-0.3-1.8,0.4-2,0.5c-5.7,2.5-7.8,6.5-9,9.4
			c0,0-0.5,1.6-0.9,1.2c-1.5-1.5-2.4-4.7-0.2-8.4c0-0.1,0.3-0.4,0.1-0.5c-0.1-0.1-0.3,0-0.6,0.3c-2.2,1.9-2.5,5-2.3,6.6
			c0.3,2.7,1.6,4.2,2.3,5c0.3,0.3,0.5,0.5,0.5,1c-0.1,1.8-0.2,2.5-0.1,3.4c0,0.3-0.3,0.4-0.4,0.3c-2.1-0.8-3.1-2.7-3-5.9
			c0-0.3,0.1-1.1-0.2-1.1c-0.3,0-0.5,0.9-0.6,1.1c-0.4,1.7-1,3.5,0.3,5.9c0.9,1.8,2.5,2.7,3.6,3.2c0.6,0.3,1.1,0.6,1.4,0.9
			c2.1,3.6,6.6,5.2,9.6,6.3c1.4,0.5,2.4,0.9,2.7,1.3c0.1,0.1,0.1,0.3,0.1,0.4c-0.1,0.3-0.7,0.5-1.2,0.7c-0.3,0.1-0.6,0.2-0.8,0.3
			c-0.4,0.3-0.3,0.7-0.3,1.1c0,0.2,0,0.3,0,0.4c-0.2,0.5-3.3,1.2-4.2,1.4c-1,0.2-1.2,1.5-0.8,2.4c0,0,0,0,0,0
			c-0.2,0.2-0.7,0.7-0.4,1.4c0.1,0.2,0.3,0.5,0.3,0.6c0.1,0.1,0.2,0.1,0.3,0c0.2-0.1,0.8-0.2,1.4-0.2c1.5,0,2.2,0.2,2.3,0.2
			c0.1,0,0.1,0,0.2-0.1c0.3-0.3,0.2-1.5,0.2-1.5c0-0.2-0.2-0.3-0.4-0.3c-0.2,0-0.4,0.1-0.6,0.2c-0.1,0.1-0.2,0-0.3-0.1
			c-0.2-0.2-0.3-0.6-0.3-1c0-0.6,0.3-0.9,0.8-0.9c0.2,0,0.3,0.1,0.4,0.2c0,0,0.1,0.1,0.3,0.1c0.7-0.3,4.6-1.3,5.4-1.4
			c0.4,0,0.6-0.4,0.9-0.8c0.4-0.6,1.1-1.5,2.5-1.7c0.2,0,0.3,0,0.5,0c1.1,0,1.7,0.6,2.2,1c0.3,0.3,0.6,0.5,0.8,0.5c0,0-0.4,0,0,0
			c0.4,0,1.9-0.7,1.6-1.5c0,0-0.5-1,0-2c0.4-0.8,0.6-1.1,1.6-1.8c1.2-0.8,3.4-1.4,6.2-2.3c7.3-2.1,18.3-5.3,22.8-14.5
			C69.7,84.1,69.9,83.2,69.6,83.2z"/>
	</g>
	<path d="M36.2,107.6c-0.1-0.4-0.9-1.6-2.1-1.6c-0.8,0-1.3,0.4-1.6,0.8c-0.1,0.2-0.3,0.3-0.6,0.5c-0.3,0.2-0.6,0.3-0.7,0.5
		c0,0,0,0.1,0,0.2c0.1,0.1,0.2,0.1,0.3,0.1c0,0,0.1,0,0.3,0c0.2,0,0.4-0.1,0.7-0.1c0.4,0,0.8,0.2,0.8,0.2c0.1,0,0.2,0.1,0.4,0.1
		c0.2,0,0.3,0,0.4-0.1c0.1-0.1,0.2-0.3,0.2-0.5c0-0.1,0-0.3,0.1-0.4c0.1-0.1,0.1-0.1,0.2-0.1c0.2,0,0.6,0.1,0.7,0.7
		c0,0.2,0.2,0.3,0.4,0.3c0.2,0,0.4-0.1,0.5-0.2C36.2,107.8,36.2,107.7,36.2,107.6z"/>
</g>
</svg>
