<?xml version="1.0" encoding="utf-8"?>
<!-- Generator: Adobe Illustrator 18.0.0, SVG Export Plug-In . SVG Version: 6.00 Build 0)  -->
<!DOCTYPE svg PUBLIC "-//W3C//DTD SVG 1.1//EN" "http://www.w3.org/Graphics/SVG/1.1/DTD/svg11.dtd">
<svg version="1.1" id="圖層_1" xmlns="http://www.w3.org/2000/svg" xmlns:xlink="http://www.w3.org/1999/xlink" x="0px" y="0px"
	 viewBox="0 0 955 72" enable-background="new 0 0 955 72" xml:space="preserve">
<g>
	<path d="M21,10h8.4v6h-23v-6h7.9c-0.4-2.5-0.9-4.9-1.3-7.2L19.9,2C20.3,4.4,20.6,7.1,21,10z M27.4,20.9v5.8H7.8v-5.8H27.4z
		 M27.7,31.8v5.7H7.8v-5.7H27.7z M27.9,64.3H14.7v4.9H8.1V43.3h19.8V64.3z M21.4,58.2v-8.9h-6.6v8.9H21.4z M50.6,14.4v11.5h-4.9v3.5
		h11.2v-3.5h-3.7V14.4H71v11.5h-8v3.5h9.8v4.9H63v3.5h8.3v4.6H63v3.7h10.4v4.9H56.9c1.6,2.6,3.2,4.7,4.6,6.2
		c0.7-0.5,1.5-1.2,2.3-1.9c1-1,1.9-2.2,2.9-3.7l4.6,2.9c-1.2,2-2.4,3.5-3.5,4.6c-0.6,0.6-1.2,1.2-1.8,1.7c2.2,1.5,5,2.7,8.2,4
		L71,69.7c-5.5-2.4-9.6-4.8-12.3-7.2c-2.8-2.6-5.4-6.3-7.9-11.2c-1.5,1.3-2.9,2.6-4.5,3.6v7.1c3.2-0.6,6.2-1.2,9.2-1.9v5.4
		c-5.9,1.5-12.6,2.9-20.1,4.3L33.7,64c2.2-0.3,4.4-0.7,6.5-1v-4.8c-2.5,1-5.4,2-8.9,2.9l-2.3-5.4c4.6-1,8.3-2.2,11.1-3.5
		c0.8-0.4,1.6-0.8,2.4-1.3H29.7v-4.9h10.1v-3.7h-7.5v-4.6h7.5v-3.5h-8.7v-4.9h8.7v-3.5h-6.9V14.4H50.6z M55,6.6h18v5.1H30.3V6.6h18
		c-0.6-1.3-1.1-2.6-1.7-3.7L53.5,2C54.1,3.4,54.6,4.9,55,6.6z M45.2,18h-6.9v4h6.9V18z M56.9,34.1H45.8v3.5h11.2V34.1z M56.9,42.1
		H45.8v3.7h11.2V42.1z M65.5,18h-6.9v4h6.9V18z"/>
	<path d="M89.2,19.2V6h7.5v13.2h10.6V2.8h7.2v16.4h14V2.8h7.2v16.4h12.1v6.6h-12.1v25.5h-28.4V25.8H96.7v33.9h50.5v6.6H96.7v3.4
		h-7.5V25.8h-7.5v-6.6H89.2z M114.5,44.8h14v-19h-14V44.8z"/>
	<path d="M217.4,4.3v31.8h-12.7c2.4,2.4,4.6,4,6.6,5.1c3.2,1.9,7.7,3.8,13.5,5.6l-2.9,6.3c-7.6-2.8-13.2-5.5-16.9-8.1v24.5h-6.9
		V42.7h3.9c-2.1-1.8-4-4-6.1-6.6h-11.2c-2.1,2.6-4.2,4.8-6.5,6.6h4.9c-0.1,7.2-1.7,12.7-4.6,16.7c-2.4,3.5-7.7,6.9-16.1,10.1
		l-4.6-5.8c6.8-2.1,11.4-4.3,13.7-6.6c2.8-2.7,4.4-7.1,4.9-13c-4.8,3.4-10.3,6.2-16.5,8.5l-3.7-6c6.2-2.1,11.2-4.2,14.7-6.5
		c1.8-1.2,3.5-2.4,5-3.8h-11.4V4.3H217.4z M187.3,17.5v-7.2h-16.1v7.2H187.3z M187.3,23.2h-16.1v6.8h16.1V23.2z M210.8,17.5v-7.2
		h-17v7.2H210.8z M210.8,23.2h-17v6.8h17V23.2z"/>
	<path d="M243.8,12.3c-0.9-2.6-1.9-5.1-3-7.4l6.6-0.9c1,2.5,1.9,5.3,2.8,8.3h5.1c0.9-3.2,1.5-6.6,2.1-10.1l6.3,0.9
		c-0.7,3.2-1.3,6.2-2.1,9.2h28.8c-0.6,5.1-1.2,9.4-2,12.9h6.8c-0.6,5.1-1.2,9.4-1.9,12.9h5.7c-0.2,16.5-1.7,25.9-4.3,28.2
		c-1.5,2.1-6.5,3.1-14.9,3.1l-1.5-7.2c2.2,0.4,4,0.6,5.5,0.6c2.7,0,4.9-0.6,6.4-1.9c1.2-1.2,2.1-6.9,2.5-17.1h-44.3
		c-3.2,4.8-6.7,8.8-10.5,12.1l-5.7-4c9.9-9.1,17-20.2,21.3-33.3h-17.6v-6.3H243.8z M253.4,49.9c-1.9,7.1-4.6,13.2-8.1,18.4l-5.7-3.7
		c3.5-4.8,6-10.1,7.5-15.8L253.4,49.9z M251.9,38.2h34.8c0.4-1.9,0.8-4.3,1.2-6.9h-32.6C254.2,33.8,253,36,251.9,38.2z M264.6,67.1
		l-6.9,0.9c-0.1-7.8-0.7-13.8-1.4-18.1l5.7-0.6C263.3,53.8,264.1,59.7,264.6,67.1z M257.7,25.2h24.1c0.4-1.8,0.8-4,1.2-6.6h-23.1
		C259.1,21,258.4,23.2,257.7,25.2z M276.9,62.3l-6.3,1.4c-1-4.9-2.4-9.7-4-14.3l5.7-1.7C274.1,51.9,275.6,56.8,276.9,62.3z
		 M287.5,57.6l-5.7,2.1c-1.1-4.1-2.4-8.1-4-12.1l4.9-1.2C284.7,50.6,286.3,54.3,287.5,57.6z"/>
	<path d="M328.8,4.6c-2,5.9-4,10.9-6,15v49.3h-6.6V30.2c-2,2.6-4.1,5.4-6.3,8l-2.3-8.1c3.1-3.8,5.8-7.9,8.2-12c2.4-3.7,4.7-9,7-16.1
		L328.8,4.6z M346,3.7c-1,2.5-1.9,4.8-2.9,6.9h31c-1.2,6.5-3.2,12.8-6,19l-6.9-2.1c1.9-2.9,3.5-6.4,4.9-10.6h-26
		c-3.2,6.2-6.5,11.2-9.9,15.2l-4.9-6c6-7.1,10.7-15.1,13.7-23.9L346,3.7z M343.4,32.1c-2.6,10-6.4,18.6-11.2,25.8l-6.3-4
		c5-7.2,8.5-15,10.6-23.3L343.4,32.1z M354.9,21.2v40.5c0,2.6-0.7,4.5-1.8,5.5c-1.2,1.1-3.2,1.7-6.2,1.7h-10.4l-1.4-7.2
		c3.9,0.4,7.1,0.6,9.7,0.6c1.9,0,2.9-0.6,2.9-1.8V21.2H354.9z M375,56.5l-6.6,2.9c-3.1-10.2-6.4-19.3-10.1-27.3l6.6-2.1
		C368.8,38.4,372.1,47.2,375,56.5z"/>
	<path d="M404.9,3.1c-0.9,3.8-2.1,7.4-3.7,10.7h10.6v15.4c2.1-3.5,3.8-7.1,5-10.6c1.5-4.1,2.6-9.6,3.6-16.5l7.2,1.1
		c-0.7,4-1.3,7.4-2,10.4h22.6c0,25.9-0.4,41.2-1.2,45.9c-0.7,3.7-2,6.2-3.7,7.4c-2.1,1.5-5.9,2.2-11.4,2.2c-1.6,0-3.5-0.1-5.5-0.3
		l-1.1-7.2c2.1,0.4,4.3,0.6,6.6,0.6c4.6,0,7.2-1.5,7.8-4.6c0.9-3.8,1.5-16.2,1.6-37.3h-17.5c-0.2,0.5-0.4,1-0.4,1.3
		c-1.6,5.3-4.3,11-8.2,16.8l-3.5-4.3V64h-6.3v-3.5H392V66h-6.3V13.8h9.1c1.5-3.5,2.7-7.4,3.5-11.5L404.9,3.1z M405.5,34.1V19.8H392
		v14.3H405.5z M405.5,54.5V39.9H392v14.6H405.5z M435.9,47.4l-6.9,4.6c-2.1-5.3-4.9-11.5-8.6-18.4l5.7-3.7
		C430.3,36.6,433.6,42.5,435.9,47.4z"/>
	<path d="M480.3,4.9c-0.9,2.9-1.9,5.5-3,8h11.7V2h7.1v10.9h23.8v6.3h-23.8v12.6h28.4v6.3h-20.7v21.5c0,1.8,0.8,2.6,2.6,2.6h7.1
		c1.7,0,2.9-0.4,3.7-1.4c0.9-0.9,1.5-5.2,1.8-12.9l6.8,2c-0.7,9.3-1.9,14.8-3.5,16.4c-1.5,1.7-4.1,2.6-7.9,2.6h-10.6
		c-2.2,0-4-0.7-5.3-1.8c-1.3-1.3-1.9-3-1.9-5.1V38.2h-10.6c-0.8,8.5-2.6,14.8-5.6,19c-3.5,5-9.4,9.2-17.7,12.9l-4.9-6.3
		c7.6-2.9,12.9-6.1,15.9-9.7c2.6-3.1,4.3-8.4,5.1-15.8h-19.3v-6.3h29.3V19.2h-14.7c-2.1,3.8-4.3,7.3-6.8,10.4l-6.6-4.3
		c5.9-6.8,10-14,12.4-21.8L480.3,4.9z"/>
	<path d="M551,2.5c3.7,3.8,6.9,7.7,9.7,11.8c6.2-3.7,10.9-7.8,14.1-12.3l6,1.1c-0.9,1.2-1.7,2.4-2.6,3.5h19.3v4.3
		c-3.7,4.6-7.4,8.2-11.1,11c4.2,1.6,9.4,3.1,15.7,4.3l-2.3,6.3c-9.5-2.6-16-4.9-19.3-6.8c-4.7,2.6-10.8,4.9-18.3,6.8l-3.2-5.7
		c6.3-1.3,11.7-2.9,16-4.9c-2-1.8-3.7-3.7-5.3-6c-1.8,1.5-3.5,2.9-5.3,4l-3.2-4l-4.2,4h1.4v6h-6.8v6h8.9v6h-8.9v20.7
		c2.8-0.7,5.7-1.5,8.6-2.6v6.3c-7.6,2.5-16,4.6-25.3,6l-0.9-6.6c3.7-0.3,7.6-0.8,11.5-1.7V37.9h-11v-6h11v-6h-7.5v-3.1
		c-0.7,0.9-1.5,1.8-2.3,2.5l-2.3-7.2c4.4-4.3,8.5-9.4,12.3-15.5h2.9H551z M542.4,56.5l-6,0.6c-0.2-6.3-0.7-11.2-1.5-14.7l5.1-0.5
		C541.3,45.5,542,50.4,542.4,56.5z M556.6,19.8c-3.1-4.9-5.7-8.7-7.6-11.2c-2.5,4-5.3,7.7-8.4,11.2H556.6z M560.8,41.9
		c-0.4,5-1,9.2-1.8,12.6l-5.4-1.7c1.1-3.5,1.8-7.4,2.3-11.5L560.8,41.9z M577.4,34.7v-5.1h6.6v5.1h14.6v5.4H584v4.3H597v5.4H584v5.1
		h15.5v5.7H584v8.7h-6.6v-8.7h-14.6v-5.7h14.6v-5.1h-12.1v-5.4h12.1v-4.3H564v-5.4H577.4z M580.7,18.9c2.7-1.8,5.6-4.1,8.7-7.2H574
		C575.7,14.8,577.9,17.1,580.7,18.9z"/>
	<path d="M620.4,27.2V2.8h6.3v24.4h9.8v6h-9.8v1.8c3.5,3.7,7,7.7,10.6,12.3l-3.7,5.7c-2.8-4.3-5.1-7.9-6.9-10.5v26.6h-6.3V43.3
		c-0.1,0.3-0.2,0.5-0.3,0.7c-2.4,5.4-5.2,10.2-8.6,14.2l-2.6-7.1c4.4-5.1,8.1-11.1,11-17.9h-10.8v-6H620.4z M619.8,22.7l-6,1.4
		c-1-4.9-2.1-9.7-3.5-14.3l5.4-1.7C617.2,12.3,618.6,17.2,619.8,22.7z M637.6,9.1c-1.2,5.4-2.7,10.4-4.6,14.9l-5.7-2
		c1.8-3.7,3.2-8.5,4.6-14.3L637.6,9.1z M652.8,7.1V2h6.6v5.1H674v5.7h-14.6v3.5h13.5v5.1h-13.5v3.7h16.4V31h-38.2v-5.7h15.2v-3.7
		h-12.9v-5.1h12.9v-3.5h-14.3V7.1H652.8z M673.2,63.2c0,2.1-0.7,3.7-1.8,4.9c-1,1-2.4,1.5-4.2,1.5h-7.5l-1.2-5.8l6.3,0.3
		c1.3-0.1,2.1-1,2.1-2.6v-3.5h-20.1v11.5h-6.3V34.1h32.8V63.2z M666.9,43.6v-4h-20.1v4H666.9z M666.9,52.8v-4h-20.1v4H666.9z"/>
	<path d="M702.3,13.2h7.7v6.3c-2.9,6-5.6,10.7-8.2,14.3c3.5,2.4,6.7,5.1,9.7,8.2l-3.7,5.7c-2.1-2.4-4.2-4.6-6.3-6.5v28.4h-6.9V42.2
		c-2.5,2.5-5.2,5.1-8.3,7.7l-2-7.2c4.4-3.5,7.8-6.8,10.1-9.7c2.6-2.6,5.4-7,8.3-13.2h-17.1v-6.6h10.1c-1-3.5-2.2-6.9-3.5-10.1
		l6.9-0.9C700.3,5.5,701.3,9.1,702.3,13.2z M727.8,12.6V2h6.9v10.6h15.5v41.1h-15.5v15.8h-6.9V53.7h-15.5V12.6H727.8z M727.8,29.6
		V19.2h-8.9v10.4H727.8z M727.8,35.9h-8.9v11.2h8.9V35.9z M734.7,29.6h8.9V19.2h-8.9V29.6z M743.6,35.9h-8.9v11.2h8.9V35.9z"/>
	<path d="M794.3,4.9v6h-17.1c-1.4,4.8-3.5,9.8-6.5,15.1c6-0.2,11-0.6,15.1-1.2c-1.5-2.5-3.1-5-4.7-7.6l4.9-2.9c3.2,4.3,5.8,8,8,11.3
		c4.2-7.2,7.4-15.1,9.8-23.5l6.9,1.5c-1,3.3-2.1,6.4-3.2,9.2h18.4v5.7h-4.8c-0.9,14-2.9,24.3-6.3,30.9c-0.3,0.6-0.6,1-0.8,1.5
		c2.9,3.7,7.1,7.6,12.5,11.5l-3.7,6.6c-5.3-3.9-9.6-7.9-13-12.2c-3.8,4.6-8.8,8.5-14.8,12.2l-4.6-5.7c6.8-3.7,12-7.8,15.5-12.2
		c-2.7-4.9-5-11.5-6.8-19.6c-0.9,1.5-1.8,2.9-2.6,4.2l-3.1-3.8l-2.4,1.8c-0.6-1.2-1.2-2.4-1.9-3.7c-2.5,0.4-5.3,0.8-8.4,1.1v9.5
		h13.7v6h-13.7v9.3c5.3-1.2,10.2-2.5,14.9-3.9v6.6c-9.9,3.1-21,5.8-33.6,8.3l-2.1-6.8c5-0.9,9.8-1.8,14.4-2.8V46.8H761v-6h13.2v-8.9
		c-4,0.3-8.5,0.6-13.2,0.9l-1.7-6.6h4.1c2.9-4.7,5.4-9.8,7.2-15.2h-11v-6H794.3z M809.8,44.9c2.5-5.7,4-14.5,4.8-26.2h-9.3
		c-0.7,1.7-1.4,3.2-2,4.6C805.1,32.9,807.2,40.1,809.8,44.9z"/>
	<path d="M843.5,8.5V2h6v6.5h4.9v5.8h-4.9v4h-0.2l1.6,0.3c-0.7,1.7-1.4,3.2-2,4.6h21.8v6.3c1.9-3.5,3.5-6.9,4.6-10.3
		c1.5-4.3,2.7-10,3.7-17.3l6.6,0.8c-0.7,4.1-1.3,7.6-2.1,10.7h18.2v6H898c-0.4,12.2-2.5,22.1-6.2,29.6c-0.4,0.7-0.7,1.5-1,2.1
		c2.9,4.8,6.6,8.9,11.3,12.3l-4,6c-4.6-3.8-8.4-7.9-11.2-12.3c-3.3,4.3-7.5,8.2-12.6,12l-3.7-6c5.4-3.5,9.6-7.6,12.9-12.1
		c-2.6-5.3-4.9-11.2-6.8-18c-1,2-2.2,4-3.5,6l-2.3-2.9c-0.1,13.7-0.4,22-0.9,25c-0.6,3.1-1.5,5.1-2.8,6c-1.5,1.2-4.3,1.8-8.4,1.8
		c-1.6,0-3.4-0.1-5.4-0.3l-1.2-6.9c2.1,0.4,4.3,0.6,6.6,0.6c2.8,0,4.3-1.2,4.7-3.5c0.5-2.9,0.9-12.6,1-29h-18.8
		c-1,2-2.1,3.7-3.2,5.2H859v22.6h-18.7V38c-0.6,0.8-1.2,1.5-1.8,2.1l-4.3-5.1c4.4-5.1,7.9-10.7,10.3-16.7h-1.1v-4h-8.6V8.5H843.5z
		 M853.8,40.7h-8.3v11.2h8.3V40.7z M861.6,8.5V2h6v6.5h8.3v5.8h-8.3v5.4h-6v-5.4H857V8.5H861.6z M887.1,44.3
		c2.6-6.1,4.1-14.4,4.6-24.8h-9.6c-0.2,0.7-0.4,1.5-0.7,2.1c-0.2,0.7-0.4,1.5-0.7,2.1C882.5,31.9,884.6,38.8,887.1,44.3z"/>
	<path d="M939.7,62.4v-9h9v9H939.7z M946.8,49.8h-5.3l-1.7-39.4h8.7L946.8,49.8z"/>
</g>
</svg>
